{
  "header": {
    "PPQ": 96,
    "timeSignature": [
      4,
      4
    ],
    "bpm": 120.00013000013,
    "name": ""
  },
  "startTime": 0,
  "duration": 261.48050775,
  "tracks": [
    {
      "startTime": 0,
      "duration": 0,
      "length": 0,
      "notes": [],
      "controlChanges": {},
      "id": 0
    },
    {
      "startTime": 1.8461519999999998,
      "duration": 261.48050775,
      "length": 862,
      "notes": [
        {
          "name": "D4",
          "midi": 62,
          "time": 1.8461519999999998,
          "velocity": 0.6850393700787402,
          "duration": 0.08653837499999995
        },
        {
          "name": "D4",
          "midi": 62,
          "time": 1.9999979999999997,
          "velocity": 0.7007874015748031,
          "duration": 0.07692299999999985
        },
        {
          "name": "A3",
          "midi": 57,
          "time": 2.1874978124999997,
          "velocity": 0.6377952755905512,
          "duration": 0.07692299999999985
        },
        {
          "name": "A3",
          "midi": 57,
          "time": 2.3413438124999995,
          "velocity": 0.6062992125984252,
          "duration": 0.07692299999999985
        },
        {
          "name": "D4",
          "midi": 62,
          "time": 2.533651312499999,
          "velocity": 0.6456692913385826,
          "duration": 0.08653837499999995
        },
        {
          "name": "D4",
          "midi": 62,
          "time": 2.701920374999999,
          "velocity": 0.6299212598425197,
          "duration": 0.0817306874999999
        },
        {
          "name": "E4",
          "midi": 64,
          "time": 2.879804812499999,
          "velocity": 0.6456692913385826,
          "duration": 0.07692299999999985
        },
        {
          "name": "E4",
          "midi": 64,
          "time": 3.0384584999999986,
          "velocity": 0.6141732283464567,
          "duration": 0.0817306874999999
        },
        {
          "name": "F4",
          "midi": 65,
          "time": 3.2211506249999986,
          "velocity": 0.6692913385826772,
          "duration": 0.07692299999999985
        },
        {
          "name": "F4",
          "midi": 65,
          "time": 3.3894196874999984,
          "velocity": 0.6299212598425197,
          "duration": 0.07692299999999985
        },
        {
          "name": "E4",
          "midi": 64,
          "time": 3.581727187499998,
          "velocity": 0.6850393700787402,
          "duration": 0.0817306874999999
        },
        {
          "name": "E4",
          "midi": 64,
          "time": 3.745188562499998,
          "velocity": 0.6456692913385826,
          "duration": 0.0817306874999999
        },
        {
          "name": "D4",
          "midi": 62,
          "time": 3.9134576249999977,
          "velocity": 0.7165354330708661,
          "duration": 0.07692299999999985
        },
        {
          "name": "D4",
          "midi": 62,
          "time": 4.086534374999998,
          "velocity": 0.6456692913385826,
          "duration": 0.08173068750000034
        },
        {
          "name": "E4",
          "midi": 64,
          "time": 4.269226499999998,
          "velocity": 0.7007874015748031,
          "duration": 0.08653837499999995
        },
        {
          "name": "E4",
          "midi": 64,
          "time": 4.432687874999997,
          "velocity": 0.6377952755905512,
          "duration": 0.07692299999999985
        },
        {
          "name": "C4",
          "midi": 60,
          "time": 4.605764624999997,
          "velocity": 0.7559055118110236,
          "duration": 0.08653837499999995
        },
        {
          "name": "C4",
          "midi": 60,
          "time": 4.769225999999997,
          "velocity": 0.6141732283464567,
          "duration": 0.09134606250000044
        },
        {
          "name": "G3",
          "midi": 55,
          "time": 4.961533499999997,
          "velocity": 0.6535433070866141,
          "duration": 0.07692299999999985
        },
        {
          "name": "G3",
          "midi": 55,
          "time": 5.124994874999997,
          "velocity": 0.5748031496062992,
          "duration": 0.07692299999999985
        },
        {
          "name": "C4",
          "midi": 60,
          "time": 5.3124946874999965,
          "velocity": 0.5984251968503937,
          "duration": 0.05769224999999967
        },
        {
          "name": "C4",
          "midi": 60,
          "time": 5.471148374999996,
          "velocity": 0.5905511811023622,
          "duration": 0.08653837499999995
        },
        {
          "name": "D4",
          "midi": 62,
          "time": 5.653840499999996,
          "velocity": 0.6299212598425197,
          "duration": 0.07692299999999985
        },
        {
          "name": "D4",
          "midi": 62,
          "time": 5.817301874999996,
          "velocity": 0.5669291338582677,
          "duration": 0.09615375000000004
        },
        {
          "name": "E4",
          "midi": 64,
          "time": 6.009609374999996,
          "velocity": 0.6692913385826772,
          "duration": 0.07692299999999985
        },
        {
          "name": "E4",
          "midi": 64,
          "time": 6.177878437499995,
          "velocity": 0.6220472440944882,
          "duration": 0.08653837499999995
        },
        {
          "name": "D4",
          "midi": 62,
          "time": 6.370185937499995,
          "velocity": 0.6692913385826772,
          "duration": 0.08173068750000034
        },
        {
          "name": "D4",
          "midi": 62,
          "time": 6.528839624999995,
          "velocity": 0.6220472440944882,
          "duration": 0.08173068750000034
        },
        {
          "name": "C4",
          "midi": 60,
          "time": 6.711531749999995,
          "velocity": 0.6692913385826772,
          "duration": 0.07692299999999985
        },
        {
          "name": "C4",
          "midi": 60,
          "time": 6.879800812499996,
          "velocity": 0.6220472440944882,
          "duration": 0.07692299999999985
        },
        {
          "name": "E4",
          "midi": 64,
          "time": 7.062492937499996,
          "velocity": 0.6692913385826772,
          "duration": 0.08653837499999995
        },
        {
          "name": "C4",
          "midi": 60,
          "time": 7.225954312499995,
          "velocity": 0.6692913385826772,
          "duration": 0.07692299999999985
        },
        {
          "name": "D4",
          "midi": 62,
          "time": 7.403838749999995,
          "velocity": 0.7637795275590551,
          "duration": 0.07211531250000025
        },
        {
          "name": "D4",
          "midi": 62,
          "time": 7.586530874999995,
          "velocity": 0.6456692913385826,
          "duration": 0.08653837499999995
        },
        {
          "name": "A3",
          "midi": 57,
          "time": 7.754799937499995,
          "velocity": 0.6141732283464567,
          "duration": 0.052884562500000065
        },
        {
          "name": "A3",
          "midi": 57,
          "time": 7.908645937499995,
          "velocity": 0.6141732283464567,
          "duration": 0.08653837499999995
        },
        {
          "name": "D4",
          "midi": 62,
          "time": 8.091338062499995,
          "velocity": 0.6141732283464567,
          "duration": 0.057692250000000556
        },
        {
          "name": "D4",
          "midi": 62,
          "time": 8.254799437499996,
          "velocity": 0.6062992125984252,
          "duration": 0.09134606249999955
        },
        {
          "name": "E4",
          "midi": 64,
          "time": 8.432683874999995,
          "velocity": 0.5905511811023622,
          "duration": 0.06730762499999976
        },
        {
          "name": "E4",
          "midi": 64,
          "time": 8.605760624999995,
          "velocity": 0.5511811023622047,
          "duration": 0.06249993750000016
        },
        {
          "name": "F4",
          "midi": 65,
          "time": 8.774029687499995,
          "velocity": 0.5984251968503937,
          "duration": 0.08173068750000034
        },
        {
          "name": "F4",
          "midi": 65,
          "time": 8.937491062499996,
          "velocity": 0.5748031496062992,
          "duration": 0.07692300000000074
        },
        {
          "name": "E4",
          "midi": 64,
          "time": 9.120183187499997,
          "velocity": 0.6220472440944882,
          "duration": 0.057692250000000556
        },
        {
          "name": "E4",
          "midi": 64,
          "time": 9.288452249999997,
          "velocity": 0.6141732283464567,
          "duration": 0.06249993750000016
        },
        {
          "name": "D4",
          "midi": 62,
          "time": 9.461528999999997,
          "velocity": 0.6850393700787402,
          "duration": 0.07692300000000074
        },
        {
          "name": "D4",
          "midi": 62,
          "time": 9.629798062499997,
          "velocity": 0.5511811023622047,
          "duration": 0.08173068750000034
        },
        {
          "name": "E4",
          "midi": 64,
          "time": 9.817297874999998,
          "velocity": 0.6377952755905512,
          "duration": 0.07211531249999936
        },
        {
          "name": "E4",
          "midi": 64,
          "time": 9.980759249999997,
          "velocity": 0.6377952755905512,
          "duration": 0.09134606249999955
        },
        {
          "name": "C4",
          "midi": 60,
          "time": 10.153835999999997,
          "velocity": 0.7401574803149606,
          "duration": 0.08173068750000034
        },
        {
          "name": "C4",
          "midi": 60,
          "time": 10.326912749999996,
          "velocity": 0.5905511811023622,
          "duration": 0.09134606249999955
        },
        {
          "name": "G3",
          "midi": 55,
          "time": 10.504797187499996,
          "velocity": 0.6062992125984252,
          "duration": 0.07211531249999936
        },
        {
          "name": "G3",
          "midi": 55,
          "time": 10.673066249999994,
          "velocity": 0.5748031496062992,
          "duration": 0.08653837499999995
        },
        {
          "name": "C4",
          "midi": 60,
          "time": 10.850950687499994,
          "velocity": 0.5669291338582677,
          "duration": 0.04326918749999997
        },
        {
          "name": "C4",
          "midi": 60,
          "time": 11.024027437499994,
          "velocity": 0.5748031496062992,
          "duration": 0.057692250000000556
        },
        {
          "name": "D4",
          "midi": 62,
          "time": 11.201911874999995,
          "velocity": 0.5905511811023622,
          "duration": 0.048076874999999575
        },
        {
          "name": "D4",
          "midi": 62,
          "time": 11.365373249999994,
          "velocity": 0.5669291338582677,
          "duration": 0.07211531249999936
        },
        {
          "name": "E4",
          "midi": 64,
          "time": 11.543257687499993,
          "velocity": 0.6220472440944882,
          "duration": 0.06249993750000016
        },
        {
          "name": "E4",
          "midi": 64,
          "time": 11.711526749999994,
          "velocity": 0.6141732283464567,
          "duration": 0.08173068750000034
        },
        {
          "name": "D4",
          "midi": 62,
          "time": 11.903834249999994,
          "velocity": 0.6220472440944882,
          "duration": 0.057692250000000556
        },
        {
          "name": "D4",
          "midi": 62,
          "time": 12.067295624999995,
          "velocity": 0.6377952755905512,
          "duration": 0.08653837499999995
        },
        {
          "name": "C4",
          "midi": 60,
          "time": 12.240372374999994,
          "velocity": 0.7086614173228346,
          "duration": 0.07692300000000074
        },
        {
          "name": "C4",
          "midi": 60,
          "time": 12.413449124999994,
          "velocity": 0.6220472440944882,
          "duration": 0.08173068750000034
        },
        {
          "name": "D4",
          "midi": 62,
          "time": 12.596141249999995,
          "velocity": 0.6692913385826772,
          "duration": 0.09134606249999955
        },
        {
          "name": "D4",
          "midi": 62,
          "time": 12.764410312499995,
          "velocity": 0.6299212598425197,
          "duration": 0.07692300000000074
        },
        {
          "name": "A3",
          "midi": 57,
          "time": 12.932679374999996,
          "velocity": 0.7165354330708661,
          "duration": 0.09615374999999915
        },
        {
          "name": "A3",
          "midi": 57,
          "time": 13.105756124999996,
          "velocity": 0.6062992125984252,
          "duration": 0.08173068750000034
        },
        {
          "name": "E3",
          "midi": 52,
          "time": 13.293255937499996,
          "velocity": 0.6220472440944882,
          "duration": 0.057692250000000556
        },
        {
          "name": "E3",
          "midi": 52,
          "time": 13.451909624999997,
          "velocity": 0.5354330708661418,
          "duration": 0.08653837499999995
        },
        {
          "name": "A3",
          "midi": 57,
          "time": 13.644217124999997,
          "velocity": 0.5905511811023622,
          "duration": 0.048076874999999575
        },
        {
          "name": "A3",
          "midi": 57,
          "time": 13.822101562499997,
          "velocity": 0.5984251968503937,
          "duration": 0.05288456249999918
        },
        {
          "name": "B3",
          "midi": 59,
          "time": 13.999985999999996,
          "velocity": 0.5669291338582677,
          "duration": 0.048076874999999575
        },
        {
          "name": "B3",
          "midi": 59,
          "time": 14.173062749999996,
          "velocity": 0.5905511811023622,
          "duration": 0.057692250000000556
        },
        {
          "name": "C4",
          "midi": 60,
          "time": 14.341331812499996,
          "velocity": 0.6377952755905512,
          "duration": 0.07211531249999936
        },
        {
          "name": "C4",
          "midi": 60,
          "time": 14.504793187499995,
          "velocity": 0.5984251968503937,
          "duration": 0.09134606249999955
        },
        {
          "name": "B3",
          "midi": 59,
          "time": 14.697100687499995,
          "velocity": 0.6299212598425197,
          "duration": 0.048076874999999575
        },
        {
          "name": "B3",
          "midi": 59,
          "time": 14.865369749999996,
          "velocity": 0.6141732283464567,
          "duration": 0.048076874999999575
        },
        {
          "name": "A3",
          "midi": 57,
          "time": 15.033638812499996,
          "velocity": 0.6850393700787402,
          "duration": 0.07211531249999936
        },
        {
          "name": "A3",
          "midi": 57,
          "time": 15.206715562499996,
          "velocity": 0.5669291338582677,
          "duration": 0.07692300000000074
        },
        {
          "name": "B3",
          "midi": 59,
          "time": 15.394215374999996,
          "velocity": 0.6692913385826772,
          "duration": 0.08653837499999995
        },
        {
          "name": "B3",
          "midi": 59,
          "time": 15.557676749999997,
          "velocity": 0.6299212598425197,
          "duration": 0.07692300000000074
        },
        {
          "name": "G3",
          "midi": 55,
          "time": 15.730753499999997,
          "velocity": 0.7165354330708661,
          "duration": 0.08653837499999995
        },
        {
          "name": "G3",
          "midi": 55,
          "time": 15.899022562499997,
          "velocity": 0.5748031496062992,
          "duration": 0.09134606249999955
        },
        {
          "name": "D3",
          "midi": 50,
          "time": 16.076907,
          "velocity": 0.6141732283464567,
          "duration": 0.08653837499999995
        },
        {
          "name": "D3",
          "midi": 50,
          "time": 16.240368375,
          "velocity": 0.5511811023622047,
          "duration": 0.09134606250000132
        },
        {
          "name": "G3",
          "midi": 55,
          "time": 16.4374835625,
          "velocity": 0.6062992125984252,
          "duration": 0.048076874999999575
        },
        {
          "name": "G3",
          "midi": 55,
          "time": 16.605752624999997,
          "velocity": 0.6141732283464567,
          "duration": 0.07692300000000074
        },
        {
          "name": "A3",
          "midi": 57,
          "time": 16.788444749999996,
          "velocity": 0.5984251968503937,
          "duration": 0.05769224999999878
        },
        {
          "name": "A3",
          "midi": 57,
          "time": 16.966329187499994,
          "velocity": 0.5669291338582677,
          "duration": 0.04326918750000175
        },
        {
          "name": "B3",
          "midi": 59,
          "time": 17.134598249999996,
          "velocity": 0.6141732283464567,
          "duration": 0.05769224999999878
        },
        {
          "name": "B3",
          "midi": 59,
          "time": 17.307674999999996,
          "velocity": 0.5905511811023622,
          "duration": 0.05769224999999878
        },
        {
          "name": "A3",
          "midi": 57,
          "time": 17.495174812499997,
          "velocity": 0.6062992125984252,
          "duration": 0.05288456250000095
        },
        {
          "name": "A3",
          "midi": 57,
          "time": 17.673059249999998,
          "velocity": 0.6141732283464567,
          "duration": 0.048076874999999575
        },
        {
          "name": "G3",
          "midi": 55,
          "time": 17.846135999999998,
          "velocity": 0.6771653543307087,
          "duration": 0.07211531249999936
        },
        {
          "name": "G3",
          "midi": 55,
          "time": 18.014405062499996,
          "velocity": 0.6062992125984252,
          "duration": 0.08173068749999857
        },
        {
          "name": "B3",
          "midi": 59,
          "time": 18.201904874999993,
          "velocity": 0.6456692913385826,
          "duration": 0.08173068749999857
        },
        {
          "name": "G3",
          "midi": 55,
          "time": 18.36536624999999,
          "velocity": 0.6299212598425197,
          "duration": 0.08653837499999995
        },
        {
          "name": "A3",
          "midi": 57,
          "time": 18.54805837499999,
          "velocity": 0.7401574803149606,
          "duration": 0.06730762500000154
        },
        {
          "name": "A3",
          "midi": 57,
          "time": 18.730750499999992,
          "velocity": 0.6535433070866141,
          "duration": 0.08653837499999995
        },
        {
          "name": "E3",
          "midi": 52,
          "time": 18.903827249999992,
          "velocity": 0.6456692913385826,
          "duration": 0.08173068749999857
        },
        {
          "name": "E3",
          "midi": 52,
          "time": 19.06248093749999,
          "velocity": 0.6299212598425197,
          "duration": 0.07692300000000074
        },
        {
          "name": "A3",
          "midi": 57,
          "time": 19.254788437499993,
          "velocity": 0.6141732283464567,
          "duration": 0.048076874999999575
        },
        {
          "name": "A3",
          "midi": 57,
          "time": 19.42305749999999,
          "velocity": 0.6299212598425197,
          "duration": 0.05769224999999878
        },
        {
          "name": "B3",
          "midi": 59,
          "time": 19.60574962499999,
          "velocity": 0.5669291338582677,
          "duration": 0.07211531249999936
        },
        {
          "name": "B3",
          "midi": 59,
          "time": 19.79324943749999,
          "velocity": 0.5984251968503937,
          "duration": 0.06730762500000154
        },
        {
          "name": "C4",
          "midi": 60,
          "time": 19.961518499999993,
          "velocity": 0.6377952755905512,
          "duration": 0.08653837499999995
        },
        {
          "name": "C4",
          "midi": 60,
          "time": 20.134595249999993,
          "velocity": 0.5511811023622047,
          "duration": 0.08653837499999995
        },
        {
          "name": "B3",
          "midi": 59,
          "time": 20.331710437499993,
          "velocity": 0.6141732283464567,
          "duration": 0.04326918750000175
        },
        {
          "name": "B3",
          "midi": 59,
          "time": 20.504787187499996,
          "velocity": 0.6377952755905512,
          "duration": 0.06249993750000016
        },
        {
          "name": "A3",
          "midi": 57,
          "time": 20.677863937499996,
          "velocity": 0.6692913385826772,
          "duration": 0.07692300000000074
        },
        {
          "name": "A3",
          "midi": 57,
          "time": 20.865363749999997,
          "velocity": 0.5984251968503937,
          "duration": 0.08173068749999857
        },
        {
          "name": "B3",
          "midi": 59,
          "time": 21.062478937499996,
          "velocity": 0.6299212598425197,
          "duration": 0.08653837499999995
        },
        {
          "name": "B3",
          "midi": 59,
          "time": 21.259594124999996,
          "velocity": 0.6141732283464567,
          "duration": 0.06249993750000016
        },
        {
          "name": "F3",
          "midi": 53,
          "time": 21.504786187499995,
          "velocity": 0.7401574803149606,
          "duration": 0.09134606250000132
        },
        {
          "name": "F3",
          "midi": 53,
          "time": 21.692285999999996,
          "velocity": 0.6299212598425197,
          "duration": 0.09615374999999915
        },
        {
          "name": "C3",
          "midi": 48,
          "time": 21.918247312499997,
          "velocity": 0.6377952755905512,
          "duration": 0.08173068749999857
        },
        {
          "name": "C3",
          "midi": 48,
          "time": 22.129785562499997,
          "velocity": 0.6220472440944882,
          "duration": 0.09134606250000132
        },
        {
          "name": "F3",
          "midi": 53,
          "time": 22.365362249999997,
          "velocity": 0.6220472440944882,
          "duration": 0.06249993750000016
        },
        {
          "name": "F3",
          "midi": 53,
          "time": 22.5817081875,
          "velocity": 0.5984251968503937,
          "duration": 0.08173068749999857
        },
        {
          "name": "G3",
          "midi": 55,
          "time": 22.826900249999998,
          "velocity": 0.6299212598425197,
          "duration": 0.08653837499999995
        },
        {
          "name": "G3",
          "midi": 55,
          "time": 23.057669249999996,
          "velocity": 0.6299212598425197,
          "duration": 0.08653837499999995
        },
        {
          "name": "A3",
          "midi": 57,
          "time": 23.360553562499998,
          "velocity": 0.7244094488188977,
          "duration": 0.10096143750000053
        },
        {
          "name": "A3",
          "midi": 57,
          "time": 23.620168687499998,
          "velocity": 0.6771653543307087,
          "duration": 0.08173068749999857
        },
        {
          "name": "G3",
          "midi": 55,
          "time": 23.903822249999997,
          "velocity": 0.6062992125984252,
          "duration": 0.08173068749999857
        },
        {
          "name": "G3",
          "midi": 55,
          "time": 24.201898874999998,
          "velocity": 0.6299212598425197,
          "duration": 0.07692300000000074
        },
        {
          "name": "F3",
          "midi": 53,
          "time": 24.5432446875,
          "velocity": 0.6692913385826772,
          "duration": 0.08173068749999857
        },
        {
          "name": "F3",
          "midi": 53,
          "time": 24.908628937499998,
          "velocity": 0.6141732283464567,
          "duration": 0.09615374999999915
        },
        {
          "name": "A3",
          "midi": 57,
          "time": 25.346128499999995,
          "velocity": 0.5669291338582677,
          "duration": 0.5480763750000008
        },
        {
          "name": "F3",
          "midi": 53,
          "time": 25.894204874999996,
          "velocity": 0.5196850393700787,
          "duration": 0.09134606250000132
        },
        {
          "name": "A3",
          "midi": 57,
          "time": 27.605741624999997,
          "velocity": 0.48031496062992124,
          "duration": 0.17788443750000127
        },
        {
          "name": "D4",
          "midi": 62,
          "time": 27.8124721875,
          "velocity": 0.5039370078740157,
          "duration": 0.355768874999999
        },
        {
          "name": "E4",
          "midi": 64,
          "time": 28.1586256875,
          "velocity": 0.49606299212598426,
          "duration": 0.25480743749999846
        },
        {
          "name": "F4",
          "midi": 65,
          "time": 28.355740875,
          "velocity": 0.5590551181102362,
          "duration": 0.5673071249999992
        },
        {
          "name": "G4",
          "midi": 67,
          "time": 28.923047999999998,
          "velocity": 0.6141732283464567,
          "duration": 0.3798073124999988
        },
        {
          "name": "F4",
          "midi": 65,
          "time": 29.307662999999998,
          "velocity": 0.5984251968503937,
          "duration": 0.42788418749999835
        },
        {
          "name": "E4",
          "midi": 64,
          "time": 29.663431874999997,
          "velocity": 0.5433070866141733,
          "duration": 0.2019228749999975
        },
        {
          "name": "C4",
          "midi": 60,
          "time": 29.846123999999996,
          "velocity": 0.5669291338582677,
          "duration": 0.2932689374999988
        },
        {
          "name": "G3",
          "midi": 55,
          "time": 30.586507874999995,
          "velocity": 0.5905511811023622,
          "duration": 0.18749981250000047
        },
        {
          "name": "C4",
          "midi": 60,
          "time": 30.778815374999997,
          "velocity": 0.5511811023622047,
          "duration": 0.36057656250000036
        },
        {
          "name": "G3",
          "midi": 55,
          "time": 31.139391937499997,
          "velocity": 0.5118110236220472,
          "duration": 0.1826921249999991
        },
        {
          "name": "A#3",
          "midi": 58,
          "time": 31.326891749999998,
          "velocity": 0.5748031496062992,
          "duration": 0.5961532500000004
        },
        {
          "name": "C4",
          "midi": 60,
          "time": 31.8893911875,
          "velocity": 0.5826771653543307,
          "duration": 0.11057681249999973
        },
        {
          "name": "C4",
          "midi": 60,
          "time": 32.2691985,
          "velocity": 0.5905511811023622,
          "duration": 0.36057656250000036
        },
        {
          "name": "F4",
          "midi": 65,
          "time": 32.639390437500005,
          "velocity": 0.5511811023622047,
          "duration": 0.1923074999999983
        },
        {
          "name": "D4",
          "midi": 62,
          "time": 32.817274875,
          "velocity": 0.5905511811023622,
          "duration": 0.3461534999999998
        },
        {
          "name": "A3",
          "midi": 57,
          "time": 33.5624664375,
          "velocity": 0.5669291338582677,
          "duration": 0.18749981250000047
        },
        {
          "name": "D4",
          "midi": 62,
          "time": 33.759581625,
          "velocity": 0.5826771653543307,
          "duration": 0.3701919375000031
        },
        {
          "name": "E4",
          "midi": 64,
          "time": 34.105735125,
          "velocity": 0.5984251968503937,
          "duration": 0.25480743749999846
        },
        {
          "name": "F4",
          "midi": 65,
          "time": 34.278811875,
          "velocity": 0.6141732283464567,
          "duration": 0.5624994375000014
        },
        {
          "name": "G4",
          "midi": 67,
          "time": 34.841311312500004,
          "velocity": 0.6141732283464567,
          "duration": 0.38942268750000153
        },
        {
          "name": "F4",
          "midi": 65,
          "time": 35.221118625,
          "velocity": 0.6141732283464567,
          "duration": 0.4038457500000021
        },
        {
          "name": "E4",
          "midi": 64,
          "time": 35.576887500000005,
          "velocity": 0.5433070866141733,
          "duration": 0.20192287500000106
        },
        {
          "name": "C4",
          "midi": 60,
          "time": 35.75957962500001,
          "velocity": 0.5826771653543307,
          "duration": 0.4326918749999962
        },
        {
          "name": "A3",
          "midi": 57,
          "time": 39.48553743750001,
          "velocity": 0.5196850393700787,
          "duration": 0.18269212500000265
        },
        {
          "name": "D4",
          "midi": 62,
          "time": 39.68746031250001,
          "velocity": 0.5433070866141733,
          "duration": 0.37499962500000095
        },
        {
          "name": "E4",
          "midi": 64,
          "time": 40.04322918750001,
          "velocity": 0.5511811023622047,
          "duration": 0.2451920625000028
        },
        {
          "name": "F4",
          "midi": 65,
          "time": 40.23072900000001,
          "velocity": 0.6062992125984252,
          "duration": 0.5624994375000014
        },
        {
          "name": "G4",
          "midi": 67,
          "time": 40.79803612500001,
          "velocity": 0.5905511811023622,
          "duration": 0.3701919375000031
        },
        {
          "name": "F4",
          "midi": 65,
          "time": 41.16822806250001,
          "velocity": 0.5748031496062992,
          "duration": 0.46153799999999734
        },
        {
          "name": "E4",
          "midi": 64,
          "time": 41.53361231250001,
          "velocity": 0.5433070866141733,
          "duration": 0.20673056249999888
        },
        {
          "name": "C4",
          "midi": 60,
          "time": 41.71149675000001,
          "velocity": 0.5590551181102362,
          "duration": 0.2932689375000024
        },
        {
          "name": "G3",
          "midi": 55,
          "time": 42.437457562500015,
          "velocity": 0.5905511811023622,
          "duration": 0.1923074999999983
        },
        {
          "name": "C4",
          "midi": 60,
          "time": 42.63457275000001,
          "velocity": 0.5905511811023622,
          "duration": 0.336538124999997
        },
        {
          "name": "G3",
          "midi": 55,
          "time": 42.98072625000001,
          "velocity": 0.5511811023622047,
          "duration": 0.18269212500000265
        },
        {
          "name": "A#3",
          "midi": 58,
          "time": 43.16341837500001,
          "velocity": 0.6220472440944882,
          "duration": 0.5913455625000026
        },
        {
          "name": "C4",
          "midi": 60,
          "time": 43.73072550000001,
          "velocity": 0.5826771653543307,
          "duration": 0.14903831250000366
        },
        {
          "name": "C4",
          "midi": 60,
          "time": 44.115340500000016,
          "velocity": 0.5905511811023622,
          "duration": 0.35576887500000254
        },
        {
          "name": "F4",
          "midi": 65,
          "time": 44.47591706250002,
          "velocity": 0.6141732283464567,
          "duration": 0.19711518750000323
        },
        {
          "name": "D4",
          "midi": 62,
          "time": 44.66341687500002,
          "velocity": 0.5984251968503937,
          "duration": 0.30769200000000296
        },
        {
          "name": "A3",
          "midi": 57,
          "time": 45.39418537500002,
          "velocity": 0.5196850393700787,
          "duration": 0.20192287500000106
        },
        {
          "name": "D4",
          "midi": 62,
          "time": 45.59610825000002,
          "velocity": 0.5354330708661418,
          "duration": 0.3653842499999982
        },
        {
          "name": "E4",
          "midi": 64,
          "time": 45.94706943750002,
          "velocity": 0.5669291338582677,
          "duration": 0.24038437499999787
        },
        {
          "name": "F4",
          "midi": 65,
          "time": 46.13456925000002,
          "velocity": 0.6141732283464567,
          "duration": 0.5721148124999971
        },
        {
          "name": "G4",
          "midi": 67,
          "time": 46.711491750000015,
          "velocity": 0.5905511811023622,
          "duration": 0.3798073124999988
        },
        {
          "name": "F4",
          "midi": 65,
          "time": 47.086491375000016,
          "velocity": 0.5669291338582677,
          "duration": 0.44711493749999676
        },
        {
          "name": "E4",
          "midi": 64,
          "time": 47.44226025000001,
          "velocity": 0.5433070866141733,
          "duration": 0.20192287500000106
        },
        {
          "name": "C4",
          "midi": 60,
          "time": 47.62976006250001,
          "velocity": 0.5354330708661418,
          "duration": 0.46153799999999734
        },
        {
          "name": "C4",
          "midi": 60,
          "time": 49.63456575000001,
          "velocity": 0.5275590551181102,
          "duration": 0.1586536874999993
        },
        {
          "name": "C4",
          "midi": 60,
          "time": 50.0047576875,
          "velocity": 0.5905511811023622,
          "duration": 0.36057656250000036
        },
        {
          "name": "A#3",
          "midi": 58,
          "time": 50.365334250000004,
          "velocity": 0.5669291338582677,
          "duration": 0.07211531250000291
        },
        {
          "name": "A#3",
          "midi": 58,
          "time": 50.552834062500004,
          "velocity": 0.6299212598425197,
          "duration": 0.4519226250000017
        },
        {
          "name": "F4",
          "midi": 65,
          "time": 52.60571662500001,
          "velocity": 0.6141732283464567,
          "duration": 0.12980756249999814
        },
        {
          "name": "F4",
          "midi": 65,
          "time": 52.971100875000005,
          "velocity": 0.6299212598425197,
          "duration": 0.3461534999999998
        },
        {
          "name": "E4",
          "midi": 64,
          "time": 53.32686975000001,
          "velocity": 0.5905511811023622,
          "duration": 0.2115382500000038
        },
        {
          "name": "F4",
          "midi": 65,
          "time": 53.50956187500001,
          "velocity": 0.6535433070866141,
          "duration": 1.7019213749999977
        },
        {
          "name": "C4",
          "midi": 60,
          "time": 55.528790625000006,
          "velocity": 0.5590551181102362,
          "duration": 0.35576887500000254
        },
        {
          "name": "F4",
          "midi": 65,
          "time": 55.89417487500001,
          "velocity": 0.6062992125984252,
          "duration": 0.3701919375000031
        },
        {
          "name": "E4",
          "midi": 64,
          "time": 56.25475143750001,
          "velocity": 0.5748031496062992,
          "duration": 0.21634593750000164
        },
        {
          "name": "F4",
          "midi": 65,
          "time": 56.43263587500002,
          "velocity": 0.6141732283464567,
          "duration": 0.5480763749999937
        },
        {
          "name": "E4",
          "midi": 64,
          "time": 56.97590456250001,
          "velocity": 0.5905511811023622,
          "duration": 0.370191937499996
        },
        {
          "name": "F4",
          "midi": 65,
          "time": 57.34128881250001,
          "velocity": 0.6062992125984252,
          "duration": 0.2259613124999973
        },
        {
          "name": "G4",
          "midi": 67,
          "time": 57.51917325000001,
          "velocity": 0.6377952755905512,
          "duration": 0.5576917500000036
        },
        {
          "name": "G#4",
          "midi": 68,
          "time": 58.06244193750001,
          "velocity": 0.6692913385826772,
          "duration": 0.38942268750000153
        },
        {
          "name": "G4",
          "midi": 67,
          "time": 58.447056937500015,
          "velocity": 0.6062992125984252,
          "duration": 0.4567303124999995
        },
        {
          "name": "F4",
          "midi": 65,
          "time": 58.81244118750001,
          "velocity": 0.6377952755905512,
          "duration": 0.4182688125000027
        },
        {
          "name": "D4",
          "midi": 62,
          "time": 59.187440812500014,
          "velocity": 0.6299212598425197,
          "duration": 0.12980756250000525
        },
        {
          "name": "D4",
          "midi": 62,
          "time": 59.56724812500002,
          "velocity": 0.6692913385826772,
          "duration": 1.4855754375000032
        },
        {
          "name": "C4",
          "midi": 60,
          "time": 61.37493862500002,
          "velocity": 0.5984251968503937,
          "duration": 0.11057681249999973
        },
        {
          "name": "C4",
          "midi": 60,
          "time": 61.74993825000002,
          "velocity": 0.5905511811023622,
          "duration": 0.3846150000000037
        },
        {
          "name": "A#3",
          "midi": 58,
          "time": 62.10570712500002,
          "velocity": 0.6141732283464567,
          "duration": 0.052884562500004506
        },
        {
          "name": "A#3",
          "midi": 58,
          "time": 62.29320693750003,
          "velocity": 0.6299212598425197,
          "duration": 0.4567303124999995
        },
        {
          "name": "F4",
          "midi": 65,
          "time": 64.33166643750003,
          "velocity": 0.5984251968503937,
          "duration": 0.13461524999999597
        },
        {
          "name": "F4",
          "midi": 65,
          "time": 64.69224300000003,
          "velocity": 0.6299212598425197,
          "duration": 0.35576887499999543
        },
        {
          "name": "E4",
          "midi": 64,
          "time": 65.05281956250003,
          "velocity": 0.6220472440944882,
          "duration": 0.18749981249999337
        },
        {
          "name": "F4",
          "midi": 65,
          "time": 65.23070400000003,
          "velocity": 0.6535433070866141,
          "duration": 1.658652187499996
        },
        {
          "name": "F4",
          "midi": 65,
          "time": 67.25954812500002,
          "velocity": 0.6141732283464567,
          "duration": 0.15384600000000148
        },
        {
          "name": "F4",
          "midi": 65,
          "time": 67.63454775000002,
          "velocity": 0.7007874015748031,
          "duration": 0.36057656250000036
        },
        {
          "name": "E4",
          "midi": 64,
          "time": 67.99031662500002,
          "velocity": 0.6377952755905512,
          "duration": 0.2115382500000038
        },
        {
          "name": "F4",
          "midi": 65,
          "time": 68.17300875000002,
          "velocity": 0.6850393700787402,
          "duration": 0.5673071249999992
        },
        {
          "name": "E4",
          "midi": 64,
          "time": 68.73070050000003,
          "velocity": 0.6299212598425197,
          "duration": 0.36057656250000036
        },
        {
          "name": "F4",
          "midi": 65,
          "time": 69.09127706250003,
          "velocity": 0.6377952755905512,
          "duration": 0.21634593750000874
        },
        {
          "name": "G4",
          "midi": 67,
          "time": 69.27396918750003,
          "velocity": 0.6692913385826772,
          "duration": 0.543268687500003
        },
        {
          "name": "G#4",
          "midi": 68,
          "time": 69.81723787500003,
          "velocity": 0.6771653543307087,
          "duration": 0.3846150000000108
        },
        {
          "name": "G4",
          "midi": 67,
          "time": 70.19704518750004,
          "velocity": 0.6377952755905512,
          "duration": 0.40865343750000704
        },
        {
          "name": "F4",
          "midi": 65,
          "time": 70.56242943750004,
          "velocity": 0.6535433070866141,
          "duration": 0.4182688125000027
        },
        {
          "name": "D4",
          "midi": 62,
          "time": 70.95185212500004,
          "velocity": 0.6535433070866141,
          "duration": 0.13461524999999597
        },
        {
          "name": "D4",
          "midi": 62,
          "time": 71.36531325000004,
          "velocity": 0.6692913385826772,
          "duration": 0.19711518750000323
        },
        {
          "name": "D5",
          "midi": 74,
          "time": 73.95665681250004,
          "velocity": 0.7559055118110236,
          "duration": 0.3701919375000102
        },
        {
          "name": "D4",
          "midi": 62,
          "time": 73.96146450000005,
          "velocity": 0.8976377952755905,
          "duration": 0.32211506250000355
        },
        {
          "name": "A4",
          "midi": 69,
          "time": 74.30281031250006,
          "velocity": 0.6456692913385826,
          "duration": 0.23557668750000005
        },
        {
          "name": "G4",
          "midi": 67,
          "time": 74.54800237500005,
          "velocity": 0.5590551181102362,
          "duration": 0.20192287499999395
        },
        {
          "name": "A4",
          "midi": 69,
          "time": 74.76915600000005,
          "velocity": 0.6614173228346457,
          "duration": 0.2115382500000038
        },
        {
          "name": "D4",
          "midi": 62,
          "time": 74.98069425000006,
          "velocity": 0.7874015748031497,
          "duration": 0.2451920624999957
        },
        {
          "name": "D5",
          "midi": 74,
          "time": 74.98069425000006,
          "velocity": 0.7401574803149606,
          "duration": 0.2980766249999931
        },
        {
          "name": "A4",
          "midi": 69,
          "time": 75.23550168750005,
          "velocity": 0.6456692913385826,
          "duration": 0.21634593750000874
        },
        {
          "name": "G4",
          "midi": 67,
          "time": 75.46627068750006,
          "velocity": 0.6456692913385826,
          "duration": 0.27403818749999687
        },
        {
          "name": "A4",
          "midi": 69,
          "time": 75.68261662500005,
          "velocity": 0.6771653543307087,
          "duration": 0.13461525000001018
        },
        {
          "name": "D5",
          "midi": 74,
          "time": 75.78357806250006,
          "velocity": 0.7952755905511811,
          "duration": 0.3798073125000059
        },
        {
          "name": "D4",
          "midi": 62,
          "time": 75.78357806250006,
          "velocity": 0.8188976377952756,
          "duration": 0.3509611875000047
        },
        {
          "name": "A4",
          "midi": 69,
          "time": 76.14896231250006,
          "velocity": 0.6141732283464567,
          "duration": 0.22115362499999947
        },
        {
          "name": "G4",
          "midi": 67,
          "time": 76.37492362500006,
          "velocity": 0.6220472440944882,
          "duration": 0.2596151250000105
        },
        {
          "name": "A4",
          "midi": 69,
          "time": 76.60088493750007,
          "velocity": 0.6692913385826772,
          "duration": 0.2067305625000131
        },
        {
          "name": "D5",
          "midi": 74,
          "time": 76.80761550000008,
          "velocity": 0.7401574803149606,
          "duration": 0.3173073749999986
        },
        {
          "name": "D4",
          "midi": 62,
          "time": 76.80761550000008,
          "velocity": 0.7795275590551181,
          "duration": 0.2451920624999957
        },
        {
          "name": "A4",
          "midi": 69,
          "time": 77.06723062500008,
          "velocity": 0.6456692913385826,
          "duration": 0.20192287500000816
        },
        {
          "name": "G4",
          "midi": 67,
          "time": 77.28838425000009,
          "velocity": 0.6771653543307087,
          "duration": 0.2788458749999876
        },
        {
          "name": "A4",
          "midi": 69,
          "time": 77.50473018750009,
          "velocity": 0.6692913385826772,
          "duration": 0.12019218749999538
        },
        {
          "name": "D5",
          "midi": 74,
          "time": 77.61530700000009,
          "velocity": 0.7952755905511811,
          "duration": 0.36057656250000036
        },
        {
          "name": "D4",
          "midi": 62,
          "time": 77.61530700000009,
          "velocity": 0.8346456692913385,
          "duration": 0.3124996874999937
        },
        {
          "name": "A4",
          "midi": 69,
          "time": 77.95665281250008,
          "velocity": 0.5905511811023622,
          "duration": 0.20192287500000816
        },
        {
          "name": "G4",
          "midi": 67,
          "time": 78.17299875000009,
          "velocity": 0.6141732283464567,
          "duration": 0.23076899999999512
        },
        {
          "name": "A4",
          "midi": 69,
          "time": 78.40376775000009,
          "velocity": 0.7007874015748031,
          "duration": 0.1923074999999983
        },
        {
          "name": "D5",
          "midi": 74,
          "time": 78.60569062500008,
          "velocity": 0.7637795275590551,
          "duration": 0.28365356250000673
        },
        {
          "name": "D4",
          "midi": 62,
          "time": 78.60569062500008,
          "velocity": 0.8188976377952756,
          "duration": 0.23076899999999512
        },
        {
          "name": "A4",
          "midi": 69,
          "time": 78.85569037500008,
          "velocity": 0.6141732283464567,
          "duration": 0.2067305625000131
        },
        {
          "name": "G4",
          "midi": 67,
          "time": 79.0768440000001,
          "velocity": 0.6614173228346457,
          "duration": 0.2259613125000044
        },
        {
          "name": "A4",
          "midi": 69,
          "time": 79.26915150000009,
          "velocity": 0.6614173228346457,
          "duration": 0.03846150000001103
        },
        {
          "name": "D4",
          "midi": 62,
          "time": 79.3893436875001,
          "velocity": 0.6850393700787402,
          "duration": 0.30288431249999803
        },
        {
          "name": "A3",
          "midi": 57,
          "time": 79.7210741250001,
          "velocity": 0.6456692913385826,
          "duration": 0.18749981249999337
        },
        {
          "name": "D4",
          "midi": 62,
          "time": 79.94703543750009,
          "velocity": 0.6692913385826772,
          "duration": 0.22115362499999947
        },
        {
          "name": "E4",
          "midi": 64,
          "time": 80.16818906250009,
          "velocity": 0.6692913385826772,
          "duration": 0.20673056249999888
        },
        {
          "name": "F4",
          "midi": 65,
          "time": 80.38453500000008,
          "velocity": 0.7322834645669292,
          "duration": 0.32211506249998934
        },
        {
          "name": "E4",
          "midi": 64,
          "time": 80.61530400000008,
          "velocity": 0.5905511811023622,
          "duration": 0.22115362499999947
        },
        {
          "name": "D4",
          "midi": 62,
          "time": 80.83645762500008,
          "velocity": 0.6456692913385826,
          "duration": 0.2451920624999957
        },
        {
          "name": "E4",
          "midi": 64,
          "time": 81.03838050000007,
          "velocity": 0.6456692913385826,
          "duration": 0.03846149999999682
        },
        {
          "name": "D4",
          "midi": 62,
          "time": 81.15857268750007,
          "velocity": 0.7401574803149606,
          "duration": 0.30769200000000296
        },
        {
          "name": "D5",
          "midi": 74,
          "time": 81.16338037500007,
          "velocity": 0.7952755905511811,
          "duration": 0.3461534999999998
        },
        {
          "name": "A4",
          "midi": 69,
          "time": 81.50953387500007,
          "velocity": 0.6062992125984252,
          "duration": 0.2115382500000038
        },
        {
          "name": "G4",
          "midi": 67,
          "time": 81.73549518750008,
          "velocity": 0.6062992125984252,
          "duration": 0.26923049999999193
        },
        {
          "name": "A4",
          "midi": 69,
          "time": 81.96626418750007,
          "velocity": 0.6692913385826772,
          "duration": 0.20673056249999888
        },
        {
          "name": "D5",
          "midi": 74,
          "time": 82.17299475000007,
          "velocity": 0.7559055118110236,
          "duration": 0.30288431250001224
        },
        {
          "name": "D4",
          "midi": 62,
          "time": 82.17299475000007,
          "velocity": 0.7795275590551181,
          "duration": 0.2596151250000105
        },
        {
          "name": "A4",
          "midi": 69,
          "time": 82.42780218750008,
          "velocity": 0.6614173228346457,
          "duration": 0.22115362500001368
        },
        {
          "name": "G4",
          "midi": 67,
          "time": 82.6537635000001,
          "velocity": 0.6850393700787402,
          "duration": 0.28846124999999745
        },
        {
          "name": "A4",
          "midi": 69,
          "time": 82.8749171250001,
          "velocity": 0.6929133858267716,
          "duration": 0.1057691249999948
        },
        {
          "name": "D5",
          "midi": 74,
          "time": 82.98068625000009,
          "velocity": 0.7559055118110236,
          "duration": 0.33653812500000413
        },
        {
          "name": "D4",
          "midi": 62,
          "time": 82.98068625000009,
          "velocity": 0.7874015748031497,
          "duration": 0.32211506250000355
        },
        {
          "name": "A4",
          "midi": 69,
          "time": 83.32683975000009,
          "velocity": 0.6062992125984252,
          "duration": 0.2115382500000038
        },
        {
          "name": "G4",
          "midi": 67,
          "time": 83.54799337500009,
          "velocity": 0.6220472440944882,
          "duration": 0.27403818749999687
        },
        {
          "name": "A4",
          "midi": 69,
          "time": 83.77876237500008,
          "velocity": 0.6771653543307087,
          "duration": 0.20673056249999888
        },
        {
          "name": "D5",
          "midi": 74,
          "time": 83.98549293750008,
          "velocity": 0.7716535433070866,
          "duration": 0.30288431249999803
        },
        {
          "name": "D4",
          "midi": 62,
          "time": 83.98549293750008,
          "velocity": 0.8188976377952756,
          "duration": 0.2451920624999957
        },
        {
          "name": "A4",
          "midi": 69,
          "time": 84.24030037500007,
          "velocity": 0.6377952755905512,
          "duration": 0.19711518750000323
        },
        {
          "name": "G4",
          "midi": 67,
          "time": 84.45664631250008,
          "velocity": 0.6850393700787402,
          "duration": 0.2836535624999925
        },
        {
          "name": "A4",
          "midi": 69,
          "time": 84.67299225000008,
          "velocity": 0.6850393700787402,
          "duration": 0.11538450000000466
        },
        {
          "name": "D4",
          "midi": 62,
          "time": 84.78356906250008,
          "velocity": 0.7952755905511811,
          "duration": 0.30288431249999803
        },
        {
          "name": "D5",
          "midi": 74,
          "time": 84.78356906250008,
          "velocity": 0.7952755905511811,
          "duration": 0.3317304374999992
        },
        {
          "name": "A4",
          "midi": 69,
          "time": 85.11529950000008,
          "velocity": 0.6141732283464567,
          "duration": 0.2115382500000038
        },
        {
          "name": "G4",
          "midi": 67,
          "time": 85.35087618750008,
          "velocity": 0.6299212598425197,
          "duration": 0.28365356250000673
        },
        {
          "name": "A4",
          "midi": 69,
          "time": 85.57683750000008,
          "velocity": 0.6692913385826772,
          "duration": 0.1923074999999983
        },
        {
          "name": "D5",
          "midi": 74,
          "time": 85.77876037500008,
          "velocity": 0.7559055118110236,
          "duration": 0.28365356250000673
        },
        {
          "name": "D4",
          "midi": 62,
          "time": 85.77876037500008,
          "velocity": 0.7952755905511811,
          "duration": 0.2115382500000038
        },
        {
          "name": "A4",
          "midi": 69,
          "time": 86.02876012500008,
          "velocity": 0.6299212598425197,
          "duration": 0.2115382500000038
        },
        {
          "name": "G4",
          "midi": 67,
          "time": 86.24991375000008,
          "velocity": 0.6614173228346457,
          "duration": 0.21634593749999453
        },
        {
          "name": "A4",
          "midi": 69,
          "time": 86.43741356250007,
          "velocity": 0.6220472440944882,
          "duration": 0.028846125000001166
        },
        {
          "name": "D4",
          "midi": 62,
          "time": 86.56241343750007,
          "velocity": 0.6377952755905512,
          "duration": 0.2932689375000024
        },
        {
          "name": "A3",
          "midi": 57,
          "time": 86.88452850000007,
          "velocity": 0.5511811023622047,
          "duration": 0.18749981249999337
        },
        {
          "name": "D4",
          "midi": 62,
          "time": 87.09606675000006,
          "velocity": 0.6377952755905512,
          "duration": 0.22115362499999947
        },
        {
          "name": "E4",
          "midi": 64,
          "time": 87.32202806250007,
          "velocity": 0.6456692913385826,
          "duration": 0.2115382500000038
        },
        {
          "name": "F4",
          "midi": 65,
          "time": 87.53837400000008,
          "velocity": 0.7165354330708661,
          "duration": 0.3173073749999986
        },
        {
          "name": "E4",
          "midi": 64,
          "time": 87.76914300000007,
          "velocity": 0.6220472440944882,
          "duration": 0.23076900000000933
        },
        {
          "name": "D4",
          "midi": 62,
          "time": 88.00471968750009,
          "velocity": 0.6220472440944882,
          "duration": 0.23557668750000005
        },
        {
          "name": "E4",
          "midi": 64,
          "time": 88.21625793750009,
          "velocity": 0.6535433070866141,
          "duration": 0.05769225000000233
        },
        {
          "name": "D4",
          "midi": 62,
          "time": 88.4422192500001,
          "velocity": 0.7874015748031497,
          "duration": 0.23076899999999512
        },
        {
          "name": "A3",
          "midi": 57,
          "time": 88.68260362500008,
          "velocity": 0.6614173228346457,
          "duration": 0.20192287499999395
        },
        {
          "name": "D4",
          "midi": 62,
          "time": 88.89894956250008,
          "velocity": 0.7165354330708661,
          "duration": 0.28365356250000673
        },
        {
          "name": "E4",
          "midi": 64,
          "time": 89.11048781250008,
          "velocity": 0.7007874015748031,
          "duration": 0.17788443750001193
        },
        {
          "name": "F4",
          "midi": 65,
          "time": 89.23068000000009,
          "velocity": 0.7716535433070866,
          "duration": 0.3653842499999911
        },
        {
          "name": "G4",
          "midi": 67,
          "time": 89.58644887500009,
          "velocity": 0.7637795275590551,
          "duration": 0.25480743749999135
        },
        {
          "name": "F4",
          "midi": 65,
          "time": 89.80279481250008,
          "velocity": 0.7401574803149606,
          "duration": 0.3365381249999899
        },
        {
          "name": "E4",
          "midi": 64,
          "time": 90.03356381250008,
          "velocity": 0.7165354330708661,
          "duration": 0.2596151249999963
        },
        {
          "name": "D4",
          "midi": 62,
          "time": 90.24990975000007,
          "velocity": 0.7952755905511811,
          "duration": 0.22115362499999947
        },
        {
          "name": "D4",
          "midi": 62,
          "time": 90.60567862500007,
          "velocity": 0.7165354330708661,
          "duration": 0.07211531250000291
        },
        {
          "name": "D4",
          "midi": 62,
          "time": 90.72587081250008,
          "velocity": 0.8346456692913385,
          "duration": 0.28846124999999745
        },
        {
          "name": "E4",
          "midi": 64,
          "time": 90.95183212500008,
          "velocity": 0.7244094488188977,
          "duration": 0.1923074999999841
        },
        {
          "name": "F4",
          "midi": 65,
          "time": 91.06721662500007,
          "velocity": 0.7401574803149606,
          "duration": 0.34615349999998557
        },
        {
          "name": "G4",
          "midi": 67,
          "time": 91.40375475000006,
          "velocity": 0.7401574803149606,
          "duration": 0.2596151249999963
        },
        {
          "name": "F4",
          "midi": 65,
          "time": 91.62490837500006,
          "velocity": 0.6929133858267716,
          "duration": 0.37499962499998674
        },
        {
          "name": "E4",
          "midi": 64,
          "time": 91.85086968750005,
          "velocity": 0.7165354330708661,
          "duration": 0.2596151249999963
        },
        {
          "name": "D4",
          "midi": 62,
          "time": 92.06721562500005,
          "velocity": 0.7637795275590551,
          "duration": 0.18749981250000758
        },
        {
          "name": "D4",
          "midi": 62,
          "time": 92.41336912500006,
          "velocity": 0.6692913385826772,
          "duration": 0.0336538125000061
        },
        {
          "name": "D4",
          "midi": 62,
          "time": 92.50471518750007,
          "velocity": 0.7244094488188977,
          "duration": 0.24999975000000063
        },
        {
          "name": "E4",
          "midi": 64,
          "time": 92.73067650000007,
          "velocity": 0.7086614173228346,
          "duration": 0.14903831249999655
        },
        {
          "name": "F4",
          "midi": 65,
          "time": 92.84606100000006,
          "velocity": 0.7716535433070866,
          "duration": 0.3269227500000085
        },
        {
          "name": "G4",
          "midi": 67,
          "time": 93.18259912500007,
          "velocity": 0.7401574803149606,
          "duration": 0.23076899999999512
        },
        {
          "name": "A4",
          "midi": 69,
          "time": 93.40375275000007,
          "velocity": 0.7322834645669292,
          "duration": 0.264422812499987
        },
        {
          "name": "A#4",
          "midi": 70,
          "time": 93.62971406250006,
          "velocity": 0.7165354330708661,
          "duration": 0.2596151249999963
        },
        {
          "name": "A4",
          "midi": 69,
          "time": 93.83644462500006,
          "velocity": 0.8661417322834646,
          "duration": 0.5192302499999926
        },
        {
          "name": "D4",
          "midi": 62,
          "time": 95.62009668750005,
          "velocity": 0.7559055118110236,
          "duration": 0.24999975000000063
        },
        {
          "name": "A3",
          "midi": 57,
          "time": 95.85086568750005,
          "velocity": 0.6850393700787402,
          "duration": 0.1923075000000125
        },
        {
          "name": "D4",
          "midi": 62,
          "time": 96.06721162500006,
          "velocity": 0.7165354330708661,
          "duration": 0.28365356250000673
        },
        {
          "name": "E4",
          "midi": 64,
          "time": 96.27874987500006,
          "velocity": 0.7401574803149606,
          "duration": 0.1538460000000157
        },
        {
          "name": "F4",
          "midi": 65,
          "time": 96.38451900000007,
          "velocity": 0.7559055118110236,
          "duration": 0.35576887499999543
        },
        {
          "name": "G4",
          "midi": 67,
          "time": 96.73067250000007,
          "velocity": 0.7716535433070866,
          "duration": 0.23076899999999512
        },
        {
          "name": "F4",
          "midi": 65,
          "time": 96.94701843750006,
          "velocity": 0.7244094488188977,
          "duration": 0.28846124999999745
        },
        {
          "name": "E4",
          "midi": 64,
          "time": 97.16817206250006,
          "velocity": 0.7401574803149606,
          "duration": 0.20673056249999888
        },
        {
          "name": "C4",
          "midi": 60,
          "time": 97.38451800000006,
          "velocity": 0.7716535433070866,
          "duration": 0.13461524999999597
        },
        {
          "name": "C4",
          "midi": 60,
          "time": 97.72586381250005,
          "velocity": 0.7165354330708661,
          "duration": 0.0336538125000061
        },
        {
          "name": "C4",
          "midi": 60,
          "time": 97.81720987500006,
          "velocity": 0.7637795275590551,
          "duration": 0.0865383750000035
        },
        {
          "name": "C4",
          "midi": 60,
          "time": 98.04797887500007,
          "velocity": 0.7244094488188977,
          "duration": 0.04807687500000668
        },
        {
          "name": "C4",
          "midi": 60,
          "time": 98.15855568750007,
          "velocity": 0.8110236220472441,
          "duration": 0.35576887500000964
        },
        {
          "name": "F4",
          "midi": 65,
          "time": 98.49509381250007,
          "velocity": 0.7401574803149606,
          "duration": 0.06249993750000726
        },
        {
          "name": "F4",
          "midi": 65,
          "time": 98.71624743750009,
          "velocity": 0.7716535433070866,
          "duration": 0.19711518750000323
        },
        {
          "name": "G4",
          "midi": 67,
          "time": 98.92778568750009,
          "velocity": 0.7322834645669292,
          "duration": 0.2932689375000024
        },
        {
          "name": "D4",
          "midi": 62,
          "time": 99.1537470000001,
          "velocity": 0.7559055118110236,
          "duration": 0.18269212500000265
        },
        {
          "name": "D4",
          "midi": 62,
          "time": 99.5143235625001,
          "velocity": 0.7165354330708661,
          "duration": 0.07211531250000291
        },
        {
          "name": "D4",
          "midi": 62,
          "time": 99.6152850000001,
          "velocity": 0.5039370078740157,
          "duration": 0.25480743749999135
        },
        {
          "name": "E4",
          "midi": 64,
          "time": 99.8316309375001,
          "velocity": 0.7086614173228346,
          "duration": 0.14423062499999162
        },
        {
          "name": "F4",
          "midi": 65,
          "time": 99.93740006250009,
          "velocity": 0.7637795275590551,
          "duration": 0.3317304374999992
        },
        {
          "name": "G4",
          "midi": 67,
          "time": 100.2739381875001,
          "velocity": 0.7559055118110236,
          "duration": 0.23557668750000005
        },
        {
          "name": "A4",
          "midi": 69,
          "time": 100.49509181250009,
          "velocity": 0.7559055118110236,
          "duration": 0.24999975000000063
        },
        {
          "name": "A#4",
          "midi": 70,
          "time": 100.71143775000009,
          "velocity": 0.7322834645669292,
          "duration": 0.2788458750000018
        },
        {
          "name": "A4",
          "midi": 69,
          "time": 100.93739906250009,
          "velocity": 0.8267716535433071,
          "duration": 0.24038437499999077
        },
        {
          "name": "F4",
          "midi": 65,
          "time": 102.04316718750009,
          "velocity": 0.7559055118110236,
          "duration": 0.09134606249999422
        },
        {
          "name": "F4",
          "midi": 65,
          "time": 102.26912850000008,
          "velocity": 0.7952755905511811,
          "duration": 0.08173068749999857
        },
        {
          "name": "E4",
          "midi": 64,
          "time": 102.49989750000007,
          "velocity": 0.7637795275590551,
          "duration": 0.0865383750000035
        },
        {
          "name": "F4",
          "midi": 65,
          "time": 102.74028187500008,
          "velocity": 0.8661417322834646,
          "duration": 0.9711528750000014
        },
        {
          "name": "A4",
          "midi": 69,
          "time": 103.88931918750008,
          "velocity": 0.7559055118110236,
          "duration": 0.08173068749999857
        },
        {
          "name": "A4",
          "midi": 69,
          "time": 104.10566512500007,
          "velocity": 0.8267716535433071,
          "duration": 0.0865383750000035
        },
        {
          "name": "G4",
          "midi": 67,
          "time": 104.33643412500008,
          "velocity": 0.84251968503937,
          "duration": 0.08173068749999857
        },
        {
          "name": "A4",
          "midi": 69,
          "time": 104.58643387500008,
          "velocity": 0.8818897637795275,
          "duration": 0.9326913750000045
        },
        {
          "name": "F4",
          "midi": 65,
          "time": 105.70662506250008,
          "velocity": 0.7795275590551181,
          "duration": 0.09134606249999422
        },
        {
          "name": "F4",
          "midi": 65,
          "time": 105.92297100000008,
          "velocity": 0.8031496062992126,
          "duration": 0.0865383750000035
        },
        {
          "name": "E4",
          "midi": 64,
          "time": 106.14893231250008,
          "velocity": 0.7716535433070866,
          "duration": 0.07692299999999364
        },
        {
          "name": "F4",
          "midi": 65,
          "time": 106.37489362500007,
          "velocity": 0.8267716535433071,
          "duration": 0.09615374999999915
        },
        {
          "name": "E4",
          "midi": 64,
          "time": 106.61527800000007,
          "velocity": 0.7637795275590551,
          "duration": 0.09134606249999422
        },
        {
          "name": "F4",
          "midi": 65,
          "time": 106.83643162500007,
          "velocity": 0.8267716535433071,
          "duration": 0.09134606249999422
        },
        {
          "name": "G4",
          "midi": 67,
          "time": 107.05758525000007,
          "velocity": 0.8188976377952756,
          "duration": 0.08173068749999857
        },
        {
          "name": "A4",
          "midi": 69,
          "time": 107.27393118750007,
          "velocity": 0.8188976377952756,
          "duration": 0.09134606249999422
        },
        {
          "name": "G4",
          "midi": 67,
          "time": 107.49989250000006,
          "velocity": 0.7559055118110236,
          "duration": 0.0865383750000035
        },
        {
          "name": "F4",
          "midi": 65,
          "time": 107.72104612500006,
          "velocity": 0.7716535433070866,
          "duration": 0.09134606249999422
        },
        {
          "name": "D4",
          "midi": 62,
          "time": 107.95181512500005,
          "velocity": 0.7559055118110236,
          "duration": 0.0865383750000035
        },
        {
          "name": "D4",
          "midi": 62,
          "time": 108.18739181250005,
          "velocity": 0.7637795275590551,
          "duration": 0.28365356250000673
        },
        {
          "name": "F4",
          "midi": 65,
          "time": 109.32681375000006,
          "velocity": 0.7559055118110236,
          "duration": 0.0865383750000035
        },
        {
          "name": "F4",
          "midi": 65,
          "time": 109.54315968750007,
          "velocity": 0.7952755905511811,
          "duration": 0.0865383750000035
        },
        {
          "name": "E4",
          "midi": 64,
          "time": 109.76912100000007,
          "velocity": 0.7795275590551181,
          "duration": 0.09134606249999422
        },
        {
          "name": "F4",
          "midi": 65,
          "time": 110.01912075000007,
          "velocity": 0.8661417322834646,
          "duration": 0.9615375000000057
        },
        {
          "name": "A4",
          "midi": 69,
          "time": 111.14411962500007,
          "velocity": 0.7952755905511811,
          "duration": 0.0865383750000035
        },
        {
          "name": "A4",
          "midi": 69,
          "time": 111.37008093750008,
          "velocity": 0.7952755905511811,
          "duration": 0.08173068749999857
        },
        {
          "name": "G4",
          "midi": 67,
          "time": 111.59604225000008,
          "velocity": 0.7952755905511811,
          "duration": 0.0865383750000035
        },
        {
          "name": "A4",
          "midi": 69,
          "time": 111.83161893750008,
          "velocity": 0.8267716535433071,
          "duration": 0.46153800000000444
        },
        {
          "name": "G4",
          "midi": 67,
          "time": 112.53354131250009,
          "velocity": 0.8188976377952756,
          "duration": 0.4855764375000007
        },
        {
          "name": "F4",
          "midi": 65,
          "time": 113.22584831250009,
          "velocity": 0.7401574803149606,
          "duration": 0.09134606249999422
        },
        {
          "name": "E4",
          "midi": 64,
          "time": 113.45661731250009,
          "velocity": 0.7401574803149606,
          "duration": 0.07211531250000291
        },
        {
          "name": "F4",
          "midi": 65,
          "time": 113.67777093750009,
          "velocity": 0.8031496062992126,
          "duration": 0.1057691249999948
        },
        {
          "name": "E4",
          "midi": 64,
          "time": 113.91334762500009,
          "velocity": 0.7086614173228346,
          "duration": 0.0865383750000035
        },
        {
          "name": "F4",
          "midi": 65,
          "time": 114.13450125000008,
          "velocity": 0.7559055118110236,
          "duration": 0.0865383750000035
        },
        {
          "name": "G4",
          "midi": 67,
          "time": 114.35565487500008,
          "velocity": 0.7795275590551181,
          "duration": 0.09615374999999915
        },
        {
          "name": "A4",
          "midi": 69,
          "time": 114.57680850000008,
          "velocity": 0.8031496062992126,
          "duration": 0.09134606249999422
        },
        {
          "name": "G4",
          "midi": 67,
          "time": 114.81238518750008,
          "velocity": 0.7007874015748031,
          "duration": 0.09134606249999422
        },
        {
          "name": "F4",
          "midi": 65,
          "time": 115.04315418750008,
          "velocity": 0.7716535433070866,
          "duration": 0.0865383750000035
        },
        {
          "name": "D4",
          "midi": 62,
          "time": 115.26911550000008,
          "velocity": 0.7480314960629921,
          "duration": 0.07211531250000291
        },
        {
          "name": "D4",
          "midi": 62,
          "time": 115.49988450000009,
          "velocity": 0.7637795275590551,
          "duration": 0.24999975000000063
        },
        {
          "name": "D4",
          "midi": 62,
          "time": 117.1969981875001,
          "velocity": 0.8503937007874016,
          "duration": 0.32211506250000355
        },
        {
          "name": "D5",
          "midi": 74,
          "time": 117.2018058750001,
          "velocity": 0.7559055118110236,
          "duration": 0.3653842499999911
        },
        {
          "name": "A4",
          "midi": 69,
          "time": 117.5575747500001,
          "velocity": 0.5669291338582677,
          "duration": 0.23557668750000005
        },
        {
          "name": "G4",
          "midi": 67,
          "time": 117.7883437500001,
          "velocity": 0.5905511811023622,
          "duration": 0.24038437500000498
        },
        {
          "name": "A4",
          "midi": 69,
          "time": 118.0287281250001,
          "velocity": 0.6141732283464567,
          "duration": 0.20192287500000816
        },
        {
          "name": "D4",
          "midi": 62,
          "time": 118.2258433125001,
          "velocity": 0.84251968503937,
          "duration": 0.2644228125000154
        },
        {
          "name": "D5",
          "midi": 74,
          "time": 118.2258433125001,
          "velocity": 0.7716535433070866,
          "duration": 0.32211506250001776
        },
        {
          "name": "A4",
          "midi": 69,
          "time": 118.48545843750011,
          "velocity": 0.6141732283464567,
          "duration": 0.22115362500001368
        },
        {
          "name": "G4",
          "midi": 67,
          "time": 118.70180437500012,
          "velocity": 0.6220472440944882,
          "duration": 0.28365356250000673
        },
        {
          "name": "A4",
          "midi": 69,
          "time": 118.92776568750013,
          "velocity": 0.6692913385826772,
          "duration": 0.13461525000001018
        },
        {
          "name": "D4",
          "midi": 62,
          "time": 119.03834250000013,
          "velocity": 0.7716535433070866,
          "duration": 0.37499962500001516
        },
        {
          "name": "D5",
          "midi": 74,
          "time": 119.04315018750013,
          "velocity": 0.7401574803149606,
          "duration": 0.4326918750000033
        },
        {
          "name": "A4",
          "midi": 69,
          "time": 119.41334212500014,
          "velocity": 0.5905511811023622,
          "duration": 0.24999974999998642
        },
        {
          "name": "G4",
          "midi": 67,
          "time": 119.65372650000013,
          "velocity": 0.6141732283464567,
          "duration": 0.27403818749999687
        },
        {
          "name": "A4",
          "midi": 69,
          "time": 119.87968781250012,
          "velocity": 0.6535433070866141,
          "duration": 0.21634593750000874
        },
        {
          "name": "D4",
          "midi": 62,
          "time": 120.09122606250013,
          "velocity": 0.7637795275590551,
          "duration": 0.278845875000016
        },
        {
          "name": "D5",
          "midi": 74,
          "time": 120.09603375000013,
          "velocity": 0.7401574803149606,
          "duration": 0.3076920000000172
        },
        {
          "name": "A4",
          "midi": 69,
          "time": 120.35084118750014,
          "velocity": 0.6062992125984252,
          "duration": 0.22115362500001368
        },
        {
          "name": "G4",
          "midi": 67,
          "time": 120.57680250000016,
          "velocity": 0.6141732283464567,
          "duration": 0.2836535624999925
        },
        {
          "name": "A4",
          "midi": 69,
          "time": 120.79795612500016,
          "velocity": 0.6535433070866141,
          "duration": 0.11538449999999045
        },
        {
          "name": "D4",
          "midi": 62,
          "time": 120.91334062500015,
          "velocity": 0.8110236220472441,
          "duration": 0.37980731249999167
        },
        {
          "name": "D5",
          "midi": 74,
          "time": 120.91334062500015,
          "velocity": 0.7401574803149606,
          "duration": 0.41346112499999776
        },
        {
          "name": "A4",
          "midi": 69,
          "time": 121.28353256250014,
          "velocity": 0.5905511811023622,
          "duration": 0.23076900000000933
        },
        {
          "name": "G4",
          "midi": 67,
          "time": 121.50949387500015,
          "velocity": 0.5826771653543307,
          "duration": 0.24999975000001484
        },
        {
          "name": "A4",
          "midi": 69,
          "time": 121.74026287500016,
          "velocity": 0.6535433070866141,
          "duration": 0.20192287500000816
        },
        {
          "name": "D5",
          "midi": 74,
          "time": 121.95180112500016,
          "velocity": 0.7401574803149606,
          "duration": 0.2980766250000073
        },
        {
          "name": "D4",
          "midi": 62,
          "time": 121.95180112500016,
          "velocity": 0.8346456692913385,
          "duration": 0.23557668750000005
        },
        {
          "name": "A4",
          "midi": 69,
          "time": 122.20180087500016,
          "velocity": 0.6141732283464567,
          "duration": 0.20192287500000816
        },
        {
          "name": "G4",
          "midi": 67,
          "time": 122.41333912500016,
          "velocity": 0.6456692913385826,
          "duration": 0.24038437499999077
        },
        {
          "name": "A4",
          "midi": 69,
          "time": 122.61526200000016,
          "velocity": 0.6614173228346457,
          "duration": 0.04326918750000175
        },
        {
          "name": "D4",
          "midi": 62,
          "time": 122.74506956250016,
          "velocity": 0.6850393700787402,
          "duration": 0.3124996874999937
        },
        {
          "name": "A3",
          "midi": 57,
          "time": 123.06718462500015,
          "velocity": 0.6220472440944882,
          "duration": 0.18269212500000265
        },
        {
          "name": "D4",
          "midi": 62,
          "time": 123.29314593750016,
          "velocity": 0.6141732283464567,
          "duration": 0.20673056249999888
        },
        {
          "name": "E4",
          "midi": 64,
          "time": 123.51910725000016,
          "velocity": 0.6456692913385826,
          "duration": 0.2115382500000038
        },
        {
          "name": "F4",
          "midi": 65,
          "time": 123.74026087500016,
          "velocity": 0.7322834645669292,
          "duration": 0.3317304374999992
        },
        {
          "name": "E4",
          "midi": 64,
          "time": 123.98545293750016,
          "velocity": 0.6299212598425197,
          "duration": 0.22115362499999947
        },
        {
          "name": "D4",
          "midi": 62,
          "time": 124.21141425000016,
          "velocity": 0.6299212598425197,
          "duration": 0.23557668750000005
        },
        {
          "name": "E4",
          "midi": 64,
          "time": 124.40852943750016,
          "velocity": 0.6299212598425197,
          "duration": 0.04326918750000175
        },
        {
          "name": "D4",
          "midi": 62,
          "time": 124.52872162500016,
          "velocity": 0.7480314960629921,
          "duration": 0.3365381249999899
        },
        {
          "name": "D5",
          "midi": 74,
          "time": 124.53833700000015,
          "velocity": 0.7559055118110236,
          "duration": 0.3461534999999998
        },
        {
          "name": "A4",
          "midi": 69,
          "time": 124.88449050000015,
          "velocity": 0.6141732283464567,
          "duration": 0.23076899999999512
        },
        {
          "name": "G4",
          "midi": 67,
          "time": 125.12006718750015,
          "velocity": 0.5748031496062992,
          "duration": 0.2451920624999957
        },
        {
          "name": "A4",
          "midi": 69,
          "time": 125.35083618750015,
          "velocity": 0.6062992125984252,
          "duration": 0.2115382500000038
        },
        {
          "name": "D4",
          "midi": 62,
          "time": 125.56718212500016,
          "velocity": 0.7874015748031497,
          "duration": 0.2596151250000105
        },
        {
          "name": "D5",
          "midi": 74,
          "time": 125.56718212500016,
          "velocity": 0.7401574803149606,
          "duration": 0.2980766250000073
        },
        {
          "name": "A4",
          "midi": 69,
          "time": 125.82198956250016,
          "velocity": 0.6141732283464567,
          "duration": 0.20673056249999888
        },
        {
          "name": "G4",
          "midi": 67,
          "time": 126.04795087500017,
          "velocity": 0.6377952755905512,
          "duration": 0.28846124999999745
        },
        {
          "name": "A4",
          "midi": 69,
          "time": 126.26910450000017,
          "velocity": 0.6692913385826772,
          "duration": 0.11538450000000466
        },
        {
          "name": "D5",
          "midi": 74,
          "time": 126.39410437500017,
          "velocity": 0.7559055118110236,
          "duration": 0.39423037500000646
        },
        {
          "name": "D4",
          "midi": 62,
          "time": 126.39410437500017,
          "velocity": 0.7716535433070866,
          "duration": 0.3509611875000047
        },
        {
          "name": "A4",
          "midi": 69,
          "time": 126.75948862500017,
          "velocity": 0.6141732283464567,
          "duration": 0.2259613125000044
        },
        {
          "name": "G4",
          "midi": 67,
          "time": 126.99025762500018,
          "velocity": 0.5905511811023622,
          "duration": 0.2836535624999925
        },
        {
          "name": "A4",
          "midi": 69,
          "time": 127.22102662500018,
          "velocity": 0.6456692913385826,
          "duration": 0.19711518750000323
        },
        {
          "name": "D5",
          "midi": 74,
          "time": 127.42775718750018,
          "velocity": 0.7322834645669292,
          "duration": 0.3124996875000079
        },
        {
          "name": "D4",
          "midi": 62,
          "time": 127.42775718750018,
          "velocity": 0.7637795275590551,
          "duration": 0.2644228125000012
        },
        {
          "name": "A4",
          "midi": 69,
          "time": 127.69218000000018,
          "velocity": 0.5748031496062992,
          "duration": 0.19711518750000323
        },
        {
          "name": "G4",
          "midi": 67,
          "time": 127.90371825000018,
          "velocity": 0.6377952755905512,
          "duration": 0.26923050000000615
        },
        {
          "name": "A4",
          "midi": 69,
          "time": 128.1248718750002,
          "velocity": 0.6377952755905512,
          "duration": 0.12019218749998117
        },
        {
          "name": "D5",
          "midi": 74,
          "time": 128.25948712500016,
          "velocity": 0.7244094488188977,
          "duration": 0.3653842499999769
        },
        {
          "name": "D4",
          "midi": 62,
          "time": 128.26429481250017,
          "velocity": 0.7637795275590551,
          "duration": 0.32211506249998934
        },
        {
          "name": "A4",
          "midi": 69,
          "time": 128.60564062500015,
          "velocity": 0.5669291338582677,
          "duration": 0.24038437499999077
        },
        {
          "name": "G4",
          "midi": 67,
          "time": 128.84602500000014,
          "velocity": 0.5826771653543307,
          "duration": 0.23557668750001426
        },
        {
          "name": "A4",
          "midi": 69,
          "time": 129.07198631250014,
          "velocity": 0.6377952755905512,
          "duration": 0.20192287500000816
        },
        {
          "name": "D5",
          "midi": 74,
          "time": 129.28352456250016,
          "velocity": 0.7322834645669292,
          "duration": 0.2980766249999931
        },
        {
          "name": "D4",
          "midi": 62,
          "time": 129.28352456250016,
          "velocity": 0.7874015748031497,
          "duration": 0.21634593749999453
        },
        {
          "name": "A4",
          "midi": 69,
          "time": 129.53352431250016,
          "velocity": 0.6141732283464567,
          "duration": 0.19711518750000323
        },
        {
          "name": "G4",
          "midi": 67,
          "time": 129.75467793750016,
          "velocity": 0.6062992125984252,
          "duration": 0.23557668750001426
        },
        {
          "name": "A4",
          "midi": 69,
          "time": 129.95179312500017,
          "velocity": 0.6692913385826772,
          "duration": 0.03846150000001103
        },
        {
          "name": "D4",
          "midi": 62,
          "time": 130.0864083750002,
          "velocity": 0.6850393700787402,
          "duration": 0.32692274999999427
        },
        {
          "name": "A3",
          "midi": 57,
          "time": 130.4181388125002,
          "velocity": 0.5984251968503937,
          "duration": 0.14903831250001076
        },
        {
          "name": "D4",
          "midi": 62,
          "time": 130.6392924375002,
          "velocity": 0.5905511811023622,
          "duration": 0.2259613125000044
        },
        {
          "name": "E4",
          "midi": 64,
          "time": 130.8748691250002,
          "velocity": 0.6220472440944882,
          "duration": 0.20192287500000816
        },
        {
          "name": "F4",
          "midi": 65,
          "time": 131.0912150625002,
          "velocity": 0.7244094488188977,
          "duration": 0.3317304374999992
        },
        {
          "name": "E4",
          "midi": 64,
          "time": 131.3412148125002,
          "velocity": 0.6220472440944882,
          "duration": 0.23557668749998584
        },
        {
          "name": "D4",
          "midi": 62,
          "time": 131.5815991875002,
          "velocity": 0.6141732283464567,
          "duration": 0.2451920624999957
        },
        {
          "name": "E4",
          "midi": 64,
          "time": 131.82679125000018,
          "velocity": 0.6220472440944882,
          "duration": 0.3173073749999844
        },
        {
          "name": "D4",
          "midi": 62,
          "time": 132.12006018750017,
          "velocity": 0.7401574803149606,
          "duration": 0.4567303124999853
        },
        {
          "name": "E4",
          "midi": 64,
          "time": 133.07679000000016,
          "velocity": 0.6692913385826772,
          "duration": 0.46634568749999517
        },
        {
          "name": "F4",
          "midi": 65,
          "time": 133.55755875000014,
          "velocity": 0.7401574803149606,
          "duration": 0.4567303125000137
        },
        {
          "name": "E4",
          "midi": 64,
          "time": 134.00948137500015,
          "velocity": 0.7480314960629921,
          "duration": 0.4519226250000088
        },
        {
          "name": "F4",
          "midi": 65,
          "time": 134.71140375000016,
          "velocity": 0.6141732283464567,
          "duration": 0.24038437499999077
        },
        {
          "name": "E4",
          "midi": 64,
          "time": 134.81717287500015,
          "velocity": 0.6299212598425197,
          "duration": 0.1586536874999922
        },
        {
          "name": "D4",
          "midi": 62,
          "time": 134.94217275000014,
          "velocity": 0.7244094488188977,
          "duration": 0.07211531250001713
        },
        {
          "name": "D4",
          "midi": 62,
          "time": 135.64890281250015,
          "velocity": 0.6220472440944882,
          "duration": 0.2451920624999957
        },
        {
          "name": "C4",
          "midi": 60,
          "time": 135.75467193750015,
          "velocity": 0.6456692913385826,
          "duration": 0.18749981249999337
        },
        {
          "name": "A#3",
          "midi": 58,
          "time": 135.87486412500016,
          "velocity": 0.7244094488188977,
          "duration": 0.437499562499994
        },
        {
          "name": "A#3",
          "midi": 58,
          "time": 136.56717112500016,
          "velocity": 0.5905511811023622,
          "duration": 0.22115362499999947
        },
        {
          "name": "A3",
          "midi": 57,
          "time": 136.64409412500015,
          "velocity": 0.6377952755905512,
          "duration": 0.18269212500001686
        },
        {
          "name": "G3",
          "midi": 55,
          "time": 136.78832475000016,
          "velocity": 0.7165354330708661,
          "duration": 0.46634568749999517
        },
        {
          "name": "A3",
          "midi": 57,
          "time": 137.24024737500017,
          "velocity": 0.6535433070866141,
          "duration": 0.25961512499998207
        },
        {
          "name": "A#3",
          "midi": 58,
          "time": 137.48063175000016,
          "velocity": 0.6771653543307087,
          "duration": 0.3124996874999795
        },
        {
          "name": "A3",
          "midi": 57,
          "time": 137.73543918750013,
          "velocity": 0.6456692913385826,
          "duration": 0.36057656250000036
        },
        {
          "name": "D4",
          "midi": 62,
          "time": 139.57678350000015,
          "velocity": 0.7165354330708661,
          "duration": 0.37499962499998674
        },
        {
          "name": "E4",
          "midi": 64,
          "time": 140.48062875000014,
          "velocity": 0.6692913385826772,
          "duration": 0.4519226250000088
        },
        {
          "name": "F4",
          "midi": 65,
          "time": 140.93255137500014,
          "velocity": 0.7322834645669292,
          "duration": 0.46153800000001866
        },
        {
          "name": "E4",
          "midi": 64,
          "time": 141.38928168750016,
          "velocity": 0.7401574803149606,
          "duration": 0.42788418750001256
        },
        {
          "name": "F4",
          "midi": 65,
          "time": 142.07197331250018,
          "velocity": 0.6220472440944882,
          "duration": 0.23557668749998584
        },
        {
          "name": "E4",
          "midi": 64,
          "time": 142.17293475000017,
          "velocity": 0.6456692913385826,
          "duration": 0.16346137499999713
        },
        {
          "name": "D4",
          "midi": 62,
          "time": 142.28351156250017,
          "velocity": 0.7401574803149606,
          "duration": 0.10096143749998987
        },
        {
          "name": "D4",
          "midi": 62,
          "time": 142.98543393750015,
          "velocity": 0.6299212598425197,
          "duration": 0.23557668749998584
        },
        {
          "name": "C4",
          "midi": 60,
          "time": 143.08639537500014,
          "velocity": 0.6535433070866141,
          "duration": 0.18269212499998844
        },
        {
          "name": "A#3",
          "midi": 58,
          "time": 143.21139525000012,
          "velocity": 0.7165354330708661,
          "duration": 0.44230724999999893
        },
        {
          "name": "A#3",
          "midi": 58,
          "time": 143.9229330000001,
          "velocity": 0.6535433070866141,
          "duration": 0.21153825000001802
        },
        {
          "name": "A3",
          "midi": 57,
          "time": 144.01908675000013,
          "velocity": 0.6299212598425197,
          "duration": 0.1538460000000157
        },
        {
          "name": "G3",
          "midi": 55,
          "time": 144.12966356250013,
          "velocity": 0.7007874015748031,
          "duration": 0.0673076250000122
        },
        {
          "name": "A#4",
          "midi": 70,
          "time": 144.56235543750014,
          "velocity": 0.7165354330708661,
          "duration": 0.5384610000000123
        },
        {
          "name": "A4",
          "midi": 69,
          "time": 145.01908575000016,
          "velocity": 0.6929133858267716,
          "duration": 0.44711493750000386
        },
        {
          "name": "A3",
          "midi": 57,
          "time": 146.60562262500017,
          "velocity": 0.6141732283464567,
          "duration": 0.26923049999999193
        },
        {
          "name": "D4",
          "midi": 62,
          "time": 146.87004543750015,
          "velocity": 0.7401574803149606,
          "duration": 0.46153800000001866
        },
        {
          "name": "A3",
          "midi": 57,
          "time": 148.00465968750018,
          "velocity": 0.6299212598425197,
          "duration": 0.20192287500000816
        },
        {
          "name": "D4",
          "midi": 62,
          "time": 148.22581331250018,
          "velocity": 0.6456692913385826,
          "duration": 0.28365356250000673
        },
        {
          "name": "E4",
          "midi": 64,
          "time": 148.45177462500018,
          "velocity": 0.6692913385826772,
          "duration": 0.23557668749998584
        },
        {
          "name": "F4",
          "midi": 65,
          "time": 148.67292825000018,
          "velocity": 0.7007874015748031,
          "duration": 0.2307689999999809
        },
        {
          "name": "G4",
          "midi": 67,
          "time": 148.90369725000016,
          "velocity": 0.6377952755905512,
          "duration": 0.16346137499999713
        },
        {
          "name": "F4",
          "midi": 65,
          "time": 149.02388943750017,
          "velocity": 0.6141732283464567,
          "duration": 0.13942293749997248
        },
        {
          "name": "E4",
          "midi": 64,
          "time": 149.11523550000015,
          "velocity": 0.7559055118110236,
          "duration": 0.06730762499998377
        },
        {
          "name": "A3",
          "midi": 57,
          "time": 149.79792712500014,
          "velocity": 0.6850393700787402,
          "duration": 0.23076900000000933
        },
        {
          "name": "D4",
          "midi": 62,
          "time": 150.02388843750015,
          "velocity": 0.7165354330708661,
          "duration": 0.2067305625000131
        },
        {
          "name": "E4",
          "midi": 64,
          "time": 150.24504206250015,
          "velocity": 0.7165354330708661,
          "duration": 0.24999975000000063
        },
        {
          "name": "F4",
          "midi": 65,
          "time": 150.46619568750015,
          "velocity": 0.7165354330708661,
          "duration": 0.24519206250002412
        },
        {
          "name": "G4",
          "midi": 67,
          "time": 150.70177237500016,
          "velocity": 0.6692913385826772,
          "duration": 0.1586536874999922
        },
        {
          "name": "F4",
          "midi": 65,
          "time": 150.81715687500017,
          "velocity": 0.5905511811023622,
          "duration": 0.15384599999998727
        },
        {
          "name": "E4",
          "midi": 64,
          "time": 150.92292600000016,
          "velocity": 0.7165354330708661,
          "duration": 0.07692299999999364
        },
        {
          "name": "D4",
          "midi": 62,
          "time": 151.56715612500017,
          "velocity": 0.6299212598425197,
          "duration": 0.19711518750000323
        },
        {
          "name": "C4",
          "midi": 60,
          "time": 151.66330987500018,
          "velocity": 0.6614173228346457,
          "duration": 0.14423062500000583
        },
        {
          "name": "A3",
          "midi": 57,
          "time": 151.79792512500018,
          "velocity": 0.6771653543307087,
          "duration": 0.2403843750000192
        },
        {
          "name": "A#3",
          "midi": 58,
          "time": 152.0383095000002,
          "velocity": 0.6850393700787402,
          "duration": 0.33653812500000413
        },
        {
          "name": "A3",
          "midi": 57,
          "time": 152.2979246250002,
          "velocity": 0.6377952755905512,
          "duration": 0.33653812500000413
        },
        {
          "name": "A3",
          "midi": 57,
          "time": 153.89407687500022,
          "velocity": 0.6377952755905512,
          "duration": 0.2980766249999931
        },
        {
          "name": "D4",
          "midi": 62,
          "time": 154.14888431250023,
          "velocity": 0.7480314960629921,
          "duration": 0.4567303124999853
        },
        {
          "name": "A3",
          "midi": 57,
          "time": 155.2883062500002,
          "velocity": 0.6692913385826772,
          "duration": 0.20192287500000816
        },
        {
          "name": "D4",
          "midi": 62,
          "time": 155.5046521875002,
          "velocity": 0.7007874015748031,
          "duration": 0.23557668749998584
        },
        {
          "name": "E4",
          "midi": 64,
          "time": 155.7258058125002,
          "velocity": 0.7086614173228346,
          "duration": 0.2451920624999957
        },
        {
          "name": "F4",
          "midi": 65,
          "time": 155.9469594375002,
          "velocity": 0.7007874015748031,
          "duration": 0.23557668749998584
        },
        {
          "name": "G4",
          "midi": 67,
          "time": 156.18253612500018,
          "velocity": 0.6692913385826772,
          "duration": 0.14903831249998234
        },
        {
          "name": "F4",
          "midi": 65,
          "time": 156.30753600000017,
          "velocity": 0.6377952755905512,
          "duration": 0.1394229375000009
        },
        {
          "name": "E4",
          "midi": 64,
          "time": 156.39888206250018,
          "velocity": 0.7637795275590551,
          "duration": 0.07692299999999364
        },
        {
          "name": "A3",
          "midi": 57,
          "time": 157.06715062500018,
          "velocity": 0.6771653543307087,
          "duration": 0.2115382499999896
        },
        {
          "name": "D4",
          "midi": 62,
          "time": 157.28349656250018,
          "velocity": 0.7007874015748031,
          "duration": 0.2788458750000018
        },
        {
          "name": "E4",
          "midi": 64,
          "time": 157.49984250000017,
          "velocity": 0.6850393700787402,
          "duration": 0.2403843750000192
        },
        {
          "name": "F4",
          "midi": 65,
          "time": 157.7113807500002,
          "velocity": 0.7007874015748031,
          "duration": 0.24038437499999077
        },
        {
          "name": "G4",
          "midi": 67,
          "time": 157.95176512500018,
          "velocity": 0.6929133858267716,
          "duration": 0.173076750000007
        },
        {
          "name": "F4",
          "midi": 65,
          "time": 158.06714962500018,
          "velocity": 0.5669291338582677,
          "duration": 0.14423062500000583
        },
        {
          "name": "E4",
          "midi": 64,
          "time": 158.1584956875002,
          "velocity": 0.7401574803149606,
          "duration": 0.08173068749999857
        },
        {
          "name": "D4",
          "midi": 62,
          "time": 158.7979181250002,
          "velocity": 0.6220472440944882,
          "duration": 0.20192287500000816
        },
        {
          "name": "C4",
          "midi": 60,
          "time": 158.8940718750002,
          "velocity": 0.6299212598425197,
          "duration": 0.1442306249999774
        },
        {
          "name": "A3",
          "midi": 57,
          "time": 159.0190717500002,
          "velocity": 0.7007874015748031,
          "duration": 0.07692299999999364
        },
        {
          "name": "A#4",
          "midi": 70,
          "time": 159.25464843750018,
          "velocity": 0.6692913385826772,
          "duration": 0.2932689375000166
        },
        {
          "name": "A4",
          "midi": 69,
          "time": 159.4854174375002,
          "velocity": 0.7559055118110236,
          "duration": 0.11538450000000466
        },
        {
          "name": "A3",
          "midi": 57,
          "time": 159.7450325625002,
          "velocity": 0.48031496062992124,
          "duration": 0.18749981249999337
        },
        {
          "name": "D4",
          "midi": 62,
          "time": 159.95176312500018,
          "velocity": 0.5905511811023622,
          "duration": 0.2403843750000192
        },
        {
          "name": "C4",
          "midi": 60,
          "time": 160.1825321250002,
          "velocity": 0.5905511811023622,
          "duration": 0.44230724999999893
        },
        {
          "name": "A3",
          "midi": 57,
          "time": 160.64407012500018,
          "velocity": 0.5511811023622047,
          "duration": 0.2067305625000131
        },
        {
          "name": "C4",
          "midi": 60,
          "time": 160.86522375000018,
          "velocity": 0.5433070866141733,
          "duration": 0.23557668749998584
        },
        {
          "name": "D4",
          "midi": 62,
          "time": 161.10080043750017,
          "velocity": 0.5669291338582677,
          "duration": 0.43269187499998907
        },
        {
          "name": "A3",
          "midi": 57,
          "time": 161.54310768750017,
          "velocity": 0.5748031496062992,
          "duration": 0.2067305625000131
        },
        {
          "name": "D4",
          "midi": 62,
          "time": 161.7594536250002,
          "velocity": 0.5669291338582677,
          "duration": 0.24999975000000063
        },
        {
          "name": "C4",
          "midi": 60,
          "time": 161.9902226250002,
          "velocity": 0.5669291338582677,
          "duration": 0.4519226250000088
        },
        {
          "name": "A3",
          "midi": 57,
          "time": 162.4373375625002,
          "velocity": 0.6141732283464567,
          "duration": 0.2067305625000131
        },
        {
          "name": "C4",
          "midi": 60,
          "time": 162.65368350000023,
          "velocity": 0.7007874015748031,
          "duration": 0.0865383750000035
        },
        {
          "name": "D4",
          "midi": 62,
          "time": 162.86522175000022,
          "velocity": 0.7716535433070866,
          "duration": 0.0721153124999887
        },
        {
          "name": "D4",
          "midi": 62,
          "time": 162.9661831875002,
          "velocity": 0.7874015748031497,
          "duration": 0.0673076250000122
        },
        {
          "name": "D4",
          "midi": 62,
          "time": 163.05752925000021,
          "velocity": 0.7874015748031497,
          "duration": 0.17788443750001193
        },
        {
          "name": "A4",
          "midi": 69,
          "time": 163.31714437500023,
          "velocity": 0.7401574803149606,
          "duration": 0.0721153124999887
        },
        {
          "name": "A3",
          "midi": 57,
          "time": 163.31714437500023,
          "velocity": 0.7007874015748031,
          "duration": 0.0721153124999887
        },
        {
          "name": "F4",
          "midi": 65,
          "time": 163.5431056875002,
          "velocity": 0.7716535433070866,
          "duration": 0.0721153124999887
        },
        {
          "name": "G4",
          "midi": 67,
          "time": 163.77387468750018,
          "velocity": 0.7716535433070866,
          "duration": 0.18269212499998844
        },
        {
          "name": "D4",
          "midi": 62,
          "time": 164.63925843750016,
          "velocity": 0.7244094488188977,
          "duration": 0.08173068749999857
        },
        {
          "name": "D4",
          "midi": 62,
          "time": 164.76906600000015,
          "velocity": 0.8503937007874016,
          "duration": 0.0721153124999887
        },
        {
          "name": "D4",
          "midi": 62,
          "time": 164.87964281250015,
          "velocity": 0.7480314960629921,
          "duration": 0.25480743750000556
        },
        {
          "name": "A3",
          "midi": 57,
          "time": 165.10560412500016,
          "velocity": 0.7165354330708661,
          "duration": 0.0865383750000035
        },
        {
          "name": "A4",
          "midi": 69,
          "time": 165.10560412500016,
          "velocity": 0.7007874015748031,
          "duration": 0.07692299999999364
        },
        {
          "name": "F4",
          "midi": 65,
          "time": 165.33637312500016,
          "velocity": 0.7322834645669292,
          "duration": 0.0721153124999887
        },
        {
          "name": "G4",
          "midi": 67,
          "time": 165.57675750000016,
          "velocity": 0.7716535433070866,
          "duration": 0.2115382499999896
        },
        {
          "name": "F4",
          "midi": 65,
          "time": 166.01425706250015,
          "velocity": 0.7559055118110236,
          "duration": 0.22115362499999947
        },
        {
          "name": "A#3",
          "midi": 58,
          "time": 166.43733356250016,
          "velocity": 0.7244094488188977,
          "duration": 0.06249993750000726
        },
        {
          "name": "A#3",
          "midi": 58,
          "time": 166.56233343750017,
          "velocity": 0.6850393700787402,
          "duration": 0.0721153124999887
        },
        {
          "name": "A#3",
          "midi": 58,
          "time": 166.66329487500016,
          "velocity": 0.5905511811023622,
          "duration": 0.25961512499998207
        },
        {
          "name": "F4",
          "midi": 65,
          "time": 166.90367925000015,
          "velocity": 0.6535433070866141,
          "duration": 0.20192287499997974
        },
        {
          "name": "D4",
          "midi": 62,
          "time": 167.10560212500013,
          "velocity": 0.6614173228346457,
          "duration": 0.25480743749997714
        },
        {
          "name": "E4",
          "midi": 64,
          "time": 167.34598650000012,
          "velocity": 0.7244094488188977,
          "duration": 0.2115382499999896
        },
        {
          "name": "A#3",
          "midi": 58,
          "time": 168.2209856250001,
          "velocity": 0.6850393700787402,
          "duration": 0.06249993750000726
        },
        {
          "name": "A#3",
          "midi": 58,
          "time": 168.34117781250012,
          "velocity": 0.6614173228346457,
          "duration": 0.0336538125000061
        },
        {
          "name": "A#3",
          "midi": 58,
          "time": 168.43252387500013,
          "velocity": 0.6377952755905512,
          "duration": 0.23076900000000933
        },
        {
          "name": "F4",
          "midi": 65,
          "time": 168.67290825000015,
          "velocity": 0.6535433070866141,
          "duration": 0.1923074999999983
        },
        {
          "name": "D4",
          "midi": 62,
          "time": 168.87963881250013,
          "velocity": 0.6535433070866141,
          "duration": 0.22115362499999947
        },
        {
          "name": "E4",
          "midi": 64,
          "time": 169.11521550000012,
          "velocity": 0.7480314960629921,
          "duration": 0.4182688125000027
        },
        {
          "name": "C4",
          "midi": 60,
          "time": 169.56233043750012,
          "velocity": 0.7007874015748031,
          "duration": 0.18749981249999337
        },
        {
          "name": "G3",
          "midi": 55,
          "time": 169.9902146250001,
          "velocity": 0.7007874015748031,
          "duration": 0.06249993750000726
        },
        {
          "name": "G3",
          "midi": 55,
          "time": 170.11521450000012,
          "velocity": 0.7086614173228346,
          "duration": 0.0336538125000061
        },
        {
          "name": "G3",
          "midi": 55,
          "time": 170.21136825000013,
          "velocity": 0.6692913385826772,
          "duration": 0.23076900000000933
        },
        {
          "name": "D4",
          "midi": 62,
          "time": 170.45656031250013,
          "velocity": 0.6456692913385826,
          "duration": 0.2115382499999896
        },
        {
          "name": "A#3",
          "midi": 58,
          "time": 170.67771393750013,
          "velocity": 0.6692913385826772,
          "duration": 0.2644228125000154
        },
        {
          "name": "C4",
          "midi": 60,
          "time": 170.90848293750014,
          "velocity": 0.7086614173228346,
          "duration": 0.1057691249999948
        },
        {
          "name": "A3",
          "midi": 57,
          "time": 171.78828975000013,
          "velocity": 0.7086614173228346,
          "duration": 0.0721153124999887
        },
        {
          "name": "A3",
          "midi": 57,
          "time": 171.91809731250012,
          "velocity": 0.7244094488188977,
          "duration": 0.0336538125000061
        },
        {
          "name": "A3",
          "midi": 57,
          "time": 172.00944337500013,
          "velocity": 0.6614173228346457,
          "duration": 0.27403818749999687
        },
        {
          "name": "F4",
          "midi": 65,
          "time": 172.25944312500013,
          "velocity": 0.6771653543307087,
          "duration": 0.22115362499999947
        },
        {
          "name": "D4",
          "midi": 62,
          "time": 172.47098137500012,
          "velocity": 0.7007874015748031,
          "duration": 0.2644228125000154
        },
        {
          "name": "E4",
          "midi": 64,
          "time": 172.68732731250014,
          "velocity": 0.7007874015748031,
          "duration": 0.0721153124999887
        },
        {
          "name": "A4",
          "midi": 69,
          "time": 172.90848093750014,
          "velocity": 0.7952755905511811,
          "duration": 0.1057691249999948
        },
        {
          "name": "A3",
          "midi": 57,
          "time": 172.90848093750014,
          "velocity": 0.7559055118110236,
          "duration": 0.09134606250000843
        },
        {
          "name": "A3",
          "midi": 57,
          "time": 173.13924993750013,
          "velocity": 0.7637795275590551,
          "duration": 0.0721153124999887
        },
        {
          "name": "A4",
          "midi": 69,
          "time": 173.13924993750013,
          "velocity": 0.8031496062992126,
          "duration": 0.09134606249998001
        },
        {
          "name": "A4",
          "midi": 69,
          "time": 173.3555958750001,
          "velocity": 0.8031496062992126,
          "duration": 0.0865383750000035
        },
        {
          "name": "A3",
          "midi": 57,
          "time": 173.3604035625001,
          "velocity": 0.7637795275590551,
          "duration": 0.06249993750000726
        },
        {
          "name": "A4",
          "midi": 69,
          "time": 173.59598025000008,
          "velocity": 0.8582677165354331,
          "duration": 0.1923074999999983
        },
        {
          "name": "A3",
          "midi": 57,
          "time": 173.59598025000008,
          "velocity": 0.8346456692913385,
          "duration": 0.23076900000000933
        },
        {
          "name": "A3",
          "midi": 57,
          "time": 174.0286721250001,
          "velocity": 0.5905511811023622,
          "duration": 0.19711518750000323
        },
        {
          "name": "D4",
          "midi": 62,
          "time": 174.2594411250001,
          "velocity": 0.5984251968503937,
          "duration": 0.2259613125000044
        },
        {
          "name": "C4",
          "midi": 60,
          "time": 174.4998255000001,
          "velocity": 0.5669291338582677,
          "duration": 0.46153799999999023
        },
        {
          "name": "A3",
          "midi": 57,
          "time": 174.9421327500001,
          "velocity": 0.5905511811023622,
          "duration": 0.2115382499999896
        },
        {
          "name": "C4",
          "midi": 60,
          "time": 175.1632863750001,
          "velocity": 0.5590551181102362,
          "duration": 0.2451920624999957
        },
        {
          "name": "D4",
          "midi": 62,
          "time": 175.4036707500001,
          "velocity": 0.5590551181102362,
          "duration": 0.40865343749999283
        },
        {
          "name": "A3",
          "midi": 57,
          "time": 175.82674725000007,
          "velocity": 0.5669291338582677,
          "duration": 0.22115362499999947
        },
        {
          "name": "D4",
          "midi": 62,
          "time": 176.04790087500007,
          "velocity": 0.5984251968503937,
          "duration": 0.2451920624999957
        },
        {
          "name": "C4",
          "midi": 60,
          "time": 176.26905450000007,
          "velocity": 0.6299212598425197,
          "duration": 0.43269187499998907
        },
        {
          "name": "A3",
          "midi": 57,
          "time": 176.70174637500006,
          "velocity": 0.6299212598425197,
          "duration": 0.1923074999999983
        },
        {
          "name": "C4",
          "midi": 60,
          "time": 176.92770768750006,
          "velocity": 0.7401574803149606,
          "duration": 0.08173068749999857
        },
        {
          "name": "D4",
          "midi": 62,
          "time": 177.14405362500005,
          "velocity": 0.7637795275590551,
          "duration": 0.04807687499999247
        },
        {
          "name": "D4",
          "midi": 62,
          "time": 177.26424581250004,
          "velocity": 0.5984251968503937,
          "duration": 0.0336538125000061
        },
        {
          "name": "D4",
          "midi": 62,
          "time": 177.34597650000003,
          "velocity": 0.7401574803149606,
          "duration": 0.264422812499987
        },
        {
          "name": "A4",
          "midi": 69,
          "time": 177.58155318750002,
          "velocity": 0.7086614173228346,
          "duration": 0.07692299999999364
        },
        {
          "name": "A3",
          "midi": 57,
          "time": 177.58636087500003,
          "velocity": 0.7007874015748031,
          "duration": 0.06730762499998377
        },
        {
          "name": "F4",
          "midi": 65,
          "time": 177.8123221875,
          "velocity": 0.7716535433070866,
          "duration": 0.06249993750000726
        },
        {
          "name": "G4",
          "midi": 67,
          "time": 178.0382835,
          "velocity": 0.8031496062992126,
          "duration": 0.1586536874999922
        },
        {
          "name": "D4",
          "midi": 62,
          "time": 178.951744125,
          "velocity": 0.7795275590551181,
          "duration": 0.07692299999999364
        },
        {
          "name": "D4",
          "midi": 62,
          "time": 179.0815516875,
          "velocity": 0.7007874015748031,
          "duration": 0.028846125000001166
        },
        {
          "name": "D4",
          "midi": 62,
          "time": 179.1584746875,
          "velocity": 0.7007874015748031,
          "duration": 0.28365356250000673
        },
        {
          "name": "A3",
          "midi": 57,
          "time": 179.413282125,
          "velocity": 0.7165354330708661,
          "duration": 0.07692299999999364
        },
        {
          "name": "A4",
          "midi": 69,
          "time": 179.413282125,
          "velocity": 0.7007874015748031,
          "duration": 0.0721153124999887
        },
        {
          "name": "F4",
          "midi": 65,
          "time": 179.6296280625,
          "velocity": 0.7716535433070866,
          "duration": 0.06249993750000726
        },
        {
          "name": "G4",
          "midi": 67,
          "time": 179.86520475,
          "velocity": 0.8031496062992126,
          "duration": 0.2115382499999896
        },
        {
          "name": "F4",
          "midi": 65,
          "time": 180.307512,
          "velocity": 0.7637795275590551,
          "duration": 0.18749981249999337
        },
        {
          "name": "A#3",
          "midi": 58,
          "time": 180.74981925,
          "velocity": 0.7165354330708661,
          "duration": 0.0721153124999887
        },
        {
          "name": "A#3",
          "midi": 58,
          "time": 180.8796268125,
          "velocity": 0.6377952755905512,
          "duration": 0.028846125000001166
        },
        {
          "name": "A#3",
          "midi": 58,
          "time": 180.970972875,
          "velocity": 0.7165354330708661,
          "duration": 0.23557668749998584
        },
        {
          "name": "F4",
          "midi": 65,
          "time": 181.2065495625,
          "velocity": 0.6614173228346457,
          "duration": 0.2067305625000131
        },
        {
          "name": "D4",
          "midi": 62,
          "time": 181.4180878125,
          "velocity": 0.6535433070866141,
          "duration": 0.23557668749998584
        },
        {
          "name": "E4",
          "midi": 64,
          "time": 181.6536645,
          "velocity": 0.7244094488188977,
          "duration": 0.24038437499999077
        },
        {
          "name": "A#3",
          "midi": 58,
          "time": 182.55270206249997,
          "velocity": 0.7007874015748031,
          "duration": 0.0673076250000122
        },
        {
          "name": "A#3",
          "midi": 58,
          "time": 182.682509625,
          "velocity": 0.6220472440944882,
          "duration": 0.028846125000001166
        },
        {
          "name": "A#3",
          "midi": 58,
          "time": 182.75462493749998,
          "velocity": 0.6850393700787402,
          "duration": 0.22115362499999947
        },
        {
          "name": "F4",
          "midi": 65,
          "time": 182.99020162499997,
          "velocity": 0.6614173228346457,
          "duration": 0.20192287500000816
        },
        {
          "name": "D4",
          "midi": 62,
          "time": 183.19212449999998,
          "velocity": 0.6692913385826772,
          "duration": 0.2451920624999957
        },
        {
          "name": "E4",
          "midi": 64,
          "time": 183.42770118749996,
          "velocity": 0.7401574803149606,
          "duration": 0.4182688125000027
        },
        {
          "name": "C4",
          "midi": 60,
          "time": 183.87962381249997,
          "velocity": 0.7559055118110236,
          "duration": 0.22115362499999947
        },
        {
          "name": "G3",
          "midi": 55,
          "time": 184.33154643749998,
          "velocity": 0.7165354330708661,
          "duration": 0.0721153124999887
        },
        {
          "name": "G3",
          "midi": 55,
          "time": 184.45173862499996,
          "velocity": 0.7007874015748031,
          "duration": 0.05769225000000233
        },
        {
          "name": "G3",
          "midi": 55,
          "time": 184.55750774999996,
          "velocity": 0.7480314960629921,
          "duration": 0.2115382499999896
        },
        {
          "name": "D4",
          "midi": 62,
          "time": 184.79789212499995,
          "velocity": 0.6692913385826772,
          "duration": 0.21634593749999453
        },
        {
          "name": "A#3",
          "midi": 58,
          "time": 185.01904574999995,
          "velocity": 0.6850393700787402,
          "duration": 0.23557668749998584
        },
        {
          "name": "C4",
          "midi": 60,
          "time": 185.24019937499995,
          "velocity": 0.7480314960629921,
          "duration": 0.09134606249998001
        },
        {
          "name": "A3",
          "midi": 57,
          "time": 186.12481387499992,
          "velocity": 0.7165354330708661,
          "duration": 0.08173068749999857
        },
        {
          "name": "A3",
          "midi": 57,
          "time": 186.2498137499999,
          "velocity": 0.6456692913385826,
          "duration": 0.028846125000001166
        },
        {
          "name": "A3",
          "midi": 57,
          "time": 186.3411598124999,
          "velocity": 0.6456692913385826,
          "duration": 0.264422812499987
        },
        {
          "name": "F4",
          "midi": 65,
          "time": 186.5767364999999,
          "velocity": 0.7007874015748031,
          "duration": 0.23557668749998584
        },
        {
          "name": "D4",
          "midi": 62,
          "time": 186.78827474999989,
          "velocity": 0.7244094488188977,
          "duration": 0.28365356250000673
        },
        {
          "name": "E4",
          "midi": 64,
          "time": 187.0142360624999,
          "velocity": 0.7007874015748031,
          "duration": 0.0673076250000122
        },
        {
          "name": "A4",
          "midi": 69,
          "time": 187.2305819999999,
          "velocity": 0.7559055118110236,
          "duration": 0.09615375000001336
        },
        {
          "name": "A4",
          "midi": 69,
          "time": 187.45654331249992,
          "velocity": 0.7952755905511811,
          "duration": 0.0865383750000035
        },
        {
          "name": "A4",
          "midi": 69,
          "time": 187.69211999999993,
          "velocity": 0.8188976377952756,
          "duration": 0.0865383750000035
        },
        {
          "name": "A4",
          "midi": 69,
          "time": 187.92288899999994,
          "velocity": 0.8582677165354331,
          "duration": 0.18269212499998844
        },
        {
          "name": "D4",
          "midi": 62,
          "time": 188.59596524999992,
          "velocity": 0.6456692913385826,
          "duration": 0.25480743749997714
        },
        {
          "name": "C4",
          "midi": 60,
          "time": 188.8363496249999,
          "velocity": 0.5905511811023622,
          "duration": 0.41346112499999776
        },
        {
          "name": "A3",
          "midi": 57,
          "time": 189.2690414999999,
          "velocity": 0.5590551181102362,
          "duration": 0.2115382499999896
        },
        {
          "name": "C4",
          "midi": 60,
          "time": 189.49500281249988,
          "velocity": 0.5511811023622047,
          "duration": 0.23557668750001426
        },
        {
          "name": "D4",
          "midi": 62,
          "time": 189.7257718124999,
          "velocity": 0.6062992125984252,
          "duration": 0.4038457500000163
        },
        {
          "name": "A3",
          "midi": 57,
          "time": 190.1488483124999,
          "velocity": 0.5433070866141733,
          "duration": 0.1923074999999983
        },
        {
          "name": "D4",
          "midi": 62,
          "time": 190.3748096249999,
          "velocity": 0.5511811023622047,
          "duration": 0.2451920624999957
        },
        {
          "name": "C4",
          "midi": 60,
          "time": 190.6007709374999,
          "velocity": 0.5433070866141733,
          "duration": 0.46153799999999023
        },
        {
          "name": "A3",
          "midi": 57,
          "time": 191.0623089374999,
          "velocity": 0.5196850393700787,
          "duration": 0.22115362499999947
        },
        {
          "name": "C4",
          "midi": 60,
          "time": 191.2882702499999,
          "velocity": 0.5669291338582677,
          "duration": 0.25480743749997714
        },
        {
          "name": "D4",
          "midi": 62,
          "time": 191.5286546249999,
          "velocity": 0.5905511811023622,
          "duration": 0.033653812499977676
        },
        {
          "name": "D4",
          "midi": 62,
          "time": 191.74980824999986,
          "velocity": 0.8110236220472441,
          "duration": 0.2451920624999957
        },
        {
          "name": "D5",
          "midi": 74,
          "time": 191.75942362499987,
          "velocity": 0.8031496062992126,
          "duration": 0.2836535624999783
        },
        {
          "name": "A4",
          "midi": 69,
          "time": 192.00942337499984,
          "velocity": 0.6141732283464567,
          "duration": 0.2259613125000044
        },
        {
          "name": "G4",
          "midi": 67,
          "time": 192.24019237499985,
          "velocity": 0.5984251968503937,
          "duration": 0.26923049999999193
        },
        {
          "name": "A4",
          "midi": 69,
          "time": 192.45653831249984,
          "velocity": 0.6220472440944882,
          "duration": 0.19711518750000323
        },
        {
          "name": "D4",
          "midi": 62,
          "time": 192.66326887499986,
          "velocity": 0.8110236220472441,
          "duration": 0.24038437499999077
        },
        {
          "name": "D5",
          "midi": 74,
          "time": 192.66326887499986,
          "velocity": 0.7559055118110236,
          "duration": 0.2788458750000018
        },
        {
          "name": "A4",
          "midi": 69,
          "time": 192.90365324999985,
          "velocity": 0.6377952755905512,
          "duration": 0.22115362499999947
        },
        {
          "name": "G4",
          "midi": 67,
          "time": 193.12961456249985,
          "velocity": 0.6299212598425197,
          "duration": 0.27403818749999687
        },
        {
          "name": "A4",
          "midi": 69,
          "time": 193.34115281249984,
          "velocity": 0.6614173228346457,
          "duration": 0.09134606250000843
        },
        {
          "name": "D5",
          "midi": 74,
          "time": 193.44211424999986,
          "velocity": 0.7322834645669292,
          "duration": 0.3846149999999966
        },
        {
          "name": "D4",
          "midi": 62,
          "time": 193.44211424999986,
          "velocity": 0.7716535433070866,
          "duration": 0.36057656250000036
        },
        {
          "name": "A4",
          "midi": 69,
          "time": 193.81711387499985,
          "velocity": 0.5905511811023622,
          "duration": 0.22115362499999947
        },
        {
          "name": "G4",
          "midi": 67,
          "time": 194.04307518749985,
          "velocity": 0.5984251968503937,
          "duration": 0.27403818749999687
        },
        {
          "name": "A4",
          "midi": 69,
          "time": 194.26903649999986,
          "velocity": 0.6535433070866141,
          "duration": 0.19711518750000323
        },
        {
          "name": "D4",
          "midi": 62,
          "time": 194.47576706249987,
          "velocity": 0.8188976377952756,
          "duration": 0.24038437499999077
        },
        {
          "name": "D5",
          "midi": 74,
          "time": 194.47576706249987,
          "velocity": 0.7559055118110236,
          "duration": 0.29326893749998817
        },
        {
          "name": "A4",
          "midi": 69,
          "time": 194.72095912499987,
          "velocity": 0.6220472440944882,
          "duration": 0.2115382499999896
        },
        {
          "name": "G4",
          "midi": 67,
          "time": 194.95172812499985,
          "velocity": 0.6535433070866141,
          "duration": 0.28365356250000673
        },
        {
          "name": "A4",
          "midi": 69,
          "time": 195.17288174999985,
          "velocity": 0.6614173228346457,
          "duration": 0.11057681249999973
        },
        {
          "name": "D5",
          "midi": 74,
          "time": 195.28345856249985,
          "velocity": 0.7952755905511811,
          "duration": 0.36057656250000036
        },
        {
          "name": "D4",
          "midi": 62,
          "time": 195.28826624999985,
          "velocity": 0.7952755905511811,
          "duration": 0.3509611874999905
        },
        {
          "name": "A4",
          "midi": 69,
          "time": 195.64403512499985,
          "velocity": 0.5905511811023622,
          "duration": 0.22115362499999947
        },
        {
          "name": "G4",
          "midi": 67,
          "time": 195.87480412499986,
          "velocity": 0.5748031496062992,
          "duration": 0.2980766249999931
        },
        {
          "name": "A4",
          "midi": 69,
          "time": 196.10076543749986,
          "velocity": 0.6771653543307087,
          "duration": 0.18749981249999337
        },
        {
          "name": "D5",
          "midi": 74,
          "time": 196.29788062499986,
          "velocity": 0.7401574803149606,
          "duration": 0.26923050000002036
        },
        {
          "name": "D4",
          "midi": 62,
          "time": 196.29788062499986,
          "velocity": 0.7952755905511811,
          "duration": 0.2067305625000131
        },
        {
          "name": "A4",
          "midi": 69,
          "time": 196.53826499999988,
          "velocity": 0.6614173228346457,
          "duration": 0.1923074999999983
        },
        {
          "name": "G4",
          "midi": 67,
          "time": 196.7642263124999,
          "velocity": 0.6614173228346457,
          "duration": 0.22115362499999947
        },
        {
          "name": "A4",
          "midi": 69,
          "time": 196.95172612499988,
          "velocity": 0.6377952755905512,
          "duration": 0.028846125000001166
        },
        {
          "name": "D4",
          "midi": 62,
          "time": 197.06711062499988,
          "velocity": 0.6850393700787402,
          "duration": 0.33653812500000413
        },
        {
          "name": "A3",
          "midi": 57,
          "time": 197.4132641249999,
          "velocity": 0.6141732283464567,
          "duration": 0.18269212499998844
        },
        {
          "name": "D4",
          "midi": 62,
          "time": 197.6344177499999,
          "velocity": 0.6535433070866141,
          "duration": 0.23076900000000933
        },
        {
          "name": "E4",
          "midi": 64,
          "time": 197.8603790624999,
          "velocity": 0.6377952755905512,
          "duration": 0.2067305625000131
        },
        {
          "name": "F4",
          "midi": 65,
          "time": 198.07672499999993,
          "velocity": 0.7086614173228346,
          "duration": 0.3317304374999992
        },
        {
          "name": "E4",
          "midi": 64,
          "time": 198.30268631249993,
          "velocity": 0.6535433070866141,
          "duration": 0.2259613125000044
        },
        {
          "name": "D4",
          "midi": 62,
          "time": 198.52864762499993,
          "velocity": 0.6456692913385826,
          "duration": 0.2259613125000044
        },
        {
          "name": "E4",
          "midi": 64,
          "time": 198.71133974999992,
          "velocity": 0.6535433070866141,
          "duration": 0.03846150000001103
        },
        {
          "name": "D5",
          "midi": 74,
          "time": 198.83633962499994,
          "velocity": 0.8188976377952756,
          "duration": 0.34134581250000906
        },
        {
          "name": "D4",
          "midi": 62,
          "time": 198.83633962499994,
          "velocity": 0.7244094488188977,
          "duration": 0.3124996875000079
        },
        {
          "name": "A4",
          "midi": 69,
          "time": 199.18249312499995,
          "velocity": 0.5748031496062992,
          "duration": 0.21634593749999453
        },
        {
          "name": "G4",
          "midi": 67,
          "time": 199.41326212499993,
          "velocity": 0.6141732283464567,
          "duration": 0.24999975000000063
        },
        {
          "name": "A4",
          "midi": 69,
          "time": 199.63441574999993,
          "velocity": 0.6614173228346457,
          "duration": 0.1923074999999983
        },
        {
          "name": "D4",
          "midi": 62,
          "time": 199.84114631249992,
          "velocity": 0.8110236220472441,
          "duration": 0.24038437499999077
        },
        {
          "name": "D5",
          "midi": 74,
          "time": 199.84114631249992,
          "velocity": 0.7716535433070866,
          "duration": 0.2980766249999931
        },
        {
          "name": "A4",
          "midi": 69,
          "time": 200.1007614374999,
          "velocity": 0.5905511811023622,
          "duration": 0.2067305625000131
        },
        {
          "name": "G4",
          "midi": 67,
          "time": 200.31229968749992,
          "velocity": 0.6456692913385826,
          "duration": 0.28365356250000673
        },
        {
          "name": "A4",
          "midi": 69,
          "time": 200.53345331249992,
          "velocity": 0.6535433070866141,
          "duration": 0.09134606250000843
        },
        {
          "name": "D4",
          "midi": 62,
          "time": 200.64883781249992,
          "velocity": 0.7716535433070866,
          "duration": 0.33653812500000413
        },
        {
          "name": "D5",
          "midi": 74,
          "time": 200.64883781249992,
          "velocity": 0.7165354330708661,
          "duration": 0.33653812500000413
        },
        {
          "name": "A4",
          "midi": 69,
          "time": 200.9997989999999,
          "velocity": 0.6062992125984252,
          "duration": 0.21634593749999453
        },
        {
          "name": "G4",
          "midi": 67,
          "time": 201.22576031249992,
          "velocity": 0.6141732283464567,
          "duration": 0.28365356250000673
        },
        {
          "name": "A4",
          "midi": 69,
          "time": 201.44691393749991,
          "velocity": 0.6377952755905512,
          "duration": 0.20192287500000816
        },
        {
          "name": "D5",
          "midi": 74,
          "time": 201.65845218749993,
          "velocity": 0.7086614173228346,
          "duration": 0.28365356250000673
        },
        {
          "name": "D4",
          "midi": 62,
          "time": 201.65845218749993,
          "velocity": 0.7401574803149606,
          "duration": 0.24038437499999077
        },
        {
          "name": "A4",
          "midi": 69,
          "time": 201.90364424999993,
          "velocity": 0.6141732283464567,
          "duration": 0.2451920624999957
        },
        {
          "name": "G4",
          "midi": 67,
          "time": 202.12960556249993,
          "velocity": 0.6377952755905512,
          "duration": 0.28365356250000673
        },
        {
          "name": "A4",
          "midi": 69,
          "time": 202.34595149999993,
          "velocity": 0.6535433070866141,
          "duration": 0.1201921875000096
        },
        {
          "name": "D5",
          "midi": 74,
          "time": 202.47095137499994,
          "velocity": 0.7086614173228346,
          "duration": 0.34615349999998557
        },
        {
          "name": "D4",
          "midi": 62,
          "time": 202.47095137499994,
          "velocity": 0.7874015748031497,
          "duration": 0.32692274999999427
        },
        {
          "name": "A4",
          "midi": 69,
          "time": 202.82672024999994,
          "velocity": 0.5590551181102362,
          "duration": 0.2115382499999896
        },
        {
          "name": "G4",
          "midi": 67,
          "time": 203.04787387499994,
          "velocity": 0.5905511811023622,
          "duration": 0.26923049999999193
        },
        {
          "name": "A4",
          "midi": 69,
          "time": 203.26902749999994,
          "velocity": 0.6220472440944882,
          "duration": 0.1923074999999983
        },
        {
          "name": "D4",
          "midi": 62,
          "time": 203.47095037499994,
          "velocity": 0.7716535433070866,
          "duration": 0.2115382499999896
        },
        {
          "name": "D5",
          "midi": 74,
          "time": 203.47095037499994,
          "velocity": 0.7401574803149606,
          "duration": 0.28365356250000673
        },
        {
          "name": "A4",
          "midi": 69,
          "time": 203.71614243749994,
          "velocity": 0.6062992125984252,
          "duration": 0.2259613125000044
        },
        {
          "name": "G4",
          "midi": 67,
          "time": 203.94691143749995,
          "velocity": 0.6535433070866141,
          "duration": 0.23076900000000933
        },
        {
          "name": "A4",
          "midi": 69,
          "time": 204.13921893749995,
          "velocity": 0.6377952755905512,
          "duration": 0.028846125000001166
        },
        {
          "name": "D4",
          "midi": 62,
          "time": 204.26902649999997,
          "velocity": 0.6456692913385826,
          "duration": 0.3124996875000079
        },
        {
          "name": "A3",
          "midi": 57,
          "time": 204.60556462499997,
          "velocity": 0.5984251968503937,
          "duration": 0.17788443750001193
        },
        {
          "name": "D4",
          "midi": 62,
          "time": 204.83633362499998,
          "velocity": 0.6220472440944882,
          "duration": 0.2115382499999896
        },
        {
          "name": "E4",
          "midi": 64,
          "time": 205.06229493749996,
          "velocity": 0.6220472440944882,
          "duration": 0.2067305625000131
        },
        {
          "name": "F4",
          "midi": 65,
          "time": 205.29306393749997,
          "velocity": 0.7007874015748031,
          "duration": 0.30288431249999803
        },
        {
          "name": "E4",
          "midi": 64,
          "time": 205.52383293749998,
          "velocity": 0.6220472440944882,
          "duration": 0.2307689999999809
        },
        {
          "name": "D4",
          "midi": 62,
          "time": 205.75460193749996,
          "velocity": 0.6299212598425197,
          "duration": 0.2451920624999957
        },
        {
          "name": "E4",
          "midi": 64,
          "time": 205.97575556249996,
          "velocity": 0.6220472440944882,
          "duration": 0.06249993750000726
        },
        {
          "name": "D4",
          "midi": 62,
          "time": 206.19210149999995,
          "velocity": 0.8188976377952756,
          "duration": 0.24038437499999077
        },
        {
          "name": "A3",
          "midi": 57,
          "time": 206.42767818749994,
          "velocity": 0.6771653543307087,
          "duration": 0.1923074999999983
        },
        {
          "name": "D4",
          "midi": 62,
          "time": 206.64402412499993,
          "velocity": 0.7165354330708661,
          "duration": 0.2451920624999957
        },
        {
          "name": "E4",
          "midi": 64,
          "time": 206.86517774999993,
          "velocity": 0.7401574803149606,
          "duration": 0.18269212499998844
        },
        {
          "name": "F4",
          "midi": 65,
          "time": 206.99017762499992,
          "velocity": 0.7559055118110236,
          "duration": 0.3509611875000189
        },
        {
          "name": "G4",
          "midi": 67,
          "time": 207.33633112499993,
          "velocity": 0.7559055118110236,
          "duration": 0.22115362499999947
        },
        {
          "name": "F4",
          "midi": 65,
          "time": 207.55267706249992,
          "velocity": 0.7165354330708661,
          "duration": 0.28365356250000673
        },
        {
          "name": "E4",
          "midi": 64,
          "time": 207.78344606249993,
          "velocity": 0.7007874015748031,
          "duration": 0.20673056249998467
        },
        {
          "name": "C4",
          "midi": 60,
          "time": 208.0045996874999,
          "velocity": 0.7559055118110236,
          "duration": 0.1394229375000009
        },
        {
          "name": "C4",
          "midi": 60,
          "time": 208.3555608749999,
          "velocity": 0.6692913385826772,
          "duration": 0.028846125000001166
        },
        {
          "name": "C4",
          "midi": 60,
          "time": 208.4420992499999,
          "velocity": 0.7480314960629921,
          "duration": 0.08173068749999857
        },
        {
          "name": "C4",
          "midi": 60,
          "time": 208.6824836249999,
          "velocity": 0.7244094488188977,
          "duration": 0.06249993750000726
        },
        {
          "name": "C4",
          "midi": 60,
          "time": 208.7930604374999,
          "velocity": 0.7007874015748031,
          "duration": 0.34134581250000906
        },
        {
          "name": "F4",
          "midi": 65,
          "time": 209.1344062499999,
          "velocity": 0.7244094488188977,
          "duration": 0.08173068749999857
        },
        {
          "name": "F4",
          "midi": 65,
          "time": 209.3603675624999,
          "velocity": 0.7559055118110236,
          "duration": 0.21634593749999453
        },
        {
          "name": "G4",
          "midi": 67,
          "time": 209.5815211874999,
          "velocity": 0.7401574803149606,
          "duration": 0.2259613125000044
        },
        {
          "name": "D4",
          "midi": 62,
          "time": 209.8074824999999,
          "velocity": 0.7716535433070866,
          "duration": 0.19711518750000323
        },
        {
          "name": "D4",
          "midi": 62,
          "time": 210.18248212499992,
          "velocity": 0.7007874015748031,
          "duration": 0.0336538125000061
        },
        {
          "name": "D4",
          "midi": 62,
          "time": 210.27382818749993,
          "velocity": 0.7795275590551181,
          "duration": 0.27403818749999687
        },
        {
          "name": "E4",
          "midi": 64,
          "time": 210.50940487499992,
          "velocity": 0.7165354330708661,
          "duration": 0.1538460000000157
        },
        {
          "name": "F4",
          "midi": 65,
          "time": 210.61517399999994,
          "velocity": 0.7952755905511811,
          "duration": 0.37980731249999167
        },
        {
          "name": "G4",
          "midi": 67,
          "time": 210.96613518749993,
          "velocity": 0.7401574803149606,
          "duration": 0.2451920624999957
        },
        {
          "name": "F4",
          "midi": 65,
          "time": 211.18248112499992,
          "velocity": 0.7637795275590551,
          "duration": 0.2836535624999783
        },
        {
          "name": "E4",
          "midi": 64,
          "time": 211.3940193749999,
          "velocity": 0.7244094488188977,
          "duration": 0.2115382499999896
        },
        {
          "name": "C4",
          "midi": 60,
          "time": 211.6055576249999,
          "velocity": 0.7952755905511811,
          "duration": 1.8221135624999931
        },
        {
          "name": "A3",
          "midi": 57,
          "time": 213.6344017499999,
          "velocity": 0.7165354330708661,
          "duration": 0.18269212499998844
        },
        {
          "name": "D4",
          "midi": 62,
          "time": 213.8459399999999,
          "velocity": 0.7480314960629921,
          "duration": 0.2788458750000018
        },
        {
          "name": "E4",
          "midi": 64,
          "time": 214.0670936249999,
          "velocity": 0.7244094488188977,
          "duration": 0.16826906250000206
        },
        {
          "name": "F4",
          "midi": 65,
          "time": 214.1680550624999,
          "velocity": 0.7637795275590551,
          "duration": 0.3701919375000102
        },
        {
          "name": "G4",
          "midi": 67,
          "time": 214.5286316249999,
          "velocity": 0.7795275590551181,
          "duration": 0.25480743750000556
        },
        {
          "name": "F4",
          "midi": 65,
          "time": 214.7497852499999,
          "velocity": 0.7559055118110236,
          "duration": 0.2932689375000166
        },
        {
          "name": "E4",
          "midi": 64,
          "time": 214.9853619374999,
          "velocity": 0.7480314960629921,
          "duration": 0.19711518750000323
        },
        {
          "name": "C4",
          "midi": 60,
          "time": 215.19209249999992,
          "velocity": 0.7874015748031497,
          "duration": 0.18269212499998844
        },
        {
          "name": "C4",
          "midi": 60,
          "time": 215.5478613749999,
          "velocity": 0.7401574803149606,
          "duration": 0.0673076250000122
        },
        {
          "name": "C4",
          "midi": 60,
          "time": 215.64401512499992,
          "velocity": 0.6456692913385826,
          "duration": 0.0865383750000035
        },
        {
          "name": "C4",
          "midi": 60,
          "time": 215.86036106249992,
          "velocity": 0.6850393700787402,
          "duration": 0.0673076250000122
        },
        {
          "name": "C4",
          "midi": 60,
          "time": 215.98055324999993,
          "velocity": 0.7795275590551181,
          "duration": 0.3701919375000102
        },
        {
          "name": "F4",
          "midi": 65,
          "time": 216.31709137499993,
          "velocity": 0.7322834645669292,
          "duration": 0.0673076250000122
        },
        {
          "name": "F4",
          "midi": 65,
          "time": 216.54305268749994,
          "velocity": 0.7795275590551181,
          "duration": 0.2259613125000044
        },
        {
          "name": "G4",
          "midi": 67,
          "time": 216.76901399999994,
          "velocity": 0.7401574803149606,
          "duration": 0.21634593749999453
        },
        {
          "name": "D4",
          "midi": 62,
          "time": 216.99497531249995,
          "velocity": 0.7952755905511811,
          "duration": 0.15384599999998727
        },
        {
          "name": "D4",
          "midi": 62,
          "time": 217.34112881249993,
          "velocity": 0.7165354330708661,
          "duration": 0.0336538125000061
        },
        {
          "name": "D4",
          "midi": 62,
          "time": 217.43728256249995,
          "velocity": 0.7401574803149606,
          "duration": 0.2596151250000105
        },
        {
          "name": "E4",
          "midi": 64,
          "time": 217.66805156249995,
          "velocity": 0.7244094488188977,
          "duration": 0.14423062500000583
        },
        {
          "name": "F4",
          "midi": 65,
          "time": 217.77862837499995,
          "velocity": 0.7322834645669292,
          "duration": 0.32692274999999427
        },
        {
          "name": "G4",
          "midi": 67,
          "time": 218.10555112499995,
          "velocity": 0.7322834645669292,
          "duration": 0.2259613125000044
        },
        {
          "name": "A4",
          "midi": 69,
          "time": 218.33632012499996,
          "velocity": 0.7559055118110236,
          "duration": 0.26923049999999193
        },
        {
          "name": "A#4",
          "midi": 70,
          "time": 218.56228143749996,
          "velocity": 0.7165354330708661,
          "duration": 0.28846124999998324
        },
        {
          "name": "A4",
          "midi": 69,
          "time": 218.78824274999994,
          "velocity": 0.8582677165354331,
          "duration": 0.2788458750000018
        },
        {
          "name": "F4",
          "midi": 65,
          "time": 219.91804931249993,
          "velocity": 0.7322834645669292,
          "duration": 0.09134606250000843
        },
        {
          "name": "F4",
          "midi": 65,
          "time": 220.13920293749993,
          "velocity": 0.8031496062992126,
          "duration": 0.0865383750000035
        },
        {
          "name": "E4",
          "midi": 64,
          "time": 220.37477962499995,
          "velocity": 0.7559055118110236,
          "duration": 0.07692299999999364
        },
        {
          "name": "F4",
          "midi": 65,
          "time": 220.61516399999994,
          "velocity": 0.84251968503937,
          "duration": 0.9615374999999915
        },
        {
          "name": "A4",
          "midi": 69,
          "time": 221.75939362499992,
          "velocity": 0.8582677165354331,
          "duration": 0.07692299999999364
        },
        {
          "name": "A4",
          "midi": 69,
          "time": 221.9757395624999,
          "velocity": 0.7795275590551181,
          "duration": 0.0865383750000035
        },
        {
          "name": "G4",
          "midi": 67,
          "time": 222.20650856249992,
          "velocity": 0.7637795275590551,
          "duration": 0.09134606250000843
        },
        {
          "name": "A4",
          "midi": 69,
          "time": 222.46131599999993,
          "velocity": 0.8818897637795275,
          "duration": 0.9471144375000051
        },
        {
          "name": "F4",
          "midi": 65,
          "time": 223.59593024999992,
          "velocity": 0.7559055118110236,
          "duration": 0.09134606250000843
        },
        {
          "name": "F4",
          "midi": 65,
          "time": 223.81708387499992,
          "velocity": 0.7559055118110236,
          "duration": 0.09615375000001336
        },
        {
          "name": "E4",
          "midi": 64,
          "time": 224.04785287499993,
          "velocity": 0.7401574803149606,
          "duration": 0.0721153124999887
        },
        {
          "name": "F4",
          "midi": 65,
          "time": 224.26900649999993,
          "velocity": 0.7952755905511811,
          "duration": 0.10096143749998987
        },
        {
          "name": "E4",
          "midi": 64,
          "time": 224.4949678124999,
          "velocity": 0.7244094488188977,
          "duration": 0.09134606250000843
        },
        {
          "name": "F4",
          "midi": 65,
          "time": 224.7209291249999,
          "velocity": 0.7952755905511811,
          "duration": 0.0865383750000035
        },
        {
          "name": "G4",
          "midi": 67,
          "time": 224.9420827499999,
          "velocity": 0.8031496062992126,
          "duration": 0.09134606250000843
        },
        {
          "name": "A4",
          "midi": 69,
          "time": 225.1584286874999,
          "velocity": 0.8031496062992126,
          "duration": 0.0865383750000035
        },
        {
          "name": "G4",
          "midi": 67,
          "time": 225.3843899999999,
          "velocity": 0.7401574803149606,
          "duration": 0.0865383750000035
        },
        {
          "name": "F4",
          "midi": 65,
          "time": 225.6055436249999,
          "velocity": 0.7559055118110236,
          "duration": 0.09134606250000843
        },
        {
          "name": "D4",
          "midi": 62,
          "time": 225.84112031249992,
          "velocity": 0.7559055118110236,
          "duration": 0.0721153124999887
        },
        {
          "name": "D4",
          "midi": 62,
          "time": 226.0766969999999,
          "velocity": 0.7795275590551181,
          "duration": 0.25480743750000556
        },
        {
          "name": "F4",
          "midi": 65,
          "time": 227.23054199999993,
          "velocity": 0.7559055118110236,
          "duration": 0.09615375000001336
        },
        {
          "name": "F4",
          "midi": 65,
          "time": 227.46611868749994,
          "velocity": 0.7401574803149606,
          "duration": 0.09615375000001336
        },
        {
          "name": "E4",
          "midi": 64,
          "time": 227.71131074999997,
          "velocity": 0.7559055118110236,
          "duration": 0.08173068749999857
        },
        {
          "name": "F4",
          "midi": 65,
          "time": 227.97092587499998,
          "velocity": 0.84251968503937,
          "duration": 1.0240374374999988
        },
        {
          "name": "A4",
          "midi": 69,
          "time": 229.201693875,
          "velocity": 0.7795275590551181,
          "duration": 0.08173068749999857
        },
        {
          "name": "A4",
          "midi": 69,
          "time": 229.44207824999998,
          "velocity": 0.8031496062992126,
          "duration": 0.0865383750000035
        },
        {
          "name": "G4",
          "midi": 67,
          "time": 229.701693375,
          "velocity": 0.7637795275590551,
          "duration": 0.09134606250000843
        },
        {
          "name": "A4",
          "midi": 69,
          "time": 230.01900075,
          "velocity": 0.84251968503937,
          "duration": 0.5432686874999888
        },
        {
          "name": "G4",
          "midi": 67,
          "time": 230.8218845625,
          "velocity": 0.8031496062992126,
          "duration": 0.5865378750000048
        },
        {
          "name": "F4",
          "midi": 65,
          "time": 231.6488068125,
          "velocity": 0.7401574803149606,
          "duration": 0.09615375000001336
        },
        {
          "name": "E4",
          "midi": 64,
          "time": 231.932460375,
          "velocity": 0.7480314960629921,
          "duration": 0.07692299999999364
        },
        {
          "name": "F4",
          "midi": 65,
          "time": 232.21130625,
          "velocity": 0.7795275590551181,
          "duration": 0.11538450000000466
        },
        {
          "name": "E4",
          "midi": 64,
          "time": 232.490152125,
          "velocity": 0.7165354330708661,
          "duration": 0.0721153124999887
        },
        {
          "name": "F4",
          "midi": 65,
          "time": 232.6584211875,
          "velocity": 0.7952755905511811,
          "duration": 0.14903831250001076
        },
        {
          "name": "G4",
          "midi": 67,
          "time": 233.09111306250003,
          "velocity": 0.7637795275590551,
          "duration": 0.09615375000001336
        },
        {
          "name": "A4",
          "midi": 69,
          "time": 233.38918968750005,
          "velocity": 0.8188976377952756,
          "duration": 0.11538450000000466
        },
        {
          "name": "G4",
          "midi": 67,
          "time": 233.71130475000007,
          "velocity": 0.7401574803149606,
          "duration": 0.10096143749998987
        },
        {
          "name": "F4",
          "midi": 65,
          "time": 234.05265056250005,
          "velocity": 0.7716535433070866,
          "duration": 0.11057681249999973
        },
        {
          "name": "D4",
          "midi": 62,
          "time": 234.44207325000005,
          "velocity": 0.7165354330708661,
          "duration": 0.11057681249999973
        },
        {
          "name": "D4",
          "midi": 62,
          "time": 234.95649581250004,
          "velocity": 0.7716535433070866,
          "duration": 0.44711493750000386
        },
        {
          "name": "D3",
          "midi": 50,
          "time": 236.84591700000004,
          "velocity": 0.5984251968503937,
          "duration": 0.33653812500000413
        },
        {
          "name": "D3",
          "midi": 50,
          "time": 237.74976225000006,
          "velocity": 0.5669291338582677,
          "duration": 0.44711493750000386
        },
        {
          "name": "E3",
          "midi": 52,
          "time": 238.16322337500006,
          "velocity": 0.6220472440944882,
          "duration": 0.2788458750000018
        },
        {
          "name": "F3",
          "midi": 53,
          "time": 238.36514625000007,
          "velocity": 0.6141732283464567,
          "duration": 0.6442301250000071
        },
        {
          "name": "G3",
          "midi": 55,
          "time": 239.00937637500007,
          "velocity": 0.6220472440944882,
          "duration": 0.4038457499999879
        },
        {
          "name": "F3",
          "midi": 53,
          "time": 239.42764518750005,
          "velocity": 0.6535433070866141,
          "duration": 0.5048071875000062
        },
        {
          "name": "E3",
          "midi": 52,
          "time": 239.83629862500004,
          "velocity": 0.6377952755905512,
          "duration": 0.23557668750001426
        },
        {
          "name": "C3",
          "midi": 48,
          "time": 240.03822150000005,
          "velocity": 0.6850393700787402,
          "duration": 0.39423037500000646
        },
        {
          "name": "G2",
          "midi": 43,
          "time": 240.46610568750006,
          "velocity": 0.33070866141732286,
          "duration": 0.16826906250000206
        },
        {
          "name": "G2",
          "midi": 43,
          "time": 240.87475912500005,
          "velocity": 0.5354330708661418,
          "duration": 0.2067305625000131
        },
        {
          "name": "C3",
          "midi": 48,
          "time": 241.09591275000005,
          "velocity": 0.6220472440944882,
          "duration": 0.16346137499999713
        },
        {
          "name": "G2",
          "midi": 43,
          "time": 241.32668175000006,
          "velocity": 0.3858267716535433,
          "duration": 0.05769225000000233
        },
        {
          "name": "G2",
          "midi": 43,
          "time": 241.50456618750007,
          "velocity": 0.5669291338582677,
          "duration": 0.3846149999999966
        },
        {
          "name": "A#2",
          "midi": 46,
          "time": 241.70648906250008,
          "velocity": 0.6614173228346457,
          "duration": 0.6490378124999836
        },
        {
          "name": "C3",
          "midi": 48,
          "time": 242.33629612500008,
          "velocity": 0.5984251968503937,
          "duration": 0.13461524999999597
        },
        {
          "name": "C3",
          "midi": 48,
          "time": 242.74975725000007,
          "velocity": 0.6299212598425197,
          "duration": 0.41346112499999776
        },
        {
          "name": "F3",
          "midi": 53,
          "time": 243.17283375000008,
          "velocity": 0.5669291338582677,
          "duration": 0.21634593749999453
        },
        {
          "name": "D3",
          "midi": 50,
          "time": 243.36514125000008,
          "velocity": 0.6377952755905512,
          "duration": 0.48076875000000996
        },
        {
          "name": "D3",
          "midi": 50,
          "time": 244.45167862500008,
          "velocity": 0.6062992125984252,
          "duration": 0.38942268750000153
        },
        {
          "name": "E3",
          "midi": 52,
          "time": 244.8459090000001,
          "velocity": 0.6535433070866141,
          "duration": 0.26923050000002036
        },
        {
          "name": "F3",
          "midi": 53,
          "time": 245.0478318750001,
          "velocity": 0.6377952755905512,
          "duration": 0.6394224375000306
        },
        {
          "name": "G3",
          "midi": 55,
          "time": 245.68244662500013,
          "velocity": 0.6141732283464567,
          "duration": 0.38942268750000153
        },
        {
          "name": "F3",
          "midi": 53,
          "time": 246.09110006250012,
          "velocity": 0.6299212598425197,
          "duration": 0.528845624999974
        },
        {
          "name": "E3",
          "midi": 52,
          "time": 246.4949458125001,
          "velocity": 0.5905511811023622,
          "duration": 0.22596131249997597
        },
        {
          "name": "C3",
          "midi": 48,
          "time": 246.7016763750001,
          "velocity": 0.6299212598425197,
          "duration": 0.7211531250000007
        },
        {
          "name": "A4",
          "midi": 69,
          "time": 250.8651337500001,
          "velocity": 0.5590551181102362,
          "duration": 0.22115362499999947
        },
        {
          "name": "D5",
          "midi": 74,
          "time": 251.0814796875001,
          "velocity": 0.5669291338582677,
          "duration": 0.40865343749999283
        },
        {
          "name": "E5",
          "midi": 76,
          "time": 251.49013312500009,
          "velocity": 0.5590551181102362,
          "duration": 0.28365356250000673
        },
        {
          "name": "F5",
          "midi": 77,
          "time": 251.6968636875001,
          "velocity": 0.6220472440944882,
          "duration": 0.6490378124999836
        },
        {
          "name": "G5",
          "midi": 79,
          "time": 252.34590150000008,
          "velocity": 0.5905511811023622,
          "duration": 0.40865343749999283
        },
        {
          "name": "F5",
          "midi": 77,
          "time": 252.76897800000006,
          "velocity": 0.6062992125984252,
          "duration": 0.28846125000001166
        },
        {
          "name": "E5",
          "midi": 76,
          "time": 252.99013162500006,
          "velocity": 0.6456692913385826,
          "duration": 0.6923069999999996
        },
        {
          "name": "C5",
          "midi": 72,
          "time": 253.66320787500007,
          "velocity": 0.5905511811023622,
          "duration": 0.32211506249998934
        },
        {
          "name": "C5",
          "midi": 72,
          "time": 254.39397637500005,
          "velocity": 0.5590551181102362,
          "duration": 0.10096143749998987
        },
        {
          "name": "C5",
          "midi": 72,
          "time": 254.63436075000004,
          "velocity": 0.6220472440944882,
          "duration": 0.19711518750000323
        },
        {
          "name": "C5",
          "midi": 72,
          "time": 255.07666800000004,
          "velocity": 0.5748031496062992,
          "duration": 0.2788458750000018
        },
        {
          "name": "A#4",
          "midi": 70,
          "time": 255.30743700000005,
          "velocity": 0.5511811023622047,
          "duration": 0.49999950000000126
        },
        {
          "name": "F5",
          "midi": 77,
          "time": 256.10070543750004,
          "velocity": 0.5669291338582677,
          "duration": 0.1394229375000009
        },
        {
          "name": "F5",
          "midi": 77,
          "time": 256.64878181250003,
          "velocity": 0.5905511811023622,
          "duration": 0.28846125000001166
        },
        {
          "name": "G5",
          "midi": 79,
          "time": 256.94205075,
          "velocity": 0.5905511811023622,
          "duration": 1.1730757500000095
        },
        {
          "name": "D5",
          "midi": 74,
          "time": 258.11512650000003,
          "velocity": 0.5354330708661418,
          "duration": 3.3653812499999844
        }
      ],
      "controlChanges": {
        "6": [
          {
            "number": 6,
            "time": 0,
            "value": 0.09448818897637795
          },
          {
            "number": 6,
            "time": 0,
            "value": 0.09448818897637795
          },
          {
            "number": 6,
            "time": 0,
            "value": 0.09448818897637795
          },
          {
            "number": 6,
            "time": 262.153584,
            "value": 0.09448818897637795
          },
          {
            "number": 6,
            "time": 262.1583916875,
            "value": 0.09448818897637795
          },
          {
            "number": 6,
            "time": 262.1583916875,
            "value": 0.09448818897637795
          }
        ],
        "7": [
          {
            "number": 7,
            "time": 0,
            "value": 0.7874015748031497
          },
          {
            "number": 7,
            "time": 0,
            "value": 0.7874015748031497
          },
          {
            "number": 7,
            "time": 0,
            "value": 0.7874015748031497
          },
          {
            "number": 7,
            "time": 0,
            "value": 0.7874015748031497
          },
          {
            "number": 7,
            "time": 262.153584,
            "value": 0.7874015748031497
          },
          {
            "number": 7,
            "time": 262.1583916875,
            "value": 0.7874015748031497
          },
          {
            "number": 7,
            "time": 262.1583916875,
            "value": 0.7874015748031497
          }
        ],
        "10": [
          {
            "number": 10,
            "time": 0,
            "value": 0.5039370078740157
          },
          {
            "number": 10,
            "time": 0,
            "value": 0.5039370078740157
          },
          {
            "number": 10,
            "time": 0,
            "value": 0.5039370078740157
          },
          {
            "number": 10,
            "time": 0,
            "value": 0.5039370078740157
          },
          {
            "number": 10,
            "time": 262.153584,
            "value": 0.5039370078740157
          },
          {
            "number": 10,
            "time": 262.1583916875,
            "value": 0.5039370078740157
          },
          {
            "number": 10,
            "time": 262.1583916875,
            "value": 0.5039370078740157
          }
        ],
        "100": [
          {
            "number": 100,
            "time": 0,
            "value": 0
          },
          {
            "number": 100,
            "time": 0,
            "value": 0
          },
          {
            "number": 100,
            "time": 0,
            "value": 0
          },
          {
            "number": 100,
            "time": 262.153584,
            "value": 0
          },
          {
            "number": 100,
            "time": 262.1583916875,
            "value": 0
          },
          {
            "number": 100,
            "time": 262.1583916875,
            "value": 0
          }
        ],
        "101": [
          {
            "number": 101,
            "time": 0,
            "value": 0
          },
          {
            "number": 101,
            "time": 0,
            "value": 0
          },
          {
            "number": 101,
            "time": 0,
            "value": 0
          },
          {
            "number": 101,
            "time": 262.153584,
            "value": 0
          },
          {
            "number": 101,
            "time": 262.1583916875,
            "value": 0
          },
          {
            "number": 101,
            "time": 262.1583916875,
            "value": 0
          }
        ]
      },
      "id": 2,
      "name": "3x Osc",
      "instrumentNumber": 0,
      "instrument": "acoustic grand piano",
      "instrumentFamily": "piano",
      "channelNumber": 0,
      "isPercussion": false
    }
  ]
}
