{
  "header": {
    "PPQ": 120,
    "bpm": 120,
    "timeSignature": [
      4,
      4
    ],
    "name": ""
  },
  "startTime": 0,
  "duration": 759.4958333333586,
  "tracks": [
    {
      "startTime": 0,
      "duration": 759.4958333333586,
      "length": 8414,
      "notes": [
        {
          "name": "B3",
          "midi": 59,
          "time": 0,
          "velocity": 1,
          "duration": 0.36666666666666664
        },
        {
          "name": "E3",
          "midi": 52,
          "time": 0,
          "velocity": 1,
          "duration": 0.36666666666666664
        },
        {
          "name": "E4",
          "midi": 64,
          "time": 0,
          "velocity": 1,
          "duration": 0.3708333333333333
        },
        {
          "name": "B3",
          "midi": 59,
          "time": 0,
          "velocity": 1,
          "duration": 0.4958333333333333
        },
        {
          "name": "E3",
          "midi": 52,
          "time": 0,
          "velocity": 1,
          "duration": 0.4958333333333333
        },
        {
          "name": "E4",
          "midi": 64,
          "time": 0,
          "velocity": 1,
          "duration": 0.4958333333333333
        },
        {
          "name": "E2",
          "midi": 40,
          "time": 0,
          "velocity": 1,
          "duration": 0.3708333333333333
        },
        {
          "name": "E2",
          "midi": 40,
          "time": 0,
          "velocity": 1,
          "duration": 0.49999999999999994
        },
        {
          "name": "D3",
          "midi": 50,
          "time": 1.9958333333333331,
          "velocity": 1,
          "duration": 0.3708333333333331
        },
        {
          "name": "A3",
          "midi": 57,
          "time": 1.9958333333333331,
          "velocity": 1,
          "duration": 0.3708333333333331
        },
        {
          "name": "D4",
          "midi": 62,
          "time": 1.9958333333333331,
          "velocity": 1,
          "duration": 0.3708333333333331
        },
        {
          "name": "A3",
          "midi": 57,
          "time": 1.9958333333333331,
          "velocity": 1,
          "duration": 0.5
        },
        {
          "name": "D4",
          "midi": 62,
          "time": 1.9958333333333331,
          "velocity": 1,
          "duration": 0.5
        },
        {
          "name": "D3",
          "midi": 50,
          "time": 1.9958333333333331,
          "velocity": 1,
          "duration": 0.5
        },
        {
          "name": "D3",
          "midi": 50,
          "time": 2.495833333333333,
          "velocity": 1,
          "duration": 0.3708333333333331
        },
        {
          "name": "C#4",
          "midi": 61,
          "time": 2.495833333333333,
          "velocity": 1,
          "duration": 0.3708333333333331
        },
        {
          "name": "G#3",
          "midi": 56,
          "time": 2.495833333333333,
          "velocity": 1,
          "duration": 0.3708333333333331
        },
        {
          "name": "G#3",
          "midi": 56,
          "time": 2.495833333333333,
          "velocity": 1,
          "duration": 0.5
        },
        {
          "name": "D3",
          "midi": 50,
          "time": 2.495833333333333,
          "velocity": 1,
          "duration": 0.5
        },
        {
          "name": "C#4",
          "midi": 61,
          "time": 2.495833333333333,
          "velocity": 1,
          "duration": 0.5
        },
        {
          "name": "C3",
          "midi": 48,
          "time": 2.995833333333333,
          "velocity": 1,
          "duration": 2.370833333333333
        },
        {
          "name": "G3",
          "midi": 55,
          "time": 2.995833333333333,
          "velocity": 1,
          "duration": 2.370833333333333
        },
        {
          "name": "C4",
          "midi": 60,
          "time": 2.995833333333333,
          "velocity": 1,
          "duration": 2.370833333333333
        },
        {
          "name": "E4",
          "midi": 64,
          "time": 2.995833333333333,
          "velocity": 1,
          "duration": 2.370833333333333
        },
        {
          "name": "E4",
          "midi": 64,
          "time": 2.995833333333333,
          "velocity": 1,
          "duration": 2.9999999999999996
        },
        {
          "name": "G3",
          "midi": 55,
          "time": 2.995833333333333,
          "velocity": 1,
          "duration": 2.9999999999999996
        },
        {
          "name": "C4",
          "midi": 60,
          "time": 2.995833333333333,
          "velocity": 1,
          "duration": 2.9999999999999996
        },
        {
          "name": "C3",
          "midi": 48,
          "time": 2.995833333333333,
          "velocity": 1,
          "duration": 2.9999999999999996
        },
        {
          "name": "E2",
          "midi": 40,
          "time": 5.995833333333333,
          "velocity": 1,
          "duration": 0.24583333333333357
        },
        {
          "name": "E2",
          "midi": 40,
          "time": 5.995833333333333,
          "velocity": 1,
          "duration": 0.25
        },
        {
          "name": "E2",
          "midi": 40,
          "time": 6.245833333333333,
          "velocity": 1,
          "duration": 0.24583333333333357
        },
        {
          "name": "E2",
          "midi": 40,
          "time": 6.245833333333333,
          "velocity": 1,
          "duration": 0.25
        },
        {
          "name": "E3",
          "midi": 52,
          "time": 6.495833333333333,
          "velocity": 1,
          "duration": 0.24583333333333357
        },
        {
          "name": "E3",
          "midi": 52,
          "time": 6.495833333333333,
          "velocity": 1,
          "duration": 0.25
        },
        {
          "name": "E2",
          "midi": 40,
          "time": 6.745833333333333,
          "velocity": 1,
          "duration": 0.24583333333333268
        },
        {
          "name": "E2",
          "midi": 40,
          "time": 6.749999999999999,
          "velocity": 1,
          "duration": 0.2499999999999991
        },
        {
          "name": "E2",
          "midi": 40,
          "time": 6.995833333333332,
          "velocity": 1,
          "duration": 0.24583333333333268
        },
        {
          "name": "E2",
          "midi": 40,
          "time": 6.999999999999998,
          "velocity": 1,
          "duration": 0.2499999999999991
        },
        {
          "name": "D#3",
          "midi": 51,
          "time": 7.245833333333331,
          "velocity": 1,
          "duration": 0.24583333333333268
        },
        {
          "name": "D#3",
          "midi": 51,
          "time": 7.249999999999997,
          "velocity": 1,
          "duration": 0.2499999999999991
        },
        {
          "name": "E2",
          "midi": 40,
          "time": 7.49583333333333,
          "velocity": 1,
          "duration": 0.24583333333333268
        },
        {
          "name": "E2",
          "midi": 40,
          "time": 7.504166666666663,
          "velocity": 1,
          "duration": 0.25
        },
        {
          "name": "E2",
          "midi": 40,
          "time": 7.745833333333329,
          "velocity": 1,
          "duration": 0.24583333333333357
        },
        {
          "name": "E2",
          "midi": 40,
          "time": 7.754166666666663,
          "velocity": 1,
          "duration": 0.25
        },
        {
          "name": "D4",
          "midi": 62,
          "time": 7.995833333333329,
          "velocity": 1,
          "duration": 0.37083333333333446
        },
        {
          "name": "F#4",
          "midi": 66,
          "time": 7.995833333333329,
          "velocity": 1,
          "duration": 0.37083333333333446
        },
        {
          "name": "A3",
          "midi": 57,
          "time": 7.995833333333329,
          "velocity": 1,
          "duration": 0.37083333333333446
        },
        {
          "name": "D3",
          "midi": 50,
          "time": 7.995833333333329,
          "velocity": 1,
          "duration": 0.37083333333333446
        },
        {
          "name": "F#4",
          "midi": 66,
          "time": 7.995833333333329,
          "velocity": 1,
          "duration": 0.5000000000000009
        },
        {
          "name": "D4",
          "midi": 62,
          "time": 7.995833333333329,
          "velocity": 1,
          "duration": 0.5000000000000009
        },
        {
          "name": "A3",
          "midi": 57,
          "time": 7.995833333333329,
          "velocity": 1,
          "duration": 0.5000000000000009
        },
        {
          "name": "D3",
          "midi": 50,
          "time": 7.995833333333329,
          "velocity": 1,
          "duration": 0.5000000000000009
        },
        {
          "name": "F4",
          "midi": 65,
          "time": 8.49583333333333,
          "velocity": 1,
          "duration": 0.37083333333333357
        },
        {
          "name": "C#3",
          "midi": 49,
          "time": 8.49583333333333,
          "velocity": 1,
          "duration": 0.37083333333333357
        },
        {
          "name": "C#4",
          "midi": 61,
          "time": 8.49583333333333,
          "velocity": 1,
          "duration": 0.37083333333333357
        },
        {
          "name": "G#3",
          "midi": 56,
          "time": 8.49583333333333,
          "velocity": 1,
          "duration": 0.37083333333333357
        },
        {
          "name": "G#3",
          "midi": 56,
          "time": 8.499999999999996,
          "velocity": 1,
          "duration": 0.5
        },
        {
          "name": "C#3",
          "midi": 49,
          "time": 8.499999999999996,
          "velocity": 1,
          "duration": 0.5
        },
        {
          "name": "C#4",
          "midi": 61,
          "time": 8.499999999999996,
          "velocity": 1,
          "duration": 0.5
        },
        {
          "name": "F4",
          "midi": 65,
          "time": 8.499999999999996,
          "velocity": 1,
          "duration": 0.5
        },
        {
          "name": "C3",
          "midi": 48,
          "time": 8.99583333333333,
          "velocity": 1,
          "duration": 0.7458333333333336
        },
        {
          "name": "E4",
          "midi": 64,
          "time": 8.99583333333333,
          "velocity": 1,
          "duration": 0.7458333333333336
        },
        {
          "name": "C4",
          "midi": 60,
          "time": 8.99583333333333,
          "velocity": 1,
          "duration": 0.7458333333333336
        },
        {
          "name": "G3",
          "midi": 55,
          "time": 8.99583333333333,
          "velocity": 1,
          "duration": 0.7458333333333336
        },
        {
          "name": "C4",
          "midi": 60,
          "time": 9.004166666666663,
          "velocity": 1,
          "duration": 1
        },
        {
          "name": "G3",
          "midi": 55,
          "time": 9.004166666666663,
          "velocity": 1,
          "duration": 1
        },
        {
          "name": "E4",
          "midi": 64,
          "time": 9.004166666666663,
          "velocity": 1,
          "duration": 1
        },
        {
          "name": "C3",
          "midi": 48,
          "time": 9.004166666666663,
          "velocity": 1,
          "duration": 1
        },
        {
          "name": "E2",
          "midi": 40,
          "time": 9.99583333333333,
          "velocity": 1,
          "duration": 0.24583333333333357
        },
        {
          "name": "E2",
          "midi": 40,
          "time": 9.99583333333333,
          "velocity": 1,
          "duration": 0.25
        },
        {
          "name": "E2",
          "midi": 40,
          "time": 10.24583333333333,
          "velocity": 1,
          "duration": 0.24583333333333357
        },
        {
          "name": "E2",
          "midi": 40,
          "time": 10.24583333333333,
          "velocity": 1,
          "duration": 0.25
        },
        {
          "name": "B2",
          "midi": 47,
          "time": 10.49583333333333,
          "velocity": 1,
          "duration": 0.24583333333333357
        },
        {
          "name": "B2",
          "midi": 47,
          "time": 10.49583333333333,
          "velocity": 1,
          "duration": 0.25
        },
        {
          "name": "E2",
          "midi": 40,
          "time": 10.74583333333333,
          "velocity": 1,
          "duration": 0.24583333333333357
        },
        {
          "name": "E2",
          "midi": 40,
          "time": 10.749999999999996,
          "velocity": 1,
          "duration": 0.25
        },
        {
          "name": "E2",
          "midi": 40,
          "time": 10.99583333333333,
          "velocity": 1,
          "duration": 0.24583333333333357
        },
        {
          "name": "E2",
          "midi": 40,
          "time": 10.999999999999996,
          "velocity": 1,
          "duration": 0.25
        },
        {
          "name": "A#2",
          "midi": 46,
          "time": 11.24583333333333,
          "velocity": 1,
          "duration": 0.24583333333333357
        },
        {
          "name": "A#2",
          "midi": 46,
          "time": 11.249999999999996,
          "velocity": 1,
          "duration": 0.25
        },
        {
          "name": "E2",
          "midi": 40,
          "time": 11.49583333333333,
          "velocity": 1,
          "duration": 0.24583333333333357
        },
        {
          "name": "E2",
          "midi": 40,
          "time": 11.499999999999996,
          "velocity": 1,
          "duration": 0.25
        },
        {
          "name": "E2",
          "midi": 40,
          "time": 11.74583333333333,
          "velocity": 1,
          "duration": 0.24583333333333357
        },
        {
          "name": "E2",
          "midi": 40,
          "time": 11.754166666666663,
          "velocity": 1,
          "duration": 0.25
        },
        {
          "name": "A2",
          "midi": 45,
          "time": 11.99583333333333,
          "velocity": 1,
          "duration": 0.24583333333333357
        },
        {
          "name": "A2",
          "midi": 45,
          "time": 11.99583333333333,
          "velocity": 1,
          "duration": 0.25
        },
        {
          "name": "E2",
          "midi": 40,
          "time": 12.24583333333333,
          "velocity": 1,
          "duration": 0.24583333333333357
        },
        {
          "name": "E2",
          "midi": 40,
          "time": 12.254166666666663,
          "velocity": 1,
          "duration": 0.25
        },
        {
          "name": "G#2",
          "midi": 44,
          "time": 12.49583333333333,
          "velocity": 1,
          "duration": 0.24583333333333357
        },
        {
          "name": "G#2",
          "midi": 44,
          "time": 12.49583333333333,
          "velocity": 1,
          "duration": 0.25
        },
        {
          "name": "E2",
          "midi": 40,
          "time": 12.74583333333333,
          "velocity": 1,
          "duration": 0.24583333333333357
        },
        {
          "name": "E2",
          "midi": 40,
          "time": 12.74583333333333,
          "velocity": 1,
          "duration": 0.25
        },
        {
          "name": "G2",
          "midi": 43,
          "time": 12.99583333333333,
          "velocity": 1,
          "duration": 0.24583333333333357
        },
        {
          "name": "G2",
          "midi": 43,
          "time": 12.99583333333333,
          "velocity": 1,
          "duration": 0.25
        },
        {
          "name": "E2",
          "midi": 40,
          "time": 13.24583333333333,
          "velocity": 1,
          "duration": 0.24583333333333357
        },
        {
          "name": "E2",
          "midi": 40,
          "time": 13.24583333333333,
          "velocity": 1,
          "duration": 0.25
        },
        {
          "name": "F#2",
          "midi": 42,
          "time": 13.49583333333333,
          "velocity": 1,
          "duration": 0.24583333333333357
        },
        {
          "name": "F#2",
          "midi": 42,
          "time": 13.499999999999996,
          "velocity": 1,
          "duration": 0.25
        },
        {
          "name": "E2",
          "midi": 40,
          "time": 13.74583333333333,
          "velocity": 1,
          "duration": 0.24583333333333357
        },
        {
          "name": "E2",
          "midi": 40,
          "time": 13.749999999999996,
          "velocity": 1,
          "duration": 0.25
        },
        {
          "name": "E2",
          "midi": 40,
          "time": 13.99583333333333,
          "velocity": 1,
          "duration": 0.24583333333333357
        },
        {
          "name": "E2",
          "midi": 40,
          "time": 13.99583333333333,
          "velocity": 1,
          "duration": 0.25
        },
        {
          "name": "E2",
          "midi": 40,
          "time": 14.24583333333333,
          "velocity": 1,
          "duration": 0.24583333333333357
        },
        {
          "name": "E2",
          "midi": 40,
          "time": 14.24583333333333,
          "velocity": 1,
          "duration": 0.25
        },
        {
          "name": "E3",
          "midi": 52,
          "time": 14.49583333333333,
          "velocity": 1,
          "duration": 0.24583333333333357
        },
        {
          "name": "E3",
          "midi": 52,
          "time": 14.49583333333333,
          "velocity": 1,
          "duration": 0.25
        },
        {
          "name": "E2",
          "midi": 40,
          "time": 14.74583333333333,
          "velocity": 1,
          "duration": 0.24583333333333357
        },
        {
          "name": "E2",
          "midi": 40,
          "time": 14.749999999999996,
          "velocity": 1,
          "duration": 0.25
        },
        {
          "name": "E2",
          "midi": 40,
          "time": 14.99583333333333,
          "velocity": 1,
          "duration": 0.24583333333333357
        },
        {
          "name": "E2",
          "midi": 40,
          "time": 14.999999999999996,
          "velocity": 1,
          "duration": 0.25
        },
        {
          "name": "D#3",
          "midi": 51,
          "time": 15.24583333333333,
          "velocity": 1,
          "duration": 0.24583333333333357
        },
        {
          "name": "D#3",
          "midi": 51,
          "time": 15.249999999999996,
          "velocity": 1,
          "duration": 0.25
        },
        {
          "name": "E2",
          "midi": 40,
          "time": 15.49583333333333,
          "velocity": 1,
          "duration": 0.24583333333333357
        },
        {
          "name": "E2",
          "midi": 40,
          "time": 15.504166666666663,
          "velocity": 1,
          "duration": 0.25
        },
        {
          "name": "E2",
          "midi": 40,
          "time": 15.74583333333333,
          "velocity": 1,
          "duration": 0.24583333333333357
        },
        {
          "name": "E2",
          "midi": 40,
          "time": 15.754166666666663,
          "velocity": 1,
          "duration": 0.25
        },
        {
          "name": "D3",
          "midi": 50,
          "time": 15.99583333333333,
          "velocity": 1,
          "duration": 0.37083333333333357
        },
        {
          "name": "D4",
          "midi": 62,
          "time": 15.99583333333333,
          "velocity": 1,
          "duration": 0.37083333333333357
        },
        {
          "name": "F#4",
          "midi": 66,
          "time": 15.99583333333333,
          "velocity": 1,
          "duration": 0.37083333333333357
        },
        {
          "name": "A3",
          "midi": 57,
          "time": 15.99583333333333,
          "velocity": 1,
          "duration": 0.37083333333333357
        },
        {
          "name": "D3",
          "midi": 50,
          "time": 15.99583333333333,
          "velocity": 1,
          "duration": 0.5
        },
        {
          "name": "D4",
          "midi": 62,
          "time": 15.99583333333333,
          "velocity": 1,
          "duration": 0.5
        },
        {
          "name": "F#4",
          "midi": 66,
          "time": 15.99583333333333,
          "velocity": 1,
          "duration": 0.5
        },
        {
          "name": "A3",
          "midi": 57,
          "time": 15.99583333333333,
          "velocity": 1,
          "duration": 0.5
        },
        {
          "name": "F4",
          "midi": 65,
          "time": 16.49583333333333,
          "velocity": 1,
          "duration": 0.37083333333333357
        },
        {
          "name": "C#3",
          "midi": 49,
          "time": 16.49583333333333,
          "velocity": 1,
          "duration": 0.37083333333333357
        },
        {
          "name": "C#4",
          "midi": 61,
          "time": 16.49583333333333,
          "velocity": 1,
          "duration": 0.37083333333333357
        },
        {
          "name": "G#3",
          "midi": 56,
          "time": 16.49583333333333,
          "velocity": 1,
          "duration": 0.37083333333333357
        },
        {
          "name": "F4",
          "midi": 65,
          "time": 16.499999999999996,
          "velocity": 1,
          "duration": 0.5
        },
        {
          "name": "C#4",
          "midi": 61,
          "time": 16.499999999999996,
          "velocity": 1,
          "duration": 0.5
        },
        {
          "name": "G#3",
          "midi": 56,
          "time": 16.499999999999996,
          "velocity": 1,
          "duration": 0.5
        },
        {
          "name": "C#3",
          "midi": 49,
          "time": 16.499999999999996,
          "velocity": 1,
          "duration": 0.5
        },
        {
          "name": "C3",
          "midi": 48,
          "time": 16.99583333333333,
          "velocity": 1,
          "duration": 0.7458333333333336
        },
        {
          "name": "E4",
          "midi": 64,
          "time": 16.99583333333333,
          "velocity": 1,
          "duration": 0.7458333333333336
        },
        {
          "name": "C4",
          "midi": 60,
          "time": 16.99583333333333,
          "velocity": 1,
          "duration": 0.7458333333333336
        },
        {
          "name": "G3",
          "midi": 55,
          "time": 16.99583333333333,
          "velocity": 1,
          "duration": 0.7458333333333336
        },
        {
          "name": "G3",
          "midi": 55,
          "time": 17.004166666666663,
          "velocity": 1,
          "duration": 1
        },
        {
          "name": "C3",
          "midi": 48,
          "time": 17.004166666666663,
          "velocity": 1,
          "duration": 1
        },
        {
          "name": "C4",
          "midi": 60,
          "time": 17.004166666666663,
          "velocity": 1,
          "duration": 1
        },
        {
          "name": "E4",
          "midi": 64,
          "time": 17.004166666666663,
          "velocity": 1,
          "duration": 1
        },
        {
          "name": "E2",
          "midi": 40,
          "time": 17.99583333333333,
          "velocity": 1,
          "duration": 0.24583333333333357
        },
        {
          "name": "E2",
          "midi": 40,
          "time": 17.99583333333333,
          "velocity": 1,
          "duration": 0.25
        },
        {
          "name": "E2",
          "midi": 40,
          "time": 18.24583333333333,
          "velocity": 1,
          "duration": 0.24583333333333357
        },
        {
          "name": "E2",
          "midi": 40,
          "time": 18.24583333333333,
          "velocity": 1,
          "duration": 0.25
        },
        {
          "name": "B2",
          "midi": 47,
          "time": 18.49583333333333,
          "velocity": 1,
          "duration": 0.24583333333333357
        },
        {
          "name": "B2",
          "midi": 47,
          "time": 18.49583333333333,
          "velocity": 1,
          "duration": 0.25
        },
        {
          "name": "E2",
          "midi": 40,
          "time": 18.74583333333333,
          "velocity": 1,
          "duration": 0.24583333333333357
        },
        {
          "name": "E2",
          "midi": 40,
          "time": 18.749999999999996,
          "velocity": 1,
          "duration": 0.25
        },
        {
          "name": "E2",
          "midi": 40,
          "time": 18.99583333333333,
          "velocity": 1,
          "duration": 0.24583333333333357
        },
        {
          "name": "E2",
          "midi": 40,
          "time": 18.999999999999996,
          "velocity": 1,
          "duration": 0.25
        },
        {
          "name": "A#2",
          "midi": 46,
          "time": 19.24583333333333,
          "velocity": 1,
          "duration": 0.24583333333333357
        },
        {
          "name": "A#2",
          "midi": 46,
          "time": 19.249999999999996,
          "velocity": 1,
          "duration": 0.25
        },
        {
          "name": "E2",
          "midi": 40,
          "time": 19.49583333333333,
          "velocity": 1,
          "duration": 0.24583333333333357
        },
        {
          "name": "E2",
          "midi": 40,
          "time": 19.499999999999996,
          "velocity": 1,
          "duration": 0.25
        },
        {
          "name": "E2",
          "midi": 40,
          "time": 19.74583333333333,
          "velocity": 1,
          "duration": 0.24583333333333357
        },
        {
          "name": "E2",
          "midi": 40,
          "time": 19.754166666666663,
          "velocity": 1,
          "duration": 0.25
        },
        {
          "name": "A2",
          "midi": 45,
          "time": 19.99583333333333,
          "velocity": 1,
          "duration": 0.24583333333333357
        },
        {
          "name": "A2",
          "midi": 45,
          "time": 19.99583333333333,
          "velocity": 1,
          "duration": 0.25
        },
        {
          "name": "E2",
          "midi": 40,
          "time": 20.24583333333333,
          "velocity": 1,
          "duration": 0.24583333333333357
        },
        {
          "name": "E2",
          "midi": 40,
          "time": 20.254166666666663,
          "velocity": 1,
          "duration": 0.25
        },
        {
          "name": "G#2",
          "midi": 44,
          "time": 20.49583333333333,
          "velocity": 1,
          "duration": 0.24583333333333357
        },
        {
          "name": "G#2",
          "midi": 44,
          "time": 20.49583333333333,
          "velocity": 1,
          "duration": 0.25
        },
        {
          "name": "E2",
          "midi": 40,
          "time": 20.74583333333333,
          "velocity": 1,
          "duration": 0.24583333333333357
        },
        {
          "name": "E2",
          "midi": 40,
          "time": 20.74583333333333,
          "velocity": 1,
          "duration": 0.25
        },
        {
          "name": "G2",
          "midi": 43,
          "time": 20.99583333333333,
          "velocity": 1,
          "duration": 0.24583333333333357
        },
        {
          "name": "G2",
          "midi": 43,
          "time": 20.99583333333333,
          "velocity": 1,
          "duration": 0.25
        },
        {
          "name": "E2",
          "midi": 40,
          "time": 21.24583333333333,
          "velocity": 1,
          "duration": 0.24583333333333357
        },
        {
          "name": "E2",
          "midi": 40,
          "time": 21.24583333333333,
          "velocity": 1,
          "duration": 0.25
        },
        {
          "name": "F#2",
          "midi": 42,
          "time": 21.49583333333333,
          "velocity": 1,
          "duration": 0.24583333333333357
        },
        {
          "name": "F#2",
          "midi": 42,
          "time": 21.499999999999996,
          "velocity": 1,
          "duration": 0.25
        },
        {
          "name": "E2",
          "midi": 40,
          "time": 21.74583333333333,
          "velocity": 1,
          "duration": 0.24583333333333357
        },
        {
          "name": "E2",
          "midi": 40,
          "time": 21.749999999999996,
          "velocity": 1,
          "duration": 0.25
        },
        {
          "name": "E2",
          "midi": 40,
          "time": 21.99583333333333,
          "velocity": 1,
          "duration": 0.24583333333333357
        },
        {
          "name": "E2",
          "midi": 40,
          "time": 21.999999999999996,
          "velocity": 1,
          "duration": 0.25
        },
        {
          "name": "E2",
          "midi": 40,
          "time": 22.24583333333333,
          "velocity": 1,
          "duration": 0.24583333333333357
        },
        {
          "name": "E2",
          "midi": 40,
          "time": 22.249999999999996,
          "velocity": 1,
          "duration": 0.25
        },
        {
          "name": "E3",
          "midi": 52,
          "time": 22.49583333333333,
          "velocity": 1,
          "duration": 0.24583333333333357
        },
        {
          "name": "E3",
          "midi": 52,
          "time": 22.499999999999996,
          "velocity": 1,
          "duration": 0.25
        },
        {
          "name": "E2",
          "midi": 40,
          "time": 22.74583333333333,
          "velocity": 1,
          "duration": 0.24583333333333357
        },
        {
          "name": "E2",
          "midi": 40,
          "time": 22.754166666666663,
          "velocity": 1,
          "duration": 0.25
        },
        {
          "name": "E2",
          "midi": 40,
          "time": 22.99583333333333,
          "velocity": 1,
          "duration": 0.24583333333333357
        },
        {
          "name": "E2",
          "midi": 40,
          "time": 23.004166666666663,
          "velocity": 1,
          "duration": 0.25
        },
        {
          "name": "D#3",
          "midi": 51,
          "time": 23.24583333333333,
          "velocity": 1,
          "duration": 0.24583333333333357
        },
        {
          "name": "D#3",
          "midi": 51,
          "time": 23.254166666666663,
          "velocity": 1,
          "duration": 0.25
        },
        {
          "name": "E2",
          "midi": 40,
          "time": 23.49583333333333,
          "velocity": 1,
          "duration": 0.24583333333333357
        },
        {
          "name": "E2",
          "midi": 40,
          "time": 23.50833333333333,
          "velocity": 1,
          "duration": 0.25
        },
        {
          "name": "E2",
          "midi": 40,
          "time": 23.74583333333333,
          "velocity": 1,
          "duration": 0.24583333333333357
        },
        {
          "name": "E2",
          "midi": 40,
          "time": 23.75833333333333,
          "velocity": 1,
          "duration": 0.25
        },
        {
          "name": "D3",
          "midi": 50,
          "time": 23.99583333333333,
          "velocity": 1,
          "duration": 0.37083333333333357
        },
        {
          "name": "F#4",
          "midi": 66,
          "time": 23.99583333333333,
          "velocity": 1,
          "duration": 0.37083333333333357
        },
        {
          "name": "D4",
          "midi": 62,
          "time": 23.99583333333333,
          "velocity": 1,
          "duration": 0.37083333333333357
        },
        {
          "name": "A3",
          "midi": 57,
          "time": 23.99583333333333,
          "velocity": 1,
          "duration": 0.37083333333333357
        },
        {
          "name": "D4",
          "midi": 62,
          "time": 23.999999999999996,
          "velocity": 1,
          "duration": 0.5
        },
        {
          "name": "A3",
          "midi": 57,
          "time": 23.999999999999996,
          "velocity": 1,
          "duration": 0.5
        },
        {
          "name": "D3",
          "midi": 50,
          "time": 23.999999999999996,
          "velocity": 1,
          "duration": 0.5
        },
        {
          "name": "F#4",
          "midi": 66,
          "time": 23.999999999999996,
          "velocity": 1,
          "duration": 0.5
        },
        {
          "name": "C#3",
          "midi": 49,
          "time": 24.49583333333333,
          "velocity": 1,
          "duration": 0.37083333333333357
        },
        {
          "name": "F4",
          "midi": 65,
          "time": 24.49583333333333,
          "velocity": 1,
          "duration": 0.37083333333333357
        },
        {
          "name": "C#4",
          "midi": 61,
          "time": 24.49583333333333,
          "velocity": 1,
          "duration": 0.37083333333333357
        },
        {
          "name": "G#3",
          "midi": 56,
          "time": 24.49583333333333,
          "velocity": 1,
          "duration": 0.37083333333333357
        },
        {
          "name": "C#3",
          "midi": 49,
          "time": 24.504166666666663,
          "velocity": 1,
          "duration": 0.5
        },
        {
          "name": "G#3",
          "midi": 56,
          "time": 24.504166666666663,
          "velocity": 1,
          "duration": 0.5
        },
        {
          "name": "F4",
          "midi": 65,
          "time": 24.504166666666663,
          "velocity": 1,
          "duration": 0.5
        },
        {
          "name": "C#4",
          "midi": 61,
          "time": 24.504166666666663,
          "velocity": 1,
          "duration": 0.5
        },
        {
          "name": "E4",
          "midi": 64,
          "time": 24.99583333333333,
          "velocity": 1,
          "duration": 0.7458333333333336
        },
        {
          "name": "C4",
          "midi": 60,
          "time": 24.99583333333333,
          "velocity": 1,
          "duration": 0.7458333333333336
        },
        {
          "name": "G3",
          "midi": 55,
          "time": 24.99583333333333,
          "velocity": 1,
          "duration": 0.7458333333333336
        },
        {
          "name": "C3",
          "midi": 48,
          "time": 24.99583333333333,
          "velocity": 1,
          "duration": 0.7458333333333336
        },
        {
          "name": "C3",
          "midi": 48,
          "time": 25.00833333333333,
          "velocity": 1,
          "duration": 1
        },
        {
          "name": "E4",
          "midi": 64,
          "time": 25.00833333333333,
          "velocity": 1,
          "duration": 1
        },
        {
          "name": "C4",
          "midi": 60,
          "time": 25.00833333333333,
          "velocity": 1,
          "duration": 1
        },
        {
          "name": "G3",
          "midi": 55,
          "time": 25.00833333333333,
          "velocity": 1,
          "duration": 1
        },
        {
          "name": "E2",
          "midi": 40,
          "time": 25.99583333333333,
          "velocity": 1,
          "duration": 0.24583333333333357
        },
        {
          "name": "E2",
          "midi": 40,
          "time": 25.999999999999996,
          "velocity": 1,
          "duration": 0.25
        },
        {
          "name": "E2",
          "midi": 40,
          "time": 26.24583333333333,
          "velocity": 1,
          "duration": 0.24583333333333357
        },
        {
          "name": "E2",
          "midi": 40,
          "time": 26.249999999999996,
          "velocity": 1,
          "duration": 0.25
        },
        {
          "name": "B2",
          "midi": 47,
          "time": 26.49583333333333,
          "velocity": 1,
          "duration": 0.24583333333333357
        },
        {
          "name": "B2",
          "midi": 47,
          "time": 26.499999999999996,
          "velocity": 1,
          "duration": 0.25
        },
        {
          "name": "E2",
          "midi": 40,
          "time": 26.74583333333333,
          "velocity": 1,
          "duration": 0.24583333333333357
        },
        {
          "name": "E2",
          "midi": 40,
          "time": 26.754166666666663,
          "velocity": 1,
          "duration": 0.25
        },
        {
          "name": "E2",
          "midi": 40,
          "time": 26.99583333333333,
          "velocity": 1,
          "duration": 0.24583333333333357
        },
        {
          "name": "E2",
          "midi": 40,
          "time": 27.004166666666663,
          "velocity": 1,
          "duration": 0.25
        },
        {
          "name": "A#2",
          "midi": 46,
          "time": 27.24583333333333,
          "velocity": 1,
          "duration": 0.24583333333333357
        },
        {
          "name": "A#2",
          "midi": 46,
          "time": 27.254166666666663,
          "velocity": 1,
          "duration": 0.25
        },
        {
          "name": "E2",
          "midi": 40,
          "time": 27.49583333333333,
          "velocity": 1,
          "duration": 0.24583333333333357
        },
        {
          "name": "E2",
          "midi": 40,
          "time": 27.504166666666663,
          "velocity": 1,
          "duration": 0.25
        },
        {
          "name": "E2",
          "midi": 40,
          "time": 27.74583333333333,
          "velocity": 1,
          "duration": 0.24583333333333357
        },
        {
          "name": "E2",
          "midi": 40,
          "time": 27.75833333333333,
          "velocity": 1,
          "duration": 0.25
        },
        {
          "name": "A2",
          "midi": 45,
          "time": 27.99583333333333,
          "velocity": 1,
          "duration": 0.24583333333333357
        },
        {
          "name": "A2",
          "midi": 45,
          "time": 27.999999999999996,
          "velocity": 1,
          "duration": 0.25
        },
        {
          "name": "E2",
          "midi": 40,
          "time": 28.24583333333333,
          "velocity": 1,
          "duration": 0.24583333333333357
        },
        {
          "name": "E2",
          "midi": 40,
          "time": 28.25833333333333,
          "velocity": 1,
          "duration": 0.25
        },
        {
          "name": "G#2",
          "midi": 44,
          "time": 28.49583333333333,
          "velocity": 1,
          "duration": 0.24583333333333357
        },
        {
          "name": "G#2",
          "midi": 44,
          "time": 28.499999999999996,
          "velocity": 1,
          "duration": 0.25
        },
        {
          "name": "E2",
          "midi": 40,
          "time": 28.74583333333333,
          "velocity": 1,
          "duration": 0.24583333333333357
        },
        {
          "name": "E2",
          "midi": 40,
          "time": 28.749999999999996,
          "velocity": 1,
          "duration": 0.25
        },
        {
          "name": "G2",
          "midi": 43,
          "time": 28.99583333333333,
          "velocity": 1,
          "duration": 0.24583333333333357
        },
        {
          "name": "G2",
          "midi": 43,
          "time": 28.999999999999996,
          "velocity": 1,
          "duration": 0.25
        },
        {
          "name": "E2",
          "midi": 40,
          "time": 29.24583333333333,
          "velocity": 1,
          "duration": 0.24583333333333357
        },
        {
          "name": "E2",
          "midi": 40,
          "time": 29.249999999999996,
          "velocity": 1,
          "duration": 0.25
        },
        {
          "name": "F#2",
          "midi": 42,
          "time": 29.49583333333333,
          "velocity": 1,
          "duration": 0.24583333333333357
        },
        {
          "name": "F#2",
          "midi": 42,
          "time": 29.504166666666663,
          "velocity": 1,
          "duration": 0.25
        },
        {
          "name": "E2",
          "midi": 40,
          "time": 29.74583333333333,
          "velocity": 1,
          "duration": 0.24583333333333357
        },
        {
          "name": "E2",
          "midi": 40,
          "time": 29.754166666666663,
          "velocity": 1,
          "duration": 0.25
        },
        {
          "name": "E2",
          "midi": 40,
          "time": 29.99583333333333,
          "velocity": 1,
          "duration": 0.24583333333333357
        },
        {
          "name": "E2",
          "midi": 40,
          "time": 30.004166666666663,
          "velocity": 1,
          "duration": 0.25
        },
        {
          "name": "E2",
          "midi": 40,
          "time": 30.24583333333333,
          "velocity": 1,
          "duration": 0.24583333333333357
        },
        {
          "name": "E2",
          "midi": 40,
          "time": 30.254166666666663,
          "velocity": 1,
          "duration": 0.25
        },
        {
          "name": "E3",
          "midi": 52,
          "time": 30.49583333333333,
          "velocity": 1,
          "duration": 0.24583333333333357
        },
        {
          "name": "E3",
          "midi": 52,
          "time": 30.504166666666663,
          "velocity": 1,
          "duration": 0.25
        },
        {
          "name": "E2",
          "midi": 40,
          "time": 30.74583333333333,
          "velocity": 1,
          "duration": 0.24583333333333357
        },
        {
          "name": "E2",
          "midi": 40,
          "time": 30.75833333333333,
          "velocity": 1,
          "duration": 0.25
        },
        {
          "name": "E2",
          "midi": 40,
          "time": 30.99583333333333,
          "velocity": 1,
          "duration": 0.24583333333333357
        },
        {
          "name": "E2",
          "midi": 40,
          "time": 31.00833333333333,
          "velocity": 1,
          "duration": 0.25
        },
        {
          "name": "D#3",
          "midi": 51,
          "time": 31.24583333333333,
          "velocity": 1,
          "duration": 0.24583333333333357
        },
        {
          "name": "D#3",
          "midi": 51,
          "time": 31.25833333333333,
          "velocity": 1,
          "duration": 0.25
        },
        {
          "name": "E2",
          "midi": 40,
          "time": 31.49583333333333,
          "velocity": 1,
          "duration": 0.24583333333333357
        },
        {
          "name": "E2",
          "midi": 40,
          "time": 31.512499999999996,
          "velocity": 1,
          "duration": 0.25
        },
        {
          "name": "E2",
          "midi": 40,
          "time": 31.74583333333333,
          "velocity": 1,
          "duration": 0.24583333333333357
        },
        {
          "name": "E2",
          "midi": 40,
          "time": 31.762499999999996,
          "velocity": 1,
          "duration": 0.25
        },
        {
          "name": "D3",
          "midi": 50,
          "time": 31.99583333333333,
          "velocity": 1,
          "duration": 0.37083333333333
        },
        {
          "name": "F#4",
          "midi": 66,
          "time": 31.99583333333333,
          "velocity": 1,
          "duration": 0.37083333333333
        },
        {
          "name": "D4",
          "midi": 62,
          "time": 31.99583333333333,
          "velocity": 1,
          "duration": 0.37083333333333
        },
        {
          "name": "A3",
          "midi": 57,
          "time": 31.99583333333333,
          "velocity": 1,
          "duration": 0.37083333333333
        },
        {
          "name": "F#4",
          "midi": 66,
          "time": 32.00416666666666,
          "velocity": 1,
          "duration": 0.5
        },
        {
          "name": "D4",
          "midi": 62,
          "time": 32.00416666666666,
          "velocity": 1,
          "duration": 0.5
        },
        {
          "name": "D3",
          "midi": 50,
          "time": 32.00416666666666,
          "velocity": 1,
          "duration": 0.5
        },
        {
          "name": "A3",
          "midi": 57,
          "time": 32.00416666666666,
          "velocity": 1,
          "duration": 0.5
        },
        {
          "name": "C#3",
          "midi": 49,
          "time": 32.49583333333333,
          "velocity": 1,
          "duration": 0.3708333333333371
        },
        {
          "name": "F4",
          "midi": 65,
          "time": 32.49583333333333,
          "velocity": 1,
          "duration": 0.3708333333333371
        },
        {
          "name": "C#4",
          "midi": 61,
          "time": 32.49583333333333,
          "velocity": 1,
          "duration": 0.3708333333333371
        },
        {
          "name": "G#3",
          "midi": 56,
          "time": 32.49583333333333,
          "velocity": 1,
          "duration": 0.3708333333333371
        },
        {
          "name": "C#4",
          "midi": 61,
          "time": 32.50833333333333,
          "velocity": 1,
          "duration": 0.5000000000000071
        },
        {
          "name": "G#3",
          "midi": 56,
          "time": 32.50833333333333,
          "velocity": 1,
          "duration": 0.5000000000000071
        },
        {
          "name": "C#3",
          "midi": 49,
          "time": 32.50833333333333,
          "velocity": 1,
          "duration": 0.5000000000000071
        },
        {
          "name": "F4",
          "midi": 65,
          "time": 32.50833333333333,
          "velocity": 1,
          "duration": 0.5000000000000071
        },
        {
          "name": "E4",
          "midi": 64,
          "time": 32.99583333333334,
          "velocity": 1,
          "duration": 0.7458333333333371
        },
        {
          "name": "C4",
          "midi": 60,
          "time": 32.99583333333334,
          "velocity": 1,
          "duration": 0.7458333333333371
        },
        {
          "name": "G3",
          "midi": 55,
          "time": 32.99583333333334,
          "velocity": 1,
          "duration": 0.7458333333333371
        },
        {
          "name": "C3",
          "midi": 48,
          "time": 32.99583333333334,
          "velocity": 1,
          "duration": 0.7458333333333371
        },
        {
          "name": "C3",
          "midi": 48,
          "time": 33.01250000000001,
          "velocity": 1,
          "duration": 1
        },
        {
          "name": "G3",
          "midi": 55,
          "time": 33.01250000000001,
          "velocity": 1,
          "duration": 1
        },
        {
          "name": "E4",
          "midi": 64,
          "time": 33.01250000000001,
          "velocity": 1,
          "duration": 1
        },
        {
          "name": "C4",
          "midi": 60,
          "time": 33.01250000000001,
          "velocity": 1,
          "duration": 1
        },
        {
          "name": "E2",
          "midi": 40,
          "time": 33.995833333333344,
          "velocity": 1,
          "duration": 0.24583333333333002
        },
        {
          "name": "E2",
          "midi": 40,
          "time": 34.00416666666668,
          "velocity": 1,
          "duration": 0.25
        },
        {
          "name": "E2",
          "midi": 40,
          "time": 34.245833333333344,
          "velocity": 1,
          "duration": 0.24583333333333002
        },
        {
          "name": "E2",
          "midi": 40,
          "time": 34.25416666666668,
          "velocity": 1,
          "duration": 0.25
        },
        {
          "name": "B2",
          "midi": 47,
          "time": 34.495833333333344,
          "velocity": 1,
          "duration": 0.24583333333333002
        },
        {
          "name": "B2",
          "midi": 47,
          "time": 34.50416666666668,
          "velocity": 1,
          "duration": 0.25
        },
        {
          "name": "E2",
          "midi": 40,
          "time": 34.745833333333344,
          "velocity": 1,
          "duration": 0.24583333333333712
        },
        {
          "name": "E2",
          "midi": 40,
          "time": 34.75833333333335,
          "velocity": 1,
          "duration": 0.2500000000000071
        },
        {
          "name": "E2",
          "midi": 40,
          "time": 34.99583333333335,
          "velocity": 1,
          "duration": 0.24583333333333712
        },
        {
          "name": "E2",
          "midi": 40,
          "time": 35.008333333333354,
          "velocity": 1,
          "duration": 0.2500000000000071
        },
        {
          "name": "A#2",
          "midi": 46,
          "time": 35.24583333333336,
          "velocity": 1,
          "duration": 0.24583333333333712
        },
        {
          "name": "A#2",
          "midi": 46,
          "time": 35.25833333333336,
          "velocity": 1,
          "duration": 0.2500000000000071
        },
        {
          "name": "E2",
          "midi": 40,
          "time": 35.495833333333366,
          "velocity": 1,
          "duration": 0.24583333333333712
        },
        {
          "name": "E2",
          "midi": 40,
          "time": 35.50833333333337,
          "velocity": 1,
          "duration": 0.2500000000000071
        },
        {
          "name": "E2",
          "midi": 40,
          "time": 35.74583333333337,
          "velocity": 1,
          "duration": 0.24583333333333712
        },
        {
          "name": "E2",
          "midi": 40,
          "time": 35.762500000000045,
          "velocity": 1,
          "duration": 0.25
        },
        {
          "name": "A2",
          "midi": 45,
          "time": 35.99583333333338,
          "velocity": 1,
          "duration": 0.24583333333333002
        },
        {
          "name": "A2",
          "midi": 45,
          "time": 36.00416666666671,
          "velocity": 1,
          "duration": 0.25
        },
        {
          "name": "E2",
          "midi": 40,
          "time": 36.24583333333338,
          "velocity": 1,
          "duration": 0.24583333333333002
        },
        {
          "name": "E2",
          "midi": 40,
          "time": 36.262500000000045,
          "velocity": 1,
          "duration": 0.25
        },
        {
          "name": "G#2",
          "midi": 44,
          "time": 36.49583333333338,
          "velocity": 1,
          "duration": 0.24583333333333002
        },
        {
          "name": "G#2",
          "midi": 44,
          "time": 36.50416666666671,
          "velocity": 1,
          "duration": 0.25
        },
        {
          "name": "E2",
          "midi": 40,
          "time": 36.74583333333338,
          "velocity": 1,
          "duration": 0.24583333333333002
        },
        {
          "name": "E2",
          "midi": 40,
          "time": 36.75416666666671,
          "velocity": 1,
          "duration": 0.25
        },
        {
          "name": "G2",
          "midi": 43,
          "time": 36.99583333333338,
          "velocity": 1,
          "duration": 0.24583333333333002
        },
        {
          "name": "G2",
          "midi": 43,
          "time": 37.00416666666671,
          "velocity": 1,
          "duration": 0.25
        },
        {
          "name": "E2",
          "midi": 40,
          "time": 37.24583333333338,
          "velocity": 1,
          "duration": 0.24583333333333002
        },
        {
          "name": "E2",
          "midi": 40,
          "time": 37.25416666666671,
          "velocity": 1,
          "duration": 0.25
        },
        {
          "name": "F#2",
          "midi": 42,
          "time": 37.49583333333338,
          "velocity": 1,
          "duration": 0.24583333333333712
        },
        {
          "name": "F#2",
          "midi": 42,
          "time": 37.50833333333338,
          "velocity": 1,
          "duration": 0.2500000000000071
        },
        {
          "name": "E2",
          "midi": 40,
          "time": 37.74583333333339,
          "velocity": 1,
          "duration": 0.24583333333333712
        },
        {
          "name": "E2",
          "midi": 40,
          "time": 37.75833333333339,
          "velocity": 1,
          "duration": 0.2500000000000071
        },
        {
          "name": "E2",
          "midi": 40,
          "time": 37.995833333333394,
          "velocity": 1,
          "duration": 0.24583333333333712
        },
        {
          "name": "E2",
          "midi": 40,
          "time": 37.995833333333394,
          "velocity": 1,
          "duration": 0.2500000000000071
        },
        {
          "name": "F2",
          "midi": 41,
          "time": 38.2458333333334,
          "velocity": 1,
          "duration": 0.24583333333333002
        },
        {
          "name": "F2",
          "midi": 41,
          "time": 38.2458333333334,
          "velocity": 1,
          "duration": 0.25
        },
        {
          "name": "B2",
          "midi": 47,
          "time": 38.4958333333334,
          "velocity": 1,
          "duration": 0.24583333333333712
        },
        {
          "name": "B2",
          "midi": 47,
          "time": 38.50000000000007,
          "velocity": 1,
          "duration": 0.2500000000000071
        },
        {
          "name": "E2",
          "midi": 40,
          "time": 38.74583333333341,
          "velocity": 1,
          "duration": 0.24583333333333712
        },
        {
          "name": "E2",
          "midi": 40,
          "time": 38.75000000000008,
          "velocity": 1,
          "duration": 0.2500000000000071
        },
        {
          "name": "F2",
          "midi": 41,
          "time": 38.995833333333415,
          "velocity": 1,
          "duration": 0.24583333333333712
        },
        {
          "name": "F2",
          "midi": 41,
          "time": 39.000000000000085,
          "velocity": 1,
          "duration": 0.2500000000000071
        },
        {
          "name": "C3",
          "midi": 48,
          "time": 39.24583333333342,
          "velocity": 1,
          "duration": 0.24583333333333712
        },
        {
          "name": "C3",
          "midi": 48,
          "time": 39.25000000000009,
          "velocity": 1,
          "duration": 0.2500000000000071
        },
        {
          "name": "E2",
          "midi": 40,
          "time": 39.49583333333343,
          "velocity": 1,
          "duration": 0.24583333333333712
        },
        {
          "name": "E2",
          "midi": 40,
          "time": 39.50416666666677,
          "velocity": 1,
          "duration": 0.25
        },
        {
          "name": "F2",
          "midi": 41,
          "time": 39.74583333333344,
          "velocity": 1,
          "duration": 0.24583333333333002
        },
        {
          "name": "F2",
          "midi": 41,
          "time": 39.75416666666677,
          "velocity": 1,
          "duration": 0.25
        },
        {
          "name": "C#3",
          "midi": 49,
          "time": 39.99583333333344,
          "velocity": 1,
          "duration": 0.24583333333333002
        },
        {
          "name": "C#3",
          "midi": 49,
          "time": 39.99583333333344,
          "velocity": 1,
          "duration": 0.25
        },
        {
          "name": "E2",
          "midi": 40,
          "time": 40.24583333333344,
          "velocity": 1,
          "duration": 0.24583333333333002
        },
        {
          "name": "E2",
          "midi": 40,
          "time": 40.24583333333344,
          "velocity": 1,
          "duration": 0.25
        },
        {
          "name": "F2",
          "midi": 41,
          "time": 40.49583333333344,
          "velocity": 1,
          "duration": 0.24583333333333002
        },
        {
          "name": "F2",
          "midi": 41,
          "time": 40.49583333333344,
          "velocity": 1,
          "duration": 0.25
        },
        {
          "name": "C3",
          "midi": 48,
          "time": 40.74583333333344,
          "velocity": 1,
          "duration": 0.24583333333333002
        },
        {
          "name": "C3",
          "midi": 48,
          "time": 40.74583333333344,
          "velocity": 1,
          "duration": 0.25
        },
        {
          "name": "E2",
          "midi": 40,
          "time": 40.99583333333344,
          "velocity": 1,
          "duration": 0.24583333333333002
        },
        {
          "name": "E2",
          "midi": 40,
          "time": 40.99583333333344,
          "velocity": 1,
          "duration": 0.25
        },
        {
          "name": "F2",
          "midi": 41,
          "time": 41.24583333333344,
          "velocity": 1,
          "duration": 0.24583333333333002
        },
        {
          "name": "F2",
          "midi": 41,
          "time": 41.24583333333344,
          "velocity": 1,
          "duration": 0.25
        },
        {
          "name": "B2",
          "midi": 47,
          "time": 41.49583333333344,
          "velocity": 1,
          "duration": 0.24583333333333002
        },
        {
          "name": "B2",
          "midi": 47,
          "time": 41.49583333333344,
          "velocity": 1,
          "duration": 0.25
        },
        {
          "name": "B2",
          "midi": 47,
          "time": 41.74583333333344,
          "velocity": 1,
          "duration": 0.24583333333333002
        },
        {
          "name": "B2",
          "midi": 47,
          "time": 41.74583333333344,
          "velocity": 1,
          "duration": 0.25
        },
        {
          "name": "E2",
          "midi": 40,
          "time": 41.99583333333344,
          "velocity": 1,
          "duration": 0.24583333333333002
        },
        {
          "name": "E2",
          "midi": 40,
          "time": 41.99583333333344,
          "velocity": 1,
          "duration": 0.25
        },
        {
          "name": "F2",
          "midi": 41,
          "time": 42.24583333333344,
          "velocity": 1,
          "duration": 0.24583333333333002
        },
        {
          "name": "F2",
          "midi": 41,
          "time": 42.24583333333344,
          "velocity": 1,
          "duration": 0.25
        },
        {
          "name": "B2",
          "midi": 47,
          "time": 42.49583333333344,
          "velocity": 1,
          "duration": 0.24583333333333002
        },
        {
          "name": "B2",
          "midi": 47,
          "time": 42.49583333333344,
          "velocity": 1,
          "duration": 0.25
        },
        {
          "name": "E2",
          "midi": 40,
          "time": 42.74583333333344,
          "velocity": 1,
          "duration": 0.24583333333333712
        },
        {
          "name": "E2",
          "midi": 40,
          "time": 42.75000000000011,
          "velocity": 1,
          "duration": 0.2500000000000071
        },
        {
          "name": "F2",
          "midi": 41,
          "time": 42.995833333333444,
          "velocity": 1,
          "duration": 0.24583333333333712
        },
        {
          "name": "F2",
          "midi": 41,
          "time": 43.000000000000114,
          "velocity": 1,
          "duration": 0.2500000000000071
        },
        {
          "name": "C3",
          "midi": 48,
          "time": 43.24583333333345,
          "velocity": 1,
          "duration": 0.24583333333333712
        },
        {
          "name": "C3",
          "midi": 48,
          "time": 43.25000000000012,
          "velocity": 1,
          "duration": 0.2500000000000071
        },
        {
          "name": "F2",
          "midi": 41,
          "time": 43.49583333333346,
          "velocity": 1,
          "duration": 0.24583333333333712
        },
        {
          "name": "F2",
          "midi": 41,
          "time": 43.50000000000013,
          "velocity": 1,
          "duration": 0.2500000000000071
        },
        {
          "name": "E2",
          "midi": 40,
          "time": 43.745833333333465,
          "velocity": 1,
          "duration": 0.24583333333333712
        },
        {
          "name": "E2",
          "midi": 40,
          "time": 43.745833333333465,
          "velocity": 1,
          "duration": 0.2500000000000071
        },
        {
          "name": "D3",
          "midi": 50,
          "time": 43.99583333333347,
          "velocity": 1,
          "duration": 0.24583333333333002
        },
        {
          "name": "G2",
          "midi": 43,
          "time": 43.99583333333347,
          "velocity": 1,
          "duration": 0.24583333333333002
        },
        {
          "name": "D3",
          "midi": 50,
          "time": 43.99583333333347,
          "velocity": 1,
          "duration": 0.25
        },
        {
          "name": "G2",
          "midi": 43,
          "time": 43.99583333333347,
          "velocity": 1,
          "duration": 0.25
        },
        {
          "name": "C#3",
          "midi": 49,
          "time": 44.24583333333347,
          "velocity": 1,
          "duration": 0.24583333333333002
        },
        {
          "name": "F#2",
          "midi": 42,
          "time": 44.24583333333347,
          "velocity": 1,
          "duration": 0.24583333333333002
        },
        {
          "name": "C#3",
          "midi": 49,
          "time": 44.24583333333347,
          "velocity": 1,
          "duration": 0.25
        },
        {
          "name": "F#2",
          "midi": 42,
          "time": 44.24583333333347,
          "velocity": 1,
          "duration": 0.25
        },
        {
          "name": "E2",
          "midi": 40,
          "time": 44.49583333333347,
          "velocity": 1,
          "duration": 0.24583333333333002
        },
        {
          "name": "E2",
          "midi": 40,
          "time": 44.49583333333347,
          "velocity": 1,
          "duration": 0.25
        },
        {
          "name": "D3",
          "midi": 50,
          "time": 44.74583333333347,
          "velocity": 1,
          "duration": 0.24583333333333002
        },
        {
          "name": "G2",
          "midi": 43,
          "time": 44.74583333333347,
          "velocity": 1,
          "duration": 0.24583333333333002
        },
        {
          "name": "G2",
          "midi": 43,
          "time": 44.74583333333347,
          "velocity": 1,
          "duration": 0.25
        },
        {
          "name": "D3",
          "midi": 50,
          "time": 44.74583333333347,
          "velocity": 1,
          "duration": 0.25
        },
        {
          "name": "C#3",
          "midi": 49,
          "time": 44.99583333333347,
          "velocity": 1,
          "duration": 0.24583333333333002
        },
        {
          "name": "F#2",
          "midi": 42,
          "time": 44.99583333333347,
          "velocity": 1,
          "duration": 0.24583333333333002
        },
        {
          "name": "F#2",
          "midi": 42,
          "time": 44.99583333333347,
          "velocity": 1,
          "duration": 0.25
        },
        {
          "name": "C#3",
          "midi": 49,
          "time": 44.99583333333347,
          "velocity": 1,
          "duration": 0.25
        },
        {
          "name": "E2",
          "midi": 40,
          "time": 45.24583333333347,
          "velocity": 1,
          "duration": 0.24583333333333002
        },
        {
          "name": "E2",
          "midi": 40,
          "time": 45.24583333333347,
          "velocity": 1,
          "duration": 0.25
        },
        {
          "name": "G2",
          "midi": 43,
          "time": 45.49583333333347,
          "velocity": 1,
          "duration": 0.24583333333333002
        },
        {
          "name": "D3",
          "midi": 50,
          "time": 45.49583333333347,
          "velocity": 1,
          "duration": 0.24583333333333002
        },
        {
          "name": "G2",
          "midi": 43,
          "time": 45.49583333333347,
          "velocity": 1,
          "duration": 0.25
        },
        {
          "name": "D3",
          "midi": 50,
          "time": 45.49583333333347,
          "velocity": 1,
          "duration": 0.25
        },
        {
          "name": "F#2",
          "midi": 42,
          "time": 45.74583333333347,
          "velocity": 1,
          "duration": 0.24583333333333002
        },
        {
          "name": "C#3",
          "midi": 49,
          "time": 45.74583333333347,
          "velocity": 1,
          "duration": 0.24583333333333002
        },
        {
          "name": "C#3",
          "midi": 49,
          "time": 45.74583333333347,
          "velocity": 1,
          "duration": 0.25
        },
        {
          "name": "F#2",
          "midi": 42,
          "time": 45.74583333333347,
          "velocity": 1,
          "duration": 0.25
        },
        {
          "name": "E2",
          "midi": 40,
          "time": 45.99583333333347,
          "velocity": 1,
          "duration": 0.24583333333333002
        },
        {
          "name": "E2",
          "midi": 40,
          "time": 45.99583333333347,
          "velocity": 1,
          "duration": 0.25
        },
        {
          "name": "F2",
          "midi": 41,
          "time": 46.24583333333347,
          "velocity": 1,
          "duration": 0.24583333333333002
        },
        {
          "name": "F2",
          "midi": 41,
          "time": 46.24583333333347,
          "velocity": 1,
          "duration": 0.25
        },
        {
          "name": "B2",
          "midi": 47,
          "time": 46.49583333333347,
          "velocity": 1,
          "duration": 0.24583333333333712
        },
        {
          "name": "B2",
          "midi": 47,
          "time": 46.50000000000014,
          "velocity": 1,
          "duration": 0.2500000000000071
        },
        {
          "name": "E2",
          "midi": 40,
          "time": 46.74583333333348,
          "velocity": 1,
          "duration": 0.24583333333333712
        },
        {
          "name": "E2",
          "midi": 40,
          "time": 46.75000000000015,
          "velocity": 1,
          "duration": 0.2500000000000071
        },
        {
          "name": "F2",
          "midi": 41,
          "time": 46.995833333333486,
          "velocity": 1,
          "duration": 0.24583333333333712
        },
        {
          "name": "F2",
          "midi": 41,
          "time": 47.000000000000156,
          "velocity": 1,
          "duration": 0.2500000000000071
        },
        {
          "name": "C3",
          "midi": 48,
          "time": 47.24583333333349,
          "velocity": 1,
          "duration": 0.24583333333333712
        },
        {
          "name": "C3",
          "midi": 48,
          "time": 47.25000000000016,
          "velocity": 1,
          "duration": 0.2500000000000071
        },
        {
          "name": "E2",
          "midi": 40,
          "time": 47.4958333333335,
          "velocity": 1,
          "duration": 0.24583333333333712
        },
        {
          "name": "E2",
          "midi": 40,
          "time": 47.50416666666684,
          "velocity": 1,
          "duration": 0.25
        },
        {
          "name": "F2",
          "midi": 41,
          "time": 47.74583333333351,
          "velocity": 1,
          "duration": 0.24583333333333002
        },
        {
          "name": "F2",
          "midi": 41,
          "time": 47.75416666666684,
          "velocity": 1,
          "duration": 0.25
        },
        {
          "name": "C#3",
          "midi": 49,
          "time": 47.99583333333351,
          "velocity": 1,
          "duration": 0.24583333333333002
        },
        {
          "name": "C#3",
          "midi": 49,
          "time": 47.99583333333351,
          "velocity": 1,
          "duration": 0.25
        },
        {
          "name": "E2",
          "midi": 40,
          "time": 48.24583333333351,
          "velocity": 1,
          "duration": 0.24583333333333002
        },
        {
          "name": "E2",
          "midi": 40,
          "time": 48.24583333333351,
          "velocity": 1,
          "duration": 0.25
        },
        {
          "name": "F2",
          "midi": 41,
          "time": 48.49583333333351,
          "velocity": 1,
          "duration": 0.24583333333333002
        },
        {
          "name": "F2",
          "midi": 41,
          "time": 48.49583333333351,
          "velocity": 1,
          "duration": 0.25
        },
        {
          "name": "C3",
          "midi": 48,
          "time": 48.74583333333351,
          "velocity": 1,
          "duration": 0.24583333333333002
        },
        {
          "name": "C3",
          "midi": 48,
          "time": 48.74583333333351,
          "velocity": 1,
          "duration": 0.25
        },
        {
          "name": "E2",
          "midi": 40,
          "time": 48.99583333333351,
          "velocity": 1,
          "duration": 0.24583333333333002
        },
        {
          "name": "E2",
          "midi": 40,
          "time": 48.99583333333351,
          "velocity": 1,
          "duration": 0.25
        },
        {
          "name": "F2",
          "midi": 41,
          "time": 49.24583333333351,
          "velocity": 1,
          "duration": 0.24583333333333002
        },
        {
          "name": "F2",
          "midi": 41,
          "time": 49.24583333333351,
          "velocity": 1,
          "duration": 0.25
        },
        {
          "name": "B2",
          "midi": 47,
          "time": 49.49583333333351,
          "velocity": 1,
          "duration": 0.24583333333333002
        },
        {
          "name": "B2",
          "midi": 47,
          "time": 49.49583333333351,
          "velocity": 1,
          "duration": 0.25
        },
        {
          "name": "B2",
          "midi": 47,
          "time": 49.74583333333351,
          "velocity": 1,
          "duration": 0.24583333333333002
        },
        {
          "name": "B2",
          "midi": 47,
          "time": 49.74583333333351,
          "velocity": 1,
          "duration": 0.25
        },
        {
          "name": "E2",
          "midi": 40,
          "time": 49.99583333333351,
          "velocity": 1,
          "duration": 0.24583333333333002
        },
        {
          "name": "E2",
          "midi": 40,
          "time": 49.99583333333351,
          "velocity": 1,
          "duration": 0.25
        },
        {
          "name": "F2",
          "midi": 41,
          "time": 50.24583333333351,
          "velocity": 1,
          "duration": 0.24583333333333002
        },
        {
          "name": "F2",
          "midi": 41,
          "time": 50.24583333333351,
          "velocity": 1,
          "duration": 0.25
        },
        {
          "name": "B2",
          "midi": 47,
          "time": 50.49583333333351,
          "velocity": 1,
          "duration": 0.24583333333333002
        },
        {
          "name": "B2",
          "midi": 47,
          "time": 50.49583333333351,
          "velocity": 1,
          "duration": 0.25
        },
        {
          "name": "E2",
          "midi": 40,
          "time": 50.74583333333351,
          "velocity": 1,
          "duration": 0.24583333333333712
        },
        {
          "name": "E2",
          "midi": 40,
          "time": 50.75000000000018,
          "velocity": 1,
          "duration": 0.2500000000000071
        },
        {
          "name": "F2",
          "midi": 41,
          "time": 50.995833333333515,
          "velocity": 1,
          "duration": 0.24583333333333712
        },
        {
          "name": "F2",
          "midi": 41,
          "time": 51.000000000000185,
          "velocity": 1,
          "duration": 0.2500000000000071
        },
        {
          "name": "C3",
          "midi": 48,
          "time": 51.24583333333352,
          "velocity": 1,
          "duration": 0.24583333333333712
        },
        {
          "name": "C3",
          "midi": 48,
          "time": 51.25000000000019,
          "velocity": 1,
          "duration": 0.2500000000000071
        },
        {
          "name": "F2",
          "midi": 41,
          "time": 51.49583333333353,
          "velocity": 1,
          "duration": 0.24583333333333712
        },
        {
          "name": "F2",
          "midi": 41,
          "time": 51.5000000000002,
          "velocity": 1,
          "duration": 0.2500000000000071
        },
        {
          "name": "E2",
          "midi": 40,
          "time": 51.745833333333536,
          "velocity": 1,
          "duration": 0.24583333333333712
        },
        {
          "name": "E2",
          "midi": 40,
          "time": 51.745833333333536,
          "velocity": 1,
          "duration": 0.2500000000000071
        },
        {
          "name": "G2",
          "midi": 43,
          "time": 51.99583333333354,
          "velocity": 1,
          "duration": 0.24583333333333002
        },
        {
          "name": "D3",
          "midi": 50,
          "time": 51.99583333333354,
          "velocity": 1,
          "duration": 0.24583333333333002
        },
        {
          "name": "G2",
          "midi": 43,
          "time": 51.99583333333354,
          "velocity": 1,
          "duration": 0.25
        },
        {
          "name": "D3",
          "midi": 50,
          "time": 51.99583333333354,
          "velocity": 1,
          "duration": 0.25
        },
        {
          "name": "F#2",
          "midi": 42,
          "time": 52.24583333333354,
          "velocity": 1,
          "duration": 0.24583333333333002
        },
        {
          "name": "C#3",
          "midi": 49,
          "time": 52.24583333333354,
          "velocity": 1,
          "duration": 0.24583333333333002
        },
        {
          "name": "C#3",
          "midi": 49,
          "time": 52.24583333333354,
          "velocity": 1,
          "duration": 0.25
        },
        {
          "name": "F#2",
          "midi": 42,
          "time": 52.24583333333354,
          "velocity": 1,
          "duration": 0.25
        },
        {
          "name": "E2",
          "midi": 40,
          "time": 52.49583333333354,
          "velocity": 1,
          "duration": 0.24583333333333002
        },
        {
          "name": "E2",
          "midi": 40,
          "time": 52.49583333333354,
          "velocity": 1,
          "duration": 0.25
        },
        {
          "name": "G2",
          "midi": 43,
          "time": 52.74583333333354,
          "velocity": 1,
          "duration": 0.24583333333333002
        },
        {
          "name": "D3",
          "midi": 50,
          "time": 52.74583333333354,
          "velocity": 1,
          "duration": 0.24583333333333002
        },
        {
          "name": "G2",
          "midi": 43,
          "time": 52.74583333333354,
          "velocity": 1,
          "duration": 0.25
        },
        {
          "name": "D3",
          "midi": 50,
          "time": 52.74583333333354,
          "velocity": 1,
          "duration": 0.25
        },
        {
          "name": "F#2",
          "midi": 42,
          "time": 52.99583333333354,
          "velocity": 1,
          "duration": 0.24583333333333002
        },
        {
          "name": "C#3",
          "midi": 49,
          "time": 52.99583333333354,
          "velocity": 1,
          "duration": 0.24583333333333002
        },
        {
          "name": "F#2",
          "midi": 42,
          "time": 52.99583333333354,
          "velocity": 1,
          "duration": 0.25
        },
        {
          "name": "C#3",
          "midi": 49,
          "time": 52.99583333333354,
          "velocity": 1,
          "duration": 0.25
        },
        {
          "name": "E2",
          "midi": 40,
          "time": 53.24583333333354,
          "velocity": 1,
          "duration": 0.24583333333333002
        },
        {
          "name": "E2",
          "midi": 40,
          "time": 53.24583333333354,
          "velocity": 1,
          "duration": 0.25
        },
        {
          "name": "D3",
          "midi": 50,
          "time": 53.49583333333354,
          "velocity": 1,
          "duration": 0.24583333333333002
        },
        {
          "name": "G2",
          "midi": 43,
          "time": 53.49583333333354,
          "velocity": 1,
          "duration": 0.24583333333333002
        },
        {
          "name": "G2",
          "midi": 43,
          "time": 53.49583333333354,
          "velocity": 1,
          "duration": 0.25
        },
        {
          "name": "D3",
          "midi": 50,
          "time": 53.49583333333354,
          "velocity": 1,
          "duration": 0.25
        },
        {
          "name": "F#2",
          "midi": 42,
          "time": 53.74583333333354,
          "velocity": 1,
          "duration": 0.24583333333333002
        },
        {
          "name": "C#3",
          "midi": 49,
          "time": 53.74583333333354,
          "velocity": 1,
          "duration": 0.24583333333333002
        },
        {
          "name": "C#3",
          "midi": 49,
          "time": 53.74583333333354,
          "velocity": 1,
          "duration": 0.25
        },
        {
          "name": "F#2",
          "midi": 42,
          "time": 53.74583333333354,
          "velocity": 1,
          "duration": 0.25
        },
        {
          "name": "E2",
          "midi": 40,
          "time": 53.99583333333354,
          "velocity": 1,
          "duration": 0.24583333333333002
        },
        {
          "name": "E2",
          "midi": 40,
          "time": 53.99583333333354,
          "velocity": 1,
          "duration": 0.25
        },
        {
          "name": "F2",
          "midi": 41,
          "time": 54.24583333333354,
          "velocity": 1,
          "duration": 0.24583333333333002
        },
        {
          "name": "F2",
          "midi": 41,
          "time": 54.24583333333354,
          "velocity": 1,
          "duration": 0.25
        },
        {
          "name": "B2",
          "midi": 47,
          "time": 54.49583333333354,
          "velocity": 1,
          "duration": 0.24583333333333002
        },
        {
          "name": "B2",
          "midi": 47,
          "time": 54.49583333333354,
          "velocity": 1,
          "duration": 0.25
        },
        {
          "name": "E2",
          "midi": 40,
          "time": 54.74583333333354,
          "velocity": 1,
          "duration": 0.24583333333333002
        },
        {
          "name": "E2",
          "midi": 40,
          "time": 54.74583333333354,
          "velocity": 1,
          "duration": 0.25
        },
        {
          "name": "F2",
          "midi": 41,
          "time": 54.99583333333354,
          "velocity": 1,
          "duration": 0.24583333333333002
        },
        {
          "name": "F2",
          "midi": 41,
          "time": 54.99583333333354,
          "velocity": 1,
          "duration": 0.25
        },
        {
          "name": "C3",
          "midi": 48,
          "time": 55.24583333333354,
          "velocity": 1,
          "duration": 0.24583333333333002
        },
        {
          "name": "C3",
          "midi": 48,
          "time": 55.24583333333354,
          "velocity": 1,
          "duration": 0.25
        },
        {
          "name": "E2",
          "midi": 40,
          "time": 55.49583333333354,
          "velocity": 1,
          "duration": 0.24583333333333002
        },
        {
          "name": "E2",
          "midi": 40,
          "time": 55.49583333333354,
          "velocity": 1,
          "duration": 0.25
        },
        {
          "name": "F2",
          "midi": 41,
          "time": 55.74583333333354,
          "velocity": 1,
          "duration": 0.24583333333333002
        },
        {
          "name": "F2",
          "midi": 41,
          "time": 55.74583333333354,
          "velocity": 1,
          "duration": 0.25
        },
        {
          "name": "C3",
          "midi": 48,
          "time": 55.99583333333354,
          "velocity": 1,
          "duration": 0.24583333333333002
        },
        {
          "name": "C3",
          "midi": 48,
          "time": 55.99583333333354,
          "velocity": 1,
          "duration": 0.25
        },
        {
          "name": "E2",
          "midi": 40,
          "time": 56.24583333333354,
          "velocity": 1,
          "duration": 0.24583333333333002
        },
        {
          "name": "E2",
          "midi": 40,
          "time": 56.24583333333354,
          "velocity": 1,
          "duration": 0.25
        },
        {
          "name": "F2",
          "midi": 41,
          "time": 56.49583333333354,
          "velocity": 1,
          "duration": 0.24583333333333002
        },
        {
          "name": "F2",
          "midi": 41,
          "time": 56.49583333333354,
          "velocity": 1,
          "duration": 0.25
        },
        {
          "name": "C3",
          "midi": 48,
          "time": 56.74583333333354,
          "velocity": 1,
          "duration": 0.24583333333333002
        },
        {
          "name": "C3",
          "midi": 48,
          "time": 56.74583333333354,
          "velocity": 1,
          "duration": 0.25
        },
        {
          "name": "E2",
          "midi": 40,
          "time": 56.99583333333354,
          "velocity": 1,
          "duration": 0.24583333333333002
        },
        {
          "name": "E2",
          "midi": 40,
          "time": 56.99583333333354,
          "velocity": 1,
          "duration": 0.25
        },
        {
          "name": "F2",
          "midi": 41,
          "time": 57.24583333333354,
          "velocity": 1,
          "duration": 0.24583333333333002
        },
        {
          "name": "F2",
          "midi": 41,
          "time": 57.24583333333354,
          "velocity": 1,
          "duration": 0.25
        },
        {
          "name": "B2",
          "midi": 47,
          "time": 57.49583333333354,
          "velocity": 1,
          "duration": 0.24583333333333002
        },
        {
          "name": "B2",
          "midi": 47,
          "time": 57.49583333333354,
          "velocity": 1,
          "duration": 0.25
        },
        {
          "name": "E2",
          "midi": 40,
          "time": 57.99583333333354,
          "velocity": 1,
          "duration": 0.24583333333333002
        },
        {
          "name": "E2",
          "midi": 40,
          "time": 57.99583333333354,
          "velocity": 1,
          "duration": 0.25
        },
        {
          "name": "F2",
          "midi": 41,
          "time": 58.24583333333354,
          "velocity": 1,
          "duration": 0.24583333333333002
        },
        {
          "name": "F2",
          "midi": 41,
          "time": 58.24583333333354,
          "velocity": 1,
          "duration": 0.25
        },
        {
          "name": "B2",
          "midi": 47,
          "time": 58.49583333333354,
          "velocity": 1,
          "duration": 0.24583333333333002
        },
        {
          "name": "B2",
          "midi": 47,
          "time": 58.49583333333354,
          "velocity": 1,
          "duration": 0.25
        },
        {
          "name": "E2",
          "midi": 40,
          "time": 58.74583333333354,
          "velocity": 1,
          "duration": 0.24583333333333002
        },
        {
          "name": "E2",
          "midi": 40,
          "time": 58.74583333333354,
          "velocity": 1,
          "duration": 0.25
        },
        {
          "name": "F2",
          "midi": 41,
          "time": 58.99583333333354,
          "velocity": 1,
          "duration": 0.24583333333333002
        },
        {
          "name": "F2",
          "midi": 41,
          "time": 58.99583333333354,
          "velocity": 1,
          "duration": 0.25
        },
        {
          "name": "C3",
          "midi": 48,
          "time": 59.24583333333354,
          "velocity": 1,
          "duration": 0.24583333333333002
        },
        {
          "name": "C3",
          "midi": 48,
          "time": 59.24583333333354,
          "velocity": 1,
          "duration": 0.25
        },
        {
          "name": "E2",
          "midi": 40,
          "time": 59.49583333333354,
          "velocity": 1,
          "duration": 0.24583333333333002
        },
        {
          "name": "E2",
          "midi": 40,
          "time": 59.49583333333354,
          "velocity": 1,
          "duration": 0.25
        },
        {
          "name": "F2",
          "midi": 41,
          "time": 59.74583333333354,
          "velocity": 1,
          "duration": 0.24583333333333002
        },
        {
          "name": "F2",
          "midi": 41,
          "time": 59.74583333333354,
          "velocity": 1,
          "duration": 0.25
        },
        {
          "name": "C3",
          "midi": 48,
          "time": 59.99583333333354,
          "velocity": 1,
          "duration": 0.24583333333333002
        },
        {
          "name": "C3",
          "midi": 48,
          "time": 59.99583333333354,
          "velocity": 1,
          "duration": 0.25
        },
        {
          "name": "E2",
          "midi": 40,
          "time": 60.24583333333354,
          "velocity": 1,
          "duration": 0.24583333333333002
        },
        {
          "name": "E2",
          "midi": 40,
          "time": 60.24583333333354,
          "velocity": 1,
          "duration": 0.25
        },
        {
          "name": "F2",
          "midi": 41,
          "time": 60.49583333333354,
          "velocity": 1,
          "duration": 0.24583333333333002
        },
        {
          "name": "F2",
          "midi": 41,
          "time": 60.49583333333354,
          "velocity": 1,
          "duration": 0.25
        },
        {
          "name": "C3",
          "midi": 48,
          "time": 60.74583333333354,
          "velocity": 1,
          "duration": 0.24583333333333002
        },
        {
          "name": "C3",
          "midi": 48,
          "time": 60.74583333333354,
          "velocity": 1,
          "duration": 0.25
        },
        {
          "name": "F2",
          "midi": 41,
          "time": 60.99583333333354,
          "velocity": 1,
          "duration": 0.24583333333333002
        },
        {
          "name": "F2",
          "midi": 41,
          "time": 60.99583333333354,
          "velocity": 1,
          "duration": 0.25
        },
        {
          "name": "E2",
          "midi": 40,
          "time": 61.24583333333354,
          "velocity": 1,
          "duration": 0.24583333333333002
        },
        {
          "name": "E2",
          "midi": 40,
          "time": 61.24583333333354,
          "velocity": 1,
          "duration": 0.25
        },
        {
          "name": "B2",
          "midi": 47,
          "time": 61.49583333333354,
          "velocity": 1,
          "duration": 0.37083333333333
        },
        {
          "name": "B3",
          "midi": 59,
          "time": 61.49583333333354,
          "velocity": 1,
          "duration": 0.37083333333333
        },
        {
          "name": "F#3",
          "midi": 54,
          "time": 61.49583333333354,
          "velocity": 1,
          "duration": 0.37083333333333
        },
        {
          "name": "B2",
          "midi": 47,
          "time": 61.49583333333354,
          "velocity": 1,
          "duration": 0.5
        },
        {
          "name": "B3",
          "midi": 59,
          "time": 61.49583333333354,
          "velocity": 1,
          "duration": 0.5
        },
        {
          "name": "F#3",
          "midi": 54,
          "time": 61.49583333333354,
          "velocity": 1,
          "duration": 0.5
        },
        {
          "name": "E2",
          "midi": 40,
          "time": 61.99583333333354,
          "velocity": 1,
          "duration": 0.24583333333333002
        },
        {
          "name": "E2",
          "midi": 40,
          "time": 61.99583333333354,
          "velocity": 1,
          "duration": 0.25
        },
        {
          "name": "F2",
          "midi": 41,
          "time": 62.24583333333354,
          "velocity": 1,
          "duration": 0.24583333333333002
        },
        {
          "name": "F2",
          "midi": 41,
          "time": 62.24583333333354,
          "velocity": 1,
          "duration": 0.25
        },
        {
          "name": "B2",
          "midi": 47,
          "time": 62.49583333333354,
          "velocity": 1,
          "duration": 0.24583333333333002
        },
        {
          "name": "B2",
          "midi": 47,
          "time": 62.49583333333354,
          "velocity": 1,
          "duration": 0.25
        },
        {
          "name": "E2",
          "midi": 40,
          "time": 62.74583333333354,
          "velocity": 1,
          "duration": 0.24583333333333002
        },
        {
          "name": "E2",
          "midi": 40,
          "time": 62.74583333333354,
          "velocity": 1,
          "duration": 0.25
        },
        {
          "name": "F2",
          "midi": 41,
          "time": 62.99583333333354,
          "velocity": 1,
          "duration": 0.24583333333333002
        },
        {
          "name": "F2",
          "midi": 41,
          "time": 62.99583333333354,
          "velocity": 1,
          "duration": 0.25
        },
        {
          "name": "C3",
          "midi": 48,
          "time": 63.24583333333354,
          "velocity": 1,
          "duration": 0.24583333333333002
        },
        {
          "name": "C3",
          "midi": 48,
          "time": 63.24583333333354,
          "velocity": 1,
          "duration": 0.25
        },
        {
          "name": "E2",
          "midi": 40,
          "time": 63.49583333333354,
          "velocity": 1,
          "duration": 0.24583333333333002
        },
        {
          "name": "E2",
          "midi": 40,
          "time": 63.49583333333354,
          "velocity": 1,
          "duration": 0.25
        },
        {
          "name": "F2",
          "midi": 41,
          "time": 63.74583333333354,
          "velocity": 1,
          "duration": 0.24583333333333002
        },
        {
          "name": "F2",
          "midi": 41,
          "time": 63.74583333333354,
          "velocity": 1,
          "duration": 0.25
        },
        {
          "name": "C3",
          "midi": 48,
          "time": 63.99583333333354,
          "velocity": 1,
          "duration": 0.24583333333333002
        },
        {
          "name": "C3",
          "midi": 48,
          "time": 63.99583333333354,
          "velocity": 1,
          "duration": 0.2499999999999929
        },
        {
          "name": "E2",
          "midi": 40,
          "time": 64.24583333333354,
          "velocity": 1,
          "duration": 0.24583333333333712
        },
        {
          "name": "E2",
          "midi": 40,
          "time": 64.24583333333354,
          "velocity": 1,
          "duration": 0.25
        },
        {
          "name": "F2",
          "midi": 41,
          "time": 64.49583333333354,
          "velocity": 1,
          "duration": 0.24583333333333712
        },
        {
          "name": "F2",
          "midi": 41,
          "time": 64.49583333333354,
          "velocity": 1,
          "duration": 0.25
        },
        {
          "name": "C3",
          "midi": 48,
          "time": 64.74583333333354,
          "velocity": 1,
          "duration": 0.24583333333333712
        },
        {
          "name": "C3",
          "midi": 48,
          "time": 64.74583333333354,
          "velocity": 1,
          "duration": 0.25
        },
        {
          "name": "E2",
          "midi": 40,
          "time": 64.99583333333354,
          "velocity": 1,
          "duration": 0.24583333333333712
        },
        {
          "name": "E2",
          "midi": 40,
          "time": 64.99583333333354,
          "velocity": 1,
          "duration": 0.25
        },
        {
          "name": "F2",
          "midi": 41,
          "time": 65.24583333333354,
          "velocity": 1,
          "duration": 0.24583333333333712
        },
        {
          "name": "F2",
          "midi": 41,
          "time": 65.24583333333354,
          "velocity": 1,
          "duration": 0.25
        },
        {
          "name": "B2",
          "midi": 47,
          "time": 65.49583333333354,
          "velocity": 1,
          "duration": 0.24583333333333712
        },
        {
          "name": "B2",
          "midi": 47,
          "time": 65.49583333333354,
          "velocity": 1,
          "duration": 0.25
        },
        {
          "name": "E2",
          "midi": 40,
          "time": 65.99583333333354,
          "velocity": 1,
          "duration": 0.24583333333333712
        },
        {
          "name": "E2",
          "midi": 40,
          "time": 65.99583333333354,
          "velocity": 1,
          "duration": 0.25
        },
        {
          "name": "F2",
          "midi": 41,
          "time": 66.24583333333354,
          "velocity": 1,
          "duration": 0.24583333333333712
        },
        {
          "name": "F2",
          "midi": 41,
          "time": 66.24583333333354,
          "velocity": 1,
          "duration": 0.25
        },
        {
          "name": "B2",
          "midi": 47,
          "time": 66.49583333333354,
          "velocity": 1,
          "duration": 0.24583333333333712
        },
        {
          "name": "B2",
          "midi": 47,
          "time": 66.49583333333354,
          "velocity": 1,
          "duration": 0.25
        },
        {
          "name": "E2",
          "midi": 40,
          "time": 66.74583333333354,
          "velocity": 1,
          "duration": 0.24583333333333712
        },
        {
          "name": "E2",
          "midi": 40,
          "time": 66.74583333333354,
          "velocity": 1,
          "duration": 0.25
        },
        {
          "name": "F2",
          "midi": 41,
          "time": 66.99583333333354,
          "velocity": 1,
          "duration": 0.24583333333333712
        },
        {
          "name": "F2",
          "midi": 41,
          "time": 66.99583333333354,
          "velocity": 1,
          "duration": 0.25
        },
        {
          "name": "C3",
          "midi": 48,
          "time": 67.24583333333354,
          "velocity": 1,
          "duration": 0.24583333333333712
        },
        {
          "name": "C3",
          "midi": 48,
          "time": 67.24583333333354,
          "velocity": 1,
          "duration": 0.25
        },
        {
          "name": "F2",
          "midi": 41,
          "time": 67.49583333333354,
          "velocity": 1,
          "duration": 0.24583333333333712
        },
        {
          "name": "F2",
          "midi": 41,
          "time": 67.49583333333354,
          "velocity": 1,
          "duration": 0.25
        },
        {
          "name": "E2",
          "midi": 40,
          "time": 67.74583333333354,
          "velocity": 1,
          "duration": 0.24583333333333712
        },
        {
          "name": "E2",
          "midi": 40,
          "time": 67.74583333333354,
          "velocity": 1,
          "duration": 0.25
        },
        {
          "name": "G2",
          "midi": 43,
          "time": 67.99583333333354,
          "velocity": 1,
          "duration": 0.24583333333333712
        },
        {
          "name": "D3",
          "midi": 50,
          "time": 67.99583333333354,
          "velocity": 1,
          "duration": 0.24583333333333712
        },
        {
          "name": "D3",
          "midi": 50,
          "time": 67.99583333333354,
          "velocity": 1,
          "duration": 0.25
        },
        {
          "name": "G2",
          "midi": 43,
          "time": 67.99583333333354,
          "velocity": 1,
          "duration": 0.25
        },
        {
          "name": "C#3",
          "midi": 49,
          "time": 68.24583333333354,
          "velocity": 1,
          "duration": 0.24583333333333712
        },
        {
          "name": "F#2",
          "midi": 42,
          "time": 68.24583333333354,
          "velocity": 1,
          "duration": 0.24583333333333712
        },
        {
          "name": "C#3",
          "midi": 49,
          "time": 68.24583333333354,
          "velocity": 1,
          "duration": 0.25
        },
        {
          "name": "F#2",
          "midi": 42,
          "time": 68.24583333333354,
          "velocity": 1,
          "duration": 0.25
        },
        {
          "name": "E2",
          "midi": 40,
          "time": 68.49583333333354,
          "velocity": 1,
          "duration": 0.24583333333333712
        },
        {
          "name": "E2",
          "midi": 40,
          "time": 68.49583333333354,
          "velocity": 1,
          "duration": 0.25
        },
        {
          "name": "D3",
          "midi": 50,
          "time": 68.74583333333354,
          "velocity": 1,
          "duration": 0.24583333333333712
        },
        {
          "name": "G2",
          "midi": 43,
          "time": 68.74583333333354,
          "velocity": 1,
          "duration": 0.24583333333333712
        },
        {
          "name": "G2",
          "midi": 43,
          "time": 68.74583333333354,
          "velocity": 1,
          "duration": 0.25
        },
        {
          "name": "D3",
          "midi": 50,
          "time": 68.74583333333354,
          "velocity": 1,
          "duration": 0.25
        },
        {
          "name": "F#2",
          "midi": 42,
          "time": 68.99583333333354,
          "velocity": 1,
          "duration": 0.24583333333333712
        },
        {
          "name": "C#3",
          "midi": 49,
          "time": 68.99583333333354,
          "velocity": 1,
          "duration": 0.24583333333333712
        },
        {
          "name": "F#2",
          "midi": 42,
          "time": 68.99583333333354,
          "velocity": 1,
          "duration": 0.25
        },
        {
          "name": "C#3",
          "midi": 49,
          "time": 68.99583333333354,
          "velocity": 1,
          "duration": 0.25
        },
        {
          "name": "E2",
          "midi": 40,
          "time": 69.24583333333354,
          "velocity": 1,
          "duration": 0.24583333333333712
        },
        {
          "name": "E2",
          "midi": 40,
          "time": 69.24583333333354,
          "velocity": 1,
          "duration": 0.25
        },
        {
          "name": "D3",
          "midi": 50,
          "time": 69.49583333333354,
          "velocity": 1,
          "duration": 0.24583333333333712
        },
        {
          "name": "G2",
          "midi": 43,
          "time": 69.49583333333354,
          "velocity": 1,
          "duration": 0.24583333333333712
        },
        {
          "name": "G2",
          "midi": 43,
          "time": 69.49583333333354,
          "velocity": 1,
          "duration": 0.25
        },
        {
          "name": "D3",
          "midi": 50,
          "time": 69.49583333333354,
          "velocity": 1,
          "duration": 0.25
        },
        {
          "name": "F#2",
          "midi": 42,
          "time": 69.74583333333354,
          "velocity": 1,
          "duration": 0.24583333333333712
        },
        {
          "name": "C#3",
          "midi": 49,
          "time": 69.74583333333354,
          "velocity": 1,
          "duration": 0.24583333333333712
        },
        {
          "name": "C#3",
          "midi": 49,
          "time": 69.74583333333354,
          "velocity": 1,
          "duration": 0.25
        },
        {
          "name": "F#2",
          "midi": 42,
          "time": 69.74583333333354,
          "velocity": 1,
          "duration": 0.25
        },
        {
          "name": "E2",
          "midi": 40,
          "time": 69.99583333333354,
          "velocity": 1,
          "duration": 0.24583333333333712
        },
        {
          "name": "E2",
          "midi": 40,
          "time": 69.99583333333354,
          "velocity": 1,
          "duration": 0.25
        },
        {
          "name": "F2",
          "midi": 41,
          "time": 70.24583333333354,
          "velocity": 1,
          "duration": 0.24583333333333712
        },
        {
          "name": "F2",
          "midi": 41,
          "time": 70.24583333333354,
          "velocity": 1,
          "duration": 0.25
        },
        {
          "name": "B2",
          "midi": 47,
          "time": 70.49583333333354,
          "velocity": 1,
          "duration": 0.24583333333333712
        },
        {
          "name": "B2",
          "midi": 47,
          "time": 70.49583333333354,
          "velocity": 1,
          "duration": 0.25
        },
        {
          "name": "E2",
          "midi": 40,
          "time": 70.74583333333354,
          "velocity": 1,
          "duration": 0.24583333333333712
        },
        {
          "name": "E2",
          "midi": 40,
          "time": 70.74583333333354,
          "velocity": 1,
          "duration": 0.25
        },
        {
          "name": "F2",
          "midi": 41,
          "time": 70.99583333333354,
          "velocity": 1,
          "duration": 0.24583333333333712
        },
        {
          "name": "F2",
          "midi": 41,
          "time": 70.99583333333354,
          "velocity": 1,
          "duration": 0.25
        },
        {
          "name": "C3",
          "midi": 48,
          "time": 71.24583333333354,
          "velocity": 1,
          "duration": 0.24583333333333712
        },
        {
          "name": "C3",
          "midi": 48,
          "time": 71.24583333333354,
          "velocity": 1,
          "duration": 0.25
        },
        {
          "name": "E2",
          "midi": 40,
          "time": 71.49583333333354,
          "velocity": 1,
          "duration": 0.24583333333333712
        },
        {
          "name": "E2",
          "midi": 40,
          "time": 71.49583333333354,
          "velocity": 1,
          "duration": 0.25
        },
        {
          "name": "F2",
          "midi": 41,
          "time": 71.74583333333354,
          "velocity": 1,
          "duration": 0.24583333333333712
        },
        {
          "name": "F2",
          "midi": 41,
          "time": 71.74583333333354,
          "velocity": 1,
          "duration": 0.25
        },
        {
          "name": "C3",
          "midi": 48,
          "time": 71.99583333333354,
          "velocity": 1,
          "duration": 0.24583333333333712
        },
        {
          "name": "C3",
          "midi": 48,
          "time": 71.99583333333354,
          "velocity": 1,
          "duration": 0.25
        },
        {
          "name": "E2",
          "midi": 40,
          "time": 72.24583333333354,
          "velocity": 1,
          "duration": 0.24583333333333712
        },
        {
          "name": "E2",
          "midi": 40,
          "time": 72.24583333333354,
          "velocity": 1,
          "duration": 0.25
        },
        {
          "name": "F2",
          "midi": 41,
          "time": 72.49583333333354,
          "velocity": 1,
          "duration": 0.24583333333333712
        },
        {
          "name": "F2",
          "midi": 41,
          "time": 72.49583333333354,
          "velocity": 1,
          "duration": 0.25
        },
        {
          "name": "C3",
          "midi": 48,
          "time": 72.74583333333354,
          "velocity": 1,
          "duration": 0.24583333333333712
        },
        {
          "name": "C3",
          "midi": 48,
          "time": 72.74583333333354,
          "velocity": 1,
          "duration": 0.25
        },
        {
          "name": "E2",
          "midi": 40,
          "time": 72.99583333333354,
          "velocity": 1,
          "duration": 0.24583333333333712
        },
        {
          "name": "E2",
          "midi": 40,
          "time": 72.99583333333354,
          "velocity": 1,
          "duration": 0.25
        },
        {
          "name": "F2",
          "midi": 41,
          "time": 73.24583333333354,
          "velocity": 1,
          "duration": 0.24583333333333712
        },
        {
          "name": "F2",
          "midi": 41,
          "time": 73.24583333333354,
          "velocity": 1,
          "duration": 0.25
        },
        {
          "name": "B2",
          "midi": 47,
          "time": 73.49583333333354,
          "velocity": 1,
          "duration": 0.24583333333333712
        },
        {
          "name": "B2",
          "midi": 47,
          "time": 73.49583333333354,
          "velocity": 1,
          "duration": 0.25
        },
        {
          "name": "E2",
          "midi": 40,
          "time": 73.99583333333354,
          "velocity": 1,
          "duration": 0.24583333333333712
        },
        {
          "name": "E2",
          "midi": 40,
          "time": 73.99583333333354,
          "velocity": 1,
          "duration": 0.25
        },
        {
          "name": "F2",
          "midi": 41,
          "time": 74.24583333333354,
          "velocity": 1,
          "duration": 0.24583333333333712
        },
        {
          "name": "F2",
          "midi": 41,
          "time": 74.24583333333354,
          "velocity": 1,
          "duration": 0.25
        },
        {
          "name": "B2",
          "midi": 47,
          "time": 74.49583333333354,
          "velocity": 1,
          "duration": 0.24583333333333712
        },
        {
          "name": "B2",
          "midi": 47,
          "time": 74.49583333333354,
          "velocity": 1,
          "duration": 0.25
        },
        {
          "name": "E2",
          "midi": 40,
          "time": 74.74583333333354,
          "velocity": 1,
          "duration": 0.24583333333333712
        },
        {
          "name": "E2",
          "midi": 40,
          "time": 74.74583333333354,
          "velocity": 1,
          "duration": 0.25
        },
        {
          "name": "F2",
          "midi": 41,
          "time": 74.99583333333354,
          "velocity": 1,
          "duration": 0.24583333333333712
        },
        {
          "name": "F2",
          "midi": 41,
          "time": 74.99583333333354,
          "velocity": 1,
          "duration": 0.25
        },
        {
          "name": "C3",
          "midi": 48,
          "time": 75.24583333333354,
          "velocity": 1,
          "duration": 0.24583333333333712
        },
        {
          "name": "C3",
          "midi": 48,
          "time": 75.24583333333354,
          "velocity": 1,
          "duration": 0.25
        },
        {
          "name": "E2",
          "midi": 40,
          "time": 75.49583333333354,
          "velocity": 1,
          "duration": 0.24583333333333712
        },
        {
          "name": "E2",
          "midi": 40,
          "time": 75.49583333333354,
          "velocity": 1,
          "duration": 0.25
        },
        {
          "name": "F2",
          "midi": 41,
          "time": 75.74583333333354,
          "velocity": 1,
          "duration": 0.24583333333333712
        },
        {
          "name": "F2",
          "midi": 41,
          "time": 75.74583333333354,
          "velocity": 1,
          "duration": 0.25
        },
        {
          "name": "C3",
          "midi": 48,
          "time": 75.99583333333354,
          "velocity": 1,
          "duration": 0.24583333333333712
        },
        {
          "name": "C3",
          "midi": 48,
          "time": 75.99583333333354,
          "velocity": 1,
          "duration": 0.25
        },
        {
          "name": "E2",
          "midi": 40,
          "time": 76.24583333333354,
          "velocity": 1,
          "duration": 0.24583333333333712
        },
        {
          "name": "E2",
          "midi": 40,
          "time": 76.24583333333354,
          "velocity": 1,
          "duration": 0.25
        },
        {
          "name": "F2",
          "midi": 41,
          "time": 76.49583333333354,
          "velocity": 1,
          "duration": 0.24583333333333712
        },
        {
          "name": "F2",
          "midi": 41,
          "time": 76.49583333333354,
          "velocity": 1,
          "duration": 0.25
        },
        {
          "name": "C3",
          "midi": 48,
          "time": 76.74583333333354,
          "velocity": 1,
          "duration": 0.24583333333333712
        },
        {
          "name": "C3",
          "midi": 48,
          "time": 76.74583333333354,
          "velocity": 1,
          "duration": 0.25
        },
        {
          "name": "F2",
          "midi": 41,
          "time": 76.99583333333354,
          "velocity": 1,
          "duration": 0.24583333333333712
        },
        {
          "name": "F2",
          "midi": 41,
          "time": 76.99583333333354,
          "velocity": 1,
          "duration": 0.25
        },
        {
          "name": "E2",
          "midi": 40,
          "time": 77.24583333333354,
          "velocity": 1,
          "duration": 0.24583333333333712
        },
        {
          "name": "E2",
          "midi": 40,
          "time": 77.24583333333354,
          "velocity": 1,
          "duration": 0.25
        },
        {
          "name": "B3",
          "midi": 59,
          "time": 77.49583333333354,
          "velocity": 1,
          "duration": 0.3708333333333371
        },
        {
          "name": "F#3",
          "midi": 54,
          "time": 77.49583333333354,
          "velocity": 1,
          "duration": 0.3708333333333371
        },
        {
          "name": "B2",
          "midi": 47,
          "time": 77.49583333333354,
          "velocity": 1,
          "duration": 0.3708333333333371
        },
        {
          "name": "B2",
          "midi": 47,
          "time": 77.49583333333354,
          "velocity": 1,
          "duration": 0.5
        },
        {
          "name": "B3",
          "midi": 59,
          "time": 77.49583333333354,
          "velocity": 1,
          "duration": 0.5
        },
        {
          "name": "F#3",
          "midi": 54,
          "time": 77.49583333333354,
          "velocity": 1,
          "duration": 0.5
        },
        {
          "name": "E2",
          "midi": 40,
          "time": 77.99583333333354,
          "velocity": 1,
          "duration": 0.24583333333333712
        },
        {
          "name": "E2",
          "midi": 40,
          "time": 77.99583333333354,
          "velocity": 1,
          "duration": 0.25
        },
        {
          "name": "F2",
          "midi": 41,
          "time": 78.24583333333354,
          "velocity": 1,
          "duration": 0.24583333333333712
        },
        {
          "name": "F2",
          "midi": 41,
          "time": 78.24583333333354,
          "velocity": 1,
          "duration": 0.25
        },
        {
          "name": "B2",
          "midi": 47,
          "time": 78.49583333333354,
          "velocity": 1,
          "duration": 0.24583333333333712
        },
        {
          "name": "B2",
          "midi": 47,
          "time": 78.49583333333354,
          "velocity": 1,
          "duration": 0.25
        },
        {
          "name": "E2",
          "midi": 40,
          "time": 78.74583333333354,
          "velocity": 1,
          "duration": 0.24583333333333712
        },
        {
          "name": "E2",
          "midi": 40,
          "time": 78.74583333333354,
          "velocity": 1,
          "duration": 0.25
        },
        {
          "name": "F2",
          "midi": 41,
          "time": 78.99583333333354,
          "velocity": 1,
          "duration": 0.24583333333333712
        },
        {
          "name": "F2",
          "midi": 41,
          "time": 78.99583333333354,
          "velocity": 1,
          "duration": 0.25
        },
        {
          "name": "C3",
          "midi": 48,
          "time": 79.24583333333354,
          "velocity": 1,
          "duration": 0.24583333333333712
        },
        {
          "name": "C3",
          "midi": 48,
          "time": 79.24583333333354,
          "velocity": 1,
          "duration": 0.25
        },
        {
          "name": "E2",
          "midi": 40,
          "time": 79.49583333333354,
          "velocity": 1,
          "duration": 0.24583333333333712
        },
        {
          "name": "E2",
          "midi": 40,
          "time": 79.49583333333354,
          "velocity": 1,
          "duration": 0.25
        },
        {
          "name": "F2",
          "midi": 41,
          "time": 79.74583333333354,
          "velocity": 1,
          "duration": 0.24583333333333712
        },
        {
          "name": "F2",
          "midi": 41,
          "time": 79.74583333333354,
          "velocity": 1,
          "duration": 0.25
        },
        {
          "name": "C3",
          "midi": 48,
          "time": 79.99583333333354,
          "velocity": 1,
          "duration": 0.24583333333333712
        },
        {
          "name": "C3",
          "midi": 48,
          "time": 79.99583333333354,
          "velocity": 1,
          "duration": 0.25
        },
        {
          "name": "E2",
          "midi": 40,
          "time": 80.24583333333354,
          "velocity": 1,
          "duration": 0.24583333333333712
        },
        {
          "name": "E2",
          "midi": 40,
          "time": 80.24583333333354,
          "velocity": 1,
          "duration": 0.25
        },
        {
          "name": "F2",
          "midi": 41,
          "time": 80.49583333333354,
          "velocity": 1,
          "duration": 0.24583333333333712
        },
        {
          "name": "F2",
          "midi": 41,
          "time": 80.49583333333354,
          "velocity": 1,
          "duration": 0.25
        },
        {
          "name": "C3",
          "midi": 48,
          "time": 80.74583333333354,
          "velocity": 1,
          "duration": 0.24583333333333712
        },
        {
          "name": "C3",
          "midi": 48,
          "time": 80.74583333333354,
          "velocity": 1,
          "duration": 0.25
        },
        {
          "name": "E2",
          "midi": 40,
          "time": 80.99583333333354,
          "velocity": 1,
          "duration": 0.24583333333333712
        },
        {
          "name": "E2",
          "midi": 40,
          "time": 80.99583333333354,
          "velocity": 1,
          "duration": 0.25
        },
        {
          "name": "F2",
          "midi": 41,
          "time": 81.24583333333354,
          "velocity": 1,
          "duration": 0.24583333333333712
        },
        {
          "name": "F2",
          "midi": 41,
          "time": 81.24583333333354,
          "velocity": 1,
          "duration": 0.25
        },
        {
          "name": "B2",
          "midi": 47,
          "time": 81.49583333333354,
          "velocity": 1,
          "duration": 0.24583333333333712
        },
        {
          "name": "B2",
          "midi": 47,
          "time": 81.49583333333354,
          "velocity": 1,
          "duration": 0.25
        },
        {
          "name": "E2",
          "midi": 40,
          "time": 81.99583333333354,
          "velocity": 1,
          "duration": 0.24583333333333712
        },
        {
          "name": "E2",
          "midi": 40,
          "time": 81.99583333333354,
          "velocity": 1,
          "duration": 0.25
        },
        {
          "name": "F2",
          "midi": 41,
          "time": 82.24583333333354,
          "velocity": 1,
          "duration": 0.24583333333333712
        },
        {
          "name": "F2",
          "midi": 41,
          "time": 82.24583333333354,
          "velocity": 1,
          "duration": 0.25
        },
        {
          "name": "B2",
          "midi": 47,
          "time": 82.49583333333354,
          "velocity": 1,
          "duration": 0.24583333333333712
        },
        {
          "name": "B2",
          "midi": 47,
          "time": 82.49583333333354,
          "velocity": 1,
          "duration": 0.25
        },
        {
          "name": "E2",
          "midi": 40,
          "time": 82.74583333333354,
          "velocity": 1,
          "duration": 0.24583333333333712
        },
        {
          "name": "E2",
          "midi": 40,
          "time": 82.74583333333354,
          "velocity": 1,
          "duration": 0.25
        },
        {
          "name": "F2",
          "midi": 41,
          "time": 82.99583333333354,
          "velocity": 1,
          "duration": 0.24583333333333712
        },
        {
          "name": "F2",
          "midi": 41,
          "time": 82.99583333333354,
          "velocity": 1,
          "duration": 0.25
        },
        {
          "name": "C3",
          "midi": 48,
          "time": 83.24583333333354,
          "velocity": 1,
          "duration": 0.24583333333333712
        },
        {
          "name": "C3",
          "midi": 48,
          "time": 83.24583333333354,
          "velocity": 1,
          "duration": 0.25
        },
        {
          "name": "F2",
          "midi": 41,
          "time": 83.49583333333354,
          "velocity": 1,
          "duration": 0.24583333333333712
        },
        {
          "name": "F2",
          "midi": 41,
          "time": 83.49583333333354,
          "velocity": 1,
          "duration": 0.25
        },
        {
          "name": "E2",
          "midi": 40,
          "time": 83.74583333333354,
          "velocity": 1,
          "duration": 0.24583333333333712
        },
        {
          "name": "E2",
          "midi": 40,
          "time": 83.74583333333354,
          "velocity": 1,
          "duration": 0.25
        },
        {
          "name": "G2",
          "midi": 43,
          "time": 83.99583333333354,
          "velocity": 1,
          "duration": 0.24583333333333712
        },
        {
          "name": "D3",
          "midi": 50,
          "time": 83.99583333333354,
          "velocity": 1,
          "duration": 0.24583333333333712
        },
        {
          "name": "G2",
          "midi": 43,
          "time": 83.99583333333354,
          "velocity": 1,
          "duration": 0.25
        },
        {
          "name": "D3",
          "midi": 50,
          "time": 83.99583333333354,
          "velocity": 1,
          "duration": 0.25
        },
        {
          "name": "F#2",
          "midi": 42,
          "time": 84.24583333333354,
          "velocity": 1,
          "duration": 0.24583333333333712
        },
        {
          "name": "C#3",
          "midi": 49,
          "time": 84.24583333333354,
          "velocity": 1,
          "duration": 0.24583333333333712
        },
        {
          "name": "C#3",
          "midi": 49,
          "time": 84.24583333333354,
          "velocity": 1,
          "duration": 0.25
        },
        {
          "name": "F#2",
          "midi": 42,
          "time": 84.24583333333354,
          "velocity": 1,
          "duration": 0.25
        },
        {
          "name": "E2",
          "midi": 40,
          "time": 84.49583333333354,
          "velocity": 1,
          "duration": 0.24583333333333712
        },
        {
          "name": "E2",
          "midi": 40,
          "time": 84.49583333333354,
          "velocity": 1,
          "duration": 0.25
        },
        {
          "name": "G2",
          "midi": 43,
          "time": 84.74583333333354,
          "velocity": 1,
          "duration": 0.24583333333333712
        },
        {
          "name": "D3",
          "midi": 50,
          "time": 84.74583333333354,
          "velocity": 1,
          "duration": 0.24583333333333712
        },
        {
          "name": "G2",
          "midi": 43,
          "time": 84.74583333333354,
          "velocity": 1,
          "duration": 0.25
        },
        {
          "name": "D3",
          "midi": 50,
          "time": 84.74583333333354,
          "velocity": 1,
          "duration": 0.25
        },
        {
          "name": "F#2",
          "midi": 42,
          "time": 84.99583333333354,
          "velocity": 1,
          "duration": 0.24583333333333712
        },
        {
          "name": "C#3",
          "midi": 49,
          "time": 84.99583333333354,
          "velocity": 1,
          "duration": 0.24583333333333712
        },
        {
          "name": "F#2",
          "midi": 42,
          "time": 84.99583333333354,
          "velocity": 1,
          "duration": 0.25
        },
        {
          "name": "C#3",
          "midi": 49,
          "time": 84.99583333333354,
          "velocity": 1,
          "duration": 0.25
        },
        {
          "name": "E2",
          "midi": 40,
          "time": 85.24583333333354,
          "velocity": 1,
          "duration": 0.24583333333333712
        },
        {
          "name": "E2",
          "midi": 40,
          "time": 85.24583333333354,
          "velocity": 1,
          "duration": 0.25
        },
        {
          "name": "D3",
          "midi": 50,
          "time": 85.49583333333354,
          "velocity": 1,
          "duration": 0.24583333333333712
        },
        {
          "name": "G2",
          "midi": 43,
          "time": 85.49583333333354,
          "velocity": 1,
          "duration": 0.24583333333333712
        },
        {
          "name": "D3",
          "midi": 50,
          "time": 85.49583333333354,
          "velocity": 1,
          "duration": 0.25
        },
        {
          "name": "G2",
          "midi": 43,
          "time": 85.49583333333354,
          "velocity": 1,
          "duration": 0.25
        },
        {
          "name": "C#3",
          "midi": 49,
          "time": 85.74583333333354,
          "velocity": 1,
          "duration": 0.24583333333333712
        },
        {
          "name": "F#2",
          "midi": 42,
          "time": 85.74583333333354,
          "velocity": 1,
          "duration": 0.24583333333333712
        },
        {
          "name": "F#2",
          "midi": 42,
          "time": 85.74583333333354,
          "velocity": 1,
          "duration": 0.25
        },
        {
          "name": "C#3",
          "midi": 49,
          "time": 85.74583333333354,
          "velocity": 1,
          "duration": 0.25
        },
        {
          "name": "G2",
          "midi": 43,
          "time": 85.99583333333354,
          "velocity": 1,
          "duration": 0.24583333333333712
        },
        {
          "name": "D3",
          "midi": 50,
          "time": 85.99583333333354,
          "velocity": 1,
          "duration": 0.24583333333333712
        },
        {
          "name": "G2",
          "midi": 43,
          "time": 85.99583333333354,
          "velocity": 1,
          "duration": 0.25
        },
        {
          "name": "D3",
          "midi": 50,
          "time": 85.99583333333354,
          "velocity": 1,
          "duration": 0.25
        },
        {
          "name": "F#2",
          "midi": 42,
          "time": 86.24583333333354,
          "velocity": 1,
          "duration": 0.24583333333333712
        },
        {
          "name": "C#3",
          "midi": 49,
          "time": 86.24583333333354,
          "velocity": 1,
          "duration": 0.24583333333333712
        },
        {
          "name": "C#3",
          "midi": 49,
          "time": 86.24583333333354,
          "velocity": 1,
          "duration": 0.25
        },
        {
          "name": "F#2",
          "midi": 42,
          "time": 86.24583333333354,
          "velocity": 1,
          "duration": 0.25
        },
        {
          "name": "E2",
          "midi": 40,
          "time": 86.49583333333354,
          "velocity": 1,
          "duration": 0.24583333333333712
        },
        {
          "name": "E2",
          "midi": 40,
          "time": 86.49583333333354,
          "velocity": 1,
          "duration": 0.25
        },
        {
          "name": "D3",
          "midi": 50,
          "time": 86.74583333333354,
          "velocity": 1,
          "duration": 0.24583333333333712
        },
        {
          "name": "G2",
          "midi": 43,
          "time": 86.74583333333354,
          "velocity": 1,
          "duration": 0.24583333333333712
        },
        {
          "name": "D3",
          "midi": 50,
          "time": 86.74583333333354,
          "velocity": 1,
          "duration": 0.25
        },
        {
          "name": "G2",
          "midi": 43,
          "time": 86.74583333333354,
          "velocity": 1,
          "duration": 0.25
        },
        {
          "name": "F#2",
          "midi": 42,
          "time": 86.99583333333354,
          "velocity": 1,
          "duration": 0.24583333333333712
        },
        {
          "name": "C#3",
          "midi": 49,
          "time": 86.99583333333354,
          "velocity": 1,
          "duration": 0.24583333333333712
        },
        {
          "name": "F#2",
          "midi": 42,
          "time": 86.99583333333354,
          "velocity": 1,
          "duration": 0.25
        },
        {
          "name": "C#3",
          "midi": 49,
          "time": 86.99583333333354,
          "velocity": 1,
          "duration": 0.25
        },
        {
          "name": "E2",
          "midi": 40,
          "time": 87.24583333333354,
          "velocity": 1,
          "duration": 0.24583333333333712
        },
        {
          "name": "E2",
          "midi": 40,
          "time": 87.24583333333354,
          "velocity": 1,
          "duration": 0.25
        },
        {
          "name": "D3",
          "midi": 50,
          "time": 87.49583333333354,
          "velocity": 1,
          "duration": 0.24583333333333712
        },
        {
          "name": "G2",
          "midi": 43,
          "time": 87.49583333333354,
          "velocity": 1,
          "duration": 0.24583333333333712
        },
        {
          "name": "D3",
          "midi": 50,
          "time": 87.49583333333354,
          "velocity": 1,
          "duration": 0.25
        },
        {
          "name": "G2",
          "midi": 43,
          "time": 87.49583333333354,
          "velocity": 1,
          "duration": 0.25
        },
        {
          "name": "C#3",
          "midi": 49,
          "time": 87.74583333333354,
          "velocity": 1,
          "duration": 0.24583333333333712
        },
        {
          "name": "F#2",
          "midi": 42,
          "time": 87.74583333333354,
          "velocity": 1,
          "duration": 0.24583333333333712
        },
        {
          "name": "C#3",
          "midi": 49,
          "time": 87.74583333333354,
          "velocity": 1,
          "duration": 0.25
        },
        {
          "name": "F#2",
          "midi": 42,
          "time": 87.74583333333354,
          "velocity": 1,
          "duration": 0.25
        },
        {
          "name": "B2",
          "midi": 47,
          "time": 87.99583333333354,
          "velocity": 1,
          "duration": 0.3708333333333371
        },
        {
          "name": "E2",
          "midi": 40,
          "time": 87.99583333333354,
          "velocity": 1,
          "duration": 0.25
        },
        {
          "name": "E3",
          "midi": 52,
          "time": 87.99583333333354,
          "velocity": 1,
          "duration": 0.3708333333333371
        },
        {
          "name": "E2",
          "midi": 40,
          "time": 87.99583333333354,
          "velocity": 1,
          "duration": 0.3708333333333371
        },
        {
          "name": "E3",
          "midi": 52,
          "time": 87.99583333333354,
          "velocity": 1,
          "duration": 0.5
        },
        {
          "name": "B2",
          "midi": 47,
          "time": 87.99583333333354,
          "velocity": 1,
          "duration": 0.5
        },
        {
          "name": "E2",
          "midi": 40,
          "time": 87.99583333333354,
          "velocity": 1,
          "duration": 0.5
        },
        {
          "name": "E3",
          "midi": 52,
          "time": 88.24583333333354,
          "velocity": 1,
          "duration": 0.25
        },
        {
          "name": "A#3",
          "midi": 58,
          "time": 88.49583333333354,
          "velocity": 1,
          "duration": 0.25
        },
        {
          "name": "E2",
          "midi": 40,
          "time": 88.74583333333354,
          "velocity": 1,
          "duration": 0.25
        },
        {
          "name": "E3",
          "midi": 52,
          "time": 88.99583333333354,
          "velocity": 1,
          "duration": 0.25
        },
        {
          "name": "A#3",
          "midi": 58,
          "time": 89.24583333333354,
          "velocity": 1,
          "duration": 0.25
        },
        {
          "name": "E2",
          "midi": 40,
          "time": 89.49583333333354,
          "velocity": 1,
          "duration": 0.25
        },
        {
          "name": "E3",
          "midi": 52,
          "time": 89.74583333333354,
          "velocity": 1,
          "duration": 0.25
        },
        {
          "name": "A#3",
          "midi": 58,
          "time": 89.99583333333354,
          "velocity": 1,
          "duration": 0.25
        },
        {
          "name": "E2",
          "midi": 40,
          "time": 90.24583333333354,
          "velocity": 1,
          "duration": 0.25
        },
        {
          "name": "E3",
          "midi": 52,
          "time": 90.49583333333354,
          "velocity": 1,
          "duration": 0.25
        },
        {
          "name": "A#3",
          "midi": 58,
          "time": 90.74583333333354,
          "velocity": 1,
          "duration": 0.25
        },
        {
          "name": "E2",
          "midi": 40,
          "time": 90.99583333333354,
          "velocity": 1,
          "duration": 0.25
        },
        {
          "name": "E3",
          "midi": 52,
          "time": 91.24583333333354,
          "velocity": 1,
          "duration": 0.25
        },
        {
          "name": "A#3",
          "midi": 58,
          "time": 91.49583333333354,
          "velocity": 1,
          "duration": 1
        },
        {
          "name": "E2",
          "midi": 40,
          "time": 91.99583333333354,
          "velocity": 1,
          "duration": 0.24583333333333712
        },
        {
          "name": "E2",
          "midi": 40,
          "time": 91.99583333333354,
          "velocity": 1,
          "duration": 0.25
        },
        {
          "name": "E2",
          "midi": 40,
          "time": 92.24583333333354,
          "velocity": 1,
          "duration": 0.24583333333333712
        },
        {
          "name": "E2",
          "midi": 40,
          "time": 92.24583333333354,
          "velocity": 1,
          "duration": 0.25
        },
        {
          "name": "E2",
          "midi": 40,
          "time": 92.49583333333354,
          "velocity": 1,
          "duration": 0.24583333333333712
        },
        {
          "name": "E2",
          "midi": 40,
          "time": 92.49583333333354,
          "velocity": 1,
          "duration": 0.25
        },
        {
          "name": "E2",
          "midi": 40,
          "time": 92.74583333333354,
          "velocity": 1,
          "duration": 0.24583333333333712
        },
        {
          "name": "E2",
          "midi": 40,
          "time": 92.74583333333354,
          "velocity": 1,
          "duration": 0.25
        },
        {
          "name": "E2",
          "midi": 40,
          "time": 92.99583333333354,
          "velocity": 1,
          "duration": 0.24583333333333712
        },
        {
          "name": "E2",
          "midi": 40,
          "time": 92.99583333333354,
          "velocity": 1,
          "duration": 0.25
        },
        {
          "name": "E2",
          "midi": 40,
          "time": 93.24583333333354,
          "velocity": 1,
          "duration": 0.24583333333333712
        },
        {
          "name": "E2",
          "midi": 40,
          "time": 93.24583333333354,
          "velocity": 1,
          "duration": 0.25
        },
        {
          "name": "E2",
          "midi": 40,
          "time": 93.49583333333354,
          "velocity": 1,
          "duration": 0.24583333333333712
        },
        {
          "name": "E2",
          "midi": 40,
          "time": 93.49583333333354,
          "velocity": 1,
          "duration": 0.25
        },
        {
          "name": "E2",
          "midi": 40,
          "time": 93.74583333333354,
          "velocity": 1,
          "duration": 0.24583333333333712
        },
        {
          "name": "E2",
          "midi": 40,
          "time": 93.74583333333354,
          "velocity": 1,
          "duration": 0.25
        },
        {
          "name": "E2",
          "midi": 40,
          "time": 93.99583333333354,
          "velocity": 1,
          "duration": 0.24583333333333712
        },
        {
          "name": "E2",
          "midi": 40,
          "time": 93.99583333333354,
          "velocity": 1,
          "duration": 0.25
        },
        {
          "name": "G2",
          "midi": 43,
          "time": 94.24583333333354,
          "velocity": 1,
          "duration": 0.24583333333333712
        },
        {
          "name": "D3",
          "midi": 50,
          "time": 94.24583333333354,
          "velocity": 1,
          "duration": 0.24583333333333712
        },
        {
          "name": "G2",
          "midi": 43,
          "time": 94.24583333333354,
          "velocity": 1,
          "duration": 0.25
        },
        {
          "name": "D3",
          "midi": 50,
          "time": 94.24583333333354,
          "velocity": 1,
          "duration": 0.25
        },
        {
          "name": "A2",
          "midi": 45,
          "time": 94.49583333333354,
          "velocity": 1,
          "duration": 0.24583333333333712
        },
        {
          "name": "E3",
          "midi": 52,
          "time": 94.49583333333354,
          "velocity": 1,
          "duration": 0.24583333333333712
        },
        {
          "name": "E3",
          "midi": 52,
          "time": 94.49583333333354,
          "velocity": 1,
          "duration": 0.25
        },
        {
          "name": "A2",
          "midi": 45,
          "time": 94.49583333333354,
          "velocity": 1,
          "duration": 0.25
        },
        {
          "name": "E2",
          "midi": 40,
          "time": 94.74583333333354,
          "velocity": 1,
          "duration": 0.24583333333333712
        },
        {
          "name": "E2",
          "midi": 40,
          "time": 94.74583333333354,
          "velocity": 1,
          "duration": 0.25
        },
        {
          "name": "A#2",
          "midi": 46,
          "time": 94.99583333333354,
          "velocity": 1,
          "duration": 0.24583333333333712
        },
        {
          "name": "F3",
          "midi": 53,
          "time": 94.99583333333354,
          "velocity": 1,
          "duration": 0.24583333333333712
        },
        {
          "name": "F3",
          "midi": 53,
          "time": 94.99583333333354,
          "velocity": 1,
          "duration": 0.25
        },
        {
          "name": "A#2",
          "midi": 46,
          "time": 94.99583333333354,
          "velocity": 1,
          "duration": 0.25
        },
        {
          "name": "E3",
          "midi": 52,
          "time": 95.24583333333354,
          "velocity": 1,
          "duration": 0.24583333333333712
        },
        {
          "name": "A2",
          "midi": 45,
          "time": 95.24583333333354,
          "velocity": 1,
          "duration": 0.24583333333333712
        },
        {
          "name": "A2",
          "midi": 45,
          "time": 95.24583333333354,
          "velocity": 1,
          "duration": 0.25
        },
        {
          "name": "E3",
          "midi": 52,
          "time": 95.24583333333354,
          "velocity": 1,
          "duration": 0.25
        },
        {
          "name": "G2",
          "midi": 43,
          "time": 95.49583333333354,
          "velocity": 1,
          "duration": 0.24583333333333712
        },
        {
          "name": "D3",
          "midi": 50,
          "time": 95.49583333333354,
          "velocity": 1,
          "duration": 0.24583333333333712
        },
        {
          "name": "D3",
          "midi": 50,
          "time": 95.49583333333354,
          "velocity": 1,
          "duration": 0.25
        },
        {
          "name": "G2",
          "midi": 43,
          "time": 95.49583333333354,
          "velocity": 1,
          "duration": 0.25
        },
        {
          "name": "E2",
          "midi": 40,
          "time": 95.99583333333354,
          "velocity": 1,
          "duration": 0.24583333333333712
        },
        {
          "name": "E2",
          "midi": 40,
          "time": 95.99583333333354,
          "velocity": 1,
          "duration": 0.25
        },
        {
          "name": "E2",
          "midi": 40,
          "time": 96.24583333333354,
          "velocity": 1,
          "duration": 0.24583333333333712
        },
        {
          "name": "E2",
          "midi": 40,
          "time": 96.24583333333354,
          "velocity": 1,
          "duration": 0.25
        },
        {
          "name": "E2",
          "midi": 40,
          "time": 96.49583333333354,
          "velocity": 1,
          "duration": 0.24583333333333712
        },
        {
          "name": "E2",
          "midi": 40,
          "time": 96.49583333333354,
          "velocity": 1,
          "duration": 0.25
        },
        {
          "name": "E2",
          "midi": 40,
          "time": 96.74583333333354,
          "velocity": 1,
          "duration": 0.24583333333333712
        },
        {
          "name": "E2",
          "midi": 40,
          "time": 96.74583333333354,
          "velocity": 1,
          "duration": 0.25
        },
        {
          "name": "E2",
          "midi": 40,
          "time": 96.99583333333354,
          "velocity": 1,
          "duration": 0.24583333333333712
        },
        {
          "name": "E2",
          "midi": 40,
          "time": 96.99583333333354,
          "velocity": 1,
          "duration": 0.25
        },
        {
          "name": "E2",
          "midi": 40,
          "time": 97.24583333333354,
          "velocity": 1,
          "duration": 0.24583333333333712
        },
        {
          "name": "E2",
          "midi": 40,
          "time": 97.24583333333354,
          "velocity": 1,
          "duration": 0.25
        },
        {
          "name": "E2",
          "midi": 40,
          "time": 97.49583333333354,
          "velocity": 1,
          "duration": 0.24583333333333712
        },
        {
          "name": "E2",
          "midi": 40,
          "time": 97.49583333333354,
          "velocity": 1,
          "duration": 0.25
        },
        {
          "name": "E2",
          "midi": 40,
          "time": 97.74583333333354,
          "velocity": 1,
          "duration": 0.24583333333333712
        },
        {
          "name": "E2",
          "midi": 40,
          "time": 97.74583333333354,
          "velocity": 1,
          "duration": 0.25
        },
        {
          "name": "E2",
          "midi": 40,
          "time": 97.99583333333354,
          "velocity": 1,
          "duration": 0.24583333333333712
        },
        {
          "name": "E2",
          "midi": 40,
          "time": 97.99583333333354,
          "velocity": 1,
          "duration": 0.25
        },
        {
          "name": "D3",
          "midi": 50,
          "time": 98.24583333333354,
          "velocity": 1,
          "duration": 0.24583333333333712
        },
        {
          "name": "G2",
          "midi": 43,
          "time": 98.24583333333354,
          "velocity": 1,
          "duration": 0.24583333333333712
        },
        {
          "name": "G2",
          "midi": 43,
          "time": 98.24583333333354,
          "velocity": 1,
          "duration": 0.25
        },
        {
          "name": "D3",
          "midi": 50,
          "time": 98.24583333333354,
          "velocity": 1,
          "duration": 0.25
        },
        {
          "name": "E3",
          "midi": 52,
          "time": 98.49583333333354,
          "velocity": 1,
          "duration": 0.24583333333333712
        },
        {
          "name": "A2",
          "midi": 45,
          "time": 98.49583333333354,
          "velocity": 1,
          "duration": 0.24583333333333712
        },
        {
          "name": "E3",
          "midi": 52,
          "time": 98.49583333333354,
          "velocity": 1,
          "duration": 0.25
        },
        {
          "name": "A2",
          "midi": 45,
          "time": 98.49583333333354,
          "velocity": 1,
          "duration": 0.25
        },
        {
          "name": "G2",
          "midi": 43,
          "time": 98.74583333333354,
          "velocity": 1,
          "duration": 0.24583333333333712
        },
        {
          "name": "D3",
          "midi": 50,
          "time": 98.74583333333354,
          "velocity": 1,
          "duration": 0.24583333333333712
        },
        {
          "name": "G2",
          "midi": 43,
          "time": 98.74583333333354,
          "velocity": 1,
          "duration": 0.25
        },
        {
          "name": "D3",
          "midi": 50,
          "time": 98.74583333333354,
          "velocity": 1,
          "duration": 0.25
        },
        {
          "name": "A2",
          "midi": 45,
          "time": 98.99583333333354,
          "velocity": 1,
          "duration": 0.24583333333333712
        },
        {
          "name": "E3",
          "midi": 52,
          "time": 98.99583333333354,
          "velocity": 1,
          "duration": 0.24583333333333712
        },
        {
          "name": "E3",
          "midi": 52,
          "time": 98.99583333333354,
          "velocity": 1,
          "duration": 0.25
        },
        {
          "name": "A2",
          "midi": 45,
          "time": 98.99583333333354,
          "velocity": 1,
          "duration": 0.25
        },
        {
          "name": "E2",
          "midi": 40,
          "time": 99.24583333333354,
          "velocity": 1,
          "duration": 0.24583333333333712
        },
        {
          "name": "E2",
          "midi": 40,
          "time": 99.24583333333354,
          "velocity": 1,
          "duration": 0.25
        },
        {
          "name": "E2",
          "midi": 40,
          "time": 99.49583333333354,
          "velocity": 1,
          "duration": 0.24583333333333712
        },
        {
          "name": "E2",
          "midi": 40,
          "time": 99.49583333333354,
          "velocity": 1,
          "duration": 0.25
        },
        {
          "name": "E2",
          "midi": 40,
          "time": 99.74583333333354,
          "velocity": 1,
          "duration": 0.24583333333333712
        },
        {
          "name": "E2",
          "midi": 40,
          "time": 99.74583333333354,
          "velocity": 1,
          "duration": 0.25
        },
        {
          "name": "E2",
          "midi": 40,
          "time": 99.99583333333354,
          "velocity": 1,
          "duration": 0.24583333333333712
        },
        {
          "name": "E2",
          "midi": 40,
          "time": 99.99583333333354,
          "velocity": 1,
          "duration": 0.25
        },
        {
          "name": "E2",
          "midi": 40,
          "time": 100.24583333333354,
          "velocity": 1,
          "duration": 0.24583333333333712
        },
        {
          "name": "E2",
          "midi": 40,
          "time": 100.24583333333354,
          "velocity": 1,
          "duration": 0.25
        },
        {
          "name": "E2",
          "midi": 40,
          "time": 100.49583333333354,
          "velocity": 1,
          "duration": 0.24583333333333712
        },
        {
          "name": "E2",
          "midi": 40,
          "time": 100.49583333333354,
          "velocity": 1,
          "duration": 0.25
        },
        {
          "name": "E2",
          "midi": 40,
          "time": 100.74583333333354,
          "velocity": 1,
          "duration": 0.24583333333333712
        },
        {
          "name": "E2",
          "midi": 40,
          "time": 100.74583333333354,
          "velocity": 1,
          "duration": 0.25
        },
        {
          "name": "E2",
          "midi": 40,
          "time": 100.99583333333354,
          "velocity": 1,
          "duration": 0.24583333333333712
        },
        {
          "name": "E2",
          "midi": 40,
          "time": 100.99583333333354,
          "velocity": 1,
          "duration": 0.25
        },
        {
          "name": "E2",
          "midi": 40,
          "time": 101.24583333333354,
          "velocity": 1,
          "duration": 0.24583333333333712
        },
        {
          "name": "E2",
          "midi": 40,
          "time": 101.24583333333354,
          "velocity": 1,
          "duration": 0.25
        },
        {
          "name": "G2",
          "midi": 43,
          "time": 101.49583333333354,
          "velocity": 1,
          "duration": 0.24583333333333712
        },
        {
          "name": "D3",
          "midi": 50,
          "time": 101.49583333333354,
          "velocity": 1,
          "duration": 0.24583333333333712
        },
        {
          "name": "D3",
          "midi": 50,
          "time": 101.49583333333354,
          "velocity": 1,
          "duration": 0.25
        },
        {
          "name": "G2",
          "midi": 43,
          "time": 101.49583333333354,
          "velocity": 1,
          "duration": 0.25
        },
        {
          "name": "A2",
          "midi": 45,
          "time": 101.74583333333354,
          "velocity": 1,
          "duration": 0.24583333333333712
        },
        {
          "name": "E3",
          "midi": 52,
          "time": 101.74583333333354,
          "velocity": 1,
          "duration": 0.24583333333333712
        },
        {
          "name": "E3",
          "midi": 52,
          "time": 101.74583333333354,
          "velocity": 1,
          "duration": 0.25
        },
        {
          "name": "A2",
          "midi": 45,
          "time": 101.74583333333354,
          "velocity": 1,
          "duration": 0.25
        },
        {
          "name": "E2",
          "midi": 40,
          "time": 101.99583333333354,
          "velocity": 1,
          "duration": 0.24583333333333712
        },
        {
          "name": "E2",
          "midi": 40,
          "time": 101.99583333333354,
          "velocity": 1,
          "duration": 0.25
        },
        {
          "name": "F3",
          "midi": 53,
          "time": 102.24583333333354,
          "velocity": 1,
          "duration": 0.24583333333333712
        },
        {
          "name": "A#2",
          "midi": 46,
          "time": 102.24583333333354,
          "velocity": 1,
          "duration": 0.24583333333333712
        },
        {
          "name": "A#2",
          "midi": 46,
          "time": 102.24583333333354,
          "velocity": 1,
          "duration": 0.25
        },
        {
          "name": "F3",
          "midi": 53,
          "time": 102.24583333333354,
          "velocity": 1,
          "duration": 0.25
        },
        {
          "name": "A2",
          "midi": 45,
          "time": 102.49583333333354,
          "velocity": 1,
          "duration": 0.24583333333333712
        },
        {
          "name": "E3",
          "midi": 52,
          "time": 102.49583333333354,
          "velocity": 1,
          "duration": 0.24583333333333712
        },
        {
          "name": "E3",
          "midi": 52,
          "time": 102.49583333333354,
          "velocity": 1,
          "duration": 0.25
        },
        {
          "name": "A2",
          "midi": 45,
          "time": 102.49583333333354,
          "velocity": 1,
          "duration": 0.25
        },
        {
          "name": "G2",
          "midi": 43,
          "time": 102.74583333333354,
          "velocity": 1,
          "duration": 0.24583333333333712
        },
        {
          "name": "D3",
          "midi": 50,
          "time": 102.74583333333354,
          "velocity": 1,
          "duration": 0.24583333333333712
        },
        {
          "name": "D3",
          "midi": 50,
          "time": 102.74583333333354,
          "velocity": 1,
          "duration": 0.25
        },
        {
          "name": "G2",
          "midi": 43,
          "time": 102.74583333333354,
          "velocity": 1,
          "duration": 0.25
        },
        {
          "name": "E2",
          "midi": 40,
          "time": 103.24583333333354,
          "velocity": 1,
          "duration": 0.24583333333333712
        },
        {
          "name": "E2",
          "midi": 40,
          "time": 103.24583333333354,
          "velocity": 1,
          "duration": 0.25
        },
        {
          "name": "E2",
          "midi": 40,
          "time": 103.49583333333354,
          "velocity": 1,
          "duration": 0.24583333333333712
        },
        {
          "name": "E2",
          "midi": 40,
          "time": 103.49583333333354,
          "velocity": 1,
          "duration": 0.25
        },
        {
          "name": "E2",
          "midi": 40,
          "time": 103.74583333333354,
          "velocity": 1,
          "duration": 0.24583333333333712
        },
        {
          "name": "E2",
          "midi": 40,
          "time": 103.74583333333354,
          "velocity": 1,
          "duration": 0.25
        },
        {
          "name": "E2",
          "midi": 40,
          "time": 103.99583333333354,
          "velocity": 1,
          "duration": 0.24583333333333712
        },
        {
          "name": "E2",
          "midi": 40,
          "time": 103.99583333333354,
          "velocity": 1,
          "duration": 0.25
        },
        {
          "name": "E2",
          "midi": 40,
          "time": 104.24583333333354,
          "velocity": 1,
          "duration": 0.24583333333333712
        },
        {
          "name": "E2",
          "midi": 40,
          "time": 104.24583333333354,
          "velocity": 1,
          "duration": 0.25
        },
        {
          "name": "E2",
          "midi": 40,
          "time": 104.49583333333354,
          "velocity": 1,
          "duration": 0.24583333333333712
        },
        {
          "name": "E2",
          "midi": 40,
          "time": 104.49583333333354,
          "velocity": 1,
          "duration": 0.25
        },
        {
          "name": "E2",
          "midi": 40,
          "time": 104.74583333333354,
          "velocity": 1,
          "duration": 0.24583333333333712
        },
        {
          "name": "E2",
          "midi": 40,
          "time": 104.74583333333354,
          "velocity": 1,
          "duration": 0.25
        },
        {
          "name": "E2",
          "midi": 40,
          "time": 104.99583333333354,
          "velocity": 1,
          "duration": 0.24583333333333712
        },
        {
          "name": "E2",
          "midi": 40,
          "time": 104.99583333333354,
          "velocity": 1,
          "duration": 0.25
        },
        {
          "name": "E2",
          "midi": 40,
          "time": 105.24583333333354,
          "velocity": 1,
          "duration": 0.24583333333333712
        },
        {
          "name": "E2",
          "midi": 40,
          "time": 105.24583333333354,
          "velocity": 1,
          "duration": 0.25
        },
        {
          "name": "D3",
          "midi": 50,
          "time": 105.49583333333354,
          "velocity": 1,
          "duration": 0.24583333333333712
        },
        {
          "name": "G2",
          "midi": 43,
          "time": 105.49583333333354,
          "velocity": 1,
          "duration": 0.24583333333333712
        },
        {
          "name": "D3",
          "midi": 50,
          "time": 105.49583333333354,
          "velocity": 1,
          "duration": 0.25
        },
        {
          "name": "G2",
          "midi": 43,
          "time": 105.49583333333354,
          "velocity": 1,
          "duration": 0.25
        },
        {
          "name": "E3",
          "midi": 52,
          "time": 105.74583333333354,
          "velocity": 1,
          "duration": 0.24583333333333712
        },
        {
          "name": "A2",
          "midi": 45,
          "time": 105.74583333333354,
          "velocity": 1,
          "duration": 0.24583333333333712
        },
        {
          "name": "E3",
          "midi": 52,
          "time": 105.74583333333354,
          "velocity": 1,
          "duration": 0.25
        },
        {
          "name": "A2",
          "midi": 45,
          "time": 105.74583333333354,
          "velocity": 1,
          "duration": 0.25
        },
        {
          "name": "D3",
          "midi": 50,
          "time": 105.99583333333354,
          "velocity": 1,
          "duration": 0.24583333333333712
        },
        {
          "name": "G2",
          "midi": 43,
          "time": 105.99583333333354,
          "velocity": 1,
          "duration": 0.24583333333333712
        },
        {
          "name": "G2",
          "midi": 43,
          "time": 105.99583333333354,
          "velocity": 1,
          "duration": 0.25
        },
        {
          "name": "D3",
          "midi": 50,
          "time": 105.99583333333354,
          "velocity": 1,
          "duration": 0.25
        },
        {
          "name": "A2",
          "midi": 45,
          "time": 106.24583333333354,
          "velocity": 1,
          "duration": 0.24583333333333712
        },
        {
          "name": "E3",
          "midi": 52,
          "time": 106.24583333333354,
          "velocity": 1,
          "duration": 0.24583333333333712
        },
        {
          "name": "E3",
          "midi": 52,
          "time": 106.24583333333354,
          "velocity": 1,
          "duration": 0.25
        },
        {
          "name": "A2",
          "midi": 45,
          "time": 106.24583333333354,
          "velocity": 1,
          "duration": 0.25
        },
        {
          "name": "G4",
          "midi": 67,
          "time": 106.49583333333354,
          "velocity": 1,
          "duration": 0.42083333333332007
        },
        {
          "name": "E2",
          "midi": 40,
          "time": 106.49583333333354,
          "velocity": 1,
          "duration": 0.2458333333333229
        },
        {
          "name": "E2",
          "midi": 40,
          "time": 106.49583333333354,
          "velocity": 1,
          "duration": 0.2499999999999858
        },
        {
          "name": "G5",
          "midi": 79,
          "time": 106.5000000000002,
          "velocity": 0.8661417322834646,
          "duration": 0.3999999999999915
        },
        {
          "name": "E2",
          "midi": 40,
          "time": 106.74583333333352,
          "velocity": 1,
          "duration": 0.24583333333333712
        },
        {
          "name": "E2",
          "midi": 40,
          "time": 106.74583333333352,
          "velocity": 1,
          "duration": 0.25
        },
        {
          "name": "G4",
          "midi": 67,
          "time": 106.99583333333352,
          "velocity": 1,
          "duration": 0.17499999999999716
        },
        {
          "name": "E2",
          "midi": 40,
          "time": 106.99583333333352,
          "velocity": 1,
          "duration": 0.24583333333333712
        },
        {
          "name": "E2",
          "midi": 40,
          "time": 106.99583333333352,
          "velocity": 1,
          "duration": 0.25
        },
        {
          "name": "G5",
          "midi": 79,
          "time": 107.00000000000018,
          "velocity": 0.8740157480314961,
          "duration": 0.20000000000000284
        },
        {
          "name": "E2",
          "midi": 40,
          "time": 107.24583333333352,
          "velocity": 1,
          "duration": 0.24583333333333712
        },
        {
          "name": "E2",
          "midi": 40,
          "time": 107.24583333333352,
          "velocity": 1,
          "duration": 0.25
        },
        {
          "name": "G5",
          "midi": 79,
          "time": 107.25000000000018,
          "velocity": 0.8818897637795275,
          "duration": 0.4000000000000057
        },
        {
          "name": "G4",
          "midi": 67,
          "time": 107.25833333333352,
          "velocity": 1,
          "duration": 0.38750000000000284
        },
        {
          "name": "E2",
          "midi": 40,
          "time": 107.49583333333352,
          "velocity": 1,
          "duration": 0.24583333333333712
        },
        {
          "name": "E2",
          "midi": 40,
          "time": 107.49583333333352,
          "velocity": 1,
          "duration": 0.25
        },
        {
          "name": "E2",
          "midi": 40,
          "time": 107.74583333333352,
          "velocity": 1,
          "duration": 0.2458333333333229
        },
        {
          "name": "E2",
          "midi": 40,
          "time": 107.74583333333352,
          "velocity": 1,
          "duration": 0.2499999999999858
        },
        {
          "name": "E5",
          "midi": 76,
          "time": 107.75000000000018,
          "velocity": 0.8503937007874016,
          "duration": 0.3999999999999915
        },
        {
          "name": "E4",
          "midi": 64,
          "time": 107.75416666666685,
          "velocity": 1,
          "duration": 0.3791666666666629
        },
        {
          "name": "E2",
          "midi": 40,
          "time": 107.99583333333351,
          "velocity": 1,
          "duration": 0.24583333333333712
        },
        {
          "name": "E2",
          "midi": 40,
          "time": 107.99583333333351,
          "velocity": 1,
          "duration": 0.25
        },
        {
          "name": "D5",
          "midi": 74,
          "time": 108.22916666666684,
          "velocity": 0.8267716535433071,
          "duration": 0.020833333333328596
        },
        {
          "name": "D4",
          "midi": 62,
          "time": 108.2333333333335,
          "velocity": 0.5905511811023622,
          "duration": 0.041666666666671404
        },
        {
          "name": "E4",
          "midi": 64,
          "time": 108.24166666666684,
          "velocity": 1,
          "duration": 1.0041666666666629
        },
        {
          "name": "E2",
          "midi": 40,
          "time": 108.24583333333351,
          "velocity": 1,
          "duration": 0.24583333333333712
        },
        {
          "name": "E2",
          "midi": 40,
          "time": 108.24583333333351,
          "velocity": 1,
          "duration": 0.25
        },
        {
          "name": "E5",
          "midi": 76,
          "time": 108.25000000000017,
          "velocity": 0.8267716535433071,
          "duration": 1
        },
        {
          "name": "E2",
          "midi": 40,
          "time": 108.49583333333351,
          "velocity": 1,
          "duration": 0.24583333333333712
        },
        {
          "name": "E2",
          "midi": 40,
          "time": 108.49583333333351,
          "velocity": 1,
          "duration": 0.25
        },
        {
          "name": "G2",
          "midi": 43,
          "time": 108.74583333333351,
          "velocity": 1,
          "duration": 0.24583333333333712
        },
        {
          "name": "D3",
          "midi": 50,
          "time": 108.74583333333351,
          "velocity": 1,
          "duration": 0.24583333333333712
        },
        {
          "name": "G2",
          "midi": 43,
          "time": 108.74583333333351,
          "velocity": 1,
          "duration": 0.25
        },
        {
          "name": "D3",
          "midi": 50,
          "time": 108.74583333333351,
          "velocity": 1,
          "duration": 0.25
        },
        {
          "name": "A2",
          "midi": 45,
          "time": 108.99583333333351,
          "velocity": 1,
          "duration": 0.24583333333333712
        },
        {
          "name": "E3",
          "midi": 52,
          "time": 108.99583333333351,
          "velocity": 1,
          "duration": 0.24583333333333712
        },
        {
          "name": "E3",
          "midi": 52,
          "time": 108.99583333333351,
          "velocity": 1,
          "duration": 0.25
        },
        {
          "name": "A2",
          "midi": 45,
          "time": 108.99583333333351,
          "velocity": 1,
          "duration": 0.25
        },
        {
          "name": "E2",
          "midi": 40,
          "time": 109.24583333333351,
          "velocity": 1,
          "duration": 0.2458333333333229
        },
        {
          "name": "E2",
          "midi": 40,
          "time": 109.24583333333351,
          "velocity": 1,
          "duration": 0.2499999999999858
        },
        {
          "name": "F3",
          "midi": 53,
          "time": 109.4958333333335,
          "velocity": 1,
          "duration": 0.24583333333333712
        },
        {
          "name": "A#2",
          "midi": 46,
          "time": 109.4958333333335,
          "velocity": 1,
          "duration": 0.24583333333333712
        },
        {
          "name": "A#2",
          "midi": 46,
          "time": 109.4958333333335,
          "velocity": 1,
          "duration": 0.25
        },
        {
          "name": "F3",
          "midi": 53,
          "time": 109.4958333333335,
          "velocity": 1,
          "duration": 0.25
        },
        {
          "name": "A2",
          "midi": 45,
          "time": 109.7458333333335,
          "velocity": 1,
          "duration": 0.24583333333333712
        },
        {
          "name": "E3",
          "midi": 52,
          "time": 109.7458333333335,
          "velocity": 1,
          "duration": 0.24583333333333712
        },
        {
          "name": "A2",
          "midi": 45,
          "time": 109.7458333333335,
          "velocity": 1,
          "duration": 0.25
        },
        {
          "name": "E3",
          "midi": 52,
          "time": 109.7458333333335,
          "velocity": 1,
          "duration": 0.25
        },
        {
          "name": "G2",
          "midi": 43,
          "time": 109.9958333333335,
          "velocity": 1,
          "duration": 0.24583333333333712
        },
        {
          "name": "D3",
          "midi": 50,
          "time": 109.9958333333335,
          "velocity": 1,
          "duration": 0.24583333333333712
        },
        {
          "name": "D3",
          "midi": 50,
          "time": 109.9958333333335,
          "velocity": 1,
          "duration": 0.25
        },
        {
          "name": "G2",
          "midi": 43,
          "time": 109.9958333333335,
          "velocity": 1,
          "duration": 0.25
        },
        {
          "name": "E2",
          "midi": 40,
          "time": 110.4958333333335,
          "velocity": 1,
          "duration": 0.24583333333333712
        },
        {
          "name": "E2",
          "midi": 40,
          "time": 110.4958333333335,
          "velocity": 1,
          "duration": 0.25
        },
        {
          "name": "E5",
          "midi": 76,
          "time": 110.50000000000016,
          "velocity": 0.8818897637795275,
          "duration": 0.4000000000000057
        },
        {
          "name": "E4",
          "midi": 64,
          "time": 110.5083333333335,
          "velocity": 1,
          "duration": 0.38750000000000284
        },
        {
          "name": "E2",
          "midi": 40,
          "time": 110.7458333333335,
          "velocity": 1,
          "duration": 0.24583333333333712
        },
        {
          "name": "E2",
          "midi": 40,
          "time": 110.7458333333335,
          "velocity": 1,
          "duration": 0.25
        },
        {
          "name": "E2",
          "midi": 40,
          "time": 110.9958333333335,
          "velocity": 1,
          "duration": 0.24583333333333712
        },
        {
          "name": "E2",
          "midi": 40,
          "time": 110.9958333333335,
          "velocity": 1,
          "duration": 0.25
        },
        {
          "name": "E5",
          "midi": 76,
          "time": 111.00000000000016,
          "velocity": 0.8818897637795275,
          "duration": 0.20000000000000284
        },
        {
          "name": "E4",
          "midi": 64,
          "time": 111.00416666666682,
          "velocity": 1,
          "duration": 0.22083333333334565
        },
        {
          "name": "E2",
          "midi": 40,
          "time": 111.2458333333335,
          "velocity": 1,
          "duration": 0.2458333333333229
        },
        {
          "name": "E2",
          "midi": 40,
          "time": 111.2458333333335,
          "velocity": 1,
          "duration": 0.2499999999999858
        },
        {
          "name": "E5",
          "midi": 76,
          "time": 111.25000000000016,
          "velocity": 0.889763779527559,
          "duration": 0.3999999999999915
        },
        {
          "name": "E4",
          "midi": 64,
          "time": 111.25000000000016,
          "velocity": 1,
          "duration": 0.3916666666666515
        },
        {
          "name": "E2",
          "midi": 40,
          "time": 111.49583333333348,
          "velocity": 1,
          "duration": 0.24583333333333712
        },
        {
          "name": "E2",
          "midi": 40,
          "time": 111.49583333333348,
          "velocity": 1,
          "duration": 0.25
        },
        {
          "name": "F#4",
          "midi": 66,
          "time": 111.74166666666682,
          "velocity": 1,
          "duration": 0.4083333333333172
        },
        {
          "name": "E2",
          "midi": 40,
          "time": 111.74583333333348,
          "velocity": 1,
          "duration": 0.2458333333333229
        },
        {
          "name": "E2",
          "midi": 40,
          "time": 111.74583333333348,
          "velocity": 1,
          "duration": 0.2499999999999858
        },
        {
          "name": "F#5",
          "midi": 78,
          "time": 111.75000000000014,
          "velocity": 0.9133858267716536,
          "duration": 0.3999999999999915
        },
        {
          "name": "E2",
          "midi": 40,
          "time": 111.99583333333347,
          "velocity": 1,
          "duration": 0.24583333333333712
        },
        {
          "name": "E2",
          "midi": 40,
          "time": 111.99583333333347,
          "velocity": 1,
          "duration": 0.25
        },
        {
          "name": "F#4",
          "midi": 66,
          "time": 112.23750000000014,
          "velocity": 1,
          "duration": 0.9833333333333059
        },
        {
          "name": "E2",
          "midi": 40,
          "time": 112.24583333333347,
          "velocity": 1,
          "duration": 0.2458333333333229
        },
        {
          "name": "E2",
          "midi": 40,
          "time": 112.24583333333347,
          "velocity": 1,
          "duration": 0.2499999999999858
        },
        {
          "name": "F#5",
          "midi": 78,
          "time": 112.25000000000013,
          "velocity": 0.9291338582677166,
          "duration": 0.9999999999999716
        },
        {
          "name": "E2",
          "midi": 40,
          "time": 112.49583333333345,
          "velocity": 1,
          "duration": 0.24583333333333712
        },
        {
          "name": "E2",
          "midi": 40,
          "time": 112.49583333333345,
          "velocity": 1,
          "duration": 0.25
        },
        {
          "name": "D3",
          "midi": 50,
          "time": 112.74583333333345,
          "velocity": 1,
          "duration": 0.24583333333333712
        },
        {
          "name": "G2",
          "midi": 43,
          "time": 112.74583333333345,
          "velocity": 1,
          "duration": 0.24583333333333712
        },
        {
          "name": "G2",
          "midi": 43,
          "time": 112.74583333333345,
          "velocity": 1,
          "duration": 0.25
        },
        {
          "name": "D3",
          "midi": 50,
          "time": 112.74583333333345,
          "velocity": 1,
          "duration": 0.25
        },
        {
          "name": "A2",
          "midi": 45,
          "time": 112.99583333333345,
          "velocity": 1,
          "duration": 0.2458333333333229
        },
        {
          "name": "E3",
          "midi": 52,
          "time": 112.99583333333345,
          "velocity": 1,
          "duration": 0.2458333333333229
        },
        {
          "name": "E3",
          "midi": 52,
          "time": 112.99583333333345,
          "velocity": 1,
          "duration": 0.2499999999999858
        },
        {
          "name": "A2",
          "midi": 45,
          "time": 112.99583333333345,
          "velocity": 1,
          "duration": 0.2499999999999858
        },
        {
          "name": "G2",
          "midi": 43,
          "time": 113.24583333333344,
          "velocity": 1,
          "duration": 0.2458333333333229
        },
        {
          "name": "D3",
          "midi": 50,
          "time": 113.24583333333344,
          "velocity": 1,
          "duration": 0.2458333333333229
        },
        {
          "name": "G2",
          "midi": 43,
          "time": 113.24583333333344,
          "velocity": 1,
          "duration": 0.2499999999999858
        },
        {
          "name": "D3",
          "midi": 50,
          "time": 113.24583333333344,
          "velocity": 1,
          "duration": 0.2499999999999858
        },
        {
          "name": "E3",
          "midi": 52,
          "time": 113.49583333333342,
          "velocity": 1,
          "duration": 0.2458333333333229
        },
        {
          "name": "A2",
          "midi": 45,
          "time": 113.49583333333342,
          "velocity": 1,
          "duration": 0.2458333333333229
        },
        {
          "name": "E3",
          "midi": 52,
          "time": 113.49583333333342,
          "velocity": 1,
          "duration": 0.2499999999999858
        },
        {
          "name": "A2",
          "midi": 45,
          "time": 113.49583333333342,
          "velocity": 1,
          "duration": 0.2499999999999858
        },
        {
          "name": "E4",
          "midi": 64,
          "time": 113.73750000000008,
          "velocity": 1,
          "duration": 0.979166666666643
        },
        {
          "name": "E2",
          "midi": 40,
          "time": 113.74583333333341,
          "velocity": 1,
          "duration": 0.2458333333333229
        },
        {
          "name": "E2",
          "midi": 40,
          "time": 113.74583333333341,
          "velocity": 1,
          "duration": 0.2499999999999858
        },
        {
          "name": "E5",
          "midi": 76,
          "time": 113.75000000000007,
          "velocity": 0.905511811023622,
          "duration": 0.9999999999999858
        },
        {
          "name": "E2",
          "midi": 40,
          "time": 113.9958333333334,
          "velocity": 1,
          "duration": 0.24583333333333712
        },
        {
          "name": "E2",
          "midi": 40,
          "time": 113.9958333333334,
          "velocity": 1,
          "duration": 0.25
        },
        {
          "name": "E2",
          "midi": 40,
          "time": 114.2458333333334,
          "velocity": 1,
          "duration": 0.24583333333333712
        },
        {
          "name": "E2",
          "midi": 40,
          "time": 114.2458333333334,
          "velocity": 1,
          "duration": 0.25
        },
        {
          "name": "E2",
          "midi": 40,
          "time": 114.4958333333334,
          "velocity": 1,
          "duration": 0.24583333333333712
        },
        {
          "name": "E2",
          "midi": 40,
          "time": 114.4958333333334,
          "velocity": 1,
          "duration": 0.25
        },
        {
          "name": "F#4",
          "midi": 66,
          "time": 114.7458333333334,
          "velocity": 1,
          "duration": 0.7333333333333201
        },
        {
          "name": "E2",
          "midi": 40,
          "time": 114.7458333333334,
          "velocity": 1,
          "duration": 0.2458333333333229
        },
        {
          "name": "E2",
          "midi": 40,
          "time": 114.7458333333334,
          "velocity": 1,
          "duration": 0.2499999999999858
        },
        {
          "name": "F#5",
          "midi": 78,
          "time": 114.75000000000006,
          "velocity": 0.8976377952755905,
          "duration": 0.7499999999999858
        },
        {
          "name": "E2",
          "midi": 40,
          "time": 114.99583333333338,
          "velocity": 1,
          "duration": 0.24583333333333712
        },
        {
          "name": "E2",
          "midi": 40,
          "time": 114.99583333333338,
          "velocity": 1,
          "duration": 0.25
        },
        {
          "name": "E2",
          "midi": 40,
          "time": 115.24583333333338,
          "velocity": 1,
          "duration": 0.24583333333333712
        },
        {
          "name": "E2",
          "midi": 40,
          "time": 115.24583333333338,
          "velocity": 1,
          "duration": 0.25
        },
        {
          "name": "G4",
          "midi": 67,
          "time": 115.48750000000005,
          "velocity": 1,
          "duration": 0.4999999999999716
        },
        {
          "name": "E2",
          "midi": 40,
          "time": 115.49583333333338,
          "velocity": 1,
          "duration": 0.2458333333333229
        },
        {
          "name": "E2",
          "midi": 40,
          "time": 115.49583333333338,
          "velocity": 1,
          "duration": 0.2499999999999858
        },
        {
          "name": "G5",
          "midi": 79,
          "time": 115.50000000000004,
          "velocity": 0.8976377952755905,
          "duration": 0.4999999999999716
        },
        {
          "name": "E2",
          "midi": 40,
          "time": 115.74583333333337,
          "velocity": 1,
          "duration": 0.2458333333333229
        },
        {
          "name": "E2",
          "midi": 40,
          "time": 115.74583333333337,
          "velocity": 1,
          "duration": 0.2499999999999858
        },
        {
          "name": "F#4",
          "midi": 66,
          "time": 115.98750000000003,
          "velocity": 1,
          "duration": 0.5166666666666373
        },
        {
          "name": "G2",
          "midi": 43,
          "time": 115.99583333333335,
          "velocity": 1,
          "duration": 0.2458333333333229
        },
        {
          "name": "D3",
          "midi": 50,
          "time": 115.99583333333335,
          "velocity": 1,
          "duration": 0.2458333333333229
        },
        {
          "name": "G2",
          "midi": 43,
          "time": 115.99583333333335,
          "velocity": 1,
          "duration": 0.2499999999999858
        },
        {
          "name": "D3",
          "midi": 50,
          "time": 115.99583333333335,
          "velocity": 1,
          "duration": 0.2499999999999858
        },
        {
          "name": "F#5",
          "midi": 78,
          "time": 116.00000000000001,
          "velocity": 0.8976377952755905,
          "duration": 0.4999999999999858
        },
        {
          "name": "E3",
          "midi": 52,
          "time": 116.24583333333334,
          "velocity": 1,
          "duration": 0.24583333333333712
        },
        {
          "name": "A2",
          "midi": 45,
          "time": 116.24583333333334,
          "velocity": 1,
          "duration": 0.24583333333333712
        },
        {
          "name": "E3",
          "midi": 52,
          "time": 116.24583333333334,
          "velocity": 1,
          "duration": 0.25
        },
        {
          "name": "A2",
          "midi": 45,
          "time": 116.24583333333334,
          "velocity": 1,
          "duration": 0.25
        },
        {
          "name": "E2",
          "midi": 40,
          "time": 116.49583333333334,
          "velocity": 1,
          "duration": 0.2458333333333229
        },
        {
          "name": "E2",
          "midi": 40,
          "time": 116.49583333333334,
          "velocity": 1,
          "duration": 0.2499999999999858
        },
        {
          "name": "E5",
          "midi": 76,
          "time": 116.5,
          "velocity": 0.889763779527559,
          "duration": 0.4999999999999716
        },
        {
          "name": "E4",
          "midi": 64,
          "time": 116.50833333333333,
          "velocity": 1,
          "duration": 0.4791666666666572
        },
        {
          "name": "F3",
          "midi": 53,
          "time": 116.74583333333332,
          "velocity": 1,
          "duration": 0.2458333333333229
        },
        {
          "name": "A#2",
          "midi": 46,
          "time": 116.74583333333332,
          "velocity": 1,
          "duration": 0.2458333333333229
        },
        {
          "name": "F3",
          "midi": 53,
          "time": 116.74583333333332,
          "velocity": 1,
          "duration": 0.2499999999999858
        },
        {
          "name": "A#2",
          "midi": 46,
          "time": 116.74583333333332,
          "velocity": 1,
          "duration": 0.2499999999999858
        },
        {
          "name": "D4",
          "midi": 62,
          "time": 116.99583333333331,
          "velocity": 1,
          "duration": 0.5166666666666373
        },
        {
          "name": "E3",
          "midi": 52,
          "time": 116.99583333333331,
          "velocity": 1,
          "duration": 0.2458333333333229
        },
        {
          "name": "A2",
          "midi": 45,
          "time": 116.99583333333331,
          "velocity": 1,
          "duration": 0.2458333333333229
        },
        {
          "name": "E3",
          "midi": 52,
          "time": 116.99583333333331,
          "velocity": 1,
          "duration": 0.2499999999999858
        },
        {
          "name": "A2",
          "midi": 45,
          "time": 116.99583333333331,
          "velocity": 1,
          "duration": 0.2499999999999858
        },
        {
          "name": "D5",
          "midi": 74,
          "time": 116.99999999999997,
          "velocity": 0.9212598425196851,
          "duration": 0.4999999999999716
        },
        {
          "name": "G2",
          "midi": 43,
          "time": 117.2458333333333,
          "velocity": 1,
          "duration": 0.2458333333333229
        },
        {
          "name": "D3",
          "midi": 50,
          "time": 117.2458333333333,
          "velocity": 1,
          "duration": 0.2458333333333229
        },
        {
          "name": "G2",
          "midi": 43,
          "time": 117.2458333333333,
          "velocity": 1,
          "duration": 0.2499999999999858
        },
        {
          "name": "D3",
          "midi": 50,
          "time": 117.2458333333333,
          "velocity": 1,
          "duration": 0.2499999999999858
        },
        {
          "name": "G4",
          "midi": 67,
          "time": 117.48749999999995,
          "velocity": 1,
          "duration": 0.4958333333333229
        },
        {
          "name": "G5",
          "midi": 79,
          "time": 117.49999999999994,
          "velocity": 0.9133858267716536,
          "duration": 0.4999999999999858
        },
        {
          "name": "E2",
          "midi": 40,
          "time": 117.74583333333328,
          "velocity": 1,
          "duration": 0.2458333333333229
        },
        {
          "name": "E2",
          "midi": 40,
          "time": 117.74583333333328,
          "velocity": 1,
          "duration": 0.2499999999999858
        },
        {
          "name": "F#4",
          "midi": 66,
          "time": 117.98749999999994,
          "velocity": 1,
          "duration": 0.7249999999999801
        },
        {
          "name": "E2",
          "midi": 40,
          "time": 117.99583333333327,
          "velocity": 1,
          "duration": 0.2458333333333229
        },
        {
          "name": "E2",
          "midi": 40,
          "time": 117.99583333333327,
          "velocity": 1,
          "duration": 0.2499999999999858
        },
        {
          "name": "F#5",
          "midi": 78,
          "time": 117.99999999999993,
          "velocity": 0.889763779527559,
          "duration": 0.7499999999999858
        },
        {
          "name": "E2",
          "midi": 40,
          "time": 118.24583333333325,
          "velocity": 1,
          "duration": 0.24583333333333712
        },
        {
          "name": "E2",
          "midi": 40,
          "time": 118.24583333333325,
          "velocity": 1,
          "duration": 0.25
        },
        {
          "name": "E2",
          "midi": 40,
          "time": 118.49583333333325,
          "velocity": 1,
          "duration": 0.24583333333333712
        },
        {
          "name": "E2",
          "midi": 40,
          "time": 118.49583333333325,
          "velocity": 1,
          "duration": 0.25
        },
        {
          "name": "E2",
          "midi": 40,
          "time": 118.74583333333325,
          "velocity": 1,
          "duration": 0.2458333333333229
        },
        {
          "name": "E2",
          "midi": 40,
          "time": 118.74583333333325,
          "velocity": 1,
          "duration": 0.2499999999999858
        },
        {
          "name": "E2",
          "midi": 40,
          "time": 118.99583333333324,
          "velocity": 1,
          "duration": 0.24583333333333712
        },
        {
          "name": "E2",
          "midi": 40,
          "time": 118.99583333333324,
          "velocity": 1,
          "duration": 0.25
        },
        {
          "name": "E2",
          "midi": 40,
          "time": 119.24583333333324,
          "velocity": 1,
          "duration": 0.24583333333333712
        },
        {
          "name": "E2",
          "midi": 40,
          "time": 119.24583333333324,
          "velocity": 1,
          "duration": 0.25
        },
        {
          "name": "E2",
          "midi": 40,
          "time": 119.49583333333324,
          "velocity": 1,
          "duration": 0.24583333333333712
        },
        {
          "name": "E2",
          "midi": 40,
          "time": 119.49583333333324,
          "velocity": 1,
          "duration": 0.25
        },
        {
          "name": "E2",
          "midi": 40,
          "time": 119.74583333333324,
          "velocity": 1,
          "duration": 0.24583333333333712
        },
        {
          "name": "E2",
          "midi": 40,
          "time": 119.74583333333324,
          "velocity": 1,
          "duration": 0.25
        },
        {
          "name": "G2",
          "midi": 43,
          "time": 119.99583333333324,
          "velocity": 1,
          "duration": 0.24583333333333712
        },
        {
          "name": "D3",
          "midi": 50,
          "time": 119.99583333333324,
          "velocity": 1,
          "duration": 0.24583333333333712
        },
        {
          "name": "G2",
          "midi": 43,
          "time": 119.99583333333324,
          "velocity": 1,
          "duration": 0.25
        },
        {
          "name": "D3",
          "midi": 50,
          "time": 119.99583333333324,
          "velocity": 1,
          "duration": 0.25
        },
        {
          "name": "A2",
          "midi": 45,
          "time": 120.24583333333324,
          "velocity": 1,
          "duration": 0.24583333333333712
        },
        {
          "name": "E3",
          "midi": 52,
          "time": 120.24583333333324,
          "velocity": 1,
          "duration": 0.24583333333333712
        },
        {
          "name": "A2",
          "midi": 45,
          "time": 120.24583333333324,
          "velocity": 1,
          "duration": 0.25
        },
        {
          "name": "E3",
          "midi": 52,
          "time": 120.24583333333324,
          "velocity": 1,
          "duration": 0.25
        },
        {
          "name": "D3",
          "midi": 50,
          "time": 120.49583333333324,
          "velocity": 1,
          "duration": 0.24583333333333712
        },
        {
          "name": "G2",
          "midi": 43,
          "time": 120.49583333333324,
          "velocity": 1,
          "duration": 0.24583333333333712
        },
        {
          "name": "G2",
          "midi": 43,
          "time": 120.49583333333324,
          "velocity": 1,
          "duration": 0.25
        },
        {
          "name": "D3",
          "midi": 50,
          "time": 120.49583333333324,
          "velocity": 1,
          "duration": 0.25
        },
        {
          "name": "E3",
          "midi": 52,
          "time": 120.74583333333324,
          "velocity": 1,
          "duration": 0.2458333333333229
        },
        {
          "name": "A2",
          "midi": 45,
          "time": 120.74583333333324,
          "velocity": 1,
          "duration": 0.2458333333333229
        },
        {
          "name": "E3",
          "midi": 52,
          "time": 120.74583333333324,
          "velocity": 1,
          "duration": 0.2499999999999858
        },
        {
          "name": "A2",
          "midi": 45,
          "time": 120.74583333333324,
          "velocity": 1,
          "duration": 0.2499999999999858
        },
        {
          "name": "G4",
          "midi": 67,
          "time": 120.9874999999999,
          "velocity": 1,
          "duration": 0.5124999999999744
        },
        {
          "name": "E2",
          "midi": 40,
          "time": 120.99583333333322,
          "velocity": 1,
          "duration": 0.2458333333333229
        },
        {
          "name": "E2",
          "midi": 40,
          "time": 120.99583333333322,
          "velocity": 1,
          "duration": 0.2499999999999858
        },
        {
          "name": "G5",
          "midi": 79,
          "time": 120.99999999999989,
          "velocity": 0.905511811023622,
          "duration": 0.4999999999999858
        },
        {
          "name": "E2",
          "midi": 40,
          "time": 121.24583333333321,
          "velocity": 1,
          "duration": 0.24583333333333712
        },
        {
          "name": "E2",
          "midi": 40,
          "time": 121.24583333333321,
          "velocity": 1,
          "duration": 0.25
        },
        {
          "name": "G4",
          "midi": 67,
          "time": 121.49583333333321,
          "velocity": 1,
          "duration": 0.23333333333333428
        },
        {
          "name": "E2",
          "midi": 40,
          "time": 121.49583333333321,
          "velocity": 1,
          "duration": 0.24583333333333712
        },
        {
          "name": "E2",
          "midi": 40,
          "time": 121.49583333333321,
          "velocity": 1,
          "duration": 0.25
        },
        {
          "name": "G5",
          "midi": 79,
          "time": 121.49999999999987,
          "velocity": 0.9212598425196851,
          "duration": 0.25
        },
        {
          "name": "E2",
          "midi": 40,
          "time": 121.74583333333321,
          "velocity": 1,
          "duration": 0.2458333333333229
        },
        {
          "name": "E2",
          "midi": 40,
          "time": 121.74583333333321,
          "velocity": 1,
          "duration": 0.2499999999999858
        },
        {
          "name": "G5",
          "midi": 79,
          "time": 121.74999999999987,
          "velocity": 0.9212598425196851,
          "duration": 0.4999999999999858
        },
        {
          "name": "G4",
          "midi": 67,
          "time": 121.74999999999987,
          "velocity": 1,
          "duration": 0.5208333333333144
        },
        {
          "name": "E2",
          "midi": 40,
          "time": 121.9958333333332,
          "velocity": 1,
          "duration": 0.24583333333333712
        },
        {
          "name": "E2",
          "midi": 40,
          "time": 121.9958333333332,
          "velocity": 1,
          "duration": 0.25
        },
        {
          "name": "E2",
          "midi": 40,
          "time": 122.2458333333332,
          "velocity": 1,
          "duration": 0.2458333333333229
        },
        {
          "name": "E2",
          "midi": 40,
          "time": 122.2458333333332,
          "velocity": 1,
          "duration": 0.2499999999999858
        },
        {
          "name": "E5",
          "midi": 76,
          "time": 122.24999999999986,
          "velocity": 0.9133858267716536,
          "duration": 0.4999999999999858
        },
        {
          "name": "E4",
          "midi": 64,
          "time": 122.24999999999986,
          "velocity": 1,
          "duration": 0.5124999999999886
        },
        {
          "name": "E2",
          "midi": 40,
          "time": 122.49583333333318,
          "velocity": 1,
          "duration": 0.24583333333333712
        },
        {
          "name": "E2",
          "midi": 40,
          "time": 122.49583333333318,
          "velocity": 1,
          "duration": 0.25
        },
        {
          "name": "E2",
          "midi": 40,
          "time": 122.74583333333318,
          "velocity": 1,
          "duration": 0.24583333333333712
        },
        {
          "name": "E2",
          "midi": 40,
          "time": 122.74583333333318,
          "velocity": 1,
          "duration": 0.25
        },
        {
          "name": "E5",
          "midi": 76,
          "time": 122.74999999999984,
          "velocity": 0.889763779527559,
          "duration": 1.25
        },
        {
          "name": "E4",
          "midi": 64,
          "time": 122.74999999999984,
          "velocity": 1,
          "duration": 1.2666666666666657
        },
        {
          "name": "E2",
          "midi": 40,
          "time": 122.99583333333318,
          "velocity": 1,
          "duration": 0.24583333333333712
        },
        {
          "name": "E2",
          "midi": 40,
          "time": 122.99583333333318,
          "velocity": 1,
          "duration": 0.25
        },
        {
          "name": "G2",
          "midi": 43,
          "time": 123.24583333333318,
          "velocity": 1,
          "duration": 0.24583333333333712
        },
        {
          "name": "D3",
          "midi": 50,
          "time": 123.24583333333318,
          "velocity": 1,
          "duration": 0.24583333333333712
        },
        {
          "name": "G2",
          "midi": 43,
          "time": 123.24583333333318,
          "velocity": 1,
          "duration": 0.25
        },
        {
          "name": "D3",
          "midi": 50,
          "time": 123.24583333333318,
          "velocity": 1,
          "duration": 0.25
        },
        {
          "name": "E3",
          "midi": 52,
          "time": 123.49583333333318,
          "velocity": 1,
          "duration": 0.24583333333333712
        },
        {
          "name": "A2",
          "midi": 45,
          "time": 123.49583333333318,
          "velocity": 1,
          "duration": 0.24583333333333712
        },
        {
          "name": "E3",
          "midi": 52,
          "time": 123.49583333333318,
          "velocity": 1,
          "duration": 0.25
        },
        {
          "name": "A2",
          "midi": 45,
          "time": 123.49583333333318,
          "velocity": 1,
          "duration": 0.25
        },
        {
          "name": "E2",
          "midi": 40,
          "time": 123.74583333333318,
          "velocity": 1,
          "duration": 0.24583333333333712
        },
        {
          "name": "E2",
          "midi": 40,
          "time": 123.74583333333318,
          "velocity": 1,
          "duration": 0.25
        },
        {
          "name": "A#2",
          "midi": 46,
          "time": 123.99583333333318,
          "velocity": 1,
          "duration": 0.2458333333333229
        },
        {
          "name": "F3",
          "midi": 53,
          "time": 123.99583333333318,
          "velocity": 1,
          "duration": 0.2458333333333229
        },
        {
          "name": "F3",
          "midi": 53,
          "time": 123.99583333333318,
          "velocity": 1,
          "duration": 0.2499999999999858
        },
        {
          "name": "A#2",
          "midi": 46,
          "time": 123.99583333333318,
          "velocity": 1,
          "duration": 0.2499999999999858
        },
        {
          "name": "A2",
          "midi": 45,
          "time": 124.24583333333317,
          "velocity": 1,
          "duration": 0.24583333333333712
        },
        {
          "name": "E3",
          "midi": 52,
          "time": 124.24583333333317,
          "velocity": 1,
          "duration": 0.24583333333333712
        },
        {
          "name": "E3",
          "midi": 52,
          "time": 124.24583333333317,
          "velocity": 1,
          "duration": 0.25
        },
        {
          "name": "A2",
          "midi": 45,
          "time": 124.24583333333317,
          "velocity": 1,
          "duration": 0.25
        },
        {
          "name": "D3",
          "midi": 50,
          "time": 124.49583333333317,
          "velocity": 1,
          "duration": 0.24583333333333712
        },
        {
          "name": "G2",
          "midi": 43,
          "time": 124.49583333333317,
          "velocity": 1,
          "duration": 0.24583333333333712
        },
        {
          "name": "D3",
          "midi": 50,
          "time": 124.49583333333317,
          "velocity": 1,
          "duration": 0.25
        },
        {
          "name": "G2",
          "midi": 43,
          "time": 124.49583333333317,
          "velocity": 1,
          "duration": 0.25
        },
        {
          "name": "E2",
          "midi": 40,
          "time": 124.99583333333317,
          "velocity": 1,
          "duration": 0.2458333333333229
        },
        {
          "name": "E2",
          "midi": 40,
          "time": 124.99583333333317,
          "velocity": 1,
          "duration": 0.2499999999999858
        },
        {
          "name": "E5",
          "midi": 76,
          "time": 124.99999999999983,
          "velocity": 0.937007874015748,
          "duration": 0.2499999999999858
        },
        {
          "name": "E4",
          "midi": 64,
          "time": 124.99999999999983,
          "velocity": 1,
          "duration": 0.23333333333333428
        },
        {
          "name": "E4",
          "midi": 64,
          "time": 125.23749999999983,
          "velocity": 1,
          "duration": 0.4958333333333087
        },
        {
          "name": "E2",
          "midi": 40,
          "time": 125.24583333333315,
          "velocity": 1,
          "duration": 0.2458333333333229
        },
        {
          "name": "E2",
          "midi": 40,
          "time": 125.24583333333315,
          "velocity": 1,
          "duration": 0.2499999999999858
        },
        {
          "name": "E5",
          "midi": 76,
          "time": 125.24999999999982,
          "velocity": 0.9133858267716536,
          "duration": 0.4999999999999858
        },
        {
          "name": "E2",
          "midi": 40,
          "time": 125.49583333333314,
          "velocity": 1,
          "duration": 0.24583333333333712
        },
        {
          "name": "E2",
          "midi": 40,
          "time": 125.49583333333314,
          "velocity": 1,
          "duration": 0.25
        },
        {
          "name": "E2",
          "midi": 40,
          "time": 125.74583333333314,
          "velocity": 1,
          "duration": 0.2458333333333229
        },
        {
          "name": "E2",
          "midi": 40,
          "time": 125.74583333333314,
          "velocity": 1,
          "duration": 0.2499999999999858
        },
        {
          "name": "E5",
          "midi": 76,
          "time": 125.7499999999998,
          "velocity": 0.9448818897637795,
          "duration": 0.4999999999999858
        },
        {
          "name": "E4",
          "midi": 64,
          "time": 125.7499999999998,
          "velocity": 1,
          "duration": 0.4749999999999943
        },
        {
          "name": "E2",
          "midi": 40,
          "time": 125.99583333333312,
          "velocity": 1,
          "duration": 0.24583333333333712
        },
        {
          "name": "E2",
          "midi": 40,
          "time": 125.99583333333312,
          "velocity": 1,
          "duration": 0.25
        },
        {
          "name": "F#4",
          "midi": 66,
          "time": 126.24583333333312,
          "velocity": 1,
          "duration": 0.26249999999998863
        },
        {
          "name": "E2",
          "midi": 40,
          "time": 126.24583333333312,
          "velocity": 1,
          "duration": 0.2458333333333229
        },
        {
          "name": "E2",
          "midi": 40,
          "time": 126.24583333333312,
          "velocity": 1,
          "duration": 0.2499999999999858
        },
        {
          "name": "F#5",
          "midi": 78,
          "time": 126.24999999999979,
          "velocity": 0.9448818897637795,
          "duration": 0.2499999999999858
        },
        {
          "name": "E2",
          "midi": 40,
          "time": 126.49583333333311,
          "velocity": 1,
          "duration": 0.24583333333333712
        },
        {
          "name": "E2",
          "midi": 40,
          "time": 126.49583333333311,
          "velocity": 1,
          "duration": 0.25
        },
        {
          "name": "G4",
          "midi": 67,
          "time": 126.74583333333311,
          "velocity": 1,
          "duration": 1.2291666666666572
        },
        {
          "name": "E2",
          "midi": 40,
          "time": 126.74583333333311,
          "velocity": 1,
          "duration": 0.2458333333333229
        },
        {
          "name": "E2",
          "midi": 40,
          "time": 126.74583333333311,
          "velocity": 1,
          "duration": 0.2499999999999858
        },
        {
          "name": "G5",
          "midi": 79,
          "time": 126.74999999999977,
          "velocity": 0.9448818897637795,
          "duration": 1.2499999999999858
        },
        {
          "name": "E2",
          "midi": 40,
          "time": 126.9958333333331,
          "velocity": 1,
          "duration": 0.24583333333333712
        },
        {
          "name": "E2",
          "midi": 40,
          "time": 126.9958333333331,
          "velocity": 1,
          "duration": 0.25
        },
        {
          "name": "G2",
          "midi": 43,
          "time": 127.2458333333331,
          "velocity": 1,
          "duration": 0.24583333333333712
        },
        {
          "name": "D3",
          "midi": 50,
          "time": 127.2458333333331,
          "velocity": 1,
          "duration": 0.24583333333333712
        },
        {
          "name": "D3",
          "midi": 50,
          "time": 127.2458333333331,
          "velocity": 1,
          "duration": 0.25
        },
        {
          "name": "G2",
          "midi": 43,
          "time": 127.2458333333331,
          "velocity": 1,
          "duration": 0.25
        },
        {
          "name": "E3",
          "midi": 52,
          "time": 127.4958333333331,
          "velocity": 1,
          "duration": 0.24583333333333712
        },
        {
          "name": "A2",
          "midi": 45,
          "time": 127.4958333333331,
          "velocity": 1,
          "duration": 0.24583333333333712
        },
        {
          "name": "E3",
          "midi": 52,
          "time": 127.4958333333331,
          "velocity": 1,
          "duration": 0.25
        },
        {
          "name": "A2",
          "midi": 45,
          "time": 127.4958333333331,
          "velocity": 1,
          "duration": 0.25
        },
        {
          "name": "G2",
          "midi": 43,
          "time": 127.7458333333331,
          "velocity": 1,
          "duration": 0.24583333333333712
        },
        {
          "name": "D3",
          "midi": 50,
          "time": 127.7458333333331,
          "velocity": 1,
          "duration": 0.24583333333333712
        },
        {
          "name": "D3",
          "midi": 50,
          "time": 127.7458333333331,
          "velocity": 1,
          "duration": 0.25
        },
        {
          "name": "G2",
          "midi": 43,
          "time": 127.7458333333331,
          "velocity": 1,
          "duration": 0.25
        },
        {
          "name": "A2",
          "midi": 45,
          "time": 127.9958333333331,
          "velocity": 1,
          "duration": 0.2458333333333229
        },
        {
          "name": "E3",
          "midi": 52,
          "time": 127.9958333333331,
          "velocity": 1,
          "duration": 0.2458333333333229
        },
        {
          "name": "A2",
          "midi": 45,
          "time": 127.9958333333331,
          "velocity": 1,
          "duration": 0.2499999999999858
        },
        {
          "name": "E3",
          "midi": 52,
          "time": 127.9958333333331,
          "velocity": 1,
          "duration": 0.2499999999999858
        },
        {
          "name": "E4",
          "midi": 64,
          "time": 128.23749999999976,
          "velocity": 1,
          "duration": 0.9916666666666458
        },
        {
          "name": "E2",
          "midi": 40,
          "time": 128.24583333333308,
          "velocity": 1,
          "duration": 0.24583333333333712
        },
        {
          "name": "E2",
          "midi": 40,
          "time": 128.24583333333308,
          "velocity": 1,
          "duration": 0.25
        },
        {
          "name": "E5",
          "midi": 76,
          "time": 128.24999999999974,
          "velocity": 0.8818897637795275,
          "duration": 0.9999999999999716
        },
        {
          "name": "E2",
          "midi": 40,
          "time": 128.49583333333308,
          "velocity": 1,
          "duration": 0.24583333333333712
        },
        {
          "name": "E2",
          "midi": 40,
          "time": 128.49583333333308,
          "velocity": 1,
          "duration": 0.25
        },
        {
          "name": "E2",
          "midi": 40,
          "time": 128.74583333333308,
          "velocity": 1,
          "duration": 0.24583333333333712
        },
        {
          "name": "E2",
          "midi": 40,
          "time": 128.74583333333308,
          "velocity": 1,
          "duration": 0.25
        },
        {
          "name": "E2",
          "midi": 40,
          "time": 128.99583333333308,
          "velocity": 1,
          "duration": 0.2458333333333087
        },
        {
          "name": "E2",
          "midi": 40,
          "time": 128.99583333333308,
          "velocity": 1,
          "duration": 0.24999999999997158
        },
        {
          "name": "E2",
          "midi": 40,
          "time": 129.24583333333305,
          "velocity": 1,
          "duration": 0.24583333333333712
        },
        {
          "name": "E2",
          "midi": 40,
          "time": 129.24583333333305,
          "velocity": 1,
          "duration": 0.25
        },
        {
          "name": "F#5",
          "midi": 78,
          "time": 129.24999999999972,
          "velocity": 0.9212598425196851,
          "duration": 0.75
        },
        {
          "name": "F#4",
          "midi": 66,
          "time": 129.24999999999972,
          "velocity": 1,
          "duration": 0.7375000000000114
        },
        {
          "name": "E2",
          "midi": 40,
          "time": 129.49583333333305,
          "velocity": 1,
          "duration": 0.24583333333333712
        },
        {
          "name": "E2",
          "midi": 40,
          "time": 129.49583333333305,
          "velocity": 1,
          "duration": 0.25
        },
        {
          "name": "E2",
          "midi": 40,
          "time": 129.74583333333305,
          "velocity": 1,
          "duration": 0.24583333333333712
        },
        {
          "name": "E2",
          "midi": 40,
          "time": 129.74583333333305,
          "velocity": 1,
          "duration": 0.25
        },
        {
          "name": "E2",
          "midi": 40,
          "time": 129.99583333333305,
          "velocity": 1,
          "duration": 0.24583333333333712
        },
        {
          "name": "E2",
          "midi": 40,
          "time": 129.99583333333305,
          "velocity": 1,
          "duration": 0.25
        },
        {
          "name": "G5",
          "midi": 79,
          "time": 129.99999999999972,
          "velocity": 0.937007874015748,
          "duration": 0.5
        },
        {
          "name": "G4",
          "midi": 67,
          "time": 130.00416666666638,
          "velocity": 1,
          "duration": 0.5208333333333428
        },
        {
          "name": "E2",
          "midi": 40,
          "time": 130.24583333333305,
          "velocity": 1,
          "duration": 0.24583333333333712
        },
        {
          "name": "E2",
          "midi": 40,
          "time": 130.24583333333305,
          "velocity": 1,
          "duration": 0.25
        },
        {
          "name": "D3",
          "midi": 50,
          "time": 130.49583333333305,
          "velocity": 1,
          "duration": 0.24583333333333712
        },
        {
          "name": "G2",
          "midi": 43,
          "time": 130.49583333333305,
          "velocity": 1,
          "duration": 0.24583333333333712
        },
        {
          "name": "G2",
          "midi": 43,
          "time": 130.49583333333305,
          "velocity": 1,
          "duration": 0.25
        },
        {
          "name": "D3",
          "midi": 50,
          "time": 130.49583333333305,
          "velocity": 1,
          "duration": 0.25
        },
        {
          "name": "F#5",
          "midi": 78,
          "time": 130.49999999999972,
          "velocity": 0.952755905511811,
          "duration": 0.4999999999999716
        },
        {
          "name": "F#4",
          "midi": 66,
          "time": 130.50416666666638,
          "velocity": 1,
          "duration": 0.4749999999999943
        },
        {
          "name": "E3",
          "midi": 52,
          "time": 130.74583333333305,
          "velocity": 1,
          "duration": 0.2458333333333087
        },
        {
          "name": "A2",
          "midi": 45,
          "time": 130.74583333333305,
          "velocity": 1,
          "duration": 0.2458333333333087
        },
        {
          "name": "A2",
          "midi": 45,
          "time": 130.74583333333305,
          "velocity": 1,
          "duration": 0.24999999999997158
        },
        {
          "name": "E3",
          "midi": 52,
          "time": 130.74583333333305,
          "velocity": 1,
          "duration": 0.24999999999997158
        },
        {
          "name": "E2",
          "midi": 40,
          "time": 130.99583333333302,
          "velocity": 1,
          "duration": 0.24583333333333712
        },
        {
          "name": "E2",
          "midi": 40,
          "time": 130.99583333333302,
          "velocity": 1,
          "duration": 0.25
        },
        {
          "name": "E5",
          "midi": 76,
          "time": 130.9999999999997,
          "velocity": 0.952755905511811,
          "duration": 0.5
        },
        {
          "name": "E4",
          "midi": 64,
          "time": 130.9999999999997,
          "velocity": 1,
          "duration": 0.48750000000001137
        },
        {
          "name": "A#2",
          "midi": 46,
          "time": 131.24583333333302,
          "velocity": 1,
          "duration": 0.24583333333333712
        },
        {
          "name": "F3",
          "midi": 53,
          "time": 131.24583333333302,
          "velocity": 1,
          "duration": 0.24583333333333712
        },
        {
          "name": "F3",
          "midi": 53,
          "time": 131.24583333333302,
          "velocity": 1,
          "duration": 0.25
        },
        {
          "name": "A#2",
          "midi": 46,
          "time": 131.24583333333302,
          "velocity": 1,
          "duration": 0.25
        },
        {
          "name": "D4",
          "midi": 62,
          "time": 131.49166666666636,
          "velocity": 1,
          "duration": 0.48333333333332007
        },
        {
          "name": "E3",
          "midi": 52,
          "time": 131.49583333333302,
          "velocity": 1,
          "duration": 0.24583333333333712
        },
        {
          "name": "A2",
          "midi": 45,
          "time": 131.49583333333302,
          "velocity": 1,
          "duration": 0.24583333333333712
        },
        {
          "name": "E3",
          "midi": 52,
          "time": 131.49583333333302,
          "velocity": 1,
          "duration": 0.25
        },
        {
          "name": "A2",
          "midi": 45,
          "time": 131.49583333333302,
          "velocity": 1,
          "duration": 0.25
        },
        {
          "name": "D5",
          "midi": 74,
          "time": 131.4999999999997,
          "velocity": 0.952755905511811,
          "duration": 0.5
        },
        {
          "name": "D3",
          "midi": 50,
          "time": 131.74583333333302,
          "velocity": 1,
          "duration": 0.24583333333333712
        },
        {
          "name": "G2",
          "midi": 43,
          "time": 131.74583333333302,
          "velocity": 1,
          "duration": 0.24583333333333712
        },
        {
          "name": "G2",
          "midi": 43,
          "time": 131.74583333333302,
          "velocity": 1,
          "duration": 0.25
        },
        {
          "name": "D3",
          "midi": 50,
          "time": 131.74583333333302,
          "velocity": 1,
          "duration": 0.25
        },
        {
          "name": "G5",
          "midi": 79,
          "time": 131.9999999999997,
          "velocity": 0.952755905511811,
          "duration": 0.5
        },
        {
          "name": "G4",
          "midi": 67,
          "time": 132.008333333333,
          "velocity": 1,
          "duration": 0.4833333333333485
        },
        {
          "name": "E2",
          "midi": 40,
          "time": 132.24583333333302,
          "velocity": 1,
          "duration": 0.24583333333333712
        },
        {
          "name": "E2",
          "midi": 40,
          "time": 132.24583333333302,
          "velocity": 1,
          "duration": 0.25
        },
        {
          "name": "E2",
          "midi": 40,
          "time": 132.49583333333302,
          "velocity": 1,
          "duration": 0.24583333333333712
        },
        {
          "name": "E2",
          "midi": 40,
          "time": 132.49583333333302,
          "velocity": 1,
          "duration": 0.25
        },
        {
          "name": "F#5",
          "midi": 78,
          "time": 132.4999999999997,
          "velocity": 0.9448818897637795,
          "duration": 0.75
        },
        {
          "name": "F#4",
          "midi": 66,
          "time": 132.50416666666635,
          "velocity": 1,
          "duration": 0.7291666666666856
        },
        {
          "name": "E2",
          "midi": 40,
          "time": 132.74583333333302,
          "velocity": 1,
          "duration": 0.24583333333333712
        },
        {
          "name": "E2",
          "midi": 40,
          "time": 132.74583333333302,
          "velocity": 1,
          "duration": 0.25
        },
        {
          "name": "E2",
          "midi": 40,
          "time": 132.99583333333302,
          "velocity": 1,
          "duration": 0.24583333333333712
        },
        {
          "name": "E2",
          "midi": 40,
          "time": 132.99583333333302,
          "velocity": 1,
          "duration": 0.25
        },
        {
          "name": "E2",
          "midi": 40,
          "time": 133.24583333333302,
          "velocity": 1,
          "duration": 0.24583333333333712
        },
        {
          "name": "E2",
          "midi": 40,
          "time": 133.24583333333302,
          "velocity": 1,
          "duration": 0.25
        },
        {
          "name": "E2",
          "midi": 40,
          "time": 133.49583333333302,
          "velocity": 1,
          "duration": 0.24583333333333712
        },
        {
          "name": "E2",
          "midi": 40,
          "time": 133.49583333333302,
          "velocity": 1,
          "duration": 0.25
        },
        {
          "name": "E2",
          "midi": 40,
          "time": 133.74583333333302,
          "velocity": 1,
          "duration": 0.24583333333333712
        },
        {
          "name": "E2",
          "midi": 40,
          "time": 133.74583333333302,
          "velocity": 1,
          "duration": 0.25
        },
        {
          "name": "E2",
          "midi": 40,
          "time": 133.99583333333302,
          "velocity": 1,
          "duration": 0.24583333333333712
        },
        {
          "name": "E2",
          "midi": 40,
          "time": 133.99583333333302,
          "velocity": 1,
          "duration": 0.25
        },
        {
          "name": "E2",
          "midi": 40,
          "time": 134.24583333333302,
          "velocity": 1,
          "duration": 0.24583333333333712
        },
        {
          "name": "E2",
          "midi": 40,
          "time": 134.24583333333302,
          "velocity": 1,
          "duration": 0.25
        },
        {
          "name": "G2",
          "midi": 43,
          "time": 134.49583333333302,
          "velocity": 1,
          "duration": 0.24583333333333712
        },
        {
          "name": "D3",
          "midi": 50,
          "time": 134.49583333333302,
          "velocity": 1,
          "duration": 0.24583333333333712
        },
        {
          "name": "D3",
          "midi": 50,
          "time": 134.49583333333302,
          "velocity": 1,
          "duration": 0.25
        },
        {
          "name": "G2",
          "midi": 43,
          "time": 134.49583333333302,
          "velocity": 1,
          "duration": 0.25
        },
        {
          "name": "E3",
          "midi": 52,
          "time": 134.74583333333302,
          "velocity": 1,
          "duration": 0.24583333333333712
        },
        {
          "name": "A2",
          "midi": 45,
          "time": 134.74583333333302,
          "velocity": 1,
          "duration": 0.24583333333333712
        },
        {
          "name": "A2",
          "midi": 45,
          "time": 134.74583333333302,
          "velocity": 1,
          "duration": 0.25
        },
        {
          "name": "E3",
          "midi": 52,
          "time": 134.74583333333302,
          "velocity": 1,
          "duration": 0.25
        },
        {
          "name": "G2",
          "midi": 43,
          "time": 134.99583333333302,
          "velocity": 1,
          "duration": 0.24583333333333712
        },
        {
          "name": "D3",
          "midi": 50,
          "time": 134.99583333333302,
          "velocity": 1,
          "duration": 0.24583333333333712
        },
        {
          "name": "D3",
          "midi": 50,
          "time": 134.99583333333302,
          "velocity": 1,
          "duration": 0.25
        },
        {
          "name": "G2",
          "midi": 43,
          "time": 134.99583333333302,
          "velocity": 1,
          "duration": 0.25
        },
        {
          "name": "A2",
          "midi": 45,
          "time": 135.24583333333302,
          "velocity": 1,
          "duration": 0.24583333333333712
        },
        {
          "name": "E3",
          "midi": 52,
          "time": 135.24583333333302,
          "velocity": 1,
          "duration": 0.24583333333333712
        },
        {
          "name": "E3",
          "midi": 52,
          "time": 135.24583333333302,
          "velocity": 1,
          "duration": 0.25
        },
        {
          "name": "A2",
          "midi": 45,
          "time": 135.24583333333302,
          "velocity": 1,
          "duration": 0.25
        },
        {
          "name": "F#2",
          "midi": 42,
          "time": 135.49583333333302,
          "velocity": 1,
          "duration": 0.2458333333333087
        },
        {
          "name": "F#2",
          "midi": 42,
          "time": 135.49583333333302,
          "velocity": 1,
          "duration": 0.24999999999997158
        },
        {
          "name": "F#5",
          "midi": 78,
          "time": 135.4999999999997,
          "velocity": 0.9291338582677166,
          "duration": 0.4999999999999716
        },
        {
          "name": "F#4",
          "midi": 66,
          "time": 135.508333333333,
          "velocity": 1,
          "duration": 0.5041666666666345
        },
        {
          "name": "F#2",
          "midi": 42,
          "time": 135.745833333333,
          "velocity": 1,
          "duration": 0.24583333333333712
        },
        {
          "name": "F#2",
          "midi": 42,
          "time": 135.745833333333,
          "velocity": 1,
          "duration": 0.25
        },
        {
          "name": "F#2",
          "midi": 42,
          "time": 135.995833333333,
          "velocity": 1,
          "duration": 0.2458333333333087
        },
        {
          "name": "F#2",
          "midi": 42,
          "time": 135.995833333333,
          "velocity": 1,
          "duration": 0.24999999999997158
        },
        {
          "name": "F#5",
          "midi": 78,
          "time": 135.99999999999966,
          "velocity": 0.937007874015748,
          "duration": 0.24999999999997158
        },
        {
          "name": "F#4",
          "midi": 66,
          "time": 136.00833333333298,
          "velocity": 1,
          "duration": 0.2666666666666515
        },
        {
          "name": "F#2",
          "midi": 42,
          "time": 136.24583333333297,
          "velocity": 1,
          "duration": 0.24583333333333712
        },
        {
          "name": "F#2",
          "midi": 42,
          "time": 136.24583333333297,
          "velocity": 1,
          "duration": 0.25
        },
        {
          "name": "F#5",
          "midi": 78,
          "time": 136.24999999999963,
          "velocity": 0.937007874015748,
          "duration": 0.5
        },
        {
          "name": "F#4",
          "midi": 66,
          "time": 136.24999999999963,
          "velocity": 1,
          "duration": 0.5208333333333428
        },
        {
          "name": "F#2",
          "midi": 42,
          "time": 136.49583333333297,
          "velocity": 1,
          "duration": 0.24583333333333712
        },
        {
          "name": "F#2",
          "midi": 42,
          "time": 136.49583333333297,
          "velocity": 1,
          "duration": 0.25
        },
        {
          "name": "F#4",
          "midi": 66,
          "time": 136.73749999999964,
          "velocity": 1,
          "duration": 0.48333333333332007
        },
        {
          "name": "F#2",
          "midi": 42,
          "time": 136.74583333333297,
          "velocity": 1,
          "duration": 0.24583333333333712
        },
        {
          "name": "F#2",
          "midi": 42,
          "time": 136.74583333333297,
          "velocity": 1,
          "duration": 0.25
        },
        {
          "name": "F#5",
          "midi": 78,
          "time": 136.74999999999963,
          "velocity": 0.952755905511811,
          "duration": 0.5
        },
        {
          "name": "F#2",
          "midi": 42,
          "time": 136.99583333333297,
          "velocity": 1,
          "duration": 0.24583333333333712
        },
        {
          "name": "F#2",
          "midi": 42,
          "time": 136.99583333333297,
          "velocity": 1,
          "duration": 0.25
        },
        {
          "name": "F#4",
          "midi": 66,
          "time": 137.24583333333297,
          "velocity": 1,
          "duration": 0.7624999999999886
        },
        {
          "name": "F#2",
          "midi": 42,
          "time": 137.24583333333297,
          "velocity": 1,
          "duration": 0.24583333333333712
        },
        {
          "name": "F#2",
          "midi": 42,
          "time": 137.24583333333297,
          "velocity": 1,
          "duration": 0.25
        },
        {
          "name": "F#5",
          "midi": 78,
          "time": 137.24999999999963,
          "velocity": 0.952755905511811,
          "duration": 0.75
        },
        {
          "name": "F#2",
          "midi": 42,
          "time": 137.49583333333297,
          "velocity": 1,
          "duration": 0.24583333333333712
        },
        {
          "name": "F#2",
          "midi": 42,
          "time": 137.49583333333297,
          "velocity": 1,
          "duration": 0.25
        },
        {
          "name": "F#3",
          "midi": 54,
          "time": 137.74583333333297,
          "velocity": 1,
          "duration": 0.24583333333333712
        },
        {
          "name": "A2",
          "midi": 45,
          "time": 137.74583333333297,
          "velocity": 1,
          "duration": 0.24583333333333712
        },
        {
          "name": "F#3",
          "midi": 54,
          "time": 137.74583333333297,
          "velocity": 1,
          "duration": 0.25
        },
        {
          "name": "A2",
          "midi": 45,
          "time": 137.74583333333297,
          "velocity": 1,
          "duration": 0.25
        },
        {
          "name": "B2",
          "midi": 47,
          "time": 137.99583333333297,
          "velocity": 1,
          "duration": 0.2458333333333087
        },
        {
          "name": "F#3",
          "midi": 54,
          "time": 137.99583333333297,
          "velocity": 1,
          "duration": 0.2458333333333087
        },
        {
          "name": "F#3",
          "midi": 54,
          "time": 137.99583333333297,
          "velocity": 1,
          "duration": 0.24999999999997158
        },
        {
          "name": "B2",
          "midi": 47,
          "time": 137.99583333333297,
          "velocity": 1,
          "duration": 0.24999999999997158
        },
        {
          "name": "C3",
          "midi": 48,
          "time": 138.49583333333294,
          "velocity": 1,
          "duration": 0.24583333333333712
        },
        {
          "name": "G3",
          "midi": 55,
          "time": 138.49583333333294,
          "velocity": 1,
          "duration": 0.24583333333333712
        },
        {
          "name": "C3",
          "midi": 48,
          "time": 138.49583333333294,
          "velocity": 1,
          "duration": 0.25
        },
        {
          "name": "G3",
          "midi": 55,
          "time": 138.49583333333294,
          "velocity": 1,
          "duration": 0.25
        },
        {
          "name": "F#3",
          "midi": 54,
          "time": 138.74583333333294,
          "velocity": 1,
          "duration": 0.24583333333333712
        },
        {
          "name": "B2",
          "midi": 47,
          "time": 138.74583333333294,
          "velocity": 1,
          "duration": 0.24583333333333712
        },
        {
          "name": "F#3",
          "midi": 54,
          "time": 138.74583333333294,
          "velocity": 1,
          "duration": 0.25
        },
        {
          "name": "B2",
          "midi": 47,
          "time": 138.74583333333294,
          "velocity": 1,
          "duration": 0.25
        },
        {
          "name": "F#3",
          "midi": 54,
          "time": 138.99583333333294,
          "velocity": 1,
          "duration": 0.24583333333333712
        },
        {
          "name": "A2",
          "midi": 45,
          "time": 138.99583333333294,
          "velocity": 1,
          "duration": 0.24583333333333712
        },
        {
          "name": "A2",
          "midi": 45,
          "time": 138.99583333333294,
          "velocity": 1,
          "duration": 0.25
        },
        {
          "name": "F#3",
          "midi": 54,
          "time": 138.99583333333294,
          "velocity": 1,
          "duration": 0.25
        },
        {
          "name": "F#3",
          "midi": 54,
          "time": 139.24583333333294,
          "velocity": 1,
          "duration": 0.24583333333333712
        },
        {
          "name": "B2",
          "midi": 47,
          "time": 139.24583333333294,
          "velocity": 1,
          "duration": 0.24583333333333712
        },
        {
          "name": "F#3",
          "midi": 54,
          "time": 139.24583333333294,
          "velocity": 1,
          "duration": 0.25
        },
        {
          "name": "B2",
          "midi": 47,
          "time": 139.24583333333294,
          "velocity": 1,
          "duration": 0.25
        },
        {
          "name": "F#4",
          "midi": 66,
          "time": 139.49166666666628,
          "velocity": 1,
          "duration": 0.2541666666666629
        },
        {
          "name": "F#2",
          "midi": 42,
          "time": 139.49583333333294,
          "velocity": 1,
          "duration": 0.24583333333333712
        },
        {
          "name": "F#2",
          "midi": 42,
          "time": 139.49583333333294,
          "velocity": 1,
          "duration": 0.25
        },
        {
          "name": "F#5",
          "midi": 78,
          "time": 139.4999999999996,
          "velocity": 1,
          "duration": 0.25
        },
        {
          "name": "F#2",
          "midi": 42,
          "time": 139.74583333333294,
          "velocity": 1,
          "duration": 0.2458333333333087
        },
        {
          "name": "F#2",
          "midi": 42,
          "time": 139.74583333333294,
          "velocity": 1,
          "duration": 0.24999999999997158
        },
        {
          "name": "F#5",
          "midi": 78,
          "time": 139.7499999999996,
          "velocity": 1,
          "duration": 0.4999999999999716
        },
        {
          "name": "F#4",
          "midi": 66,
          "time": 139.75833333333293,
          "velocity": 1,
          "duration": 0.5041666666666345
        },
        {
          "name": "F#2",
          "midi": 42,
          "time": 139.9958333333329,
          "velocity": 1,
          "duration": 0.24583333333333712
        },
        {
          "name": "F#2",
          "midi": 42,
          "time": 139.9958333333329,
          "velocity": 1,
          "duration": 0.25
        },
        {
          "name": "F#4",
          "midi": 66,
          "time": 140.24166666666625,
          "velocity": 1,
          "duration": 0.5166666666666231
        },
        {
          "name": "F#2",
          "midi": 42,
          "time": 140.2458333333329,
          "velocity": 1,
          "duration": 0.2458333333333087
        },
        {
          "name": "F#2",
          "midi": 42,
          "time": 140.2458333333329,
          "velocity": 1,
          "duration": 0.24999999999997158
        },
        {
          "name": "F#5",
          "midi": 78,
          "time": 140.24999999999957,
          "velocity": 1,
          "duration": 0.4999999999999716
        },
        {
          "name": "F#2",
          "midi": 42,
          "time": 140.49583333333288,
          "velocity": 1,
          "duration": 0.24583333333333712
        },
        {
          "name": "F#2",
          "midi": 42,
          "time": 140.49583333333288,
          "velocity": 1,
          "duration": 0.25
        },
        {
          "name": "F#2",
          "midi": 42,
          "time": 140.74583333333288,
          "velocity": 1,
          "duration": 0.2458333333333087
        },
        {
          "name": "F#2",
          "midi": 42,
          "time": 140.74583333333288,
          "velocity": 1,
          "duration": 0.24999999999997158
        },
        {
          "name": "F#5",
          "midi": 78,
          "time": 140.74999999999955,
          "velocity": 1,
          "duration": 0.4999999999999716
        },
        {
          "name": "F#4",
          "midi": 66,
          "time": 140.7541666666662,
          "velocity": 1,
          "duration": 0.4958333333333087
        },
        {
          "name": "F#2",
          "midi": 42,
          "time": 140.99583333333285,
          "velocity": 1,
          "duration": 0.24583333333333712
        },
        {
          "name": "F#2",
          "midi": 42,
          "time": 140.99583333333285,
          "velocity": 1,
          "duration": 0.25
        },
        {
          "name": "F#2",
          "midi": 42,
          "time": 141.24583333333285,
          "velocity": 1,
          "duration": 0.2458333333333087
        },
        {
          "name": "F#2",
          "midi": 42,
          "time": 141.24583333333285,
          "velocity": 1,
          "duration": 0.24999999999997158
        },
        {
          "name": "F#5",
          "midi": 78,
          "time": 141.24999999999952,
          "velocity": 1,
          "duration": 0.7499999999999716
        },
        {
          "name": "F#4",
          "midi": 66,
          "time": 141.25833333333284,
          "velocity": 1,
          "duration": 0.7708333333333144
        },
        {
          "name": "F#2",
          "midi": 42,
          "time": 141.49583333333283,
          "velocity": 1,
          "duration": 0.24583333333333712
        },
        {
          "name": "F#2",
          "midi": 42,
          "time": 141.49583333333283,
          "velocity": 1,
          "duration": 0.25
        },
        {
          "name": "F#3",
          "midi": 54,
          "time": 141.74583333333283,
          "velocity": 1,
          "duration": 0.3708333333333371
        },
        {
          "name": "A2",
          "midi": 45,
          "time": 141.74583333333283,
          "velocity": 1,
          "duration": 0.24583333333333712
        },
        {
          "name": "F#3",
          "midi": 54,
          "time": 141.74583333333283,
          "velocity": 1,
          "duration": 0.5
        },
        {
          "name": "A2",
          "midi": 45,
          "time": 141.74583333333283,
          "velocity": 1,
          "duration": 0.25
        },
        {
          "name": "B2",
          "midi": 47,
          "time": 141.99583333333283,
          "velocity": 1,
          "duration": 0.24583333333333712
        },
        {
          "name": "B2",
          "midi": 47,
          "time": 141.99583333333283,
          "velocity": 1,
          "duration": 0.25
        },
        {
          "name": "A2",
          "midi": 45,
          "time": 142.24583333333283,
          "velocity": 1,
          "duration": 0.24583333333333712
        },
        {
          "name": "F#3",
          "midi": 54,
          "time": 142.24583333333283,
          "velocity": 1,
          "duration": 0.3708333333333371
        },
        {
          "name": "F#3",
          "midi": 54,
          "time": 142.24583333333283,
          "velocity": 1,
          "duration": 0.5
        },
        {
          "name": "A2",
          "midi": 45,
          "time": 142.24583333333283,
          "velocity": 1,
          "duration": 0.25
        },
        {
          "name": "B2",
          "midi": 47,
          "time": 142.49583333333283,
          "velocity": 1,
          "duration": 0.24583333333333712
        },
        {
          "name": "B2",
          "midi": 47,
          "time": 142.49583333333283,
          "velocity": 1,
          "duration": 0.25
        },
        {
          "name": "F#2",
          "midi": 42,
          "time": 142.74583333333283,
          "velocity": 1,
          "duration": 0.2458333333333087
        },
        {
          "name": "F#2",
          "midi": 42,
          "time": 142.74583333333283,
          "velocity": 1,
          "duration": 0.24999999999997158
        },
        {
          "name": "F#5",
          "midi": 78,
          "time": 142.7499999999995,
          "velocity": 0.9606299212598425,
          "duration": 0.24999999999997158
        },
        {
          "name": "F#4",
          "midi": 66,
          "time": 142.7583333333328,
          "velocity": 1,
          "duration": 0.25416666666663446
        },
        {
          "name": "F#2",
          "midi": 42,
          "time": 142.9958333333328,
          "velocity": 1,
          "duration": 0.2458333333333087
        },
        {
          "name": "F#2",
          "midi": 42,
          "time": 142.9958333333328,
          "velocity": 1,
          "duration": 0.24999999999997158
        },
        {
          "name": "F#5",
          "midi": 78,
          "time": 142.99999999999946,
          "velocity": 0.9606299212598425,
          "duration": 0.4999999999999716
        },
        {
          "name": "F#4",
          "midi": 66,
          "time": 143.00833333333279,
          "velocity": 1,
          "duration": 0.4791666666666572
        },
        {
          "name": "F#2",
          "midi": 42,
          "time": 143.24583333333277,
          "velocity": 1,
          "duration": 0.24583333333333712
        },
        {
          "name": "F#2",
          "midi": 42,
          "time": 143.24583333333277,
          "velocity": 1,
          "duration": 0.25
        },
        {
          "name": "F#2",
          "midi": 42,
          "time": 143.49583333333277,
          "velocity": 1,
          "duration": 0.24583333333333712
        },
        {
          "name": "F#2",
          "midi": 42,
          "time": 143.49583333333277,
          "velocity": 1,
          "duration": 0.25
        },
        {
          "name": "F#5",
          "midi": 78,
          "time": 143.49999999999943,
          "velocity": 0.952755905511811,
          "duration": 0.5
        },
        {
          "name": "F#4",
          "midi": 66,
          "time": 143.49999999999943,
          "velocity": 1,
          "duration": 0.5041666666666629
        },
        {
          "name": "F#2",
          "midi": 42,
          "time": 143.74583333333277,
          "velocity": 1,
          "duration": 0.24583333333333712
        },
        {
          "name": "F#2",
          "midi": 42,
          "time": 143.74583333333277,
          "velocity": 1,
          "duration": 0.25
        },
        {
          "name": "F#4",
          "midi": 66,
          "time": 143.99583333333277,
          "velocity": 1,
          "duration": 0.5
        },
        {
          "name": "F#2",
          "midi": 42,
          "time": 143.99583333333277,
          "velocity": 1,
          "duration": 0.24583333333333712
        },
        {
          "name": "F#2",
          "midi": 42,
          "time": 143.99583333333277,
          "velocity": 1,
          "duration": 0.25
        },
        {
          "name": "F#5",
          "midi": 78,
          "time": 143.99999999999943,
          "velocity": 0.9448818897637795,
          "duration": 0.5
        },
        {
          "name": "F#2",
          "midi": 42,
          "time": 144.24583333333277,
          "velocity": 1,
          "duration": 0.24583333333333712
        },
        {
          "name": "F#2",
          "midi": 42,
          "time": 144.24583333333277,
          "velocity": 1,
          "duration": 0.25
        },
        {
          "name": "F#4",
          "midi": 66,
          "time": 144.4916666666661,
          "velocity": 1,
          "duration": 1.2458333333333371
        },
        {
          "name": "F#2",
          "midi": 42,
          "time": 144.49583333333277,
          "velocity": 1,
          "duration": 0.24583333333333712
        },
        {
          "name": "F#2",
          "midi": 42,
          "time": 144.49583333333277,
          "velocity": 1,
          "duration": 0.25
        },
        {
          "name": "F#5",
          "midi": 78,
          "time": 144.49999999999943,
          "velocity": 0.9448818897637795,
          "duration": 1.25
        },
        {
          "name": "F#2",
          "midi": 42,
          "time": 144.74583333333277,
          "velocity": 1,
          "duration": 0.24583333333333712
        },
        {
          "name": "F#2",
          "midi": 42,
          "time": 144.74583333333277,
          "velocity": 1,
          "duration": 0.25
        },
        {
          "name": "F#3",
          "midi": 54,
          "time": 144.99583333333277,
          "velocity": 1,
          "duration": 0.24583333333333712
        },
        {
          "name": "A2",
          "midi": 45,
          "time": 144.99583333333277,
          "velocity": 1,
          "duration": 0.24583333333333712
        },
        {
          "name": "A2",
          "midi": 45,
          "time": 144.99583333333277,
          "velocity": 1,
          "duration": 0.25
        },
        {
          "name": "F#3",
          "midi": 54,
          "time": 144.99583333333277,
          "velocity": 1,
          "duration": 0.25
        },
        {
          "name": "B2",
          "midi": 47,
          "time": 145.24583333333277,
          "velocity": 1,
          "duration": 0.24583333333333712
        },
        {
          "name": "F#3",
          "midi": 54,
          "time": 145.24583333333277,
          "velocity": 1,
          "duration": 0.24583333333333712
        },
        {
          "name": "F#3",
          "midi": 54,
          "time": 145.24583333333277,
          "velocity": 1,
          "duration": 0.25
        },
        {
          "name": "B2",
          "midi": 47,
          "time": 145.24583333333277,
          "velocity": 1,
          "duration": 0.25
        },
        {
          "name": "C3",
          "midi": 48,
          "time": 145.74583333333277,
          "velocity": 1,
          "duration": 0.24583333333333712
        },
        {
          "name": "G3",
          "midi": 55,
          "time": 145.74583333333277,
          "velocity": 1,
          "duration": 0.24583333333333712
        },
        {
          "name": "G3",
          "midi": 55,
          "time": 145.74583333333277,
          "velocity": 1,
          "duration": 0.25
        },
        {
          "name": "C3",
          "midi": 48,
          "time": 145.74583333333277,
          "velocity": 1,
          "duration": 0.25
        },
        {
          "name": "F#3",
          "midi": 54,
          "time": 145.99583333333277,
          "velocity": 1,
          "duration": 0.24583333333333712
        },
        {
          "name": "B2",
          "midi": 47,
          "time": 145.99583333333277,
          "velocity": 1,
          "duration": 0.24583333333333712
        },
        {
          "name": "F#3",
          "midi": 54,
          "time": 145.99583333333277,
          "velocity": 1,
          "duration": 0.25
        },
        {
          "name": "B2",
          "midi": 47,
          "time": 145.99583333333277,
          "velocity": 1,
          "duration": 0.25
        },
        {
          "name": "A2",
          "midi": 45,
          "time": 146.24583333333277,
          "velocity": 1,
          "duration": 0.24583333333333712
        },
        {
          "name": "F#3",
          "midi": 54,
          "time": 146.24583333333277,
          "velocity": 1,
          "duration": 0.24583333333333712
        },
        {
          "name": "F#3",
          "midi": 54,
          "time": 146.24583333333277,
          "velocity": 1,
          "duration": 0.25
        },
        {
          "name": "A2",
          "midi": 45,
          "time": 146.24583333333277,
          "velocity": 1,
          "duration": 0.25
        },
        {
          "name": "B2",
          "midi": 47,
          "time": 146.49583333333277,
          "velocity": 1,
          "duration": 0.24583333333333712
        },
        {
          "name": "F#3",
          "midi": 54,
          "time": 146.49583333333277,
          "velocity": 1,
          "duration": 0.24583333333333712
        },
        {
          "name": "B2",
          "midi": 47,
          "time": 146.49583333333277,
          "velocity": 1,
          "duration": 0.25
        },
        {
          "name": "F#3",
          "midi": 54,
          "time": 146.49583333333277,
          "velocity": 1,
          "duration": 0.25
        },
        {
          "name": "F#4",
          "midi": 66,
          "time": 146.7416666666661,
          "velocity": 1,
          "duration": 0.2708333333333144
        },
        {
          "name": "F#2",
          "midi": 42,
          "time": 146.74583333333277,
          "velocity": 1,
          "duration": 0.24583333333333712
        },
        {
          "name": "F#2",
          "midi": 42,
          "time": 146.74583333333277,
          "velocity": 1,
          "duration": 0.25
        },
        {
          "name": "F#5",
          "midi": 78,
          "time": 146.74999999999943,
          "velocity": 0.937007874015748,
          "duration": 0.25
        },
        {
          "name": "F#2",
          "midi": 42,
          "time": 146.99583333333277,
          "velocity": 1,
          "duration": 0.2458333333333087
        },
        {
          "name": "F#2",
          "midi": 42,
          "time": 146.99583333333277,
          "velocity": 1,
          "duration": 0.24999999999997158
        },
        {
          "name": "F#5",
          "midi": 78,
          "time": 146.99999999999943,
          "velocity": 0.937007874015748,
          "duration": 0.4999999999999716
        },
        {
          "name": "F#4",
          "midi": 66,
          "time": 147.00833333333276,
          "velocity": 1,
          "duration": 0.4999999999999716
        },
        {
          "name": "F#2",
          "midi": 42,
          "time": 147.24583333333274,
          "velocity": 1,
          "duration": 0.24583333333333712
        },
        {
          "name": "F#2",
          "midi": 42,
          "time": 147.24583333333274,
          "velocity": 1,
          "duration": 0.25
        },
        {
          "name": "F#4",
          "midi": 66,
          "time": 147.48749999999941,
          "velocity": 1,
          "duration": 0.4999999999999716
        },
        {
          "name": "F#2",
          "midi": 42,
          "time": 147.49583333333274,
          "velocity": 1,
          "duration": 0.2458333333333087
        },
        {
          "name": "F#2",
          "midi": 42,
          "time": 147.49583333333274,
          "velocity": 1,
          "duration": 0.24999999999997158
        },
        {
          "name": "F#5",
          "midi": 78,
          "time": 147.4999999999994,
          "velocity": 0.9212598425196851,
          "duration": 0.4999999999999716
        },
        {
          "name": "F#2",
          "midi": 42,
          "time": 147.7458333333327,
          "velocity": 1,
          "duration": 0.24583333333333712
        },
        {
          "name": "F#2",
          "midi": 42,
          "time": 147.7458333333327,
          "velocity": 1,
          "duration": 0.25
        },
        {
          "name": "F#4",
          "midi": 66,
          "time": 147.9958333333327,
          "velocity": 1,
          "duration": 0.5
        },
        {
          "name": "F#2",
          "midi": 42,
          "time": 147.9958333333327,
          "velocity": 1,
          "duration": 0.24583333333333712
        },
        {
          "name": "F#2",
          "midi": 42,
          "time": 147.9958333333327,
          "velocity": 1,
          "duration": 0.25
        },
        {
          "name": "F#5",
          "midi": 78,
          "time": 147.99999999999937,
          "velocity": 0.9133858267716536,
          "duration": 0.5
        },
        {
          "name": "F#2",
          "midi": 42,
          "time": 148.2458333333327,
          "velocity": 1,
          "duration": 0.24583333333333712
        },
        {
          "name": "F#2",
          "midi": 42,
          "time": 148.2458333333327,
          "velocity": 1,
          "duration": 0.25
        },
        {
          "name": "F#4",
          "midi": 66,
          "time": 148.4874999999994,
          "velocity": 1,
          "duration": 1.487499999999983
        },
        {
          "name": "F#2",
          "midi": 42,
          "time": 148.4958333333327,
          "velocity": 1,
          "duration": 0.24583333333333712
        },
        {
          "name": "F#2",
          "midi": 42,
          "time": 148.4958333333327,
          "velocity": 1,
          "duration": 0.25
        },
        {
          "name": "F#5",
          "midi": 78,
          "time": 148.49999999999937,
          "velocity": 0.905511811023622,
          "duration": 1.5
        },
        {
          "name": "F#2",
          "midi": 42,
          "time": 148.7458333333327,
          "velocity": 1,
          "duration": 0.24583333333333712
        },
        {
          "name": "F#2",
          "midi": 42,
          "time": 148.7458333333327,
          "velocity": 1,
          "duration": 0.25
        },
        {
          "name": "F#3",
          "midi": 54,
          "time": 148.9958333333327,
          "velocity": 1,
          "duration": 0.3708333333333371
        },
        {
          "name": "A2",
          "midi": 45,
          "time": 148.9958333333327,
          "velocity": 1,
          "duration": 0.24583333333333712
        },
        {
          "name": "F#3",
          "midi": 54,
          "time": 148.9958333333327,
          "velocity": 1,
          "duration": 0.5
        },
        {
          "name": "A2",
          "midi": 45,
          "time": 148.9958333333327,
          "velocity": 1,
          "duration": 0.25
        },
        {
          "name": "B2",
          "midi": 47,
          "time": 149.2458333333327,
          "velocity": 1,
          "duration": 0.24583333333333712
        },
        {
          "name": "B2",
          "midi": 47,
          "time": 149.2458333333327,
          "velocity": 1,
          "duration": 0.25
        },
        {
          "name": "A2",
          "midi": 45,
          "time": 149.4958333333327,
          "velocity": 1,
          "duration": 0.24583333333333712
        },
        {
          "name": "F#3",
          "midi": 54,
          "time": 149.4958333333327,
          "velocity": 1,
          "duration": 0.3708333333333371
        },
        {
          "name": "F#3",
          "midi": 54,
          "time": 149.4958333333327,
          "velocity": 1,
          "duration": 0.5
        },
        {
          "name": "A2",
          "midi": 45,
          "time": 149.4958333333327,
          "velocity": 1,
          "duration": 0.25
        },
        {
          "name": "B2",
          "midi": 47,
          "time": 149.7458333333327,
          "velocity": 1,
          "duration": 0.24583333333333712
        },
        {
          "name": "B2",
          "midi": 47,
          "time": 149.7458333333327,
          "velocity": 1,
          "duration": 0.25
        },
        {
          "name": "B3",
          "midi": 59,
          "time": 149.9958333333327,
          "velocity": 1,
          "duration": 0.24583333333333712
        },
        {
          "name": "F#3",
          "midi": 54,
          "time": 149.9958333333327,
          "velocity": 1,
          "duration": 0.24583333333333712
        },
        {
          "name": "B2",
          "midi": 47,
          "time": 149.9958333333327,
          "velocity": 1,
          "duration": 0.24583333333333712
        },
        {
          "name": "B3",
          "midi": 59,
          "time": 149.9958333333327,
          "velocity": 1,
          "duration": 0.25
        },
        {
          "name": "F#3",
          "midi": 54,
          "time": 149.9958333333327,
          "velocity": 1,
          "duration": 0.25
        },
        {
          "name": "B2",
          "midi": 47,
          "time": 149.9958333333327,
          "velocity": 1,
          "duration": 0.25
        },
        {
          "name": "B2",
          "midi": 47,
          "time": 150.2458333333327,
          "velocity": 1,
          "duration": 0.24583333333333712
        },
        {
          "name": "B3",
          "midi": 59,
          "time": 150.2458333333327,
          "velocity": 1,
          "duration": 0.24583333333333712
        },
        {
          "name": "F#3",
          "midi": 54,
          "time": 150.2458333333327,
          "velocity": 1,
          "duration": 0.24583333333333712
        },
        {
          "name": "B3",
          "midi": 59,
          "time": 150.2458333333327,
          "velocity": 1,
          "duration": 0.25
        },
        {
          "name": "F#3",
          "midi": 54,
          "time": 150.2458333333327,
          "velocity": 1,
          "duration": 0.25
        },
        {
          "name": "B2",
          "midi": 47,
          "time": 150.2458333333327,
          "velocity": 1,
          "duration": 0.25
        },
        {
          "name": "B3",
          "midi": 59,
          "time": 150.4958333333327,
          "velocity": 1,
          "duration": 0.24583333333333712
        },
        {
          "name": "F#3",
          "midi": 54,
          "time": 150.4958333333327,
          "velocity": 1,
          "duration": 0.24583333333333712
        },
        {
          "name": "B2",
          "midi": 47,
          "time": 150.4958333333327,
          "velocity": 1,
          "duration": 0.24583333333333712
        },
        {
          "name": "B2",
          "midi": 47,
          "time": 150.4958333333327,
          "velocity": 1,
          "duration": 0.25
        },
        {
          "name": "B3",
          "midi": 59,
          "time": 150.4958333333327,
          "velocity": 1,
          "duration": 0.25
        },
        {
          "name": "F#3",
          "midi": 54,
          "time": 150.4958333333327,
          "velocity": 1,
          "duration": 0.25
        },
        {
          "name": "B3",
          "midi": 59,
          "time": 150.7458333333327,
          "velocity": 1,
          "duration": 0.24583333333333712
        },
        {
          "name": "F#3",
          "midi": 54,
          "time": 150.7458333333327,
          "velocity": 1,
          "duration": 0.24583333333333712
        },
        {
          "name": "B2",
          "midi": 47,
          "time": 150.7458333333327,
          "velocity": 1,
          "duration": 0.24583333333333712
        },
        {
          "name": "F#3",
          "midi": 54,
          "time": 150.7458333333327,
          "velocity": 1,
          "duration": 0.25
        },
        {
          "name": "B2",
          "midi": 47,
          "time": 150.7458333333327,
          "velocity": 1,
          "duration": 0.25
        },
        {
          "name": "B3",
          "midi": 59,
          "time": 150.7458333333327,
          "velocity": 1,
          "duration": 0.25
        },
        {
          "name": "F#3",
          "midi": 54,
          "time": 150.9958333333327,
          "velocity": 1,
          "duration": 0.24583333333333712
        },
        {
          "name": "B2",
          "midi": 47,
          "time": 150.9958333333327,
          "velocity": 1,
          "duration": 0.24583333333333712
        },
        {
          "name": "B3",
          "midi": 59,
          "time": 150.9958333333327,
          "velocity": 1,
          "duration": 0.24583333333333712
        },
        {
          "name": "B3",
          "midi": 59,
          "time": 150.9958333333327,
          "velocity": 1,
          "duration": 0.25
        },
        {
          "name": "B2",
          "midi": 47,
          "time": 150.9958333333327,
          "velocity": 1,
          "duration": 0.25
        },
        {
          "name": "F#3",
          "midi": 54,
          "time": 150.9958333333327,
          "velocity": 1,
          "duration": 0.25
        },
        {
          "name": "B3",
          "midi": 59,
          "time": 151.2458333333327,
          "velocity": 1,
          "duration": 0.24583333333333712
        },
        {
          "name": "F#3",
          "midi": 54,
          "time": 151.2458333333327,
          "velocity": 1,
          "duration": 0.24583333333333712
        },
        {
          "name": "B2",
          "midi": 47,
          "time": 151.2458333333327,
          "velocity": 1,
          "duration": 0.24583333333333712
        },
        {
          "name": "B3",
          "midi": 59,
          "time": 151.2458333333327,
          "velocity": 1,
          "duration": 0.25
        },
        {
          "name": "B2",
          "midi": 47,
          "time": 151.2458333333327,
          "velocity": 1,
          "duration": 0.25
        },
        {
          "name": "F#3",
          "midi": 54,
          "time": 151.2458333333327,
          "velocity": 1,
          "duration": 0.25
        },
        {
          "name": "B2",
          "midi": 47,
          "time": 151.4958333333327,
          "velocity": 1,
          "duration": 0.24583333333333712
        },
        {
          "name": "B3",
          "midi": 59,
          "time": 151.4958333333327,
          "velocity": 1,
          "duration": 0.24583333333333712
        },
        {
          "name": "F#3",
          "midi": 54,
          "time": 151.4958333333327,
          "velocity": 1,
          "duration": 0.24583333333333712
        },
        {
          "name": "B3",
          "midi": 59,
          "time": 151.4958333333327,
          "velocity": 1,
          "duration": 0.25
        },
        {
          "name": "F#3",
          "midi": 54,
          "time": 151.4958333333327,
          "velocity": 1,
          "duration": 0.25
        },
        {
          "name": "B2",
          "midi": 47,
          "time": 151.4958333333327,
          "velocity": 1,
          "duration": 0.25
        },
        {
          "name": "B3",
          "midi": 59,
          "time": 151.7458333333327,
          "velocity": 1,
          "duration": 0.24583333333333712
        },
        {
          "name": "F#3",
          "midi": 54,
          "time": 151.7458333333327,
          "velocity": 1,
          "duration": 0.24583333333333712
        },
        {
          "name": "B2",
          "midi": 47,
          "time": 151.7458333333327,
          "velocity": 1,
          "duration": 0.24583333333333712
        },
        {
          "name": "F#3",
          "midi": 54,
          "time": 151.7458333333327,
          "velocity": 1,
          "duration": 0.25
        },
        {
          "name": "B3",
          "midi": 59,
          "time": 151.7458333333327,
          "velocity": 1,
          "duration": 0.25
        },
        {
          "name": "B2",
          "midi": 47,
          "time": 151.7458333333327,
          "velocity": 1,
          "duration": 0.25
        },
        {
          "name": "E2",
          "midi": 40,
          "time": 151.9958333333327,
          "velocity": 1,
          "duration": 0.25
        },
        {
          "name": "E4",
          "midi": 64,
          "time": 151.9958333333327,
          "velocity": 1,
          "duration": 0.25
        },
        {
          "name": "B3",
          "midi": 59,
          "time": 151.9958333333327,
          "velocity": 1,
          "duration": 0.25
        },
        {
          "name": "E3",
          "midi": 52,
          "time": 151.9958333333327,
          "velocity": 1,
          "duration": 0.25
        },
        {
          "name": "E4",
          "midi": 64,
          "time": 151.9958333333327,
          "velocity": 1,
          "duration": 0.25
        },
        {
          "name": "B3",
          "midi": 59,
          "time": 151.9958333333327,
          "velocity": 1,
          "duration": 0.25
        },
        {
          "name": "E2",
          "midi": 40,
          "time": 151.9958333333327,
          "velocity": 1,
          "duration": 0.25
        },
        {
          "name": "E3",
          "midi": 52,
          "time": 151.9958333333327,
          "velocity": 1,
          "duration": 0.25
        },
        {
          "name": "E2",
          "midi": 40,
          "time": 152.2458333333327,
          "velocity": 1,
          "duration": 0.25
        },
        {
          "name": "E2",
          "midi": 40,
          "time": 152.2458333333327,
          "velocity": 1,
          "duration": 0.25
        },
        {
          "name": "E2",
          "midi": 40,
          "time": 152.4958333333327,
          "velocity": 1,
          "duration": 0.25
        },
        {
          "name": "E2",
          "midi": 40,
          "time": 152.4958333333327,
          "velocity": 1,
          "duration": 0.25
        },
        {
          "name": "E2",
          "midi": 40,
          "time": 152.7458333333327,
          "velocity": 1,
          "duration": 0.25
        },
        {
          "name": "E2",
          "midi": 40,
          "time": 152.7458333333327,
          "velocity": 1,
          "duration": 0.25
        },
        {
          "name": "D3",
          "midi": 50,
          "time": 152.9958333333327,
          "velocity": 1,
          "duration": 0.5
        },
        {
          "name": "D4",
          "midi": 62,
          "time": 152.9958333333327,
          "velocity": 1,
          "duration": 0.5
        },
        {
          "name": "A3",
          "midi": 57,
          "time": 152.9958333333327,
          "velocity": 1,
          "duration": 0.5
        },
        {
          "name": "D4",
          "midi": 62,
          "time": 152.9958333333327,
          "velocity": 1,
          "duration": 0.5
        },
        {
          "name": "A3",
          "midi": 57,
          "time": 152.9958333333327,
          "velocity": 1,
          "duration": 0.5
        },
        {
          "name": "D3",
          "midi": 50,
          "time": 152.9958333333327,
          "velocity": 1,
          "duration": 0.5
        },
        {
          "name": "E3",
          "midi": 52,
          "time": 153.4958333333327,
          "velocity": 1,
          "duration": 0.5
        },
        {
          "name": "E4",
          "midi": 64,
          "time": 153.4958333333327,
          "velocity": 1,
          "duration": 0.5
        },
        {
          "name": "B3",
          "midi": 59,
          "time": 153.4958333333327,
          "velocity": 1,
          "duration": 0.5
        },
        {
          "name": "E4",
          "midi": 64,
          "time": 153.4958333333327,
          "velocity": 1,
          "duration": 0.5
        },
        {
          "name": "E3",
          "midi": 52,
          "time": 153.4958333333327,
          "velocity": 1,
          "duration": 0.5
        },
        {
          "name": "B3",
          "midi": 59,
          "time": 153.4958333333327,
          "velocity": 1,
          "duration": 0.5
        },
        {
          "name": "E3",
          "midi": 52,
          "time": 153.9958333333327,
          "velocity": 1,
          "duration": 0.25
        },
        {
          "name": "E3",
          "midi": 52,
          "time": 153.9958333333327,
          "velocity": 1,
          "duration": 0.25
        },
        {
          "name": "F#3",
          "midi": 54,
          "time": 154.2458333333327,
          "velocity": 1,
          "duration": 0.25
        },
        {
          "name": "F#3",
          "midi": 54,
          "time": 154.2458333333327,
          "velocity": 1,
          "duration": 0.25
        },
        {
          "name": "B3",
          "midi": 59,
          "time": 154.4958333333327,
          "velocity": 1,
          "duration": 0.25
        },
        {
          "name": "B3",
          "midi": 59,
          "time": 154.4958333333327,
          "velocity": 1,
          "duration": 0.25
        },
        {
          "name": "G3",
          "midi": 55,
          "time": 154.7458333333327,
          "velocity": 1,
          "duration": 0.25
        },
        {
          "name": "G3",
          "midi": 55,
          "time": 154.7458333333327,
          "velocity": 1,
          "duration": 0.25
        },
        {
          "name": "F#3",
          "midi": 54,
          "time": 154.9958333333327,
          "velocity": 1,
          "duration": 0.25
        },
        {
          "name": "F#3",
          "midi": 54,
          "time": 154.9958333333327,
          "velocity": 1,
          "duration": 0.25
        },
        {
          "name": "G3",
          "midi": 55,
          "time": 155.2458333333327,
          "velocity": 1,
          "duration": 0.7499999999999716
        },
        {
          "name": "G3",
          "midi": 55,
          "time": 155.2458333333327,
          "velocity": 1,
          "duration": 0.7499999999999716
        },
        {
          "name": "C3",
          "midi": 48,
          "time": 155.99583333333268,
          "velocity": 1,
          "duration": 0.25
        },
        {
          "name": "C3",
          "midi": 48,
          "time": 155.99583333333268,
          "velocity": 1,
          "duration": 0.25
        },
        {
          "name": "C3",
          "midi": 48,
          "time": 156.24583333333268,
          "velocity": 1,
          "duration": 0.25
        },
        {
          "name": "C3",
          "midi": 48,
          "time": 156.24583333333268,
          "velocity": 1,
          "duration": 0.25
        },
        {
          "name": "C3",
          "midi": 48,
          "time": 156.49583333333268,
          "velocity": 1,
          "duration": 0.25
        },
        {
          "name": "C3",
          "midi": 48,
          "time": 156.49583333333268,
          "velocity": 1,
          "duration": 0.25
        },
        {
          "name": "C3",
          "midi": 48,
          "time": 156.74583333333268,
          "velocity": 1,
          "duration": 0.25
        },
        {
          "name": "C3",
          "midi": 48,
          "time": 156.74583333333268,
          "velocity": 1,
          "duration": 0.25
        },
        {
          "name": "C3",
          "midi": 48,
          "time": 156.99583333333268,
          "velocity": 1,
          "duration": 0.5
        },
        {
          "name": "C4",
          "midi": 60,
          "time": 156.99583333333268,
          "velocity": 1,
          "duration": 0.5
        },
        {
          "name": "G3",
          "midi": 55,
          "time": 156.99583333333268,
          "velocity": 1,
          "duration": 0.5
        },
        {
          "name": "C3",
          "midi": 48,
          "time": 156.99583333333268,
          "velocity": 1,
          "duration": 0.5
        },
        {
          "name": "C4",
          "midi": 60,
          "time": 156.99583333333268,
          "velocity": 1,
          "duration": 0.5
        },
        {
          "name": "G3",
          "midi": 55,
          "time": 156.99583333333268,
          "velocity": 1,
          "duration": 0.5
        },
        {
          "name": "F#3",
          "midi": 54,
          "time": 157.49583333333268,
          "velocity": 1,
          "duration": 0.4999999999999716
        },
        {
          "name": "B3",
          "midi": 59,
          "time": 157.49583333333268,
          "velocity": 1,
          "duration": 0.4999999999999716
        },
        {
          "name": "B2",
          "midi": 47,
          "time": 157.49583333333268,
          "velocity": 1,
          "duration": 0.4999999999999716
        },
        {
          "name": "F#3",
          "midi": 54,
          "time": 157.49583333333268,
          "velocity": 1,
          "duration": 0.4999999999999716
        },
        {
          "name": "B2",
          "midi": 47,
          "time": 157.49583333333268,
          "velocity": 1,
          "duration": 0.4999999999999716
        },
        {
          "name": "B3",
          "midi": 59,
          "time": 157.49583333333268,
          "velocity": 1,
          "duration": 0.4999999999999716
        },
        {
          "name": "F#5",
          "midi": 78,
          "time": 157.49999999999935,
          "velocity": 0.8818897637795275,
          "duration": 0.4999999999999716
        },
        {
          "name": "F#4",
          "midi": 66,
          "time": 157.504166666666,
          "velocity": 1,
          "duration": 0.4916666666666458
        },
        {
          "name": "G4",
          "midi": 67,
          "time": 157.98749999999933,
          "velocity": 1,
          "duration": 0.9916666666666458
        },
        {
          "name": "C3",
          "midi": 48,
          "time": 157.99583333333266,
          "velocity": 1,
          "duration": 0.25
        },
        {
          "name": "C3",
          "midi": 48,
          "time": 157.99583333333266,
          "velocity": 1,
          "duration": 0.25
        },
        {
          "name": "G5",
          "midi": 79,
          "time": 157.99999999999932,
          "velocity": 0.889763779527559,
          "duration": 0.9999999999999716
        },
        {
          "name": "C3",
          "midi": 48,
          "time": 158.24583333333266,
          "velocity": 1,
          "duration": 0.25
        },
        {
          "name": "C3",
          "midi": 48,
          "time": 158.24583333333266,
          "velocity": 1,
          "duration": 0.25
        },
        {
          "name": "C3",
          "midi": 48,
          "time": 158.49583333333266,
          "velocity": 1,
          "duration": 0.25
        },
        {
          "name": "C3",
          "midi": 48,
          "time": 158.49583333333266,
          "velocity": 1,
          "duration": 0.25
        },
        {
          "name": "C3",
          "midi": 48,
          "time": 158.74583333333266,
          "velocity": 1,
          "duration": 0.24999999999997158
        },
        {
          "name": "C3",
          "midi": 48,
          "time": 158.74583333333266,
          "velocity": 1,
          "duration": 0.24999999999997158
        },
        {
          "name": "F#4",
          "midi": 66,
          "time": 158.9874999999993,
          "velocity": 1,
          "duration": 0.9749999999999943
        },
        {
          "name": "A#3",
          "midi": 58,
          "time": 158.99583333333263,
          "velocity": 1,
          "duration": 0.5
        },
        {
          "name": "D#3",
          "midi": 51,
          "time": 158.99583333333263,
          "velocity": 1,
          "duration": 0.5
        },
        {
          "name": "D#4",
          "midi": 63,
          "time": 158.99583333333263,
          "velocity": 1,
          "duration": 0.5
        },
        {
          "name": "A#3",
          "midi": 58,
          "time": 158.99583333333263,
          "velocity": 1,
          "duration": 0.5
        },
        {
          "name": "D#3",
          "midi": 51,
          "time": 158.99583333333263,
          "velocity": 1,
          "duration": 0.5
        },
        {
          "name": "D#4",
          "midi": 63,
          "time": 158.99583333333263,
          "velocity": 1,
          "duration": 0.5
        },
        {
          "name": "F#5",
          "midi": 78,
          "time": 158.9999999999993,
          "velocity": 0.905511811023622,
          "duration": 1
        },
        {
          "name": "B3",
          "midi": 59,
          "time": 159.49583333333263,
          "velocity": 1,
          "duration": 0.25
        },
        {
          "name": "F#3",
          "midi": 54,
          "time": 159.49583333333263,
          "velocity": 1,
          "duration": 0.25
        },
        {
          "name": "B2",
          "midi": 47,
          "time": 159.49583333333263,
          "velocity": 1,
          "duration": 0.25
        },
        {
          "name": "B3",
          "midi": 59,
          "time": 159.49583333333263,
          "velocity": 1,
          "duration": 0.25
        },
        {
          "name": "F#3",
          "midi": 54,
          "time": 159.49583333333263,
          "velocity": 1,
          "duration": 0.25
        },
        {
          "name": "B2",
          "midi": 47,
          "time": 159.49583333333263,
          "velocity": 1,
          "duration": 0.25
        },
        {
          "name": "E3",
          "midi": 52,
          "time": 159.99583333333263,
          "velocity": 1,
          "duration": 0.25
        },
        {
          "name": "E4",
          "midi": 64,
          "time": 159.99583333333263,
          "velocity": 1,
          "duration": 0.25
        },
        {
          "name": "E2",
          "midi": 40,
          "time": 159.99583333333263,
          "velocity": 1,
          "duration": 0.25
        },
        {
          "name": "B3",
          "midi": 59,
          "time": 159.99583333333263,
          "velocity": 1,
          "duration": 0.25
        },
        {
          "name": "E3",
          "midi": 52,
          "time": 159.99583333333263,
          "velocity": 1,
          "duration": 0.25
        },
        {
          "name": "E4",
          "midi": 64,
          "time": 159.99583333333263,
          "velocity": 1,
          "duration": 0.25
        },
        {
          "name": "E2",
          "midi": 40,
          "time": 159.99583333333263,
          "velocity": 1,
          "duration": 0.25
        },
        {
          "name": "B3",
          "midi": 59,
          "time": 159.99583333333263,
          "velocity": 1,
          "duration": 0.25
        },
        {
          "name": "F#5",
          "midi": 78,
          "time": 159.9999999999993,
          "velocity": 0.9133858267716536,
          "duration": 0.5
        },
        {
          "name": "F#4",
          "midi": 66,
          "time": 160.00833333333262,
          "velocity": 1,
          "duration": 0.512500000000017
        },
        {
          "name": "E2",
          "midi": 40,
          "time": 160.24583333333263,
          "velocity": 1,
          "duration": 0.25
        },
        {
          "name": "E2",
          "midi": 40,
          "time": 160.24583333333263,
          "velocity": 1,
          "duration": 0.25
        },
        {
          "name": "G4",
          "midi": 67,
          "time": 160.49166666666596,
          "velocity": 1,
          "duration": 2.48333333333332
        },
        {
          "name": "E2",
          "midi": 40,
          "time": 160.49583333333263,
          "velocity": 1,
          "duration": 0.25
        },
        {
          "name": "E2",
          "midi": 40,
          "time": 160.49583333333263,
          "velocity": 1,
          "duration": 0.25
        },
        {
          "name": "G5",
          "midi": 79,
          "time": 160.4999999999993,
          "velocity": 0.889763779527559,
          "duration": 2.5
        },
        {
          "name": "E2",
          "midi": 40,
          "time": 160.74583333333263,
          "velocity": 1,
          "duration": 0.25
        },
        {
          "name": "E2",
          "midi": 40,
          "time": 160.74583333333263,
          "velocity": 1,
          "duration": 0.25
        },
        {
          "name": "D3",
          "midi": 50,
          "time": 160.99583333333263,
          "velocity": 1,
          "duration": 0.5
        },
        {
          "name": "D4",
          "midi": 62,
          "time": 160.99583333333263,
          "velocity": 1,
          "duration": 0.5
        },
        {
          "name": "A3",
          "midi": 57,
          "time": 160.99583333333263,
          "velocity": 1,
          "duration": 0.5
        },
        {
          "name": "A3",
          "midi": 57,
          "time": 160.99583333333263,
          "velocity": 1,
          "duration": 0.5
        },
        {
          "name": "D3",
          "midi": 50,
          "time": 160.99583333333263,
          "velocity": 1,
          "duration": 0.5
        },
        {
          "name": "D4",
          "midi": 62,
          "time": 160.99583333333263,
          "velocity": 1,
          "duration": 0.5
        },
        {
          "name": "E3",
          "midi": 52,
          "time": 161.49583333333263,
          "velocity": 1,
          "duration": 0.5
        },
        {
          "name": "B3",
          "midi": 59,
          "time": 161.49583333333263,
          "velocity": 1,
          "duration": 0.5
        },
        {
          "name": "E4",
          "midi": 64,
          "time": 161.49583333333263,
          "velocity": 1,
          "duration": 0.5
        },
        {
          "name": "E3",
          "midi": 52,
          "time": 161.49583333333263,
          "velocity": 1,
          "duration": 0.5
        },
        {
          "name": "B3",
          "midi": 59,
          "time": 161.49583333333263,
          "velocity": 1,
          "duration": 0.5
        },
        {
          "name": "E4",
          "midi": 64,
          "time": 161.49583333333263,
          "velocity": 1,
          "duration": 0.5
        },
        {
          "name": "E3",
          "midi": 52,
          "time": 161.99583333333263,
          "velocity": 1,
          "duration": 0.25
        },
        {
          "name": "E3",
          "midi": 52,
          "time": 161.99583333333263,
          "velocity": 1,
          "duration": 0.25
        },
        {
          "name": "F#3",
          "midi": 54,
          "time": 162.24583333333263,
          "velocity": 1,
          "duration": 0.25
        },
        {
          "name": "F#3",
          "midi": 54,
          "time": 162.24583333333263,
          "velocity": 1,
          "duration": 0.25
        },
        {
          "name": "B3",
          "midi": 59,
          "time": 162.49583333333263,
          "velocity": 1,
          "duration": 0.25
        },
        {
          "name": "B3",
          "midi": 59,
          "time": 162.49583333333263,
          "velocity": 1,
          "duration": 0.25
        },
        {
          "name": "G3",
          "midi": 55,
          "time": 162.74583333333263,
          "velocity": 1,
          "duration": 0.25
        },
        {
          "name": "G3",
          "midi": 55,
          "time": 162.74583333333263,
          "velocity": 1,
          "duration": 0.25
        },
        {
          "name": "F#3",
          "midi": 54,
          "time": 162.99583333333263,
          "velocity": 1,
          "duration": 0.25
        },
        {
          "name": "F#3",
          "midi": 54,
          "time": 162.99583333333263,
          "velocity": 1,
          "duration": 0.25
        },
        {
          "name": "G3",
          "midi": 55,
          "time": 163.24583333333263,
          "velocity": 1,
          "duration": 0.7499999999999716
        },
        {
          "name": "G3",
          "midi": 55,
          "time": 163.24583333333263,
          "velocity": 1,
          "duration": 0.7499999999999716
        },
        {
          "name": "C3",
          "midi": 48,
          "time": 163.9958333333326,
          "velocity": 1,
          "duration": 0.25
        },
        {
          "name": "C3",
          "midi": 48,
          "time": 163.9958333333326,
          "velocity": 1,
          "duration": 0.25
        },
        {
          "name": "C3",
          "midi": 48,
          "time": 164.2458333333326,
          "velocity": 1,
          "duration": 0.25
        },
        {
          "name": "C3",
          "midi": 48,
          "time": 164.2458333333326,
          "velocity": 1,
          "duration": 0.25
        },
        {
          "name": "C3",
          "midi": 48,
          "time": 164.4958333333326,
          "velocity": 1,
          "duration": 0.25
        },
        {
          "name": "C3",
          "midi": 48,
          "time": 164.4958333333326,
          "velocity": 1,
          "duration": 0.25
        },
        {
          "name": "C3",
          "midi": 48,
          "time": 164.7458333333326,
          "velocity": 1,
          "duration": 0.25
        },
        {
          "name": "C3",
          "midi": 48,
          "time": 164.7458333333326,
          "velocity": 1,
          "duration": 0.25
        },
        {
          "name": "C3",
          "midi": 48,
          "time": 164.9958333333326,
          "velocity": 1,
          "duration": 0.5
        },
        {
          "name": "C4",
          "midi": 60,
          "time": 164.9958333333326,
          "velocity": 1,
          "duration": 0.5
        },
        {
          "name": "G3",
          "midi": 55,
          "time": 164.9958333333326,
          "velocity": 1,
          "duration": 0.5
        },
        {
          "name": "C4",
          "midi": 60,
          "time": 164.9958333333326,
          "velocity": 1,
          "duration": 0.5
        },
        {
          "name": "G3",
          "midi": 55,
          "time": 164.9958333333326,
          "velocity": 1,
          "duration": 0.5
        },
        {
          "name": "C3",
          "midi": 48,
          "time": 164.9958333333326,
          "velocity": 1,
          "duration": 0.5
        },
        {
          "name": "F#4",
          "midi": 66,
          "time": 165.49166666666594,
          "velocity": 1,
          "duration": 0.4749999999999943
        },
        {
          "name": "B3",
          "midi": 59,
          "time": 165.4958333333326,
          "velocity": 1,
          "duration": 0.5
        },
        {
          "name": "F#3",
          "midi": 54,
          "time": 165.4958333333326,
          "velocity": 1,
          "duration": 0.5
        },
        {
          "name": "B2",
          "midi": 47,
          "time": 165.4958333333326,
          "velocity": 1,
          "duration": 0.5
        },
        {
          "name": "B3",
          "midi": 59,
          "time": 165.4958333333326,
          "velocity": 1,
          "duration": 0.5
        },
        {
          "name": "F#3",
          "midi": 54,
          "time": 165.4958333333326,
          "velocity": 1,
          "duration": 0.5
        },
        {
          "name": "B2",
          "midi": 47,
          "time": 165.4958333333326,
          "velocity": 1,
          "duration": 0.5
        },
        {
          "name": "F#5",
          "midi": 78,
          "time": 165.49999999999926,
          "velocity": 0.905511811023622,
          "duration": 0.5
        },
        {
          "name": "C3",
          "midi": 48,
          "time": 165.9958333333326,
          "velocity": 1,
          "duration": 0.25
        },
        {
          "name": "C3",
          "midi": 48,
          "time": 165.9958333333326,
          "velocity": 1,
          "duration": 0.25
        },
        {
          "name": "G5",
          "midi": 79,
          "time": 165.99999999999926,
          "velocity": 0.9133858267716536,
          "duration": 1
        },
        {
          "name": "G4",
          "midi": 67,
          "time": 165.99999999999926,
          "velocity": 1,
          "duration": 0.9916666666666742
        },
        {
          "name": "C3",
          "midi": 48,
          "time": 166.2458333333326,
          "velocity": 1,
          "duration": 0.25
        },
        {
          "name": "C3",
          "midi": 48,
          "time": 166.2458333333326,
          "velocity": 1,
          "duration": 0.25
        },
        {
          "name": "C3",
          "midi": 48,
          "time": 166.4958333333326,
          "velocity": 1,
          "duration": 0.25
        },
        {
          "name": "C3",
          "midi": 48,
          "time": 166.4958333333326,
          "velocity": 1,
          "duration": 0.25
        },
        {
          "name": "C3",
          "midi": 48,
          "time": 166.7458333333326,
          "velocity": 1,
          "duration": 0.25
        },
        {
          "name": "C3",
          "midi": 48,
          "time": 166.7458333333326,
          "velocity": 1,
          "duration": 0.25
        },
        {
          "name": "D#4",
          "midi": 63,
          "time": 166.9958333333326,
          "velocity": 1,
          "duration": 0.5
        },
        {
          "name": "A#3",
          "midi": 58,
          "time": 166.9958333333326,
          "velocity": 1,
          "duration": 0.5
        },
        {
          "name": "D#3",
          "midi": 51,
          "time": 166.9958333333326,
          "velocity": 1,
          "duration": 0.5
        },
        {
          "name": "D#4",
          "midi": 63,
          "time": 166.9958333333326,
          "velocity": 1,
          "duration": 0.5
        },
        {
          "name": "A#3",
          "midi": 58,
          "time": 166.9958333333326,
          "velocity": 1,
          "duration": 0.5
        },
        {
          "name": "D#3",
          "midi": 51,
          "time": 166.9958333333326,
          "velocity": 1,
          "duration": 0.5
        },
        {
          "name": "F#5",
          "midi": 78,
          "time": 166.99999999999926,
          "velocity": 0.8818897637795275,
          "duration": 1
        },
        {
          "name": "F#4",
          "midi": 66,
          "time": 167.00416666666592,
          "velocity": 1,
          "duration": 1.0041666666666629
        },
        {
          "name": "B3",
          "midi": 59,
          "time": 167.4958333333326,
          "velocity": 1,
          "duration": 0.5
        },
        {
          "name": "F#3",
          "midi": 54,
          "time": 167.4958333333326,
          "velocity": 1,
          "duration": 0.5
        },
        {
          "name": "B2",
          "midi": 47,
          "time": 167.4958333333326,
          "velocity": 1,
          "duration": 0.5
        },
        {
          "name": "B3",
          "midi": 59,
          "time": 167.4958333333326,
          "velocity": 1,
          "duration": 0.5
        },
        {
          "name": "F#3",
          "midi": 54,
          "time": 167.4958333333326,
          "velocity": 1,
          "duration": 0.5
        },
        {
          "name": "B2",
          "midi": 47,
          "time": 167.4958333333326,
          "velocity": 1,
          "duration": 0.5
        },
        {
          "name": "B3",
          "midi": 59,
          "time": 167.9958333333326,
          "velocity": 1,
          "duration": 0.25
        },
        {
          "name": "E4",
          "midi": 64,
          "time": 167.9958333333326,
          "velocity": 1,
          "duration": 0.25
        },
        {
          "name": "E3",
          "midi": 52,
          "time": 167.9958333333326,
          "velocity": 1,
          "duration": 0.25
        },
        {
          "name": "E2",
          "midi": 40,
          "time": 167.9958333333326,
          "velocity": 1,
          "duration": 0.25
        },
        {
          "name": "E4",
          "midi": 64,
          "time": 167.9958333333326,
          "velocity": 1,
          "duration": 0.25
        },
        {
          "name": "E3",
          "midi": 52,
          "time": 167.9958333333326,
          "velocity": 1,
          "duration": 0.25
        },
        {
          "name": "B3",
          "midi": 59,
          "time": 167.9958333333326,
          "velocity": 1,
          "duration": 0.25
        },
        {
          "name": "E2",
          "midi": 40,
          "time": 167.9958333333326,
          "velocity": 1,
          "duration": 0.25
        },
        {
          "name": "F#5",
          "midi": 78,
          "time": 167.99999999999926,
          "velocity": 0.8740157480314961,
          "duration": 0.5
        },
        {
          "name": "F#4",
          "midi": 66,
          "time": 168.0083333333326,
          "velocity": 1,
          "duration": 0.47500000000002274
        },
        {
          "name": "E2",
          "midi": 40,
          "time": 168.2458333333326,
          "velocity": 1,
          "duration": 0.25
        },
        {
          "name": "E2",
          "midi": 40,
          "time": 168.2458333333326,
          "velocity": 1,
          "duration": 0.25
        },
        {
          "name": "E2",
          "midi": 40,
          "time": 168.4958333333326,
          "velocity": 1,
          "duration": 0.25
        },
        {
          "name": "E2",
          "midi": 40,
          "time": 168.4958333333326,
          "velocity": 1,
          "duration": 0.25
        },
        {
          "name": "E5",
          "midi": 76,
          "time": 168.49999999999926,
          "velocity": 0.8661417322834646,
          "duration": 2.5
        },
        {
          "name": "E4",
          "midi": 64,
          "time": 168.50416666666592,
          "velocity": 1,
          "duration": 1.4916666666666742
        },
        {
          "name": "E2",
          "midi": 40,
          "time": 168.7458333333326,
          "velocity": 1,
          "duration": 0.25
        },
        {
          "name": "E2",
          "midi": 40,
          "time": 168.7458333333326,
          "velocity": 1,
          "duration": 0.25
        },
        {
          "name": "A3",
          "midi": 57,
          "time": 168.9958333333326,
          "velocity": 1,
          "duration": 0.5
        },
        {
          "name": "D3",
          "midi": 50,
          "time": 168.9958333333326,
          "velocity": 1,
          "duration": 0.5
        },
        {
          "name": "D4",
          "midi": 62,
          "time": 168.9958333333326,
          "velocity": 1,
          "duration": 0.5
        },
        {
          "name": "D4",
          "midi": 62,
          "time": 168.9958333333326,
          "velocity": 1,
          "duration": 0.5
        },
        {
          "name": "A3",
          "midi": 57,
          "time": 168.9958333333326,
          "velocity": 1,
          "duration": 0.5
        },
        {
          "name": "D3",
          "midi": 50,
          "time": 168.9958333333326,
          "velocity": 1,
          "duration": 0.5
        },
        {
          "name": "E3",
          "midi": 52,
          "time": 169.4958333333326,
          "velocity": 1,
          "duration": 0.5
        },
        {
          "name": "B3",
          "midi": 59,
          "time": 169.4958333333326,
          "velocity": 1,
          "duration": 0.5
        },
        {
          "name": "E4",
          "midi": 64,
          "time": 169.4958333333326,
          "velocity": 1,
          "duration": 0.5
        },
        {
          "name": "E3",
          "midi": 52,
          "time": 169.4958333333326,
          "velocity": 1,
          "duration": 0.5
        },
        {
          "name": "B3",
          "midi": 59,
          "time": 169.4958333333326,
          "velocity": 1,
          "duration": 0.5
        },
        {
          "name": "E4",
          "midi": 64,
          "time": 169.4958333333326,
          "velocity": 1,
          "duration": 1.4916666666666742
        },
        {
          "name": "E3",
          "midi": 52,
          "time": 169.9958333333326,
          "velocity": 1,
          "duration": 0.25
        },
        {
          "name": "E3",
          "midi": 52,
          "time": 169.9958333333326,
          "velocity": 1,
          "duration": 0.25
        },
        {
          "name": "F#3",
          "midi": 54,
          "time": 170.2458333333326,
          "velocity": 1,
          "duration": 0.25
        },
        {
          "name": "F#3",
          "midi": 54,
          "time": 170.2458333333326,
          "velocity": 1,
          "duration": 0.25
        },
        {
          "name": "B3",
          "midi": 59,
          "time": 170.4958333333326,
          "velocity": 1,
          "duration": 0.25
        },
        {
          "name": "B3",
          "midi": 59,
          "time": 170.4958333333326,
          "velocity": 1,
          "duration": 0.25
        },
        {
          "name": "G3",
          "midi": 55,
          "time": 170.7458333333326,
          "velocity": 1,
          "duration": 0.25
        },
        {
          "name": "G3",
          "midi": 55,
          "time": 170.7458333333326,
          "velocity": 1,
          "duration": 0.25
        },
        {
          "name": "F#3",
          "midi": 54,
          "time": 170.9958333333326,
          "velocity": 1,
          "duration": 0.25
        },
        {
          "name": "F#3",
          "midi": 54,
          "time": 170.9958333333326,
          "velocity": 1,
          "duration": 0.25
        },
        {
          "name": "G3",
          "midi": 55,
          "time": 171.2458333333326,
          "velocity": 1,
          "duration": 0.7499999999999716
        },
        {
          "name": "G3",
          "midi": 55,
          "time": 171.2458333333326,
          "velocity": 1,
          "duration": 0.7499999999999716
        },
        {
          "name": "C3",
          "midi": 48,
          "time": 171.99583333333257,
          "velocity": 1,
          "duration": 0.25
        },
        {
          "name": "C3",
          "midi": 48,
          "time": 171.99583333333257,
          "velocity": 1,
          "duration": 0.25
        },
        {
          "name": "C3",
          "midi": 48,
          "time": 172.24583333333257,
          "velocity": 1,
          "duration": 0.25
        },
        {
          "name": "C3",
          "midi": 48,
          "time": 172.24583333333257,
          "velocity": 1,
          "duration": 0.25
        },
        {
          "name": "C3",
          "midi": 48,
          "time": 172.49583333333257,
          "velocity": 1,
          "duration": 0.25
        },
        {
          "name": "C3",
          "midi": 48,
          "time": 172.49583333333257,
          "velocity": 1,
          "duration": 0.25
        },
        {
          "name": "C3",
          "midi": 48,
          "time": 172.74583333333257,
          "velocity": 1,
          "duration": 0.25
        },
        {
          "name": "C3",
          "midi": 48,
          "time": 172.74583333333257,
          "velocity": 1,
          "duration": 0.25
        },
        {
          "name": "G3",
          "midi": 55,
          "time": 172.99583333333257,
          "velocity": 1,
          "duration": 0.5
        },
        {
          "name": "C3",
          "midi": 48,
          "time": 172.99583333333257,
          "velocity": 1,
          "duration": 0.5
        },
        {
          "name": "C4",
          "midi": 60,
          "time": 172.99583333333257,
          "velocity": 1,
          "duration": 0.5
        },
        {
          "name": "G3",
          "midi": 55,
          "time": 172.99583333333257,
          "velocity": 1,
          "duration": 0.5
        },
        {
          "name": "C3",
          "midi": 48,
          "time": 172.99583333333257,
          "velocity": 1,
          "duration": 0.5
        },
        {
          "name": "C4",
          "midi": 60,
          "time": 172.99583333333257,
          "velocity": 1,
          "duration": 0.5
        },
        {
          "name": "F#4",
          "midi": 66,
          "time": 173.49583333333257,
          "velocity": 1,
          "duration": 0.4791666666666572
        },
        {
          "name": "B3",
          "midi": 59,
          "time": 173.49583333333257,
          "velocity": 1,
          "duration": 0.5
        },
        {
          "name": "F#3",
          "midi": 54,
          "time": 173.49583333333257,
          "velocity": 1,
          "duration": 0.5
        },
        {
          "name": "B2",
          "midi": 47,
          "time": 173.49583333333257,
          "velocity": 1,
          "duration": 0.5
        },
        {
          "name": "B2",
          "midi": 47,
          "time": 173.49583333333257,
          "velocity": 1,
          "duration": 0.5
        },
        {
          "name": "B3",
          "midi": 59,
          "time": 173.49583333333257,
          "velocity": 1,
          "duration": 0.5
        },
        {
          "name": "F#3",
          "midi": 54,
          "time": 173.49583333333257,
          "velocity": 1,
          "duration": 0.5
        },
        {
          "name": "F#5",
          "midi": 78,
          "time": 173.49999999999923,
          "velocity": 0.8818897637795275,
          "duration": 0.5
        },
        {
          "name": "G4",
          "midi": 67,
          "time": 173.9916666666659,
          "velocity": 1,
          "duration": 1.0041666666666629
        },
        {
          "name": "C3",
          "midi": 48,
          "time": 173.99583333333257,
          "velocity": 1,
          "duration": 0.25
        },
        {
          "name": "C3",
          "midi": 48,
          "time": 173.99583333333257,
          "velocity": 1,
          "duration": 0.25
        },
        {
          "name": "G5",
          "midi": 79,
          "time": 173.99999999999923,
          "velocity": 0.8818897637795275,
          "duration": 1
        },
        {
          "name": "C3",
          "midi": 48,
          "time": 174.24583333333257,
          "velocity": 1,
          "duration": 0.25
        },
        {
          "name": "C3",
          "midi": 48,
          "time": 174.24583333333257,
          "velocity": 1,
          "duration": 0.25
        },
        {
          "name": "C3",
          "midi": 48,
          "time": 174.49583333333257,
          "velocity": 1,
          "duration": 0.25
        },
        {
          "name": "C3",
          "midi": 48,
          "time": 174.49583333333257,
          "velocity": 1,
          "duration": 0.25
        },
        {
          "name": "C3",
          "midi": 48,
          "time": 174.74583333333257,
          "velocity": 1,
          "duration": 0.25
        },
        {
          "name": "C3",
          "midi": 48,
          "time": 174.74583333333257,
          "velocity": 1,
          "duration": 0.25
        },
        {
          "name": "D#4",
          "midi": 63,
          "time": 174.99583333333257,
          "velocity": 1,
          "duration": 0.5
        },
        {
          "name": "A#3",
          "midi": 58,
          "time": 174.99583333333257,
          "velocity": 1,
          "duration": 0.5
        },
        {
          "name": "D#3",
          "midi": 51,
          "time": 174.99583333333257,
          "velocity": 1,
          "duration": 0.5
        },
        {
          "name": "D#4",
          "midi": 63,
          "time": 174.99583333333257,
          "velocity": 1,
          "duration": 0.5
        },
        {
          "name": "A#3",
          "midi": 58,
          "time": 174.99583333333257,
          "velocity": 1,
          "duration": 0.5
        },
        {
          "name": "D#3",
          "midi": 51,
          "time": 174.99583333333257,
          "velocity": 1,
          "duration": 0.5
        },
        {
          "name": "F#5",
          "midi": 78,
          "time": 174.99999999999923,
          "velocity": 0.8818897637795275,
          "duration": 1
        },
        {
          "name": "F#4",
          "midi": 66,
          "time": 175.0041666666659,
          "velocity": 1,
          "duration": 0.9958333333333371
        },
        {
          "name": "B2",
          "midi": 47,
          "time": 175.49583333333257,
          "velocity": 1,
          "duration": 0.5
        },
        {
          "name": "F#3",
          "midi": 54,
          "time": 175.49583333333257,
          "velocity": 1,
          "duration": 0.5
        },
        {
          "name": "B3",
          "midi": 59,
          "time": 175.49583333333257,
          "velocity": 1,
          "duration": 0.5
        },
        {
          "name": "B3",
          "midi": 59,
          "time": 175.49583333333257,
          "velocity": 1,
          "duration": 0.5
        },
        {
          "name": "F#3",
          "midi": 54,
          "time": 175.49583333333257,
          "velocity": 1,
          "duration": 0.5
        },
        {
          "name": "B2",
          "midi": 47,
          "time": 175.49583333333257,
          "velocity": 1,
          "duration": 0.5
        },
        {
          "name": "F#4",
          "midi": 66,
          "time": 175.99583333333257,
          "velocity": 1,
          "duration": 0.5041666666666629
        },
        {
          "name": "E2",
          "midi": 40,
          "time": 175.99583333333257,
          "velocity": 1,
          "duration": 0.25
        },
        {
          "name": "E4",
          "midi": 64,
          "time": 175.99583333333257,
          "velocity": 1,
          "duration": 0.25
        },
        {
          "name": "B3",
          "midi": 59,
          "time": 175.99583333333257,
          "velocity": 1,
          "duration": 0.25
        },
        {
          "name": "E3",
          "midi": 52,
          "time": 175.99583333333257,
          "velocity": 1,
          "duration": 0.25
        },
        {
          "name": "E4",
          "midi": 64,
          "time": 175.99583333333257,
          "velocity": 1,
          "duration": 0.25
        },
        {
          "name": "B3",
          "midi": 59,
          "time": 175.99583333333257,
          "velocity": 1,
          "duration": 0.25
        },
        {
          "name": "E3",
          "midi": 52,
          "time": 175.99583333333257,
          "velocity": 1,
          "duration": 0.25
        },
        {
          "name": "E2",
          "midi": 40,
          "time": 175.99583333333257,
          "velocity": 1,
          "duration": 0.25
        },
        {
          "name": "F#5",
          "midi": 78,
          "time": 175.99999999999923,
          "velocity": 0.889763779527559,
          "duration": 0.5
        },
        {
          "name": "E2",
          "midi": 40,
          "time": 176.24583333333257,
          "velocity": 1,
          "duration": 0.25
        },
        {
          "name": "E2",
          "midi": 40,
          "time": 176.24583333333257,
          "velocity": 1,
          "duration": 0.25
        },
        {
          "name": "G4",
          "midi": 67,
          "time": 176.49583333333257,
          "velocity": 1,
          "duration": 2.5083333333333258
        },
        {
          "name": "E2",
          "midi": 40,
          "time": 176.49583333333257,
          "velocity": 1,
          "duration": 0.25
        },
        {
          "name": "E2",
          "midi": 40,
          "time": 176.49583333333257,
          "velocity": 1,
          "duration": 0.25
        },
        {
          "name": "G5",
          "midi": 79,
          "time": 176.49999999999923,
          "velocity": 0.8976377952755905,
          "duration": 2.5
        },
        {
          "name": "E2",
          "midi": 40,
          "time": 176.74583333333257,
          "velocity": 1,
          "duration": 0.25
        },
        {
          "name": "E2",
          "midi": 40,
          "time": 176.74583333333257,
          "velocity": 1,
          "duration": 0.25
        },
        {
          "name": "D4",
          "midi": 62,
          "time": 176.99583333333257,
          "velocity": 1,
          "duration": 0.5
        },
        {
          "name": "A3",
          "midi": 57,
          "time": 176.99583333333257,
          "velocity": 1,
          "duration": 0.5
        },
        {
          "name": "D3",
          "midi": 50,
          "time": 176.99583333333257,
          "velocity": 1,
          "duration": 0.5
        },
        {
          "name": "D4",
          "midi": 62,
          "time": 176.99583333333257,
          "velocity": 1,
          "duration": 0.5
        },
        {
          "name": "A3",
          "midi": 57,
          "time": 176.99583333333257,
          "velocity": 1,
          "duration": 0.5
        },
        {
          "name": "D3",
          "midi": 50,
          "time": 176.99583333333257,
          "velocity": 1,
          "duration": 0.5
        },
        {
          "name": "E3",
          "midi": 52,
          "time": 177.49583333333257,
          "velocity": 1,
          "duration": 0.5
        },
        {
          "name": "B3",
          "midi": 59,
          "time": 177.49583333333257,
          "velocity": 1,
          "duration": 0.5
        },
        {
          "name": "E4",
          "midi": 64,
          "time": 177.49583333333257,
          "velocity": 1,
          "duration": 0.5
        },
        {
          "name": "E3",
          "midi": 52,
          "time": 177.49583333333257,
          "velocity": 1,
          "duration": 0.5
        },
        {
          "name": "B3",
          "midi": 59,
          "time": 177.49583333333257,
          "velocity": 1,
          "duration": 0.5
        },
        {
          "name": "E4",
          "midi": 64,
          "time": 177.49583333333257,
          "velocity": 1,
          "duration": 0.5
        },
        {
          "name": "E3",
          "midi": 52,
          "time": 177.99583333333257,
          "velocity": 1,
          "duration": 0.25
        },
        {
          "name": "E3",
          "midi": 52,
          "time": 177.99583333333257,
          "velocity": 1,
          "duration": 0.25
        },
        {
          "name": "F#3",
          "midi": 54,
          "time": 178.24583333333257,
          "velocity": 1,
          "duration": 0.25
        },
        {
          "name": "F#3",
          "midi": 54,
          "time": 178.24583333333257,
          "velocity": 1,
          "duration": 0.25
        },
        {
          "name": "B3",
          "midi": 59,
          "time": 178.49583333333257,
          "velocity": 1,
          "duration": 0.25
        },
        {
          "name": "B3",
          "midi": 59,
          "time": 178.49583333333257,
          "velocity": 1,
          "duration": 0.25
        },
        {
          "name": "G3",
          "midi": 55,
          "time": 178.74583333333257,
          "velocity": 1,
          "duration": 0.25
        },
        {
          "name": "G3",
          "midi": 55,
          "time": 178.74583333333257,
          "velocity": 1,
          "duration": 0.25
        },
        {
          "name": "F#3",
          "midi": 54,
          "time": 178.99583333333257,
          "velocity": 1,
          "duration": 0.25
        },
        {
          "name": "F#3",
          "midi": 54,
          "time": 178.99583333333257,
          "velocity": 1,
          "duration": 0.25
        },
        {
          "name": "G3",
          "midi": 55,
          "time": 179.24583333333257,
          "velocity": 1,
          "duration": 0.7499999999999716
        },
        {
          "name": "G3",
          "midi": 55,
          "time": 179.24583333333257,
          "velocity": 1,
          "duration": 0.7499999999999716
        },
        {
          "name": "C3",
          "midi": 48,
          "time": 179.99583333333254,
          "velocity": 1,
          "duration": 0.25
        },
        {
          "name": "C3",
          "midi": 48,
          "time": 179.99583333333254,
          "velocity": 1,
          "duration": 0.25
        },
        {
          "name": "C3",
          "midi": 48,
          "time": 180.24583333333254,
          "velocity": 1,
          "duration": 0.25
        },
        {
          "name": "C3",
          "midi": 48,
          "time": 180.24583333333254,
          "velocity": 1,
          "duration": 0.25
        },
        {
          "name": "C3",
          "midi": 48,
          "time": 180.49583333333254,
          "velocity": 1,
          "duration": 0.25
        },
        {
          "name": "C3",
          "midi": 48,
          "time": 180.49583333333254,
          "velocity": 1,
          "duration": 0.25
        },
        {
          "name": "C3",
          "midi": 48,
          "time": 180.74583333333254,
          "velocity": 1,
          "duration": 0.25
        },
        {
          "name": "C3",
          "midi": 48,
          "time": 180.74583333333254,
          "velocity": 1,
          "duration": 0.25
        },
        {
          "name": "C4",
          "midi": 60,
          "time": 180.99583333333254,
          "velocity": 1,
          "duration": 0.5
        },
        {
          "name": "G3",
          "midi": 55,
          "time": 180.99583333333254,
          "velocity": 1,
          "duration": 0.5
        },
        {
          "name": "C3",
          "midi": 48,
          "time": 180.99583333333254,
          "velocity": 1,
          "duration": 0.5
        },
        {
          "name": "G3",
          "midi": 55,
          "time": 180.99583333333254,
          "velocity": 1,
          "duration": 0.5
        },
        {
          "name": "C3",
          "midi": 48,
          "time": 180.99583333333254,
          "velocity": 1,
          "duration": 0.5
        },
        {
          "name": "C4",
          "midi": 60,
          "time": 180.99583333333254,
          "velocity": 1,
          "duration": 0.5
        },
        {
          "name": "B3",
          "midi": 59,
          "time": 181.49583333333254,
          "velocity": 1,
          "duration": 0.5
        },
        {
          "name": "F#3",
          "midi": 54,
          "time": 181.49583333333254,
          "velocity": 1,
          "duration": 0.5
        },
        {
          "name": "B2",
          "midi": 47,
          "time": 181.49583333333254,
          "velocity": 1,
          "duration": 0.5
        },
        {
          "name": "F#3",
          "midi": 54,
          "time": 181.49583333333254,
          "velocity": 1,
          "duration": 0.5
        },
        {
          "name": "B2",
          "midi": 47,
          "time": 181.49583333333254,
          "velocity": 1,
          "duration": 0.5
        },
        {
          "name": "B3",
          "midi": 59,
          "time": 181.49583333333254,
          "velocity": 1,
          "duration": 0.5
        },
        {
          "name": "F#5",
          "midi": 78,
          "time": 181.4999999999992,
          "velocity": 0.9133858267716536,
          "duration": 0.5
        },
        {
          "name": "F#4",
          "midi": 66,
          "time": 181.50833333333253,
          "velocity": 1,
          "duration": 0.4958333333333371
        },
        {
          "name": "F#3",
          "midi": 54,
          "time": 181.99583333333254,
          "velocity": 1,
          "duration": 0.25
        },
        {
          "name": "A3",
          "midi": 57,
          "time": 181.99583333333254,
          "velocity": 1,
          "duration": 0.25
        },
        {
          "name": "G5",
          "midi": 79,
          "time": 181.9999999999992,
          "velocity": 0.9133858267716536,
          "duration": 1
        },
        {
          "name": "G4",
          "midi": 67,
          "time": 182.00416666666587,
          "velocity": 1,
          "duration": 1.0083333333333258
        },
        {
          "name": "E3",
          "midi": 52,
          "time": 182.24583333333254,
          "velocity": 1,
          "duration": 0.25
        },
        {
          "name": "G3",
          "midi": 55,
          "time": 182.24583333333254,
          "velocity": 1,
          "duration": 0.25
        },
        {
          "name": "D#3",
          "midi": 51,
          "time": 182.49583333333254,
          "velocity": 1,
          "duration": 0.25
        },
        {
          "name": "F#3",
          "midi": 54,
          "time": 182.49583333333254,
          "velocity": 1,
          "duration": 0.25
        },
        {
          "name": "F#4",
          "midi": 66,
          "time": 182.98749999999922,
          "velocity": 1,
          "duration": 0.9916666666666174
        },
        {
          "name": "D#3",
          "midi": 51,
          "time": 182.99583333333254,
          "velocity": 1,
          "duration": 0.24999999999997158
        },
        {
          "name": "F#3",
          "midi": 54,
          "time": 182.99583333333254,
          "velocity": 1,
          "duration": 0.24999999999997158
        },
        {
          "name": "F#5",
          "midi": 78,
          "time": 182.9999999999992,
          "velocity": 0.9133858267716536,
          "duration": 0.9999999999999716
        },
        {
          "name": "C3",
          "midi": 48,
          "time": 183.2458333333325,
          "velocity": 1,
          "duration": 0.25
        },
        {
          "name": "E3",
          "midi": 52,
          "time": 183.2458333333325,
          "velocity": 1,
          "duration": 0.25
        },
        {
          "name": "B2",
          "midi": 47,
          "time": 183.4958333333325,
          "velocity": 1,
          "duration": 0.25
        },
        {
          "name": "D#3",
          "midi": 51,
          "time": 183.4958333333325,
          "velocity": 1,
          "duration": 0.25
        },
        {
          "name": "B2",
          "midi": 47,
          "time": 183.9958333333325,
          "velocity": 1,
          "duration": 0.5
        },
        {
          "name": "B3",
          "midi": 59,
          "time": 183.9958333333325,
          "velocity": 1,
          "duration": 0.5
        },
        {
          "name": "E2",
          "midi": 40,
          "time": 183.9958333333325,
          "velocity": 1,
          "duration": 0.5
        },
        {
          "name": "E3",
          "midi": 52,
          "time": 183.9958333333325,
          "velocity": 1,
          "duration": 0.5
        },
        {
          "name": "B3",
          "midi": 59,
          "time": 183.9958333333325,
          "velocity": 1,
          "duration": 0.5
        },
        {
          "name": "E3",
          "midi": 52,
          "time": 183.9958333333325,
          "velocity": 1,
          "duration": 0.5
        },
        {
          "name": "E2",
          "midi": 40,
          "time": 183.9958333333325,
          "velocity": 1,
          "duration": 0.5
        },
        {
          "name": "B2",
          "midi": 47,
          "time": 183.9958333333325,
          "velocity": 1,
          "duration": 0.5
        },
        {
          "name": "E5",
          "midi": 76,
          "time": 183.99999999999918,
          "velocity": 0.905511811023622,
          "duration": 0.5
        },
        {
          "name": "E4",
          "midi": 64,
          "time": 183.99999999999918,
          "velocity": 1,
          "duration": 0.5166666666666799
        },
        {
          "name": "E4",
          "midi": 64,
          "time": 184.4958333333325,
          "velocity": 1,
          "duration": 0.5041666666666629
        },
        {
          "name": "B3",
          "midi": 59,
          "time": 184.4958333333325,
          "velocity": 1,
          "duration": 0.5
        },
        {
          "name": "E3",
          "midi": 52,
          "time": 184.4958333333325,
          "velocity": 1,
          "duration": 0.5
        },
        {
          "name": "B2",
          "midi": 47,
          "time": 184.4958333333325,
          "velocity": 1,
          "duration": 0.5
        },
        {
          "name": "E2",
          "midi": 40,
          "time": 184.4958333333325,
          "velocity": 1,
          "duration": 0.5
        },
        {
          "name": "E2",
          "midi": 40,
          "time": 184.4958333333325,
          "velocity": 1,
          "duration": 0.5
        },
        {
          "name": "B2",
          "midi": 47,
          "time": 184.4958333333325,
          "velocity": 1,
          "duration": 0.5
        },
        {
          "name": "B3",
          "midi": 59,
          "time": 184.4958333333325,
          "velocity": 1,
          "duration": 0.5
        },
        {
          "name": "E3",
          "midi": 52,
          "time": 184.4958333333325,
          "velocity": 1,
          "duration": 0.5
        },
        {
          "name": "E5",
          "midi": 76,
          "time": 184.49999999999918,
          "velocity": 0.9133858267716536,
          "duration": 0.5
        },
        {
          "name": "F3",
          "midi": 53,
          "time": 185.9958333333325,
          "velocity": 1,
          "duration": 0.4999999999999716
        },
        {
          "name": "A3",
          "midi": 57,
          "time": 185.9958333333325,
          "velocity": 1,
          "duration": 0.4999999999999716
        },
        {
          "name": "F2",
          "midi": 41,
          "time": 185.9958333333325,
          "velocity": 1,
          "duration": 0.4999999999999716
        },
        {
          "name": "C3",
          "midi": 48,
          "time": 185.9958333333325,
          "velocity": 1,
          "duration": 0.4999999999999716
        },
        {
          "name": "F2",
          "midi": 41,
          "time": 185.9958333333325,
          "velocity": 1,
          "duration": 0.4999999999999716
        },
        {
          "name": "F3",
          "midi": 53,
          "time": 185.9958333333325,
          "velocity": 1,
          "duration": 0.4999999999999716
        },
        {
          "name": "C3",
          "midi": 48,
          "time": 185.9958333333325,
          "velocity": 1,
          "duration": 0.4999999999999716
        },
        {
          "name": "A3",
          "midi": 57,
          "time": 185.9958333333325,
          "velocity": 1,
          "duration": 0.4999999999999716
        },
        {
          "name": "F5",
          "midi": 77,
          "time": 185.99999999999918,
          "velocity": 0.8818897637795275,
          "duration": 0.4999999999999716
        },
        {
          "name": "F4",
          "midi": 65,
          "time": 186.00416666666584,
          "velocity": 1,
          "duration": 0.48333333333332007
        },
        {
          "name": "A3",
          "midi": 57,
          "time": 186.49583333333248,
          "velocity": 1,
          "duration": 0.5
        },
        {
          "name": "F3",
          "midi": 53,
          "time": 186.49583333333248,
          "velocity": 1,
          "duration": 0.5
        },
        {
          "name": "C3",
          "midi": 48,
          "time": 186.49583333333248,
          "velocity": 1,
          "duration": 0.5
        },
        {
          "name": "F2",
          "midi": 41,
          "time": 186.49583333333248,
          "velocity": 1,
          "duration": 0.5
        },
        {
          "name": "C3",
          "midi": 48,
          "time": 186.49583333333248,
          "velocity": 1,
          "duration": 0.5
        },
        {
          "name": "A3",
          "midi": 57,
          "time": 186.49583333333248,
          "velocity": 1,
          "duration": 0.5
        },
        {
          "name": "F3",
          "midi": 53,
          "time": 186.49583333333248,
          "velocity": 1,
          "duration": 0.5
        },
        {
          "name": "F2",
          "midi": 41,
          "time": 186.49583333333248,
          "velocity": 1,
          "duration": 0.5
        },
        {
          "name": "F#5",
          "midi": 78,
          "time": 186.49999999999915,
          "velocity": 0.8582677165354331,
          "duration": 0.5
        },
        {
          "name": "F#4",
          "midi": 66,
          "time": 186.49999999999915,
          "velocity": 1,
          "duration": 0.5208333333333428
        },
        {
          "name": "B2",
          "midi": 47,
          "time": 187.99583333333248,
          "velocity": 1,
          "duration": 1.25
        },
        {
          "name": "B3",
          "midi": 59,
          "time": 187.99583333333248,
          "velocity": 1,
          "duration": 1.25
        },
        {
          "name": "E2",
          "midi": 40,
          "time": 187.99583333333248,
          "velocity": 1,
          "duration": 1.25
        },
        {
          "name": "E3",
          "midi": 52,
          "time": 187.99583333333248,
          "velocity": 1,
          "duration": 1.25
        },
        {
          "name": "E2",
          "midi": 40,
          "time": 187.99583333333248,
          "velocity": 1,
          "duration": 1.25
        },
        {
          "name": "E3",
          "midi": 52,
          "time": 187.99583333333248,
          "velocity": 1,
          "duration": 1.25
        },
        {
          "name": "B3",
          "midi": 59,
          "time": 187.99583333333248,
          "velocity": 1,
          "duration": 1.25
        },
        {
          "name": "B2",
          "midi": 47,
          "time": 187.99583333333248,
          "velocity": 1,
          "duration": 1.25
        },
        {
          "name": "E5",
          "midi": 76,
          "time": 187.99999999999915,
          "velocity": 0.9291338582677166,
          "duration": 0.5
        },
        {
          "name": "E4",
          "midi": 64,
          "time": 187.99999999999915,
          "velocity": 1,
          "duration": 0.5166666666666799
        },
        {
          "name": "E4",
          "midi": 64,
          "time": 188.49583333333248,
          "velocity": 1,
          "duration": 0.24166666666667425
        },
        {
          "name": "E5",
          "midi": 76,
          "time": 188.49999999999915,
          "velocity": 0.9291338582677166,
          "duration": 0.25
        },
        {
          "name": "E4",
          "midi": 64,
          "time": 188.73749999999916,
          "velocity": 1,
          "duration": 0.2708333333333144
        },
        {
          "name": "E5",
          "midi": 76,
          "time": 188.74999999999915,
          "velocity": 0.9291338582677166,
          "duration": 0.25
        },
        {
          "name": "E4",
          "midi": 64,
          "time": 188.99166666666582,
          "velocity": 1,
          "duration": 0.3166666666666629
        },
        {
          "name": "E5",
          "midi": 76,
          "time": 188.99999999999915,
          "velocity": 0.9291338582677166,
          "duration": 0.3333333333333428
        },
        {
          "name": "E2",
          "midi": 40,
          "time": 189.24583333333248,
          "velocity": 1,
          "duration": 0.25
        },
        {
          "name": "E2",
          "midi": 40,
          "time": 189.24583333333248,
          "velocity": 1,
          "duration": 0.25
        },
        {
          "name": "E4",
          "midi": 64,
          "time": 189.32916666666583,
          "velocity": 1,
          "duration": 0.3499999999999659
        },
        {
          "name": "E5",
          "midi": 76,
          "time": 189.3333333333325,
          "velocity": 0.937007874015748,
          "duration": 0.3333333333333144
        },
        {
          "name": "E2",
          "midi": 40,
          "time": 189.49583333333248,
          "velocity": 1,
          "duration": 0.24999999999997158
        },
        {
          "name": "E2",
          "midi": 40,
          "time": 189.49583333333248,
          "velocity": 1,
          "duration": 0.24999999999997158
        },
        {
          "name": "E5",
          "midi": 76,
          "time": 189.6666666666658,
          "velocity": 0.937007874015748,
          "duration": 0.3333333333333144
        },
        {
          "name": "E4",
          "midi": 64,
          "time": 189.67083333333247,
          "velocity": 1,
          "duration": 0.3333333333333144
        },
        {
          "name": "E2",
          "midi": 40,
          "time": 189.74583333333246,
          "velocity": 1,
          "duration": 0.25
        },
        {
          "name": "E2",
          "midi": 40,
          "time": 189.74583333333246,
          "velocity": 1,
          "duration": 0.25
        },
        {
          "name": "F#2",
          "midi": 42,
          "time": 189.99583333333246,
          "velocity": 1,
          "duration": 0.25
        },
        {
          "name": "F#2",
          "midi": 42,
          "time": 189.99583333333246,
          "velocity": 1,
          "duration": 0.25
        },
        {
          "name": "F#5",
          "midi": 78,
          "time": 189.99999999999912,
          "velocity": 0.9448818897637795,
          "duration": 0.25
        },
        {
          "name": "F#4",
          "midi": 66,
          "time": 189.99999999999912,
          "velocity": 1,
          "duration": 0.24583333333333712
        },
        {
          "name": "E2",
          "midi": 40,
          "time": 190.24583333333246,
          "velocity": 1,
          "duration": 0.25
        },
        {
          "name": "E2",
          "midi": 40,
          "time": 190.24583333333246,
          "velocity": 1,
          "duration": 0.25
        },
        {
          "name": "E5",
          "midi": 76,
          "time": 190.24999999999912,
          "velocity": 0.9448818897637795,
          "duration": 0.25
        },
        {
          "name": "E4",
          "midi": 64,
          "time": 190.25833333333244,
          "velocity": 1,
          "duration": 0.2541666666666629
        },
        {
          "name": "E2",
          "midi": 40,
          "time": 190.49583333333246,
          "velocity": 1,
          "duration": 0.24999999999997158
        },
        {
          "name": "E2",
          "midi": 40,
          "time": 190.49583333333246,
          "velocity": 1,
          "duration": 0.24999999999997158
        },
        {
          "name": "E5",
          "midi": 76,
          "time": 190.49999999999912,
          "velocity": 0.9448818897637795,
          "duration": 0.49999999999994316
        },
        {
          "name": "E4",
          "midi": 64,
          "time": 190.50416666666578,
          "velocity": 1,
          "duration": 0.5083333333332689
        },
        {
          "name": "E2",
          "midi": 40,
          "time": 190.74583333333243,
          "velocity": 1,
          "duration": 0.24999999999997158
        },
        {
          "name": "E2",
          "midi": 40,
          "time": 190.74583333333243,
          "velocity": 1,
          "duration": 0.24999999999997158
        },
        {
          "name": "F#4",
          "midi": 66,
          "time": 190.97499999999908,
          "velocity": 0.5905511811023622,
          "duration": 0.004166666666662877
        },
        {
          "name": "F#5",
          "midi": 78,
          "time": 190.97916666666575,
          "velocity": 0.9448818897637795,
          "duration": 0.020833333333314386
        },
        {
          "name": "G4",
          "midi": 67,
          "time": 190.99166666666574,
          "velocity": 1,
          "duration": 1.487499999999983
        },
        {
          "name": "B3",
          "midi": 59,
          "time": 190.9958333333324,
          "velocity": 1,
          "duration": 4
        },
        {
          "name": "G3",
          "midi": 55,
          "time": 190.9958333333324,
          "velocity": 1,
          "duration": 4
        },
        {
          "name": "D3",
          "midi": 50,
          "time": 190.9958333333324,
          "velocity": 1,
          "duration": 4
        },
        {
          "name": "G2",
          "midi": 43,
          "time": 190.9958333333324,
          "velocity": 1,
          "duration": 4
        },
        {
          "name": "B3",
          "midi": 59,
          "time": 190.9958333333324,
          "velocity": 1,
          "duration": 4
        },
        {
          "name": "D3",
          "midi": 50,
          "time": 190.9958333333324,
          "velocity": 1,
          "duration": 4
        },
        {
          "name": "G2",
          "midi": 43,
          "time": 190.9958333333324,
          "velocity": 1,
          "duration": 4
        },
        {
          "name": "G3",
          "midi": 55,
          "time": 190.9958333333324,
          "velocity": 1,
          "duration": 4
        },
        {
          "name": "G5",
          "midi": 79,
          "time": 190.99999999999906,
          "velocity": 0.9448818897637795,
          "duration": 1.5
        },
        {
          "name": "G3",
          "midi": 55,
          "time": 194.9958333333324,
          "velocity": 1,
          "duration": 1.2499999999999716
        },
        {
          "name": "C3",
          "midi": 48,
          "time": 194.9958333333324,
          "velocity": 1,
          "duration": 1.2499999999999716
        },
        {
          "name": "C4",
          "midi": 60,
          "time": 194.9958333333324,
          "velocity": 1,
          "duration": 1.2499999999999716
        },
        {
          "name": "G3",
          "midi": 55,
          "time": 194.9958333333324,
          "velocity": 1,
          "duration": 1.2499999999999716
        },
        {
          "name": "C3",
          "midi": 48,
          "time": 194.9958333333324,
          "velocity": 1,
          "duration": 1.2499999999999716
        },
        {
          "name": "C4",
          "midi": 60,
          "time": 194.9958333333324,
          "velocity": 1,
          "duration": 1.2499999999999716
        },
        {
          "name": "E5",
          "midi": 76,
          "time": 194.99999999999906,
          "velocity": 1,
          "duration": 0.3333333333333144
        },
        {
          "name": "E4",
          "midi": 64,
          "time": 194.99999999999906,
          "velocity": 1,
          "duration": 0.32083333333332575
        },
        {
          "name": "E4",
          "midi": 64,
          "time": 195.3291666666657,
          "velocity": 1,
          "duration": 0.32499999999998863
        },
        {
          "name": "E5",
          "midi": 76,
          "time": 195.33333333333238,
          "velocity": 0.952755905511811,
          "duration": 0.3333333333333144
        },
        {
          "name": "E4",
          "midi": 64,
          "time": 195.6541666666657,
          "velocity": 1,
          "duration": 0.3499999999999943
        },
        {
          "name": "E5",
          "midi": 76,
          "time": 195.6666666666657,
          "velocity": 0.9448818897637795,
          "duration": 0.3333333333333428
        },
        {
          "name": "E5",
          "midi": 76,
          "time": 195.99999999999903,
          "velocity": 0.937007874015748,
          "duration": 0.5
        },
        {
          "name": "E4",
          "midi": 64,
          "time": 196.0041666666657,
          "velocity": 1,
          "duration": 0.5083333333333258
        },
        {
          "name": "A2",
          "midi": 45,
          "time": 196.24583333333237,
          "velocity": 1,
          "duration": 0.25
        },
        {
          "name": "A2",
          "midi": 45,
          "time": 196.24583333333237,
          "velocity": 1,
          "duration": 0.25
        },
        {
          "name": "A2",
          "midi": 45,
          "time": 196.49583333333237,
          "velocity": 1,
          "duration": 0.24999999999997158
        },
        {
          "name": "A2",
          "midi": 45,
          "time": 196.49583333333237,
          "velocity": 1,
          "duration": 0.24999999999997158
        },
        {
          "name": "E5",
          "midi": 76,
          "time": 196.49999999999903,
          "velocity": 0.937007874015748,
          "duration": 0.4999999999999716
        },
        {
          "name": "E4",
          "midi": 64,
          "time": 196.49999999999903,
          "velocity": 1,
          "duration": 0.5083333333332973
        },
        {
          "name": "A2",
          "midi": 45,
          "time": 196.74583333333234,
          "velocity": 1,
          "duration": 0.25
        },
        {
          "name": "A2",
          "midi": 45,
          "time": 196.74583333333234,
          "velocity": 1,
          "duration": 0.25
        },
        {
          "name": "F#4",
          "midi": 66,
          "time": 196.98749999999902,
          "velocity": 1,
          "duration": 0.3499999999999943
        },
        {
          "name": "F#3",
          "midi": 54,
          "time": 196.99583333333234,
          "velocity": 1,
          "duration": 0.25
        },
        {
          "name": "B2",
          "midi": 47,
          "time": 196.99583333333234,
          "velocity": 1,
          "duration": 0.25
        },
        {
          "name": "F#3",
          "midi": 54,
          "time": 196.99583333333234,
          "velocity": 1,
          "duration": 0.25
        },
        {
          "name": "B2",
          "midi": 47,
          "time": 196.99583333333234,
          "velocity": 1,
          "duration": 0.25
        },
        {
          "name": "F#5",
          "midi": 78,
          "time": 196.999999999999,
          "velocity": 0.9212598425196851,
          "duration": 0.3333333333333428
        },
        {
          "name": "A2",
          "midi": 45,
          "time": 197.24583333333234,
          "velocity": 1,
          "duration": 0.25
        },
        {
          "name": "A2",
          "midi": 45,
          "time": 197.24583333333234,
          "velocity": 1,
          "duration": 0.25
        },
        {
          "name": "E5",
          "midi": 76,
          "time": 197.33333333333235,
          "velocity": 0.9448818897637795,
          "duration": 0.3333333333333144
        },
        {
          "name": "E4",
          "midi": 64,
          "time": 197.34166666666567,
          "velocity": 1,
          "duration": 0.32499999999998863
        },
        {
          "name": "A2",
          "midi": 45,
          "time": 197.49583333333234,
          "velocity": 1,
          "duration": 0.25
        },
        {
          "name": "A2",
          "midi": 45,
          "time": 197.49583333333234,
          "velocity": 1,
          "duration": 0.25
        },
        {
          "name": "E4",
          "midi": 64,
          "time": 197.65416666666567,
          "velocity": 1,
          "duration": 0.32499999999998863
        },
        {
          "name": "E5",
          "midi": 76,
          "time": 197.66666666666566,
          "velocity": 0.9448818897637795,
          "duration": 0.3333333333333428
        },
        {
          "name": "A2",
          "midi": 45,
          "time": 197.74583333333234,
          "velocity": 1,
          "duration": 0.25
        },
        {
          "name": "A2",
          "midi": 45,
          "time": 197.74583333333234,
          "velocity": 1,
          "duration": 0.25
        },
        {
          "name": "A3",
          "midi": 57,
          "time": 197.99583333333234,
          "velocity": 1,
          "duration": 4
        },
        {
          "name": "E3",
          "midi": 52,
          "time": 197.99583333333234,
          "velocity": 1,
          "duration": 4
        },
        {
          "name": "A2",
          "midi": 45,
          "time": 197.99583333333234,
          "velocity": 1,
          "duration": 4
        },
        {
          "name": "A3",
          "midi": 57,
          "time": 197.99583333333234,
          "velocity": 1,
          "duration": 4
        },
        {
          "name": "E3",
          "midi": 52,
          "time": 197.99583333333234,
          "velocity": 1,
          "duration": 4
        },
        {
          "name": "A2",
          "midi": 45,
          "time": 197.99583333333234,
          "velocity": 1,
          "duration": 4
        },
        {
          "name": "E5",
          "midi": 76,
          "time": 197.999999999999,
          "velocity": 0.9448818897637795,
          "duration": 1.5
        },
        {
          "name": "E4",
          "midi": 64,
          "time": 198.00833333333233,
          "velocity": 1,
          "duration": 1.51666666666668
        },
        {
          "name": "D4",
          "midi": 62,
          "time": 201.99583333333234,
          "velocity": 1,
          "duration": 1.2499999999999432
        },
        {
          "name": "F#4",
          "midi": 66,
          "time": 201.99583333333234,
          "velocity": 1,
          "duration": 1.2499999999999432
        },
        {
          "name": "A3",
          "midi": 57,
          "time": 201.99583333333234,
          "velocity": 1,
          "duration": 1.2499999999999432
        },
        {
          "name": "D3",
          "midi": 50,
          "time": 201.99583333333234,
          "velocity": 1,
          "duration": 1.2499999999999432
        },
        {
          "name": "F#4",
          "midi": 66,
          "time": 201.99583333333234,
          "velocity": 1,
          "duration": 1.2499999999999432
        },
        {
          "name": "D4",
          "midi": 62,
          "time": 201.99583333333234,
          "velocity": 1,
          "duration": 1.2499999999999432
        },
        {
          "name": "A3",
          "midi": 57,
          "time": 201.99583333333234,
          "velocity": 1,
          "duration": 1.2499999999999432
        },
        {
          "name": "D3",
          "midi": 50,
          "time": 201.99583333333234,
          "velocity": 1,
          "duration": 1.2499999999999432
        },
        {
          "name": "A5",
          "midi": 81,
          "time": 201.999999999999,
          "velocity": 0.9291338582677166,
          "duration": 0.3333333333333144
        },
        {
          "name": "A4",
          "midi": 69,
          "time": 202.00416666666567,
          "velocity": 1,
          "duration": 0.32083333333332575
        },
        {
          "name": "A4",
          "midi": 69,
          "time": 202.324999999999,
          "velocity": 1,
          "duration": 0.32499999999998863
        },
        {
          "name": "A5",
          "midi": 81,
          "time": 202.33333333333232,
          "velocity": 0.9291338582677166,
          "duration": 0.3333333333333144
        },
        {
          "name": "A4",
          "midi": 69,
          "time": 202.66249999999897,
          "velocity": 1,
          "duration": 0.3333333333333144
        },
        {
          "name": "A5",
          "midi": 81,
          "time": 202.66666666666563,
          "velocity": 0.9291338582677166,
          "duration": 0.3333333333333144
        },
        {
          "name": "A4",
          "midi": 69,
          "time": 202.98749999999896,
          "velocity": 1,
          "duration": 0.4916666666666458
        },
        {
          "name": "A5",
          "midi": 81,
          "time": 202.99999999999895,
          "velocity": 0.9291338582677166,
          "duration": 0.5
        },
        {
          "name": "G2",
          "midi": 43,
          "time": 203.24583333333229,
          "velocity": 1,
          "duration": 0.25
        },
        {
          "name": "G2",
          "midi": 43,
          "time": 203.24583333333229,
          "velocity": 1,
          "duration": 0.25
        },
        {
          "name": "G2",
          "midi": 43,
          "time": 203.49583333333229,
          "velocity": 1,
          "duration": 0.25
        },
        {
          "name": "G2",
          "midi": 43,
          "time": 203.49583333333229,
          "velocity": 1,
          "duration": 0.25
        },
        {
          "name": "A5",
          "midi": 81,
          "time": 203.49999999999895,
          "velocity": 0.9212598425196851,
          "duration": 0.25
        },
        {
          "name": "A4",
          "midi": 69,
          "time": 203.50833333333227,
          "velocity": 1,
          "duration": 0.25833333333332575
        },
        {
          "name": "G2",
          "midi": 43,
          "time": 203.74583333333229,
          "velocity": 1,
          "duration": 0.24999999999997158
        },
        {
          "name": "G2",
          "midi": 43,
          "time": 203.74583333333229,
          "velocity": 1,
          "duration": 0.24999999999997158
        },
        {
          "name": "G5",
          "midi": 79,
          "time": 203.74999999999895,
          "velocity": 0.9212598425196851,
          "duration": 0.4999999999999716
        },
        {
          "name": "G4",
          "midi": 67,
          "time": 203.7541666666656,
          "velocity": 1,
          "duration": 0.5083333333332973
        },
        {
          "name": "G3",
          "midi": 55,
          "time": 203.99583333333226,
          "velocity": 1,
          "duration": 0.25
        },
        {
          "name": "C3",
          "midi": 48,
          "time": 203.99583333333226,
          "velocity": 1,
          "duration": 0.25
        },
        {
          "name": "G3",
          "midi": 55,
          "time": 203.99583333333226,
          "velocity": 1,
          "duration": 0.25
        },
        {
          "name": "C3",
          "midi": 48,
          "time": 203.99583333333226,
          "velocity": 1,
          "duration": 0.25
        },
        {
          "name": "G4",
          "midi": 67,
          "time": 204.23749999999893,
          "velocity": 1,
          "duration": 0.25833333333329733
        },
        {
          "name": "G2",
          "midi": 43,
          "time": 204.24583333333226,
          "velocity": 1,
          "duration": 0.24999999999997158
        },
        {
          "name": "G2",
          "midi": 43,
          "time": 204.24583333333226,
          "velocity": 1,
          "duration": 0.24999999999997158
        },
        {
          "name": "G5",
          "midi": 79,
          "time": 204.24999999999892,
          "velocity": 0.9212598425196851,
          "duration": 0.24999999999997158
        },
        {
          "name": "G2",
          "midi": 43,
          "time": 204.49583333333223,
          "velocity": 1,
          "duration": 0.25
        },
        {
          "name": "G2",
          "midi": 43,
          "time": 204.49583333333223,
          "velocity": 1,
          "duration": 0.25
        },
        {
          "name": "G5",
          "midi": 79,
          "time": 204.4999999999989,
          "velocity": 0.905511811023622,
          "duration": 0.4999999999999716
        },
        {
          "name": "G4",
          "midi": 67,
          "time": 204.50833333333222,
          "velocity": 1,
          "duration": 0.5083333333333258
        },
        {
          "name": "G2",
          "midi": 43,
          "time": 204.74583333333223,
          "velocity": 1,
          "duration": 0.24999999999997158
        },
        {
          "name": "G2",
          "midi": 43,
          "time": 204.74583333333223,
          "velocity": 1,
          "duration": 0.24999999999997158
        },
        {
          "name": "E5",
          "midi": 76,
          "time": 204.97916666666555,
          "velocity": 0.905511811023622,
          "duration": 0.020833333333314386
        },
        {
          "name": "E4",
          "midi": 64,
          "time": 204.9833333333322,
          "velocity": 0.5905511811023622,
          "duration": 0.004166666666662877
        },
        {
          "name": "B2",
          "midi": 47,
          "time": 204.9958333333322,
          "velocity": 1,
          "duration": 2.0000000000000284
        },
        {
          "name": "D#4",
          "midi": 63,
          "time": 204.9958333333322,
          "velocity": 1,
          "duration": 2.0000000000000284
        },
        {
          "name": "B3",
          "midi": 59,
          "time": 204.9958333333322,
          "velocity": 1,
          "duration": 2.0000000000000284
        },
        {
          "name": "F#3",
          "midi": 54,
          "time": 204.9958333333322,
          "velocity": 1,
          "duration": 2.0000000000000284
        },
        {
          "name": "B2",
          "midi": 47,
          "time": 204.9958333333322,
          "velocity": 1,
          "duration": 2.0000000000000284
        },
        {
          "name": "F#3",
          "midi": 54,
          "time": 204.9958333333322,
          "velocity": 1,
          "duration": 2.0000000000000284
        },
        {
          "name": "D#4",
          "midi": 63,
          "time": 204.9958333333322,
          "velocity": 1,
          "duration": 2.0000000000000284
        },
        {
          "name": "B3",
          "midi": 59,
          "time": 204.9958333333322,
          "velocity": 1,
          "duration": 2.0000000000000284
        },
        {
          "name": "F#5",
          "midi": 78,
          "time": 204.99999999999886,
          "velocity": 0.905511811023622,
          "duration": 1.5000000000000284
        },
        {
          "name": "F#4",
          "midi": 66,
          "time": 204.99999999999886,
          "velocity": 1,
          "duration": 1.4833333333333485
        },
        {
          "name": "E4",
          "midi": 64,
          "time": 206.99166666666557,
          "velocity": 1,
          "duration": 0.32083333333332575
        },
        {
          "name": "E4",
          "midi": 64,
          "time": 206.99583333333223,
          "velocity": 1,
          "duration": 0.6708333333333201
        },
        {
          "name": "B3",
          "midi": 59,
          "time": 206.99583333333223,
          "velocity": 1,
          "duration": 1.2499999999999716
        },
        {
          "name": "E3",
          "midi": 52,
          "time": 206.99583333333223,
          "velocity": 1,
          "duration": 1.2499999999999716
        },
        {
          "name": "E2",
          "midi": 40,
          "time": 206.99583333333223,
          "velocity": 1,
          "duration": 1.2499999999999716
        },
        {
          "name": "E2",
          "midi": 40,
          "time": 206.99583333333223,
          "velocity": 1,
          "duration": 1.2499999999999716
        },
        {
          "name": "B3",
          "midi": 59,
          "time": 206.99583333333223,
          "velocity": 1,
          "duration": 1.2499999999999716
        },
        {
          "name": "E3",
          "midi": 52,
          "time": 206.99583333333223,
          "velocity": 1,
          "duration": 1.2499999999999716
        },
        {
          "name": "E4",
          "midi": 64,
          "time": 206.99583333333223,
          "velocity": 1,
          "duration": 1.0249999999999773
        },
        {
          "name": "E5",
          "midi": 76,
          "time": 206.9999999999989,
          "velocity": 0.905511811023622,
          "duration": 0.3333333333333144
        },
        {
          "name": "E4",
          "midi": 64,
          "time": 207.32499999999888,
          "velocity": 1,
          "duration": 0.9208333333333201
        },
        {
          "name": "E5",
          "midi": 76,
          "time": 207.3333333333322,
          "velocity": 0.905511811023622,
          "duration": 0.3333333333333428
        },
        {
          "name": "E5",
          "midi": 76,
          "time": 207.66666666666555,
          "velocity": 0.9133858267716536,
          "duration": 0.3333333333333144
        },
        {
          "name": "E4",
          "midi": 64,
          "time": 207.6708333333322,
          "velocity": 1,
          "duration": 0.5749999999999886
        },
        {
          "name": "E4",
          "midi": 64,
          "time": 207.9958333333322,
          "velocity": 1,
          "duration": 0.49166666666667425
        },
        {
          "name": "E5",
          "midi": 76,
          "time": 207.99999999999886,
          "velocity": 0.9133858267716536,
          "duration": 0.5
        },
        {
          "name": "E2",
          "midi": 40,
          "time": 208.2458333333322,
          "velocity": 1,
          "duration": 0.25
        },
        {
          "name": "E2",
          "midi": 40,
          "time": 208.2458333333322,
          "velocity": 1,
          "duration": 0.25
        },
        {
          "name": "E4",
          "midi": 64,
          "time": 208.48749999999887,
          "velocity": 1,
          "duration": 0.25
        },
        {
          "name": "E2",
          "midi": 40,
          "time": 208.4958333333322,
          "velocity": 1,
          "duration": 0.25
        },
        {
          "name": "E2",
          "midi": 40,
          "time": 208.4958333333322,
          "velocity": 1,
          "duration": 0.25
        },
        {
          "name": "E5",
          "midi": 76,
          "time": 208.49999999999886,
          "velocity": 0.905511811023622,
          "duration": 0.25
        },
        {
          "name": "E2",
          "midi": 40,
          "time": 208.7458333333322,
          "velocity": 1,
          "duration": 0.25
        },
        {
          "name": "E2",
          "midi": 40,
          "time": 208.7458333333322,
          "velocity": 1,
          "duration": 0.25
        },
        {
          "name": "F#5",
          "midi": 78,
          "time": 208.74999999999886,
          "velocity": 0.905511811023622,
          "duration": 0.5
        },
        {
          "name": "F#4",
          "midi": 66,
          "time": 208.74999999999886,
          "velocity": 1,
          "duration": 0.4791666666666572
        },
        {
          "name": "D4",
          "midi": 62,
          "time": 208.9958333333322,
          "velocity": 1,
          "duration": 0.5
        },
        {
          "name": "A3",
          "midi": 57,
          "time": 208.9958333333322,
          "velocity": 1,
          "duration": 0.5
        },
        {
          "name": "D3",
          "midi": 50,
          "time": 208.9958333333322,
          "velocity": 1,
          "duration": 0.5
        },
        {
          "name": "A3",
          "midi": 57,
          "time": 208.9958333333322,
          "velocity": 1,
          "duration": 0.5
        },
        {
          "name": "D3",
          "midi": 50,
          "time": 208.9958333333322,
          "velocity": 1,
          "duration": 0.5
        },
        {
          "name": "D4",
          "midi": 62,
          "time": 208.9958333333322,
          "velocity": 1,
          "duration": 0.5
        },
        {
          "name": "E5",
          "midi": 76,
          "time": 209.24999999999886,
          "velocity": 0.905511811023622,
          "duration": 0.25
        },
        {
          "name": "E4",
          "midi": 64,
          "time": 209.25416666666553,
          "velocity": 1,
          "duration": 0.26666666666667993
        },
        {
          "name": "E4",
          "midi": 64,
          "time": 209.4958333333322,
          "velocity": 1,
          "duration": 0.48333333333332007
        },
        {
          "name": "E2",
          "midi": 40,
          "time": 209.4958333333322,
          "velocity": 1,
          "duration": 0.25
        },
        {
          "name": "E2",
          "midi": 40,
          "time": 209.4958333333322,
          "velocity": 1,
          "duration": 0.25
        },
        {
          "name": "E5",
          "midi": 76,
          "time": 209.49999999999886,
          "velocity": 0.905511811023622,
          "duration": 0.4999999999999716
        },
        {
          "name": "E2",
          "midi": 40,
          "time": 209.7458333333322,
          "velocity": 1,
          "duration": 0.24999999999997158
        },
        {
          "name": "E2",
          "midi": 40,
          "time": 209.7458333333322,
          "velocity": 1,
          "duration": 0.24999999999997158
        },
        {
          "name": "F#4",
          "midi": 66,
          "time": 209.9708333333322,
          "velocity": 0.5905511811023622,
          "duration": 0.020833333333314386
        },
        {
          "name": "F#5",
          "midi": 78,
          "time": 209.97916666666552,
          "velocity": 0.905511811023622,
          "duration": 0.020833333333314386
        },
        {
          "name": "G3",
          "midi": 55,
          "time": 209.99583333333217,
          "velocity": 1,
          "duration": 3
        },
        {
          "name": "C4",
          "midi": 60,
          "time": 209.99583333333217,
          "velocity": 1,
          "duration": 3
        },
        {
          "name": "C3",
          "midi": 48,
          "time": 209.99583333333217,
          "velocity": 1,
          "duration": 3
        },
        {
          "name": "E4",
          "midi": 64,
          "time": 209.99583333333217,
          "velocity": 1,
          "duration": 3
        },
        {
          "name": "C4",
          "midi": 60,
          "time": 209.99583333333217,
          "velocity": 1,
          "duration": 3
        },
        {
          "name": "E4",
          "midi": 64,
          "time": 209.99583333333217,
          "velocity": 1,
          "duration": 3
        },
        {
          "name": "G3",
          "midi": 55,
          "time": 209.99583333333217,
          "velocity": 1,
          "duration": 3
        },
        {
          "name": "C3",
          "midi": 48,
          "time": 209.99583333333217,
          "velocity": 1,
          "duration": 3
        },
        {
          "name": "G5",
          "midi": 79,
          "time": 209.99999999999883,
          "velocity": 0.905511811023622,
          "duration": 1.5
        },
        {
          "name": "G4",
          "midi": 67,
          "time": 209.99999999999883,
          "velocity": 1,
          "duration": 1.5041666666666629
        },
        {
          "name": "B3",
          "midi": 59,
          "time": 212.99583333333217,
          "velocity": 1,
          "duration": 0.5
        },
        {
          "name": "E3",
          "midi": 52,
          "time": 212.99583333333217,
          "velocity": 1,
          "duration": 0.5
        },
        {
          "name": "B2",
          "midi": 47,
          "time": 212.99583333333217,
          "velocity": 1,
          "duration": 0.5
        },
        {
          "name": "E2",
          "midi": 40,
          "time": 212.99583333333217,
          "velocity": 1,
          "duration": 0.5
        },
        {
          "name": "E2",
          "midi": 40,
          "time": 212.99583333333217,
          "velocity": 1,
          "duration": 0.5
        },
        {
          "name": "B3",
          "midi": 59,
          "time": 212.99583333333217,
          "velocity": 1,
          "duration": 0.5
        },
        {
          "name": "E3",
          "midi": 52,
          "time": 212.99583333333217,
          "velocity": 1,
          "duration": 0.5
        },
        {
          "name": "B2",
          "midi": 47,
          "time": 212.99583333333217,
          "velocity": 1,
          "duration": 0.5
        },
        {
          "name": "E5",
          "midi": 76,
          "time": 212.99999999999883,
          "velocity": 0.889763779527559,
          "duration": 0.5
        },
        {
          "name": "E4",
          "midi": 64,
          "time": 213.0041666666655,
          "velocity": 1,
          "duration": 0.4958333333333371
        },
        {
          "name": "B2",
          "midi": 47,
          "time": 213.49583333333217,
          "velocity": 1,
          "duration": 0.5
        },
        {
          "name": "E2",
          "midi": 40,
          "time": 213.49583333333217,
          "velocity": 1,
          "duration": 0.5
        },
        {
          "name": "E3",
          "midi": 52,
          "time": 213.49583333333217,
          "velocity": 1,
          "duration": 0.5
        },
        {
          "name": "B3",
          "midi": 59,
          "time": 213.49583333333217,
          "velocity": 1,
          "duration": 0.5
        },
        {
          "name": "B2",
          "midi": 47,
          "time": 213.49583333333217,
          "velocity": 1,
          "duration": 0.5
        },
        {
          "name": "E3",
          "midi": 52,
          "time": 213.49583333333217,
          "velocity": 1,
          "duration": 0.5
        },
        {
          "name": "E2",
          "midi": 40,
          "time": 213.49583333333217,
          "velocity": 1,
          "duration": 0.5
        },
        {
          "name": "B3",
          "midi": 59,
          "time": 213.49583333333217,
          "velocity": 1,
          "duration": 0.5
        },
        {
          "name": "E5",
          "midi": 76,
          "time": 213.49999999999883,
          "velocity": 0.889763779527559,
          "duration": 0.5
        },
        {
          "name": "E4",
          "midi": 64,
          "time": 213.5041666666655,
          "velocity": 1,
          "duration": 0.5083333333333258
        },
        {
          "name": "A3",
          "midi": 57,
          "time": 214.99583333333214,
          "velocity": 1,
          "duration": 0.4999999999999716
        },
        {
          "name": "F2",
          "midi": 41,
          "time": 214.99583333333214,
          "velocity": 1,
          "duration": 0.4999999999999716
        },
        {
          "name": "F3",
          "midi": 53,
          "time": 214.99583333333214,
          "velocity": 1,
          "duration": 0.4999999999999716
        },
        {
          "name": "C3",
          "midi": 48,
          "time": 214.99583333333214,
          "velocity": 1,
          "duration": 0.4999999999999716
        },
        {
          "name": "A3",
          "midi": 57,
          "time": 214.99583333333214,
          "velocity": 1,
          "duration": 0.4999999999999716
        },
        {
          "name": "F3",
          "midi": 53,
          "time": 214.99583333333214,
          "velocity": 1,
          "duration": 0.4999999999999716
        },
        {
          "name": "C3",
          "midi": 48,
          "time": 214.99583333333214,
          "velocity": 1,
          "duration": 0.4999999999999716
        },
        {
          "name": "F2",
          "midi": 41,
          "time": 214.99583333333214,
          "velocity": 1,
          "duration": 0.4999999999999716
        },
        {
          "name": "F5",
          "midi": 77,
          "time": 214.9999999999988,
          "velocity": 0.8976377952755905,
          "duration": 0.4999999999999716
        },
        {
          "name": "F4",
          "midi": 65,
          "time": 215.00416666666547,
          "velocity": 1,
          "duration": 0.4791666666666572
        },
        {
          "name": "F#4",
          "midi": 66,
          "time": 215.49583333333211,
          "velocity": 1,
          "duration": 0.4749999999999943
        },
        {
          "name": "F2",
          "midi": 41,
          "time": 215.49583333333211,
          "velocity": 1,
          "duration": 0.5
        },
        {
          "name": "A3",
          "midi": 57,
          "time": 215.49583333333211,
          "velocity": 1,
          "duration": 0.5
        },
        {
          "name": "F3",
          "midi": 53,
          "time": 215.49583333333211,
          "velocity": 1,
          "duration": 0.5
        },
        {
          "name": "C3",
          "midi": 48,
          "time": 215.49583333333211,
          "velocity": 1,
          "duration": 0.5
        },
        {
          "name": "A3",
          "midi": 57,
          "time": 215.49583333333211,
          "velocity": 1,
          "duration": 0.5
        },
        {
          "name": "F2",
          "midi": 41,
          "time": 215.49583333333211,
          "velocity": 1,
          "duration": 0.5
        },
        {
          "name": "F3",
          "midi": 53,
          "time": 215.49583333333211,
          "velocity": 1,
          "duration": 0.5
        },
        {
          "name": "C3",
          "midi": 48,
          "time": 215.49583333333211,
          "velocity": 1,
          "duration": 0.5
        },
        {
          "name": "F#5",
          "midi": 78,
          "time": 215.49999999999878,
          "velocity": 0.8976377952755905,
          "duration": 0.5
        },
        {
          "name": "E4",
          "midi": 64,
          "time": 216.9874999999988,
          "velocity": 1,
          "duration": 0.4749999999999943
        },
        {
          "name": "E2",
          "midi": 40,
          "time": 216.99583333333211,
          "velocity": 1,
          "duration": 1.2499999999999716
        },
        {
          "name": "B3",
          "midi": 59,
          "time": 216.99583333333211,
          "velocity": 1,
          "duration": 1.2499999999999716
        },
        {
          "name": "E3",
          "midi": 52,
          "time": 216.99583333333211,
          "velocity": 1,
          "duration": 1.2499999999999716
        },
        {
          "name": "B2",
          "midi": 47,
          "time": 216.99583333333211,
          "velocity": 1,
          "duration": 1.2499999999999716
        },
        {
          "name": "B3",
          "midi": 59,
          "time": 216.99583333333211,
          "velocity": 1,
          "duration": 1.2499999999999716
        },
        {
          "name": "B2",
          "midi": 47,
          "time": 216.99583333333211,
          "velocity": 1,
          "duration": 1.2499999999999716
        },
        {
          "name": "E2",
          "midi": 40,
          "time": 216.99583333333211,
          "velocity": 1,
          "duration": 1.2499999999999716
        },
        {
          "name": "E3",
          "midi": 52,
          "time": 216.99583333333211,
          "velocity": 1,
          "duration": 1.2499999999999716
        },
        {
          "name": "E5",
          "midi": 76,
          "time": 216.99999999999878,
          "velocity": 0.9133858267716536,
          "duration": 0.5
        },
        {
          "name": "E4",
          "midi": 64,
          "time": 217.49583333333211,
          "velocity": 1,
          "duration": 0.22499999999999432
        },
        {
          "name": "E5",
          "midi": 76,
          "time": 217.49999999999878,
          "velocity": 0.9133858267716536,
          "duration": 0.25
        },
        {
          "name": "E5",
          "midi": 76,
          "time": 217.74999999999878,
          "velocity": 0.9133858267716536,
          "duration": 0.24999999999997158
        },
        {
          "name": "E4",
          "midi": 64,
          "time": 217.7583333333321,
          "velocity": 1,
          "duration": 0.24166666666664582
        },
        {
          "name": "E4",
          "midi": 64,
          "time": 217.98749999999876,
          "velocity": 1,
          "duration": 0.48749999999998295
        },
        {
          "name": "E5",
          "midi": 76,
          "time": 217.99999999999875,
          "velocity": 0.905511811023622,
          "duration": 0.5
        },
        {
          "name": "E2",
          "midi": 40,
          "time": 218.2458333333321,
          "velocity": 1,
          "duration": 0.25
        },
        {
          "name": "E2",
          "midi": 40,
          "time": 218.2458333333321,
          "velocity": 1,
          "duration": 0.25
        },
        {
          "name": "E2",
          "midi": 40,
          "time": 218.4958333333321,
          "velocity": 1,
          "duration": 0.25
        },
        {
          "name": "E2",
          "midi": 40,
          "time": 218.4958333333321,
          "velocity": 1,
          "duration": 0.25
        },
        {
          "name": "E5",
          "midi": 76,
          "time": 218.49999999999875,
          "velocity": 0.9212598425196851,
          "duration": 0.25
        },
        {
          "name": "E4",
          "midi": 64,
          "time": 218.49999999999875,
          "velocity": 1,
          "duration": 0.25833333333332575
        },
        {
          "name": "E2",
          "midi": 40,
          "time": 218.7458333333321,
          "velocity": 1,
          "duration": 0.25
        },
        {
          "name": "E2",
          "midi": 40,
          "time": 218.7458333333321,
          "velocity": 1,
          "duration": 0.25
        },
        {
          "name": "F#5",
          "midi": 78,
          "time": 218.74999999999875,
          "velocity": 0.9212598425196851,
          "duration": 0.5
        },
        {
          "name": "F#4",
          "midi": 66,
          "time": 218.74999999999875,
          "velocity": 1,
          "duration": 0.4791666666666572
        },
        {
          "name": "F#2",
          "midi": 42,
          "time": 218.9958333333321,
          "velocity": 1,
          "duration": 0.25
        },
        {
          "name": "F#2",
          "midi": 42,
          "time": 218.9958333333321,
          "velocity": 1,
          "duration": 0.25
        },
        {
          "name": "E4",
          "midi": 64,
          "time": 219.2458333333321,
          "velocity": 1,
          "duration": 0.24166666666667425
        },
        {
          "name": "E2",
          "midi": 40,
          "time": 219.2458333333321,
          "velocity": 1,
          "duration": 0.25
        },
        {
          "name": "E2",
          "midi": 40,
          "time": 219.2458333333321,
          "velocity": 1,
          "duration": 0.25
        },
        {
          "name": "E5",
          "midi": 76,
          "time": 219.24999999999875,
          "velocity": 0.9212598425196851,
          "duration": 0.25
        },
        {
          "name": "E4",
          "midi": 64,
          "time": 219.48749999999876,
          "velocity": 1,
          "duration": 0.4749999999999943
        },
        {
          "name": "E2",
          "midi": 40,
          "time": 219.4958333333321,
          "velocity": 1,
          "duration": 0.25
        },
        {
          "name": "E2",
          "midi": 40,
          "time": 219.4958333333321,
          "velocity": 1,
          "duration": 0.25
        },
        {
          "name": "E5",
          "midi": 76,
          "time": 219.49999999999875,
          "velocity": 0.9212598425196851,
          "duration": 0.5
        },
        {
          "name": "E2",
          "midi": 40,
          "time": 219.7458333333321,
          "velocity": 1,
          "duration": 0.25
        },
        {
          "name": "E2",
          "midi": 40,
          "time": 219.7458333333321,
          "velocity": 1,
          "duration": 0.25
        },
        {
          "name": "D5",
          "midi": 74,
          "time": 219.97916666666544,
          "velocity": 0.9212598425196851,
          "duration": 0.020833333333314386
        },
        {
          "name": "D4",
          "midi": 62,
          "time": 219.98749999999876,
          "velocity": 0.5905511811023622,
          "duration": 0.02916666666664014
        },
        {
          "name": "C4",
          "midi": 60,
          "time": 219.9958333333321,
          "velocity": 1,
          "duration": 3.9999999999999716
        },
        {
          "name": "E4",
          "midi": 64,
          "time": 219.9958333333321,
          "velocity": 1,
          "duration": 2.0208333333333144
        },
        {
          "name": "G3",
          "midi": 55,
          "time": 219.9958333333321,
          "velocity": 1,
          "duration": 3.9999999999999716
        },
        {
          "name": "C3",
          "midi": 48,
          "time": 219.9958333333321,
          "velocity": 1,
          "duration": 3.9999999999999716
        },
        {
          "name": "E4",
          "midi": 64,
          "time": 219.9958333333321,
          "velocity": 1,
          "duration": 3.9999999999999716
        },
        {
          "name": "G3",
          "midi": 55,
          "time": 219.9958333333321,
          "velocity": 1,
          "duration": 3.9999999999999716
        },
        {
          "name": "C3",
          "midi": 48,
          "time": 219.9958333333321,
          "velocity": 1,
          "duration": 3.9999999999999716
        },
        {
          "name": "C4",
          "midi": 60,
          "time": 219.9958333333321,
          "velocity": 1,
          "duration": 3.9999999999999716
        },
        {
          "name": "E5",
          "midi": 76,
          "time": 219.99999999999875,
          "velocity": 0.9212598425196851,
          "duration": 1.9999999999999716
        },
        {
          "name": "E4",
          "midi": 64,
          "time": 220.00833333333208,
          "velocity": 1,
          "duration": 3.987499999999983
        },
        {
          "name": "B2",
          "midi": 47,
          "time": 223.99583333333206,
          "velocity": 1,
          "duration": 0.4999999999999716
        },
        {
          "name": "B3",
          "midi": 59,
          "time": 223.99583333333206,
          "velocity": 1,
          "duration": 0.4999999999999716
        },
        {
          "name": "E2",
          "midi": 40,
          "time": 223.99583333333206,
          "velocity": 1,
          "duration": 0.4999999999999716
        },
        {
          "name": "E3",
          "midi": 52,
          "time": 223.99583333333206,
          "velocity": 1,
          "duration": 0.4999999999999716
        },
        {
          "name": "E3",
          "midi": 52,
          "time": 223.99583333333206,
          "velocity": 1,
          "duration": 0.4999999999999716
        },
        {
          "name": "B2",
          "midi": 47,
          "time": 223.99583333333206,
          "velocity": 1,
          "duration": 0.4999999999999716
        },
        {
          "name": "B3",
          "midi": 59,
          "time": 223.99583333333206,
          "velocity": 1,
          "duration": 0.4999999999999716
        },
        {
          "name": "E2",
          "midi": 40,
          "time": 223.99583333333206,
          "velocity": 1,
          "duration": 0.4999999999999716
        },
        {
          "name": "E5",
          "midi": 76,
          "time": 223.99999999999872,
          "velocity": 0.9133858267716536,
          "duration": 0.4999999999999716
        },
        {
          "name": "E4",
          "midi": 64,
          "time": 223.99999999999872,
          "velocity": 1,
          "duration": 0.48333333333332007
        },
        {
          "name": "E4",
          "midi": 64,
          "time": 224.49583333333203,
          "velocity": 1,
          "duration": 0.5083333333333258
        },
        {
          "name": "E2",
          "midi": 40,
          "time": 224.49583333333203,
          "velocity": 1,
          "duration": 0.5
        },
        {
          "name": "B2",
          "midi": 47,
          "time": 224.49583333333203,
          "velocity": 1,
          "duration": 0.5
        },
        {
          "name": "E3",
          "midi": 52,
          "time": 224.49583333333203,
          "velocity": 1,
          "duration": 0.5
        },
        {
          "name": "B3",
          "midi": 59,
          "time": 224.49583333333203,
          "velocity": 1,
          "duration": 0.5
        },
        {
          "name": "E2",
          "midi": 40,
          "time": 224.49583333333203,
          "velocity": 1,
          "duration": 0.5
        },
        {
          "name": "B2",
          "midi": 47,
          "time": 224.49583333333203,
          "velocity": 1,
          "duration": 0.5
        },
        {
          "name": "E3",
          "midi": 52,
          "time": 224.49583333333203,
          "velocity": 1,
          "duration": 0.5
        },
        {
          "name": "B3",
          "midi": 59,
          "time": 224.49583333333203,
          "velocity": 1,
          "duration": 0.5
        },
        {
          "name": "E5",
          "midi": 76,
          "time": 224.4999999999987,
          "velocity": 0.9133858267716536,
          "duration": 0.5
        },
        {
          "name": "F4",
          "midi": 65,
          "time": 225.99583333333203,
          "velocity": 1,
          "duration": 0.5041666666666629
        },
        {
          "name": "F3",
          "midi": 53,
          "time": 225.99583333333203,
          "velocity": 1,
          "duration": 0.5
        },
        {
          "name": "A3",
          "midi": 57,
          "time": 225.99583333333203,
          "velocity": 1,
          "duration": 0.5
        },
        {
          "name": "C3",
          "midi": 48,
          "time": 225.99583333333203,
          "velocity": 1,
          "duration": 0.5
        },
        {
          "name": "F2",
          "midi": 41,
          "time": 225.99583333333203,
          "velocity": 1,
          "duration": 0.5
        },
        {
          "name": "A3",
          "midi": 57,
          "time": 225.99583333333203,
          "velocity": 1,
          "duration": 0.5
        },
        {
          "name": "F2",
          "midi": 41,
          "time": 225.99583333333203,
          "velocity": 1,
          "duration": 0.5
        },
        {
          "name": "F3",
          "midi": 53,
          "time": 225.99583333333203,
          "velocity": 1,
          "duration": 0.5
        },
        {
          "name": "C3",
          "midi": 48,
          "time": 225.99583333333203,
          "velocity": 1,
          "duration": 0.5
        },
        {
          "name": "F5",
          "midi": 77,
          "time": 225.9999999999987,
          "velocity": 0.905511811023622,
          "duration": 0.5
        },
        {
          "name": "F#4",
          "midi": 66,
          "time": 226.49583333333203,
          "velocity": 1,
          "duration": 0.5041666666666629
        },
        {
          "name": "A3",
          "midi": 57,
          "time": 226.49583333333203,
          "velocity": 1,
          "duration": 0.5
        },
        {
          "name": "F2",
          "midi": 41,
          "time": 226.49583333333203,
          "velocity": 1,
          "duration": 0.5
        },
        {
          "name": "F3",
          "midi": 53,
          "time": 226.49583333333203,
          "velocity": 1,
          "duration": 0.5
        },
        {
          "name": "C3",
          "midi": 48,
          "time": 226.49583333333203,
          "velocity": 1,
          "duration": 0.5
        },
        {
          "name": "A3",
          "midi": 57,
          "time": 226.49583333333203,
          "velocity": 1,
          "duration": 0.5
        },
        {
          "name": "C3",
          "midi": 48,
          "time": 226.49583333333203,
          "velocity": 1,
          "duration": 0.5
        },
        {
          "name": "F2",
          "midi": 41,
          "time": 226.49583333333203,
          "velocity": 1,
          "duration": 0.5
        },
        {
          "name": "F3",
          "midi": 53,
          "time": 226.49583333333203,
          "velocity": 1,
          "duration": 0.5
        },
        {
          "name": "F#5",
          "midi": 78,
          "time": 226.4999999999987,
          "velocity": 0.905511811023622,
          "duration": 0.5
        },
        {
          "name": "E2",
          "midi": 40,
          "time": 227.99583333333203,
          "velocity": 1,
          "duration": 0.25
        },
        {
          "name": "E2",
          "midi": 40,
          "time": 227.99583333333203,
          "velocity": 1,
          "duration": 0.25
        },
        {
          "name": "F2",
          "midi": 41,
          "time": 228.24583333333203,
          "velocity": 1,
          "duration": 0.25
        },
        {
          "name": "F2",
          "midi": 41,
          "time": 228.24583333333203,
          "velocity": 1,
          "duration": 0.25
        },
        {
          "name": "B2",
          "midi": 47,
          "time": 228.49583333333203,
          "velocity": 1,
          "duration": 0.25
        },
        {
          "name": "B2",
          "midi": 47,
          "time": 228.49583333333203,
          "velocity": 1,
          "duration": 0.25
        },
        {
          "name": "E2",
          "midi": 40,
          "time": 228.74583333333203,
          "velocity": 1,
          "duration": 0.25
        },
        {
          "name": "E2",
          "midi": 40,
          "time": 228.74583333333203,
          "velocity": 1,
          "duration": 0.25
        },
        {
          "name": "F2",
          "midi": 41,
          "time": 228.99583333333203,
          "velocity": 1,
          "duration": 0.25
        },
        {
          "name": "F2",
          "midi": 41,
          "time": 228.99583333333203,
          "velocity": 1,
          "duration": 0.25
        },
        {
          "name": "C3",
          "midi": 48,
          "time": 229.24583333333203,
          "velocity": 1,
          "duration": 0.25
        },
        {
          "name": "C3",
          "midi": 48,
          "time": 229.24583333333203,
          "velocity": 1,
          "duration": 0.25
        },
        {
          "name": "E2",
          "midi": 40,
          "time": 229.49583333333203,
          "velocity": 1,
          "duration": 0.25
        },
        {
          "name": "E2",
          "midi": 40,
          "time": 229.49583333333203,
          "velocity": 1,
          "duration": 0.25
        },
        {
          "name": "F2",
          "midi": 41,
          "time": 229.74583333333203,
          "velocity": 1,
          "duration": 0.25
        },
        {
          "name": "F2",
          "midi": 41,
          "time": 229.74583333333203,
          "velocity": 1,
          "duration": 0.25
        },
        {
          "name": "C#3",
          "midi": 49,
          "time": 229.99583333333203,
          "velocity": 1,
          "duration": 0.25
        },
        {
          "name": "C#3",
          "midi": 49,
          "time": 229.99583333333203,
          "velocity": 1,
          "duration": 0.25
        },
        {
          "name": "E2",
          "midi": 40,
          "time": 230.24583333333203,
          "velocity": 1,
          "duration": 0.25
        },
        {
          "name": "E2",
          "midi": 40,
          "time": 230.24583333333203,
          "velocity": 1,
          "duration": 0.25
        },
        {
          "name": "F2",
          "midi": 41,
          "time": 230.49583333333203,
          "velocity": 1,
          "duration": 0.25
        },
        {
          "name": "F2",
          "midi": 41,
          "time": 230.49583333333203,
          "velocity": 1,
          "duration": 0.25
        },
        {
          "name": "C3",
          "midi": 48,
          "time": 230.74583333333203,
          "velocity": 1,
          "duration": 0.25
        },
        {
          "name": "C3",
          "midi": 48,
          "time": 230.74583333333203,
          "velocity": 1,
          "duration": 0.25
        },
        {
          "name": "E2",
          "midi": 40,
          "time": 230.99583333333203,
          "velocity": 1,
          "duration": 0.25
        },
        {
          "name": "E2",
          "midi": 40,
          "time": 230.99583333333203,
          "velocity": 1,
          "duration": 0.25
        },
        {
          "name": "F2",
          "midi": 41,
          "time": 231.24583333333203,
          "velocity": 1,
          "duration": 0.25
        },
        {
          "name": "F2",
          "midi": 41,
          "time": 231.24583333333203,
          "velocity": 1,
          "duration": 0.25
        },
        {
          "name": "B2",
          "midi": 47,
          "time": 231.49583333333203,
          "velocity": 1,
          "duration": 0.25
        },
        {
          "name": "B2",
          "midi": 47,
          "time": 231.49583333333203,
          "velocity": 1,
          "duration": 0.25
        },
        {
          "name": "B2",
          "midi": 47,
          "time": 231.74583333333203,
          "velocity": 1,
          "duration": 0.25
        },
        {
          "name": "B2",
          "midi": 47,
          "time": 231.74583333333203,
          "velocity": 1,
          "duration": 0.25
        },
        {
          "name": "E2",
          "midi": 40,
          "time": 231.99583333333203,
          "velocity": 1,
          "duration": 0.25
        },
        {
          "name": "E2",
          "midi": 40,
          "time": 231.99583333333203,
          "velocity": 1,
          "duration": 0.25
        },
        {
          "name": "F2",
          "midi": 41,
          "time": 232.24583333333203,
          "velocity": 1,
          "duration": 0.25
        },
        {
          "name": "F2",
          "midi": 41,
          "time": 232.24583333333203,
          "velocity": 1,
          "duration": 0.25
        },
        {
          "name": "B2",
          "midi": 47,
          "time": 232.49583333333203,
          "velocity": 1,
          "duration": 0.25
        },
        {
          "name": "B2",
          "midi": 47,
          "time": 232.49583333333203,
          "velocity": 1,
          "duration": 0.25
        },
        {
          "name": "E2",
          "midi": 40,
          "time": 232.74583333333203,
          "velocity": 1,
          "duration": 0.25
        },
        {
          "name": "E2",
          "midi": 40,
          "time": 232.74583333333203,
          "velocity": 1,
          "duration": 0.25
        },
        {
          "name": "F2",
          "midi": 41,
          "time": 232.99583333333203,
          "velocity": 1,
          "duration": 0.25
        },
        {
          "name": "F2",
          "midi": 41,
          "time": 232.99583333333203,
          "velocity": 1,
          "duration": 0.25
        },
        {
          "name": "C3",
          "midi": 48,
          "time": 233.24583333333203,
          "velocity": 1,
          "duration": 0.25
        },
        {
          "name": "C3",
          "midi": 48,
          "time": 233.24583333333203,
          "velocity": 1,
          "duration": 0.25
        },
        {
          "name": "F2",
          "midi": 41,
          "time": 233.49583333333203,
          "velocity": 1,
          "duration": 0.25
        },
        {
          "name": "F2",
          "midi": 41,
          "time": 233.49583333333203,
          "velocity": 1,
          "duration": 0.25
        },
        {
          "name": "E2",
          "midi": 40,
          "time": 233.74583333333203,
          "velocity": 1,
          "duration": 0.25
        },
        {
          "name": "E2",
          "midi": 40,
          "time": 233.74583333333203,
          "velocity": 1,
          "duration": 0.25
        },
        {
          "name": "C#3",
          "midi": 49,
          "time": 233.99583333333203,
          "velocity": 1,
          "duration": 0.25
        },
        {
          "name": "C#3",
          "midi": 49,
          "time": 233.99583333333203,
          "velocity": 1,
          "duration": 0.25
        },
        {
          "name": "E2",
          "midi": 40,
          "time": 234.24583333333203,
          "velocity": 1,
          "duration": 0.25
        },
        {
          "name": "E2",
          "midi": 40,
          "time": 234.24583333333203,
          "velocity": 1,
          "duration": 0.25
        },
        {
          "name": "F2",
          "midi": 41,
          "time": 234.49583333333203,
          "velocity": 1,
          "duration": 0.25
        },
        {
          "name": "F2",
          "midi": 41,
          "time": 234.49583333333203,
          "velocity": 1,
          "duration": 0.25
        },
        {
          "name": "C3",
          "midi": 48,
          "time": 234.74583333333203,
          "velocity": 1,
          "duration": 0.25
        },
        {
          "name": "C3",
          "midi": 48,
          "time": 234.74583333333203,
          "velocity": 1,
          "duration": 0.25
        },
        {
          "name": "F2",
          "midi": 41,
          "time": 234.99583333333203,
          "velocity": 1,
          "duration": 0.25
        },
        {
          "name": "F2",
          "midi": 41,
          "time": 234.99583333333203,
          "velocity": 1,
          "duration": 0.25
        },
        {
          "name": "E2",
          "midi": 40,
          "time": 235.24583333333203,
          "velocity": 1,
          "duration": 0.25
        },
        {
          "name": "E2",
          "midi": 40,
          "time": 235.24583333333203,
          "velocity": 1,
          "duration": 0.25
        },
        {
          "name": "B3",
          "midi": 59,
          "time": 235.49583333333203,
          "velocity": 1,
          "duration": 0.5
        },
        {
          "name": "F#3",
          "midi": 54,
          "time": 235.49583333333203,
          "velocity": 1,
          "duration": 0.5
        },
        {
          "name": "B2",
          "midi": 47,
          "time": 235.49583333333203,
          "velocity": 1,
          "duration": 0.5
        },
        {
          "name": "B2",
          "midi": 47,
          "time": 235.49583333333203,
          "velocity": 1,
          "duration": 0.5
        },
        {
          "name": "F#3",
          "midi": 54,
          "time": 235.49583333333203,
          "velocity": 1,
          "duration": 0.5
        },
        {
          "name": "B3",
          "midi": 59,
          "time": 235.49583333333203,
          "velocity": 1,
          "duration": 0.5
        },
        {
          "name": "E2",
          "midi": 40,
          "time": 235.99583333333203,
          "velocity": 1,
          "duration": 0.25
        },
        {
          "name": "E2",
          "midi": 40,
          "time": 235.99583333333203,
          "velocity": 1,
          "duration": 0.25
        },
        {
          "name": "F2",
          "midi": 41,
          "time": 236.24583333333203,
          "velocity": 1,
          "duration": 0.25
        },
        {
          "name": "F2",
          "midi": 41,
          "time": 236.24583333333203,
          "velocity": 1,
          "duration": 0.25
        },
        {
          "name": "B2",
          "midi": 47,
          "time": 236.49583333333203,
          "velocity": 1,
          "duration": 0.25
        },
        {
          "name": "B2",
          "midi": 47,
          "time": 236.49583333333203,
          "velocity": 1,
          "duration": 0.25
        },
        {
          "name": "E2",
          "midi": 40,
          "time": 236.74583333333203,
          "velocity": 1,
          "duration": 0.25
        },
        {
          "name": "E2",
          "midi": 40,
          "time": 236.74583333333203,
          "velocity": 1,
          "duration": 0.25
        },
        {
          "name": "F2",
          "midi": 41,
          "time": 236.99583333333203,
          "velocity": 1,
          "duration": 0.25
        },
        {
          "name": "F2",
          "midi": 41,
          "time": 236.99583333333203,
          "velocity": 1,
          "duration": 0.25
        },
        {
          "name": "C3",
          "midi": 48,
          "time": 237.24583333333203,
          "velocity": 1,
          "duration": 0.25
        },
        {
          "name": "C3",
          "midi": 48,
          "time": 237.24583333333203,
          "velocity": 1,
          "duration": 0.25
        },
        {
          "name": "E2",
          "midi": 40,
          "time": 237.49583333333203,
          "velocity": 1,
          "duration": 0.25
        },
        {
          "name": "E2",
          "midi": 40,
          "time": 237.49583333333203,
          "velocity": 1,
          "duration": 0.25
        },
        {
          "name": "F2",
          "midi": 41,
          "time": 237.74583333333203,
          "velocity": 1,
          "duration": 0.25
        },
        {
          "name": "F2",
          "midi": 41,
          "time": 237.74583333333203,
          "velocity": 1,
          "duration": 0.25
        },
        {
          "name": "C#3",
          "midi": 49,
          "time": 237.99583333333203,
          "velocity": 1,
          "duration": 0.25
        },
        {
          "name": "C#3",
          "midi": 49,
          "time": 237.99583333333203,
          "velocity": 1,
          "duration": 0.25
        },
        {
          "name": "E2",
          "midi": 40,
          "time": 238.24583333333203,
          "velocity": 1,
          "duration": 0.25
        },
        {
          "name": "E2",
          "midi": 40,
          "time": 238.24583333333203,
          "velocity": 1,
          "duration": 0.25
        },
        {
          "name": "F2",
          "midi": 41,
          "time": 238.49583333333203,
          "velocity": 1,
          "duration": 0.25
        },
        {
          "name": "F2",
          "midi": 41,
          "time": 238.49583333333203,
          "velocity": 1,
          "duration": 0.25
        },
        {
          "name": "C3",
          "midi": 48,
          "time": 238.74583333333203,
          "velocity": 1,
          "duration": 0.25
        },
        {
          "name": "C3",
          "midi": 48,
          "time": 238.74583333333203,
          "velocity": 1,
          "duration": 0.25
        },
        {
          "name": "E2",
          "midi": 40,
          "time": 238.99583333333203,
          "velocity": 1,
          "duration": 0.25
        },
        {
          "name": "E2",
          "midi": 40,
          "time": 238.99583333333203,
          "velocity": 1,
          "duration": 0.25
        },
        {
          "name": "F2",
          "midi": 41,
          "time": 239.24583333333203,
          "velocity": 1,
          "duration": 0.25
        },
        {
          "name": "F2",
          "midi": 41,
          "time": 239.24583333333203,
          "velocity": 1,
          "duration": 0.25
        },
        {
          "name": "B2",
          "midi": 47,
          "time": 239.49583333333203,
          "velocity": 1,
          "duration": 0.25
        },
        {
          "name": "B2",
          "midi": 47,
          "time": 239.49583333333203,
          "velocity": 1,
          "duration": 0.25
        },
        {
          "name": "B2",
          "midi": 47,
          "time": 239.74583333333203,
          "velocity": 1,
          "duration": 0.25
        },
        {
          "name": "B2",
          "midi": 47,
          "time": 239.74583333333203,
          "velocity": 1,
          "duration": 0.25
        },
        {
          "name": "E2",
          "midi": 40,
          "time": 239.99583333333203,
          "velocity": 1,
          "duration": 0.25
        },
        {
          "name": "E2",
          "midi": 40,
          "time": 239.99583333333203,
          "velocity": 1,
          "duration": 0.25
        },
        {
          "name": "F2",
          "midi": 41,
          "time": 240.24583333333203,
          "velocity": 1,
          "duration": 0.25
        },
        {
          "name": "F2",
          "midi": 41,
          "time": 240.24583333333203,
          "velocity": 1,
          "duration": 0.25
        },
        {
          "name": "B2",
          "midi": 47,
          "time": 240.49583333333203,
          "velocity": 1,
          "duration": 0.25
        },
        {
          "name": "B2",
          "midi": 47,
          "time": 240.49583333333203,
          "velocity": 1,
          "duration": 0.25
        },
        {
          "name": "E2",
          "midi": 40,
          "time": 240.74583333333203,
          "velocity": 1,
          "duration": 0.25
        },
        {
          "name": "E2",
          "midi": 40,
          "time": 240.74583333333203,
          "velocity": 1,
          "duration": 0.25
        },
        {
          "name": "F2",
          "midi": 41,
          "time": 240.99583333333203,
          "velocity": 1,
          "duration": 0.25
        },
        {
          "name": "F2",
          "midi": 41,
          "time": 240.99583333333203,
          "velocity": 1,
          "duration": 0.25
        },
        {
          "name": "C3",
          "midi": 48,
          "time": 241.24583333333203,
          "velocity": 1,
          "duration": 0.25
        },
        {
          "name": "C3",
          "midi": 48,
          "time": 241.24583333333203,
          "velocity": 1,
          "duration": 0.25
        },
        {
          "name": "F2",
          "midi": 41,
          "time": 241.49583333333203,
          "velocity": 1,
          "duration": 0.25
        },
        {
          "name": "F2",
          "midi": 41,
          "time": 241.49583333333203,
          "velocity": 1,
          "duration": 0.25
        },
        {
          "name": "E2",
          "midi": 40,
          "time": 241.74583333333203,
          "velocity": 1,
          "duration": 0.25
        },
        {
          "name": "E2",
          "midi": 40,
          "time": 241.74583333333203,
          "velocity": 1,
          "duration": 0.25
        },
        {
          "name": "D3",
          "midi": 50,
          "time": 241.99583333333203,
          "velocity": 1,
          "duration": 0.19999999999998863
        },
        {
          "name": "G2",
          "midi": 43,
          "time": 241.99583333333203,
          "velocity": 1,
          "duration": 0.19999999999998863
        },
        {
          "name": "D3",
          "midi": 50,
          "time": 241.99583333333203,
          "velocity": 1,
          "duration": 0.25
        },
        {
          "name": "G2",
          "midi": 43,
          "time": 241.99583333333203,
          "velocity": 1,
          "duration": 0.25
        },
        {
          "name": "F#2",
          "midi": 42,
          "time": 242.24583333333203,
          "velocity": 1,
          "duration": 0.19999999999998863
        },
        {
          "name": "C#3",
          "midi": 49,
          "time": 242.24583333333203,
          "velocity": 1,
          "duration": 0.19999999999998863
        },
        {
          "name": "C#3",
          "midi": 49,
          "time": 242.24583333333203,
          "velocity": 1,
          "duration": 0.25
        },
        {
          "name": "F#2",
          "midi": 42,
          "time": 242.24583333333203,
          "velocity": 1,
          "duration": 0.25
        },
        {
          "name": "E2",
          "midi": 40,
          "time": 242.49583333333203,
          "velocity": 1,
          "duration": 0.19999999999998863
        },
        {
          "name": "E2",
          "midi": 40,
          "time": 242.49583333333203,
          "velocity": 1,
          "duration": 0.25
        },
        {
          "name": "G2",
          "midi": 43,
          "time": 242.74583333333203,
          "velocity": 1,
          "duration": 0.19999999999998863
        },
        {
          "name": "D3",
          "midi": 50,
          "time": 242.74583333333203,
          "velocity": 1,
          "duration": 0.19999999999998863
        },
        {
          "name": "G2",
          "midi": 43,
          "time": 242.74583333333203,
          "velocity": 1,
          "duration": 0.25
        },
        {
          "name": "D3",
          "midi": 50,
          "time": 242.74583333333203,
          "velocity": 1,
          "duration": 0.25
        },
        {
          "name": "F#2",
          "midi": 42,
          "time": 242.99583333333203,
          "velocity": 1,
          "duration": 0.19999999999998863
        },
        {
          "name": "C#3",
          "midi": 49,
          "time": 242.99583333333203,
          "velocity": 1,
          "duration": 0.19999999999998863
        },
        {
          "name": "F#2",
          "midi": 42,
          "time": 242.99583333333203,
          "velocity": 1,
          "duration": 0.25
        },
        {
          "name": "C#3",
          "midi": 49,
          "time": 242.99583333333203,
          "velocity": 1,
          "duration": 0.25
        },
        {
          "name": "E2",
          "midi": 40,
          "time": 243.24583333333203,
          "velocity": 1,
          "duration": 0.19999999999998863
        },
        {
          "name": "E2",
          "midi": 40,
          "time": 243.24583333333203,
          "velocity": 1,
          "duration": 0.25
        },
        {
          "name": "D3",
          "midi": 50,
          "time": 243.49583333333203,
          "velocity": 1,
          "duration": 0.19999999999998863
        },
        {
          "name": "G2",
          "midi": 43,
          "time": 243.49583333333203,
          "velocity": 1,
          "duration": 0.19999999999998863
        },
        {
          "name": "G2",
          "midi": 43,
          "time": 243.49583333333203,
          "velocity": 1,
          "duration": 0.25
        },
        {
          "name": "D3",
          "midi": 50,
          "time": 243.49583333333203,
          "velocity": 1,
          "duration": 0.25
        },
        {
          "name": "C#3",
          "midi": 49,
          "time": 243.74583333333203,
          "velocity": 1,
          "duration": 0.19999999999998863
        },
        {
          "name": "F#2",
          "midi": 42,
          "time": 243.74583333333203,
          "velocity": 1,
          "duration": 0.19999999999998863
        },
        {
          "name": "C#3",
          "midi": 49,
          "time": 243.74583333333203,
          "velocity": 1,
          "duration": 0.25
        },
        {
          "name": "F#2",
          "midi": 42,
          "time": 243.74583333333203,
          "velocity": 1,
          "duration": 0.25
        },
        {
          "name": "G2",
          "midi": 43,
          "time": 243.99583333333203,
          "velocity": 1,
          "duration": 0.19999999999998863
        },
        {
          "name": "D3",
          "midi": 50,
          "time": 243.99583333333203,
          "velocity": 1,
          "duration": 0.19999999999998863
        },
        {
          "name": "D3",
          "midi": 50,
          "time": 243.99583333333203,
          "velocity": 1,
          "duration": 0.25
        },
        {
          "name": "G2",
          "midi": 43,
          "time": 243.99583333333203,
          "velocity": 1,
          "duration": 0.25
        },
        {
          "name": "F#2",
          "midi": 42,
          "time": 244.24583333333203,
          "velocity": 1,
          "duration": 0.19999999999998863
        },
        {
          "name": "C#3",
          "midi": 49,
          "time": 244.24583333333203,
          "velocity": 1,
          "duration": 0.19999999999998863
        },
        {
          "name": "F#2",
          "midi": 42,
          "time": 244.24583333333203,
          "velocity": 1,
          "duration": 0.25
        },
        {
          "name": "C#3",
          "midi": 49,
          "time": 244.24583333333203,
          "velocity": 1,
          "duration": 0.25
        },
        {
          "name": "E2",
          "midi": 40,
          "time": 244.49583333333203,
          "velocity": 1,
          "duration": 0.19999999999998863
        },
        {
          "name": "E2",
          "midi": 40,
          "time": 244.49583333333203,
          "velocity": 1,
          "duration": 0.25
        },
        {
          "name": "G2",
          "midi": 43,
          "time": 244.74583333333203,
          "velocity": 1,
          "duration": 0.19999999999998863
        },
        {
          "name": "D3",
          "midi": 50,
          "time": 244.74583333333203,
          "velocity": 1,
          "duration": 0.19999999999998863
        },
        {
          "name": "G2",
          "midi": 43,
          "time": 244.74583333333203,
          "velocity": 1,
          "duration": 0.25
        },
        {
          "name": "D3",
          "midi": 50,
          "time": 244.74583333333203,
          "velocity": 1,
          "duration": 0.25
        },
        {
          "name": "F#2",
          "midi": 42,
          "time": 244.99583333333203,
          "velocity": 1,
          "duration": 0.19999999999998863
        },
        {
          "name": "C#3",
          "midi": 49,
          "time": 244.99583333333203,
          "velocity": 1,
          "duration": 0.19999999999998863
        },
        {
          "name": "C#3",
          "midi": 49,
          "time": 244.99583333333203,
          "velocity": 1,
          "duration": 0.25
        },
        {
          "name": "F#2",
          "midi": 42,
          "time": 244.99583333333203,
          "velocity": 1,
          "duration": 0.25
        },
        {
          "name": "E2",
          "midi": 40,
          "time": 245.24583333333203,
          "velocity": 1,
          "duration": 0.19999999999998863
        },
        {
          "name": "E2",
          "midi": 40,
          "time": 245.24583333333203,
          "velocity": 1,
          "duration": 0.25
        },
        {
          "name": "D3",
          "midi": 50,
          "time": 245.49583333333203,
          "velocity": 1,
          "duration": 0.19999999999998863
        },
        {
          "name": "G2",
          "midi": 43,
          "time": 245.49583333333203,
          "velocity": 1,
          "duration": 0.19999999999998863
        },
        {
          "name": "D3",
          "midi": 50,
          "time": 245.49583333333203,
          "velocity": 1,
          "duration": 0.25
        },
        {
          "name": "G2",
          "midi": 43,
          "time": 245.49583333333203,
          "velocity": 1,
          "duration": 0.25
        },
        {
          "name": "C#3",
          "midi": 49,
          "time": 245.74583333333203,
          "velocity": 1,
          "duration": 0.19999999999998863
        },
        {
          "name": "F#2",
          "midi": 42,
          "time": 245.74583333333203,
          "velocity": 1,
          "duration": 0.19999999999998863
        },
        {
          "name": "C#3",
          "midi": 49,
          "time": 245.74583333333203,
          "velocity": 1,
          "duration": 0.25
        },
        {
          "name": "F#2",
          "midi": 42,
          "time": 245.74583333333203,
          "velocity": 1,
          "duration": 0.25
        },
        {
          "name": "E2",
          "midi": 40,
          "time": 245.99583333333203,
          "velocity": 1,
          "duration": 0.2458333333333087
        },
        {
          "name": "E2",
          "midi": 40,
          "time": 245.99583333333203,
          "velocity": 1,
          "duration": 0.24999999999997158
        },
        {
          "name": "G5",
          "midi": 79,
          "time": 245.9999999999987,
          "velocity": 0.9133858267716536,
          "duration": 0.24999999999997158
        },
        {
          "name": "G4",
          "midi": 67,
          "time": 246.00833333333202,
          "velocity": 1,
          "duration": 0.24999999999997158
        },
        {
          "name": "G4",
          "midi": 67,
          "time": 246.24166666666534,
          "velocity": 1,
          "duration": 0.47916666666662877
        },
        {
          "name": "E2",
          "midi": 40,
          "time": 246.245833333332,
          "velocity": 1,
          "duration": 0.2458333333333087
        },
        {
          "name": "E2",
          "midi": 40,
          "time": 246.245833333332,
          "velocity": 1,
          "duration": 0.24999999999997158
        },
        {
          "name": "G5",
          "midi": 79,
          "time": 246.24999999999866,
          "velocity": 0.9212598425196851,
          "duration": 0.4999999999999716
        },
        {
          "name": "E2",
          "midi": 40,
          "time": 246.49583333333197,
          "velocity": 1,
          "duration": 0.24583333333333712
        },
        {
          "name": "E2",
          "midi": 40,
          "time": 246.49583333333197,
          "velocity": 1,
          "duration": 0.25
        },
        {
          "name": "G4",
          "midi": 67,
          "time": 246.74583333333197,
          "velocity": 1,
          "duration": 0.5
        },
        {
          "name": "E2",
          "midi": 40,
          "time": 246.74583333333197,
          "velocity": 1,
          "duration": 0.24583333333333712
        },
        {
          "name": "E2",
          "midi": 40,
          "time": 246.74583333333197,
          "velocity": 1,
          "duration": 0.25
        },
        {
          "name": "G5",
          "midi": 79,
          "time": 246.74999999999864,
          "velocity": 0.9212598425196851,
          "duration": 0.5
        },
        {
          "name": "E2",
          "midi": 40,
          "time": 246.99583333333197,
          "velocity": 1,
          "duration": 0.24583333333333712
        },
        {
          "name": "E2",
          "midi": 40,
          "time": 246.99583333333197,
          "velocity": 1,
          "duration": 0.25
        },
        {
          "name": "E4",
          "midi": 64,
          "time": 247.2416666666653,
          "velocity": 1,
          "duration": 0.4749999999999943
        },
        {
          "name": "E2",
          "midi": 40,
          "time": 247.24583333333197,
          "velocity": 1,
          "duration": 0.24583333333333712
        },
        {
          "name": "E2",
          "midi": 40,
          "time": 247.24583333333197,
          "velocity": 1,
          "duration": 0.25
        },
        {
          "name": "E5",
          "midi": 76,
          "time": 247.24999999999864,
          "velocity": 0.9291338582677166,
          "duration": 0.4999999999999716
        },
        {
          "name": "E2",
          "midi": 40,
          "time": 247.49583333333197,
          "velocity": 1,
          "duration": 0.2458333333333087
        },
        {
          "name": "E2",
          "midi": 40,
          "time": 247.49583333333197,
          "velocity": 1,
          "duration": 0.24999999999997158
        },
        {
          "name": "D5",
          "midi": 74,
          "time": 247.7291666666653,
          "velocity": 0.9291338582677166,
          "duration": 0.020833333333314386
        },
        {
          "name": "D4",
          "midi": 62,
          "time": 247.73749999999862,
          "velocity": 0.5905511811023622,
          "duration": 0.04166666666665719
        },
        {
          "name": "E4",
          "midi": 64,
          "time": 247.74166666666528,
          "velocity": 1,
          "duration": 1.2458333333333371
        },
        {
          "name": "E2",
          "midi": 40,
          "time": 247.74583333333194,
          "velocity": 1,
          "duration": 0.24583333333333712
        },
        {
          "name": "E2",
          "midi": 40,
          "time": 247.74583333333194,
          "velocity": 1,
          "duration": 0.25
        },
        {
          "name": "E5",
          "midi": 76,
          "time": 247.7499999999986,
          "velocity": 0.9291338582677166,
          "duration": 1.25
        },
        {
          "name": "E2",
          "midi": 40,
          "time": 247.99583333333194,
          "velocity": 1,
          "duration": 0.24583333333333712
        },
        {
          "name": "E2",
          "midi": 40,
          "time": 247.99583333333194,
          "velocity": 1,
          "duration": 0.25
        },
        {
          "name": "G2",
          "midi": 43,
          "time": 248.24583333333194,
          "velocity": 1,
          "duration": 0.24583333333333712
        },
        {
          "name": "D3",
          "midi": 50,
          "time": 248.24583333333194,
          "velocity": 1,
          "duration": 0.24583333333333712
        },
        {
          "name": "G2",
          "midi": 43,
          "time": 248.24583333333194,
          "velocity": 1,
          "duration": 0.25
        },
        {
          "name": "D3",
          "midi": 50,
          "time": 248.24583333333194,
          "velocity": 1,
          "duration": 0.25
        },
        {
          "name": "E3",
          "midi": 52,
          "time": 248.49583333333194,
          "velocity": 1,
          "duration": 0.24583333333333712
        },
        {
          "name": "A2",
          "midi": 45,
          "time": 248.49583333333194,
          "velocity": 1,
          "duration": 0.24583333333333712
        },
        {
          "name": "E3",
          "midi": 52,
          "time": 248.49583333333194,
          "velocity": 1,
          "duration": 0.25
        },
        {
          "name": "A2",
          "midi": 45,
          "time": 248.49583333333194,
          "velocity": 1,
          "duration": 0.25
        },
        {
          "name": "E2",
          "midi": 40,
          "time": 248.74583333333194,
          "velocity": 1,
          "duration": 0.24583333333333712
        },
        {
          "name": "E2",
          "midi": 40,
          "time": 248.74583333333194,
          "velocity": 1,
          "duration": 0.25
        },
        {
          "name": "A#2",
          "midi": 46,
          "time": 248.99583333333194,
          "velocity": 1,
          "duration": 0.24583333333333712
        },
        {
          "name": "F3",
          "midi": 53,
          "time": 248.99583333333194,
          "velocity": 1,
          "duration": 0.24583333333333712
        },
        {
          "name": "F3",
          "midi": 53,
          "time": 248.99583333333194,
          "velocity": 1,
          "duration": 0.25
        },
        {
          "name": "A#2",
          "midi": 46,
          "time": 248.99583333333194,
          "velocity": 1,
          "duration": 0.25
        },
        {
          "name": "A2",
          "midi": 45,
          "time": 249.24583333333194,
          "velocity": 1,
          "duration": 0.24583333333333712
        },
        {
          "name": "E3",
          "midi": 52,
          "time": 249.24583333333194,
          "velocity": 1,
          "duration": 0.24583333333333712
        },
        {
          "name": "A2",
          "midi": 45,
          "time": 249.24583333333194,
          "velocity": 1,
          "duration": 0.25
        },
        {
          "name": "E3",
          "midi": 52,
          "time": 249.24583333333194,
          "velocity": 1,
          "duration": 0.25
        },
        {
          "name": "D3",
          "midi": 50,
          "time": 249.49583333333194,
          "velocity": 1,
          "duration": 0.24583333333333712
        },
        {
          "name": "G2",
          "midi": 43,
          "time": 249.49583333333194,
          "velocity": 1,
          "duration": 0.24583333333333712
        },
        {
          "name": "D3",
          "midi": 50,
          "time": 249.49583333333194,
          "velocity": 1,
          "duration": 0.25
        },
        {
          "name": "G2",
          "midi": 43,
          "time": 249.49583333333194,
          "velocity": 1,
          "duration": 0.25
        },
        {
          "name": "E2",
          "midi": 40,
          "time": 249.99583333333194,
          "velocity": 1,
          "duration": 0.24583333333333712
        },
        {
          "name": "E2",
          "midi": 40,
          "time": 249.99583333333194,
          "velocity": 1,
          "duration": 0.25
        },
        {
          "name": "E5",
          "midi": 76,
          "time": 249.9999999999986,
          "velocity": 0.937007874015748,
          "duration": 0.25
        },
        {
          "name": "E4",
          "midi": 64,
          "time": 250.00416666666527,
          "velocity": 1,
          "duration": 0.2708333333333428
        },
        {
          "name": "E2",
          "midi": 40,
          "time": 250.24583333333194,
          "velocity": 1,
          "duration": 0.24583333333333712
        },
        {
          "name": "E2",
          "midi": 40,
          "time": 250.24583333333194,
          "velocity": 1,
          "duration": 0.25
        },
        {
          "name": "E5",
          "midi": 76,
          "time": 250.2499999999986,
          "velocity": 0.937007874015748,
          "duration": 0.5
        },
        {
          "name": "E4",
          "midi": 64,
          "time": 250.2499999999986,
          "velocity": 1,
          "duration": 0.5083333333333258
        },
        {
          "name": "E2",
          "midi": 40,
          "time": 250.49583333333194,
          "velocity": 1,
          "duration": 0.24583333333333712
        },
        {
          "name": "E2",
          "midi": 40,
          "time": 250.49583333333194,
          "velocity": 1,
          "duration": 0.25
        },
        {
          "name": "E4",
          "midi": 64,
          "time": 250.74166666666528,
          "velocity": 1,
          "duration": 0.4999999999999716
        },
        {
          "name": "E2",
          "midi": 40,
          "time": 250.74583333333194,
          "velocity": 1,
          "duration": 0.2458333333333087
        },
        {
          "name": "E2",
          "midi": 40,
          "time": 250.74583333333194,
          "velocity": 1,
          "duration": 0.24999999999997158
        },
        {
          "name": "E5",
          "midi": 76,
          "time": 250.7499999999986,
          "velocity": 0.937007874015748,
          "duration": 0.4999999999999716
        },
        {
          "name": "E2",
          "midi": 40,
          "time": 250.99583333333192,
          "velocity": 1,
          "duration": 0.24583333333333712
        },
        {
          "name": "E2",
          "midi": 40,
          "time": 250.99583333333192,
          "velocity": 1,
          "duration": 0.25
        },
        {
          "name": "E2",
          "midi": 40,
          "time": 251.24583333333192,
          "velocity": 1,
          "duration": 0.24583333333333712
        },
        {
          "name": "E2",
          "midi": 40,
          "time": 251.24583333333192,
          "velocity": 1,
          "duration": 0.25
        },
        {
          "name": "F#5",
          "midi": 78,
          "time": 251.24999999999858,
          "velocity": 0.937007874015748,
          "duration": 0.5
        },
        {
          "name": "F#4",
          "midi": 66,
          "time": 251.25416666666524,
          "velocity": 1,
          "duration": 0.5083333333333258
        },
        {
          "name": "E2",
          "midi": 40,
          "time": 251.49583333333192,
          "velocity": 1,
          "duration": 0.24583333333333712
        },
        {
          "name": "E2",
          "midi": 40,
          "time": 251.49583333333192,
          "velocity": 1,
          "duration": 0.25
        },
        {
          "name": "E2",
          "midi": 40,
          "time": 251.74583333333192,
          "velocity": 1,
          "duration": 0.2458333333333087
        },
        {
          "name": "E2",
          "midi": 40,
          "time": 251.74583333333192,
          "velocity": 1,
          "duration": 0.24999999999997158
        },
        {
          "name": "G5",
          "midi": 79,
          "time": 251.74999999999858,
          "velocity": 0.9448818897637795,
          "duration": 1.2499999999999716
        },
        {
          "name": "G4",
          "midi": 67,
          "time": 251.7583333333319,
          "velocity": 1,
          "duration": 1.2583333333333258
        },
        {
          "name": "E2",
          "midi": 40,
          "time": 251.9958333333319,
          "velocity": 1,
          "duration": 0.24583333333333712
        },
        {
          "name": "E2",
          "midi": 40,
          "time": 251.9958333333319,
          "velocity": 1,
          "duration": 0.25
        },
        {
          "name": "D3",
          "midi": 50,
          "time": 252.2458333333319,
          "velocity": 1,
          "duration": 0.24583333333333712
        },
        {
          "name": "G2",
          "midi": 43,
          "time": 252.2458333333319,
          "velocity": 1,
          "duration": 0.24583333333333712
        },
        {
          "name": "G2",
          "midi": 43,
          "time": 252.2458333333319,
          "velocity": 1,
          "duration": 0.25
        },
        {
          "name": "D3",
          "midi": 50,
          "time": 252.2458333333319,
          "velocity": 1,
          "duration": 0.25
        },
        {
          "name": "A2",
          "midi": 45,
          "time": 252.4958333333319,
          "velocity": 1,
          "duration": 0.24583333333333712
        },
        {
          "name": "E3",
          "midi": 52,
          "time": 252.4958333333319,
          "velocity": 1,
          "duration": 0.24583333333333712
        },
        {
          "name": "E3",
          "midi": 52,
          "time": 252.4958333333319,
          "velocity": 1,
          "duration": 0.25
        },
        {
          "name": "A2",
          "midi": 45,
          "time": 252.4958333333319,
          "velocity": 1,
          "duration": 0.25
        },
        {
          "name": "D3",
          "midi": 50,
          "time": 252.7458333333319,
          "velocity": 1,
          "duration": 0.24583333333333712
        },
        {
          "name": "G2",
          "midi": 43,
          "time": 252.7458333333319,
          "velocity": 1,
          "duration": 0.24583333333333712
        },
        {
          "name": "D3",
          "midi": 50,
          "time": 252.7458333333319,
          "velocity": 1,
          "duration": 0.25
        },
        {
          "name": "G2",
          "midi": 43,
          "time": 252.7458333333319,
          "velocity": 1,
          "duration": 0.25
        },
        {
          "name": "E3",
          "midi": 52,
          "time": 252.9958333333319,
          "velocity": 1,
          "duration": 0.24583333333333712
        },
        {
          "name": "A2",
          "midi": 45,
          "time": 252.9958333333319,
          "velocity": 1,
          "duration": 0.24583333333333712
        },
        {
          "name": "A2",
          "midi": 45,
          "time": 252.9958333333319,
          "velocity": 1,
          "duration": 0.25
        },
        {
          "name": "E3",
          "midi": 52,
          "time": 252.9958333333319,
          "velocity": 1,
          "duration": 0.25
        },
        {
          "name": "E4",
          "midi": 64,
          "time": 253.2458333333319,
          "velocity": 1,
          "duration": 0.9916666666666742
        },
        {
          "name": "E2",
          "midi": 40,
          "time": 253.2458333333319,
          "velocity": 1,
          "duration": 0.24583333333333712
        },
        {
          "name": "E2",
          "midi": 40,
          "time": 253.2458333333319,
          "velocity": 1,
          "duration": 0.25
        },
        {
          "name": "E5",
          "midi": 76,
          "time": 253.24999999999855,
          "velocity": 0.937007874015748,
          "duration": 1
        },
        {
          "name": "E2",
          "midi": 40,
          "time": 253.4958333333319,
          "velocity": 1,
          "duration": 0.24583333333333712
        },
        {
          "name": "E2",
          "midi": 40,
          "time": 253.4958333333319,
          "velocity": 1,
          "duration": 0.25
        },
        {
          "name": "E2",
          "midi": 40,
          "time": 253.7458333333319,
          "velocity": 1,
          "duration": 0.24583333333333712
        },
        {
          "name": "E2",
          "midi": 40,
          "time": 253.7458333333319,
          "velocity": 1,
          "duration": 0.25
        },
        {
          "name": "E2",
          "midi": 40,
          "time": 253.9958333333319,
          "velocity": 1,
          "duration": 0.24583333333333712
        },
        {
          "name": "E2",
          "midi": 40,
          "time": 253.9958333333319,
          "velocity": 1,
          "duration": 0.25
        },
        {
          "name": "E2",
          "midi": 40,
          "time": 254.2458333333319,
          "velocity": 1,
          "duration": 0.24583333333333712
        },
        {
          "name": "E2",
          "midi": 40,
          "time": 254.2458333333319,
          "velocity": 1,
          "duration": 0.25
        },
        {
          "name": "F#5",
          "midi": 78,
          "time": 254.24999999999855,
          "velocity": 0.937007874015748,
          "duration": 0.75
        },
        {
          "name": "F#4",
          "midi": 66,
          "time": 254.24999999999855,
          "velocity": 1,
          "duration": 0.7416666666666742
        },
        {
          "name": "E2",
          "midi": 40,
          "time": 254.4958333333319,
          "velocity": 1,
          "duration": 0.24583333333333712
        },
        {
          "name": "E2",
          "midi": 40,
          "time": 254.4958333333319,
          "velocity": 1,
          "duration": 0.25
        },
        {
          "name": "E2",
          "midi": 40,
          "time": 254.7458333333319,
          "velocity": 1,
          "duration": 0.24583333333333712
        },
        {
          "name": "E2",
          "midi": 40,
          "time": 254.7458333333319,
          "velocity": 1,
          "duration": 0.25
        },
        {
          "name": "E2",
          "midi": 40,
          "time": 254.9958333333319,
          "velocity": 1,
          "duration": 0.2458333333333087
        },
        {
          "name": "E2",
          "midi": 40,
          "time": 254.9958333333319,
          "velocity": 1,
          "duration": 0.24999999999997158
        },
        {
          "name": "G5",
          "midi": 79,
          "time": 254.99999999999855,
          "velocity": 0.937007874015748,
          "duration": 0.4999999999999716
        },
        {
          "name": "G4",
          "midi": 67,
          "time": 255.00833333333188,
          "velocity": 1,
          "duration": 0.4749999999999943
        },
        {
          "name": "E2",
          "midi": 40,
          "time": 255.24583333333186,
          "velocity": 1,
          "duration": 0.24583333333333712
        },
        {
          "name": "E2",
          "midi": 40,
          "time": 255.24583333333186,
          "velocity": 1,
          "duration": 0.25
        },
        {
          "name": "F#4",
          "midi": 66,
          "time": 255.48749999999853,
          "velocity": 1,
          "duration": 0.5124999999999886
        },
        {
          "name": "G2",
          "midi": 43,
          "time": 255.49583333333186,
          "velocity": 1,
          "duration": 0.24583333333333712
        },
        {
          "name": "D3",
          "midi": 50,
          "time": 255.49583333333186,
          "velocity": 1,
          "duration": 0.24583333333333712
        },
        {
          "name": "D3",
          "midi": 50,
          "time": 255.49583333333186,
          "velocity": 1,
          "duration": 0.25
        },
        {
          "name": "G2",
          "midi": 43,
          "time": 255.49583333333186,
          "velocity": 1,
          "duration": 0.25
        },
        {
          "name": "F#5",
          "midi": 78,
          "time": 255.49999999999852,
          "velocity": 0.9448818897637795,
          "duration": 0.5
        },
        {
          "name": "E3",
          "midi": 52,
          "time": 255.74583333333186,
          "velocity": 1,
          "duration": 0.24583333333333712
        },
        {
          "name": "A2",
          "midi": 45,
          "time": 255.74583333333186,
          "velocity": 1,
          "duration": 0.24583333333333712
        },
        {
          "name": "A2",
          "midi": 45,
          "time": 255.74583333333186,
          "velocity": 1,
          "duration": 0.25
        },
        {
          "name": "E3",
          "midi": 52,
          "time": 255.74583333333186,
          "velocity": 1,
          "duration": 0.25
        },
        {
          "name": "E2",
          "midi": 40,
          "time": 255.99583333333186,
          "velocity": 1,
          "duration": 0.24583333333333712
        },
        {
          "name": "E2",
          "midi": 40,
          "time": 255.99583333333186,
          "velocity": 1,
          "duration": 0.25
        },
        {
          "name": "E5",
          "midi": 76,
          "time": 255.99999999999852,
          "velocity": 0.952755905511811,
          "duration": 0.5
        },
        {
          "name": "E4",
          "midi": 64,
          "time": 256.00833333333185,
          "velocity": 1,
          "duration": 0.4833333333333485
        },
        {
          "name": "A#2",
          "midi": 46,
          "time": 256.24583333333186,
          "velocity": 1,
          "duration": 0.24583333333333712
        },
        {
          "name": "F3",
          "midi": 53,
          "time": 256.24583333333186,
          "velocity": 1,
          "duration": 0.24583333333333712
        },
        {
          "name": "F3",
          "midi": 53,
          "time": 256.24583333333186,
          "velocity": 1,
          "duration": 0.25
        },
        {
          "name": "A#2",
          "midi": 46,
          "time": 256.24583333333186,
          "velocity": 1,
          "duration": 0.25
        },
        {
          "name": "A2",
          "midi": 45,
          "time": 256.49583333333186,
          "velocity": 1,
          "duration": 0.24583333333333712
        },
        {
          "name": "E3",
          "midi": 52,
          "time": 256.49583333333186,
          "velocity": 1,
          "duration": 0.24583333333333712
        },
        {
          "name": "A2",
          "midi": 45,
          "time": 256.49583333333186,
          "velocity": 1,
          "duration": 0.25
        },
        {
          "name": "E3",
          "midi": 52,
          "time": 256.49583333333186,
          "velocity": 1,
          "duration": 0.25
        },
        {
          "name": "D5",
          "midi": 74,
          "time": 256.4999999999985,
          "velocity": 0.952755905511811,
          "duration": 0.5
        },
        {
          "name": "D4",
          "midi": 62,
          "time": 256.4999999999985,
          "velocity": 1,
          "duration": 0.47500000000002274
        },
        {
          "name": "D3",
          "midi": 50,
          "time": 256.74583333333186,
          "velocity": 1,
          "duration": 0.24583333333333712
        },
        {
          "name": "G2",
          "midi": 43,
          "time": 256.74583333333186,
          "velocity": 1,
          "duration": 0.24583333333333712
        },
        {
          "name": "G2",
          "midi": 43,
          "time": 256.74583333333186,
          "velocity": 1,
          "duration": 0.25
        },
        {
          "name": "D3",
          "midi": 50,
          "time": 256.74583333333186,
          "velocity": 1,
          "duration": 0.25
        },
        {
          "name": "G4",
          "midi": 67,
          "time": 256.98749999999853,
          "velocity": 1,
          "duration": 0.48750000000001137
        },
        {
          "name": "G5",
          "midi": 79,
          "time": 256.9999999999985,
          "velocity": 0.9606299212598425,
          "duration": 0.5
        },
        {
          "name": "E2",
          "midi": 40,
          "time": 257.24583333333186,
          "velocity": 1,
          "duration": 0.24583333333333712
        },
        {
          "name": "E2",
          "midi": 40,
          "time": 257.24583333333186,
          "velocity": 1,
          "duration": 0.25
        },
        {
          "name": "E2",
          "midi": 40,
          "time": 257.49583333333186,
          "velocity": 1,
          "duration": 0.24583333333333712
        },
        {
          "name": "E2",
          "midi": 40,
          "time": 257.49583333333186,
          "velocity": 1,
          "duration": 0.25
        },
        {
          "name": "F#5",
          "midi": 78,
          "time": 257.4999999999985,
          "velocity": 0.9606299212598425,
          "duration": 0.75
        },
        {
          "name": "F#4",
          "midi": 66,
          "time": 257.4999999999985,
          "velocity": 1,
          "duration": 0.7624999999999886
        },
        {
          "name": "E2",
          "midi": 40,
          "time": 257.74583333333186,
          "velocity": 1,
          "duration": 0.24583333333333712
        },
        {
          "name": "E2",
          "midi": 40,
          "time": 257.74583333333186,
          "velocity": 1,
          "duration": 0.25
        },
        {
          "name": "E2",
          "midi": 40,
          "time": 257.99583333333186,
          "velocity": 1,
          "duration": 0.24583333333333712
        },
        {
          "name": "E2",
          "midi": 40,
          "time": 257.99583333333186,
          "velocity": 1,
          "duration": 0.25
        },
        {
          "name": "E2",
          "midi": 40,
          "time": 258.24583333333186,
          "velocity": 1,
          "duration": 0.24583333333333712
        },
        {
          "name": "E2",
          "midi": 40,
          "time": 258.24583333333186,
          "velocity": 1,
          "duration": 0.25
        },
        {
          "name": "E2",
          "midi": 40,
          "time": 258.49583333333186,
          "velocity": 1,
          "duration": 0.24583333333333712
        },
        {
          "name": "E2",
          "midi": 40,
          "time": 258.49583333333186,
          "velocity": 1,
          "duration": 0.25
        },
        {
          "name": "E2",
          "midi": 40,
          "time": 258.74583333333186,
          "velocity": 1,
          "duration": 0.24583333333333712
        },
        {
          "name": "E2",
          "midi": 40,
          "time": 258.74583333333186,
          "velocity": 1,
          "duration": 0.25
        },
        {
          "name": "E2",
          "midi": 40,
          "time": 258.99583333333186,
          "velocity": 1,
          "duration": 0.24583333333333712
        },
        {
          "name": "E2",
          "midi": 40,
          "time": 258.99583333333186,
          "velocity": 1,
          "duration": 0.25
        },
        {
          "name": "E2",
          "midi": 40,
          "time": 259.24583333333186,
          "velocity": 1,
          "duration": 0.24583333333333712
        },
        {
          "name": "E2",
          "midi": 40,
          "time": 259.24583333333186,
          "velocity": 1,
          "duration": 0.25
        },
        {
          "name": "G2",
          "midi": 43,
          "time": 259.49583333333186,
          "velocity": 1,
          "duration": 0.24583333333333712
        },
        {
          "name": "D3",
          "midi": 50,
          "time": 259.49583333333186,
          "velocity": 1,
          "duration": 0.24583333333333712
        },
        {
          "name": "D3",
          "midi": 50,
          "time": 259.49583333333186,
          "velocity": 1,
          "duration": 0.25
        },
        {
          "name": "G2",
          "midi": 43,
          "time": 259.49583333333186,
          "velocity": 1,
          "duration": 0.25
        },
        {
          "name": "E3",
          "midi": 52,
          "time": 259.74583333333186,
          "velocity": 1,
          "duration": 0.24583333333333712
        },
        {
          "name": "A2",
          "midi": 45,
          "time": 259.74583333333186,
          "velocity": 1,
          "duration": 0.24583333333333712
        },
        {
          "name": "A2",
          "midi": 45,
          "time": 259.74583333333186,
          "velocity": 1,
          "duration": 0.25
        },
        {
          "name": "E3",
          "midi": 52,
          "time": 259.74583333333186,
          "velocity": 1,
          "duration": 0.25
        },
        {
          "name": "D3",
          "midi": 50,
          "time": 259.99583333333186,
          "velocity": 1,
          "duration": 0.24583333333333712
        },
        {
          "name": "G2",
          "midi": 43,
          "time": 259.99583333333186,
          "velocity": 1,
          "duration": 0.24583333333333712
        },
        {
          "name": "D3",
          "midi": 50,
          "time": 259.99583333333186,
          "velocity": 1,
          "duration": 0.25
        },
        {
          "name": "G2",
          "midi": 43,
          "time": 259.99583333333186,
          "velocity": 1,
          "duration": 0.25
        },
        {
          "name": "A2",
          "midi": 45,
          "time": 260.24583333333186,
          "velocity": 1,
          "duration": 0.24583333333333712
        },
        {
          "name": "E3",
          "midi": 52,
          "time": 260.24583333333186,
          "velocity": 1,
          "duration": 0.24583333333333712
        },
        {
          "name": "A2",
          "midi": 45,
          "time": 260.24583333333186,
          "velocity": 1,
          "duration": 0.25
        },
        {
          "name": "E3",
          "midi": 52,
          "time": 260.24583333333186,
          "velocity": 1,
          "duration": 0.25
        },
        {
          "name": "G4",
          "midi": 67,
          "time": 260.4916666666652,
          "velocity": 1,
          "duration": 0.4833333333333485
        },
        {
          "name": "E2",
          "midi": 40,
          "time": 260.49583333333186,
          "velocity": 1,
          "duration": 0.24583333333333712
        },
        {
          "name": "E2",
          "midi": 40,
          "time": 260.49583333333186,
          "velocity": 1,
          "duration": 0.25
        },
        {
          "name": "G5",
          "midi": 79,
          "time": 260.4999999999985,
          "velocity": 0.937007874015748,
          "duration": 0.5
        },
        {
          "name": "E2",
          "midi": 40,
          "time": 260.74583333333186,
          "velocity": 1,
          "duration": 0.24583333333333712
        },
        {
          "name": "E2",
          "midi": 40,
          "time": 260.74583333333186,
          "velocity": 1,
          "duration": 0.25
        },
        {
          "name": "E2",
          "midi": 40,
          "time": 260.99583333333186,
          "velocity": 1,
          "duration": 0.24583333333333712
        },
        {
          "name": "E2",
          "midi": 40,
          "time": 260.99583333333186,
          "velocity": 1,
          "duration": 0.25
        },
        {
          "name": "G5",
          "midi": 79,
          "time": 260.9999999999985,
          "velocity": 0.9212598425196851,
          "duration": 0.25
        },
        {
          "name": "G4",
          "midi": 67,
          "time": 261.00833333333185,
          "velocity": 1,
          "duration": 0.23750000000001137
        },
        {
          "name": "E2",
          "midi": 40,
          "time": 261.24583333333186,
          "velocity": 1,
          "duration": 0.24583333333333712
        },
        {
          "name": "E2",
          "midi": 40,
          "time": 261.24583333333186,
          "velocity": 1,
          "duration": 0.25
        },
        {
          "name": "G5",
          "midi": 79,
          "time": 261.2499999999985,
          "velocity": 0.9212598425196851,
          "duration": 0.5
        },
        {
          "name": "G4",
          "midi": 67,
          "time": 261.2499999999985,
          "velocity": 1,
          "duration": 0.4958333333333371
        },
        {
          "name": "E2",
          "midi": 40,
          "time": 261.49583333333186,
          "velocity": 1,
          "duration": 0.24583333333333712
        },
        {
          "name": "E2",
          "midi": 40,
          "time": 261.49583333333186,
          "velocity": 1,
          "duration": 0.25
        },
        {
          "name": "E2",
          "midi": 40,
          "time": 261.74583333333186,
          "velocity": 1,
          "duration": 0.24583333333333712
        },
        {
          "name": "E2",
          "midi": 40,
          "time": 261.74583333333186,
          "velocity": 1,
          "duration": 0.25
        },
        {
          "name": "E5",
          "midi": 76,
          "time": 261.7499999999985,
          "velocity": 0.905511811023622,
          "duration": 0.5
        },
        {
          "name": "E4",
          "midi": 64,
          "time": 261.7499999999985,
          "velocity": 1,
          "duration": 0.47500000000002274
        },
        {
          "name": "E2",
          "midi": 40,
          "time": 261.99583333333186,
          "velocity": 1,
          "duration": 0.24583333333333712
        },
        {
          "name": "E2",
          "midi": 40,
          "time": 261.99583333333186,
          "velocity": 1,
          "duration": 0.25
        },
        {
          "name": "E4",
          "midi": 64,
          "time": 262.2416666666652,
          "velocity": 1,
          "duration": 1.2458333333333371
        },
        {
          "name": "E2",
          "midi": 40,
          "time": 262.24583333333186,
          "velocity": 1,
          "duration": 0.24583333333333712
        },
        {
          "name": "E2",
          "midi": 40,
          "time": 262.24583333333186,
          "velocity": 1,
          "duration": 0.25
        },
        {
          "name": "E5",
          "midi": 76,
          "time": 262.2499999999985,
          "velocity": 0.889763779527559,
          "duration": 1.25
        },
        {
          "name": "E2",
          "midi": 40,
          "time": 262.49583333333186,
          "velocity": 1,
          "duration": 0.24583333333333712
        },
        {
          "name": "E2",
          "midi": 40,
          "time": 262.49583333333186,
          "velocity": 1,
          "duration": 0.25
        },
        {
          "name": "D3",
          "midi": 50,
          "time": 262.74583333333186,
          "velocity": 1,
          "duration": 0.24583333333333712
        },
        {
          "name": "G2",
          "midi": 43,
          "time": 262.74583333333186,
          "velocity": 1,
          "duration": 0.24583333333333712
        },
        {
          "name": "D3",
          "midi": 50,
          "time": 262.74583333333186,
          "velocity": 1,
          "duration": 0.25
        },
        {
          "name": "G2",
          "midi": 43,
          "time": 262.74583333333186,
          "velocity": 1,
          "duration": 0.25
        },
        {
          "name": "E3",
          "midi": 52,
          "time": 262.99583333333186,
          "velocity": 1,
          "duration": 0.24583333333333712
        },
        {
          "name": "A2",
          "midi": 45,
          "time": 262.99583333333186,
          "velocity": 1,
          "duration": 0.24583333333333712
        },
        {
          "name": "A2",
          "midi": 45,
          "time": 262.99583333333186,
          "velocity": 1,
          "duration": 0.25
        },
        {
          "name": "E3",
          "midi": 52,
          "time": 262.99583333333186,
          "velocity": 1,
          "duration": 0.25
        },
        {
          "name": "E2",
          "midi": 40,
          "time": 263.24583333333186,
          "velocity": 1,
          "duration": 0.24583333333333712
        },
        {
          "name": "E2",
          "midi": 40,
          "time": 263.24583333333186,
          "velocity": 1,
          "duration": 0.25
        },
        {
          "name": "A#2",
          "midi": 46,
          "time": 263.49583333333186,
          "velocity": 1,
          "duration": 0.24583333333333712
        },
        {
          "name": "F3",
          "midi": 53,
          "time": 263.49583333333186,
          "velocity": 1,
          "duration": 0.24583333333333712
        },
        {
          "name": "A#2",
          "midi": 46,
          "time": 263.49583333333186,
          "velocity": 1,
          "duration": 0.25
        },
        {
          "name": "F3",
          "midi": 53,
          "time": 263.49583333333186,
          "velocity": 1,
          "duration": 0.25
        },
        {
          "name": "E3",
          "midi": 52,
          "time": 263.74583333333186,
          "velocity": 1,
          "duration": 0.24583333333333712
        },
        {
          "name": "A2",
          "midi": 45,
          "time": 263.74583333333186,
          "velocity": 1,
          "duration": 0.24583333333333712
        },
        {
          "name": "E3",
          "midi": 52,
          "time": 263.74583333333186,
          "velocity": 1,
          "duration": 0.25
        },
        {
          "name": "A2",
          "midi": 45,
          "time": 263.74583333333186,
          "velocity": 1,
          "duration": 0.25
        },
        {
          "name": "D3",
          "midi": 50,
          "time": 263.99583333333186,
          "velocity": 1,
          "duration": 0.24583333333333712
        },
        {
          "name": "G2",
          "midi": 43,
          "time": 263.99583333333186,
          "velocity": 1,
          "duration": 0.24583333333333712
        },
        {
          "name": "D3",
          "midi": 50,
          "time": 263.99583333333186,
          "velocity": 1,
          "duration": 0.25
        },
        {
          "name": "G2",
          "midi": 43,
          "time": 263.99583333333186,
          "velocity": 1,
          "duration": 0.25
        },
        {
          "name": "E2",
          "midi": 40,
          "time": 264.49583333333186,
          "velocity": 1,
          "duration": 0.24583333333333712
        },
        {
          "name": "E2",
          "midi": 40,
          "time": 264.49583333333186,
          "velocity": 1,
          "duration": 0.25
        },
        {
          "name": "E5",
          "midi": 76,
          "time": 264.4999999999985,
          "velocity": 0.9133858267716536,
          "duration": 0.5
        },
        {
          "name": "E4",
          "midi": 64,
          "time": 264.50833333333185,
          "velocity": 1,
          "duration": 0.5
        },
        {
          "name": "E2",
          "midi": 40,
          "time": 264.74583333333186,
          "velocity": 1,
          "duration": 0.24583333333333712
        },
        {
          "name": "E2",
          "midi": 40,
          "time": 264.74583333333186,
          "velocity": 1,
          "duration": 0.25
        },
        {
          "name": "E4",
          "midi": 64,
          "time": 264.98749999999853,
          "velocity": 1,
          "duration": 0.2541666666666629
        },
        {
          "name": "E2",
          "midi": 40,
          "time": 264.99583333333186,
          "velocity": 1,
          "duration": 0.24583333333333712
        },
        {
          "name": "E2",
          "midi": 40,
          "time": 264.99583333333186,
          "velocity": 1,
          "duration": 0.25
        },
        {
          "name": "E5",
          "midi": 76,
          "time": 264.9999999999985,
          "velocity": 0.9133858267716536,
          "duration": 0.25
        },
        {
          "name": "E4",
          "midi": 64,
          "time": 265.23749999999853,
          "velocity": 1,
          "duration": 0.5124999999999886
        },
        {
          "name": "E2",
          "midi": 40,
          "time": 265.24583333333186,
          "velocity": 1,
          "duration": 0.24583333333333712
        },
        {
          "name": "E2",
          "midi": 40,
          "time": 265.24583333333186,
          "velocity": 1,
          "duration": 0.25
        },
        {
          "name": "E5",
          "midi": 76,
          "time": 265.2499999999985,
          "velocity": 0.9133858267716536,
          "duration": 0.5
        },
        {
          "name": "E2",
          "midi": 40,
          "time": 265.49583333333186,
          "velocity": 1,
          "duration": 0.24583333333333712
        },
        {
          "name": "E2",
          "midi": 40,
          "time": 265.49583333333186,
          "velocity": 1,
          "duration": 0.25
        },
        {
          "name": "E2",
          "midi": 40,
          "time": 265.74583333333186,
          "velocity": 1,
          "duration": 0.24583333333333712
        },
        {
          "name": "E2",
          "midi": 40,
          "time": 265.74583333333186,
          "velocity": 1,
          "duration": 0.25
        },
        {
          "name": "F#5",
          "midi": 78,
          "time": 265.7499999999985,
          "velocity": 0.9212598425196851,
          "duration": 0.5
        },
        {
          "name": "F#4",
          "midi": 66,
          "time": 265.7541666666652,
          "velocity": 1,
          "duration": 0.49166666666667425
        },
        {
          "name": "E2",
          "midi": 40,
          "time": 265.99583333333186,
          "velocity": 1,
          "duration": 0.24583333333333712
        },
        {
          "name": "E2",
          "midi": 40,
          "time": 265.99583333333186,
          "velocity": 1,
          "duration": 0.25
        },
        {
          "name": "G4",
          "midi": 67,
          "time": 266.2416666666652,
          "velocity": 1,
          "duration": 1.2416666666666742
        },
        {
          "name": "E2",
          "midi": 40,
          "time": 266.24583333333186,
          "velocity": 1,
          "duration": 0.24583333333333712
        },
        {
          "name": "E2",
          "midi": 40,
          "time": 266.24583333333186,
          "velocity": 1,
          "duration": 0.25
        },
        {
          "name": "G5",
          "midi": 79,
          "time": 266.2499999999985,
          "velocity": 0.937007874015748,
          "duration": 1.25
        },
        {
          "name": "E2",
          "midi": 40,
          "time": 266.49583333333186,
          "velocity": 1,
          "duration": 0.24583333333333712
        },
        {
          "name": "E2",
          "midi": 40,
          "time": 266.49583333333186,
          "velocity": 1,
          "duration": 0.25
        },
        {
          "name": "G2",
          "midi": 43,
          "time": 266.74583333333186,
          "velocity": 1,
          "duration": 0.24583333333333712
        },
        {
          "name": "D3",
          "midi": 50,
          "time": 266.74583333333186,
          "velocity": 1,
          "duration": 0.24583333333333712
        },
        {
          "name": "D3",
          "midi": 50,
          "time": 266.74583333333186,
          "velocity": 1,
          "duration": 0.25
        },
        {
          "name": "G2",
          "midi": 43,
          "time": 266.74583333333186,
          "velocity": 1,
          "duration": 0.25
        },
        {
          "name": "E3",
          "midi": 52,
          "time": 266.99583333333186,
          "velocity": 1,
          "duration": 0.24583333333333712
        },
        {
          "name": "A2",
          "midi": 45,
          "time": 266.99583333333186,
          "velocity": 1,
          "duration": 0.24583333333333712
        },
        {
          "name": "A2",
          "midi": 45,
          "time": 266.99583333333186,
          "velocity": 1,
          "duration": 0.25
        },
        {
          "name": "E3",
          "midi": 52,
          "time": 266.99583333333186,
          "velocity": 1,
          "duration": 0.25
        },
        {
          "name": "G2",
          "midi": 43,
          "time": 267.24583333333186,
          "velocity": 1,
          "duration": 0.24583333333333712
        },
        {
          "name": "D3",
          "midi": 50,
          "time": 267.24583333333186,
          "velocity": 1,
          "duration": 0.24583333333333712
        },
        {
          "name": "G2",
          "midi": 43,
          "time": 267.24583333333186,
          "velocity": 1,
          "duration": 0.25
        },
        {
          "name": "D3",
          "midi": 50,
          "time": 267.24583333333186,
          "velocity": 1,
          "duration": 0.25
        },
        {
          "name": "A2",
          "midi": 45,
          "time": 267.49583333333186,
          "velocity": 1,
          "duration": 0.24583333333333712
        },
        {
          "name": "E3",
          "midi": 52,
          "time": 267.49583333333186,
          "velocity": 1,
          "duration": 0.24583333333333712
        },
        {
          "name": "A2",
          "midi": 45,
          "time": 267.49583333333186,
          "velocity": 1,
          "duration": 0.25
        },
        {
          "name": "E3",
          "midi": 52,
          "time": 267.49583333333186,
          "velocity": 1,
          "duration": 0.25
        },
        {
          "name": "E2",
          "midi": 40,
          "time": 267.74583333333186,
          "velocity": 1,
          "duration": 0.24583333333333712
        },
        {
          "name": "E2",
          "midi": 40,
          "time": 267.74583333333186,
          "velocity": 1,
          "duration": 0.25
        },
        {
          "name": "E5",
          "midi": 76,
          "time": 267.7499999999985,
          "velocity": 0.952755905511811,
          "duration": 1
        },
        {
          "name": "E4",
          "midi": 64,
          "time": 267.75833333333185,
          "velocity": 1,
          "duration": 1.0166666666666515
        },
        {
          "name": "E2",
          "midi": 40,
          "time": 267.99583333333186,
          "velocity": 1,
          "duration": 0.24583333333333712
        },
        {
          "name": "E2",
          "midi": 40,
          "time": 267.99583333333186,
          "velocity": 1,
          "duration": 0.25
        },
        {
          "name": "E2",
          "midi": 40,
          "time": 268.24583333333186,
          "velocity": 1,
          "duration": 0.24583333333333712
        },
        {
          "name": "E2",
          "midi": 40,
          "time": 268.24583333333186,
          "velocity": 1,
          "duration": 0.25
        },
        {
          "name": "E2",
          "midi": 40,
          "time": 268.49583333333186,
          "velocity": 1,
          "duration": 0.24583333333333712
        },
        {
          "name": "E2",
          "midi": 40,
          "time": 268.49583333333186,
          "velocity": 1,
          "duration": 0.25
        },
        {
          "name": "F#4",
          "midi": 66,
          "time": 268.7416666666652,
          "velocity": 1,
          "duration": 0.7708333333332575
        },
        {
          "name": "E2",
          "midi": 40,
          "time": 268.74583333333186,
          "velocity": 1,
          "duration": 0.24583333333328028
        },
        {
          "name": "E2",
          "midi": 40,
          "time": 268.74583333333186,
          "velocity": 1,
          "duration": 0.24999999999994316
        },
        {
          "name": "F#5",
          "midi": 78,
          "time": 268.7499999999985,
          "velocity": 0.968503937007874,
          "duration": 0.7499999999999432
        },
        {
          "name": "E2",
          "midi": 40,
          "time": 268.9958333333318,
          "velocity": 1,
          "duration": 0.24583333333333712
        },
        {
          "name": "E2",
          "midi": 40,
          "time": 268.9958333333318,
          "velocity": 1,
          "duration": 0.25
        },
        {
          "name": "E2",
          "midi": 40,
          "time": 269.2458333333318,
          "velocity": 1,
          "duration": 0.24583333333333712
        },
        {
          "name": "E2",
          "midi": 40,
          "time": 269.2458333333318,
          "velocity": 1,
          "duration": 0.25
        },
        {
          "name": "G4",
          "midi": 67,
          "time": 269.4958333333318,
          "velocity": 1,
          "duration": 0.5041666666666629
        },
        {
          "name": "E2",
          "midi": 40,
          "time": 269.4958333333318,
          "velocity": 1,
          "duration": 0.24583333333333712
        },
        {
          "name": "E2",
          "midi": 40,
          "time": 269.4958333333318,
          "velocity": 1,
          "duration": 0.25
        },
        {
          "name": "G5",
          "midi": 79,
          "time": 269.49999999999847,
          "velocity": 0.968503937007874,
          "duration": 0.5
        },
        {
          "name": "E2",
          "midi": 40,
          "time": 269.7458333333318,
          "velocity": 1,
          "duration": 0.24583333333333712
        },
        {
          "name": "E2",
          "midi": 40,
          "time": 269.7458333333318,
          "velocity": 1,
          "duration": 0.25
        },
        {
          "name": "G4",
          "midi": 67,
          "time": 269.9874999999985,
          "velocity": 1,
          "duration": 0.5208333333333144
        },
        {
          "name": "D3",
          "midi": 50,
          "time": 269.9958333333318,
          "velocity": 1,
          "duration": 0.24583333333333712
        },
        {
          "name": "G2",
          "midi": 43,
          "time": 269.9958333333318,
          "velocity": 1,
          "duration": 0.24583333333333712
        },
        {
          "name": "D3",
          "midi": 50,
          "time": 269.9958333333318,
          "velocity": 1,
          "duration": 0.25
        },
        {
          "name": "G2",
          "midi": 43,
          "time": 269.9958333333318,
          "velocity": 1,
          "duration": 0.25
        },
        {
          "name": "G5",
          "midi": 79,
          "time": 269.99999999999847,
          "velocity": 0.968503937007874,
          "duration": 0.5
        },
        {
          "name": "A2",
          "midi": 45,
          "time": 270.2458333333318,
          "velocity": 1,
          "duration": 0.24583333333333712
        },
        {
          "name": "E3",
          "midi": 52,
          "time": 270.2458333333318,
          "velocity": 1,
          "duration": 0.24583333333333712
        },
        {
          "name": "A2",
          "midi": 45,
          "time": 270.2458333333318,
          "velocity": 1,
          "duration": 0.25
        },
        {
          "name": "E3",
          "midi": 52,
          "time": 270.2458333333318,
          "velocity": 1,
          "duration": 0.25
        },
        {
          "name": "E2",
          "midi": 40,
          "time": 270.4958333333318,
          "velocity": 1,
          "duration": 0.24583333333333712
        },
        {
          "name": "E2",
          "midi": 40,
          "time": 270.4958333333318,
          "velocity": 1,
          "duration": 0.25
        },
        {
          "name": "E5",
          "midi": 76,
          "time": 270.49999999999847,
          "velocity": 0.9606299212598425,
          "duration": 0.5
        },
        {
          "name": "E4",
          "midi": 64,
          "time": 270.5041666666651,
          "velocity": 1,
          "duration": 0.47500000000002274
        },
        {
          "name": "F3",
          "midi": 53,
          "time": 270.7458333333318,
          "velocity": 1,
          "duration": 0.24583333333333712
        },
        {
          "name": "A#2",
          "midi": 46,
          "time": 270.7458333333318,
          "velocity": 1,
          "duration": 0.24583333333333712
        },
        {
          "name": "A#2",
          "midi": 46,
          "time": 270.7458333333318,
          "velocity": 1,
          "duration": 0.25
        },
        {
          "name": "F3",
          "midi": 53,
          "time": 270.7458333333318,
          "velocity": 1,
          "duration": 0.25
        },
        {
          "name": "E3",
          "midi": 52,
          "time": 270.9958333333318,
          "velocity": 1,
          "duration": 0.24583333333333712
        },
        {
          "name": "A2",
          "midi": 45,
          "time": 270.9958333333318,
          "velocity": 1,
          "duration": 0.24583333333333712
        },
        {
          "name": "E3",
          "midi": 52,
          "time": 270.9958333333318,
          "velocity": 1,
          "duration": 0.25
        },
        {
          "name": "A2",
          "midi": 45,
          "time": 270.9958333333318,
          "velocity": 1,
          "duration": 0.25
        },
        {
          "name": "D5",
          "midi": 74,
          "time": 270.99999999999847,
          "velocity": 0.952755905511811,
          "duration": 0.5
        },
        {
          "name": "D4",
          "midi": 62,
          "time": 271.0083333333318,
          "velocity": 1,
          "duration": 0.5
        },
        {
          "name": "G2",
          "midi": 43,
          "time": 271.2458333333318,
          "velocity": 1,
          "duration": 0.24583333333333712
        },
        {
          "name": "D3",
          "midi": 50,
          "time": 271.2458333333318,
          "velocity": 1,
          "duration": 0.24583333333333712
        },
        {
          "name": "D3",
          "midi": 50,
          "time": 271.2458333333318,
          "velocity": 1,
          "duration": 0.25
        },
        {
          "name": "G2",
          "midi": 43,
          "time": 271.2458333333318,
          "velocity": 1,
          "duration": 0.25
        },
        {
          "name": "G5",
          "midi": 79,
          "time": 271.49999999999847,
          "velocity": 0.937007874015748,
          "duration": 0.5
        },
        {
          "name": "G4",
          "midi": 67,
          "time": 271.5041666666651,
          "velocity": 1,
          "duration": 0.5166666666666515
        },
        {
          "name": "E2",
          "midi": 40,
          "time": 271.7458333333318,
          "velocity": 1,
          "duration": 0.24583333333333712
        },
        {
          "name": "E2",
          "midi": 40,
          "time": 271.7458333333318,
          "velocity": 1,
          "duration": 0.25
        },
        {
          "name": "E2",
          "midi": 40,
          "time": 271.9958333333318,
          "velocity": 1,
          "duration": 0.24583333333333712
        },
        {
          "name": "E2",
          "midi": 40,
          "time": 271.9958333333318,
          "velocity": 1,
          "duration": 0.25
        },
        {
          "name": "F#5",
          "midi": 78,
          "time": 271.99999999999847,
          "velocity": 0.937007874015748,
          "duration": 0.75
        },
        {
          "name": "F#4",
          "midi": 66,
          "time": 271.99999999999847,
          "velocity": 1,
          "duration": 0.7416666666666742
        },
        {
          "name": "E2",
          "midi": 40,
          "time": 272.2458333333318,
          "velocity": 1,
          "duration": 0.24583333333333712
        },
        {
          "name": "E2",
          "midi": 40,
          "time": 272.2458333333318,
          "velocity": 1,
          "duration": 0.25
        },
        {
          "name": "E2",
          "midi": 40,
          "time": 272.4958333333318,
          "velocity": 1,
          "duration": 0.24583333333333712
        },
        {
          "name": "E2",
          "midi": 40,
          "time": 272.4958333333318,
          "velocity": 1,
          "duration": 0.25
        },
        {
          "name": "E2",
          "midi": 40,
          "time": 272.7458333333318,
          "velocity": 1,
          "duration": 0.24583333333333712
        },
        {
          "name": "E2",
          "midi": 40,
          "time": 272.7458333333318,
          "velocity": 1,
          "duration": 0.25
        },
        {
          "name": "E2",
          "midi": 40,
          "time": 272.9958333333318,
          "velocity": 1,
          "duration": 0.24583333333333712
        },
        {
          "name": "E2",
          "midi": 40,
          "time": 272.9958333333318,
          "velocity": 1,
          "duration": 0.25
        },
        {
          "name": "E2",
          "midi": 40,
          "time": 273.2458333333318,
          "velocity": 1,
          "duration": 0.24583333333333712
        },
        {
          "name": "E2",
          "midi": 40,
          "time": 273.2458333333318,
          "velocity": 1,
          "duration": 0.25
        },
        {
          "name": "E2",
          "midi": 40,
          "time": 273.4958333333318,
          "velocity": 1,
          "duration": 0.24583333333333712
        },
        {
          "name": "E2",
          "midi": 40,
          "time": 273.4958333333318,
          "velocity": 1,
          "duration": 0.25
        },
        {
          "name": "E2",
          "midi": 40,
          "time": 273.7458333333318,
          "velocity": 1,
          "duration": 0.24583333333333712
        },
        {
          "name": "E2",
          "midi": 40,
          "time": 273.7458333333318,
          "velocity": 1,
          "duration": 0.25
        },
        {
          "name": "D3",
          "midi": 50,
          "time": 273.9958333333318,
          "velocity": 1,
          "duration": 0.24583333333333712
        },
        {
          "name": "G2",
          "midi": 43,
          "time": 273.9958333333318,
          "velocity": 1,
          "duration": 0.24583333333333712
        },
        {
          "name": "D3",
          "midi": 50,
          "time": 273.9958333333318,
          "velocity": 1,
          "duration": 0.25
        },
        {
          "name": "G2",
          "midi": 43,
          "time": 273.9958333333318,
          "velocity": 1,
          "duration": 0.25
        },
        {
          "name": "E3",
          "midi": 52,
          "time": 274.2458333333318,
          "velocity": 1,
          "duration": 0.24583333333333712
        },
        {
          "name": "A2",
          "midi": 45,
          "time": 274.2458333333318,
          "velocity": 1,
          "duration": 0.24583333333333712
        },
        {
          "name": "E3",
          "midi": 52,
          "time": 274.2458333333318,
          "velocity": 1,
          "duration": 0.25
        },
        {
          "name": "A2",
          "midi": 45,
          "time": 274.2458333333318,
          "velocity": 1,
          "duration": 0.25
        },
        {
          "name": "D3",
          "midi": 50,
          "time": 274.4958333333318,
          "velocity": 1,
          "duration": 0.24583333333333712
        },
        {
          "name": "G2",
          "midi": 43,
          "time": 274.4958333333318,
          "velocity": 1,
          "duration": 0.24583333333333712
        },
        {
          "name": "D3",
          "midi": 50,
          "time": 274.4958333333318,
          "velocity": 1,
          "duration": 0.25
        },
        {
          "name": "G2",
          "midi": 43,
          "time": 274.4958333333318,
          "velocity": 1,
          "duration": 0.25
        },
        {
          "name": "A2",
          "midi": 45,
          "time": 274.7458333333318,
          "velocity": 1,
          "duration": 0.24583333333333712
        },
        {
          "name": "E3",
          "midi": 52,
          "time": 274.7458333333318,
          "velocity": 1,
          "duration": 0.24583333333333712
        },
        {
          "name": "E3",
          "midi": 52,
          "time": 274.7458333333318,
          "velocity": 1,
          "duration": 0.25
        },
        {
          "name": "A2",
          "midi": 45,
          "time": 274.7458333333318,
          "velocity": 1,
          "duration": 0.25
        },
        {
          "name": "F#2",
          "midi": 42,
          "time": 274.9958333333318,
          "velocity": 1,
          "duration": 0.24583333333333712
        },
        {
          "name": "F#2",
          "midi": 42,
          "time": 274.9958333333318,
          "velocity": 1,
          "duration": 0.25
        },
        {
          "name": "F#5",
          "midi": 78,
          "time": 274.99999999999847,
          "velocity": 0.9448818897637795,
          "duration": 0.5
        },
        {
          "name": "F#4",
          "midi": 66,
          "time": 275.0041666666651,
          "velocity": 1,
          "duration": 0.48750000000001137
        },
        {
          "name": "F#2",
          "midi": 42,
          "time": 275.2458333333318,
          "velocity": 1,
          "duration": 0.24583333333333712
        },
        {
          "name": "F#2",
          "midi": 42,
          "time": 275.2458333333318,
          "velocity": 1,
          "duration": 0.25
        },
        {
          "name": "F#4",
          "midi": 66,
          "time": 275.49166666666514,
          "velocity": 1,
          "duration": 0.23750000000001137
        },
        {
          "name": "F#2",
          "midi": 42,
          "time": 275.4958333333318,
          "velocity": 1,
          "duration": 0.24583333333333712
        },
        {
          "name": "F#2",
          "midi": 42,
          "time": 275.4958333333318,
          "velocity": 1,
          "duration": 0.25
        },
        {
          "name": "F#5",
          "midi": 78,
          "time": 275.49999999999847,
          "velocity": 0.952755905511811,
          "duration": 0.25
        },
        {
          "name": "F#4",
          "midi": 66,
          "time": 275.7374999999985,
          "velocity": 1,
          "duration": 0.4749999999999659
        },
        {
          "name": "F#2",
          "midi": 42,
          "time": 275.7458333333318,
          "velocity": 1,
          "duration": 0.24583333333333712
        },
        {
          "name": "F#2",
          "midi": 42,
          "time": 275.7458333333318,
          "velocity": 1,
          "duration": 0.25
        },
        {
          "name": "F#5",
          "midi": 78,
          "time": 275.74999999999847,
          "velocity": 0.952755905511811,
          "duration": 0.49999999999994316
        },
        {
          "name": "F#2",
          "midi": 42,
          "time": 275.9958333333318,
          "velocity": 1,
          "duration": 0.24583333333328028
        },
        {
          "name": "F#2",
          "midi": 42,
          "time": 275.9958333333318,
          "velocity": 1,
          "duration": 0.24999999999994316
        },
        {
          "name": "F#4",
          "midi": 66,
          "time": 276.2374999999984,
          "velocity": 1,
          "duration": 0.5041666666666629
        },
        {
          "name": "F#2",
          "midi": 42,
          "time": 276.24583333333175,
          "velocity": 1,
          "duration": 0.24583333333333712
        },
        {
          "name": "F#2",
          "midi": 42,
          "time": 276.24583333333175,
          "velocity": 1,
          "duration": 0.25
        },
        {
          "name": "F#5",
          "midi": 78,
          "time": 276.2499999999984,
          "velocity": 0.968503937007874,
          "duration": 0.5
        },
        {
          "name": "F#2",
          "midi": 42,
          "time": 276.49583333333175,
          "velocity": 1,
          "duration": 0.24583333333333712
        },
        {
          "name": "F#2",
          "midi": 42,
          "time": 276.49583333333175,
          "velocity": 1,
          "duration": 0.25
        },
        {
          "name": "F#4",
          "midi": 66,
          "time": 276.7374999999984,
          "velocity": 1,
          "duration": 0.7416666666666742
        },
        {
          "name": "F#2",
          "midi": 42,
          "time": 276.74583333333175,
          "velocity": 1,
          "duration": 0.24583333333333712
        },
        {
          "name": "F#2",
          "midi": 42,
          "time": 276.74583333333175,
          "velocity": 1,
          "duration": 0.25
        },
        {
          "name": "F#5",
          "midi": 78,
          "time": 276.7499999999984,
          "velocity": 0.968503937007874,
          "duration": 0.75
        },
        {
          "name": "F#2",
          "midi": 42,
          "time": 276.99583333333175,
          "velocity": 1,
          "duration": 0.24583333333333712
        },
        {
          "name": "F#2",
          "midi": 42,
          "time": 276.99583333333175,
          "velocity": 1,
          "duration": 0.25
        },
        {
          "name": "A2",
          "midi": 45,
          "time": 277.24583333333175,
          "velocity": 1,
          "duration": 0.24583333333333712
        },
        {
          "name": "F#3",
          "midi": 54,
          "time": 277.24583333333175,
          "velocity": 1,
          "duration": 0.24583333333333712
        },
        {
          "name": "A2",
          "midi": 45,
          "time": 277.24583333333175,
          "velocity": 1,
          "duration": 0.25
        },
        {
          "name": "F#3",
          "midi": 54,
          "time": 277.24583333333175,
          "velocity": 1,
          "duration": 0.25
        },
        {
          "name": "B2",
          "midi": 47,
          "time": 277.49583333333175,
          "velocity": 1,
          "duration": 0.24583333333333712
        },
        {
          "name": "F#3",
          "midi": 54,
          "time": 277.49583333333175,
          "velocity": 1,
          "duration": 0.24583333333333712
        },
        {
          "name": "F#3",
          "midi": 54,
          "time": 277.49583333333175,
          "velocity": 1,
          "duration": 0.25
        },
        {
          "name": "B2",
          "midi": 47,
          "time": 277.49583333333175,
          "velocity": 1,
          "duration": 0.25
        },
        {
          "name": "G3",
          "midi": 55,
          "time": 277.99583333333175,
          "velocity": 1,
          "duration": 0.24583333333333712
        },
        {
          "name": "C3",
          "midi": 48,
          "time": 277.99583333333175,
          "velocity": 1,
          "duration": 0.24583333333333712
        },
        {
          "name": "C3",
          "midi": 48,
          "time": 277.99583333333175,
          "velocity": 1,
          "duration": 0.25
        },
        {
          "name": "G3",
          "midi": 55,
          "time": 277.99583333333175,
          "velocity": 1,
          "duration": 0.25
        },
        {
          "name": "F#3",
          "midi": 54,
          "time": 278.24583333333175,
          "velocity": 1,
          "duration": 0.24583333333333712
        },
        {
          "name": "B2",
          "midi": 47,
          "time": 278.24583333333175,
          "velocity": 1,
          "duration": 0.24583333333333712
        },
        {
          "name": "B2",
          "midi": 47,
          "time": 278.24583333333175,
          "velocity": 1,
          "duration": 0.25
        },
        {
          "name": "F#3",
          "midi": 54,
          "time": 278.24583333333175,
          "velocity": 1,
          "duration": 0.25
        },
        {
          "name": "A2",
          "midi": 45,
          "time": 278.49583333333175,
          "velocity": 1,
          "duration": 0.24583333333333712
        },
        {
          "name": "F#3",
          "midi": 54,
          "time": 278.49583333333175,
          "velocity": 1,
          "duration": 0.24583333333333712
        },
        {
          "name": "F#3",
          "midi": 54,
          "time": 278.49583333333175,
          "velocity": 1,
          "duration": 0.25
        },
        {
          "name": "A2",
          "midi": 45,
          "time": 278.49583333333175,
          "velocity": 1,
          "duration": 0.25
        },
        {
          "name": "B2",
          "midi": 47,
          "time": 278.74583333333175,
          "velocity": 1,
          "duration": 0.24583333333333712
        },
        {
          "name": "F#3",
          "midi": 54,
          "time": 278.74583333333175,
          "velocity": 1,
          "duration": 0.24583333333333712
        },
        {
          "name": "F#3",
          "midi": 54,
          "time": 278.74583333333175,
          "velocity": 1,
          "duration": 0.25
        },
        {
          "name": "B2",
          "midi": 47,
          "time": 278.74583333333175,
          "velocity": 1,
          "duration": 0.25
        },
        {
          "name": "F#2",
          "midi": 42,
          "time": 278.99583333333175,
          "velocity": 1,
          "duration": 0.24583333333333712
        },
        {
          "name": "F#2",
          "midi": 42,
          "time": 278.99583333333175,
          "velocity": 1,
          "duration": 0.25
        },
        {
          "name": "F#5",
          "midi": 78,
          "time": 278.9999999999984,
          "velocity": 0.984251968503937,
          "duration": 0.25
        },
        {
          "name": "F#4",
          "midi": 66,
          "time": 279.00416666666507,
          "velocity": 1,
          "duration": 0.22500000000002274
        },
        {
          "name": "F#2",
          "midi": 42,
          "time": 279.24583333333175,
          "velocity": 1,
          "duration": 0.24583333333333712
        },
        {
          "name": "F#2",
          "midi": 42,
          "time": 279.24583333333175,
          "velocity": 1,
          "duration": 0.25
        },
        {
          "name": "F#5",
          "midi": 78,
          "time": 279.2499999999984,
          "velocity": 0.984251968503937,
          "duration": 0.5
        },
        {
          "name": "F#4",
          "midi": 66,
          "time": 279.25833333333173,
          "velocity": 1,
          "duration": 0.47500000000002274
        },
        {
          "name": "F#2",
          "midi": 42,
          "time": 279.49583333333175,
          "velocity": 1,
          "duration": 0.24583333333333712
        },
        {
          "name": "F#2",
          "midi": 42,
          "time": 279.49583333333175,
          "velocity": 1,
          "duration": 0.25
        },
        {
          "name": "F#4",
          "midi": 66,
          "time": 279.7416666666651,
          "velocity": 1,
          "duration": 0.4958333333333371
        },
        {
          "name": "F#2",
          "midi": 42,
          "time": 279.74583333333175,
          "velocity": 1,
          "duration": 0.24583333333333712
        },
        {
          "name": "F#2",
          "midi": 42,
          "time": 279.74583333333175,
          "velocity": 1,
          "duration": 0.25
        },
        {
          "name": "F#5",
          "midi": 78,
          "time": 279.7499999999984,
          "velocity": 0.984251968503937,
          "duration": 0.5
        },
        {
          "name": "F#2",
          "midi": 42,
          "time": 279.99583333333175,
          "velocity": 1,
          "duration": 0.24583333333333712
        },
        {
          "name": "F#2",
          "midi": 42,
          "time": 279.99583333333175,
          "velocity": 1,
          "duration": 0.25
        },
        {
          "name": "F#4",
          "midi": 66,
          "time": 280.2374999999984,
          "velocity": 1,
          "duration": 0.5166666666666515
        },
        {
          "name": "F#2",
          "midi": 42,
          "time": 280.24583333333175,
          "velocity": 1,
          "duration": 0.24583333333333712
        },
        {
          "name": "F#2",
          "midi": 42,
          "time": 280.24583333333175,
          "velocity": 1,
          "duration": 0.25
        },
        {
          "name": "F#5",
          "midi": 78,
          "time": 280.2499999999984,
          "velocity": 0.984251968503937,
          "duration": 0.5
        },
        {
          "name": "F#2",
          "midi": 42,
          "time": 280.49583333333175,
          "velocity": 1,
          "duration": 0.24583333333333712
        },
        {
          "name": "F#2",
          "midi": 42,
          "time": 280.49583333333175,
          "velocity": 1,
          "duration": 0.25
        },
        {
          "name": "F#2",
          "midi": 42,
          "time": 280.74583333333175,
          "velocity": 1,
          "duration": 0.24583333333333712
        },
        {
          "name": "F#2",
          "midi": 42,
          "time": 280.74583333333175,
          "velocity": 1,
          "duration": 0.25
        },
        {
          "name": "F#5",
          "midi": 78,
          "time": 280.7499999999984,
          "velocity": 0.984251968503937,
          "duration": 0.75
        },
        {
          "name": "F#4",
          "midi": 66,
          "time": 280.7499999999984,
          "velocity": 1,
          "duration": 0.7708333333333144
        },
        {
          "name": "F#2",
          "midi": 42,
          "time": 280.99583333333175,
          "velocity": 1,
          "duration": 0.24583333333333712
        },
        {
          "name": "F#2",
          "midi": 42,
          "time": 280.99583333333175,
          "velocity": 1,
          "duration": 0.25
        },
        {
          "name": "A2",
          "midi": 45,
          "time": 281.24583333333175,
          "velocity": 1,
          "duration": 0.24583333333333712
        },
        {
          "name": "F#3",
          "midi": 54,
          "time": 281.24583333333175,
          "velocity": 1,
          "duration": 0.3708333333333371
        },
        {
          "name": "F#3",
          "midi": 54,
          "time": 281.24583333333175,
          "velocity": 1,
          "duration": 0.5
        },
        {
          "name": "A2",
          "midi": 45,
          "time": 281.24583333333175,
          "velocity": 1,
          "duration": 0.25
        },
        {
          "name": "B2",
          "midi": 47,
          "time": 281.49583333333175,
          "velocity": 1,
          "duration": 0.24583333333333712
        },
        {
          "name": "B2",
          "midi": 47,
          "time": 281.49583333333175,
          "velocity": 1,
          "duration": 0.25
        },
        {
          "name": "A2",
          "midi": 45,
          "time": 281.74583333333175,
          "velocity": 1,
          "duration": 0.24583333333333712
        },
        {
          "name": "F#3",
          "midi": 54,
          "time": 281.74583333333175,
          "velocity": 1,
          "duration": 0.3708333333333371
        },
        {
          "name": "F#3",
          "midi": 54,
          "time": 281.74583333333175,
          "velocity": 1,
          "duration": 0.5
        },
        {
          "name": "A2",
          "midi": 45,
          "time": 281.74583333333175,
          "velocity": 1,
          "duration": 0.25
        },
        {
          "name": "B2",
          "midi": 47,
          "time": 281.99583333333175,
          "velocity": 1,
          "duration": 0.24583333333333712
        },
        {
          "name": "B2",
          "midi": 47,
          "time": 281.99583333333175,
          "velocity": 1,
          "duration": 0.25
        },
        {
          "name": "F#4",
          "midi": 66,
          "time": 282.2374999999984,
          "velocity": 1,
          "duration": 0.24166666666667425
        },
        {
          "name": "F#2",
          "midi": 42,
          "time": 282.24583333333175,
          "velocity": 1,
          "duration": 0.24583333333333712
        },
        {
          "name": "F#2",
          "midi": 42,
          "time": 282.24583333333175,
          "velocity": 1,
          "duration": 0.25
        },
        {
          "name": "F#5",
          "midi": 78,
          "time": 282.2499999999984,
          "velocity": 0.984251968503937,
          "duration": 0.25
        },
        {
          "name": "F#4",
          "midi": 66,
          "time": 282.4874999999984,
          "velocity": 1,
          "duration": 0.5083333333333258
        },
        {
          "name": "F#2",
          "midi": 42,
          "time": 282.49583333333175,
          "velocity": 1,
          "duration": 0.24583333333333712
        },
        {
          "name": "F#2",
          "midi": 42,
          "time": 282.49583333333175,
          "velocity": 1,
          "duration": 0.25
        },
        {
          "name": "F#5",
          "midi": 78,
          "time": 282.4999999999984,
          "velocity": 0.984251968503937,
          "duration": 0.5
        },
        {
          "name": "F#2",
          "midi": 42,
          "time": 282.74583333333175,
          "velocity": 1,
          "duration": 0.24583333333333712
        },
        {
          "name": "F#2",
          "midi": 42,
          "time": 282.74583333333175,
          "velocity": 1,
          "duration": 0.25
        },
        {
          "name": "F#4",
          "midi": 66,
          "time": 282.99583333333175,
          "velocity": 1,
          "duration": 0.5041666666666629
        },
        {
          "name": "F#2",
          "midi": 42,
          "time": 282.99583333333175,
          "velocity": 1,
          "duration": 0.24583333333333712
        },
        {
          "name": "F#2",
          "midi": 42,
          "time": 282.99583333333175,
          "velocity": 1,
          "duration": 0.25
        },
        {
          "name": "F#5",
          "midi": 78,
          "time": 282.9999999999984,
          "velocity": 0.984251968503937,
          "duration": 0.5
        },
        {
          "name": "F#2",
          "midi": 42,
          "time": 283.24583333333175,
          "velocity": 1,
          "duration": 0.24583333333333712
        },
        {
          "name": "F#2",
          "midi": 42,
          "time": 283.24583333333175,
          "velocity": 1,
          "duration": 0.25
        },
        {
          "name": "F#2",
          "midi": 42,
          "time": 283.49583333333175,
          "velocity": 1,
          "duration": 0.24583333333333712
        },
        {
          "name": "F#2",
          "midi": 42,
          "time": 283.49583333333175,
          "velocity": 1,
          "duration": 0.25
        },
        {
          "name": "F#5",
          "midi": 78,
          "time": 283.4999999999984,
          "velocity": 0.984251968503937,
          "duration": 0.5
        },
        {
          "name": "F#4",
          "midi": 66,
          "time": 283.50416666666507,
          "velocity": 1,
          "duration": 0.5124999999999886
        },
        {
          "name": "F#2",
          "midi": 42,
          "time": 283.74583333333175,
          "velocity": 1,
          "duration": 0.24583333333333712
        },
        {
          "name": "F#2",
          "midi": 42,
          "time": 283.74583333333175,
          "velocity": 1,
          "duration": 0.25
        },
        {
          "name": "F#2",
          "midi": 42,
          "time": 283.99583333333175,
          "velocity": 1,
          "duration": 0.24583333333333712
        },
        {
          "name": "F#2",
          "midi": 42,
          "time": 283.99583333333175,
          "velocity": 1,
          "duration": 0.25
        },
        {
          "name": "F#5",
          "midi": 78,
          "time": 283.9999999999984,
          "velocity": 0.9763779527559056,
          "duration": 1.25
        },
        {
          "name": "F#4",
          "midi": 66,
          "time": 284.00416666666507,
          "velocity": 1,
          "duration": 1.2666666666666515
        },
        {
          "name": "F#2",
          "midi": 42,
          "time": 284.24583333333175,
          "velocity": 1,
          "duration": 0.24583333333333712
        },
        {
          "name": "F#2",
          "midi": 42,
          "time": 284.24583333333175,
          "velocity": 1,
          "duration": 0.25
        },
        {
          "name": "A2",
          "midi": 45,
          "time": 284.49583333333175,
          "velocity": 1,
          "duration": 0.24583333333333712
        },
        {
          "name": "F#3",
          "midi": 54,
          "time": 284.49583333333175,
          "velocity": 1,
          "duration": 0.24583333333333712
        },
        {
          "name": "F#3",
          "midi": 54,
          "time": 284.49583333333175,
          "velocity": 1,
          "duration": 0.25
        },
        {
          "name": "A2",
          "midi": 45,
          "time": 284.49583333333175,
          "velocity": 1,
          "duration": 0.25
        },
        {
          "name": "B2",
          "midi": 47,
          "time": 284.74583333333175,
          "velocity": 1,
          "duration": 0.24583333333333712
        },
        {
          "name": "F#3",
          "midi": 54,
          "time": 284.74583333333175,
          "velocity": 1,
          "duration": 0.24583333333333712
        },
        {
          "name": "B2",
          "midi": 47,
          "time": 284.74583333333175,
          "velocity": 1,
          "duration": 0.25
        },
        {
          "name": "F#3",
          "midi": 54,
          "time": 284.74583333333175,
          "velocity": 1,
          "duration": 0.25
        },
        {
          "name": "G3",
          "midi": 55,
          "time": 285.24583333333175,
          "velocity": 1,
          "duration": 0.24583333333333712
        },
        {
          "name": "C3",
          "midi": 48,
          "time": 285.24583333333175,
          "velocity": 1,
          "duration": 0.24583333333333712
        },
        {
          "name": "G3",
          "midi": 55,
          "time": 285.24583333333175,
          "velocity": 1,
          "duration": 0.25
        },
        {
          "name": "C3",
          "midi": 48,
          "time": 285.24583333333175,
          "velocity": 1,
          "duration": 0.25
        },
        {
          "name": "F#3",
          "midi": 54,
          "time": 285.49583333333175,
          "velocity": 1,
          "duration": 0.24583333333333712
        },
        {
          "name": "B2",
          "midi": 47,
          "time": 285.49583333333175,
          "velocity": 1,
          "duration": 0.24583333333333712
        },
        {
          "name": "F#3",
          "midi": 54,
          "time": 285.49583333333175,
          "velocity": 1,
          "duration": 0.25
        },
        {
          "name": "B2",
          "midi": 47,
          "time": 285.49583333333175,
          "velocity": 1,
          "duration": 0.25
        },
        {
          "name": "F#3",
          "midi": 54,
          "time": 285.74583333333175,
          "velocity": 1,
          "duration": 0.24583333333333712
        },
        {
          "name": "A2",
          "midi": 45,
          "time": 285.74583333333175,
          "velocity": 1,
          "duration": 0.24583333333333712
        },
        {
          "name": "A2",
          "midi": 45,
          "time": 285.74583333333175,
          "velocity": 1,
          "duration": 0.25
        },
        {
          "name": "F#3",
          "midi": 54,
          "time": 285.74583333333175,
          "velocity": 1,
          "duration": 0.25
        },
        {
          "name": "B2",
          "midi": 47,
          "time": 285.99583333333175,
          "velocity": 1,
          "duration": 0.24583333333333712
        },
        {
          "name": "F#3",
          "midi": 54,
          "time": 285.99583333333175,
          "velocity": 1,
          "duration": 0.24583333333333712
        },
        {
          "name": "F#3",
          "midi": 54,
          "time": 285.99583333333175,
          "velocity": 1,
          "duration": 0.25
        },
        {
          "name": "B2",
          "midi": 47,
          "time": 285.99583333333175,
          "velocity": 1,
          "duration": 0.25
        },
        {
          "name": "F#2",
          "midi": 42,
          "time": 286.24583333333175,
          "velocity": 1,
          "duration": 0.24583333333333712
        },
        {
          "name": "F#2",
          "midi": 42,
          "time": 286.24583333333175,
          "velocity": 1,
          "duration": 0.25
        },
        {
          "name": "F#5",
          "midi": 78,
          "time": 286.2499999999984,
          "velocity": 0.9763779527559056,
          "duration": 0.25
        },
        {
          "name": "F#4",
          "midi": 66,
          "time": 286.2499999999984,
          "velocity": 1,
          "duration": 0.25
        },
        {
          "name": "F#4",
          "midi": 66,
          "time": 286.4874999999984,
          "velocity": 1,
          "duration": 0.5041666666666629
        },
        {
          "name": "F#2",
          "midi": 42,
          "time": 286.49583333333175,
          "velocity": 1,
          "duration": 0.24583333333333712
        },
        {
          "name": "F#2",
          "midi": 42,
          "time": 286.49583333333175,
          "velocity": 1,
          "duration": 0.25
        },
        {
          "name": "F#5",
          "midi": 78,
          "time": 286.4999999999984,
          "velocity": 0.9763779527559056,
          "duration": 0.5
        },
        {
          "name": "F#2",
          "midi": 42,
          "time": 286.74583333333175,
          "velocity": 1,
          "duration": 0.24583333333333712
        },
        {
          "name": "F#2",
          "midi": 42,
          "time": 286.74583333333175,
          "velocity": 1,
          "duration": 0.25
        },
        {
          "name": "F#4",
          "midi": 66,
          "time": 286.99583333333175,
          "velocity": 1,
          "duration": 0.47500000000002274
        },
        {
          "name": "F#2",
          "midi": 42,
          "time": 286.99583333333175,
          "velocity": 1,
          "duration": 0.24583333333333712
        },
        {
          "name": "F#2",
          "midi": 42,
          "time": 286.99583333333175,
          "velocity": 1,
          "duration": 0.25
        },
        {
          "name": "F#5",
          "midi": 78,
          "time": 286.9999999999984,
          "velocity": 0.9763779527559056,
          "duration": 0.5
        },
        {
          "name": "F#2",
          "midi": 42,
          "time": 287.24583333333175,
          "velocity": 1,
          "duration": 0.24583333333333712
        },
        {
          "name": "F#2",
          "midi": 42,
          "time": 287.24583333333175,
          "velocity": 1,
          "duration": 0.25
        },
        {
          "name": "F#4",
          "midi": 66,
          "time": 287.4916666666651,
          "velocity": 1,
          "duration": 0.5124999999999886
        },
        {
          "name": "F#2",
          "midi": 42,
          "time": 287.49583333333175,
          "velocity": 1,
          "duration": 0.24583333333333712
        },
        {
          "name": "F#2",
          "midi": 42,
          "time": 287.49583333333175,
          "velocity": 1,
          "duration": 0.25
        },
        {
          "name": "F#5",
          "midi": 78,
          "time": 287.4999999999984,
          "velocity": 0.9763779527559056,
          "duration": 0.5
        },
        {
          "name": "F#2",
          "midi": 42,
          "time": 287.74583333333175,
          "velocity": 1,
          "duration": 0.24583333333333712
        },
        {
          "name": "F#2",
          "midi": 42,
          "time": 287.74583333333175,
          "velocity": 1,
          "duration": 0.25
        },
        {
          "name": "F#2",
          "midi": 42,
          "time": 287.99583333333175,
          "velocity": 1,
          "duration": 0.24583333333333712
        },
        {
          "name": "F#2",
          "midi": 42,
          "time": 287.99583333333175,
          "velocity": 1,
          "duration": 0.25
        },
        {
          "name": "F#5",
          "midi": 78,
          "time": 287.9999999999984,
          "velocity": 0.984251968503937,
          "duration": 1.5
        },
        {
          "name": "F#4",
          "midi": 66,
          "time": 288.00416666666507,
          "velocity": 1,
          "duration": 1.4958333333333371
        },
        {
          "name": "F#2",
          "midi": 42,
          "time": 288.24583333333175,
          "velocity": 1,
          "duration": 0.24583333333333712
        },
        {
          "name": "F#2",
          "midi": 42,
          "time": 288.24583333333175,
          "velocity": 1,
          "duration": 0.25
        },
        {
          "name": "A2",
          "midi": 45,
          "time": 288.49583333333175,
          "velocity": 1,
          "duration": 0.24583333333333712
        },
        {
          "name": "F#3",
          "midi": 54,
          "time": 288.49583333333175,
          "velocity": 1,
          "duration": 0.3708333333333371
        },
        {
          "name": "A2",
          "midi": 45,
          "time": 288.49583333333175,
          "velocity": 1,
          "duration": 0.25
        },
        {
          "name": "F#3",
          "midi": 54,
          "time": 288.49583333333175,
          "velocity": 1,
          "duration": 0.5
        },
        {
          "name": "B2",
          "midi": 47,
          "time": 288.74583333333175,
          "velocity": 1,
          "duration": 0.24583333333333712
        },
        {
          "name": "B2",
          "midi": 47,
          "time": 288.74583333333175,
          "velocity": 1,
          "duration": 0.25
        },
        {
          "name": "A2",
          "midi": 45,
          "time": 288.99583333333175,
          "velocity": 1,
          "duration": 0.24583333333333712
        },
        {
          "name": "F#3",
          "midi": 54,
          "time": 288.99583333333175,
          "velocity": 1,
          "duration": 0.3708333333333371
        },
        {
          "name": "F#3",
          "midi": 54,
          "time": 288.99583333333175,
          "velocity": 1,
          "duration": 0.5
        },
        {
          "name": "A2",
          "midi": 45,
          "time": 288.99583333333175,
          "velocity": 1,
          "duration": 0.25
        },
        {
          "name": "B2",
          "midi": 47,
          "time": 289.24583333333175,
          "velocity": 1,
          "duration": 0.24583333333333712
        },
        {
          "name": "B2",
          "midi": 47,
          "time": 289.24583333333175,
          "velocity": 1,
          "duration": 0.25
        },
        {
          "name": "B2",
          "midi": 47,
          "time": 289.49583333333175,
          "velocity": 1,
          "duration": 0.24583333333333712
        },
        {
          "name": "B3",
          "midi": 59,
          "time": 289.49583333333175,
          "velocity": 1,
          "duration": 0.24583333333333712
        },
        {
          "name": "F#3",
          "midi": 54,
          "time": 289.49583333333175,
          "velocity": 1,
          "duration": 0.24583333333333712
        },
        {
          "name": "B3",
          "midi": 59,
          "time": 289.49583333333175,
          "velocity": 1,
          "duration": 0.25
        },
        {
          "name": "F#3",
          "midi": 54,
          "time": 289.49583333333175,
          "velocity": 1,
          "duration": 0.25
        },
        {
          "name": "B2",
          "midi": 47,
          "time": 289.49583333333175,
          "velocity": 1,
          "duration": 0.25
        },
        {
          "name": "B3",
          "midi": 59,
          "time": 289.74583333333175,
          "velocity": 1,
          "duration": 0.24583333333333712
        },
        {
          "name": "F#3",
          "midi": 54,
          "time": 289.74583333333175,
          "velocity": 1,
          "duration": 0.24583333333333712
        },
        {
          "name": "B2",
          "midi": 47,
          "time": 289.74583333333175,
          "velocity": 1,
          "duration": 0.24583333333333712
        },
        {
          "name": "B3",
          "midi": 59,
          "time": 289.74583333333175,
          "velocity": 1,
          "duration": 0.25
        },
        {
          "name": "F#3",
          "midi": 54,
          "time": 289.74583333333175,
          "velocity": 1,
          "duration": 0.25
        },
        {
          "name": "B2",
          "midi": 47,
          "time": 289.74583333333175,
          "velocity": 1,
          "duration": 0.25
        },
        {
          "name": "B3",
          "midi": 59,
          "time": 289.99583333333175,
          "velocity": 1,
          "duration": 0.24583333333333712
        },
        {
          "name": "F#3",
          "midi": 54,
          "time": 289.99583333333175,
          "velocity": 1,
          "duration": 0.24583333333333712
        },
        {
          "name": "B2",
          "midi": 47,
          "time": 289.99583333333175,
          "velocity": 1,
          "duration": 0.24583333333333712
        },
        {
          "name": "B3",
          "midi": 59,
          "time": 289.99583333333175,
          "velocity": 1,
          "duration": 0.25
        },
        {
          "name": "F#3",
          "midi": 54,
          "time": 289.99583333333175,
          "velocity": 1,
          "duration": 0.25
        },
        {
          "name": "B2",
          "midi": 47,
          "time": 289.99583333333175,
          "velocity": 1,
          "duration": 0.25
        },
        {
          "name": "F#3",
          "midi": 54,
          "time": 290.24583333333175,
          "velocity": 1,
          "duration": 0.24583333333333712
        },
        {
          "name": "B2",
          "midi": 47,
          "time": 290.24583333333175,
          "velocity": 1,
          "duration": 0.24583333333333712
        },
        {
          "name": "B3",
          "midi": 59,
          "time": 290.24583333333175,
          "velocity": 1,
          "duration": 0.24583333333333712
        },
        {
          "name": "F#3",
          "midi": 54,
          "time": 290.24583333333175,
          "velocity": 1,
          "duration": 0.25
        },
        {
          "name": "B2",
          "midi": 47,
          "time": 290.24583333333175,
          "velocity": 1,
          "duration": 0.25
        },
        {
          "name": "B3",
          "midi": 59,
          "time": 290.24583333333175,
          "velocity": 1,
          "duration": 0.25
        },
        {
          "name": "B3",
          "midi": 59,
          "time": 290.49583333333175,
          "velocity": 1,
          "duration": 0.24583333333333712
        },
        {
          "name": "F#3",
          "midi": 54,
          "time": 290.49583333333175,
          "velocity": 1,
          "duration": 0.24583333333333712
        },
        {
          "name": "B2",
          "midi": 47,
          "time": 290.49583333333175,
          "velocity": 1,
          "duration": 0.24583333333333712
        },
        {
          "name": "F#3",
          "midi": 54,
          "time": 290.49583333333175,
          "velocity": 1,
          "duration": 0.25
        },
        {
          "name": "B2",
          "midi": 47,
          "time": 290.49583333333175,
          "velocity": 1,
          "duration": 0.25
        },
        {
          "name": "B3",
          "midi": 59,
          "time": 290.49583333333175,
          "velocity": 1,
          "duration": 0.25
        },
        {
          "name": "B2",
          "midi": 47,
          "time": 290.74583333333175,
          "velocity": 1,
          "duration": 0.24583333333333712
        },
        {
          "name": "B3",
          "midi": 59,
          "time": 290.74583333333175,
          "velocity": 1,
          "duration": 0.24583333333333712
        },
        {
          "name": "F#3",
          "midi": 54,
          "time": 290.74583333333175,
          "velocity": 1,
          "duration": 0.24583333333333712
        },
        {
          "name": "F#3",
          "midi": 54,
          "time": 290.74583333333175,
          "velocity": 1,
          "duration": 0.25
        },
        {
          "name": "B2",
          "midi": 47,
          "time": 290.74583333333175,
          "velocity": 1,
          "duration": 0.25
        },
        {
          "name": "B3",
          "midi": 59,
          "time": 290.74583333333175,
          "velocity": 1,
          "duration": 0.25
        },
        {
          "name": "B3",
          "midi": 59,
          "time": 290.99583333333175,
          "velocity": 1,
          "duration": 0.24583333333333712
        },
        {
          "name": "F#3",
          "midi": 54,
          "time": 290.99583333333175,
          "velocity": 1,
          "duration": 0.24583333333333712
        },
        {
          "name": "B2",
          "midi": 47,
          "time": 290.99583333333175,
          "velocity": 1,
          "duration": 0.24583333333333712
        },
        {
          "name": "B3",
          "midi": 59,
          "time": 290.99583333333175,
          "velocity": 1,
          "duration": 0.25
        },
        {
          "name": "F#3",
          "midi": 54,
          "time": 290.99583333333175,
          "velocity": 1,
          "duration": 0.25
        },
        {
          "name": "B2",
          "midi": 47,
          "time": 290.99583333333175,
          "velocity": 1,
          "duration": 0.25
        },
        {
          "name": "B2",
          "midi": 47,
          "time": 291.24583333333175,
          "velocity": 1,
          "duration": 0.24583333333333712
        },
        {
          "name": "B3",
          "midi": 59,
          "time": 291.24583333333175,
          "velocity": 1,
          "duration": 0.24583333333333712
        },
        {
          "name": "F#3",
          "midi": 54,
          "time": 291.24583333333175,
          "velocity": 1,
          "duration": 0.24583333333333712
        },
        {
          "name": "B2",
          "midi": 47,
          "time": 291.24583333333175,
          "velocity": 1,
          "duration": 0.25
        },
        {
          "name": "B3",
          "midi": 59,
          "time": 291.24583333333175,
          "velocity": 1,
          "duration": 0.25
        },
        {
          "name": "F#3",
          "midi": 54,
          "time": 291.24583333333175,
          "velocity": 1,
          "duration": 0.25
        },
        {
          "name": "E2",
          "midi": 40,
          "time": 291.49583333333175,
          "velocity": 1,
          "duration": 0.25
        },
        {
          "name": "E4",
          "midi": 64,
          "time": 291.49583333333175,
          "velocity": 1,
          "duration": 0.25
        },
        {
          "name": "B3",
          "midi": 59,
          "time": 291.49583333333175,
          "velocity": 1,
          "duration": 0.25
        },
        {
          "name": "E3",
          "midi": 52,
          "time": 291.49583333333175,
          "velocity": 1,
          "duration": 0.25
        },
        {
          "name": "E4",
          "midi": 64,
          "time": 291.49583333333175,
          "velocity": 1,
          "duration": 0.25
        },
        {
          "name": "E3",
          "midi": 52,
          "time": 291.49583333333175,
          "velocity": 1,
          "duration": 0.25
        },
        {
          "name": "E2",
          "midi": 40,
          "time": 291.49583333333175,
          "velocity": 1,
          "duration": 0.25
        },
        {
          "name": "B3",
          "midi": 59,
          "time": 291.49583333333175,
          "velocity": 1,
          "duration": 0.25
        },
        {
          "name": "E2",
          "midi": 40,
          "time": 291.74583333333175,
          "velocity": 1,
          "duration": 0.25
        },
        {
          "name": "E2",
          "midi": 40,
          "time": 291.74583333333175,
          "velocity": 1,
          "duration": 0.25
        },
        {
          "name": "E2",
          "midi": 40,
          "time": 291.99583333333175,
          "velocity": 1,
          "duration": 0.25
        },
        {
          "name": "E2",
          "midi": 40,
          "time": 291.99583333333175,
          "velocity": 1,
          "duration": 0.25
        },
        {
          "name": "E2",
          "midi": 40,
          "time": 292.24583333333175,
          "velocity": 1,
          "duration": 0.25
        },
        {
          "name": "E2",
          "midi": 40,
          "time": 292.24583333333175,
          "velocity": 1,
          "duration": 0.25
        },
        {
          "name": "D4",
          "midi": 62,
          "time": 292.49583333333175,
          "velocity": 1,
          "duration": 0.5
        },
        {
          "name": "A3",
          "midi": 57,
          "time": 292.49583333333175,
          "velocity": 1,
          "duration": 0.5
        },
        {
          "name": "D3",
          "midi": 50,
          "time": 292.49583333333175,
          "velocity": 1,
          "duration": 0.5
        },
        {
          "name": "D4",
          "midi": 62,
          "time": 292.49583333333175,
          "velocity": 1,
          "duration": 0.5
        },
        {
          "name": "A3",
          "midi": 57,
          "time": 292.49583333333175,
          "velocity": 1,
          "duration": 0.5
        },
        {
          "name": "D3",
          "midi": 50,
          "time": 292.49583333333175,
          "velocity": 1,
          "duration": 0.5
        },
        {
          "name": "E3",
          "midi": 52,
          "time": 292.99583333333175,
          "velocity": 1,
          "duration": 0.5
        },
        {
          "name": "E4",
          "midi": 64,
          "time": 292.99583333333175,
          "velocity": 1,
          "duration": 0.5
        },
        {
          "name": "B3",
          "midi": 59,
          "time": 292.99583333333175,
          "velocity": 1,
          "duration": 0.5
        },
        {
          "name": "B3",
          "midi": 59,
          "time": 292.99583333333175,
          "velocity": 1,
          "duration": 0.5
        },
        {
          "name": "E3",
          "midi": 52,
          "time": 292.99583333333175,
          "velocity": 1,
          "duration": 0.5
        },
        {
          "name": "E4",
          "midi": 64,
          "time": 292.99583333333175,
          "velocity": 1,
          "duration": 0.5
        },
        {
          "name": "E3",
          "midi": 52,
          "time": 293.49583333333175,
          "velocity": 1,
          "duration": 0.25
        },
        {
          "name": "E3",
          "midi": 52,
          "time": 293.49583333333175,
          "velocity": 1,
          "duration": 0.25
        },
        {
          "name": "F#3",
          "midi": 54,
          "time": 293.74583333333175,
          "velocity": 1,
          "duration": 0.25
        },
        {
          "name": "F#3",
          "midi": 54,
          "time": 293.74583333333175,
          "velocity": 1,
          "duration": 0.25
        },
        {
          "name": "B3",
          "midi": 59,
          "time": 293.99583333333175,
          "velocity": 1,
          "duration": 0.25
        },
        {
          "name": "B3",
          "midi": 59,
          "time": 293.99583333333175,
          "velocity": 1,
          "duration": 0.25
        },
        {
          "name": "G3",
          "midi": 55,
          "time": 294.24583333333175,
          "velocity": 1,
          "duration": 0.25
        },
        {
          "name": "G3",
          "midi": 55,
          "time": 294.24583333333175,
          "velocity": 1,
          "duration": 0.25
        },
        {
          "name": "F#3",
          "midi": 54,
          "time": 294.49583333333175,
          "velocity": 1,
          "duration": 0.25
        },
        {
          "name": "F#3",
          "midi": 54,
          "time": 294.49583333333175,
          "velocity": 1,
          "duration": 0.25
        },
        {
          "name": "G3",
          "midi": 55,
          "time": 294.74583333333175,
          "velocity": 1,
          "duration": 0.7499999999999432
        },
        {
          "name": "G3",
          "midi": 55,
          "time": 294.74583333333175,
          "velocity": 1,
          "duration": 0.7499999999999432
        },
        {
          "name": "C3",
          "midi": 48,
          "time": 295.4958333333317,
          "velocity": 1,
          "duration": 0.25
        },
        {
          "name": "C3",
          "midi": 48,
          "time": 295.4958333333317,
          "velocity": 1,
          "duration": 0.25
        },
        {
          "name": "C3",
          "midi": 48,
          "time": 295.7458333333317,
          "velocity": 1,
          "duration": 0.25
        },
        {
          "name": "C3",
          "midi": 48,
          "time": 295.7458333333317,
          "velocity": 1,
          "duration": 0.25
        },
        {
          "name": "C3",
          "midi": 48,
          "time": 295.9958333333317,
          "velocity": 1,
          "duration": 0.25
        },
        {
          "name": "C3",
          "midi": 48,
          "time": 295.9958333333317,
          "velocity": 1,
          "duration": 0.25
        },
        {
          "name": "C3",
          "midi": 48,
          "time": 296.2458333333317,
          "velocity": 1,
          "duration": 0.25
        },
        {
          "name": "C3",
          "midi": 48,
          "time": 296.2458333333317,
          "velocity": 1,
          "duration": 0.25
        },
        {
          "name": "C3",
          "midi": 48,
          "time": 296.4958333333317,
          "velocity": 1,
          "duration": 0.5
        },
        {
          "name": "C4",
          "midi": 60,
          "time": 296.4958333333317,
          "velocity": 1,
          "duration": 0.5
        },
        {
          "name": "G3",
          "midi": 55,
          "time": 296.4958333333317,
          "velocity": 1,
          "duration": 0.5
        },
        {
          "name": "C4",
          "midi": 60,
          "time": 296.4958333333317,
          "velocity": 1,
          "duration": 0.5
        },
        {
          "name": "G3",
          "midi": 55,
          "time": 296.4958333333317,
          "velocity": 1,
          "duration": 0.5
        },
        {
          "name": "C3",
          "midi": 48,
          "time": 296.4958333333317,
          "velocity": 1,
          "duration": 0.5
        },
        {
          "name": "F#4",
          "midi": 66,
          "time": 296.991666666665,
          "velocity": 1,
          "duration": 0.5041666666666629
        },
        {
          "name": "B3",
          "midi": 59,
          "time": 296.9958333333317,
          "velocity": 1,
          "duration": 0.5
        },
        {
          "name": "F#3",
          "midi": 54,
          "time": 296.9958333333317,
          "velocity": 1,
          "duration": 0.5
        },
        {
          "name": "B2",
          "midi": 47,
          "time": 296.9958333333317,
          "velocity": 1,
          "duration": 0.5
        },
        {
          "name": "F#3",
          "midi": 54,
          "time": 296.9958333333317,
          "velocity": 1,
          "duration": 0.5
        },
        {
          "name": "B2",
          "midi": 47,
          "time": 296.9958333333317,
          "velocity": 1,
          "duration": 0.5
        },
        {
          "name": "B3",
          "midi": 59,
          "time": 296.9958333333317,
          "velocity": 1,
          "duration": 0.5
        },
        {
          "name": "F#5",
          "midi": 78,
          "time": 296.99999999999835,
          "velocity": 1,
          "duration": 0.5
        },
        {
          "name": "G4",
          "midi": 67,
          "time": 297.4958333333317,
          "velocity": 1,
          "duration": 1.0041666666666629
        },
        {
          "name": "C3",
          "midi": 48,
          "time": 297.4958333333317,
          "velocity": 1,
          "duration": 0.25
        },
        {
          "name": "C3",
          "midi": 48,
          "time": 297.4958333333317,
          "velocity": 1,
          "duration": 0.25
        },
        {
          "name": "G5",
          "midi": 79,
          "time": 297.49999999999835,
          "velocity": 1,
          "duration": 1
        },
        {
          "name": "C3",
          "midi": 48,
          "time": 297.7458333333317,
          "velocity": 1,
          "duration": 0.25
        },
        {
          "name": "C3",
          "midi": 48,
          "time": 297.7458333333317,
          "velocity": 1,
          "duration": 0.25
        },
        {
          "name": "C3",
          "midi": 48,
          "time": 297.9958333333317,
          "velocity": 1,
          "duration": 0.25
        },
        {
          "name": "C3",
          "midi": 48,
          "time": 297.9958333333317,
          "velocity": 1,
          "duration": 0.25
        },
        {
          "name": "C3",
          "midi": 48,
          "time": 298.2458333333317,
          "velocity": 1,
          "duration": 0.25
        },
        {
          "name": "C3",
          "midi": 48,
          "time": 298.2458333333317,
          "velocity": 1,
          "duration": 0.25
        },
        {
          "name": "F#4",
          "midi": 66,
          "time": 298.491666666665,
          "velocity": 1,
          "duration": 1
        },
        {
          "name": "D#4",
          "midi": 63,
          "time": 298.4958333333317,
          "velocity": 1,
          "duration": 0.5
        },
        {
          "name": "A#3",
          "midi": 58,
          "time": 298.4958333333317,
          "velocity": 1,
          "duration": 0.5
        },
        {
          "name": "D#3",
          "midi": 51,
          "time": 298.4958333333317,
          "velocity": 1,
          "duration": 0.5
        },
        {
          "name": "D#4",
          "midi": 63,
          "time": 298.4958333333317,
          "velocity": 1,
          "duration": 0.5
        },
        {
          "name": "A#3",
          "midi": 58,
          "time": 298.4958333333317,
          "velocity": 1,
          "duration": 0.5
        },
        {
          "name": "D#3",
          "midi": 51,
          "time": 298.4958333333317,
          "velocity": 1,
          "duration": 0.5
        },
        {
          "name": "F#5",
          "midi": 78,
          "time": 298.49999999999835,
          "velocity": 1,
          "duration": 1
        },
        {
          "name": "B2",
          "midi": 47,
          "time": 298.9958333333317,
          "velocity": 1,
          "duration": 0.25
        },
        {
          "name": "B3",
          "midi": 59,
          "time": 298.9958333333317,
          "velocity": 1,
          "duration": 0.25
        },
        {
          "name": "F#3",
          "midi": 54,
          "time": 298.9958333333317,
          "velocity": 1,
          "duration": 0.25
        },
        {
          "name": "B3",
          "midi": 59,
          "time": 298.9958333333317,
          "velocity": 1,
          "duration": 0.25
        },
        {
          "name": "F#3",
          "midi": 54,
          "time": 298.9958333333317,
          "velocity": 1,
          "duration": 0.25
        },
        {
          "name": "B2",
          "midi": 47,
          "time": 298.9958333333317,
          "velocity": 1,
          "duration": 0.25
        },
        {
          "name": "E2",
          "midi": 40,
          "time": 299.4958333333317,
          "velocity": 1,
          "duration": 0.25
        },
        {
          "name": "E4",
          "midi": 64,
          "time": 299.4958333333317,
          "velocity": 1,
          "duration": 0.25
        },
        {
          "name": "B3",
          "midi": 59,
          "time": 299.4958333333317,
          "velocity": 1,
          "duration": 0.25
        },
        {
          "name": "E3",
          "midi": 52,
          "time": 299.4958333333317,
          "velocity": 1,
          "duration": 0.25
        },
        {
          "name": "B3",
          "midi": 59,
          "time": 299.4958333333317,
          "velocity": 1,
          "duration": 0.25
        },
        {
          "name": "E3",
          "midi": 52,
          "time": 299.4958333333317,
          "velocity": 1,
          "duration": 0.25
        },
        {
          "name": "E4",
          "midi": 64,
          "time": 299.4958333333317,
          "velocity": 1,
          "duration": 0.25
        },
        {
          "name": "E2",
          "midi": 40,
          "time": 299.4958333333317,
          "velocity": 1,
          "duration": 0.25
        },
        {
          "name": "F#5",
          "midi": 78,
          "time": 299.49999999999835,
          "velocity": 1,
          "duration": 0.5
        },
        {
          "name": "F#4",
          "midi": 66,
          "time": 299.49999999999835,
          "velocity": 1,
          "duration": 0.5124999999999886
        },
        {
          "name": "E2",
          "midi": 40,
          "time": 299.7458333333317,
          "velocity": 1,
          "duration": 0.25
        },
        {
          "name": "E2",
          "midi": 40,
          "time": 299.7458333333317,
          "velocity": 1,
          "duration": 0.25
        },
        {
          "name": "E2",
          "midi": 40,
          "time": 299.9958333333317,
          "velocity": 1,
          "duration": 0.25
        },
        {
          "name": "E2",
          "midi": 40,
          "time": 299.9958333333317,
          "velocity": 1,
          "duration": 0.25
        },
        {
          "name": "G5",
          "midi": 79,
          "time": 299.99999999999835,
          "velocity": 1,
          "duration": 2.5
        },
        {
          "name": "G4",
          "midi": 67,
          "time": 299.99999999999835,
          "velocity": 1,
          "duration": 2.5083333333333258
        },
        {
          "name": "E2",
          "midi": 40,
          "time": 300.2458333333317,
          "velocity": 1,
          "duration": 0.25
        },
        {
          "name": "E2",
          "midi": 40,
          "time": 300.2458333333317,
          "velocity": 1,
          "duration": 0.25
        },
        {
          "name": "D4",
          "midi": 62,
          "time": 300.4958333333317,
          "velocity": 1,
          "duration": 0.5
        },
        {
          "name": "A3",
          "midi": 57,
          "time": 300.4958333333317,
          "velocity": 1,
          "duration": 0.5
        },
        {
          "name": "D3",
          "midi": 50,
          "time": 300.4958333333317,
          "velocity": 1,
          "duration": 0.5
        },
        {
          "name": "D4",
          "midi": 62,
          "time": 300.4958333333317,
          "velocity": 1,
          "duration": 0.5
        },
        {
          "name": "A3",
          "midi": 57,
          "time": 300.4958333333317,
          "velocity": 1,
          "duration": 0.5
        },
        {
          "name": "D3",
          "midi": 50,
          "time": 300.4958333333317,
          "velocity": 1,
          "duration": 0.5
        },
        {
          "name": "E3",
          "midi": 52,
          "time": 300.9958333333317,
          "velocity": 1,
          "duration": 0.5
        },
        {
          "name": "B3",
          "midi": 59,
          "time": 300.9958333333317,
          "velocity": 1,
          "duration": 0.5
        },
        {
          "name": "E4",
          "midi": 64,
          "time": 300.9958333333317,
          "velocity": 1,
          "duration": 0.5
        },
        {
          "name": "E3",
          "midi": 52,
          "time": 300.9958333333317,
          "velocity": 1,
          "duration": 0.5
        },
        {
          "name": "B3",
          "midi": 59,
          "time": 300.9958333333317,
          "velocity": 1,
          "duration": 0.5
        },
        {
          "name": "E4",
          "midi": 64,
          "time": 300.9958333333317,
          "velocity": 1,
          "duration": 0.5
        },
        {
          "name": "E3",
          "midi": 52,
          "time": 301.4958333333317,
          "velocity": 1,
          "duration": 0.25
        },
        {
          "name": "E3",
          "midi": 52,
          "time": 301.4958333333317,
          "velocity": 1,
          "duration": 0.25
        },
        {
          "name": "F#3",
          "midi": 54,
          "time": 301.7458333333317,
          "velocity": 1,
          "duration": 0.25
        },
        {
          "name": "F#3",
          "midi": 54,
          "time": 301.7458333333317,
          "velocity": 1,
          "duration": 0.25
        },
        {
          "name": "B3",
          "midi": 59,
          "time": 301.9958333333317,
          "velocity": 1,
          "duration": 0.25
        },
        {
          "name": "B3",
          "midi": 59,
          "time": 301.9958333333317,
          "velocity": 1,
          "duration": 0.25
        },
        {
          "name": "G3",
          "midi": 55,
          "time": 302.2458333333317,
          "velocity": 1,
          "duration": 0.25
        },
        {
          "name": "G3",
          "midi": 55,
          "time": 302.2458333333317,
          "velocity": 1,
          "duration": 0.25
        },
        {
          "name": "F#3",
          "midi": 54,
          "time": 302.4958333333317,
          "velocity": 1,
          "duration": 0.25
        },
        {
          "name": "F#3",
          "midi": 54,
          "time": 302.4958333333317,
          "velocity": 1,
          "duration": 0.25
        },
        {
          "name": "G3",
          "midi": 55,
          "time": 302.7458333333317,
          "velocity": 1,
          "duration": 0.7499999999999432
        },
        {
          "name": "G3",
          "midi": 55,
          "time": 302.7458333333317,
          "velocity": 1,
          "duration": 0.7499999999999432
        },
        {
          "name": "C3",
          "midi": 48,
          "time": 303.49583333333163,
          "velocity": 1,
          "duration": 0.25
        },
        {
          "name": "C3",
          "midi": 48,
          "time": 303.49583333333163,
          "velocity": 1,
          "duration": 0.25
        },
        {
          "name": "C3",
          "midi": 48,
          "time": 303.74583333333163,
          "velocity": 1,
          "duration": 0.25
        },
        {
          "name": "C3",
          "midi": 48,
          "time": 303.74583333333163,
          "velocity": 1,
          "duration": 0.25
        },
        {
          "name": "C3",
          "midi": 48,
          "time": 303.99583333333163,
          "velocity": 1,
          "duration": 0.25
        },
        {
          "name": "C3",
          "midi": 48,
          "time": 303.99583333333163,
          "velocity": 1,
          "duration": 0.25
        },
        {
          "name": "C3",
          "midi": 48,
          "time": 304.24583333333163,
          "velocity": 1,
          "duration": 0.25
        },
        {
          "name": "C3",
          "midi": 48,
          "time": 304.24583333333163,
          "velocity": 1,
          "duration": 0.25
        },
        {
          "name": "G3",
          "midi": 55,
          "time": 304.49583333333163,
          "velocity": 1,
          "duration": 0.5
        },
        {
          "name": "C3",
          "midi": 48,
          "time": 304.49583333333163,
          "velocity": 1,
          "duration": 0.5
        },
        {
          "name": "C4",
          "midi": 60,
          "time": 304.49583333333163,
          "velocity": 1,
          "duration": 0.5
        },
        {
          "name": "C4",
          "midi": 60,
          "time": 304.49583333333163,
          "velocity": 1,
          "duration": 0.5
        },
        {
          "name": "G3",
          "midi": 55,
          "time": 304.49583333333163,
          "velocity": 1,
          "duration": 0.5
        },
        {
          "name": "C3",
          "midi": 48,
          "time": 304.49583333333163,
          "velocity": 1,
          "duration": 0.5
        },
        {
          "name": "B3",
          "midi": 59,
          "time": 304.99583333333163,
          "velocity": 1,
          "duration": 0.5
        },
        {
          "name": "F#3",
          "midi": 54,
          "time": 304.99583333333163,
          "velocity": 1,
          "duration": 0.5
        },
        {
          "name": "B2",
          "midi": 47,
          "time": 304.99583333333163,
          "velocity": 1,
          "duration": 0.5
        },
        {
          "name": "F#3",
          "midi": 54,
          "time": 304.99583333333163,
          "velocity": 1,
          "duration": 0.5
        },
        {
          "name": "B3",
          "midi": 59,
          "time": 304.99583333333163,
          "velocity": 1,
          "duration": 0.5
        },
        {
          "name": "B2",
          "midi": 47,
          "time": 304.99583333333163,
          "velocity": 1,
          "duration": 0.5
        },
        {
          "name": "F#5",
          "midi": 78,
          "time": 304.9999999999983,
          "velocity": 1,
          "duration": 0.5
        },
        {
          "name": "F#4",
          "midi": 66,
          "time": 304.9999999999983,
          "velocity": 1,
          "duration": 0.49166666666667425
        },
        {
          "name": "G4",
          "midi": 67,
          "time": 305.4874999999983,
          "velocity": 1,
          "duration": 0.9749999999999659
        },
        {
          "name": "C3",
          "midi": 48,
          "time": 305.49583333333163,
          "velocity": 1,
          "duration": 0.25
        },
        {
          "name": "C3",
          "midi": 48,
          "time": 305.49583333333163,
          "velocity": 1,
          "duration": 0.25
        },
        {
          "name": "G5",
          "midi": 79,
          "time": 305.4999999999983,
          "velocity": 1,
          "duration": 1
        },
        {
          "name": "C3",
          "midi": 48,
          "time": 305.74583333333163,
          "velocity": 1,
          "duration": 0.25
        },
        {
          "name": "C3",
          "midi": 48,
          "time": 305.74583333333163,
          "velocity": 1,
          "duration": 0.25
        },
        {
          "name": "C3",
          "midi": 48,
          "time": 305.99583333333163,
          "velocity": 1,
          "duration": 0.25
        },
        {
          "name": "C3",
          "midi": 48,
          "time": 305.99583333333163,
          "velocity": 1,
          "duration": 0.25
        },
        {
          "name": "C3",
          "midi": 48,
          "time": 306.24583333333163,
          "velocity": 1,
          "duration": 0.25
        },
        {
          "name": "C3",
          "midi": 48,
          "time": 306.24583333333163,
          "velocity": 1,
          "duration": 0.25
        },
        {
          "name": "D#4",
          "midi": 63,
          "time": 306.49583333333163,
          "velocity": 1,
          "duration": 0.5
        },
        {
          "name": "A#3",
          "midi": 58,
          "time": 306.49583333333163,
          "velocity": 1,
          "duration": 0.5
        },
        {
          "name": "D#3",
          "midi": 51,
          "time": 306.49583333333163,
          "velocity": 1,
          "duration": 0.5
        },
        {
          "name": "D#4",
          "midi": 63,
          "time": 306.49583333333163,
          "velocity": 1,
          "duration": 0.5
        },
        {
          "name": "D#3",
          "midi": 51,
          "time": 306.49583333333163,
          "velocity": 1,
          "duration": 0.5
        },
        {
          "name": "A#3",
          "midi": 58,
          "time": 306.49583333333163,
          "velocity": 1,
          "duration": 0.5
        },
        {
          "name": "F#5",
          "midi": 78,
          "time": 306.4999999999983,
          "velocity": 1,
          "duration": 1
        },
        {
          "name": "F#4",
          "midi": 66,
          "time": 306.4999999999983,
          "velocity": 1,
          "duration": 0.9875000000000114
        },
        {
          "name": "B2",
          "midi": 47,
          "time": 306.99583333333163,
          "velocity": 1,
          "duration": 0.5
        },
        {
          "name": "B3",
          "midi": 59,
          "time": 306.99583333333163,
          "velocity": 1,
          "duration": 0.5
        },
        {
          "name": "F#3",
          "midi": 54,
          "time": 306.99583333333163,
          "velocity": 1,
          "duration": 0.5
        },
        {
          "name": "B3",
          "midi": 59,
          "time": 306.99583333333163,
          "velocity": 1,
          "duration": 0.5
        },
        {
          "name": "F#3",
          "midi": 54,
          "time": 306.99583333333163,
          "velocity": 1,
          "duration": 0.5
        },
        {
          "name": "B2",
          "midi": 47,
          "time": 306.99583333333163,
          "velocity": 1,
          "duration": 0.5
        },
        {
          "name": "E4",
          "midi": 64,
          "time": 307.49583333333163,
          "velocity": 1,
          "duration": 0.25
        },
        {
          "name": "B3",
          "midi": 59,
          "time": 307.49583333333163,
          "velocity": 1,
          "duration": 0.25
        },
        {
          "name": "E3",
          "midi": 52,
          "time": 307.49583333333163,
          "velocity": 1,
          "duration": 0.25
        },
        {
          "name": "E2",
          "midi": 40,
          "time": 307.49583333333163,
          "velocity": 1,
          "duration": 0.25
        },
        {
          "name": "E3",
          "midi": 52,
          "time": 307.49583333333163,
          "velocity": 1,
          "duration": 0.25
        },
        {
          "name": "E4",
          "midi": 64,
          "time": 307.49583333333163,
          "velocity": 1,
          "duration": 0.25
        },
        {
          "name": "B3",
          "midi": 59,
          "time": 307.49583333333163,
          "velocity": 1,
          "duration": 0.25
        },
        {
          "name": "E2",
          "midi": 40,
          "time": 307.49583333333163,
          "velocity": 1,
          "duration": 0.25
        },
        {
          "name": "F#5",
          "midi": 78,
          "time": 307.4999999999983,
          "velocity": 1,
          "duration": 0.5
        },
        {
          "name": "F#4",
          "midi": 66,
          "time": 307.5083333333316,
          "velocity": 1,
          "duration": 0.49166666666667425
        },
        {
          "name": "E2",
          "midi": 40,
          "time": 307.74583333333163,
          "velocity": 1,
          "duration": 0.25
        },
        {
          "name": "E2",
          "midi": 40,
          "time": 307.74583333333163,
          "velocity": 1,
          "duration": 0.25
        },
        {
          "name": "E2",
          "midi": 40,
          "time": 307.99583333333163,
          "velocity": 1,
          "duration": 0.25
        },
        {
          "name": "E2",
          "midi": 40,
          "time": 307.99583333333163,
          "velocity": 1,
          "duration": 0.25
        },
        {
          "name": "E5",
          "midi": 76,
          "time": 307.9999999999983,
          "velocity": 1,
          "duration": 2.5
        },
        {
          "name": "E4",
          "midi": 64,
          "time": 308.00416666666496,
          "velocity": 1,
          "duration": 1.4916666666666742
        },
        {
          "name": "E2",
          "midi": 40,
          "time": 308.24583333333163,
          "velocity": 1,
          "duration": 0.25
        },
        {
          "name": "E2",
          "midi": 40,
          "time": 308.24583333333163,
          "velocity": 1,
          "duration": 0.25
        },
        {
          "name": "D4",
          "midi": 62,
          "time": 308.49583333333163,
          "velocity": 1,
          "duration": 0.5
        },
        {
          "name": "A3",
          "midi": 57,
          "time": 308.49583333333163,
          "velocity": 1,
          "duration": 0.5
        },
        {
          "name": "D3",
          "midi": 50,
          "time": 308.49583333333163,
          "velocity": 1,
          "duration": 0.5
        },
        {
          "name": "D4",
          "midi": 62,
          "time": 308.49583333333163,
          "velocity": 1,
          "duration": 0.5
        },
        {
          "name": "D3",
          "midi": 50,
          "time": 308.49583333333163,
          "velocity": 1,
          "duration": 0.5
        },
        {
          "name": "A3",
          "midi": 57,
          "time": 308.49583333333163,
          "velocity": 1,
          "duration": 0.5
        },
        {
          "name": "E4",
          "midi": 64,
          "time": 308.99583333333163,
          "velocity": 1,
          "duration": 0.5
        },
        {
          "name": "E3",
          "midi": 52,
          "time": 308.99583333333163,
          "velocity": 1,
          "duration": 0.5
        },
        {
          "name": "B3",
          "midi": 59,
          "time": 308.99583333333163,
          "velocity": 1,
          "duration": 0.5
        },
        {
          "name": "E3",
          "midi": 52,
          "time": 308.99583333333163,
          "velocity": 1,
          "duration": 0.5
        },
        {
          "name": "B3",
          "midi": 59,
          "time": 308.99583333333163,
          "velocity": 1,
          "duration": 0.5
        },
        {
          "name": "E4",
          "midi": 64,
          "time": 308.99583333333163,
          "velocity": 1,
          "duration": 1.4916666666666742
        },
        {
          "name": "E3",
          "midi": 52,
          "time": 309.49583333333163,
          "velocity": 1,
          "duration": 0.25
        },
        {
          "name": "E3",
          "midi": 52,
          "time": 309.49583333333163,
          "velocity": 1,
          "duration": 0.25
        },
        {
          "name": "F#3",
          "midi": 54,
          "time": 309.74583333333163,
          "velocity": 1,
          "duration": 0.25
        },
        {
          "name": "F#3",
          "midi": 54,
          "time": 309.74583333333163,
          "velocity": 1,
          "duration": 0.25
        },
        {
          "name": "B3",
          "midi": 59,
          "time": 309.99583333333163,
          "velocity": 1,
          "duration": 0.25
        },
        {
          "name": "B3",
          "midi": 59,
          "time": 309.99583333333163,
          "velocity": 1,
          "duration": 0.25
        },
        {
          "name": "G3",
          "midi": 55,
          "time": 310.24583333333163,
          "velocity": 1,
          "duration": 0.25
        },
        {
          "name": "G3",
          "midi": 55,
          "time": 310.24583333333163,
          "velocity": 1,
          "duration": 0.25
        },
        {
          "name": "F#3",
          "midi": 54,
          "time": 310.49583333333163,
          "velocity": 1,
          "duration": 0.25
        },
        {
          "name": "F#3",
          "midi": 54,
          "time": 310.49583333333163,
          "velocity": 1,
          "duration": 0.25
        },
        {
          "name": "G3",
          "midi": 55,
          "time": 310.74583333333163,
          "velocity": 1,
          "duration": 0.7499999999999432
        },
        {
          "name": "G3",
          "midi": 55,
          "time": 310.74583333333163,
          "velocity": 1,
          "duration": 0.7499999999999432
        },
        {
          "name": "C3",
          "midi": 48,
          "time": 311.4958333333316,
          "velocity": 1,
          "duration": 0.25
        },
        {
          "name": "C3",
          "midi": 48,
          "time": 311.4958333333316,
          "velocity": 1,
          "duration": 0.25
        },
        {
          "name": "C3",
          "midi": 48,
          "time": 311.7458333333316,
          "velocity": 1,
          "duration": 0.25
        },
        {
          "name": "C3",
          "midi": 48,
          "time": 311.7458333333316,
          "velocity": 1,
          "duration": 0.25
        },
        {
          "name": "C3",
          "midi": 48,
          "time": 311.9958333333316,
          "velocity": 1,
          "duration": 0.25
        },
        {
          "name": "C3",
          "midi": 48,
          "time": 311.9958333333316,
          "velocity": 1,
          "duration": 0.25
        },
        {
          "name": "C3",
          "midi": 48,
          "time": 312.2458333333316,
          "velocity": 1,
          "duration": 0.25
        },
        {
          "name": "C3",
          "midi": 48,
          "time": 312.2458333333316,
          "velocity": 1,
          "duration": 0.25
        },
        {
          "name": "C4",
          "midi": 60,
          "time": 312.4958333333316,
          "velocity": 1,
          "duration": 0.5
        },
        {
          "name": "G3",
          "midi": 55,
          "time": 312.4958333333316,
          "velocity": 1,
          "duration": 0.5
        },
        {
          "name": "C3",
          "midi": 48,
          "time": 312.4958333333316,
          "velocity": 1,
          "duration": 0.5
        },
        {
          "name": "C4",
          "midi": 60,
          "time": 312.4958333333316,
          "velocity": 1,
          "duration": 0.5
        },
        {
          "name": "C3",
          "midi": 48,
          "time": 312.4958333333316,
          "velocity": 1,
          "duration": 0.5
        },
        {
          "name": "G3",
          "midi": 55,
          "time": 312.4958333333316,
          "velocity": 1,
          "duration": 0.5
        },
        {
          "name": "B3",
          "midi": 59,
          "time": 312.9958333333316,
          "velocity": 1,
          "duration": 0.5
        },
        {
          "name": "F#3",
          "midi": 54,
          "time": 312.9958333333316,
          "velocity": 1,
          "duration": 0.5
        },
        {
          "name": "B2",
          "midi": 47,
          "time": 312.9958333333316,
          "velocity": 1,
          "duration": 0.5
        },
        {
          "name": "B3",
          "midi": 59,
          "time": 312.9958333333316,
          "velocity": 1,
          "duration": 0.5
        },
        {
          "name": "F#3",
          "midi": 54,
          "time": 312.9958333333316,
          "velocity": 1,
          "duration": 0.5
        },
        {
          "name": "B2",
          "midi": 47,
          "time": 312.9958333333316,
          "velocity": 1,
          "duration": 0.5
        },
        {
          "name": "F#5",
          "midi": 78,
          "time": 312.99999999999824,
          "velocity": 1,
          "duration": 0.5
        },
        {
          "name": "F#4",
          "midi": 66,
          "time": 313.00833333333156,
          "velocity": 1,
          "duration": 0.5124999999999886
        },
        {
          "name": "G4",
          "midi": 67,
          "time": 313.4916666666649,
          "velocity": 1,
          "duration": 0.9916666666666742
        },
        {
          "name": "C3",
          "midi": 48,
          "time": 313.4958333333316,
          "velocity": 1,
          "duration": 0.25
        },
        {
          "name": "C3",
          "midi": 48,
          "time": 313.4958333333316,
          "velocity": 1,
          "duration": 0.25
        },
        {
          "name": "G5",
          "midi": 79,
          "time": 313.49999999999824,
          "velocity": 1,
          "duration": 1
        },
        {
          "name": "C3",
          "midi": 48,
          "time": 313.7458333333316,
          "velocity": 1,
          "duration": 0.25
        },
        {
          "name": "C3",
          "midi": 48,
          "time": 313.7458333333316,
          "velocity": 1,
          "duration": 0.25
        },
        {
          "name": "C3",
          "midi": 48,
          "time": 313.9958333333316,
          "velocity": 1,
          "duration": 0.25
        },
        {
          "name": "C3",
          "midi": 48,
          "time": 313.9958333333316,
          "velocity": 1,
          "duration": 0.25
        },
        {
          "name": "C3",
          "midi": 48,
          "time": 314.2458333333316,
          "velocity": 1,
          "duration": 0.25
        },
        {
          "name": "C3",
          "midi": 48,
          "time": 314.2458333333316,
          "velocity": 1,
          "duration": 0.25
        },
        {
          "name": "F#4",
          "midi": 66,
          "time": 314.4958333333316,
          "velocity": 1,
          "duration": 1.0166666666666515
        },
        {
          "name": "D#4",
          "midi": 63,
          "time": 314.4958333333316,
          "velocity": 1,
          "duration": 0.5
        },
        {
          "name": "A#3",
          "midi": 58,
          "time": 314.4958333333316,
          "velocity": 1,
          "duration": 0.5
        },
        {
          "name": "D#3",
          "midi": 51,
          "time": 314.4958333333316,
          "velocity": 1,
          "duration": 0.5
        },
        {
          "name": "D#4",
          "midi": 63,
          "time": 314.4958333333316,
          "velocity": 1,
          "duration": 0.5
        },
        {
          "name": "D#3",
          "midi": 51,
          "time": 314.4958333333316,
          "velocity": 1,
          "duration": 0.5
        },
        {
          "name": "A#3",
          "midi": 58,
          "time": 314.4958333333316,
          "velocity": 1,
          "duration": 0.5
        },
        {
          "name": "F#5",
          "midi": 78,
          "time": 314.49999999999824,
          "velocity": 1,
          "duration": 1
        },
        {
          "name": "F#3",
          "midi": 54,
          "time": 314.9958333333316,
          "velocity": 1,
          "duration": 0.5
        },
        {
          "name": "B2",
          "midi": 47,
          "time": 314.9958333333316,
          "velocity": 1,
          "duration": 0.5
        },
        {
          "name": "B3",
          "midi": 59,
          "time": 314.9958333333316,
          "velocity": 1,
          "duration": 0.5
        },
        {
          "name": "B3",
          "midi": 59,
          "time": 314.9958333333316,
          "velocity": 1,
          "duration": 0.5
        },
        {
          "name": "B2",
          "midi": 47,
          "time": 314.9958333333316,
          "velocity": 1,
          "duration": 0.5
        },
        {
          "name": "F#3",
          "midi": 54,
          "time": 314.9958333333316,
          "velocity": 1,
          "duration": 0.5
        },
        {
          "name": "F#4",
          "midi": 66,
          "time": 315.4916666666649,
          "velocity": 1,
          "duration": 0.4791666666666856
        },
        {
          "name": "E4",
          "midi": 64,
          "time": 315.4958333333316,
          "velocity": 1,
          "duration": 0.25
        },
        {
          "name": "B3",
          "midi": 59,
          "time": 315.4958333333316,
          "velocity": 1,
          "duration": 0.25
        },
        {
          "name": "E3",
          "midi": 52,
          "time": 315.4958333333316,
          "velocity": 1,
          "duration": 0.25
        },
        {
          "name": "E2",
          "midi": 40,
          "time": 315.4958333333316,
          "velocity": 1,
          "duration": 0.25
        },
        {
          "name": "E4",
          "midi": 64,
          "time": 315.4958333333316,
          "velocity": 1,
          "duration": 0.25
        },
        {
          "name": "B3",
          "midi": 59,
          "time": 315.4958333333316,
          "velocity": 1,
          "duration": 0.25
        },
        {
          "name": "E3",
          "midi": 52,
          "time": 315.4958333333316,
          "velocity": 1,
          "duration": 0.25
        },
        {
          "name": "E2",
          "midi": 40,
          "time": 315.4958333333316,
          "velocity": 1,
          "duration": 0.25
        },
        {
          "name": "F#5",
          "midi": 78,
          "time": 315.49999999999824,
          "velocity": 1,
          "duration": 0.5
        },
        {
          "name": "E2",
          "midi": 40,
          "time": 315.7458333333316,
          "velocity": 1,
          "duration": 0.25
        },
        {
          "name": "E2",
          "midi": 40,
          "time": 315.7458333333316,
          "velocity": 1,
          "duration": 0.25
        },
        {
          "name": "E2",
          "midi": 40,
          "time": 315.9958333333316,
          "velocity": 1,
          "duration": 0.25
        },
        {
          "name": "E2",
          "midi": 40,
          "time": 315.9958333333316,
          "velocity": 1,
          "duration": 0.25
        },
        {
          "name": "G5",
          "midi": 79,
          "time": 315.99999999999824,
          "velocity": 1,
          "duration": 2.5
        },
        {
          "name": "G4",
          "midi": 67,
          "time": 316.00833333333156,
          "velocity": 1,
          "duration": 2.5083333333333258
        },
        {
          "name": "E2",
          "midi": 40,
          "time": 316.2458333333316,
          "velocity": 1,
          "duration": 0.25
        },
        {
          "name": "E2",
          "midi": 40,
          "time": 316.2458333333316,
          "velocity": 1,
          "duration": 0.25
        },
        {
          "name": "D4",
          "midi": 62,
          "time": 316.4958333333316,
          "velocity": 1,
          "duration": 0.5
        },
        {
          "name": "A3",
          "midi": 57,
          "time": 316.4958333333316,
          "velocity": 1,
          "duration": 0.5
        },
        {
          "name": "D3",
          "midi": 50,
          "time": 316.4958333333316,
          "velocity": 1,
          "duration": 0.5
        },
        {
          "name": "D4",
          "midi": 62,
          "time": 316.4958333333316,
          "velocity": 1,
          "duration": 0.5
        },
        {
          "name": "D3",
          "midi": 50,
          "time": 316.4958333333316,
          "velocity": 1,
          "duration": 0.5
        },
        {
          "name": "A3",
          "midi": 57,
          "time": 316.4958333333316,
          "velocity": 1,
          "duration": 0.5
        },
        {
          "name": "E4",
          "midi": 64,
          "time": 316.9958333333316,
          "velocity": 1,
          "duration": 0.5
        },
        {
          "name": "E3",
          "midi": 52,
          "time": 316.9958333333316,
          "velocity": 1,
          "duration": 0.5
        },
        {
          "name": "B3",
          "midi": 59,
          "time": 316.9958333333316,
          "velocity": 1,
          "duration": 0.5
        },
        {
          "name": "E3",
          "midi": 52,
          "time": 316.9958333333316,
          "velocity": 1,
          "duration": 0.5
        },
        {
          "name": "E4",
          "midi": 64,
          "time": 316.9958333333316,
          "velocity": 1,
          "duration": 0.5
        },
        {
          "name": "B3",
          "midi": 59,
          "time": 316.9958333333316,
          "velocity": 1,
          "duration": 0.5
        },
        {
          "name": "E3",
          "midi": 52,
          "time": 317.4958333333316,
          "velocity": 1,
          "duration": 0.25
        },
        {
          "name": "E3",
          "midi": 52,
          "time": 317.4958333333316,
          "velocity": 1,
          "duration": 0.25
        },
        {
          "name": "F#3",
          "midi": 54,
          "time": 317.7458333333316,
          "velocity": 1,
          "duration": 0.25
        },
        {
          "name": "F#3",
          "midi": 54,
          "time": 317.7458333333316,
          "velocity": 1,
          "duration": 0.25
        },
        {
          "name": "B3",
          "midi": 59,
          "time": 317.9958333333316,
          "velocity": 1,
          "duration": 0.25
        },
        {
          "name": "B3",
          "midi": 59,
          "time": 317.9958333333316,
          "velocity": 1,
          "duration": 0.25
        },
        {
          "name": "G3",
          "midi": 55,
          "time": 318.2458333333316,
          "velocity": 1,
          "duration": 0.25
        },
        {
          "name": "G3",
          "midi": 55,
          "time": 318.2458333333316,
          "velocity": 1,
          "duration": 0.25
        },
        {
          "name": "F#3",
          "midi": 54,
          "time": 318.4958333333316,
          "velocity": 1,
          "duration": 0.25
        },
        {
          "name": "F#3",
          "midi": 54,
          "time": 318.4958333333316,
          "velocity": 1,
          "duration": 0.25
        },
        {
          "name": "G3",
          "midi": 55,
          "time": 318.7458333333316,
          "velocity": 1,
          "duration": 0.7499999999999432
        },
        {
          "name": "G3",
          "midi": 55,
          "time": 318.7458333333316,
          "velocity": 1,
          "duration": 0.7499999999999432
        },
        {
          "name": "C3",
          "midi": 48,
          "time": 319.4958333333315,
          "velocity": 1,
          "duration": 0.25
        },
        {
          "name": "C3",
          "midi": 48,
          "time": 319.4958333333315,
          "velocity": 1,
          "duration": 0.25
        },
        {
          "name": "C3",
          "midi": 48,
          "time": 319.7458333333315,
          "velocity": 1,
          "duration": 0.25
        },
        {
          "name": "C3",
          "midi": 48,
          "time": 319.7458333333315,
          "velocity": 1,
          "duration": 0.25
        },
        {
          "name": "C3",
          "midi": 48,
          "time": 319.9958333333315,
          "velocity": 1,
          "duration": 0.25
        },
        {
          "name": "C3",
          "midi": 48,
          "time": 319.9958333333315,
          "velocity": 1,
          "duration": 0.25
        },
        {
          "name": "C3",
          "midi": 48,
          "time": 320.2458333333315,
          "velocity": 1,
          "duration": 0.25
        },
        {
          "name": "C3",
          "midi": 48,
          "time": 320.2458333333315,
          "velocity": 1,
          "duration": 0.25
        },
        {
          "name": "C4",
          "midi": 60,
          "time": 320.4958333333315,
          "velocity": 1,
          "duration": 0.5
        },
        {
          "name": "G3",
          "midi": 55,
          "time": 320.4958333333315,
          "velocity": 1,
          "duration": 0.5
        },
        {
          "name": "C3",
          "midi": 48,
          "time": 320.4958333333315,
          "velocity": 1,
          "duration": 0.5
        },
        {
          "name": "G3",
          "midi": 55,
          "time": 320.4958333333315,
          "velocity": 1,
          "duration": 0.5
        },
        {
          "name": "C3",
          "midi": 48,
          "time": 320.4958333333315,
          "velocity": 1,
          "duration": 0.5
        },
        {
          "name": "C4",
          "midi": 60,
          "time": 320.4958333333315,
          "velocity": 1,
          "duration": 0.5
        },
        {
          "name": "F#4",
          "midi": 66,
          "time": 320.9958333333315,
          "velocity": 1,
          "duration": 0.5041666666666629
        },
        {
          "name": "B2",
          "midi": 47,
          "time": 320.9958333333315,
          "velocity": 1,
          "duration": 0.5
        },
        {
          "name": "B3",
          "midi": 59,
          "time": 320.9958333333315,
          "velocity": 1,
          "duration": 0.5
        },
        {
          "name": "F#3",
          "midi": 54,
          "time": 320.9958333333315,
          "velocity": 1,
          "duration": 0.5
        },
        {
          "name": "F#3",
          "midi": 54,
          "time": 320.9958333333315,
          "velocity": 1,
          "duration": 0.5
        },
        {
          "name": "B2",
          "midi": 47,
          "time": 320.9958333333315,
          "velocity": 1,
          "duration": 0.5
        },
        {
          "name": "B3",
          "midi": 59,
          "time": 320.9958333333315,
          "velocity": 1,
          "duration": 0.5
        },
        {
          "name": "F#5",
          "midi": 78,
          "time": 320.9999999999982,
          "velocity": 1,
          "duration": 0.5
        },
        {
          "name": "F#3",
          "midi": 54,
          "time": 321.4958333333315,
          "velocity": 1,
          "duration": 0.25
        },
        {
          "name": "A3",
          "midi": 57,
          "time": 321.4958333333315,
          "velocity": 1,
          "duration": 0.25
        },
        {
          "name": "G5",
          "midi": 79,
          "time": 321.4999999999982,
          "velocity": 1,
          "duration": 1
        },
        {
          "name": "G4",
          "midi": 67,
          "time": 321.5083333333315,
          "velocity": 1,
          "duration": 1.0166666666666515
        },
        {
          "name": "E3",
          "midi": 52,
          "time": 321.7458333333315,
          "velocity": 1,
          "duration": 0.25
        },
        {
          "name": "G3",
          "midi": 55,
          "time": 321.7458333333315,
          "velocity": 1,
          "duration": 0.25
        },
        {
          "name": "D#3",
          "midi": 51,
          "time": 321.9958333333315,
          "velocity": 1,
          "duration": 0.25
        },
        {
          "name": "F#3",
          "midi": 54,
          "time": 321.9958333333315,
          "velocity": 1,
          "duration": 0.25
        },
        {
          "name": "F#4",
          "midi": 66,
          "time": 322.4874999999982,
          "velocity": 1,
          "duration": 0.9833333333333485
        },
        {
          "name": "D#3",
          "midi": 51,
          "time": 322.4958333333315,
          "velocity": 1,
          "duration": 0.25
        },
        {
          "name": "F#3",
          "midi": 54,
          "time": 322.4958333333315,
          "velocity": 1,
          "duration": 0.25
        },
        {
          "name": "F#5",
          "midi": 78,
          "time": 322.4999999999982,
          "velocity": 1,
          "duration": 1
        },
        {
          "name": "C3",
          "midi": 48,
          "time": 322.7458333333315,
          "velocity": 1,
          "duration": 0.25
        },
        {
          "name": "E3",
          "midi": 52,
          "time": 322.7458333333315,
          "velocity": 1,
          "duration": 0.25
        },
        {
          "name": "B2",
          "midi": 47,
          "time": 322.9958333333315,
          "velocity": 1,
          "duration": 0.25
        },
        {
          "name": "D#3",
          "midi": 51,
          "time": 322.9958333333315,
          "velocity": 1,
          "duration": 0.25
        },
        {
          "name": "E3",
          "midi": 52,
          "time": 323.4958333333315,
          "velocity": 1,
          "duration": 0.5
        },
        {
          "name": "B3",
          "midi": 59,
          "time": 323.4958333333315,
          "velocity": 1,
          "duration": 0.5
        },
        {
          "name": "B2",
          "midi": 47,
          "time": 323.4958333333315,
          "velocity": 1,
          "duration": 0.5
        },
        {
          "name": "E2",
          "midi": 40,
          "time": 323.4958333333315,
          "velocity": 1,
          "duration": 0.5
        },
        {
          "name": "B3",
          "midi": 59,
          "time": 323.4958333333315,
          "velocity": 1,
          "duration": 0.5
        },
        {
          "name": "B2",
          "midi": 47,
          "time": 323.4958333333315,
          "velocity": 1,
          "duration": 0.5
        },
        {
          "name": "E2",
          "midi": 40,
          "time": 323.4958333333315,
          "velocity": 1,
          "duration": 0.5
        },
        {
          "name": "E3",
          "midi": 52,
          "time": 323.4958333333315,
          "velocity": 1,
          "duration": 0.5
        },
        {
          "name": "E5",
          "midi": 76,
          "time": 323.4999999999982,
          "velocity": 1,
          "duration": 0.5
        },
        {
          "name": "E4",
          "midi": 64,
          "time": 323.4999999999982,
          "velocity": 1,
          "duration": 0.5
        },
        {
          "name": "E4",
          "midi": 64,
          "time": 323.9874999999982,
          "velocity": 1,
          "duration": 0.5166666666666515
        },
        {
          "name": "B3",
          "midi": 59,
          "time": 323.9958333333315,
          "velocity": 1,
          "duration": 0.5
        },
        {
          "name": "E2",
          "midi": 40,
          "time": 323.9958333333315,
          "velocity": 1,
          "duration": 0.5
        },
        {
          "name": "E3",
          "midi": 52,
          "time": 323.9958333333315,
          "velocity": 1,
          "duration": 0.5
        },
        {
          "name": "B2",
          "midi": 47,
          "time": 323.9958333333315,
          "velocity": 1,
          "duration": 0.5
        },
        {
          "name": "E3",
          "midi": 52,
          "time": 323.9958333333315,
          "velocity": 1,
          "duration": 0.5
        },
        {
          "name": "B2",
          "midi": 47,
          "time": 323.9958333333315,
          "velocity": 1,
          "duration": 0.5
        },
        {
          "name": "B3",
          "midi": 59,
          "time": 323.9958333333315,
          "velocity": 1,
          "duration": 0.5
        },
        {
          "name": "E2",
          "midi": 40,
          "time": 323.9958333333315,
          "velocity": 1,
          "duration": 0.5
        },
        {
          "name": "E5",
          "midi": 76,
          "time": 323.9999999999982,
          "velocity": 1,
          "duration": 0.5
        },
        {
          "name": "F4",
          "midi": 65,
          "time": 325.4958333333315,
          "velocity": 1,
          "duration": 0.5124999999999886
        },
        {
          "name": "F2",
          "midi": 41,
          "time": 325.4958333333315,
          "velocity": 1,
          "duration": 0.5
        },
        {
          "name": "A3",
          "midi": 57,
          "time": 325.4958333333315,
          "velocity": 1,
          "duration": 0.5
        },
        {
          "name": "F3",
          "midi": 53,
          "time": 325.4958333333315,
          "velocity": 1,
          "duration": 0.5
        },
        {
          "name": "C3",
          "midi": 48,
          "time": 325.4958333333315,
          "velocity": 1,
          "duration": 0.5
        },
        {
          "name": "C3",
          "midi": 48,
          "time": 325.4958333333315,
          "velocity": 1,
          "duration": 0.5
        },
        {
          "name": "F2",
          "midi": 41,
          "time": 325.4958333333315,
          "velocity": 1,
          "duration": 0.5
        },
        {
          "name": "F3",
          "midi": 53,
          "time": 325.4958333333315,
          "velocity": 1,
          "duration": 0.5
        },
        {
          "name": "A3",
          "midi": 57,
          "time": 325.4958333333315,
          "velocity": 1,
          "duration": 0.5
        },
        {
          "name": "F5",
          "midi": 77,
          "time": 325.4999999999982,
          "velocity": 1,
          "duration": 0.5
        },
        {
          "name": "F2",
          "midi": 41,
          "time": 325.9958333333315,
          "velocity": 1,
          "duration": 0.5
        },
        {
          "name": "A3",
          "midi": 57,
          "time": 325.9958333333315,
          "velocity": 1,
          "duration": 0.5
        },
        {
          "name": "F3",
          "midi": 53,
          "time": 325.9958333333315,
          "velocity": 1,
          "duration": 0.5
        },
        {
          "name": "C3",
          "midi": 48,
          "time": 325.9958333333315,
          "velocity": 1,
          "duration": 0.5
        },
        {
          "name": "A3",
          "midi": 57,
          "time": 325.9958333333315,
          "velocity": 1,
          "duration": 0.5
        },
        {
          "name": "F3",
          "midi": 53,
          "time": 325.9958333333315,
          "velocity": 1,
          "duration": 0.5
        },
        {
          "name": "F2",
          "midi": 41,
          "time": 325.9958333333315,
          "velocity": 1,
          "duration": 0.5
        },
        {
          "name": "C3",
          "midi": 48,
          "time": 325.9958333333315,
          "velocity": 1,
          "duration": 0.5
        },
        {
          "name": "F#5",
          "midi": 78,
          "time": 325.9999999999982,
          "velocity": 1,
          "duration": 0.5
        },
        {
          "name": "F#4",
          "midi": 66,
          "time": 326.0083333333315,
          "velocity": 1,
          "duration": 0.5208333333333144
        },
        {
          "name": "E4",
          "midi": 64,
          "time": 327.48749999999814,
          "velocity": 1,
          "duration": 0.4833333333333485
        },
        {
          "name": "B3",
          "midi": 59,
          "time": 327.49583333333146,
          "velocity": 1,
          "duration": 1.2499999999999432
        },
        {
          "name": "E3",
          "midi": 52,
          "time": 327.49583333333146,
          "velocity": 1,
          "duration": 1.2499999999999432
        },
        {
          "name": "B2",
          "midi": 47,
          "time": 327.49583333333146,
          "velocity": 1,
          "duration": 1.2499999999999432
        },
        {
          "name": "E2",
          "midi": 40,
          "time": 327.49583333333146,
          "velocity": 1,
          "duration": 1.2499999999999432
        },
        {
          "name": "E2",
          "midi": 40,
          "time": 327.49583333333146,
          "velocity": 1,
          "duration": 1.2499999999999432
        },
        {
          "name": "B2",
          "midi": 47,
          "time": 327.49583333333146,
          "velocity": 1,
          "duration": 1.2499999999999432
        },
        {
          "name": "B3",
          "midi": 59,
          "time": 327.49583333333146,
          "velocity": 1,
          "duration": 1.2499999999999432
        },
        {
          "name": "E3",
          "midi": 52,
          "time": 327.49583333333146,
          "velocity": 1,
          "duration": 1.2499999999999432
        },
        {
          "name": "E5",
          "midi": 76,
          "time": 327.4999999999981,
          "velocity": 1,
          "duration": 0.5
        },
        {
          "name": "E5",
          "midi": 76,
          "time": 327.9999999999981,
          "velocity": 1,
          "duration": 0.25
        },
        {
          "name": "E4",
          "midi": 64,
          "time": 328.00833333333145,
          "velocity": 1,
          "duration": 0.2666666666666515
        },
        {
          "name": "E4",
          "midi": 64,
          "time": 328.2416666666648,
          "velocity": 1,
          "duration": 0.2624999999999318
        },
        {
          "name": "E5",
          "midi": 76,
          "time": 328.2499999999981,
          "velocity": 1,
          "duration": 0.24999999999994316
        },
        {
          "name": "E4",
          "midi": 64,
          "time": 328.49166666666474,
          "velocity": 1,
          "duration": 0.35416666666662877
        },
        {
          "name": "E5",
          "midi": 76,
          "time": 328.49999999999807,
          "velocity": 1,
          "duration": 0.3333333333333144
        },
        {
          "name": "E2",
          "midi": 40,
          "time": 328.7458333333314,
          "velocity": 1,
          "duration": 0.24999999999994316
        },
        {
          "name": "E2",
          "midi": 40,
          "time": 328.7458333333314,
          "velocity": 1,
          "duration": 0.24999999999994316
        },
        {
          "name": "E5",
          "midi": 76,
          "time": 328.8333333333314,
          "velocity": 1,
          "duration": 0.3333333333333144
        },
        {
          "name": "E4",
          "midi": 64,
          "time": 328.83749999999804,
          "velocity": 1,
          "duration": 0.3499999999999659
        },
        {
          "name": "E2",
          "midi": 40,
          "time": 328.99583333333135,
          "velocity": 1,
          "duration": 0.25
        },
        {
          "name": "E2",
          "midi": 40,
          "time": 328.99583333333135,
          "velocity": 1,
          "duration": 0.25
        },
        {
          "name": "E4",
          "midi": 64,
          "time": 329.16249999999803,
          "velocity": 1,
          "duration": 0.3499999999999659
        },
        {
          "name": "E5",
          "midi": 76,
          "time": 329.1666666666647,
          "velocity": 1,
          "duration": 0.3333333333333144
        },
        {
          "name": "E2",
          "midi": 40,
          "time": 329.24583333333135,
          "velocity": 1,
          "duration": 0.25
        },
        {
          "name": "E2",
          "midi": 40,
          "time": 329.24583333333135,
          "velocity": 1,
          "duration": 0.25
        },
        {
          "name": "F#4",
          "midi": 66,
          "time": 329.4916666666647,
          "velocity": 1,
          "duration": 0.2541666666666629
        },
        {
          "name": "F#2",
          "midi": 42,
          "time": 329.49583333333135,
          "velocity": 1,
          "duration": 0.25
        },
        {
          "name": "F#2",
          "midi": 42,
          "time": 329.49583333333135,
          "velocity": 1,
          "duration": 0.25
        },
        {
          "name": "F#5",
          "midi": 78,
          "time": 329.499999999998,
          "velocity": 1,
          "duration": 0.25
        },
        {
          "name": "E2",
          "midi": 40,
          "time": 329.74583333333135,
          "velocity": 1,
          "duration": 0.25
        },
        {
          "name": "E2",
          "midi": 40,
          "time": 329.74583333333135,
          "velocity": 1,
          "duration": 0.25
        },
        {
          "name": "E5",
          "midi": 76,
          "time": 329.749999999998,
          "velocity": 1,
          "duration": 0.25
        },
        {
          "name": "E4",
          "midi": 64,
          "time": 329.749999999998,
          "velocity": 1,
          "duration": 0.2333333333333485
        },
        {
          "name": "E2",
          "midi": 40,
          "time": 329.99583333333135,
          "velocity": 1,
          "duration": 0.25
        },
        {
          "name": "E2",
          "midi": 40,
          "time": 329.99583333333135,
          "velocity": 1,
          "duration": 0.25
        },
        {
          "name": "E5",
          "midi": 76,
          "time": 329.999999999998,
          "velocity": 1,
          "duration": 0.5
        },
        {
          "name": "E4",
          "midi": 64,
          "time": 329.999999999998,
          "velocity": 1,
          "duration": 0.5041666666666629
        },
        {
          "name": "E2",
          "midi": 40,
          "time": 330.24583333333135,
          "velocity": 1,
          "duration": 0.25
        },
        {
          "name": "E2",
          "midi": 40,
          "time": 330.24583333333135,
          "velocity": 1,
          "duration": 0.25
        },
        {
          "name": "F#4",
          "midi": 66,
          "time": 330.47499999999803,
          "velocity": 0.5905511811023622,
          "duration": 0.008333333333325754
        },
        {
          "name": "F#5",
          "midi": 78,
          "time": 330.4791666666647,
          "velocity": 0.5905511811023622,
          "duration": 0.020833333333314386
        },
        {
          "name": "G4",
          "midi": 67,
          "time": 330.49583333333135,
          "velocity": 1,
          "duration": 1.4875000000000114
        },
        {
          "name": "D3",
          "midi": 50,
          "time": 330.49583333333135,
          "velocity": 1,
          "duration": 4
        },
        {
          "name": "B3",
          "midi": 59,
          "time": 330.49583333333135,
          "velocity": 1,
          "duration": 4
        },
        {
          "name": "G2",
          "midi": 43,
          "time": 330.49583333333135,
          "velocity": 1,
          "duration": 4
        },
        {
          "name": "G3",
          "midi": 55,
          "time": 330.49583333333135,
          "velocity": 1,
          "duration": 4
        },
        {
          "name": "G3",
          "midi": 55,
          "time": 330.49583333333135,
          "velocity": 1,
          "duration": 4
        },
        {
          "name": "D3",
          "midi": 50,
          "time": 330.49583333333135,
          "velocity": 1,
          "duration": 4
        },
        {
          "name": "B3",
          "midi": 59,
          "time": 330.49583333333135,
          "velocity": 1,
          "duration": 4
        },
        {
          "name": "G2",
          "midi": 43,
          "time": 330.49583333333135,
          "velocity": 1,
          "duration": 4
        },
        {
          "name": "G5",
          "midi": 79,
          "time": 330.499999999998,
          "velocity": 1,
          "duration": 1.5
        },
        {
          "name": "C4",
          "midi": 60,
          "time": 334.49583333333135,
          "velocity": 1,
          "duration": 1.2499999999999432
        },
        {
          "name": "G3",
          "midi": 55,
          "time": 334.49583333333135,
          "velocity": 1,
          "duration": 1.2499999999999432
        },
        {
          "name": "C3",
          "midi": 48,
          "time": 334.49583333333135,
          "velocity": 1,
          "duration": 1.2499999999999432
        },
        {
          "name": "C4",
          "midi": 60,
          "time": 334.49583333333135,
          "velocity": 1,
          "duration": 1.2499999999999432
        },
        {
          "name": "G3",
          "midi": 55,
          "time": 334.49583333333135,
          "velocity": 1,
          "duration": 1.2499999999999432
        },
        {
          "name": "C3",
          "midi": 48,
          "time": 334.49583333333135,
          "velocity": 1,
          "duration": 1.2499999999999432
        },
        {
          "name": "E5",
          "midi": 76,
          "time": 334.499999999998,
          "velocity": 1,
          "duration": 0.3333333333333144
        },
        {
          "name": "E4",
          "midi": 64,
          "time": 334.499999999998,
          "velocity": 1,
          "duration": 0.34166666666664014
        },
        {
          "name": "E5",
          "midi": 76,
          "time": 334.8333333333313,
          "velocity": 1,
          "duration": 0.3333333333333144
        },
        {
          "name": "E4",
          "midi": 64,
          "time": 334.8333333333313,
          "velocity": 1,
          "duration": 0.345833333333303
        },
        {
          "name": "E5",
          "midi": 76,
          "time": 335.16666666666464,
          "velocity": 1,
          "duration": 0.3333333333333144
        },
        {
          "name": "E4",
          "midi": 64,
          "time": 335.17499999999797,
          "velocity": 1,
          "duration": 0.3166666666666629
        },
        {
          "name": "E5",
          "midi": 76,
          "time": 335.49999999999795,
          "velocity": 1,
          "duration": 0.5
        },
        {
          "name": "E4",
          "midi": 64,
          "time": 335.5041666666646,
          "velocity": 1,
          "duration": 0.5083333333333258
        },
        {
          "name": "A2",
          "midi": 45,
          "time": 335.7458333333313,
          "velocity": 1,
          "duration": 0.25
        },
        {
          "name": "A2",
          "midi": 45,
          "time": 335.7458333333313,
          "velocity": 1,
          "duration": 0.25
        },
        {
          "name": "A2",
          "midi": 45,
          "time": 335.9958333333313,
          "velocity": 1,
          "duration": 0.25
        },
        {
          "name": "A2",
          "midi": 45,
          "time": 335.9958333333313,
          "velocity": 1,
          "duration": 0.25
        },
        {
          "name": "E5",
          "midi": 76,
          "time": 335.99999999999795,
          "velocity": 1,
          "duration": 0.5
        },
        {
          "name": "E4",
          "midi": 64,
          "time": 335.99999999999795,
          "velocity": 1,
          "duration": 0.4958333333333371
        },
        {
          "name": "A2",
          "midi": 45,
          "time": 336.2458333333313,
          "velocity": 1,
          "duration": 0.25
        },
        {
          "name": "A2",
          "midi": 45,
          "time": 336.2458333333313,
          "velocity": 1,
          "duration": 0.25
        },
        {
          "name": "F#3",
          "midi": 54,
          "time": 336.4958333333313,
          "velocity": 1,
          "duration": 0.25
        },
        {
          "name": "B2",
          "midi": 47,
          "time": 336.4958333333313,
          "velocity": 1,
          "duration": 0.25
        },
        {
          "name": "F#3",
          "midi": 54,
          "time": 336.4958333333313,
          "velocity": 1,
          "duration": 0.25
        },
        {
          "name": "B2",
          "midi": 47,
          "time": 336.4958333333313,
          "velocity": 1,
          "duration": 0.25
        },
        {
          "name": "F#5",
          "midi": 78,
          "time": 336.49999999999795,
          "velocity": 1,
          "duration": 0.3333333333333144
        },
        {
          "name": "F#4",
          "midi": 66,
          "time": 336.5041666666646,
          "velocity": 1,
          "duration": 0.3083333333333371
        },
        {
          "name": "A2",
          "midi": 45,
          "time": 336.7458333333313,
          "velocity": 1,
          "duration": 0.25
        },
        {
          "name": "A2",
          "midi": 45,
          "time": 336.7458333333313,
          "velocity": 1,
          "duration": 0.25
        },
        {
          "name": "E5",
          "midi": 76,
          "time": 336.83333333333127,
          "velocity": 1,
          "duration": 0.33333333333337123
        },
        {
          "name": "E4",
          "midi": 64,
          "time": 336.83333333333127,
          "velocity": 1,
          "duration": 0.34583333333335986
        },
        {
          "name": "A2",
          "midi": 45,
          "time": 336.9958333333313,
          "velocity": 1,
          "duration": 0.25
        },
        {
          "name": "A2",
          "midi": 45,
          "time": 336.9958333333313,
          "velocity": 1,
          "duration": 0.25
        },
        {
          "name": "E4",
          "midi": 64,
          "time": 337.162499999998,
          "velocity": 1,
          "duration": 0.3499999999999659
        },
        {
          "name": "E5",
          "midi": 76,
          "time": 337.16666666666464,
          "velocity": 1,
          "duration": 0.3333333333333144
        },
        {
          "name": "A2",
          "midi": 45,
          "time": 337.2458333333313,
          "velocity": 1,
          "duration": 0.25
        },
        {
          "name": "A2",
          "midi": 45,
          "time": 337.2458333333313,
          "velocity": 1,
          "duration": 0.25
        },
        {
          "name": "E4",
          "midi": 64,
          "time": 337.4916666666646,
          "velocity": 1,
          "duration": 1.4791666666666288
        },
        {
          "name": "A2",
          "midi": 45,
          "time": 337.4958333333313,
          "velocity": 1,
          "duration": 3.999999999999943
        },
        {
          "name": "A3",
          "midi": 57,
          "time": 337.4958333333313,
          "velocity": 1,
          "duration": 3.999999999999943
        },
        {
          "name": "E3",
          "midi": 52,
          "time": 337.4958333333313,
          "velocity": 1,
          "duration": 3.999999999999943
        },
        {
          "name": "A3",
          "midi": 57,
          "time": 337.4958333333313,
          "velocity": 1,
          "duration": 3.999999999999943
        },
        {
          "name": "E3",
          "midi": 52,
          "time": 337.4958333333313,
          "velocity": 1,
          "duration": 3.999999999999943
        },
        {
          "name": "A2",
          "midi": 45,
          "time": 337.4958333333313,
          "velocity": 1,
          "duration": 3.999999999999943
        },
        {
          "name": "E5",
          "midi": 76,
          "time": 337.49999999999795,
          "velocity": 1,
          "duration": 1.4999999999999432
        },
        {
          "name": "D3",
          "midi": 50,
          "time": 341.49583333333123,
          "velocity": 1,
          "duration": 1.2499999999999432
        },
        {
          "name": "F#4",
          "midi": 66,
          "time": 341.49583333333123,
          "velocity": 1,
          "duration": 1.2499999999999432
        },
        {
          "name": "D4",
          "midi": 62,
          "time": 341.49583333333123,
          "velocity": 1,
          "duration": 1.2499999999999432
        },
        {
          "name": "A3",
          "midi": 57,
          "time": 341.49583333333123,
          "velocity": 1,
          "duration": 1.2499999999999432
        },
        {
          "name": "F#4",
          "midi": 66,
          "time": 341.49583333333123,
          "velocity": 1,
          "duration": 1.2499999999999432
        },
        {
          "name": "D4",
          "midi": 62,
          "time": 341.49583333333123,
          "velocity": 1,
          "duration": 1.2499999999999432
        },
        {
          "name": "A3",
          "midi": 57,
          "time": 341.49583333333123,
          "velocity": 1,
          "duration": 1.2499999999999432
        },
        {
          "name": "D3",
          "midi": 50,
          "time": 341.49583333333123,
          "velocity": 1,
          "duration": 1.2499999999999432
        },
        {
          "name": "A5",
          "midi": 81,
          "time": 341.4999999999979,
          "velocity": 1,
          "duration": 0.3333333333333144
        },
        {
          "name": "A4",
          "midi": 69,
          "time": 341.50416666666456,
          "velocity": 1,
          "duration": 0.32083333333332575
        },
        {
          "name": "A5",
          "midi": 81,
          "time": 341.8333333333312,
          "velocity": 1,
          "duration": 0.3333333333333144
        },
        {
          "name": "A4",
          "midi": 69,
          "time": 341.8333333333312,
          "velocity": 1,
          "duration": 0.3333333333333144
        },
        {
          "name": "A5",
          "midi": 81,
          "time": 342.1666666666645,
          "velocity": 1,
          "duration": 0.3333333333333144
        },
        {
          "name": "A4",
          "midi": 69,
          "time": 342.17499999999785,
          "velocity": 1,
          "duration": 0.3291666666666515
        },
        {
          "name": "A4",
          "midi": 69,
          "time": 342.4916666666645,
          "velocity": 1,
          "duration": 0.5124999999999886
        },
        {
          "name": "A5",
          "midi": 81,
          "time": 342.49999999999784,
          "velocity": 1,
          "duration": 0.5
        },
        {
          "name": "G2",
          "midi": 43,
          "time": 342.7458333333312,
          "velocity": 1,
          "duration": 0.25
        },
        {
          "name": "G2",
          "midi": 43,
          "time": 342.7458333333312,
          "velocity": 1,
          "duration": 0.25
        },
        {
          "name": "A4",
          "midi": 69,
          "time": 342.9916666666645,
          "velocity": 1,
          "duration": 0.2333333333333485
        },
        {
          "name": "G2",
          "midi": 43,
          "time": 342.9958333333312,
          "velocity": 1,
          "duration": 0.25
        },
        {
          "name": "G2",
          "midi": 43,
          "time": 342.9958333333312,
          "velocity": 1,
          "duration": 0.25
        },
        {
          "name": "A5",
          "midi": 81,
          "time": 342.99999999999784,
          "velocity": 1,
          "duration": 0.25
        },
        {
          "name": "G2",
          "midi": 43,
          "time": 343.2458333333312,
          "velocity": 1,
          "duration": 0.25
        },
        {
          "name": "G2",
          "midi": 43,
          "time": 343.2458333333312,
          "velocity": 1,
          "duration": 0.25
        },
        {
          "name": "G5",
          "midi": 79,
          "time": 343.24999999999784,
          "velocity": 1,
          "duration": 0.5
        },
        {
          "name": "G4",
          "midi": 67,
          "time": 343.24999999999784,
          "velocity": 1,
          "duration": 0.5083333333333258
        },
        {
          "name": "G3",
          "midi": 55,
          "time": 343.4958333333312,
          "velocity": 1,
          "duration": 0.25
        },
        {
          "name": "C3",
          "midi": 48,
          "time": 343.4958333333312,
          "velocity": 1,
          "duration": 0.25
        },
        {
          "name": "C3",
          "midi": 48,
          "time": 343.4958333333312,
          "velocity": 1,
          "duration": 0.25
        },
        {
          "name": "G3",
          "midi": 55,
          "time": 343.4958333333312,
          "velocity": 1,
          "duration": 0.25
        },
        {
          "name": "G2",
          "midi": 43,
          "time": 343.7458333333312,
          "velocity": 1,
          "duration": 0.25
        },
        {
          "name": "G2",
          "midi": 43,
          "time": 343.7458333333312,
          "velocity": 1,
          "duration": 0.25
        },
        {
          "name": "G5",
          "midi": 79,
          "time": 343.74999999999784,
          "velocity": 1,
          "duration": 0.25
        },
        {
          "name": "G4",
          "midi": 67,
          "time": 343.7541666666645,
          "velocity": 1,
          "duration": 0.2708333333333144
        },
        {
          "name": "G2",
          "midi": 43,
          "time": 343.9958333333312,
          "velocity": 1,
          "duration": 0.25
        },
        {
          "name": "G2",
          "midi": 43,
          "time": 343.9958333333312,
          "velocity": 1,
          "duration": 0.25
        },
        {
          "name": "G5",
          "midi": 79,
          "time": 343.99999999999784,
          "velocity": 1,
          "duration": 0.5
        },
        {
          "name": "G4",
          "midi": 67,
          "time": 343.99999999999784,
          "velocity": 1,
          "duration": 0.47500000000002274
        },
        {
          "name": "G2",
          "midi": 43,
          "time": 344.2458333333312,
          "velocity": 1,
          "duration": 0.25
        },
        {
          "name": "G2",
          "midi": 43,
          "time": 344.2458333333312,
          "velocity": 1,
          "duration": 0.25
        },
        {
          "name": "E4",
          "midi": 64,
          "time": 344.47499999999786,
          "velocity": 0.5905511811023622,
          "duration": 0.024999999999977263
        },
        {
          "name": "E5",
          "midi": 76,
          "time": 344.4791666666645,
          "velocity": 0.5905511811023622,
          "duration": 0.020833333333314386
        },
        {
          "name": "F#4",
          "midi": 66,
          "time": 344.4958333333312,
          "velocity": 1,
          "duration": 1.5083333333333258
        },
        {
          "name": "F#3",
          "midi": 54,
          "time": 344.4958333333312,
          "velocity": 1,
          "duration": 2
        },
        {
          "name": "D#4",
          "midi": 63,
          "time": 344.4958333333312,
          "velocity": 1,
          "duration": 2
        },
        {
          "name": "B2",
          "midi": 47,
          "time": 344.4958333333312,
          "velocity": 1,
          "duration": 2
        },
        {
          "name": "B3",
          "midi": 59,
          "time": 344.4958333333312,
          "velocity": 1,
          "duration": 2
        },
        {
          "name": "B3",
          "midi": 59,
          "time": 344.4958333333312,
          "velocity": 1,
          "duration": 2
        },
        {
          "name": "F#3",
          "midi": 54,
          "time": 344.4958333333312,
          "velocity": 1,
          "duration": 2
        },
        {
          "name": "D#4",
          "midi": 63,
          "time": 344.4958333333312,
          "velocity": 1,
          "duration": 2
        },
        {
          "name": "B2",
          "midi": 47,
          "time": 344.4958333333312,
          "velocity": 1,
          "duration": 2
        },
        {
          "name": "F#5",
          "midi": 78,
          "time": 344.49999999999784,
          "velocity": 1,
          "duration": 1.5
        },
        {
          "name": "E4",
          "midi": 64,
          "time": 346.48749999999785,
          "velocity": 1,
          "duration": 0.3166666666666629
        },
        {
          "name": "E4",
          "midi": 64,
          "time": 346.4958333333312,
          "velocity": 1,
          "duration": 0.6499999999999773
        },
        {
          "name": "B3",
          "midi": 59,
          "time": 346.4958333333312,
          "velocity": 1,
          "duration": 1.2499999999999432
        },
        {
          "name": "E3",
          "midi": 52,
          "time": 346.4958333333312,
          "velocity": 1,
          "duration": 1.2499999999999432
        },
        {
          "name": "E2",
          "midi": 40,
          "time": 346.4958333333312,
          "velocity": 1,
          "duration": 1.2499999999999432
        },
        {
          "name": "E3",
          "midi": 52,
          "time": 346.4958333333312,
          "velocity": 1,
          "duration": 1.2499999999999432
        },
        {
          "name": "E2",
          "midi": 40,
          "time": 346.4958333333312,
          "velocity": 1,
          "duration": 1.2499999999999432
        },
        {
          "name": "B3",
          "midi": 59,
          "time": 346.4958333333312,
          "velocity": 1,
          "duration": 1.2499999999999432
        },
        {
          "name": "E4",
          "midi": 64,
          "time": 346.4958333333312,
          "velocity": 1,
          "duration": 0.9916666666666174
        },
        {
          "name": "E5",
          "midi": 76,
          "time": 346.49999999999784,
          "velocity": 1,
          "duration": 0.3333333333333144
        },
        {
          "name": "E5",
          "midi": 76,
          "time": 346.83333333333115,
          "velocity": 1,
          "duration": 0.3333333333333144
        },
        {
          "name": "E4",
          "midi": 64,
          "time": 346.8374999999978,
          "velocity": 1,
          "duration": 0.908333333333303
        },
        {
          "name": "E5",
          "midi": 76,
          "time": 347.16666666666447,
          "velocity": 1,
          "duration": 0.3333333333333144
        },
        {
          "name": "E4",
          "midi": 64,
          "time": 347.16666666666447,
          "velocity": 1,
          "duration": 0.5791666666666515
        },
        {
          "name": "E5",
          "midi": 76,
          "time": 347.4999999999978,
          "velocity": 1,
          "duration": 0.5
        },
        {
          "name": "E4",
          "midi": 64,
          "time": 347.4999999999978,
          "velocity": 1,
          "duration": 0.5083333333333258
        },
        {
          "name": "E2",
          "midi": 40,
          "time": 347.7458333333311,
          "velocity": 1,
          "duration": 0.25
        },
        {
          "name": "E2",
          "midi": 40,
          "time": 347.7458333333311,
          "velocity": 1,
          "duration": 0.25
        },
        {
          "name": "E2",
          "midi": 40,
          "time": 347.9958333333311,
          "velocity": 1,
          "duration": 0.25
        },
        {
          "name": "E2",
          "midi": 40,
          "time": 347.9958333333311,
          "velocity": 1,
          "duration": 0.25
        },
        {
          "name": "E5",
          "midi": 76,
          "time": 347.9999999999978,
          "velocity": 1,
          "duration": 0.25
        },
        {
          "name": "E4",
          "midi": 64,
          "time": 348.00416666666445,
          "velocity": 1,
          "duration": 0.2666666666666515
        },
        {
          "name": "E2",
          "midi": 40,
          "time": 348.2458333333311,
          "velocity": 1,
          "duration": 0.25
        },
        {
          "name": "E2",
          "midi": 40,
          "time": 348.2458333333311,
          "velocity": 1,
          "duration": 0.25
        },
        {
          "name": "F#5",
          "midi": 78,
          "time": 348.2499999999978,
          "velocity": 1,
          "duration": 0.5
        },
        {
          "name": "F#4",
          "midi": 66,
          "time": 348.25416666666445,
          "velocity": 1,
          "duration": 0.5
        },
        {
          "name": "D4",
          "midi": 62,
          "time": 348.4958333333311,
          "velocity": 1,
          "duration": 0.5
        },
        {
          "name": "A3",
          "midi": 57,
          "time": 348.4958333333311,
          "velocity": 1,
          "duration": 0.5
        },
        {
          "name": "D3",
          "midi": 50,
          "time": 348.4958333333311,
          "velocity": 1,
          "duration": 0.5
        },
        {
          "name": "D4",
          "midi": 62,
          "time": 348.4958333333311,
          "velocity": 1,
          "duration": 0.5
        },
        {
          "name": "A3",
          "midi": 57,
          "time": 348.4958333333311,
          "velocity": 1,
          "duration": 0.5
        },
        {
          "name": "D3",
          "midi": 50,
          "time": 348.4958333333311,
          "velocity": 1,
          "duration": 0.5
        },
        {
          "name": "E4",
          "midi": 64,
          "time": 348.7374999999978,
          "velocity": 1,
          "duration": 0.24166666666667425
        },
        {
          "name": "E5",
          "midi": 76,
          "time": 348.7499999999978,
          "velocity": 1,
          "duration": 0.25
        },
        {
          "name": "E2",
          "midi": 40,
          "time": 348.9958333333311,
          "velocity": 1,
          "duration": 0.25
        },
        {
          "name": "E2",
          "midi": 40,
          "time": 348.9958333333311,
          "velocity": 1,
          "duration": 0.25
        },
        {
          "name": "E5",
          "midi": 76,
          "time": 348.9999999999978,
          "velocity": 1,
          "duration": 0.5
        },
        {
          "name": "E4",
          "midi": 64,
          "time": 348.9999999999978,
          "velocity": 1,
          "duration": 0.5124999999999886
        },
        {
          "name": "E2",
          "midi": 40,
          "time": 349.2458333333311,
          "velocity": 1,
          "duration": 0.25
        },
        {
          "name": "E2",
          "midi": 40,
          "time": 349.2458333333311,
          "velocity": 1,
          "duration": 0.25
        },
        {
          "name": "F#5",
          "midi": 78,
          "time": 349.47916666666447,
          "velocity": 0.5905511811023622,
          "duration": 0.020833333333314386
        },
        {
          "name": "F#4",
          "midi": 66,
          "time": 349.4874999999978,
          "velocity": 0.5905511811023622,
          "duration": 0.004166666666662877
        },
        {
          "name": "C3",
          "midi": 48,
          "time": 349.4958333333311,
          "velocity": 1,
          "duration": 3
        },
        {
          "name": "C4",
          "midi": 60,
          "time": 349.4958333333311,
          "velocity": 1,
          "duration": 3
        },
        {
          "name": "E4",
          "midi": 64,
          "time": 349.4958333333311,
          "velocity": 1,
          "duration": 3
        },
        {
          "name": "G3",
          "midi": 55,
          "time": 349.4958333333311,
          "velocity": 1,
          "duration": 3
        },
        {
          "name": "E4",
          "midi": 64,
          "time": 349.4958333333311,
          "velocity": 1,
          "duration": 3
        },
        {
          "name": "G3",
          "midi": 55,
          "time": 349.4958333333311,
          "velocity": 1,
          "duration": 3
        },
        {
          "name": "C3",
          "midi": 48,
          "time": 349.4958333333311,
          "velocity": 1,
          "duration": 3
        },
        {
          "name": "C4",
          "midi": 60,
          "time": 349.4958333333311,
          "velocity": 1,
          "duration": 3
        },
        {
          "name": "G5",
          "midi": 79,
          "time": 349.4999999999978,
          "velocity": 1,
          "duration": 1.5
        },
        {
          "name": "G4",
          "midi": 67,
          "time": 349.5083333333311,
          "velocity": 1,
          "duration": 1.5041666666666629
        },
        {
          "name": "E2",
          "midi": 40,
          "time": 352.4958333333311,
          "velocity": 1,
          "duration": 0.5
        },
        {
          "name": "B3",
          "midi": 59,
          "time": 352.4958333333311,
          "velocity": 1,
          "duration": 0.5
        },
        {
          "name": "E3",
          "midi": 52,
          "time": 352.4958333333311,
          "velocity": 1,
          "duration": 0.5
        },
        {
          "name": "B2",
          "midi": 47,
          "time": 352.4958333333311,
          "velocity": 1,
          "duration": 0.5
        },
        {
          "name": "E3",
          "midi": 52,
          "time": 352.4958333333311,
          "velocity": 1,
          "duration": 0.5
        },
        {
          "name": "B2",
          "midi": 47,
          "time": 352.4958333333311,
          "velocity": 1,
          "duration": 0.5
        },
        {
          "name": "B3",
          "midi": 59,
          "time": 352.4958333333311,
          "velocity": 1,
          "duration": 0.5
        },
        {
          "name": "E2",
          "midi": 40,
          "time": 352.4958333333311,
          "velocity": 1,
          "duration": 0.5
        },
        {
          "name": "E5",
          "midi": 76,
          "time": 352.4999999999978,
          "velocity": 1,
          "duration": 0.5
        },
        {
          "name": "E4",
          "midi": 64,
          "time": 352.4999999999978,
          "velocity": 1,
          "duration": 0.4833333333333485
        },
        {
          "name": "E2",
          "midi": 40,
          "time": 352.9958333333311,
          "velocity": 1,
          "duration": 0.5
        },
        {
          "name": "B2",
          "midi": 47,
          "time": 352.9958333333311,
          "velocity": 1,
          "duration": 0.5
        },
        {
          "name": "E3",
          "midi": 52,
          "time": 352.9958333333311,
          "velocity": 1,
          "duration": 0.5
        },
        {
          "name": "B3",
          "midi": 59,
          "time": 352.9958333333311,
          "velocity": 1,
          "duration": 0.5
        },
        {
          "name": "B3",
          "midi": 59,
          "time": 352.9958333333311,
          "velocity": 1,
          "duration": 0.5
        },
        {
          "name": "B2",
          "midi": 47,
          "time": 352.9958333333311,
          "velocity": 1,
          "duration": 0.5
        },
        {
          "name": "E2",
          "midi": 40,
          "time": 352.9958333333311,
          "velocity": 1,
          "duration": 0.5
        },
        {
          "name": "E3",
          "midi": 52,
          "time": 352.9958333333311,
          "velocity": 1,
          "duration": 0.5
        },
        {
          "name": "E5",
          "midi": 76,
          "time": 352.9999999999978,
          "velocity": 1,
          "duration": 0.5
        },
        {
          "name": "E4",
          "midi": 64,
          "time": 353.00416666666445,
          "velocity": 1,
          "duration": 0.4833333333333485
        },
        {
          "name": "F4",
          "midi": 65,
          "time": 354.4874999999978,
          "velocity": 1,
          "duration": 0.5208333333333144
        },
        {
          "name": "C3",
          "midi": 48,
          "time": 354.4958333333311,
          "velocity": 1,
          "duration": 0.5
        },
        {
          "name": "A3",
          "midi": 57,
          "time": 354.4958333333311,
          "velocity": 1,
          "duration": 0.5
        },
        {
          "name": "F2",
          "midi": 41,
          "time": 354.4958333333311,
          "velocity": 1,
          "duration": 0.5
        },
        {
          "name": "F3",
          "midi": 53,
          "time": 354.4958333333311,
          "velocity": 1,
          "duration": 0.5
        },
        {
          "name": "A3",
          "midi": 57,
          "time": 354.4958333333311,
          "velocity": 1,
          "duration": 0.5
        },
        {
          "name": "F2",
          "midi": 41,
          "time": 354.4958333333311,
          "velocity": 1,
          "duration": 0.5
        },
        {
          "name": "F3",
          "midi": 53,
          "time": 354.4958333333311,
          "velocity": 1,
          "duration": 0.5
        },
        {
          "name": "C3",
          "midi": 48,
          "time": 354.4958333333311,
          "velocity": 1,
          "duration": 0.5
        },
        {
          "name": "F5",
          "midi": 77,
          "time": 354.4999999999978,
          "velocity": 1,
          "duration": 0.5
        },
        {
          "name": "A3",
          "midi": 57,
          "time": 354.9958333333311,
          "velocity": 1,
          "duration": 0.5
        },
        {
          "name": "F3",
          "midi": 53,
          "time": 354.9958333333311,
          "velocity": 1,
          "duration": 0.5
        },
        {
          "name": "C3",
          "midi": 48,
          "time": 354.9958333333311,
          "velocity": 1,
          "duration": 0.5
        },
        {
          "name": "F2",
          "midi": 41,
          "time": 354.9958333333311,
          "velocity": 1,
          "duration": 0.5
        },
        {
          "name": "F3",
          "midi": 53,
          "time": 354.9958333333311,
          "velocity": 1,
          "duration": 0.5
        },
        {
          "name": "C3",
          "midi": 48,
          "time": 354.9958333333311,
          "velocity": 1,
          "duration": 0.5
        },
        {
          "name": "F2",
          "midi": 41,
          "time": 354.9958333333311,
          "velocity": 1,
          "duration": 0.5
        },
        {
          "name": "A3",
          "midi": 57,
          "time": 354.9958333333311,
          "velocity": 1,
          "duration": 0.5
        },
        {
          "name": "F#5",
          "midi": 78,
          "time": 354.9999999999978,
          "velocity": 1,
          "duration": 0.5
        },
        {
          "name": "F#4",
          "midi": 66,
          "time": 355.00416666666445,
          "velocity": 1,
          "duration": 0.48750000000001137
        },
        {
          "name": "E3",
          "midi": 52,
          "time": 356.4958333333311,
          "velocity": 1,
          "duration": 1.25
        },
        {
          "name": "B3",
          "midi": 59,
          "time": 356.4958333333311,
          "velocity": 1,
          "duration": 1.25
        },
        {
          "name": "B2",
          "midi": 47,
          "time": 356.4958333333311,
          "velocity": 1,
          "duration": 1.25
        },
        {
          "name": "E2",
          "midi": 40,
          "time": 356.4958333333311,
          "velocity": 1,
          "duration": 1.25
        },
        {
          "name": "B3",
          "midi": 59,
          "time": 356.4958333333311,
          "velocity": 1,
          "duration": 1.25
        },
        {
          "name": "B2",
          "midi": 47,
          "time": 356.4958333333311,
          "velocity": 1,
          "duration": 1.25
        },
        {
          "name": "E2",
          "midi": 40,
          "time": 356.4958333333311,
          "velocity": 1,
          "duration": 1.25
        },
        {
          "name": "E3",
          "midi": 52,
          "time": 356.4958333333311,
          "velocity": 1,
          "duration": 1.25
        },
        {
          "name": "E5",
          "midi": 76,
          "time": 356.4999999999978,
          "velocity": 1,
          "duration": 0.5
        },
        {
          "name": "E4",
          "midi": 64,
          "time": 356.5083333333311,
          "velocity": 1,
          "duration": 0.47500000000002274
        },
        {
          "name": "E4",
          "midi": 64,
          "time": 356.99166666666446,
          "velocity": 1,
          "duration": 0.26249999999998863
        },
        {
          "name": "E5",
          "midi": 76,
          "time": 356.9999999999978,
          "velocity": 1,
          "duration": 0.25
        },
        {
          "name": "E5",
          "midi": 76,
          "time": 357.2499999999978,
          "velocity": 1,
          "duration": 0.25
        },
        {
          "name": "E4",
          "midi": 64,
          "time": 357.2499999999978,
          "velocity": 1,
          "duration": 0.22916666666668561
        },
        {
          "name": "E4",
          "midi": 64,
          "time": 357.49166666666446,
          "velocity": 1,
          "duration": 0.47500000000002274
        },
        {
          "name": "E5",
          "midi": 76,
          "time": 357.4999999999978,
          "velocity": 1,
          "duration": 0.5
        },
        {
          "name": "E2",
          "midi": 40,
          "time": 357.7458333333311,
          "velocity": 1,
          "duration": 0.25
        },
        {
          "name": "E2",
          "midi": 40,
          "time": 357.7458333333311,
          "velocity": 1,
          "duration": 0.25
        },
        {
          "name": "E4",
          "midi": 64,
          "time": 357.99166666666446,
          "velocity": 1,
          "duration": 0.2249999999999659
        },
        {
          "name": "E2",
          "midi": 40,
          "time": 357.9958333333311,
          "velocity": 1,
          "duration": 0.24999999999994316
        },
        {
          "name": "E2",
          "midi": 40,
          "time": 357.9958333333311,
          "velocity": 1,
          "duration": 0.24999999999994316
        },
        {
          "name": "E5",
          "midi": 76,
          "time": 357.9999999999978,
          "velocity": 1,
          "duration": 0.24999999999994316
        },
        {
          "name": "F#4",
          "midi": 66,
          "time": 358.23749999999774,
          "velocity": 1,
          "duration": 0.49166666666667425
        },
        {
          "name": "E2",
          "midi": 40,
          "time": 358.24583333333106,
          "velocity": 1,
          "duration": 0.25
        },
        {
          "name": "E2",
          "midi": 40,
          "time": 358.24583333333106,
          "velocity": 1,
          "duration": 0.25
        },
        {
          "name": "F#5",
          "midi": 78,
          "time": 358.2499999999977,
          "velocity": 1,
          "duration": 0.5
        },
        {
          "name": "F#2",
          "midi": 42,
          "time": 358.49583333333106,
          "velocity": 1,
          "duration": 0.25
        },
        {
          "name": "F#2",
          "midi": 42,
          "time": 358.49583333333106,
          "velocity": 1,
          "duration": 0.25
        },
        {
          "name": "E2",
          "midi": 40,
          "time": 358.74583333333106,
          "velocity": 1,
          "duration": 0.25
        },
        {
          "name": "E2",
          "midi": 40,
          "time": 358.74583333333106,
          "velocity": 1,
          "duration": 0.25
        },
        {
          "name": "E5",
          "midi": 76,
          "time": 358.7499999999977,
          "velocity": 1,
          "duration": 0.25
        },
        {
          "name": "E4",
          "midi": 64,
          "time": 358.75833333333105,
          "velocity": 1,
          "duration": 0.2541666666666629
        },
        {
          "name": "E2",
          "midi": 40,
          "time": 358.99583333333106,
          "velocity": 1,
          "duration": 0.25
        },
        {
          "name": "E2",
          "midi": 40,
          "time": 358.99583333333106,
          "velocity": 1,
          "duration": 0.25
        },
        {
          "name": "E5",
          "midi": 76,
          "time": 358.9999999999977,
          "velocity": 1,
          "duration": 0.5
        },
        {
          "name": "E4",
          "midi": 64,
          "time": 359.00833333333105,
          "velocity": 1,
          "duration": 0.49166666666667425
        },
        {
          "name": "E2",
          "midi": 40,
          "time": 359.24583333333106,
          "velocity": 1,
          "duration": 0.25
        },
        {
          "name": "E2",
          "midi": 40,
          "time": 359.24583333333106,
          "velocity": 1,
          "duration": 0.25
        },
        {
          "name": "D5",
          "midi": 74,
          "time": 359.4791666666644,
          "velocity": 0.5905511811023622,
          "duration": 0.020833333333314386
        },
        {
          "name": "D4",
          "midi": 62,
          "time": 359.4833333333311,
          "velocity": 0.5905511811023622,
          "duration": 0.012499999999988631
        },
        {
          "name": "E4",
          "midi": 64,
          "time": 359.48749999999774,
          "velocity": 1,
          "duration": 1.9916666666666742
        },
        {
          "name": "C4",
          "midi": 60,
          "time": 359.49583333333106,
          "velocity": 1,
          "duration": 4
        },
        {
          "name": "E4",
          "midi": 64,
          "time": 359.49583333333106,
          "velocity": 1,
          "duration": 4
        },
        {
          "name": "G3",
          "midi": 55,
          "time": 359.49583333333106,
          "velocity": 1,
          "duration": 4
        },
        {
          "name": "C3",
          "midi": 48,
          "time": 359.49583333333106,
          "velocity": 1,
          "duration": 4
        },
        {
          "name": "E4",
          "midi": 64,
          "time": 359.49583333333106,
          "velocity": 1,
          "duration": 4
        },
        {
          "name": "G3",
          "midi": 55,
          "time": 359.49583333333106,
          "velocity": 1,
          "duration": 4
        },
        {
          "name": "C4",
          "midi": 60,
          "time": 359.49583333333106,
          "velocity": 1,
          "duration": 4
        },
        {
          "name": "C3",
          "midi": 48,
          "time": 359.49583333333106,
          "velocity": 1,
          "duration": 4
        },
        {
          "name": "E5",
          "midi": 76,
          "time": 359.4999999999977,
          "velocity": 1,
          "duration": 2
        },
        {
          "name": "E4",
          "midi": 64,
          "time": 363.4916666666644,
          "velocity": 1,
          "duration": 0.4791666666666856
        },
        {
          "name": "E3",
          "midi": 52,
          "time": 363.49583333333106,
          "velocity": 1,
          "duration": 0.5
        },
        {
          "name": "B3",
          "midi": 59,
          "time": 363.49583333333106,
          "velocity": 1,
          "duration": 0.5
        },
        {
          "name": "B2",
          "midi": 47,
          "time": 363.49583333333106,
          "velocity": 1,
          "duration": 0.5
        },
        {
          "name": "E2",
          "midi": 40,
          "time": 363.49583333333106,
          "velocity": 1,
          "duration": 0.5
        },
        {
          "name": "E2",
          "midi": 40,
          "time": 363.49583333333106,
          "velocity": 1,
          "duration": 0.5
        },
        {
          "name": "E3",
          "midi": 52,
          "time": 363.49583333333106,
          "velocity": 1,
          "duration": 0.5
        },
        {
          "name": "B3",
          "midi": 59,
          "time": 363.49583333333106,
          "velocity": 1,
          "duration": 0.5
        },
        {
          "name": "B2",
          "midi": 47,
          "time": 363.49583333333106,
          "velocity": 1,
          "duration": 0.5
        },
        {
          "name": "E5",
          "midi": 76,
          "time": 363.4999999999977,
          "velocity": 1,
          "duration": 0.5
        },
        {
          "name": "E4",
          "midi": 64,
          "time": 363.98749999999774,
          "velocity": 1,
          "duration": 0.5
        },
        {
          "name": "E2",
          "midi": 40,
          "time": 363.99583333333106,
          "velocity": 1,
          "duration": 0.5
        },
        {
          "name": "B3",
          "midi": 59,
          "time": 363.99583333333106,
          "velocity": 1,
          "duration": 0.5
        },
        {
          "name": "B2",
          "midi": 47,
          "time": 363.99583333333106,
          "velocity": 1,
          "duration": 0.5
        },
        {
          "name": "E3",
          "midi": 52,
          "time": 363.99583333333106,
          "velocity": 1,
          "duration": 0.5
        },
        {
          "name": "E2",
          "midi": 40,
          "time": 363.99583333333106,
          "velocity": 1,
          "duration": 0.5
        },
        {
          "name": "B2",
          "midi": 47,
          "time": 363.99583333333106,
          "velocity": 1,
          "duration": 0.5
        },
        {
          "name": "E3",
          "midi": 52,
          "time": 363.99583333333106,
          "velocity": 1,
          "duration": 0.5
        },
        {
          "name": "B3",
          "midi": 59,
          "time": 363.99583333333106,
          "velocity": 1,
          "duration": 0.5
        },
        {
          "name": "E5",
          "midi": 76,
          "time": 363.9999999999977,
          "velocity": 1,
          "duration": 0.5
        },
        {
          "name": "F4",
          "midi": 65,
          "time": 365.48749999999774,
          "velocity": 1,
          "duration": 0.5083333333333258
        },
        {
          "name": "F2",
          "midi": 41,
          "time": 365.49583333333106,
          "velocity": 1,
          "duration": 0.5
        },
        {
          "name": "A3",
          "midi": 57,
          "time": 365.49583333333106,
          "velocity": 1,
          "duration": 0.5
        },
        {
          "name": "F3",
          "midi": 53,
          "time": 365.49583333333106,
          "velocity": 1,
          "duration": 0.5
        },
        {
          "name": "C3",
          "midi": 48,
          "time": 365.49583333333106,
          "velocity": 1,
          "duration": 0.5
        },
        {
          "name": "F3",
          "midi": 53,
          "time": 365.49583333333106,
          "velocity": 1,
          "duration": 0.5
        },
        {
          "name": "C3",
          "midi": 48,
          "time": 365.49583333333106,
          "velocity": 1,
          "duration": 0.5
        },
        {
          "name": "F2",
          "midi": 41,
          "time": 365.49583333333106,
          "velocity": 1,
          "duration": 0.5
        },
        {
          "name": "A3",
          "midi": 57,
          "time": 365.49583333333106,
          "velocity": 1,
          "duration": 0.5
        },
        {
          "name": "F5",
          "midi": 77,
          "time": 365.4999999999977,
          "velocity": 1,
          "duration": 0.5
        },
        {
          "name": "A3",
          "midi": 57,
          "time": 365.99583333333106,
          "velocity": 1,
          "duration": 0.5
        },
        {
          "name": "F2",
          "midi": 41,
          "time": 365.99583333333106,
          "velocity": 1,
          "duration": 0.5
        },
        {
          "name": "C3",
          "midi": 48,
          "time": 365.99583333333106,
          "velocity": 1,
          "duration": 0.5
        },
        {
          "name": "F3",
          "midi": 53,
          "time": 365.99583333333106,
          "velocity": 1,
          "duration": 0.5
        },
        {
          "name": "C3",
          "midi": 48,
          "time": 365.99583333333106,
          "velocity": 1,
          "duration": 0.5
        },
        {
          "name": "F3",
          "midi": 53,
          "time": 365.99583333333106,
          "velocity": 1,
          "duration": 0.5
        },
        {
          "name": "F2",
          "midi": 41,
          "time": 365.99583333333106,
          "velocity": 1,
          "duration": 0.5
        },
        {
          "name": "A3",
          "midi": 57,
          "time": 365.99583333333106,
          "velocity": 1,
          "duration": 0.5
        },
        {
          "name": "F5",
          "midi": 77,
          "time": 365.9999999999977,
          "velocity": 1,
          "duration": 0.5
        },
        {
          "name": "F4",
          "midi": 65,
          "time": 365.9999999999977,
          "velocity": 1,
          "duration": 0.49166666666667425
        },
        {
          "name": "D#5",
          "midi": 75,
          "time": 367.4999999999977,
          "velocity": 1,
          "duration": 0.5
        },
        {
          "name": "D#4",
          "midi": 63,
          "time": 367.5041666666644,
          "velocity": 1,
          "duration": 0.5041666666666629
        },
        {
          "name": "D#5",
          "midi": 75,
          "time": 367.9999999999977,
          "velocity": 1,
          "duration": 1.5
        },
        {
          "name": "D#4",
          "midi": 63,
          "time": 367.9999999999977,
          "velocity": 1,
          "duration": 1.5166666666666515
        },
        {
          "name": "C4",
          "midi": 60,
          "time": 369.49583333333106,
          "velocity": 1,
          "duration": 0.5
        },
        {
          "name": "C5",
          "midi": 72,
          "time": 369.4999999999977,
          "velocity": 1,
          "duration": 0.5
        },
        {
          "name": "C4",
          "midi": 60,
          "time": 369.99583333333106,
          "velocity": 1,
          "duration": 1
        },
        {
          "name": "C5",
          "midi": 72,
          "time": 369.9999999999977,
          "velocity": 1,
          "duration": 1
        },
        {
          "name": "E2",
          "midi": 40,
          "time": 371.49583333333106,
          "velocity": 1,
          "duration": 0.25
        },
        {
          "name": "B2",
          "midi": 47,
          "time": 371.74583333333106,
          "velocity": 1,
          "duration": 0.25
        },
        {
          "name": "E3",
          "midi": 52,
          "time": 371.99583333333106,
          "velocity": 1,
          "duration": 0.25
        },
        {
          "name": "G3",
          "midi": 55,
          "time": 372.24583333333106,
          "velocity": 1,
          "duration": 0.25
        },
        {
          "name": "D3",
          "midi": 50,
          "time": 372.49583333333106,
          "velocity": 1,
          "duration": 0.25
        },
        {
          "name": "A3",
          "midi": 57,
          "time": 372.74583333333106,
          "velocity": 1,
          "duration": 0.25
        },
        {
          "name": "D4",
          "midi": 62,
          "time": 372.99583333333106,
          "velocity": 1,
          "duration": 0.25
        },
        {
          "name": "A3",
          "midi": 57,
          "time": 373.24583333333106,
          "velocity": 1,
          "duration": 0.25
        },
        {
          "name": "E4",
          "midi": 64,
          "time": 373.49583333333106,
          "velocity": 1,
          "duration": 0.08333333333331439
        },
        {
          "name": "F#4",
          "midi": 66,
          "time": 373.5791666666644,
          "velocity": 1,
          "duration": 0.08333333333331439
        },
        {
          "name": "E4",
          "midi": 64,
          "time": 373.6624999999977,
          "velocity": 1,
          "duration": 0.08333333333331439
        },
        {
          "name": "D4",
          "midi": 62,
          "time": 373.745833333331,
          "velocity": 1,
          "duration": 0.25
        },
        {
          "name": "A3",
          "midi": 57,
          "time": 373.995833333331,
          "velocity": 1,
          "duration": 0.25
        },
        {
          "name": "G3",
          "midi": 55,
          "time": 374.245833333331,
          "velocity": 1,
          "duration": 0.5
        },
        {
          "name": "G4",
          "midi": 67,
          "time": 374.245833333331,
          "velocity": 1,
          "duration": 0.25
        },
        {
          "name": "C3",
          "midi": 48,
          "time": 374.495833333331,
          "velocity": 1,
          "duration": 0.25
        },
        {
          "name": "G3",
          "midi": 55,
          "time": 374.745833333331,
          "velocity": 1,
          "duration": 0.25
        },
        {
          "name": "D4",
          "midi": 62,
          "time": 374.995833333331,
          "velocity": 1,
          "duration": 0.25
        },
        {
          "name": "G3",
          "midi": 55,
          "time": 375.245833333331,
          "velocity": 1,
          "duration": 0.25
        },
        {
          "name": "D4",
          "midi": 62,
          "time": 375.495833333331,
          "velocity": 1,
          "duration": 0.25
        },
        {
          "name": "G3",
          "midi": 55,
          "time": 375.745833333331,
          "velocity": 1,
          "duration": 0.25
        },
        {
          "name": "E3",
          "midi": 52,
          "time": 375.995833333331,
          "velocity": 1,
          "duration": 0.25
        },
        {
          "name": "B3",
          "midi": 59,
          "time": 376.245833333331,
          "velocity": 1,
          "duration": 0.5
        },
        {
          "name": "A2",
          "midi": 45,
          "time": 376.495833333331,
          "velocity": 1,
          "duration": 0.75
        },
        {
          "name": "A3",
          "midi": 57,
          "time": 376.745833333331,
          "velocity": 1,
          "duration": 0.25
        },
        {
          "name": "B3",
          "midi": 59,
          "time": 376.995833333331,
          "velocity": 1,
          "duration": 0.75
        },
        {
          "name": "A2",
          "midi": 45,
          "time": 377.245833333331,
          "velocity": 1,
          "duration": 0.25
        },
        {
          "name": "B2",
          "midi": 47,
          "time": 377.495833333331,
          "velocity": 1,
          "duration": 0.75
        },
        {
          "name": "A3",
          "midi": 57,
          "time": 377.745833333331,
          "velocity": 1,
          "duration": 0.25
        },
        {
          "name": "B3",
          "midi": 59,
          "time": 377.995833333331,
          "velocity": 1,
          "duration": 0.75
        },
        {
          "name": "B2",
          "midi": 47,
          "time": 378.245833333331,
          "velocity": 1,
          "duration": 0.25
        },
        {
          "name": "D#3",
          "midi": 51,
          "time": 378.495833333331,
          "velocity": 1,
          "duration": 0.75
        },
        {
          "name": "A3",
          "midi": 57,
          "time": 378.745833333331,
          "velocity": 1,
          "duration": 0.25
        },
        {
          "name": "B3",
          "midi": 59,
          "time": 378.995833333331,
          "velocity": 1,
          "duration": 0.5
        },
        {
          "name": "G2",
          "midi": 43,
          "time": 379.245833333331,
          "velocity": 1,
          "duration": 0.25
        },
        {
          "name": "E2",
          "midi": 40,
          "time": 379.495833333331,
          "velocity": 1,
          "duration": 0.25
        },
        {
          "name": "E3",
          "midi": 52,
          "time": 379.495833333331,
          "velocity": 1,
          "duration": 0.75
        },
        {
          "name": "B2",
          "midi": 47,
          "time": 379.745833333331,
          "velocity": 1,
          "duration": 0.25
        },
        {
          "name": "E3",
          "midi": 52,
          "time": 379.995833333331,
          "velocity": 1,
          "duration": 0.5
        },
        {
          "name": "G3",
          "midi": 55,
          "time": 380.245833333331,
          "velocity": 1,
          "duration": 0.25
        },
        {
          "name": "D3",
          "midi": 50,
          "time": 380.495833333331,
          "velocity": 1,
          "duration": 0.25
        },
        {
          "name": "F#3",
          "midi": 54,
          "time": 380.495833333331,
          "velocity": 1,
          "duration": 1.9999999999999432
        },
        {
          "name": "A3",
          "midi": 57,
          "time": 380.745833333331,
          "velocity": 1,
          "duration": 0.25
        },
        {
          "name": "D4",
          "midi": 62,
          "time": 380.995833333331,
          "velocity": 1,
          "duration": 0.25
        },
        {
          "name": "A3",
          "midi": 57,
          "time": 381.245833333331,
          "velocity": 1,
          "duration": 0.25
        },
        {
          "name": "E4",
          "midi": 64,
          "time": 381.495833333331,
          "velocity": 1,
          "duration": 0.08333333333331439
        },
        {
          "name": "F#4",
          "midi": 66,
          "time": 381.5791666666643,
          "velocity": 1,
          "duration": 0.08333333333331439
        },
        {
          "name": "E4",
          "midi": 64,
          "time": 381.66249999999764,
          "velocity": 1,
          "duration": 0.08333333333331439
        },
        {
          "name": "D4",
          "midi": 62,
          "time": 381.74583333333095,
          "velocity": 1,
          "duration": 0.25
        },
        {
          "name": "A3",
          "midi": 57,
          "time": 381.99583333333095,
          "velocity": 1,
          "duration": 0.25
        },
        {
          "name": "G3",
          "midi": 55,
          "time": 382.24583333333095,
          "velocity": 1,
          "duration": 0.5
        },
        {
          "name": "G4",
          "midi": 67,
          "time": 382.24583333333095,
          "velocity": 1,
          "duration": 0.25
        },
        {
          "name": "C3",
          "midi": 48,
          "time": 382.49583333333095,
          "velocity": 1,
          "duration": 0.25
        },
        {
          "name": "G3",
          "midi": 55,
          "time": 382.49583333333095,
          "velocity": 1,
          "duration": 0.5
        },
        {
          "name": "G3",
          "midi": 55,
          "time": 382.74583333333095,
          "velocity": 1,
          "duration": 0.75
        },
        {
          "name": "D4",
          "midi": 62,
          "time": 382.99583333333095,
          "velocity": 1,
          "duration": 0.25
        },
        {
          "name": "G3",
          "midi": 55,
          "time": 383.24583333333095,
          "velocity": 1,
          "duration": 0.75
        },
        {
          "name": "D4",
          "midi": 62,
          "time": 383.49583333333095,
          "velocity": 1,
          "duration": 0.25
        },
        {
          "name": "G3",
          "midi": 55,
          "time": 383.74583333333095,
          "velocity": 1,
          "duration": 0.75
        },
        {
          "name": "E3",
          "midi": 52,
          "time": 383.99583333333095,
          "velocity": 1,
          "duration": 0.25
        },
        {
          "name": "B3",
          "midi": 59,
          "time": 384.24583333333095,
          "velocity": 1,
          "duration": 0.5
        },
        {
          "name": "A2",
          "midi": 45,
          "time": 384.49583333333095,
          "velocity": 1,
          "duration": 0.75
        },
        {
          "name": "A3",
          "midi": 57,
          "time": 384.49583333333095,
          "velocity": 1,
          "duration": 0.5
        },
        {
          "name": "A3",
          "midi": 57,
          "time": 384.74583333333095,
          "velocity": 1,
          "duration": 0.75
        },
        {
          "name": "B3",
          "midi": 59,
          "time": 384.99583333333095,
          "velocity": 1,
          "duration": 0.75
        },
        {
          "name": "A2",
          "midi": 45,
          "time": 385.24583333333095,
          "velocity": 1,
          "duration": 0.25
        },
        {
          "name": "B2",
          "midi": 47,
          "time": 385.49583333333095,
          "velocity": 1,
          "duration": 0.75
        },
        {
          "name": "B3",
          "midi": 59,
          "time": 385.49583333333095,
          "velocity": 1,
          "duration": 1
        },
        {
          "name": "A3",
          "midi": 57,
          "time": 385.74583333333095,
          "velocity": 1,
          "duration": 0.25
        },
        {
          "name": "B3",
          "midi": 59,
          "time": 385.99583333333095,
          "velocity": 1,
          "duration": 0.75
        },
        {
          "name": "B2",
          "midi": 47,
          "time": 386.24583333333095,
          "velocity": 1,
          "duration": 0.25
        },
        {
          "name": "D#3",
          "midi": 51,
          "time": 386.49583333333095,
          "velocity": 1,
          "duration": 0.75
        },
        {
          "name": "D#4",
          "midi": 63,
          "time": 386.49583333333095,
          "velocity": 1,
          "duration": 1
        },
        {
          "name": "A3",
          "midi": 57,
          "time": 386.74583333333095,
          "velocity": 1,
          "duration": 0.25
        },
        {
          "name": "B3",
          "midi": 59,
          "time": 386.99583333333095,
          "velocity": 1,
          "duration": 0.5
        },
        {
          "name": "G2",
          "midi": 43,
          "time": 387.24583333333095,
          "velocity": 1,
          "duration": 0.25
        },
        {
          "name": "E2",
          "midi": 40,
          "time": 387.49583333333095,
          "velocity": 1,
          "duration": 0.25
        },
        {
          "name": "G4",
          "midi": 67,
          "time": 387.49583333333095,
          "velocity": 1,
          "duration": 0.25
        },
        {
          "name": "E4",
          "midi": 64,
          "time": 387.49583333333095,
          "velocity": 1,
          "duration": 0.25
        },
        {
          "name": "B2",
          "midi": 47,
          "time": 387.74583333333095,
          "velocity": 1,
          "duration": 0.25
        },
        {
          "name": "D5",
          "midi": 74,
          "time": 387.74583333333095,
          "velocity": 1,
          "duration": 0.25
        },
        {
          "name": "B4",
          "midi": 71,
          "time": 387.74583333333095,
          "velocity": 1,
          "duration": 0.25
        },
        {
          "name": "E3",
          "midi": 52,
          "time": 387.99583333333095,
          "velocity": 1,
          "duration": 0.25
        },
        {
          "name": "B4",
          "midi": 71,
          "time": 387.99583333333095,
          "velocity": 1,
          "duration": 0.25
        },
        {
          "name": "G4",
          "midi": 67,
          "time": 387.99583333333095,
          "velocity": 1,
          "duration": 0.25
        },
        {
          "name": "G3",
          "midi": 55,
          "time": 388.24583333333095,
          "velocity": 1,
          "duration": 0.25
        },
        {
          "name": "G4",
          "midi": 67,
          "time": 388.24583333333095,
          "velocity": 1,
          "duration": 0.25
        },
        {
          "name": "E4",
          "midi": 64,
          "time": 388.24583333333095,
          "velocity": 1,
          "duration": 0.25
        },
        {
          "name": "D3",
          "midi": 50,
          "time": 388.49583333333095,
          "velocity": 1,
          "duration": 0.25
        },
        {
          "name": "C5",
          "midi": 72,
          "time": 388.49583333333095,
          "velocity": 1,
          "duration": 0.25
        },
        {
          "name": "A4",
          "midi": 69,
          "time": 388.49583333333095,
          "velocity": 1,
          "duration": 0.25
        },
        {
          "name": "A3",
          "midi": 57,
          "time": 388.74583333333095,
          "velocity": 1,
          "duration": 0.25
        },
        {
          "name": "A4",
          "midi": 69,
          "time": 388.74583333333095,
          "velocity": 1,
          "duration": 0.25
        },
        {
          "name": "F#4",
          "midi": 66,
          "time": 388.74583333333095,
          "velocity": 1,
          "duration": 0.25
        },
        {
          "name": "D4",
          "midi": 62,
          "time": 388.99583333333095,
          "velocity": 1,
          "duration": 0.25
        },
        {
          "name": "F#4",
          "midi": 66,
          "time": 388.99583333333095,
          "velocity": 1,
          "duration": 0.25
        },
        {
          "name": "D4",
          "midi": 62,
          "time": 388.99583333333095,
          "velocity": 1,
          "duration": 0.25
        },
        {
          "name": "A3",
          "midi": 57,
          "time": 389.24583333333095,
          "velocity": 1,
          "duration": 0.25
        },
        {
          "name": "F#4",
          "midi": 66,
          "time": 389.24583333333095,
          "velocity": 1,
          "duration": 0.125
        },
        {
          "name": "D4",
          "midi": 62,
          "time": 389.24583333333095,
          "velocity": 1,
          "duration": 0.125
        },
        {
          "name": "F#4",
          "midi": 66,
          "time": 389.37083333333095,
          "velocity": 1,
          "duration": 0.125
        },
        {
          "name": "D4",
          "midi": 62,
          "time": 389.37083333333095,
          "velocity": 1,
          "duration": 0.125
        },
        {
          "name": "E4",
          "midi": 64,
          "time": 389.49583333333095,
          "velocity": 1,
          "duration": 0.08333333333331439
        },
        {
          "name": "F#4",
          "midi": 66,
          "time": 389.49583333333095,
          "velocity": 1,
          "duration": 0.16666666666662877
        },
        {
          "name": "D4",
          "midi": 62,
          "time": 389.49583333333095,
          "velocity": 1,
          "duration": 0.24999999999994316
        },
        {
          "name": "F#4",
          "midi": 66,
          "time": 389.57916666666426,
          "velocity": 1,
          "duration": 0.16666666666662877
        },
        {
          "name": "E4",
          "midi": 64,
          "time": 389.6624999999976,
          "velocity": 1,
          "duration": 0.08333333333331439
        },
        {
          "name": "D4",
          "midi": 62,
          "time": 389.7458333333309,
          "velocity": 1,
          "duration": 0.25
        },
        {
          "name": "C5",
          "midi": 72,
          "time": 389.7458333333309,
          "velocity": 1,
          "duration": 0.25
        },
        {
          "name": "A4",
          "midi": 69,
          "time": 389.7458333333309,
          "velocity": 1,
          "duration": 0.25
        },
        {
          "name": "A3",
          "midi": 57,
          "time": 389.9958333333309,
          "velocity": 1,
          "duration": 0.25
        },
        {
          "name": "A4",
          "midi": 69,
          "time": 389.9958333333309,
          "velocity": 1,
          "duration": 0.25
        },
        {
          "name": "F#4",
          "midi": 66,
          "time": 389.9958333333309,
          "velocity": 1,
          "duration": 0.25
        },
        {
          "name": "G3",
          "midi": 55,
          "time": 390.2458333333309,
          "velocity": 1,
          "duration": 0.5
        },
        {
          "name": "G4",
          "midi": 67,
          "time": 390.2458333333309,
          "velocity": 1,
          "duration": 0.25
        },
        {
          "name": "F#4",
          "midi": 66,
          "time": 390.2458333333309,
          "velocity": 1,
          "duration": 0.25
        },
        {
          "name": "D4",
          "midi": 62,
          "time": 390.2458333333309,
          "velocity": 1,
          "duration": 0.25
        },
        {
          "name": "C3",
          "midi": 48,
          "time": 390.4958333333309,
          "velocity": 1,
          "duration": 0.25
        },
        {
          "name": "B4",
          "midi": 71,
          "time": 390.4958333333309,
          "velocity": 1,
          "duration": 0.25
        },
        {
          "name": "G4",
          "midi": 67,
          "time": 390.4958333333309,
          "velocity": 1,
          "duration": 0.25
        },
        {
          "name": "G3",
          "midi": 55,
          "time": 390.7458333333309,
          "velocity": 1,
          "duration": 0.25
        },
        {
          "name": "G4",
          "midi": 67,
          "time": 390.7458333333309,
          "velocity": 1,
          "duration": 0.25
        },
        {
          "name": "E4",
          "midi": 64,
          "time": 390.7458333333309,
          "velocity": 1,
          "duration": 0.25
        },
        {
          "name": "D4",
          "midi": 62,
          "time": 390.9958333333309,
          "velocity": 1,
          "duration": 0.25
        },
        {
          "name": "E4",
          "midi": 64,
          "time": 390.9958333333309,
          "velocity": 1,
          "duration": 0.25
        },
        {
          "name": "C4",
          "midi": 60,
          "time": 390.9958333333309,
          "velocity": 1,
          "duration": 0.25
        },
        {
          "name": "G3",
          "midi": 55,
          "time": 391.2458333333309,
          "velocity": 1,
          "duration": 0.25
        },
        {
          "name": "E4",
          "midi": 64,
          "time": 391.2458333333309,
          "velocity": 1,
          "duration": 0.125
        },
        {
          "name": "C4",
          "midi": 60,
          "time": 391.2458333333309,
          "velocity": 1,
          "duration": 0.125
        },
        {
          "name": "E4",
          "midi": 64,
          "time": 391.3708333333309,
          "velocity": 1,
          "duration": 0.125
        },
        {
          "name": "C4",
          "midi": 60,
          "time": 391.3708333333309,
          "velocity": 1,
          "duration": 0.125
        },
        {
          "name": "D4",
          "midi": 62,
          "time": 391.4958333333309,
          "velocity": 1,
          "duration": 0.25
        },
        {
          "name": "E4",
          "midi": 64,
          "time": 391.4958333333309,
          "velocity": 1,
          "duration": 0.25
        },
        {
          "name": "C4",
          "midi": 60,
          "time": 391.4958333333309,
          "velocity": 1,
          "duration": 0.25
        },
        {
          "name": "G3",
          "midi": 55,
          "time": 391.7458333333309,
          "velocity": 1,
          "duration": 0.25
        },
        {
          "name": "B4",
          "midi": 71,
          "time": 391.7458333333309,
          "velocity": 1,
          "duration": 0.25
        },
        {
          "name": "G4",
          "midi": 67,
          "time": 391.7458333333309,
          "velocity": 1,
          "duration": 0.25
        },
        {
          "name": "E3",
          "midi": 52,
          "time": 391.9958333333309,
          "velocity": 1,
          "duration": 0.25
        },
        {
          "name": "G4",
          "midi": 67,
          "time": 391.9958333333309,
          "velocity": 1,
          "duration": 0.25
        },
        {
          "name": "E4",
          "midi": 64,
          "time": 391.9958333333309,
          "velocity": 1,
          "duration": 0.25
        },
        {
          "name": "B3",
          "midi": 59,
          "time": 392.2458333333309,
          "velocity": 1,
          "duration": 0.5
        },
        {
          "name": "E4",
          "midi": 64,
          "time": 392.2458333333309,
          "velocity": 1,
          "duration": 0.25
        },
        {
          "name": "C4",
          "midi": 60,
          "time": 392.2458333333309,
          "velocity": 1,
          "duration": 0.25
        },
        {
          "name": "A2",
          "midi": 45,
          "time": 392.4958333333309,
          "velocity": 1,
          "duration": 0.7499999999999432
        },
        {
          "name": "A4",
          "midi": 69,
          "time": 392.4958333333309,
          "velocity": 1,
          "duration": 0.25
        },
        {
          "name": "F#4",
          "midi": 66,
          "time": 392.4958333333309,
          "velocity": 1,
          "duration": 0.25
        },
        {
          "name": "A3",
          "midi": 57,
          "time": 392.7458333333309,
          "velocity": 1,
          "duration": 0.24999999999994316
        },
        {
          "name": "G4",
          "midi": 67,
          "time": 392.7458333333309,
          "velocity": 1,
          "duration": 0.08333333333331439
        },
        {
          "name": "E4",
          "midi": 64,
          "time": 392.7458333333309,
          "velocity": 1,
          "duration": 0.08333333333331439
        },
        {
          "name": "A4",
          "midi": 69,
          "time": 392.8291666666642,
          "velocity": 1,
          "duration": 0.08333333333331439
        },
        {
          "name": "F#4",
          "midi": 66,
          "time": 392.8291666666642,
          "velocity": 1,
          "duration": 0.08333333333331439
        },
        {
          "name": "G4",
          "midi": 67,
          "time": 392.9124999999975,
          "velocity": 1,
          "duration": 0.08333333333331439
        },
        {
          "name": "E4",
          "midi": 64,
          "time": 392.9124999999975,
          "velocity": 1,
          "duration": 0.08333333333331439
        },
        {
          "name": "B3",
          "midi": 59,
          "time": 392.99583333333084,
          "velocity": 1,
          "duration": 0.75
        },
        {
          "name": "F#4",
          "midi": 66,
          "time": 392.99583333333084,
          "velocity": 1,
          "duration": 0.25
        },
        {
          "name": "D#4",
          "midi": 63,
          "time": 392.99583333333084,
          "velocity": 1,
          "duration": 0.25
        },
        {
          "name": "A2",
          "midi": 45,
          "time": 393.24583333333084,
          "velocity": 1,
          "duration": 0.25
        },
        {
          "name": "E4",
          "midi": 64,
          "time": 393.24583333333084,
          "velocity": 1,
          "duration": 0.25
        },
        {
          "name": "C4",
          "midi": 60,
          "time": 393.24583333333084,
          "velocity": 1,
          "duration": 0.25
        },
        {
          "name": "B2",
          "midi": 47,
          "time": 393.49583333333084,
          "velocity": 1,
          "duration": 0.75
        },
        {
          "name": "D#4",
          "midi": 63,
          "time": 393.49583333333084,
          "velocity": 1,
          "duration": 0.25
        },
        {
          "name": "B3",
          "midi": 59,
          "time": 393.49583333333084,
          "velocity": 1,
          "duration": 0.25
        },
        {
          "name": "A3",
          "midi": 57,
          "time": 393.74583333333084,
          "velocity": 1,
          "duration": 0.25
        },
        {
          "name": "E4",
          "midi": 64,
          "time": 393.74583333333084,
          "velocity": 1,
          "duration": 0.25
        },
        {
          "name": "C4",
          "midi": 60,
          "time": 393.74583333333084,
          "velocity": 1,
          "duration": 0.25
        },
        {
          "name": "B3",
          "midi": 59,
          "time": 393.99583333333084,
          "velocity": 1,
          "duration": 0.75
        },
        {
          "name": "F#4",
          "midi": 66,
          "time": 393.99583333333084,
          "velocity": 1,
          "duration": 0.25
        },
        {
          "name": "D4",
          "midi": 62,
          "time": 393.99583333333084,
          "velocity": 1,
          "duration": 0.25
        },
        {
          "name": "B2",
          "midi": 47,
          "time": 394.24583333333084,
          "velocity": 1,
          "duration": 0.25
        },
        {
          "name": "E4",
          "midi": 64,
          "time": 394.24583333333084,
          "velocity": 1,
          "duration": 0.25
        },
        {
          "name": "C4",
          "midi": 60,
          "time": 394.24583333333084,
          "velocity": 1,
          "duration": 0.25
        },
        {
          "name": "D#3",
          "midi": 51,
          "time": 394.49583333333084,
          "velocity": 1,
          "duration": 0.75
        },
        {
          "name": "F#4",
          "midi": 66,
          "time": 394.49583333333084,
          "velocity": 1,
          "duration": 0.25
        },
        {
          "name": "D#4",
          "midi": 63,
          "time": 394.49583333333084,
          "velocity": 1,
          "duration": 0.25
        },
        {
          "name": "A3",
          "midi": 57,
          "time": 394.74583333333084,
          "velocity": 1,
          "duration": 0.25
        },
        {
          "name": "G4",
          "midi": 67,
          "time": 394.74583333333084,
          "velocity": 1,
          "duration": 0.25
        },
        {
          "name": "E4",
          "midi": 64,
          "time": 394.74583333333084,
          "velocity": 1,
          "duration": 0.25
        },
        {
          "name": "B3",
          "midi": 59,
          "time": 394.99583333333084,
          "velocity": 1,
          "duration": 0.5
        },
        {
          "name": "A4",
          "midi": 69,
          "time": 394.99583333333084,
          "velocity": 1,
          "duration": 0.25
        },
        {
          "name": "F#4",
          "midi": 66,
          "time": 394.99583333333084,
          "velocity": 1,
          "duration": 0.25
        },
        {
          "name": "G2",
          "midi": 43,
          "time": 395.24583333333084,
          "velocity": 1,
          "duration": 0.25
        },
        {
          "name": "B4",
          "midi": 71,
          "time": 395.24583333333084,
          "velocity": 1,
          "duration": 0.25
        },
        {
          "name": "G4",
          "midi": 67,
          "time": 395.24583333333084,
          "velocity": 1,
          "duration": 0.25
        },
        {
          "name": "E2",
          "midi": 40,
          "time": 395.49583333333084,
          "velocity": 1,
          "duration": 0.25
        },
        {
          "name": "G4",
          "midi": 67,
          "time": 395.49583333333084,
          "velocity": 1,
          "duration": 0.25
        },
        {
          "name": "E4",
          "midi": 64,
          "time": 395.49583333333084,
          "velocity": 1,
          "duration": 0.25
        },
        {
          "name": "E2",
          "midi": 40,
          "time": 395.4999999999975,
          "velocity": 1,
          "duration": 0.25
        },
        {
          "name": "B2",
          "midi": 47,
          "time": 395.74583333333084,
          "velocity": 1,
          "duration": 0.25
        },
        {
          "name": "D5",
          "midi": 74,
          "time": 395.74583333333084,
          "velocity": 1,
          "duration": 0.25
        },
        {
          "name": "B4",
          "midi": 71,
          "time": 395.74583333333084,
          "velocity": 1,
          "duration": 0.25
        },
        {
          "name": "B2",
          "midi": 47,
          "time": 395.7499999999975,
          "velocity": 1,
          "duration": 0.25
        },
        {
          "name": "E3",
          "midi": 52,
          "time": 395.99583333333084,
          "velocity": 1,
          "duration": 0.25
        },
        {
          "name": "B4",
          "midi": 71,
          "time": 395.99583333333084,
          "velocity": 1,
          "duration": 0.25
        },
        {
          "name": "G4",
          "midi": 67,
          "time": 395.99583333333084,
          "velocity": 1,
          "duration": 0.25
        },
        {
          "name": "E3",
          "midi": 52,
          "time": 395.9999999999975,
          "velocity": 1,
          "duration": 0.25
        },
        {
          "name": "G3",
          "midi": 55,
          "time": 396.24583333333084,
          "velocity": 1,
          "duration": 0.25
        },
        {
          "name": "G4",
          "midi": 67,
          "time": 396.24583333333084,
          "velocity": 1,
          "duration": 0.25
        },
        {
          "name": "E4",
          "midi": 64,
          "time": 396.24583333333084,
          "velocity": 1,
          "duration": 0.25
        },
        {
          "name": "G3",
          "midi": 55,
          "time": 396.2499999999975,
          "velocity": 1,
          "duration": 0.25
        },
        {
          "name": "D3",
          "midi": 50,
          "time": 396.49583333333084,
          "velocity": 1,
          "duration": 0.25
        },
        {
          "name": "C5",
          "midi": 72,
          "time": 396.49583333333084,
          "velocity": 1,
          "duration": 0.25
        },
        {
          "name": "A4",
          "midi": 69,
          "time": 396.49583333333084,
          "velocity": 1,
          "duration": 0.25
        },
        {
          "name": "D3",
          "midi": 50,
          "time": 396.4999999999975,
          "velocity": 1,
          "duration": 0.25
        },
        {
          "name": "A3",
          "midi": 57,
          "time": 396.74583333333084,
          "velocity": 1,
          "duration": 0.25
        },
        {
          "name": "A4",
          "midi": 69,
          "time": 396.74583333333084,
          "velocity": 1,
          "duration": 0.25
        },
        {
          "name": "F#4",
          "midi": 66,
          "time": 396.74583333333084,
          "velocity": 1,
          "duration": 0.25
        },
        {
          "name": "A3",
          "midi": 57,
          "time": 396.7499999999975,
          "velocity": 1,
          "duration": 0.25
        },
        {
          "name": "D4",
          "midi": 62,
          "time": 396.99583333333084,
          "velocity": 1,
          "duration": 0.25
        },
        {
          "name": "F#4",
          "midi": 66,
          "time": 396.99583333333084,
          "velocity": 1,
          "duration": 0.25
        },
        {
          "name": "D4",
          "midi": 62,
          "time": 396.99583333333084,
          "velocity": 1,
          "duration": 0.25
        },
        {
          "name": "D4",
          "midi": 62,
          "time": 396.9999999999975,
          "velocity": 1,
          "duration": 0.25
        },
        {
          "name": "A3",
          "midi": 57,
          "time": 397.24583333333084,
          "velocity": 1,
          "duration": 0.25
        },
        {
          "name": "F#4",
          "midi": 66,
          "time": 397.24583333333084,
          "velocity": 1,
          "duration": 0.125
        },
        {
          "name": "D4",
          "midi": 62,
          "time": 397.24583333333084,
          "velocity": 1,
          "duration": 0.125
        },
        {
          "name": "A3",
          "midi": 57,
          "time": 397.2499999999975,
          "velocity": 1,
          "duration": 0.25
        },
        {
          "name": "F#4",
          "midi": 66,
          "time": 397.37083333333084,
          "velocity": 1,
          "duration": 0.125
        },
        {
          "name": "D4",
          "midi": 62,
          "time": 397.37083333333084,
          "velocity": 1,
          "duration": 0.125
        },
        {
          "name": "E4",
          "midi": 64,
          "time": 397.49583333333084,
          "velocity": 1,
          "duration": 0.08333333333331439
        },
        {
          "name": "F#4",
          "midi": 66,
          "time": 397.49583333333084,
          "velocity": 1,
          "duration": 0.16666666666662877
        },
        {
          "name": "D4",
          "midi": 62,
          "time": 397.49583333333084,
          "velocity": 1,
          "duration": 0.24999999999994316
        },
        {
          "name": "E4",
          "midi": 64,
          "time": 397.4999999999975,
          "velocity": 1,
          "duration": 0.08333333333331439
        },
        {
          "name": "F#4",
          "midi": 66,
          "time": 397.57916666666415,
          "velocity": 1,
          "duration": 0.08749999999997726
        },
        {
          "name": "F#4",
          "midi": 66,
          "time": 397.5833333333308,
          "velocity": 1,
          "duration": 0.1624999999999659
        },
        {
          "name": "E4",
          "midi": 64,
          "time": 397.66249999999746,
          "velocity": 1,
          "duration": 0.08333333333331439
        },
        {
          "name": "E4",
          "midi": 64,
          "time": 397.6666666666641,
          "velocity": 1,
          "duration": 0.08333333333331439
        },
        {
          "name": "D4",
          "midi": 62,
          "time": 397.7458333333308,
          "velocity": 1,
          "duration": 0.25
        },
        {
          "name": "C5",
          "midi": 72,
          "time": 397.7458333333308,
          "velocity": 1,
          "duration": 0.25
        },
        {
          "name": "A4",
          "midi": 69,
          "time": 397.7458333333308,
          "velocity": 1,
          "duration": 0.25
        },
        {
          "name": "D4",
          "midi": 62,
          "time": 397.74999999999744,
          "velocity": 1,
          "duration": 0.25
        },
        {
          "name": "A3",
          "midi": 57,
          "time": 397.9958333333308,
          "velocity": 1,
          "duration": 0.25
        },
        {
          "name": "A4",
          "midi": 69,
          "time": 397.9958333333308,
          "velocity": 1,
          "duration": 0.25
        },
        {
          "name": "F#4",
          "midi": 66,
          "time": 397.9958333333308,
          "velocity": 1,
          "duration": 0.25
        },
        {
          "name": "A3",
          "midi": 57,
          "time": 397.99999999999744,
          "velocity": 1,
          "duration": 0.25
        },
        {
          "name": "G4",
          "midi": 67,
          "time": 398.2458333333308,
          "velocity": 1,
          "duration": 0.25
        },
        {
          "name": "G3",
          "midi": 55,
          "time": 398.2458333333308,
          "velocity": 1,
          "duration": 0.5
        },
        {
          "name": "F#4",
          "midi": 66,
          "time": 398.2458333333308,
          "velocity": 1,
          "duration": 0.25
        },
        {
          "name": "D4",
          "midi": 62,
          "time": 398.2458333333308,
          "velocity": 1,
          "duration": 0.25
        },
        {
          "name": "G3",
          "midi": 55,
          "time": 398.24999999999744,
          "velocity": 1,
          "duration": 0.5
        },
        {
          "name": "G4",
          "midi": 67,
          "time": 398.24999999999744,
          "velocity": 1,
          "duration": 0.25
        },
        {
          "name": "C3",
          "midi": 48,
          "time": 398.4958333333308,
          "velocity": 1,
          "duration": 0.25
        },
        {
          "name": "B4",
          "midi": 71,
          "time": 398.4958333333308,
          "velocity": 1,
          "duration": 0.25
        },
        {
          "name": "G4",
          "midi": 67,
          "time": 398.4958333333308,
          "velocity": 1,
          "duration": 0.25
        },
        {
          "name": "C3",
          "midi": 48,
          "time": 398.49999999999744,
          "velocity": 1,
          "duration": 0.25
        },
        {
          "name": "G3",
          "midi": 55,
          "time": 398.7458333333308,
          "velocity": 1,
          "duration": 0.25
        },
        {
          "name": "G4",
          "midi": 67,
          "time": 398.7458333333308,
          "velocity": 1,
          "duration": 0.25
        },
        {
          "name": "E4",
          "midi": 64,
          "time": 398.7458333333308,
          "velocity": 1,
          "duration": 0.25
        },
        {
          "name": "G3",
          "midi": 55,
          "time": 398.74999999999744,
          "velocity": 1,
          "duration": 0.25
        },
        {
          "name": "D4",
          "midi": 62,
          "time": 398.9958333333308,
          "velocity": 1,
          "duration": 0.25
        },
        {
          "name": "E4",
          "midi": 64,
          "time": 398.9958333333308,
          "velocity": 1,
          "duration": 0.25
        },
        {
          "name": "C4",
          "midi": 60,
          "time": 398.9958333333308,
          "velocity": 1,
          "duration": 0.25
        },
        {
          "name": "D4",
          "midi": 62,
          "time": 398.99999999999744,
          "velocity": 1,
          "duration": 0.25
        },
        {
          "name": "G3",
          "midi": 55,
          "time": 399.2458333333308,
          "velocity": 1,
          "duration": 0.25
        },
        {
          "name": "E4",
          "midi": 64,
          "time": 399.2458333333308,
          "velocity": 1,
          "duration": 0.125
        },
        {
          "name": "C4",
          "midi": 60,
          "time": 399.2458333333308,
          "velocity": 1,
          "duration": 0.125
        },
        {
          "name": "G3",
          "midi": 55,
          "time": 399.24999999999744,
          "velocity": 1,
          "duration": 0.25
        },
        {
          "name": "E4",
          "midi": 64,
          "time": 399.3708333333308,
          "velocity": 1,
          "duration": 0.125
        },
        {
          "name": "C4",
          "midi": 60,
          "time": 399.3708333333308,
          "velocity": 1,
          "duration": 0.125
        },
        {
          "name": "D4",
          "midi": 62,
          "time": 399.4958333333308,
          "velocity": 1,
          "duration": 0.25
        },
        {
          "name": "E4",
          "midi": 64,
          "time": 399.4958333333308,
          "velocity": 1,
          "duration": 0.25
        },
        {
          "name": "C4",
          "midi": 60,
          "time": 399.4958333333308,
          "velocity": 1,
          "duration": 0.25
        },
        {
          "name": "D4",
          "midi": 62,
          "time": 399.49999999999744,
          "velocity": 1,
          "duration": 0.25
        },
        {
          "name": "G3",
          "midi": 55,
          "time": 399.7458333333308,
          "velocity": 1,
          "duration": 0.25
        },
        {
          "name": "B4",
          "midi": 71,
          "time": 399.7458333333308,
          "velocity": 1,
          "duration": 0.25
        },
        {
          "name": "G4",
          "midi": 67,
          "time": 399.7458333333308,
          "velocity": 1,
          "duration": 0.25
        },
        {
          "name": "G3",
          "midi": 55,
          "time": 399.74999999999744,
          "velocity": 1,
          "duration": 0.25
        },
        {
          "name": "E3",
          "midi": 52,
          "time": 399.9958333333308,
          "velocity": 1,
          "duration": 0.25
        },
        {
          "name": "G4",
          "midi": 67,
          "time": 399.9958333333308,
          "velocity": 1,
          "duration": 0.25
        },
        {
          "name": "E4",
          "midi": 64,
          "time": 399.9958333333308,
          "velocity": 1,
          "duration": 0.25
        },
        {
          "name": "E3",
          "midi": 52,
          "time": 399.99999999999744,
          "velocity": 1,
          "duration": 0.25
        },
        {
          "name": "B3",
          "midi": 59,
          "time": 400.2458333333308,
          "velocity": 1,
          "duration": 0.5
        },
        {
          "name": "E4",
          "midi": 64,
          "time": 400.2458333333308,
          "velocity": 1,
          "duration": 0.25
        },
        {
          "name": "C4",
          "midi": 60,
          "time": 400.2458333333308,
          "velocity": 1,
          "duration": 0.25
        },
        {
          "name": "B3",
          "midi": 59,
          "time": 400.24999999999744,
          "velocity": 1,
          "duration": 0.5
        },
        {
          "name": "A2",
          "midi": 45,
          "time": 400.4958333333308,
          "velocity": 1,
          "duration": 0.7499999999999432
        },
        {
          "name": "A4",
          "midi": 69,
          "time": 400.4958333333308,
          "velocity": 1,
          "duration": 0.25
        },
        {
          "name": "F#4",
          "midi": 66,
          "time": 400.4958333333308,
          "velocity": 1,
          "duration": 0.25
        },
        {
          "name": "A2",
          "midi": 45,
          "time": 400.49999999999744,
          "velocity": 1,
          "duration": 0.7499999999999432
        },
        {
          "name": "A3",
          "midi": 57,
          "time": 400.7458333333308,
          "velocity": 1,
          "duration": 0.24999999999994316
        },
        {
          "name": "G4",
          "midi": 67,
          "time": 400.7458333333308,
          "velocity": 1,
          "duration": 0.08333333333331439
        },
        {
          "name": "E4",
          "midi": 64,
          "time": 400.7458333333308,
          "velocity": 1,
          "duration": 0.08333333333331439
        },
        {
          "name": "A3",
          "midi": 57,
          "time": 400.74999999999744,
          "velocity": 1,
          "duration": 0.24999999999994316
        },
        {
          "name": "A4",
          "midi": 69,
          "time": 400.8291666666641,
          "velocity": 1,
          "duration": 0.08333333333331439
        },
        {
          "name": "F#4",
          "midi": 66,
          "time": 400.8291666666641,
          "velocity": 1,
          "duration": 0.08333333333331439
        },
        {
          "name": "G4",
          "midi": 67,
          "time": 400.9124999999974,
          "velocity": 1,
          "duration": 0.08333333333331439
        },
        {
          "name": "E4",
          "midi": 64,
          "time": 400.9124999999974,
          "velocity": 1,
          "duration": 0.08333333333331439
        },
        {
          "name": "B3",
          "midi": 59,
          "time": 400.9958333333307,
          "velocity": 1,
          "duration": 0.75
        },
        {
          "name": "F#4",
          "midi": 66,
          "time": 400.9958333333307,
          "velocity": 1,
          "duration": 0.25
        },
        {
          "name": "D#4",
          "midi": 63,
          "time": 400.9958333333307,
          "velocity": 1,
          "duration": 0.25
        },
        {
          "name": "B3",
          "midi": 59,
          "time": 400.9999999999974,
          "velocity": 1,
          "duration": 0.7458333333333371
        },
        {
          "name": "A2",
          "midi": 45,
          "time": 401.2458333333307,
          "velocity": 1,
          "duration": 0.25
        },
        {
          "name": "E4",
          "midi": 64,
          "time": 401.2458333333307,
          "velocity": 1,
          "duration": 0.25
        },
        {
          "name": "C4",
          "midi": 60,
          "time": 401.2458333333307,
          "velocity": 1,
          "duration": 0.25
        },
        {
          "name": "A2",
          "midi": 45,
          "time": 401.2499999999974,
          "velocity": 1,
          "duration": 0.25
        },
        {
          "name": "B2",
          "midi": 47,
          "time": 401.4958333333307,
          "velocity": 1,
          "duration": 0.75
        },
        {
          "name": "D#4",
          "midi": 63,
          "time": 401.4958333333307,
          "velocity": 1,
          "duration": 0.25
        },
        {
          "name": "B3",
          "midi": 59,
          "time": 401.4958333333307,
          "velocity": 1,
          "duration": 0.2541666666666629
        },
        {
          "name": "B2",
          "midi": 47,
          "time": 401.4999999999974,
          "velocity": 1,
          "duration": 0.75
        },
        {
          "name": "A3",
          "midi": 57,
          "time": 401.7458333333307,
          "velocity": 1,
          "duration": 0.25
        },
        {
          "name": "E4",
          "midi": 64,
          "time": 401.7458333333307,
          "velocity": 1,
          "duration": 0.25
        },
        {
          "name": "C4",
          "midi": 60,
          "time": 401.7458333333307,
          "velocity": 1,
          "duration": 0.25
        },
        {
          "name": "A3",
          "midi": 57,
          "time": 401.7499999999974,
          "velocity": 1,
          "duration": 0.25
        },
        {
          "name": "B3",
          "midi": 59,
          "time": 401.9958333333307,
          "velocity": 1,
          "duration": 0.75
        },
        {
          "name": "F#4",
          "midi": 66,
          "time": 401.9958333333307,
          "velocity": 1,
          "duration": 0.25
        },
        {
          "name": "D4",
          "midi": 62,
          "time": 401.9958333333307,
          "velocity": 1,
          "duration": 0.25
        },
        {
          "name": "B3",
          "midi": 59,
          "time": 401.9999999999974,
          "velocity": 1,
          "duration": 0.75
        },
        {
          "name": "B2",
          "midi": 47,
          "time": 402.2458333333307,
          "velocity": 1,
          "duration": 0.25
        },
        {
          "name": "E4",
          "midi": 64,
          "time": 402.2458333333307,
          "velocity": 1,
          "duration": 0.25
        },
        {
          "name": "C4",
          "midi": 60,
          "time": 402.2458333333307,
          "velocity": 1,
          "duration": 0.25
        },
        {
          "name": "B2",
          "midi": 47,
          "time": 402.2499999999974,
          "velocity": 1,
          "duration": 0.25
        },
        {
          "name": "D#3",
          "midi": 51,
          "time": 402.4958333333307,
          "velocity": 1,
          "duration": 0.75
        },
        {
          "name": "F#4",
          "midi": 66,
          "time": 402.4958333333307,
          "velocity": 1,
          "duration": 0.25
        },
        {
          "name": "D#4",
          "midi": 63,
          "time": 402.4958333333307,
          "velocity": 1,
          "duration": 0.25
        },
        {
          "name": "D#3",
          "midi": 51,
          "time": 402.4999999999974,
          "velocity": 1,
          "duration": 0.75
        },
        {
          "name": "A3",
          "midi": 57,
          "time": 402.7458333333307,
          "velocity": 1,
          "duration": 0.25
        },
        {
          "name": "G4",
          "midi": 67,
          "time": 402.7458333333307,
          "velocity": 1,
          "duration": 0.25
        },
        {
          "name": "E4",
          "midi": 64,
          "time": 402.7458333333307,
          "velocity": 1,
          "duration": 0.25
        },
        {
          "name": "A3",
          "midi": 57,
          "time": 402.7499999999974,
          "velocity": 1,
          "duration": 0.25
        },
        {
          "name": "B3",
          "midi": 59,
          "time": 402.9958333333307,
          "velocity": 1,
          "duration": 0.5
        },
        {
          "name": "A4",
          "midi": 69,
          "time": 402.9958333333307,
          "velocity": 1,
          "duration": 0.25
        },
        {
          "name": "F#4",
          "midi": 66,
          "time": 402.9958333333307,
          "velocity": 1,
          "duration": 0.25
        },
        {
          "name": "B3",
          "midi": 59,
          "time": 402.9999999999974,
          "velocity": 1,
          "duration": 0.5
        },
        {
          "name": "G2",
          "midi": 43,
          "time": 403.2458333333307,
          "velocity": 1,
          "duration": 0.25
        },
        {
          "name": "B4",
          "midi": 71,
          "time": 403.2458333333307,
          "velocity": 1,
          "duration": 0.25
        },
        {
          "name": "G4",
          "midi": 67,
          "time": 403.2458333333307,
          "velocity": 1,
          "duration": 0.25
        },
        {
          "name": "G2",
          "midi": 43,
          "time": 403.2499999999974,
          "velocity": 1,
          "duration": 0.25
        },
        {
          "name": "E2",
          "midi": 40,
          "time": 403.4958333333307,
          "velocity": 1,
          "duration": 0.25
        },
        {
          "name": "G4",
          "midi": 67,
          "time": 403.4958333333307,
          "velocity": 1,
          "duration": 1.7333333333332916
        },
        {
          "name": "E4",
          "midi": 64,
          "time": 403.4958333333307,
          "velocity": 1,
          "duration": 0.8666666666666742
        },
        {
          "name": "E5",
          "midi": 76,
          "time": 403.4999999999974,
          "velocity": 1,
          "duration": 0.8291666666666515
        },
        {
          "name": "B2",
          "midi": 47,
          "time": 403.7458333333307,
          "velocity": 1,
          "duration": 0.25
        },
        {
          "name": "E3",
          "midi": 52,
          "time": 403.9958333333307,
          "velocity": 1,
          "duration": 0.25
        },
        {
          "name": "G3",
          "midi": 55,
          "time": 404.2458333333307,
          "velocity": 1,
          "duration": 0.25
        },
        {
          "name": "E4",
          "midi": 64,
          "time": 404.2499999999974,
          "velocity": 1,
          "duration": 1.2458333333332803
        },
        {
          "name": "F#4",
          "midi": 66,
          "time": 404.3624999999974,
          "velocity": 1,
          "duration": 0.13333333333332575
        },
        {
          "name": "G4",
          "midi": 67,
          "time": 404.49166666666406,
          "velocity": 1,
          "duration": 0.9916666666666174
        },
        {
          "name": "D3",
          "midi": 50,
          "time": 404.4958333333307,
          "velocity": 1,
          "duration": 0.24999999999994316
        },
        {
          "name": "A3",
          "midi": 57,
          "time": 404.74583333333067,
          "velocity": 1,
          "duration": 0.25
        },
        {
          "name": "D4",
          "midi": 62,
          "time": 404.99583333333067,
          "velocity": 1,
          "duration": 0.25
        },
        {
          "name": "F#4",
          "midi": 66,
          "time": 405.241666666664,
          "velocity": 1,
          "duration": 0.13333333333332575
        },
        {
          "name": "A3",
          "midi": 57,
          "time": 405.24583333333067,
          "velocity": 1,
          "duration": 0.25
        },
        {
          "name": "G4",
          "midi": 67,
          "time": 405.37083333333067,
          "velocity": 1,
          "duration": 0.125
        },
        {
          "name": "E4",
          "midi": 64,
          "time": 405.49583333333067,
          "velocity": 1,
          "duration": 0.08333333333331439
        },
        {
          "name": "A4",
          "midi": 69,
          "time": 405.49583333333067,
          "velocity": 1,
          "duration": 0.1624999999999659
        },
        {
          "name": "F#4",
          "midi": 66,
          "time": 405.579166666664,
          "velocity": 1,
          "duration": 0.08333333333331439
        },
        {
          "name": "E4",
          "midi": 64,
          "time": 405.6624999999973,
          "velocity": 1,
          "duration": 0.08333333333331439
        },
        {
          "name": "G4",
          "midi": 67,
          "time": 405.66666666666396,
          "velocity": 1,
          "duration": 0.1624999999999659
        },
        {
          "name": "D4",
          "midi": 62,
          "time": 405.7458333333306,
          "velocity": 1,
          "duration": 0.25
        },
        {
          "name": "F#4",
          "midi": 66,
          "time": 405.82499999999726,
          "velocity": 1,
          "duration": 0.16250000000002274
        },
        {
          "name": "A3",
          "midi": 57,
          "time": 405.9958333333306,
          "velocity": 1,
          "duration": 0.25
        },
        {
          "name": "B4",
          "midi": 71,
          "time": 405.99999999999727,
          "velocity": 1,
          "duration": 0.17500000000001137
        },
        {
          "name": "G4",
          "midi": 67,
          "time": 406.16666666666396,
          "velocity": 1,
          "duration": 0.1624999999999659
        },
        {
          "name": "G4",
          "midi": 67,
          "time": 406.2458333333306,
          "velocity": 1,
          "duration": 0.1875
        },
        {
          "name": "G3",
          "midi": 55,
          "time": 406.2458333333306,
          "velocity": 1,
          "duration": 0.49999999999994316
        },
        {
          "name": "E5",
          "midi": 76,
          "time": 406.3208333333306,
          "velocity": 1,
          "duration": 0.04583333333334849
        },
        {
          "name": "G4",
          "midi": 67,
          "time": 406.3833333333306,
          "velocity": 1,
          "duration": 0.11250000000001137
        },
        {
          "name": "E4",
          "midi": 64,
          "time": 406.42916666666395,
          "velocity": 1,
          "duration": 0.041666666666685614
        },
        {
          "name": "C3",
          "midi": 48,
          "time": 406.4958333333306,
          "velocity": 1,
          "duration": 0.24999999999994316
        },
        {
          "name": "C4",
          "midi": 60,
          "time": 406.4958333333306,
          "velocity": 1,
          "duration": 0.7499999999999432
        },
        {
          "name": "G3",
          "midi": 55,
          "time": 406.74583333333055,
          "velocity": 1,
          "duration": 0.25
        },
        {
          "name": "D4",
          "midi": 62,
          "time": 406.99583333333055,
          "velocity": 1,
          "duration": 0.25
        },
        {
          "name": "G3",
          "midi": 55,
          "time": 407.24583333333055,
          "velocity": 1,
          "duration": 0.25
        },
        {
          "name": "D4",
          "midi": 62,
          "time": 407.4874999999972,
          "velocity": 1,
          "duration": 0.2583333333330984
        },
        {
          "name": "D4",
          "midi": 62,
          "time": 407.49583333333055,
          "velocity": 1,
          "duration": 0.9791666666657761
        },
        {
          "name": "G3",
          "midi": 55,
          "time": 407.7458333333303,
          "velocity": 1,
          "duration": 0.24999999999977263
        },
        {
          "name": "E3",
          "midi": 52,
          "time": 407.9958333333301,
          "velocity": 1,
          "duration": 0.24999999999977263
        },
        {
          "name": "B3",
          "midi": 59,
          "time": 408.24583333332987,
          "velocity": 1,
          "duration": 0.4999999999997726
        },
        {
          "name": "A2",
          "midi": 45,
          "time": 408.49583333332964,
          "velocity": 1,
          "duration": 0.75
        },
        {
          "name": "G4",
          "midi": 67,
          "time": 408.49583333332964,
          "velocity": 1,
          "duration": 0.125
        },
        {
          "name": "F#4",
          "midi": 66,
          "time": 408.6124999999963,
          "velocity": 1,
          "duration": 0.13333333333332575
        },
        {
          "name": "A3",
          "midi": 57,
          "time": 408.74583333332964,
          "velocity": 1,
          "duration": 0.25
        },
        {
          "name": "B3",
          "midi": 59,
          "time": 408.7499999999963,
          "velocity": 1,
          "duration": 0.26249999999998863
        },
        {
          "name": "G4",
          "midi": 67,
          "time": 408.991666666663,
          "velocity": 1,
          "duration": 0.125
        },
        {
          "name": "B3",
          "midi": 59,
          "time": 408.99583333332964,
          "velocity": 1,
          "duration": 0.375
        },
        {
          "name": "F#4",
          "midi": 66,
          "time": 409.1124999999963,
          "velocity": 1,
          "duration": 0.12083333333333712
        },
        {
          "name": "B3",
          "midi": 59,
          "time": 409.2374999999963,
          "velocity": 1,
          "duration": 0.5083333333332689
        },
        {
          "name": "A2",
          "midi": 45,
          "time": 409.24583333332964,
          "velocity": 1,
          "duration": 0.25
        },
        {
          "name": "D4",
          "midi": 62,
          "time": 409.3624999999963,
          "velocity": 1,
          "duration": 0.13749999999998863
        },
        {
          "name": "B2",
          "midi": 47,
          "time": 409.49583333332964,
          "velocity": 1,
          "duration": 0.7499999999999432
        },
        {
          "name": "B3",
          "midi": 59,
          "time": 409.4999999999963,
          "velocity": 1,
          "duration": 0.6083333333332916
        },
        {
          "name": "A3",
          "midi": 57,
          "time": 409.7458333333296,
          "velocity": 1,
          "duration": 0.25
        },
        {
          "name": "B3",
          "midi": 59,
          "time": 409.9958333333296,
          "velocity": 1,
          "duration": 0.7499999999997726
        },
        {
          "name": "G4",
          "midi": 67,
          "time": 410.11249999999626,
          "velocity": 1,
          "duration": 0.12916666666666288
        },
        {
          "name": "A3",
          "midi": 57,
          "time": 410.2416666666629,
          "velocity": 1,
          "duration": 0.25833333333332575
        },
        {
          "name": "B2",
          "midi": 47,
          "time": 410.2458333333296,
          "velocity": 1,
          "duration": 0.25
        },
        {
          "name": "D4",
          "midi": 62,
          "time": 410.48749999999626,
          "velocity": 1,
          "duration": 0.5041666666662081
        },
        {
          "name": "A3",
          "midi": 57,
          "time": 410.48749999999626,
          "velocity": 1,
          "duration": 0.508333333332871
        },
        {
          "name": "D#3",
          "midi": 51,
          "time": 410.4958333333296,
          "velocity": 1,
          "duration": 0.7499999999993747
        },
        {
          "name": "A3",
          "midi": 57,
          "time": 410.74583333332936,
          "velocity": 1,
          "duration": 0.8958333333329165
        },
        {
          "name": "B3",
          "midi": 59,
          "time": 410.99583333332913,
          "velocity": 1,
          "duration": 0.49999999999982947
        },
        {
          "name": "G3",
          "midi": 55,
          "time": 411.158333333329,
          "velocity": 1,
          "duration": 0.07083333333332575
        },
        {
          "name": "G2",
          "midi": 43,
          "time": 411.24583333332896,
          "velocity": 1,
          "duration": 0.25
        },
        {
          "name": "E4",
          "midi": 64,
          "time": 411.24583333332896,
          "velocity": 1,
          "duration": 0.10833333333334849
        },
        {
          "name": "G4",
          "midi": 67,
          "time": 411.3749999999956,
          "velocity": 1,
          "duration": 0.12083333333333712
        },
        {
          "name": "E4",
          "midi": 64,
          "time": 411.48749999999563,
          "velocity": 1,
          "duration": 0.7583333333333258
        },
        {
          "name": "E2",
          "midi": 40,
          "time": 411.49583333332896,
          "velocity": 1,
          "duration": 0.25
        },
        {
          "name": "B2",
          "midi": 47,
          "time": 411.74583333332896,
          "velocity": 1,
          "duration": 0.25
        },
        {
          "name": "E3",
          "midi": 52,
          "time": 411.99583333332896,
          "velocity": 1,
          "duration": 0.25
        },
        {
          "name": "G3",
          "midi": 55,
          "time": 412.24583333332896,
          "velocity": 1,
          "duration": 0.25
        },
        {
          "name": "D4",
          "midi": 62,
          "time": 412.24583333332896,
          "velocity": 1,
          "duration": 0.2333333333333485
        },
        {
          "name": "D3",
          "midi": 50,
          "time": 412.49583333332896,
          "velocity": 1,
          "duration": 0.25
        },
        {
          "name": "G4",
          "midi": 67,
          "time": 412.4999999999956,
          "velocity": 1,
          "duration": 0.3708333333333371
        },
        {
          "name": "A3",
          "midi": 57,
          "time": 412.74583333332896,
          "velocity": 1,
          "duration": 0.25
        },
        {
          "name": "A4",
          "midi": 69,
          "time": 412.87083333332896,
          "velocity": 1,
          "duration": 0.13333333333332575
        },
        {
          "name": "D4",
          "midi": 62,
          "time": 412.99583333332896,
          "velocity": 1,
          "duration": 0.25
        },
        {
          "name": "G4",
          "midi": 67,
          "time": 412.9999999999956,
          "velocity": 1,
          "duration": 0.2541666666666629
        },
        {
          "name": "F#4",
          "midi": 66,
          "time": 413.23749999999563,
          "velocity": 1,
          "duration": 0.23333333333329165
        },
        {
          "name": "A3",
          "midi": 57,
          "time": 413.24583333332896,
          "velocity": 1,
          "duration": 0.24999999999994316
        },
        {
          "name": "D4",
          "midi": 62,
          "time": 413.49166666666224,
          "velocity": 1,
          "duration": 0.2416666666666174
        },
        {
          "name": "E4",
          "midi": 64,
          "time": 413.4958333333289,
          "velocity": 1,
          "duration": 0.08333333333331439
        },
        {
          "name": "F#4",
          "midi": 66,
          "time": 413.5791666666622,
          "velocity": 1,
          "duration": 0.08333333333331439
        },
        {
          "name": "E4",
          "midi": 64,
          "time": 413.66249999999553,
          "velocity": 1,
          "duration": 0.08333333333331439
        },
        {
          "name": "D4",
          "midi": 62,
          "time": 413.74583333332885,
          "velocity": 1,
          "duration": 0.25
        },
        {
          "name": "A4",
          "midi": 69,
          "time": 413.74583333332885,
          "velocity": 1,
          "duration": 0.24583333333333712
        },
        {
          "name": "A3",
          "midi": 57,
          "time": 413.99583333332885,
          "velocity": 1,
          "duration": 0.25
        },
        {
          "name": "G4",
          "midi": 67,
          "time": 413.9999999999955,
          "velocity": 1,
          "duration": 0.25833333333332575
        },
        {
          "name": "F#4",
          "midi": 66,
          "time": 414.2416666666622,
          "velocity": 1,
          "duration": 0.07083333333332575
        },
        {
          "name": "G3",
          "midi": 55,
          "time": 414.24583333332885,
          "velocity": 1,
          "duration": 0.4999999999998863
        },
        {
          "name": "G4",
          "midi": 67,
          "time": 414.24583333332885,
          "velocity": 1,
          "duration": 0.17083333333329165
        },
        {
          "name": "G4",
          "midi": 67,
          "time": 414.32916666666216,
          "velocity": 1,
          "duration": 0.16666666666662877
        },
        {
          "name": "F#4",
          "midi": 66,
          "time": 414.4124999999955,
          "velocity": 1,
          "duration": 0.06666666666666288
        },
        {
          "name": "C3",
          "midi": 48,
          "time": 414.4958333333288,
          "velocity": 1,
          "duration": 0.24999999999994316
        },
        {
          "name": "C4",
          "midi": 60,
          "time": 414.49999999999545,
          "velocity": 1,
          "duration": 0.7416666666666174
        },
        {
          "name": "G3",
          "midi": 55,
          "time": 414.74583333332873,
          "velocity": 1,
          "duration": 0.25
        },
        {
          "name": "D4",
          "midi": 62,
          "time": 414.99583333332873,
          "velocity": 1,
          "duration": 0.25
        },
        {
          "name": "A3",
          "midi": 57,
          "time": 415.2374999999954,
          "velocity": 1,
          "duration": 0.125
        },
        {
          "name": "G3",
          "midi": 55,
          "time": 415.24583333332873,
          "velocity": 1,
          "duration": 0.25
        },
        {
          "name": "B3",
          "midi": 59,
          "time": 415.37083333332873,
          "velocity": 1,
          "duration": 0.11250000000001137
        },
        {
          "name": "C4",
          "midi": 60,
          "time": 415.49166666666207,
          "velocity": 1,
          "duration": 0.7541666666666629
        },
        {
          "name": "D4",
          "midi": 62,
          "time": 415.49583333332873,
          "velocity": 1,
          "duration": 0.25
        },
        {
          "name": "G3",
          "midi": 55,
          "time": 415.74583333332873,
          "velocity": 1,
          "duration": 0.25
        },
        {
          "name": "E3",
          "midi": 52,
          "time": 415.99583333332873,
          "velocity": 1,
          "duration": 0.25
        },
        {
          "name": "B3",
          "midi": 59,
          "time": 416.2374999999954,
          "velocity": 1,
          "duration": 0.10833333333334849
        },
        {
          "name": "B3",
          "midi": 59,
          "time": 416.24583333332873,
          "velocity": 1,
          "duration": 0.5
        },
        {
          "name": "C4",
          "midi": 60,
          "time": 416.3624999999954,
          "velocity": 1,
          "duration": 0.12083333333333712
        },
        {
          "name": "D4",
          "midi": 62,
          "time": 416.4874999999954,
          "velocity": 1,
          "duration": 0.16666666666668561
        },
        {
          "name": "A2",
          "midi": 45,
          "time": 416.49583333332873,
          "velocity": 1,
          "duration": 0.7499999999998863
        },
        {
          "name": "C4",
          "midi": 60,
          "time": 416.6666666666621,
          "velocity": 1,
          "duration": 0.14999999999997726
        },
        {
          "name": "A3",
          "midi": 57,
          "time": 416.74583333332873,
          "velocity": 1,
          "duration": 0.24999999999994316
        },
        {
          "name": "D4",
          "midi": 62,
          "time": 416.8333333333287,
          "velocity": 1,
          "duration": 0.17499999999995453
        },
        {
          "name": "E4",
          "midi": 64,
          "time": 416.98749999999535,
          "velocity": 1,
          "duration": 0.1791666666666174
        },
        {
          "name": "B3",
          "midi": 59,
          "time": 416.9958333333287,
          "velocity": 1,
          "duration": 0.7499999999999432
        },
        {
          "name": "F#4",
          "midi": 66,
          "time": 417.15833333332864,
          "velocity": 1,
          "duration": 0.1624999999999659
        },
        {
          "name": "A2",
          "midi": 45,
          "time": 417.2458333333286,
          "velocity": 1,
          "duration": 0.25
        },
        {
          "name": "G4",
          "midi": 67,
          "time": 417.3208333333286,
          "velocity": 1,
          "duration": 0.24166666666667425
        },
        {
          "name": "B2",
          "midi": 47,
          "time": 417.4958333333286,
          "velocity": 1,
          "duration": 0.75
        },
        {
          "name": "B3",
          "midi": 59,
          "time": 417.4999999999953,
          "velocity": 1,
          "duration": 0.25833333333332575
        },
        {
          "name": "G4",
          "midi": 67,
          "time": 417.7374999999953,
          "velocity": 1,
          "duration": 0.24166666666667425
        },
        {
          "name": "A3",
          "midi": 57,
          "time": 417.7458333333286,
          "velocity": 1,
          "duration": 0.25
        },
        {
          "name": "B3",
          "midi": 59,
          "time": 417.9958333333286,
          "velocity": 1,
          "duration": 0.7499999999999432
        },
        {
          "name": "A4",
          "midi": 69,
          "time": 417.9958333333286,
          "velocity": 1,
          "duration": 0.2333333333333485
        },
        {
          "name": "B2",
          "midi": 47,
          "time": 418.2458333333286,
          "velocity": 1,
          "duration": 0.25
        },
        {
          "name": "F#4",
          "midi": 66,
          "time": 418.2499999999953,
          "velocity": 1,
          "duration": 0.2541666666666629
        },
        {
          "name": "D#3",
          "midi": 51,
          "time": 418.4958333333286,
          "velocity": 1,
          "duration": 0.7499999999999432
        },
        {
          "name": "D#4",
          "midi": 63,
          "time": 418.4958333333286,
          "velocity": 1,
          "duration": 0.08749999999997726
        },
        {
          "name": "E4",
          "midi": 64,
          "time": 418.5833333333286,
          "velocity": 1,
          "duration": 0.09166666666664014
        },
        {
          "name": "D#4",
          "midi": 63,
          "time": 418.6583333333286,
          "velocity": 1,
          "duration": 0.07499999999998863
        },
        {
          "name": "B3",
          "midi": 59,
          "time": 418.7416666666619,
          "velocity": 1,
          "duration": 0.26249999999998863
        },
        {
          "name": "A3",
          "midi": 57,
          "time": 418.74583333332856,
          "velocity": 1,
          "duration": 0.25
        },
        {
          "name": "A3",
          "midi": 57,
          "time": 418.9916666666619,
          "velocity": 1,
          "duration": 0.24166666666667425
        },
        {
          "name": "B3",
          "midi": 59,
          "time": 418.99583333332856,
          "velocity": 1,
          "duration": 0.5
        },
        {
          "name": "G2",
          "midi": 43,
          "time": 419.24583333332856,
          "velocity": 1,
          "duration": 0.25
        },
        {
          "name": "B3",
          "midi": 59,
          "time": 419.24583333332856,
          "velocity": 1,
          "duration": 0.25833333333332575
        },
        {
          "name": "E2",
          "midi": 40,
          "time": 419.49583333332856,
          "velocity": 1,
          "duration": 0.25
        },
        {
          "name": "E4",
          "midi": 64,
          "time": 419.49583333332856,
          "velocity": 1,
          "duration": 0.24166666666667425
        },
        {
          "name": "G4",
          "midi": 67,
          "time": 419.4999999999952,
          "velocity": 1,
          "duration": 0.24166666666667425
        },
        {
          "name": "E4",
          "midi": 64,
          "time": 419.4999999999952,
          "velocity": 1,
          "duration": 0.9833333333333485
        },
        {
          "name": "B4",
          "midi": 71,
          "time": 419.73749999999524,
          "velocity": 1,
          "duration": 0.24166666666667425
        },
        {
          "name": "D5",
          "midi": 74,
          "time": 419.7416666666619,
          "velocity": 1,
          "duration": 0.24583333333333712
        },
        {
          "name": "B2",
          "midi": 47,
          "time": 419.74583333332856,
          "velocity": 1,
          "duration": 0.25
        },
        {
          "name": "G4",
          "midi": 67,
          "time": 419.98749999999524,
          "velocity": 1,
          "duration": 0.24583333333333712
        },
        {
          "name": "E3",
          "midi": 52,
          "time": 419.99583333332856,
          "velocity": 1,
          "duration": 0.25
        },
        {
          "name": "B4",
          "midi": 71,
          "time": 419.99583333332856,
          "velocity": 1,
          "duration": 0.24166666666667425
        },
        {
          "name": "G4",
          "midi": 67,
          "time": 420.2416666666619,
          "velocity": 1,
          "duration": 0.25
        },
        {
          "name": "G3",
          "midi": 55,
          "time": 420.24583333332856,
          "velocity": 1,
          "duration": 0.25
        },
        {
          "name": "E4",
          "midi": 64,
          "time": 420.24583333332856,
          "velocity": 1,
          "duration": 1.3333333333332575
        },
        {
          "name": "D3",
          "midi": 50,
          "time": 420.49583333332856,
          "velocity": 1,
          "duration": 0.25
        },
        {
          "name": "A4",
          "midi": 69,
          "time": 420.49583333332856,
          "velocity": 1,
          "duration": 0.26249999999998863
        },
        {
          "name": "C5",
          "midi": 72,
          "time": 420.4999999999952,
          "velocity": 1,
          "duration": 0.24583333333333712
        },
        {
          "name": "F#4",
          "midi": 66,
          "time": 420.73749999999524,
          "velocity": 1,
          "duration": 0.23333333333329165
        },
        {
          "name": "A4",
          "midi": 69,
          "time": 420.7416666666619,
          "velocity": 1,
          "duration": 0.2624999999999318
        },
        {
          "name": "A3",
          "midi": 57,
          "time": 420.74583333332856,
          "velocity": 1,
          "duration": 0.24999999999994316
        },
        {
          "name": "F#4",
          "midi": 66,
          "time": 420.99166666666184,
          "velocity": 1,
          "duration": 0.24583333333333712
        },
        {
          "name": "D4",
          "midi": 62,
          "time": 420.9958333333285,
          "velocity": 1,
          "duration": 0.24166666666667425
        },
        {
          "name": "D4",
          "midi": 62,
          "time": 420.9958333333285,
          "velocity": 1,
          "duration": 0.25
        },
        {
          "name": "F#4",
          "midi": 66,
          "time": 421.2374999999952,
          "velocity": 1,
          "duration": 0.11250000000001137
        },
        {
          "name": "A3",
          "midi": 57,
          "time": 421.2458333333285,
          "velocity": 1,
          "duration": 0.25
        },
        {
          "name": "D4",
          "midi": 62,
          "time": 421.24999999999517,
          "velocity": 1,
          "duration": 0.13333333333332575
        },
        {
          "name": "D4",
          "midi": 62,
          "time": 421.3624999999952,
          "velocity": 1,
          "duration": 0.13749999999998863
        },
        {
          "name": "F#4",
          "midi": 66,
          "time": 421.36666666666184,
          "velocity": 1,
          "duration": 0.12916666666666288
        },
        {
          "name": "D4",
          "midi": 62,
          "time": 421.49166666666184,
          "velocity": 1,
          "duration": 0.25416666666660603
        },
        {
          "name": "F#4",
          "midi": 66,
          "time": 421.49166666666184,
          "velocity": 1,
          "duration": 0.17083333333329165
        },
        {
          "name": "E4",
          "midi": 64,
          "time": 421.4958333333285,
          "velocity": 1,
          "duration": 0.24999999999994316
        },
        {
          "name": "F#4",
          "midi": 66,
          "time": 421.5791666666618,
          "velocity": 1,
          "duration": 0.17499999999995453
        },
        {
          "name": "E4",
          "midi": 64,
          "time": 421.66249999999513,
          "velocity": 1,
          "duration": 0.3333333333333144
        },
        {
          "name": "D4",
          "midi": 62,
          "time": 421.74583333332845,
          "velocity": 1,
          "duration": 0.25
        },
        {
          "name": "C5",
          "midi": 72,
          "time": 421.7499999999951,
          "velocity": 1,
          "duration": 0.24583333333333712
        },
        {
          "name": "A4",
          "midi": 69,
          "time": 421.7499999999951,
          "velocity": 1,
          "duration": 0.26249999999998863
        },
        {
          "name": "A4",
          "midi": 69,
          "time": 421.9874999999951,
          "velocity": 1,
          "duration": 0.24999999999994316
        },
        {
          "name": "F#4",
          "midi": 66,
          "time": 421.9916666666618,
          "velocity": 1,
          "duration": 0.23749999999995453
        },
        {
          "name": "A3",
          "midi": 57,
          "time": 421.99583333332845,
          "velocity": 1,
          "duration": 0.24999999999994316
        },
        {
          "name": "F#4",
          "midi": 66,
          "time": 422.24166666666173,
          "velocity": 1,
          "duration": 0.25833333333332575
        },
        {
          "name": "G3",
          "midi": 55,
          "time": 422.2458333333284,
          "velocity": 1,
          "duration": 0.5
        },
        {
          "name": "G4",
          "midi": 67,
          "time": 422.2458333333284,
          "velocity": 1,
          "duration": 0.25
        },
        {
          "name": "D4",
          "midi": 62,
          "time": 422.2458333333284,
          "velocity": 1,
          "duration": 0.23750000000001137
        },
        {
          "name": "G4",
          "midi": 67,
          "time": 422.49166666666173,
          "velocity": 1,
          "duration": 0.24583333333333712
        },
        {
          "name": "C3",
          "midi": 48,
          "time": 422.4958333333284,
          "velocity": 1,
          "duration": 0.25
        },
        {
          "name": "B4",
          "midi": 71,
          "time": 422.49999999999505,
          "velocity": 1,
          "duration": 0.2541666666666629
        },
        {
          "name": "E4",
          "midi": 64,
          "time": 422.74166666666173,
          "velocity": 1,
          "duration": 0.2541666666666629
        },
        {
          "name": "G4",
          "midi": 67,
          "time": 422.74166666666173,
          "velocity": 1,
          "duration": 0.25
        },
        {
          "name": "G3",
          "midi": 55,
          "time": 422.7458333333284,
          "velocity": 1,
          "duration": 0.25
        },
        {
          "name": "C4",
          "midi": 60,
          "time": 422.99166666666173,
          "velocity": 1,
          "duration": 0.26249999999998863
        },
        {
          "name": "D4",
          "midi": 62,
          "time": 422.9958333333284,
          "velocity": 1,
          "duration": 0.25
        },
        {
          "name": "E4",
          "midi": 64,
          "time": 422.9958333333284,
          "velocity": 1,
          "duration": 0.2333333333333485
        },
        {
          "name": "E4",
          "midi": 64,
          "time": 423.24166666666173,
          "velocity": 1,
          "duration": 0.13749999999998863
        },
        {
          "name": "G3",
          "midi": 55,
          "time": 423.2458333333284,
          "velocity": 1,
          "duration": 0.25
        },
        {
          "name": "C4",
          "midi": 60,
          "time": 423.24999999999505,
          "velocity": 1,
          "duration": 0.125
        },
        {
          "name": "C4",
          "midi": 60,
          "time": 423.36666666666173,
          "velocity": 1,
          "duration": 0.12083333333333712
        },
        {
          "name": "E4",
          "midi": 64,
          "time": 423.37499999999505,
          "velocity": 1,
          "duration": 0.12083333333333712
        },
        {
          "name": "E4",
          "midi": 64,
          "time": 423.49166666666173,
          "velocity": 1,
          "duration": 0.24166666666667425
        },
        {
          "name": "D4",
          "midi": 62,
          "time": 423.4958333333284,
          "velocity": 1,
          "duration": 0.25
        },
        {
          "name": "C4",
          "midi": 60,
          "time": 423.4958333333284,
          "velocity": 1,
          "duration": 0.25
        },
        {
          "name": "G3",
          "midi": 55,
          "time": 423.7458333333284,
          "velocity": 1,
          "duration": 0.25
        },
        {
          "name": "B4",
          "midi": 71,
          "time": 423.7458333333284,
          "velocity": 1,
          "duration": 0.25
        },
        {
          "name": "G4",
          "midi": 67,
          "time": 423.74999999999505,
          "velocity": 1,
          "duration": 0.24583333333333712
        },
        {
          "name": "E4",
          "midi": 64,
          "time": 423.98749999999507,
          "velocity": 1,
          "duration": 0.2333333333333485
        },
        {
          "name": "G4",
          "midi": 67,
          "time": 423.98749999999507,
          "velocity": 1,
          "duration": 0.2333333333333485
        },
        {
          "name": "E3",
          "midi": 52,
          "time": 423.9958333333284,
          "velocity": 1,
          "duration": 0.25
        },
        {
          "name": "C4",
          "midi": 60,
          "time": 424.23749999999507,
          "velocity": 1,
          "duration": 0.25
        },
        {
          "name": "E4",
          "midi": 64,
          "time": 424.23749999999507,
          "velocity": 1,
          "duration": 0.23750000000001137
        },
        {
          "name": "B3",
          "midi": 59,
          "time": 424.2458333333284,
          "velocity": 1,
          "duration": 0.5
        },
        {
          "name": "A4",
          "midi": 69,
          "time": 424.49166666666173,
          "velocity": 1,
          "duration": 0.2333333333333485
        },
        {
          "name": "F#4",
          "midi": 66,
          "time": 424.49166666666173,
          "velocity": 1,
          "duration": 0.2333333333333485
        },
        {
          "name": "A2",
          "midi": 45,
          "time": 424.4958333333284,
          "velocity": 1,
          "duration": 0.7499999999999432
        },
        {
          "name": "E4",
          "midi": 64,
          "time": 424.74166666666173,
          "velocity": 1,
          "duration": 0.07916666666665151
        },
        {
          "name": "A3",
          "midi": 57,
          "time": 424.7458333333284,
          "velocity": 1,
          "duration": 0.24999999999994316
        },
        {
          "name": "G4",
          "midi": 67,
          "time": 424.7458333333284,
          "velocity": 1,
          "duration": 0.07083333333332575
        },
        {
          "name": "A4",
          "midi": 69,
          "time": 424.8208333333284,
          "velocity": 1,
          "duration": 0.06666666666666288
        },
        {
          "name": "F#4",
          "midi": 66,
          "time": 424.8291666666617,
          "velocity": 1,
          "duration": 0.09583333333330302
        },
        {
          "name": "E4",
          "midi": 64,
          "time": 424.9041666666617,
          "velocity": 1,
          "duration": 0.07499999999998863
        },
        {
          "name": "G4",
          "midi": 67,
          "time": 424.90833333332836,
          "velocity": 1,
          "duration": 0.09166666666664014
        },
        {
          "name": "D#4",
          "midi": 63,
          "time": 424.9916666666617,
          "velocity": 1,
          "duration": 0.25
        },
        {
          "name": "B3",
          "midi": 59,
          "time": 424.99583333332833,
          "velocity": 1,
          "duration": 0.75
        },
        {
          "name": "F#4",
          "midi": 66,
          "time": 424.999999999995,
          "velocity": 1,
          "duration": 0.2333333333333485
        },
        {
          "name": "E4",
          "midi": 64,
          "time": 425.237499999995,
          "velocity": 1,
          "duration": 0.23750000000001137
        },
        {
          "name": "A2",
          "midi": 45,
          "time": 425.24583333332833,
          "velocity": 1,
          "duration": 0.25
        },
        {
          "name": "C4",
          "midi": 60,
          "time": 425.249999999995,
          "velocity": 1,
          "duration": 0.25833333333332575
        },
        {
          "name": "B3",
          "midi": 59,
          "time": 425.487499999995,
          "velocity": 1,
          "duration": 0.25833333333332575
        },
        {
          "name": "B2",
          "midi": 47,
          "time": 425.49583333332833,
          "velocity": 1,
          "duration": 0.75
        },
        {
          "name": "D#4",
          "midi": 63,
          "time": 425.49583333332833,
          "velocity": 1,
          "duration": 0.2333333333333485
        },
        {
          "name": "C4",
          "midi": 60,
          "time": 425.737499999995,
          "velocity": 1,
          "duration": 0.2541666666666629
        },
        {
          "name": "E4",
          "midi": 64,
          "time": 425.7416666666617,
          "velocity": 1,
          "duration": 0.2541666666666629
        },
        {
          "name": "A3",
          "midi": 57,
          "time": 425.74583333332833,
          "velocity": 1,
          "duration": 0.25
        },
        {
          "name": "B3",
          "midi": 59,
          "time": 425.99583333332833,
          "velocity": 1,
          "duration": 0.75
        },
        {
          "name": "F#4",
          "midi": 66,
          "time": 425.99583333332833,
          "velocity": 1,
          "duration": 0.2333333333333485
        },
        {
          "name": "D4",
          "midi": 62,
          "time": 425.999999999995,
          "velocity": 1,
          "duration": 0.2333333333333485
        },
        {
          "name": "C4",
          "midi": 60,
          "time": 426.237499999995,
          "velocity": 1,
          "duration": 0.26249999999998863
        },
        {
          "name": "B2",
          "midi": 47,
          "time": 426.24583333332833,
          "velocity": 1,
          "duration": 0.25
        },
        {
          "name": "E4",
          "midi": 64,
          "time": 426.249999999995,
          "velocity": 1,
          "duration": 0.26249999999998863
        },
        {
          "name": "D4",
          "midi": 62,
          "time": 426.4916666666617,
          "velocity": 1,
          "duration": 0.24166666666667425
        },
        {
          "name": "D#3",
          "midi": 51,
          "time": 426.49583333332833,
          "velocity": 1,
          "duration": 0.75
        },
        {
          "name": "F#4",
          "midi": 66,
          "time": 426.499999999995,
          "velocity": 1,
          "duration": 0.24583333333333712
        },
        {
          "name": "E4",
          "midi": 64,
          "time": 426.737499999995,
          "velocity": 1,
          "duration": 0.2541666666666629
        },
        {
          "name": "A3",
          "midi": 57,
          "time": 426.74583333332833,
          "velocity": 1,
          "duration": 0.25
        },
        {
          "name": "G4",
          "midi": 67,
          "time": 426.74583333332833,
          "velocity": 1,
          "duration": 0.25833333333332575
        },
        {
          "name": "A4",
          "midi": 69,
          "time": 426.9916666666617,
          "velocity": 1,
          "duration": 0.23750000000001137
        },
        {
          "name": "F#4",
          "midi": 66,
          "time": 426.9916666666617,
          "velocity": 1,
          "duration": 0.2541666666666629
        },
        {
          "name": "B3",
          "midi": 59,
          "time": 426.99583333332833,
          "velocity": 1,
          "duration": 0.5
        },
        {
          "name": "B4",
          "midi": 71,
          "time": 427.2416666666617,
          "velocity": 1,
          "duration": 0.25
        },
        {
          "name": "G4",
          "midi": 67,
          "time": 427.2416666666617,
          "velocity": 1,
          "duration": 0.24583333333333712
        },
        {
          "name": "G2",
          "midi": 43,
          "time": 427.24583333332833,
          "velocity": 1,
          "duration": 0.25
        },
        {
          "name": "E2",
          "midi": 40,
          "time": 427.49583333332833,
          "velocity": 1,
          "duration": 0.25
        },
        {
          "name": "G4",
          "midi": 67,
          "time": 427.499999999995,
          "velocity": 1,
          "duration": 0.23750000000001137
        },
        {
          "name": "E4",
          "midi": 64,
          "time": 427.499999999995,
          "velocity": 1,
          "duration": 0.25833333333332575
        },
        {
          "name": "D5",
          "midi": 74,
          "time": 427.7416666666617,
          "velocity": 1,
          "duration": 0.23333333333329165
        },
        {
          "name": "B4",
          "midi": 71,
          "time": 427.7416666666617,
          "velocity": 1,
          "duration": 0.24999999999994316
        },
        {
          "name": "B2",
          "midi": 47,
          "time": 427.74583333332833,
          "velocity": 1,
          "duration": 0.24999999999994316
        },
        {
          "name": "E3",
          "midi": 52,
          "time": 427.9958333333283,
          "velocity": 1,
          "duration": 0.25
        },
        {
          "name": "B4",
          "midi": 71,
          "time": 427.9958333333283,
          "velocity": 1,
          "duration": 0.25833333333332575
        },
        {
          "name": "G4",
          "midi": 67,
          "time": 427.9958333333283,
          "velocity": 1,
          "duration": 0.25833333333332575
        },
        {
          "name": "E4",
          "midi": 64,
          "time": 428.23749999999495,
          "velocity": 1,
          "duration": 0.25833333333332575
        },
        {
          "name": "G4",
          "midi": 67,
          "time": 428.23749999999495,
          "velocity": 1,
          "duration": 0.24166666666667425
        },
        {
          "name": "G3",
          "midi": 55,
          "time": 428.2458333333283,
          "velocity": 1,
          "duration": 0.25
        },
        {
          "name": "D3",
          "midi": 50,
          "time": 428.4958333333283,
          "velocity": 1,
          "duration": 0.25
        },
        {
          "name": "C5",
          "midi": 72,
          "time": 428.49999999999494,
          "velocity": 1,
          "duration": 0.25
        },
        {
          "name": "A4",
          "midi": 69,
          "time": 428.49999999999494,
          "velocity": 1,
          "duration": 0.2541666666666629
        },
        {
          "name": "A4",
          "midi": 69,
          "time": 428.7416666666616,
          "velocity": 1,
          "duration": 0.24166666666667425
        },
        {
          "name": "A3",
          "midi": 57,
          "time": 428.7458333333283,
          "velocity": 1,
          "duration": 0.25
        },
        {
          "name": "F#4",
          "midi": 66,
          "time": 428.7458333333283,
          "velocity": 1,
          "duration": 0.25
        },
        {
          "name": "D4",
          "midi": 62,
          "time": 428.98749999999495,
          "velocity": 1,
          "duration": 0.25833333333332575
        },
        {
          "name": "F#4",
          "midi": 66,
          "time": 428.9916666666616,
          "velocity": 1,
          "duration": 0.2541666666666629
        },
        {
          "name": "D4",
          "midi": 62,
          "time": 428.9958333333283,
          "velocity": 1,
          "duration": 0.2541666666666629
        },
        {
          "name": "F#4",
          "midi": 66,
          "time": 429.23749999999495,
          "velocity": 1,
          "duration": 0.13749999999998863
        },
        {
          "name": "D4",
          "midi": 62,
          "time": 429.2416666666616,
          "velocity": 1,
          "duration": 0.13749999999998863
        },
        {
          "name": "A3",
          "midi": 57,
          "time": 429.2458333333283,
          "velocity": 1,
          "duration": 0.25
        },
        {
          "name": "D4",
          "midi": 62,
          "time": 429.3666666666616,
          "velocity": 1,
          "duration": 0.12916666666666288
        },
        {
          "name": "F#4",
          "midi": 66,
          "time": 429.37499999999494,
          "velocity": 1,
          "duration": 0.10833333333334849
        },
        {
          "name": "D4",
          "midi": 62,
          "time": 429.48749999999495,
          "velocity": 1,
          "duration": 0.24999999999994316
        },
        {
          "name": "F#4",
          "midi": 66,
          "time": 429.4916666666616,
          "velocity": 1,
          "duration": 0.17083333333329165
        },
        {
          "name": "E4",
          "midi": 64,
          "time": 429.4958333333283,
          "velocity": 1,
          "duration": 0.08333333333331439
        },
        {
          "name": "F#4",
          "midi": 66,
          "time": 429.5791666666616,
          "velocity": 1,
          "duration": 0.17083333333329165
        },
        {
          "name": "E4",
          "midi": 64,
          "time": 429.6624999999949,
          "velocity": 1,
          "duration": 0.08333333333331439
        },
        {
          "name": "C5",
          "midi": 72,
          "time": 429.7374999999949,
          "velocity": 1,
          "duration": 0.24166666666667425
        },
        {
          "name": "A4",
          "midi": 69,
          "time": 429.74166666666156,
          "velocity": 1,
          "duration": 0.2541666666666629
        },
        {
          "name": "D4",
          "midi": 62,
          "time": 429.7458333333282,
          "velocity": 1,
          "duration": 0.25
        },
        {
          "name": "F#4",
          "midi": 66,
          "time": 429.9874999999949,
          "velocity": 1,
          "duration": 0.25
        },
        {
          "name": "A4",
          "midi": 69,
          "time": 429.99166666666156,
          "velocity": 1,
          "duration": 0.24583333333333712
        },
        {
          "name": "A3",
          "midi": 57,
          "time": 429.9958333333282,
          "velocity": 1,
          "duration": 0.25
        },
        {
          "name": "D4",
          "midi": 62,
          "time": 430.2374999999949,
          "velocity": 1,
          "duration": 0.2333333333333485
        },
        {
          "name": "F#4",
          "midi": 66,
          "time": 430.2374999999949,
          "velocity": 1,
          "duration": 0.25
        },
        {
          "name": "G3",
          "midi": 55,
          "time": 430.2458333333282,
          "velocity": 1,
          "duration": 0.5
        },
        {
          "name": "G4",
          "midi": 67,
          "time": 430.2458333333282,
          "velocity": 1,
          "duration": 0.25
        },
        {
          "name": "G4",
          "midi": 67,
          "time": 430.4874999999949,
          "velocity": 1,
          "duration": 0.25
        },
        {
          "name": "B4",
          "midi": 71,
          "time": 430.49166666666156,
          "velocity": 1,
          "duration": 0.24583333333333712
        },
        {
          "name": "C3",
          "midi": 48,
          "time": 430.4958333333282,
          "velocity": 1,
          "duration": 0.25
        },
        {
          "name": "G3",
          "midi": 55,
          "time": 430.7458333333282,
          "velocity": 1,
          "duration": 0.25
        },
        {
          "name": "E4",
          "midi": 64,
          "time": 430.7458333333282,
          "velocity": 1,
          "duration": 0.26249999999998863
        },
        {
          "name": "G4",
          "midi": 67,
          "time": 430.7499999999949,
          "velocity": 1,
          "duration": 0.24166666666667425
        },
        {
          "name": "E4",
          "midi": 64,
          "time": 430.99166666666156,
          "velocity": 1,
          "duration": 0.24166666666667425
        },
        {
          "name": "D4",
          "midi": 62,
          "time": 430.9958333333282,
          "velocity": 1,
          "duration": 0.25
        },
        {
          "name": "C4",
          "midi": 60,
          "time": 430.9999999999949,
          "velocity": 1,
          "duration": 0.2541666666666629
        },
        {
          "name": "E4",
          "midi": 64,
          "time": 431.2374999999949,
          "velocity": 1,
          "duration": 0.12083333333333712
        },
        {
          "name": "G3",
          "midi": 55,
          "time": 431.2458333333282,
          "velocity": 1,
          "duration": 0.25
        },
        {
          "name": "C4",
          "midi": 60,
          "time": 431.2499999999949,
          "velocity": 1,
          "duration": 0.11666666666667425
        },
        {
          "name": "C4",
          "midi": 60,
          "time": 431.36666666666156,
          "velocity": 1,
          "duration": 0.125
        },
        {
          "name": "E4",
          "midi": 64,
          "time": 431.36666666666156,
          "velocity": 1,
          "duration": 0.13749999999998863
        },
        {
          "name": "E4",
          "midi": 64,
          "time": 431.4874999999949,
          "velocity": 1,
          "duration": 0.26249999999998863
        },
        {
          "name": "D4",
          "midi": 62,
          "time": 431.4958333333282,
          "velocity": 1,
          "duration": 0.25
        },
        {
          "name": "C4",
          "midi": 60,
          "time": 431.4958333333282,
          "velocity": 1,
          "duration": 0.23750000000001137
        },
        {
          "name": "G4",
          "midi": 67,
          "time": 431.74166666666156,
          "velocity": 1,
          "duration": 0.24166666666667425
        },
        {
          "name": "G3",
          "midi": 55,
          "time": 431.7458333333282,
          "velocity": 1,
          "duration": 0.25
        },
        {
          "name": "B4",
          "midi": 71,
          "time": 431.7499999999949,
          "velocity": 1,
          "duration": 0.24166666666667425
        },
        {
          "name": "E4",
          "midi": 64,
          "time": 431.99166666666156,
          "velocity": 1,
          "duration": 0.25833333333332575
        },
        {
          "name": "E3",
          "midi": 52,
          "time": 431.9958333333282,
          "velocity": 1,
          "duration": 0.25
        },
        {
          "name": "G4",
          "midi": 67,
          "time": 431.9999999999949,
          "velocity": 1,
          "duration": 0.2333333333333485
        },
        {
          "name": "B3",
          "midi": 59,
          "time": 432.2458333333282,
          "velocity": 1,
          "duration": 0.5
        },
        {
          "name": "E4",
          "midi": 64,
          "time": 432.2458333333282,
          "velocity": 1,
          "duration": 0.26249999999998863
        },
        {
          "name": "C4",
          "midi": 60,
          "time": 432.2499999999949,
          "velocity": 1,
          "duration": 0.23750000000001137
        },
        {
          "name": "F#4",
          "midi": 66,
          "time": 432.4874999999949,
          "velocity": 1,
          "duration": 0.26249999999998863
        },
        {
          "name": "A2",
          "midi": 45,
          "time": 432.4958333333282,
          "velocity": 1,
          "duration": 0.7499999999999432
        },
        {
          "name": "A4",
          "midi": 69,
          "time": 432.4999999999949,
          "velocity": 1,
          "duration": 0.25
        },
        {
          "name": "G4",
          "midi": 67,
          "time": 432.74166666666156,
          "velocity": 1,
          "duration": 0.07083333333332575
        },
        {
          "name": "E4",
          "midi": 64,
          "time": 432.74166666666156,
          "velocity": 1,
          "duration": 0.09583333333330302
        },
        {
          "name": "A3",
          "midi": 57,
          "time": 432.7458333333282,
          "velocity": 1,
          "duration": 0.24999999999994316
        },
        {
          "name": "A4",
          "midi": 69,
          "time": 432.8333333333282,
          "velocity": 1,
          "duration": 0.07916666666665151
        },
        {
          "name": "F#4",
          "midi": 66,
          "time": 432.8333333333282,
          "velocity": 1,
          "duration": 0.09166666666664014
        },
        {
          "name": "E4",
          "midi": 64,
          "time": 432.91249999999485,
          "velocity": 1,
          "duration": 0.06666666666666288
        },
        {
          "name": "G4",
          "midi": 67,
          "time": 432.91249999999485,
          "velocity": 1,
          "duration": 0.07916666666665151
        },
        {
          "name": "F#4",
          "midi": 66,
          "time": 432.9916666666615,
          "velocity": 1,
          "duration": 0.2541666666666629
        },
        {
          "name": "B3",
          "midi": 59,
          "time": 432.99583333332816,
          "velocity": 1,
          "duration": 0.75
        },
        {
          "name": "D#4",
          "midi": 63,
          "time": 432.9999999999948,
          "velocity": 1,
          "duration": 0.24166666666667425
        },
        {
          "name": "E4",
          "midi": 64,
          "time": 433.23749999999484,
          "velocity": 1,
          "duration": 0.2541666666666629
        },
        {
          "name": "C4",
          "midi": 60,
          "time": 433.2416666666615,
          "velocity": 1,
          "duration": 0.23750000000001137
        },
        {
          "name": "A2",
          "midi": 45,
          "time": 433.24583333332816,
          "velocity": 1,
          "duration": 0.25
        },
        {
          "name": "D#4",
          "midi": 63,
          "time": 433.48749999999484,
          "velocity": 1,
          "duration": 0.23750000000001137
        },
        {
          "name": "B2",
          "midi": 47,
          "time": 433.49583333332816,
          "velocity": 1,
          "duration": 0.75
        },
        {
          "name": "B3",
          "midi": 59,
          "time": 433.4999999999948,
          "velocity": 1,
          "duration": 0.24583333333333712
        },
        {
          "name": "E4",
          "midi": 64,
          "time": 433.7416666666615,
          "velocity": 1,
          "duration": 0.23750000000001137
        },
        {
          "name": "C4",
          "midi": 60,
          "time": 433.7416666666615,
          "velocity": 1,
          "duration": 0.26249999999998863
        },
        {
          "name": "A3",
          "midi": 57,
          "time": 433.74583333332816,
          "velocity": 1,
          "duration": 0.25
        },
        {
          "name": "B3",
          "midi": 59,
          "time": 433.99583333332816,
          "velocity": 1,
          "duration": 0.7499999999999432
        },
        {
          "name": "F#4",
          "midi": 66,
          "time": 433.99583333332816,
          "velocity": 1,
          "duration": 0.26249999999998863
        },
        {
          "name": "D4",
          "midi": 62,
          "time": 433.99583333332816,
          "velocity": 1,
          "duration": 0.25833333333332575
        },
        {
          "name": "E4",
          "midi": 64,
          "time": 434.23749999999484,
          "velocity": 1,
          "duration": 0.23749999999995453
        },
        {
          "name": "C4",
          "midi": 60,
          "time": 434.2416666666615,
          "velocity": 1,
          "duration": 0.24999999999994316
        },
        {
          "name": "B2",
          "midi": 47,
          "time": 434.24583333332816,
          "velocity": 1,
          "duration": 0.24999999999994316
        },
        {
          "name": "F#4",
          "midi": 66,
          "time": 434.4874999999948,
          "velocity": 1,
          "duration": 0.26249999999998863
        },
        {
          "name": "D#3",
          "midi": 51,
          "time": 434.4958333333281,
          "velocity": 1,
          "duration": 0.75
        },
        {
          "name": "D4",
          "midi": 62,
          "time": 434.49999999999477,
          "velocity": 1,
          "duration": 0.24583333333333712
        },
        {
          "name": "G4",
          "midi": 67,
          "time": 434.7374999999948,
          "velocity": 1,
          "duration": 0.25833333333332575
        },
        {
          "name": "A3",
          "midi": 57,
          "time": 434.7458333333281,
          "velocity": 1,
          "duration": 0.25
        },
        {
          "name": "E4",
          "midi": 64,
          "time": 434.74999999999477,
          "velocity": 1,
          "duration": 0.2333333333333485
        },
        {
          "name": "A4",
          "midi": 69,
          "time": 434.99166666666144,
          "velocity": 1,
          "duration": 0.24166666666667425
        },
        {
          "name": "B3",
          "midi": 59,
          "time": 434.9958333333281,
          "velocity": 1,
          "duration": 0.5
        },
        {
          "name": "F#4",
          "midi": 66,
          "time": 434.99999999999477,
          "velocity": 1,
          "duration": 0.24166666666667425
        },
        {
          "name": "B4",
          "midi": 71,
          "time": 435.2374999999948,
          "velocity": 1,
          "duration": 0.2541666666666629
        },
        {
          "name": "G4",
          "midi": 67,
          "time": 435.2374999999948,
          "velocity": 1,
          "duration": 0.24166666666667425
        },
        {
          "name": "G2",
          "midi": 43,
          "time": 435.2458333333281,
          "velocity": 1,
          "duration": 0.25
        },
        {
          "name": "E2",
          "midi": 40,
          "time": 435.4958333333281,
          "velocity": 1,
          "duration": 0.25
        },
        {
          "name": "E3",
          "midi": 52,
          "time": 435.4958333333281,
          "velocity": 1,
          "duration": 0.75
        },
        {
          "name": "B2",
          "midi": 47,
          "time": 435.4958333333281,
          "velocity": 1,
          "duration": 0.5
        },
        {
          "name": "E2",
          "midi": 40,
          "time": 435.4958333333281,
          "velocity": 1,
          "duration": 1
        },
        {
          "name": "G4",
          "midi": 67,
          "time": 435.4958333333281,
          "velocity": 1,
          "duration": 1
        },
        {
          "name": "E4",
          "midi": 64,
          "time": 435.4958333333281,
          "velocity": 1,
          "duration": 2.0833333333333144
        },
        {
          "name": "B2",
          "midi": 47,
          "time": 435.7458333333281,
          "velocity": 1,
          "duration": 0.75
        },
        {
          "name": "E3",
          "midi": 52,
          "time": 435.9958333333281,
          "velocity": 1,
          "duration": 0.5
        },
        {
          "name": "G3",
          "midi": 55,
          "time": 436.2458333333281,
          "velocity": 1,
          "duration": 0.25
        },
        {
          "name": "D3",
          "midi": 50,
          "time": 436.4958333333281,
          "velocity": 1,
          "duration": 0.25
        },
        {
          "name": "D4",
          "midi": 62,
          "time": 436.4958333333281,
          "velocity": 1,
          "duration": 0.75
        },
        {
          "name": "A3",
          "midi": 57,
          "time": 436.4958333333281,
          "velocity": 1,
          "duration": 0.5
        },
        {
          "name": "D3",
          "midi": 50,
          "time": 436.4958333333281,
          "velocity": 1,
          "duration": 1.9999999999999432
        },
        {
          "name": "F#4",
          "midi": 66,
          "time": 436.4958333333281,
          "velocity": 1,
          "duration": 1.1666666666666288
        },
        {
          "name": "A3",
          "midi": 57,
          "time": 436.7458333333281,
          "velocity": 1,
          "duration": 0.75
        },
        {
          "name": "D4",
          "midi": 62,
          "time": 436.9958333333281,
          "velocity": 1,
          "duration": 0.9999999999999432
        },
        {
          "name": "A3",
          "midi": 57,
          "time": 437.2458333333281,
          "velocity": 1,
          "duration": 0.9999999999999432
        },
        {
          "name": "E4",
          "midi": 64,
          "time": 437.4958333333281,
          "velocity": 1,
          "duration": 0.24999999999994316
        },
        {
          "name": "F#4",
          "midi": 66,
          "time": 437.5791666666614,
          "velocity": 1,
          "duration": 0.9166666666666288
        },
        {
          "name": "E4",
          "midi": 64,
          "time": 437.66249999999474,
          "velocity": 1,
          "duration": 0.8333333333333144
        },
        {
          "name": "D4",
          "midi": 62,
          "time": 437.74583333332805,
          "velocity": 1,
          "duration": 0.75
        },
        {
          "name": "A3",
          "midi": 57,
          "time": 437.99583333332805,
          "velocity": 1,
          "duration": 0.5
        },
        {
          "name": "G3",
          "midi": 55,
          "time": 438.24583333332805,
          "velocity": 1,
          "duration": 0.25
        },
        {
          "name": "G4",
          "midi": 67,
          "time": 438.24583333332805,
          "velocity": 1,
          "duration": 0.25
        },
        {
          "name": "C3",
          "midi": 48,
          "time": 438.49583333332805,
          "velocity": 1,
          "duration": 0.25
        },
        {
          "name": "C4",
          "midi": 60,
          "time": 438.49583333332805,
          "velocity": 1,
          "duration": 2
        },
        {
          "name": "G3",
          "midi": 55,
          "time": 438.49583333332805,
          "velocity": 1,
          "duration": 0.5
        },
        {
          "name": "C3",
          "midi": 48,
          "time": 438.49583333332805,
          "velocity": 1,
          "duration": 2
        },
        {
          "name": "G3",
          "midi": 55,
          "time": 438.74583333332805,
          "velocity": 1,
          "duration": 0.75
        },
        {
          "name": "D4",
          "midi": 62,
          "time": 438.99583333332805,
          "velocity": 1,
          "duration": 0.25
        },
        {
          "name": "G3",
          "midi": 55,
          "time": 439.24583333332805,
          "velocity": 1,
          "duration": 0.75
        },
        {
          "name": "D4",
          "midi": 62,
          "time": 439.49583333332805,
          "velocity": 1,
          "duration": 0.25
        },
        {
          "name": "G3",
          "midi": 55,
          "time": 439.74583333332805,
          "velocity": 1,
          "duration": 0.75
        },
        {
          "name": "E3",
          "midi": 52,
          "time": 439.99583333332805,
          "velocity": 1,
          "duration": 0.25
        },
        {
          "name": "B3",
          "midi": 59,
          "time": 440.24583333332805,
          "velocity": 1,
          "duration": 0.25
        },
        {
          "name": "A2",
          "midi": 45,
          "time": 440.49583333332805,
          "velocity": 1,
          "duration": 0.25
        },
        {
          "name": "A2",
          "midi": 45,
          "time": 440.49583333332805,
          "velocity": 1,
          "duration": 1
        },
        {
          "name": "A3",
          "midi": 57,
          "time": 440.49583333332805,
          "velocity": 1,
          "duration": 0.5
        },
        {
          "name": "E3",
          "midi": 52,
          "time": 440.49583333332805,
          "velocity": 1,
          "duration": 1
        },
        {
          "name": "A3",
          "midi": 57,
          "time": 440.74583333332805,
          "velocity": 1,
          "duration": 0.75
        },
        {
          "name": "B3",
          "midi": 59,
          "time": 440.99583333332805,
          "velocity": 1,
          "duration": 0.25
        },
        {
          "name": "A2",
          "midi": 45,
          "time": 441.24583333332805,
          "velocity": 1,
          "duration": 0.25
        },
        {
          "name": "B2",
          "midi": 47,
          "time": 441.49583333332805,
          "velocity": 1,
          "duration": 0.25
        },
        {
          "name": "F#3",
          "midi": 54,
          "time": 441.49583333332805,
          "velocity": 1,
          "duration": 1
        },
        {
          "name": "B2",
          "midi": 47,
          "time": 441.49583333332805,
          "velocity": 1,
          "duration": 1
        },
        {
          "name": "B3",
          "midi": 59,
          "time": 441.49583333332805,
          "velocity": 1,
          "duration": 0.75
        },
        {
          "name": "A3",
          "midi": 57,
          "time": 441.74583333332805,
          "velocity": 1,
          "duration": 0.25
        },
        {
          "name": "B3",
          "midi": 59,
          "time": 441.99583333332805,
          "velocity": 1,
          "duration": 0.5
        },
        {
          "name": "B2",
          "midi": 47,
          "time": 442.24583333332805,
          "velocity": 1,
          "duration": 0.25
        },
        {
          "name": "D#3",
          "midi": 51,
          "time": 442.49583333332805,
          "velocity": 1,
          "duration": 0.25
        },
        {
          "name": "A#3",
          "midi": 58,
          "time": 442.49583333332805,
          "velocity": 1,
          "duration": 1
        },
        {
          "name": "D#3",
          "midi": 51,
          "time": 442.49583333332805,
          "velocity": 1,
          "duration": 1
        },
        {
          "name": "D#4",
          "midi": 63,
          "time": 442.49583333332805,
          "velocity": 1,
          "duration": 1
        },
        {
          "name": "A3",
          "midi": 57,
          "time": 442.74583333332805,
          "velocity": 1,
          "duration": 0.25
        },
        {
          "name": "B3",
          "midi": 59,
          "time": 442.99583333332805,
          "velocity": 1,
          "duration": 0.25
        },
        {
          "name": "G2",
          "midi": 43,
          "time": 443.24583333332805,
          "velocity": 1,
          "duration": 0.25
        },
        {
          "name": "E2",
          "midi": 40,
          "time": 443.49583333332805,
          "velocity": 1,
          "duration": 0.25
        },
        {
          "name": "E3",
          "midi": 52,
          "time": 443.49583333332805,
          "velocity": 1,
          "duration": 0.75
        },
        {
          "name": "B2",
          "midi": 47,
          "time": 443.49583333332805,
          "velocity": 1,
          "duration": 0.5
        },
        {
          "name": "E2",
          "midi": 40,
          "time": 443.49583333332805,
          "velocity": 1,
          "duration": 1
        },
        {
          "name": "B2",
          "midi": 47,
          "time": 443.74583333332805,
          "velocity": 1,
          "duration": 0.75
        },
        {
          "name": "E3",
          "midi": 52,
          "time": 443.99583333332805,
          "velocity": 1,
          "duration": 0.5
        },
        {
          "name": "G3",
          "midi": 55,
          "time": 444.24583333332805,
          "velocity": 1,
          "duration": 0.25
        },
        {
          "name": "D3",
          "midi": 50,
          "time": 444.49583333332805,
          "velocity": 1,
          "duration": 0.25
        },
        {
          "name": "D3",
          "midi": 50,
          "time": 444.49583333332805,
          "velocity": 1,
          "duration": 1.9999999999999432
        },
        {
          "name": "D4",
          "midi": 62,
          "time": 444.49583333332805,
          "velocity": 1,
          "duration": 0.75
        },
        {
          "name": "A3",
          "midi": 57,
          "time": 444.49583333332805,
          "velocity": 1,
          "duration": 0.5
        },
        {
          "name": "A3",
          "midi": 57,
          "time": 444.74583333332805,
          "velocity": 1,
          "duration": 0.75
        },
        {
          "name": "D4",
          "midi": 62,
          "time": 444.99583333332805,
          "velocity": 1,
          "duration": 0.9999999999999432
        },
        {
          "name": "A3",
          "midi": 57,
          "time": 445.24583333332805,
          "velocity": 1,
          "duration": 0.9999999999999432
        },
        {
          "name": "E4",
          "midi": 64,
          "time": 445.49583333332805,
          "velocity": 1,
          "duration": 0.08333333333331439
        },
        {
          "name": "F#4",
          "midi": 66,
          "time": 445.57916666666137,
          "velocity": 1,
          "duration": 0.08333333333331439
        },
        {
          "name": "E4",
          "midi": 64,
          "time": 445.6624999999947,
          "velocity": 1,
          "duration": 0.08333333333331439
        },
        {
          "name": "D4",
          "midi": 62,
          "time": 445.745833333328,
          "velocity": 1,
          "duration": 0.75
        },
        {
          "name": "A3",
          "midi": 57,
          "time": 445.995833333328,
          "velocity": 1,
          "duration": 0.5
        },
        {
          "name": "G3",
          "midi": 55,
          "time": 446.245833333328,
          "velocity": 1,
          "duration": 0.25
        },
        {
          "name": "G4",
          "midi": 67,
          "time": 446.245833333328,
          "velocity": 1,
          "duration": 0.25
        },
        {
          "name": "C3",
          "midi": 48,
          "time": 446.495833333328,
          "velocity": 1,
          "duration": 0.25
        },
        {
          "name": "C4",
          "midi": 60,
          "time": 446.495833333328,
          "velocity": 1,
          "duration": 2
        },
        {
          "name": "C3",
          "midi": 48,
          "time": 446.495833333328,
          "velocity": 1,
          "duration": 2
        },
        {
          "name": "G3",
          "midi": 55,
          "time": 446.495833333328,
          "velocity": 1,
          "duration": 0.5
        },
        {
          "name": "G3",
          "midi": 55,
          "time": 446.745833333328,
          "velocity": 1,
          "duration": 0.75
        },
        {
          "name": "D4",
          "midi": 62,
          "time": 446.995833333328,
          "velocity": 1,
          "duration": 0.25
        },
        {
          "name": "G3",
          "midi": 55,
          "time": 447.245833333328,
          "velocity": 1,
          "duration": 0.75
        },
        {
          "name": "D4",
          "midi": 62,
          "time": 447.495833333328,
          "velocity": 1,
          "duration": 0.25
        },
        {
          "name": "G3",
          "midi": 55,
          "time": 447.745833333328,
          "velocity": 1,
          "duration": 0.75
        },
        {
          "name": "E3",
          "midi": 52,
          "time": 447.995833333328,
          "velocity": 1,
          "duration": 0.25
        },
        {
          "name": "B3",
          "midi": 59,
          "time": 448.245833333328,
          "velocity": 1,
          "duration": 0.25
        },
        {
          "name": "A2",
          "midi": 45,
          "time": 448.495833333328,
          "velocity": 1,
          "duration": 0.25
        },
        {
          "name": "A3",
          "midi": 57,
          "time": 448.495833333328,
          "velocity": 1,
          "duration": 0.5
        },
        {
          "name": "A2",
          "midi": 45,
          "time": 448.495833333328,
          "velocity": 1,
          "duration": 1
        },
        {
          "name": "E3",
          "midi": 52,
          "time": 448.495833333328,
          "velocity": 1,
          "duration": 1
        },
        {
          "name": "A3",
          "midi": 57,
          "time": 448.745833333328,
          "velocity": 1,
          "duration": 0.75
        },
        {
          "name": "B3",
          "midi": 59,
          "time": 448.995833333328,
          "velocity": 1,
          "duration": 0.25
        },
        {
          "name": "A2",
          "midi": 45,
          "time": 449.245833333328,
          "velocity": 1,
          "duration": 0.25
        },
        {
          "name": "B2",
          "midi": 47,
          "time": 449.495833333328,
          "velocity": 1,
          "duration": 0.25
        },
        {
          "name": "B3",
          "midi": 59,
          "time": 449.495833333328,
          "velocity": 1,
          "duration": 0.75
        },
        {
          "name": "F#3",
          "midi": 54,
          "time": 449.495833333328,
          "velocity": 1,
          "duration": 1
        },
        {
          "name": "B2",
          "midi": 47,
          "time": 449.495833333328,
          "velocity": 1,
          "duration": 1
        },
        {
          "name": "A3",
          "midi": 57,
          "time": 449.745833333328,
          "velocity": 1,
          "duration": 0.25
        },
        {
          "name": "B3",
          "midi": 59,
          "time": 449.995833333328,
          "velocity": 1,
          "duration": 0.5
        },
        {
          "name": "B2",
          "midi": 47,
          "time": 450.245833333328,
          "velocity": 1,
          "duration": 0.25
        },
        {
          "name": "D#3",
          "midi": 51,
          "time": 450.495833333328,
          "velocity": 1,
          "duration": 0.25
        },
        {
          "name": "D#4",
          "midi": 63,
          "time": 450.495833333328,
          "velocity": 1,
          "duration": 1
        },
        {
          "name": "D#3",
          "midi": 51,
          "time": 450.495833333328,
          "velocity": 1,
          "duration": 1
        },
        {
          "name": "A#3",
          "midi": 58,
          "time": 450.495833333328,
          "velocity": 1,
          "duration": 1
        },
        {
          "name": "A3",
          "midi": 57,
          "time": 450.745833333328,
          "velocity": 1,
          "duration": 0.25
        },
        {
          "name": "B3",
          "midi": 59,
          "time": 450.995833333328,
          "velocity": 1,
          "duration": 0.25
        },
        {
          "name": "G2",
          "midi": 43,
          "time": 451.245833333328,
          "velocity": 1,
          "duration": 0.25
        },
        {
          "name": "B2",
          "midi": 47,
          "time": 451.495833333328,
          "velocity": 1,
          "duration": 0.25
        },
        {
          "name": "B3",
          "midi": 59,
          "time": 451.495833333328,
          "velocity": 1,
          "duration": 0.25
        },
        {
          "name": "E2",
          "midi": 40,
          "time": 451.495833333328,
          "velocity": 1,
          "duration": 0.25
        },
        {
          "name": "E3",
          "midi": 52,
          "time": 451.495833333328,
          "velocity": 1,
          "duration": 0.25
        },
        {
          "name": "B3",
          "midi": 59,
          "time": 451.495833333328,
          "velocity": 1,
          "duration": 0.25
        },
        {
          "name": "E3",
          "midi": 52,
          "time": 451.495833333328,
          "velocity": 1,
          "duration": 0.25
        },
        {
          "name": "E2",
          "midi": 40,
          "time": 451.495833333328,
          "velocity": 1,
          "duration": 0.25
        },
        {
          "name": "B2",
          "midi": 47,
          "time": 451.495833333328,
          "velocity": 1,
          "duration": 0.25
        },
        {
          "name": "B3",
          "midi": 59,
          "time": 451.745833333328,
          "velocity": 1,
          "duration": 0.25
        },
        {
          "name": "E3",
          "midi": 52,
          "time": 451.745833333328,
          "velocity": 1,
          "duration": 0.25
        },
        {
          "name": "B2",
          "midi": 47,
          "time": 451.745833333328,
          "velocity": 1,
          "duration": 0.25
        },
        {
          "name": "E2",
          "midi": 40,
          "time": 451.745833333328,
          "velocity": 1,
          "duration": 0.25
        },
        {
          "name": "E2",
          "midi": 40,
          "time": 451.745833333328,
          "velocity": 1,
          "duration": 0.25
        },
        {
          "name": "B2",
          "midi": 47,
          "time": 451.745833333328,
          "velocity": 1,
          "duration": 0.25
        },
        {
          "name": "B3",
          "midi": 59,
          "time": 451.745833333328,
          "velocity": 1,
          "duration": 0.25
        },
        {
          "name": "E3",
          "midi": 52,
          "time": 451.745833333328,
          "velocity": 1,
          "duration": 0.25
        },
        {
          "name": "E3",
          "midi": 52,
          "time": 451.995833333328,
          "velocity": 1,
          "duration": 0.25
        },
        {
          "name": "B3",
          "midi": 59,
          "time": 451.995833333328,
          "velocity": 1,
          "duration": 0.25
        },
        {
          "name": "B2",
          "midi": 47,
          "time": 451.995833333328,
          "velocity": 1,
          "duration": 0.25
        },
        {
          "name": "E2",
          "midi": 40,
          "time": 451.995833333328,
          "velocity": 1,
          "duration": 0.25
        },
        {
          "name": "E2",
          "midi": 40,
          "time": 451.995833333328,
          "velocity": 1,
          "duration": 0.25
        },
        {
          "name": "B3",
          "midi": 59,
          "time": 451.995833333328,
          "velocity": 1,
          "duration": 0.25
        },
        {
          "name": "E3",
          "midi": 52,
          "time": 451.995833333328,
          "velocity": 1,
          "duration": 0.25
        },
        {
          "name": "B2",
          "midi": 47,
          "time": 451.995833333328,
          "velocity": 1,
          "duration": 0.25
        },
        {
          "name": "B3",
          "midi": 59,
          "time": 452.245833333328,
          "velocity": 1,
          "duration": 0.25
        },
        {
          "name": "E2",
          "midi": 40,
          "time": 452.245833333328,
          "velocity": 1,
          "duration": 0.25
        },
        {
          "name": "E3",
          "midi": 52,
          "time": 452.245833333328,
          "velocity": 1,
          "duration": 0.25
        },
        {
          "name": "B2",
          "midi": 47,
          "time": 452.245833333328,
          "velocity": 1,
          "duration": 0.25
        },
        {
          "name": "E3",
          "midi": 52,
          "time": 452.245833333328,
          "velocity": 1,
          "duration": 0.25
        },
        {
          "name": "B2",
          "midi": 47,
          "time": 452.245833333328,
          "velocity": 1,
          "duration": 0.25
        },
        {
          "name": "E2",
          "midi": 40,
          "time": 452.245833333328,
          "velocity": 1,
          "duration": 0.25
        },
        {
          "name": "B3",
          "midi": 59,
          "time": 452.245833333328,
          "velocity": 1,
          "duration": 0.25
        },
        {
          "name": "E2",
          "midi": 40,
          "time": 452.495833333328,
          "velocity": 1,
          "duration": 0.25
        },
        {
          "name": "B3",
          "midi": 59,
          "time": 452.495833333328,
          "velocity": 1,
          "duration": 0.25
        },
        {
          "name": "E3",
          "midi": 52,
          "time": 452.495833333328,
          "velocity": 1,
          "duration": 0.25
        },
        {
          "name": "B2",
          "midi": 47,
          "time": 452.495833333328,
          "velocity": 1,
          "duration": 0.25
        },
        {
          "name": "E3",
          "midi": 52,
          "time": 452.495833333328,
          "velocity": 1,
          "duration": 0.25
        },
        {
          "name": "B2",
          "midi": 47,
          "time": 452.495833333328,
          "velocity": 1,
          "duration": 0.25
        },
        {
          "name": "B3",
          "midi": 59,
          "time": 452.495833333328,
          "velocity": 1,
          "duration": 0.25
        },
        {
          "name": "E2",
          "midi": 40,
          "time": 452.495833333328,
          "velocity": 1,
          "duration": 0.25
        },
        {
          "name": "E2",
          "midi": 40,
          "time": 452.745833333328,
          "velocity": 1,
          "duration": 0.25
        },
        {
          "name": "B3",
          "midi": 59,
          "time": 452.745833333328,
          "velocity": 1,
          "duration": 0.25
        },
        {
          "name": "E3",
          "midi": 52,
          "time": 452.745833333328,
          "velocity": 1,
          "duration": 0.25
        },
        {
          "name": "B2",
          "midi": 47,
          "time": 452.745833333328,
          "velocity": 1,
          "duration": 0.25
        },
        {
          "name": "B3",
          "midi": 59,
          "time": 452.745833333328,
          "velocity": 1,
          "duration": 0.25
        },
        {
          "name": "E3",
          "midi": 52,
          "time": 452.745833333328,
          "velocity": 1,
          "duration": 0.25
        },
        {
          "name": "B2",
          "midi": 47,
          "time": 452.745833333328,
          "velocity": 1,
          "duration": 0.25
        },
        {
          "name": "E2",
          "midi": 40,
          "time": 452.745833333328,
          "velocity": 1,
          "duration": 0.25
        },
        {
          "name": "B3",
          "midi": 59,
          "time": 452.995833333328,
          "velocity": 1,
          "duration": 0.25
        },
        {
          "name": "E3",
          "midi": 52,
          "time": 452.995833333328,
          "velocity": 1,
          "duration": 0.25
        },
        {
          "name": "B2",
          "midi": 47,
          "time": 452.995833333328,
          "velocity": 1,
          "duration": 0.25
        },
        {
          "name": "E2",
          "midi": 40,
          "time": 452.995833333328,
          "velocity": 1,
          "duration": 0.25
        },
        {
          "name": "B3",
          "midi": 59,
          "time": 452.995833333328,
          "velocity": 1,
          "duration": 0.25
        },
        {
          "name": "E2",
          "midi": 40,
          "time": 452.995833333328,
          "velocity": 1,
          "duration": 0.25
        },
        {
          "name": "E3",
          "midi": 52,
          "time": 452.995833333328,
          "velocity": 1,
          "duration": 0.25
        },
        {
          "name": "B2",
          "midi": 47,
          "time": 452.995833333328,
          "velocity": 1,
          "duration": 0.25
        },
        {
          "name": "B2",
          "midi": 47,
          "time": 453.245833333328,
          "velocity": 1,
          "duration": 0.25
        },
        {
          "name": "B3",
          "midi": 59,
          "time": 453.245833333328,
          "velocity": 1,
          "duration": 0.25
        },
        {
          "name": "E2",
          "midi": 40,
          "time": 453.245833333328,
          "velocity": 1,
          "duration": 0.25
        },
        {
          "name": "E3",
          "midi": 52,
          "time": 453.245833333328,
          "velocity": 1,
          "duration": 0.25
        },
        {
          "name": "B3",
          "midi": 59,
          "time": 453.245833333328,
          "velocity": 1,
          "duration": 0.25
        },
        {
          "name": "B2",
          "midi": 47,
          "time": 453.245833333328,
          "velocity": 1,
          "duration": 0.25
        },
        {
          "name": "E2",
          "midi": 40,
          "time": 453.245833333328,
          "velocity": 1,
          "duration": 0.25
        },
        {
          "name": "E3",
          "midi": 52,
          "time": 453.245833333328,
          "velocity": 1,
          "duration": 0.25
        },
        {
          "name": "B3",
          "midi": 59,
          "time": 453.495833333328,
          "velocity": 1,
          "duration": 0.25
        },
        {
          "name": "E3",
          "midi": 52,
          "time": 453.495833333328,
          "velocity": 1,
          "duration": 0.25
        },
        {
          "name": "B2",
          "midi": 47,
          "time": 453.495833333328,
          "velocity": 1,
          "duration": 0.25
        },
        {
          "name": "E2",
          "midi": 40,
          "time": 453.495833333328,
          "velocity": 1,
          "duration": 0.25
        },
        {
          "name": "E3",
          "midi": 52,
          "time": 453.495833333328,
          "velocity": 1,
          "duration": 0.25
        },
        {
          "name": "B2",
          "midi": 47,
          "time": 453.495833333328,
          "velocity": 1,
          "duration": 0.25
        },
        {
          "name": "B3",
          "midi": 59,
          "time": 453.495833333328,
          "velocity": 1,
          "duration": 0.25
        },
        {
          "name": "E2",
          "midi": 40,
          "time": 453.495833333328,
          "velocity": 1,
          "duration": 0.25
        },
        {
          "name": "E3",
          "midi": 52,
          "time": 453.745833333328,
          "velocity": 1,
          "duration": 0.25
        },
        {
          "name": "B3",
          "midi": 59,
          "time": 453.745833333328,
          "velocity": 1,
          "duration": 0.25
        },
        {
          "name": "B2",
          "midi": 47,
          "time": 453.745833333328,
          "velocity": 1,
          "duration": 0.25
        },
        {
          "name": "E2",
          "midi": 40,
          "time": 453.745833333328,
          "velocity": 1,
          "duration": 0.25
        },
        {
          "name": "B3",
          "midi": 59,
          "time": 453.745833333328,
          "velocity": 1,
          "duration": 0.25
        },
        {
          "name": "E3",
          "midi": 52,
          "time": 453.745833333328,
          "velocity": 1,
          "duration": 0.25
        },
        {
          "name": "E2",
          "midi": 40,
          "time": 453.745833333328,
          "velocity": 1,
          "duration": 0.25
        },
        {
          "name": "B2",
          "midi": 47,
          "time": 453.745833333328,
          "velocity": 1,
          "duration": 0.25
        },
        {
          "name": "B3",
          "midi": 59,
          "time": 453.995833333328,
          "velocity": 1,
          "duration": 0.25
        },
        {
          "name": "E2",
          "midi": 40,
          "time": 453.995833333328,
          "velocity": 1,
          "duration": 0.25
        },
        {
          "name": "E3",
          "midi": 52,
          "time": 453.995833333328,
          "velocity": 1,
          "duration": 0.25
        },
        {
          "name": "B2",
          "midi": 47,
          "time": 453.995833333328,
          "velocity": 1,
          "duration": 0.25
        },
        {
          "name": "B3",
          "midi": 59,
          "time": 453.995833333328,
          "velocity": 1,
          "duration": 0.25
        },
        {
          "name": "E3",
          "midi": 52,
          "time": 453.995833333328,
          "velocity": 1,
          "duration": 0.25
        },
        {
          "name": "E2",
          "midi": 40,
          "time": 453.995833333328,
          "velocity": 1,
          "duration": 0.25
        },
        {
          "name": "B2",
          "midi": 47,
          "time": 453.995833333328,
          "velocity": 1,
          "duration": 0.25
        },
        {
          "name": "E2",
          "midi": 40,
          "time": 454.245833333328,
          "velocity": 1,
          "duration": 0.25
        },
        {
          "name": "B3",
          "midi": 59,
          "time": 454.245833333328,
          "velocity": 1,
          "duration": 0.25
        },
        {
          "name": "E3",
          "midi": 52,
          "time": 454.245833333328,
          "velocity": 1,
          "duration": 0.25
        },
        {
          "name": "B2",
          "midi": 47,
          "time": 454.245833333328,
          "velocity": 1,
          "duration": 0.25
        },
        {
          "name": "E2",
          "midi": 40,
          "time": 454.245833333328,
          "velocity": 1,
          "duration": 0.25
        },
        {
          "name": "B2",
          "midi": 47,
          "time": 454.245833333328,
          "velocity": 1,
          "duration": 0.25
        },
        {
          "name": "B3",
          "midi": 59,
          "time": 454.245833333328,
          "velocity": 1,
          "duration": 0.25
        },
        {
          "name": "E3",
          "midi": 52,
          "time": 454.245833333328,
          "velocity": 1,
          "duration": 0.25
        },
        {
          "name": "B2",
          "midi": 47,
          "time": 454.495833333328,
          "velocity": 1,
          "duration": 0.25
        },
        {
          "name": "B3",
          "midi": 59,
          "time": 454.495833333328,
          "velocity": 1,
          "duration": 0.25
        },
        {
          "name": "E3",
          "midi": 52,
          "time": 454.495833333328,
          "velocity": 1,
          "duration": 0.25
        },
        {
          "name": "E2",
          "midi": 40,
          "time": 454.495833333328,
          "velocity": 1,
          "duration": 0.25
        },
        {
          "name": "E2",
          "midi": 40,
          "time": 454.495833333328,
          "velocity": 1,
          "duration": 0.25
        },
        {
          "name": "E3",
          "midi": 52,
          "time": 454.495833333328,
          "velocity": 1,
          "duration": 0.25
        },
        {
          "name": "B2",
          "midi": 47,
          "time": 454.495833333328,
          "velocity": 1,
          "duration": 0.25
        },
        {
          "name": "B3",
          "midi": 59,
          "time": 454.495833333328,
          "velocity": 1,
          "duration": 0.25
        },
        {
          "name": "E2",
          "midi": 40,
          "time": 454.745833333328,
          "velocity": 1,
          "duration": 0.25
        },
        {
          "name": "B3",
          "midi": 59,
          "time": 454.745833333328,
          "velocity": 1,
          "duration": 0.25
        },
        {
          "name": "E3",
          "midi": 52,
          "time": 454.745833333328,
          "velocity": 1,
          "duration": 0.25
        },
        {
          "name": "B2",
          "midi": 47,
          "time": 454.745833333328,
          "velocity": 1,
          "duration": 0.25
        },
        {
          "name": "B2",
          "midi": 47,
          "time": 454.745833333328,
          "velocity": 1,
          "duration": 0.25
        },
        {
          "name": "B3",
          "midi": 59,
          "time": 454.745833333328,
          "velocity": 1,
          "duration": 0.25
        },
        {
          "name": "E3",
          "midi": 52,
          "time": 454.745833333328,
          "velocity": 1,
          "duration": 0.25
        },
        {
          "name": "E2",
          "midi": 40,
          "time": 454.745833333328,
          "velocity": 1,
          "duration": 0.25
        },
        {
          "name": "E2",
          "midi": 40,
          "time": 454.995833333328,
          "velocity": 1,
          "duration": 0.25
        },
        {
          "name": "B3",
          "midi": 59,
          "time": 454.995833333328,
          "velocity": 1,
          "duration": 0.25
        },
        {
          "name": "E3",
          "midi": 52,
          "time": 454.995833333328,
          "velocity": 1,
          "duration": 0.25
        },
        {
          "name": "B2",
          "midi": 47,
          "time": 454.995833333328,
          "velocity": 1,
          "duration": 0.25
        },
        {
          "name": "E2",
          "midi": 40,
          "time": 454.995833333328,
          "velocity": 1,
          "duration": 0.25
        },
        {
          "name": "E3",
          "midi": 52,
          "time": 454.995833333328,
          "velocity": 1,
          "duration": 0.25
        },
        {
          "name": "B3",
          "midi": 59,
          "time": 454.995833333328,
          "velocity": 1,
          "duration": 0.25
        },
        {
          "name": "B2",
          "midi": 47,
          "time": 454.995833333328,
          "velocity": 1,
          "duration": 0.25
        },
        {
          "name": "B3",
          "midi": 59,
          "time": 455.245833333328,
          "velocity": 1,
          "duration": 0.25
        },
        {
          "name": "E3",
          "midi": 52,
          "time": 455.245833333328,
          "velocity": 1,
          "duration": 0.25
        },
        {
          "name": "B2",
          "midi": 47,
          "time": 455.245833333328,
          "velocity": 1,
          "duration": 0.25
        },
        {
          "name": "E2",
          "midi": 40,
          "time": 455.245833333328,
          "velocity": 1,
          "duration": 0.25
        },
        {
          "name": "B3",
          "midi": 59,
          "time": 455.245833333328,
          "velocity": 1,
          "duration": 0.25
        },
        {
          "name": "E2",
          "midi": 40,
          "time": 455.245833333328,
          "velocity": 1,
          "duration": 0.25
        },
        {
          "name": "E3",
          "midi": 52,
          "time": 455.245833333328,
          "velocity": 1,
          "duration": 0.25
        },
        {
          "name": "B2",
          "midi": 47,
          "time": 455.245833333328,
          "velocity": 1,
          "duration": 0.25
        },
        {
          "name": "F#2",
          "midi": 42,
          "time": 455.495833333328,
          "velocity": 1,
          "duration": 0.25
        },
        {
          "name": "C#3",
          "midi": 49,
          "time": 455.495833333328,
          "velocity": 1,
          "duration": 0.25
        },
        {
          "name": "F#2",
          "midi": 42,
          "time": 455.495833333328,
          "velocity": 1,
          "duration": 0.25
        },
        {
          "name": "C#3",
          "midi": 49,
          "time": 455.495833333328,
          "velocity": 1,
          "duration": 0.25
        },
        {
          "name": "C#3",
          "midi": 49,
          "time": 455.745833333328,
          "velocity": 1,
          "duration": 0.25
        },
        {
          "name": "F#2",
          "midi": 42,
          "time": 455.745833333328,
          "velocity": 1,
          "duration": 0.25
        },
        {
          "name": "C#3",
          "midi": 49,
          "time": 455.745833333328,
          "velocity": 1,
          "duration": 0.25
        },
        {
          "name": "F#2",
          "midi": 42,
          "time": 455.745833333328,
          "velocity": 1,
          "duration": 0.25
        },
        {
          "name": "G2",
          "midi": 43,
          "time": 455.995833333328,
          "velocity": 1,
          "duration": 0.25
        },
        {
          "name": "D3",
          "midi": 50,
          "time": 455.995833333328,
          "velocity": 1,
          "duration": 0.25
        },
        {
          "name": "G2",
          "midi": 43,
          "time": 455.995833333328,
          "velocity": 1,
          "duration": 0.25
        },
        {
          "name": "D3",
          "midi": 50,
          "time": 455.995833333328,
          "velocity": 1,
          "duration": 0.25
        },
        {
          "name": "C#3",
          "midi": 49,
          "time": 456.245833333328,
          "velocity": 1,
          "duration": 0.25
        },
        {
          "name": "F#2",
          "midi": 42,
          "time": 456.245833333328,
          "velocity": 1,
          "duration": 0.25
        },
        {
          "name": "C#3",
          "midi": 49,
          "time": 456.245833333328,
          "velocity": 1,
          "duration": 0.25
        },
        {
          "name": "F#2",
          "midi": 42,
          "time": 456.245833333328,
          "velocity": 1,
          "duration": 0.25
        },
        {
          "name": "C#3",
          "midi": 49,
          "time": 456.495833333328,
          "velocity": 1,
          "duration": 0.25
        },
        {
          "name": "F#2",
          "midi": 42,
          "time": 456.495833333328,
          "velocity": 1,
          "duration": 0.25
        },
        {
          "name": "C#3",
          "midi": 49,
          "time": 456.495833333328,
          "velocity": 1,
          "duration": 0.25
        },
        {
          "name": "F#2",
          "midi": 42,
          "time": 456.495833333328,
          "velocity": 1,
          "duration": 0.25
        },
        {
          "name": "C#3",
          "midi": 49,
          "time": 456.745833333328,
          "velocity": 1,
          "duration": 0.25
        },
        {
          "name": "F#2",
          "midi": 42,
          "time": 456.745833333328,
          "velocity": 1,
          "duration": 0.25
        },
        {
          "name": "F#2",
          "midi": 42,
          "time": 456.745833333328,
          "velocity": 1,
          "duration": 0.25
        },
        {
          "name": "C#3",
          "midi": 49,
          "time": 456.745833333328,
          "velocity": 1,
          "duration": 0.25
        },
        {
          "name": "G2",
          "midi": 43,
          "time": 456.995833333328,
          "velocity": 1,
          "duration": 0.25
        },
        {
          "name": "D3",
          "midi": 50,
          "time": 456.995833333328,
          "velocity": 1,
          "duration": 0.25
        },
        {
          "name": "G2",
          "midi": 43,
          "time": 456.995833333328,
          "velocity": 1,
          "duration": 0.25
        },
        {
          "name": "D3",
          "midi": 50,
          "time": 456.995833333328,
          "velocity": 1,
          "duration": 0.25
        },
        {
          "name": "C#3",
          "midi": 49,
          "time": 457.245833333328,
          "velocity": 1,
          "duration": 0.25
        },
        {
          "name": "C#3",
          "midi": 49,
          "time": 457.245833333328,
          "velocity": 1,
          "duration": 0.25
        },
        {
          "name": "C#3",
          "midi": 49,
          "time": 457.370833333328,
          "velocity": 1,
          "duration": 0.25
        },
        {
          "name": "C#3",
          "midi": 49,
          "time": 457.370833333328,
          "velocity": 1,
          "duration": 0.25
        },
        {
          "name": "F#2",
          "midi": 42,
          "time": 457.495833333328,
          "velocity": 1,
          "duration": 0.25
        },
        {
          "name": "C#3",
          "midi": 49,
          "time": 457.495833333328,
          "velocity": 1,
          "duration": 0.25
        },
        {
          "name": "C#3",
          "midi": 49,
          "time": 457.495833333328,
          "velocity": 1,
          "duration": 0.25
        },
        {
          "name": "F#2",
          "midi": 42,
          "time": 457.495833333328,
          "velocity": 1,
          "duration": 0.25
        },
        {
          "name": "F#2",
          "midi": 42,
          "time": 457.745833333328,
          "velocity": 1,
          "duration": 0.25
        },
        {
          "name": "C#3",
          "midi": 49,
          "time": 457.745833333328,
          "velocity": 1,
          "duration": 0.25
        },
        {
          "name": "C#3",
          "midi": 49,
          "time": 457.745833333328,
          "velocity": 1,
          "duration": 0.25
        },
        {
          "name": "F#2",
          "midi": 42,
          "time": 457.745833333328,
          "velocity": 1,
          "duration": 0.25
        },
        {
          "name": "G2",
          "midi": 43,
          "time": 457.995833333328,
          "velocity": 1,
          "duration": 0.25
        },
        {
          "name": "D3",
          "midi": 50,
          "time": 457.995833333328,
          "velocity": 1,
          "duration": 0.25
        },
        {
          "name": "G2",
          "midi": 43,
          "time": 457.995833333328,
          "velocity": 1,
          "duration": 0.25
        },
        {
          "name": "D3",
          "midi": 50,
          "time": 457.995833333328,
          "velocity": 1,
          "duration": 0.25
        },
        {
          "name": "F#2",
          "midi": 42,
          "time": 458.245833333328,
          "velocity": 1,
          "duration": 0.25
        },
        {
          "name": "C#3",
          "midi": 49,
          "time": 458.245833333328,
          "velocity": 1,
          "duration": 0.25
        },
        {
          "name": "C#3",
          "midi": 49,
          "time": 458.245833333328,
          "velocity": 1,
          "duration": 0.25
        },
        {
          "name": "F#2",
          "midi": 42,
          "time": 458.245833333328,
          "velocity": 1,
          "duration": 0.25
        },
        {
          "name": "C#3",
          "midi": 49,
          "time": 458.495833333328,
          "velocity": 1,
          "duration": 0.25
        },
        {
          "name": "F#2",
          "midi": 42,
          "time": 458.495833333328,
          "velocity": 1,
          "duration": 0.25
        },
        {
          "name": "F#2",
          "midi": 42,
          "time": 458.495833333328,
          "velocity": 1,
          "duration": 0.25
        },
        {
          "name": "C#3",
          "midi": 49,
          "time": 458.495833333328,
          "velocity": 1,
          "duration": 0.25
        },
        {
          "name": "F#2",
          "midi": 42,
          "time": 458.745833333328,
          "velocity": 1,
          "duration": 0.25
        },
        {
          "name": "C#3",
          "midi": 49,
          "time": 458.745833333328,
          "velocity": 1,
          "duration": 0.25
        },
        {
          "name": "F#2",
          "midi": 42,
          "time": 458.745833333328,
          "velocity": 1,
          "duration": 0.25
        },
        {
          "name": "C#3",
          "midi": 49,
          "time": 458.745833333328,
          "velocity": 1,
          "duration": 0.25
        },
        {
          "name": "D3",
          "midi": 50,
          "time": 458.995833333328,
          "velocity": 1,
          "duration": 0.25
        },
        {
          "name": "G2",
          "midi": 43,
          "time": 458.995833333328,
          "velocity": 1,
          "duration": 0.25
        },
        {
          "name": "D3",
          "midi": 50,
          "time": 458.995833333328,
          "velocity": 1,
          "duration": 0.25
        },
        {
          "name": "G2",
          "midi": 43,
          "time": 458.995833333328,
          "velocity": 1,
          "duration": 0.25
        },
        {
          "name": "C#3",
          "midi": 49,
          "time": 459.245833333328,
          "velocity": 1,
          "duration": 0.25
        },
        {
          "name": "G#3",
          "midi": 56,
          "time": 459.245833333328,
          "velocity": 1,
          "duration": 0.25
        },
        {
          "name": "G#3",
          "midi": 56,
          "time": 459.245833333328,
          "velocity": 1,
          "duration": 0.25
        },
        {
          "name": "C#3",
          "midi": 49,
          "time": 459.245833333328,
          "velocity": 1,
          "duration": 0.25
        },
        {
          "name": "C#3",
          "midi": 49,
          "time": 459.495833333328,
          "velocity": 1,
          "duration": 0.25
        },
        {
          "name": "F#2",
          "midi": 42,
          "time": 459.495833333328,
          "velocity": 1,
          "duration": 0.25
        },
        {
          "name": "C#3",
          "midi": 49,
          "time": 459.495833333328,
          "velocity": 1,
          "duration": 0.25
        },
        {
          "name": "F#2",
          "midi": 42,
          "time": 459.495833333328,
          "velocity": 1,
          "duration": 0.25
        },
        {
          "name": "F#2",
          "midi": 42,
          "time": 459.745833333328,
          "velocity": 1,
          "duration": 0.25
        },
        {
          "name": "C#3",
          "midi": 49,
          "time": 459.745833333328,
          "velocity": 1,
          "duration": 0.25
        },
        {
          "name": "C#3",
          "midi": 49,
          "time": 459.745833333328,
          "velocity": 1,
          "duration": 0.25
        },
        {
          "name": "F#2",
          "midi": 42,
          "time": 459.745833333328,
          "velocity": 1,
          "duration": 0.25
        },
        {
          "name": "D3",
          "midi": 50,
          "time": 459.995833333328,
          "velocity": 1,
          "duration": 0.25
        },
        {
          "name": "G2",
          "midi": 43,
          "time": 459.995833333328,
          "velocity": 1,
          "duration": 0.25
        },
        {
          "name": "G2",
          "midi": 43,
          "time": 459.995833333328,
          "velocity": 1,
          "duration": 0.25
        },
        {
          "name": "D3",
          "midi": 50,
          "time": 459.995833333328,
          "velocity": 1,
          "duration": 0.25
        },
        {
          "name": "F#2",
          "midi": 42,
          "time": 460.245833333328,
          "velocity": 1,
          "duration": 0.25
        },
        {
          "name": "C#3",
          "midi": 49,
          "time": 460.245833333328,
          "velocity": 1,
          "duration": 0.25
        },
        {
          "name": "C#3",
          "midi": 49,
          "time": 460.245833333328,
          "velocity": 1,
          "duration": 0.25
        },
        {
          "name": "F#2",
          "midi": 42,
          "time": 460.245833333328,
          "velocity": 1,
          "duration": 0.25
        },
        {
          "name": "F#2",
          "midi": 42,
          "time": 460.495833333328,
          "velocity": 1,
          "duration": 0.25
        },
        {
          "name": "C#3",
          "midi": 49,
          "time": 460.495833333328,
          "velocity": 1,
          "duration": 0.25
        },
        {
          "name": "C#3",
          "midi": 49,
          "time": 460.495833333328,
          "velocity": 1,
          "duration": 0.25
        },
        {
          "name": "F#2",
          "midi": 42,
          "time": 460.495833333328,
          "velocity": 1,
          "duration": 0.25
        },
        {
          "name": "F#2",
          "midi": 42,
          "time": 460.745833333328,
          "velocity": 1,
          "duration": 0.25
        },
        {
          "name": "C#3",
          "midi": 49,
          "time": 460.745833333328,
          "velocity": 1,
          "duration": 0.25
        },
        {
          "name": "F#2",
          "midi": 42,
          "time": 460.745833333328,
          "velocity": 1,
          "duration": 0.25
        },
        {
          "name": "C#3",
          "midi": 49,
          "time": 460.745833333328,
          "velocity": 1,
          "duration": 0.25
        },
        {
          "name": "G2",
          "midi": 43,
          "time": 460.995833333328,
          "velocity": 1,
          "duration": 0.25
        },
        {
          "name": "D3",
          "midi": 50,
          "time": 460.995833333328,
          "velocity": 1,
          "duration": 0.25
        },
        {
          "name": "D3",
          "midi": 50,
          "time": 460.995833333328,
          "velocity": 1,
          "duration": 0.25
        },
        {
          "name": "G2",
          "midi": 43,
          "time": 460.995833333328,
          "velocity": 1,
          "duration": 0.25
        },
        {
          "name": "C#3",
          "midi": 49,
          "time": 461.245833333328,
          "velocity": 1,
          "duration": 0.25
        },
        {
          "name": "C#3",
          "midi": 49,
          "time": 461.245833333328,
          "velocity": 1,
          "duration": 0.25
        },
        {
          "name": "C#3",
          "midi": 49,
          "time": 461.370833333328,
          "velocity": 1,
          "duration": 0.25
        },
        {
          "name": "C#3",
          "midi": 49,
          "time": 461.370833333328,
          "velocity": 1,
          "duration": 0.25
        },
        {
          "name": "C#3",
          "midi": 49,
          "time": 461.495833333328,
          "velocity": 1,
          "duration": 0.25
        },
        {
          "name": "F#2",
          "midi": 42,
          "time": 461.495833333328,
          "velocity": 1,
          "duration": 0.25
        },
        {
          "name": "C#3",
          "midi": 49,
          "time": 461.495833333328,
          "velocity": 1,
          "duration": 0.25
        },
        {
          "name": "F#2",
          "midi": 42,
          "time": 461.495833333328,
          "velocity": 1,
          "duration": 0.25
        },
        {
          "name": "C#3",
          "midi": 49,
          "time": 461.745833333328,
          "velocity": 1,
          "duration": 0.25
        },
        {
          "name": "F#2",
          "midi": 42,
          "time": 461.745833333328,
          "velocity": 1,
          "duration": 0.25
        },
        {
          "name": "C#3",
          "midi": 49,
          "time": 461.745833333328,
          "velocity": 1,
          "duration": 0.25
        },
        {
          "name": "F#2",
          "midi": 42,
          "time": 461.745833333328,
          "velocity": 1,
          "duration": 0.25
        },
        {
          "name": "D3",
          "midi": 50,
          "time": 461.995833333328,
          "velocity": 1,
          "duration": 0.25
        },
        {
          "name": "G2",
          "midi": 43,
          "time": 461.995833333328,
          "velocity": 1,
          "duration": 0.25
        },
        {
          "name": "G2",
          "midi": 43,
          "time": 461.995833333328,
          "velocity": 1,
          "duration": 0.25
        },
        {
          "name": "D3",
          "midi": 50,
          "time": 461.995833333328,
          "velocity": 1,
          "duration": 0.25
        },
        {
          "name": "C#3",
          "midi": 49,
          "time": 462.245833333328,
          "velocity": 1,
          "duration": 0.25
        },
        {
          "name": "F#2",
          "midi": 42,
          "time": 462.245833333328,
          "velocity": 1,
          "duration": 0.25
        },
        {
          "name": "F#2",
          "midi": 42,
          "time": 462.245833333328,
          "velocity": 1,
          "duration": 0.25
        },
        {
          "name": "C#3",
          "midi": 49,
          "time": 462.245833333328,
          "velocity": 1,
          "duration": 0.25
        },
        {
          "name": "F#2",
          "midi": 42,
          "time": 462.495833333328,
          "velocity": 1,
          "duration": 0.25
        },
        {
          "name": "C#3",
          "midi": 49,
          "time": 462.495833333328,
          "velocity": 1,
          "duration": 0.25
        },
        {
          "name": "C#3",
          "midi": 49,
          "time": 462.495833333328,
          "velocity": 1,
          "duration": 0.25
        },
        {
          "name": "F#2",
          "midi": 42,
          "time": 462.495833333328,
          "velocity": 1,
          "duration": 0.25
        },
        {
          "name": "C#3",
          "midi": 49,
          "time": 462.745833333328,
          "velocity": 1,
          "duration": 0.25
        },
        {
          "name": "F#2",
          "midi": 42,
          "time": 462.745833333328,
          "velocity": 1,
          "duration": 0.25
        },
        {
          "name": "F#2",
          "midi": 42,
          "time": 462.745833333328,
          "velocity": 1,
          "duration": 0.25
        },
        {
          "name": "C#3",
          "midi": 49,
          "time": 462.745833333328,
          "velocity": 1,
          "duration": 0.25
        },
        {
          "name": "D3",
          "midi": 50,
          "time": 462.995833333328,
          "velocity": 1,
          "duration": 0.25
        },
        {
          "name": "G2",
          "midi": 43,
          "time": 462.995833333328,
          "velocity": 1,
          "duration": 0.25
        },
        {
          "name": "G2",
          "midi": 43,
          "time": 462.995833333328,
          "velocity": 1,
          "duration": 0.25
        },
        {
          "name": "D3",
          "midi": 50,
          "time": 462.995833333328,
          "velocity": 1,
          "duration": 0.25
        },
        {
          "name": "G#3",
          "midi": 56,
          "time": 463.245833333328,
          "velocity": 1,
          "duration": 0.25
        },
        {
          "name": "C#3",
          "midi": 49,
          "time": 463.245833333328,
          "velocity": 1,
          "duration": 0.25
        },
        {
          "name": "C#3",
          "midi": 49,
          "time": 463.245833333328,
          "velocity": 1,
          "duration": 0.25
        },
        {
          "name": "G#3",
          "midi": 56,
          "time": 463.245833333328,
          "velocity": 1,
          "duration": 0.25
        },
        {
          "name": "F#4",
          "midi": 66,
          "time": 463.49166666666133,
          "velocity": 1,
          "duration": 0.2249999999999659
        },
        {
          "name": "F#2",
          "midi": 42,
          "time": 463.495833333328,
          "velocity": 1,
          "duration": 0.24999999999994316
        },
        {
          "name": "C#3",
          "midi": 49,
          "time": 463.495833333328,
          "velocity": 1,
          "duration": 0.24999999999994316
        },
        {
          "name": "C#3",
          "midi": 49,
          "time": 463.495833333328,
          "velocity": 1,
          "duration": 0.24999999999994316
        },
        {
          "name": "F#2",
          "midi": 42,
          "time": 463.495833333328,
          "velocity": 1,
          "duration": 0.24999999999994316
        },
        {
          "name": "F#5",
          "midi": 78,
          "time": 463.49999999999466,
          "velocity": 1,
          "duration": 0.24999999999994316
        },
        {
          "name": "F#4",
          "midi": 66,
          "time": 463.74583333332794,
          "velocity": 1,
          "duration": 0.7458333333333371
        },
        {
          "name": "C#3",
          "midi": 49,
          "time": 463.74583333332794,
          "velocity": 1,
          "duration": 0.25
        },
        {
          "name": "F#2",
          "midi": 42,
          "time": 463.74583333332794,
          "velocity": 1,
          "duration": 0.25
        },
        {
          "name": "F#2",
          "midi": 42,
          "time": 463.74583333332794,
          "velocity": 1,
          "duration": 0.25
        },
        {
          "name": "C#3",
          "midi": 49,
          "time": 463.74583333332794,
          "velocity": 1,
          "duration": 0.25
        },
        {
          "name": "F#5",
          "midi": 78,
          "time": 463.7499999999946,
          "velocity": 1,
          "duration": 0.75
        },
        {
          "name": "G2",
          "midi": 43,
          "time": 463.99583333332794,
          "velocity": 1,
          "duration": 0.25
        },
        {
          "name": "D3",
          "midi": 50,
          "time": 463.99583333332794,
          "velocity": 1,
          "duration": 0.25
        },
        {
          "name": "D3",
          "midi": 50,
          "time": 463.99583333332794,
          "velocity": 1,
          "duration": 0.25
        },
        {
          "name": "G2",
          "midi": 43,
          "time": 463.99583333332794,
          "velocity": 1,
          "duration": 0.25
        },
        {
          "name": "C#3",
          "midi": 49,
          "time": 464.24583333332794,
          "velocity": 1,
          "duration": 0.25
        },
        {
          "name": "F#2",
          "midi": 42,
          "time": 464.24583333332794,
          "velocity": 1,
          "duration": 0.25
        },
        {
          "name": "C#3",
          "midi": 49,
          "time": 464.24583333332794,
          "velocity": 1,
          "duration": 0.25
        },
        {
          "name": "F#2",
          "midi": 42,
          "time": 464.24583333332794,
          "velocity": 1,
          "duration": 0.25
        },
        {
          "name": "C#3",
          "midi": 49,
          "time": 464.49583333332794,
          "velocity": 1,
          "duration": 0.25
        },
        {
          "name": "F#2",
          "midi": 42,
          "time": 464.49583333332794,
          "velocity": 1,
          "duration": 0.25
        },
        {
          "name": "C#3",
          "midi": 49,
          "time": 464.49583333332794,
          "velocity": 1,
          "duration": 0.25
        },
        {
          "name": "F#2",
          "midi": 42,
          "time": 464.49583333332794,
          "velocity": 1,
          "duration": 0.25
        },
        {
          "name": "F#5",
          "midi": 78,
          "time": 464.4999999999946,
          "velocity": 1,
          "duration": 0.25
        },
        {
          "name": "F#4",
          "midi": 66,
          "time": 464.4999999999946,
          "velocity": 1,
          "duration": 0.23750000000001137
        },
        {
          "name": "F#4",
          "midi": 66,
          "time": 464.7374999999946,
          "velocity": 1,
          "duration": 0.7458333333333371
        },
        {
          "name": "C#3",
          "midi": 49,
          "time": 464.74583333332794,
          "velocity": 1,
          "duration": 0.25
        },
        {
          "name": "F#2",
          "midi": 42,
          "time": 464.74583333332794,
          "velocity": 1,
          "duration": 0.25
        },
        {
          "name": "F#2",
          "midi": 42,
          "time": 464.74583333332794,
          "velocity": 1,
          "duration": 0.25
        },
        {
          "name": "C#3",
          "midi": 49,
          "time": 464.74583333332794,
          "velocity": 1,
          "duration": 0.25
        },
        {
          "name": "F#5",
          "midi": 78,
          "time": 464.7499999999946,
          "velocity": 1,
          "duration": 0.75
        },
        {
          "name": "G2",
          "midi": 43,
          "time": 464.99583333332794,
          "velocity": 1,
          "duration": 0.25
        },
        {
          "name": "D3",
          "midi": 50,
          "time": 464.99583333332794,
          "velocity": 1,
          "duration": 0.25
        },
        {
          "name": "G2",
          "midi": 43,
          "time": 464.99583333332794,
          "velocity": 1,
          "duration": 0.25
        },
        {
          "name": "D3",
          "midi": 50,
          "time": 464.99583333332794,
          "velocity": 1,
          "duration": 0.25
        },
        {
          "name": "C#3",
          "midi": 49,
          "time": 465.24583333332794,
          "velocity": 1,
          "duration": 0.25
        },
        {
          "name": "C#3",
          "midi": 49,
          "time": 465.24583333332794,
          "velocity": 1,
          "duration": 0.25
        },
        {
          "name": "C#3",
          "midi": 49,
          "time": 465.37083333332794,
          "velocity": 1,
          "duration": 0.25
        },
        {
          "name": "C#3",
          "midi": 49,
          "time": 465.37083333332794,
          "velocity": 1,
          "duration": 0.25
        },
        {
          "name": "F#4",
          "midi": 66,
          "time": 465.4916666666613,
          "velocity": 1,
          "duration": 0.2666666666666515
        },
        {
          "name": "F#2",
          "midi": 42,
          "time": 465.49583333332794,
          "velocity": 1,
          "duration": 0.25
        },
        {
          "name": "C#3",
          "midi": 49,
          "time": 465.49583333332794,
          "velocity": 1,
          "duration": 0.25
        },
        {
          "name": "C#3",
          "midi": 49,
          "time": 465.49583333332794,
          "velocity": 1,
          "duration": 0.25
        },
        {
          "name": "F#2",
          "midi": 42,
          "time": 465.49583333332794,
          "velocity": 1,
          "duration": 0.25
        },
        {
          "name": "F#5",
          "midi": 78,
          "time": 465.4999999999946,
          "velocity": 1,
          "duration": 0.25
        },
        {
          "name": "F#2",
          "midi": 42,
          "time": 465.74583333332794,
          "velocity": 1,
          "duration": 0.25
        },
        {
          "name": "C#3",
          "midi": 49,
          "time": 465.74583333332794,
          "velocity": 1,
          "duration": 0.25
        },
        {
          "name": "C#3",
          "midi": 49,
          "time": 465.74583333332794,
          "velocity": 1,
          "duration": 0.25
        },
        {
          "name": "F#2",
          "midi": 42,
          "time": 465.74583333332794,
          "velocity": 1,
          "duration": 0.25
        },
        {
          "name": "F#5",
          "midi": 78,
          "time": 465.7499999999946,
          "velocity": 1,
          "duration": 0.25
        },
        {
          "name": "F#4",
          "midi": 66,
          "time": 465.75416666666126,
          "velocity": 1,
          "duration": 0.24583333333333712
        },
        {
          "name": "F#4",
          "midi": 66,
          "time": 465.9916666666613,
          "velocity": 1,
          "duration": 0.22916666666668561
        },
        {
          "name": "G2",
          "midi": 43,
          "time": 465.99583333332794,
          "velocity": 1,
          "duration": 0.25
        },
        {
          "name": "D3",
          "midi": 50,
          "time": 465.99583333332794,
          "velocity": 1,
          "duration": 0.25
        },
        {
          "name": "G2",
          "midi": 43,
          "time": 465.99583333332794,
          "velocity": 1,
          "duration": 0.25
        },
        {
          "name": "D3",
          "midi": 50,
          "time": 465.99583333332794,
          "velocity": 1,
          "duration": 0.25
        },
        {
          "name": "F#5",
          "midi": 78,
          "time": 465.9999999999946,
          "velocity": 1,
          "duration": 0.25
        },
        {
          "name": "F#2",
          "midi": 42,
          "time": 466.24583333332794,
          "velocity": 1,
          "duration": 0.25
        },
        {
          "name": "C#3",
          "midi": 49,
          "time": 466.24583333332794,
          "velocity": 1,
          "duration": 0.25
        },
        {
          "name": "C#3",
          "midi": 49,
          "time": 466.24583333332794,
          "velocity": 1,
          "duration": 0.25
        },
        {
          "name": "F#2",
          "midi": 42,
          "time": 466.24583333332794,
          "velocity": 1,
          "duration": 0.25
        },
        {
          "name": "F#5",
          "midi": 78,
          "time": 466.2499999999946,
          "velocity": 1,
          "duration": 0.125
        },
        {
          "name": "F#4",
          "midi": 66,
          "time": 466.25416666666126,
          "velocity": 1,
          "duration": 0.125
        },
        {
          "name": "F#5",
          "midi": 78,
          "time": 466.3541666666613,
          "velocity": 0.5905511811023622,
          "duration": 0.020833333333314386
        },
        {
          "name": "F#4",
          "midi": 66,
          "time": 466.3624999999946,
          "velocity": 0.5905511811023622,
          "duration": 0.02916666666664014
        },
        {
          "name": "A5",
          "midi": 81,
          "time": 466.3749999999946,
          "velocity": 1,
          "duration": 0.25
        },
        {
          "name": "A4",
          "midi": 69,
          "time": 466.3833333333279,
          "velocity": 1,
          "duration": 0.26249999999998863
        },
        {
          "name": "C#3",
          "midi": 49,
          "time": 466.49583333332794,
          "velocity": 1,
          "duration": 0.25
        },
        {
          "name": "F#2",
          "midi": 42,
          "time": 466.49583333332794,
          "velocity": 1,
          "duration": 0.25
        },
        {
          "name": "C#3",
          "midi": 49,
          "time": 466.49583333332794,
          "velocity": 1,
          "duration": 0.25
        },
        {
          "name": "F#2",
          "midi": 42,
          "time": 466.49583333332794,
          "velocity": 1,
          "duration": 0.25
        },
        {
          "name": "A5",
          "midi": 81,
          "time": 466.6249999999946,
          "velocity": 1,
          "duration": 0.25
        },
        {
          "name": "A4",
          "midi": 69,
          "time": 466.62916666666126,
          "velocity": 1,
          "duration": 0.2666666666666515
        },
        {
          "name": "F#2",
          "midi": 42,
          "time": 466.74583333332794,
          "velocity": 1,
          "duration": 0.25
        },
        {
          "name": "C#3",
          "midi": 49,
          "time": 466.74583333332794,
          "velocity": 1,
          "duration": 0.25
        },
        {
          "name": "F#2",
          "midi": 42,
          "time": 466.74583333332794,
          "velocity": 1,
          "duration": 0.25
        },
        {
          "name": "C#3",
          "midi": 49,
          "time": 466.74583333332794,
          "velocity": 1,
          "duration": 0.25
        },
        {
          "name": "G#4",
          "midi": 68,
          "time": 466.8666666666613,
          "velocity": 1,
          "duration": 0.2666666666666515
        },
        {
          "name": "G#5",
          "midi": 80,
          "time": 466.8749999999946,
          "velocity": 1,
          "duration": 0.25
        },
        {
          "name": "D3",
          "midi": 50,
          "time": 466.99583333332794,
          "velocity": 1,
          "duration": 0.25
        },
        {
          "name": "G2",
          "midi": 43,
          "time": 466.99583333332794,
          "velocity": 1,
          "duration": 0.25
        },
        {
          "name": "G2",
          "midi": 43,
          "time": 466.99583333332794,
          "velocity": 1,
          "duration": 0.25
        },
        {
          "name": "D3",
          "midi": 50,
          "time": 466.99583333332794,
          "velocity": 1,
          "duration": 0.25
        },
        {
          "name": "F#5",
          "midi": 78,
          "time": 467.1249999999946,
          "velocity": 1,
          "duration": 0.375
        },
        {
          "name": "F#4",
          "midi": 66,
          "time": 467.1333333333279,
          "velocity": 1,
          "duration": 0.36250000000001137
        },
        {
          "name": "C#3",
          "midi": 49,
          "time": 467.24583333332794,
          "velocity": 1,
          "duration": 0.25
        },
        {
          "name": "G#3",
          "midi": 56,
          "time": 467.24583333332794,
          "velocity": 1,
          "duration": 0.25
        },
        {
          "name": "C#3",
          "midi": 49,
          "time": 467.24583333332794,
          "velocity": 1,
          "duration": 0.25
        },
        {
          "name": "G#3",
          "midi": 56,
          "time": 467.24583333332794,
          "velocity": 1,
          "duration": 0.25
        },
        {
          "name": "F#4",
          "midi": 66,
          "time": 467.4874999999946,
          "velocity": 1,
          "duration": 0.2666666666666515
        },
        {
          "name": "C#3",
          "midi": 49,
          "time": 467.49583333332794,
          "velocity": 1,
          "duration": 0.25
        },
        {
          "name": "F#2",
          "midi": 42,
          "time": 467.49583333332794,
          "velocity": 1,
          "duration": 0.25
        },
        {
          "name": "C#3",
          "midi": 49,
          "time": 467.49583333332794,
          "velocity": 1,
          "duration": 0.25
        },
        {
          "name": "F#2",
          "midi": 42,
          "time": 467.49583333332794,
          "velocity": 1,
          "duration": 0.25
        },
        {
          "name": "F#5",
          "midi": 78,
          "time": 467.4999999999946,
          "velocity": 1,
          "duration": 0.25
        },
        {
          "name": "F#4",
          "midi": 66,
          "time": 467.7374999999946,
          "velocity": 1,
          "duration": 0.7541666666666629
        },
        {
          "name": "C#3",
          "midi": 49,
          "time": 467.74583333332794,
          "velocity": 1,
          "duration": 0.25
        },
        {
          "name": "F#2",
          "midi": 42,
          "time": 467.74583333332794,
          "velocity": 1,
          "duration": 0.25
        },
        {
          "name": "C#3",
          "midi": 49,
          "time": 467.74583333332794,
          "velocity": 1,
          "duration": 0.25
        },
        {
          "name": "F#2",
          "midi": 42,
          "time": 467.74583333332794,
          "velocity": 1,
          "duration": 0.25
        },
        {
          "name": "F#5",
          "midi": 78,
          "time": 467.7499999999946,
          "velocity": 1,
          "duration": 0.75
        },
        {
          "name": "D3",
          "midi": 50,
          "time": 467.99583333332794,
          "velocity": 1,
          "duration": 0.25
        },
        {
          "name": "G2",
          "midi": 43,
          "time": 467.99583333332794,
          "velocity": 1,
          "duration": 0.25
        },
        {
          "name": "G2",
          "midi": 43,
          "time": 467.99583333332794,
          "velocity": 1,
          "duration": 0.25
        },
        {
          "name": "D3",
          "midi": 50,
          "time": 467.99583333332794,
          "velocity": 1,
          "duration": 0.25
        },
        {
          "name": "F#2",
          "midi": 42,
          "time": 468.24583333332794,
          "velocity": 1,
          "duration": 0.25
        },
        {
          "name": "C#3",
          "midi": 49,
          "time": 468.24583333332794,
          "velocity": 1,
          "duration": 0.25
        },
        {
          "name": "C#3",
          "midi": 49,
          "time": 468.24583333332794,
          "velocity": 1,
          "duration": 0.25
        },
        {
          "name": "F#2",
          "midi": 42,
          "time": 468.24583333332794,
          "velocity": 1,
          "duration": 0.25
        },
        {
          "name": "F#2",
          "midi": 42,
          "time": 468.49583333332794,
          "velocity": 1,
          "duration": 0.25
        },
        {
          "name": "C#3",
          "midi": 49,
          "time": 468.49583333332794,
          "velocity": 1,
          "duration": 0.25
        },
        {
          "name": "F#2",
          "midi": 42,
          "time": 468.49583333332794,
          "velocity": 1,
          "duration": 0.25
        },
        {
          "name": "C#3",
          "midi": 49,
          "time": 468.49583333332794,
          "velocity": 1,
          "duration": 0.25
        },
        {
          "name": "F#5",
          "midi": 78,
          "time": 468.4999999999946,
          "velocity": 1,
          "duration": 0.25
        },
        {
          "name": "F#4",
          "midi": 66,
          "time": 468.50416666666126,
          "velocity": 1,
          "duration": 0.25833333333332575
        },
        {
          "name": "F#2",
          "midi": 42,
          "time": 468.74583333332794,
          "velocity": 1,
          "duration": 0.25
        },
        {
          "name": "C#3",
          "midi": 49,
          "time": 468.74583333332794,
          "velocity": 1,
          "duration": 0.25
        },
        {
          "name": "C#3",
          "midi": 49,
          "time": 468.74583333332794,
          "velocity": 1,
          "duration": 0.25
        },
        {
          "name": "F#2",
          "midi": 42,
          "time": 468.74583333332794,
          "velocity": 1,
          "duration": 0.25
        },
        {
          "name": "F#5",
          "midi": 78,
          "time": 468.7499999999946,
          "velocity": 1,
          "duration": 0.75
        },
        {
          "name": "F#4",
          "midi": 66,
          "time": 468.7499999999946,
          "velocity": 1,
          "duration": 0.7624999999999886
        },
        {
          "name": "D3",
          "midi": 50,
          "time": 468.99583333332794,
          "velocity": 1,
          "duration": 0.25
        },
        {
          "name": "G2",
          "midi": 43,
          "time": 468.99583333332794,
          "velocity": 1,
          "duration": 0.25
        },
        {
          "name": "D3",
          "midi": 50,
          "time": 468.99583333332794,
          "velocity": 1,
          "duration": 0.25
        },
        {
          "name": "G2",
          "midi": 43,
          "time": 468.99583333332794,
          "velocity": 1,
          "duration": 0.25
        },
        {
          "name": "C#3",
          "midi": 49,
          "time": 469.24583333332794,
          "velocity": 1,
          "duration": 0.25
        },
        {
          "name": "C#3",
          "midi": 49,
          "time": 469.24583333332794,
          "velocity": 1,
          "duration": 0.25
        },
        {
          "name": "C#3",
          "midi": 49,
          "time": 469.37083333332794,
          "velocity": 1,
          "duration": 0.25
        },
        {
          "name": "C#3",
          "midi": 49,
          "time": 469.37083333332794,
          "velocity": 1,
          "duration": 0.25
        },
        {
          "name": "C#3",
          "midi": 49,
          "time": 469.49583333332794,
          "velocity": 1,
          "duration": 0.25
        },
        {
          "name": "F#2",
          "midi": 42,
          "time": 469.49583333332794,
          "velocity": 1,
          "duration": 0.25
        },
        {
          "name": "F#2",
          "midi": 42,
          "time": 469.49583333332794,
          "velocity": 1,
          "duration": 0.25
        },
        {
          "name": "C#3",
          "midi": 49,
          "time": 469.49583333332794,
          "velocity": 1,
          "duration": 0.25
        },
        {
          "name": "F#5",
          "midi": 78,
          "time": 469.4999999999946,
          "velocity": 1,
          "duration": 0.125
        },
        {
          "name": "F#4",
          "midi": 66,
          "time": 469.4999999999946,
          "velocity": 1,
          "duration": 0.13749999999998863
        },
        {
          "name": "F#5",
          "midi": 78,
          "time": 469.6249999999946,
          "velocity": 1,
          "duration": 0.25
        },
        {
          "name": "F#4",
          "midi": 66,
          "time": 469.6333333333279,
          "velocity": 1,
          "duration": 0.2666666666666515
        },
        {
          "name": "C#3",
          "midi": 49,
          "time": 469.74583333332794,
          "velocity": 1,
          "duration": 0.25
        },
        {
          "name": "F#2",
          "midi": 42,
          "time": 469.74583333332794,
          "velocity": 1,
          "duration": 0.25
        },
        {
          "name": "F#2",
          "midi": 42,
          "time": 469.74583333332794,
          "velocity": 1,
          "duration": 0.25
        },
        {
          "name": "C#3",
          "midi": 49,
          "time": 469.74583333332794,
          "velocity": 1,
          "duration": 0.25
        },
        {
          "name": "F#4",
          "midi": 66,
          "time": 469.8624999999946,
          "velocity": 1,
          "duration": 0.2666666666666515
        },
        {
          "name": "F#5",
          "midi": 78,
          "time": 469.8749999999946,
          "velocity": 1,
          "duration": 0.25
        },
        {
          "name": "D3",
          "midi": 50,
          "time": 469.99583333332794,
          "velocity": 1,
          "duration": 0.25
        },
        {
          "name": "G2",
          "midi": 43,
          "time": 469.99583333332794,
          "velocity": 1,
          "duration": 0.25
        },
        {
          "name": "G2",
          "midi": 43,
          "time": 469.99583333332794,
          "velocity": 1,
          "duration": 0.25
        },
        {
          "name": "D3",
          "midi": 50,
          "time": 469.99583333332794,
          "velocity": 1,
          "duration": 0.25
        },
        {
          "name": "F#5",
          "midi": 78,
          "time": 470.1249999999946,
          "velocity": 1,
          "duration": 0.25
        },
        {
          "name": "F#4",
          "midi": 66,
          "time": 470.1333333333279,
          "velocity": 1,
          "duration": 0.2666666666666515
        },
        {
          "name": "C#3",
          "midi": 49,
          "time": 470.24583333332794,
          "velocity": 1,
          "duration": 0.25
        },
        {
          "name": "F#2",
          "midi": 42,
          "time": 470.24583333332794,
          "velocity": 1,
          "duration": 0.25
        },
        {
          "name": "C#3",
          "midi": 49,
          "time": 470.24583333332794,
          "velocity": 1,
          "duration": 0.25
        },
        {
          "name": "F#2",
          "midi": 42,
          "time": 470.24583333332794,
          "velocity": 1,
          "duration": 0.25
        },
        {
          "name": "F#5",
          "midi": 78,
          "time": 470.3749999999946,
          "velocity": 1,
          "duration": 0.625
        },
        {
          "name": "F#4",
          "midi": 66,
          "time": 470.3749999999946,
          "velocity": 1,
          "duration": 0.625
        },
        {
          "name": "F#2",
          "midi": 42,
          "time": 470.49583333332794,
          "velocity": 1,
          "duration": 0.25
        },
        {
          "name": "C#3",
          "midi": 49,
          "time": 470.49583333332794,
          "velocity": 1,
          "duration": 0.25
        },
        {
          "name": "F#2",
          "midi": 42,
          "time": 470.49583333332794,
          "velocity": 1,
          "duration": 0.25
        },
        {
          "name": "C#3",
          "midi": 49,
          "time": 470.49583333332794,
          "velocity": 1,
          "duration": 0.25
        },
        {
          "name": "C#3",
          "midi": 49,
          "time": 470.74583333332794,
          "velocity": 1,
          "duration": 0.25
        },
        {
          "name": "F#2",
          "midi": 42,
          "time": 470.74583333332794,
          "velocity": 1,
          "duration": 0.25
        },
        {
          "name": "C#3",
          "midi": 49,
          "time": 470.74583333332794,
          "velocity": 1,
          "duration": 0.25
        },
        {
          "name": "F#2",
          "midi": 42,
          "time": 470.74583333332794,
          "velocity": 1,
          "duration": 0.25
        },
        {
          "name": "D3",
          "midi": 50,
          "time": 470.99583333332794,
          "velocity": 1,
          "duration": 0.25
        },
        {
          "name": "G2",
          "midi": 43,
          "time": 470.99583333332794,
          "velocity": 1,
          "duration": 0.25
        },
        {
          "name": "G2",
          "midi": 43,
          "time": 470.99583333332794,
          "velocity": 1,
          "duration": 0.25
        },
        {
          "name": "D3",
          "midi": 50,
          "time": 470.99583333332794,
          "velocity": 1,
          "duration": 0.25
        },
        {
          "name": "G#3",
          "midi": 56,
          "time": 471.24583333332794,
          "velocity": 1,
          "duration": 0.25
        },
        {
          "name": "C#3",
          "midi": 49,
          "time": 471.24583333332794,
          "velocity": 1,
          "duration": 0.25
        },
        {
          "name": "G#3",
          "midi": 56,
          "time": 471.24583333332794,
          "velocity": 1,
          "duration": 0.25
        },
        {
          "name": "C#3",
          "midi": 49,
          "time": 471.24583333332794,
          "velocity": 1,
          "duration": 0.25
        },
        {
          "name": "F#4",
          "midi": 66,
          "time": 471.4916666666613,
          "velocity": 1,
          "duration": 0.24583333333333712
        },
        {
          "name": "F#2",
          "midi": 42,
          "time": 471.49583333332794,
          "velocity": 1,
          "duration": 0.25
        },
        {
          "name": "C#3",
          "midi": 49,
          "time": 471.49583333332794,
          "velocity": 1,
          "duration": 0.25
        },
        {
          "name": "F#2",
          "midi": 42,
          "time": 471.49583333332794,
          "velocity": 1,
          "duration": 0.25
        },
        {
          "name": "C#3",
          "midi": 49,
          "time": 471.49583333332794,
          "velocity": 1,
          "duration": 0.25
        },
        {
          "name": "F#5",
          "midi": 78,
          "time": 471.4999999999946,
          "velocity": 1,
          "duration": 0.25
        },
        {
          "name": "F#4",
          "midi": 66,
          "time": 471.7374999999946,
          "velocity": 1,
          "duration": 0.7291666666666856
        },
        {
          "name": "C#3",
          "midi": 49,
          "time": 471.74583333332794,
          "velocity": 1,
          "duration": 0.25
        },
        {
          "name": "F#2",
          "midi": 42,
          "time": 471.74583333332794,
          "velocity": 1,
          "duration": 0.25
        },
        {
          "name": "F#2",
          "midi": 42,
          "time": 471.74583333332794,
          "velocity": 1,
          "duration": 0.25
        },
        {
          "name": "C#3",
          "midi": 49,
          "time": 471.74583333332794,
          "velocity": 1,
          "duration": 0.25
        },
        {
          "name": "F#5",
          "midi": 78,
          "time": 471.7499999999946,
          "velocity": 1,
          "duration": 0.75
        },
        {
          "name": "G2",
          "midi": 43,
          "time": 471.99583333332794,
          "velocity": 1,
          "duration": 0.25
        },
        {
          "name": "D3",
          "midi": 50,
          "time": 471.99583333332794,
          "velocity": 1,
          "duration": 0.25
        },
        {
          "name": "G2",
          "midi": 43,
          "time": 471.99583333332794,
          "velocity": 1,
          "duration": 0.25
        },
        {
          "name": "D3",
          "midi": 50,
          "time": 471.99583333332794,
          "velocity": 1,
          "duration": 0.25
        },
        {
          "name": "C#3",
          "midi": 49,
          "time": 472.24583333332794,
          "velocity": 1,
          "duration": 0.25
        },
        {
          "name": "F#2",
          "midi": 42,
          "time": 472.24583333332794,
          "velocity": 1,
          "duration": 0.25
        },
        {
          "name": "F#2",
          "midi": 42,
          "time": 472.24583333332794,
          "velocity": 1,
          "duration": 0.25
        },
        {
          "name": "C#3",
          "midi": 49,
          "time": 472.24583333332794,
          "velocity": 1,
          "duration": 0.25
        },
        {
          "name": "C#3",
          "midi": 49,
          "time": 472.49583333332794,
          "velocity": 1,
          "duration": 0.25
        },
        {
          "name": "F#2",
          "midi": 42,
          "time": 472.49583333332794,
          "velocity": 1,
          "duration": 0.25
        },
        {
          "name": "F#2",
          "midi": 42,
          "time": 472.49583333332794,
          "velocity": 1,
          "duration": 0.25
        },
        {
          "name": "C#3",
          "midi": 49,
          "time": 472.49583333332794,
          "velocity": 1,
          "duration": 0.25
        },
        {
          "name": "F#5",
          "midi": 78,
          "time": 472.4999999999946,
          "velocity": 1,
          "duration": 0.25
        },
        {
          "name": "F#4",
          "midi": 66,
          "time": 472.4999999999946,
          "velocity": 1,
          "duration": 0.24166666666667425
        },
        {
          "name": "F#4",
          "midi": 66,
          "time": 472.7416666666613,
          "velocity": 1,
          "duration": 0.7624999999999886
        },
        {
          "name": "C#3",
          "midi": 49,
          "time": 472.74583333332794,
          "velocity": 1,
          "duration": 0.25
        },
        {
          "name": "F#2",
          "midi": 42,
          "time": 472.74583333332794,
          "velocity": 1,
          "duration": 0.25
        },
        {
          "name": "C#3",
          "midi": 49,
          "time": 472.74583333332794,
          "velocity": 1,
          "duration": 0.25
        },
        {
          "name": "F#2",
          "midi": 42,
          "time": 472.74583333332794,
          "velocity": 1,
          "duration": 0.25
        },
        {
          "name": "F#5",
          "midi": 78,
          "time": 472.7499999999946,
          "velocity": 1,
          "duration": 0.75
        },
        {
          "name": "G2",
          "midi": 43,
          "time": 472.99583333332794,
          "velocity": 1,
          "duration": 0.25
        },
        {
          "name": "D3",
          "midi": 50,
          "time": 472.99583333332794,
          "velocity": 1,
          "duration": 0.25
        },
        {
          "name": "G2",
          "midi": 43,
          "time": 472.99583333332794,
          "velocity": 1,
          "duration": 0.25
        },
        {
          "name": "D3",
          "midi": 50,
          "time": 472.99583333332794,
          "velocity": 1,
          "duration": 0.25
        },
        {
          "name": "C#3",
          "midi": 49,
          "time": 473.24583333332794,
          "velocity": 1,
          "duration": 0.25
        },
        {
          "name": "C#3",
          "midi": 49,
          "time": 473.24583333332794,
          "velocity": 1,
          "duration": 0.25
        },
        {
          "name": "C#3",
          "midi": 49,
          "time": 473.37083333332794,
          "velocity": 1,
          "duration": 0.25
        },
        {
          "name": "C#3",
          "midi": 49,
          "time": 473.37083333332794,
          "velocity": 1,
          "duration": 0.25
        },
        {
          "name": "F#4",
          "midi": 66,
          "time": 473.4916666666613,
          "velocity": 1,
          "duration": 0.12083333333333712
        },
        {
          "name": "F#2",
          "midi": 42,
          "time": 473.49583333332794,
          "velocity": 1,
          "duration": 0.25
        },
        {
          "name": "C#3",
          "midi": 49,
          "time": 473.49583333332794,
          "velocity": 1,
          "duration": 0.25
        },
        {
          "name": "C#3",
          "midi": 49,
          "time": 473.49583333332794,
          "velocity": 1,
          "duration": 0.25
        },
        {
          "name": "F#2",
          "midi": 42,
          "time": 473.49583333332794,
          "velocity": 1,
          "duration": 0.25
        },
        {
          "name": "F#5",
          "midi": 78,
          "time": 473.4999999999946,
          "velocity": 1,
          "duration": 0.125
        },
        {
          "name": "F#5",
          "midi": 78,
          "time": 473.6249999999946,
          "velocity": 1,
          "duration": 0.25
        },
        {
          "name": "F#4",
          "midi": 66,
          "time": 473.6333333333279,
          "velocity": 1,
          "duration": 0.2333333333333485
        },
        {
          "name": "F#2",
          "midi": 42,
          "time": 473.74583333332794,
          "velocity": 1,
          "duration": 0.25
        },
        {
          "name": "C#3",
          "midi": 49,
          "time": 473.74583333332794,
          "velocity": 1,
          "duration": 0.25
        },
        {
          "name": "F#2",
          "midi": 42,
          "time": 473.74583333332794,
          "velocity": 1,
          "duration": 0.25
        },
        {
          "name": "C#3",
          "midi": 49,
          "time": 473.74583333332794,
          "velocity": 1,
          "duration": 0.25
        },
        {
          "name": "F#5",
          "midi": 78,
          "time": 473.8749999999946,
          "velocity": 1,
          "duration": 0.25
        },
        {
          "name": "F#4",
          "midi": 66,
          "time": 473.8749999999946,
          "velocity": 1,
          "duration": 0.22500000000002274
        },
        {
          "name": "G2",
          "midi": 43,
          "time": 473.99583333332794,
          "velocity": 1,
          "duration": 0.25
        },
        {
          "name": "D3",
          "midi": 50,
          "time": 473.99583333332794,
          "velocity": 1,
          "duration": 0.25
        },
        {
          "name": "D3",
          "midi": 50,
          "time": 473.99583333332794,
          "velocity": 1,
          "duration": 0.25
        },
        {
          "name": "G2",
          "midi": 43,
          "time": 473.99583333332794,
          "velocity": 1,
          "duration": 0.25
        },
        {
          "name": "F#5",
          "midi": 78,
          "time": 474.1249999999946,
          "velocity": 1,
          "duration": 0.25
        },
        {
          "name": "F#4",
          "midi": 66,
          "time": 474.1249999999946,
          "velocity": 1,
          "duration": 0.2541666666666629
        },
        {
          "name": "F#2",
          "midi": 42,
          "time": 474.24583333332794,
          "velocity": 1,
          "duration": 0.25
        },
        {
          "name": "C#3",
          "midi": 49,
          "time": 474.24583333332794,
          "velocity": 1,
          "duration": 0.25
        },
        {
          "name": "C#3",
          "midi": 49,
          "time": 474.24583333332794,
          "velocity": 1,
          "duration": 0.25
        },
        {
          "name": "F#2",
          "midi": 42,
          "time": 474.24583333332794,
          "velocity": 1,
          "duration": 0.25
        },
        {
          "name": "A4",
          "midi": 69,
          "time": 474.3624999999946,
          "velocity": 1,
          "duration": 0.26249999999998863
        },
        {
          "name": "A5",
          "midi": 81,
          "time": 474.3749999999946,
          "velocity": 1,
          "duration": 0.25
        },
        {
          "name": "C#3",
          "midi": 49,
          "time": 474.49583333332794,
          "velocity": 1,
          "duration": 0.25
        },
        {
          "name": "F#2",
          "midi": 42,
          "time": 474.49583333332794,
          "velocity": 1,
          "duration": 0.25
        },
        {
          "name": "F#2",
          "midi": 42,
          "time": 474.49583333332794,
          "velocity": 1,
          "duration": 0.25
        },
        {
          "name": "C#3",
          "midi": 49,
          "time": 474.49583333332794,
          "velocity": 1,
          "duration": 0.25
        },
        {
          "name": "A4",
          "midi": 69,
          "time": 474.62083333332794,
          "velocity": 1,
          "duration": 0.22500000000002274
        },
        {
          "name": "A5",
          "midi": 81,
          "time": 474.6249999999946,
          "velocity": 1,
          "duration": 0.25
        },
        {
          "name": "F#2",
          "midi": 42,
          "time": 474.74583333332794,
          "velocity": 1,
          "duration": 0.25
        },
        {
          "name": "C#3",
          "midi": 49,
          "time": 474.74583333332794,
          "velocity": 1,
          "duration": 0.25
        },
        {
          "name": "C#3",
          "midi": 49,
          "time": 474.74583333332794,
          "velocity": 1,
          "duration": 0.25
        },
        {
          "name": "F#2",
          "midi": 42,
          "time": 474.74583333332794,
          "velocity": 1,
          "duration": 0.25
        },
        {
          "name": "G#4",
          "midi": 68,
          "time": 474.87083333332794,
          "velocity": 1,
          "duration": 0.22916666666668561
        },
        {
          "name": "G#5",
          "midi": 80,
          "time": 474.8749999999946,
          "velocity": 1,
          "duration": 0.25
        },
        {
          "name": "D3",
          "midi": 50,
          "time": 474.99583333332794,
          "velocity": 1,
          "duration": 0.25
        },
        {
          "name": "G2",
          "midi": 43,
          "time": 474.99583333332794,
          "velocity": 1,
          "duration": 0.25
        },
        {
          "name": "G2",
          "midi": 43,
          "time": 474.99583333332794,
          "velocity": 1,
          "duration": 0.25
        },
        {
          "name": "D3",
          "midi": 50,
          "time": 474.99583333332794,
          "velocity": 1,
          "duration": 0.25
        },
        {
          "name": "F#4",
          "midi": 66,
          "time": 475.12083333332794,
          "velocity": 1,
          "duration": 0.36666666666667425
        },
        {
          "name": "F#5",
          "midi": 78,
          "time": 475.1249999999946,
          "velocity": 1,
          "duration": 0.375
        },
        {
          "name": "G#3",
          "midi": 56,
          "time": 475.24583333332794,
          "velocity": 1,
          "duration": 0.25
        },
        {
          "name": "C#3",
          "midi": 49,
          "time": 475.24583333332794,
          "velocity": 1,
          "duration": 0.25
        },
        {
          "name": "C#3",
          "midi": 49,
          "time": 475.24583333332794,
          "velocity": 1,
          "duration": 0.25
        },
        {
          "name": "G#3",
          "midi": 56,
          "time": 475.24583333332794,
          "velocity": 1,
          "duration": 0.25
        },
        {
          "name": "F#2",
          "midi": 42,
          "time": 475.49583333332794,
          "velocity": 1,
          "duration": 0.25
        },
        {
          "name": "C#3",
          "midi": 49,
          "time": 475.49583333332794,
          "velocity": 1,
          "duration": 0.25
        },
        {
          "name": "F#2",
          "midi": 42,
          "time": 475.49583333332794,
          "velocity": 1,
          "duration": 0.25
        },
        {
          "name": "C#3",
          "midi": 49,
          "time": 475.49583333332794,
          "velocity": 1,
          "duration": 0.25
        },
        {
          "name": "F#5",
          "midi": 78,
          "time": 475.4999999999946,
          "velocity": 1,
          "duration": 0.25
        },
        {
          "name": "F#4",
          "midi": 66,
          "time": 475.50416666666126,
          "velocity": 1,
          "duration": 0.25833333333332575
        },
        {
          "name": "F#2",
          "midi": 42,
          "time": 475.74583333332794,
          "velocity": 1,
          "duration": 0.25
        },
        {
          "name": "C#3",
          "midi": 49,
          "time": 475.74583333332794,
          "velocity": 1,
          "duration": 0.25
        },
        {
          "name": "C#3",
          "midi": 49,
          "time": 475.74583333332794,
          "velocity": 1,
          "duration": 0.25
        },
        {
          "name": "F#2",
          "midi": 42,
          "time": 475.74583333332794,
          "velocity": 1,
          "duration": 0.25
        },
        {
          "name": "F#5",
          "midi": 78,
          "time": 475.7499999999946,
          "velocity": 1,
          "duration": 0.75
        },
        {
          "name": "F#4",
          "midi": 66,
          "time": 475.7499999999946,
          "velocity": 1,
          "duration": 0.7624999999999886
        },
        {
          "name": "G2",
          "midi": 43,
          "time": 475.99583333332794,
          "velocity": 1,
          "duration": 0.25
        },
        {
          "name": "D3",
          "midi": 50,
          "time": 475.99583333332794,
          "velocity": 1,
          "duration": 0.25
        },
        {
          "name": "G2",
          "midi": 43,
          "time": 475.99583333332794,
          "velocity": 1,
          "duration": 0.25
        },
        {
          "name": "D3",
          "midi": 50,
          "time": 475.99583333332794,
          "velocity": 1,
          "duration": 0.25
        },
        {
          "name": "F#2",
          "midi": 42,
          "time": 476.24583333332794,
          "velocity": 1,
          "duration": 0.25
        },
        {
          "name": "C#3",
          "midi": 49,
          "time": 476.24583333332794,
          "velocity": 1,
          "duration": 0.25
        },
        {
          "name": "C#3",
          "midi": 49,
          "time": 476.24583333332794,
          "velocity": 1,
          "duration": 0.25
        },
        {
          "name": "F#2",
          "midi": 42,
          "time": 476.24583333332794,
          "velocity": 1,
          "duration": 0.25
        },
        {
          "name": "F#4",
          "midi": 66,
          "time": 476.49583333332794,
          "velocity": 1,
          "duration": 0.22916666666662877
        },
        {
          "name": "C#3",
          "midi": 49,
          "time": 476.49583333332794,
          "velocity": 1,
          "duration": 0.24999999999994316
        },
        {
          "name": "F#2",
          "midi": 42,
          "time": 476.49583333332794,
          "velocity": 1,
          "duration": 0.24999999999994316
        },
        {
          "name": "C#3",
          "midi": 49,
          "time": 476.49583333332794,
          "velocity": 1,
          "duration": 0.24999999999994316
        },
        {
          "name": "F#2",
          "midi": 42,
          "time": 476.49583333332794,
          "velocity": 1,
          "duration": 0.24999999999994316
        },
        {
          "name": "F#5",
          "midi": 78,
          "time": 476.4999999999946,
          "velocity": 1,
          "duration": 0.24999999999994316
        },
        {
          "name": "F#2",
          "midi": 42,
          "time": 476.7458333333279,
          "velocity": 1,
          "duration": 0.25
        },
        {
          "name": "C#3",
          "midi": 49,
          "time": 476.7458333333279,
          "velocity": 1,
          "duration": 0.25
        },
        {
          "name": "F#2",
          "midi": 42,
          "time": 476.7458333333279,
          "velocity": 1,
          "duration": 0.25
        },
        {
          "name": "C#3",
          "midi": 49,
          "time": 476.7458333333279,
          "velocity": 1,
          "duration": 0.25
        },
        {
          "name": "F#5",
          "midi": 78,
          "time": 476.74999999999454,
          "velocity": 1,
          "duration": 0.75
        },
        {
          "name": "F#4",
          "midi": 66,
          "time": 476.7541666666612,
          "velocity": 1,
          "duration": 0.7291666666666856
        },
        {
          "name": "D3",
          "midi": 50,
          "time": 476.9958333333279,
          "velocity": 1,
          "duration": 0.25
        },
        {
          "name": "G2",
          "midi": 43,
          "time": 476.9958333333279,
          "velocity": 1,
          "duration": 0.25
        },
        {
          "name": "G2",
          "midi": 43,
          "time": 476.9958333333279,
          "velocity": 1,
          "duration": 0.25
        },
        {
          "name": "D3",
          "midi": 50,
          "time": 476.9958333333279,
          "velocity": 1,
          "duration": 0.25
        },
        {
          "name": "C#3",
          "midi": 49,
          "time": 477.2458333333279,
          "velocity": 1,
          "duration": 0.25
        },
        {
          "name": "C#3",
          "midi": 49,
          "time": 477.2458333333279,
          "velocity": 1,
          "duration": 0.25
        },
        {
          "name": "C#3",
          "midi": 49,
          "time": 477.3708333333279,
          "velocity": 1,
          "duration": 0.25
        },
        {
          "name": "C#3",
          "midi": 49,
          "time": 477.3708333333279,
          "velocity": 1,
          "duration": 0.25
        },
        {
          "name": "C#3",
          "midi": 49,
          "time": 477.4958333333279,
          "velocity": 1,
          "duration": 0.25
        },
        {
          "name": "F#2",
          "midi": 42,
          "time": 477.4958333333279,
          "velocity": 1,
          "duration": 0.25
        },
        {
          "name": "C#3",
          "midi": 49,
          "time": 477.4958333333279,
          "velocity": 1,
          "duration": 0.25
        },
        {
          "name": "F#2",
          "midi": 42,
          "time": 477.4958333333279,
          "velocity": 1,
          "duration": 0.25
        },
        {
          "name": "F#5",
          "midi": 78,
          "time": 477.49999999999454,
          "velocity": 1,
          "duration": 0.125
        },
        {
          "name": "F#4",
          "midi": 66,
          "time": 477.49999999999454,
          "velocity": 1,
          "duration": 0.10000000000002274
        },
        {
          "name": "F#5",
          "midi": 78,
          "time": 477.62499999999454,
          "velocity": 1,
          "duration": 0.25
        },
        {
          "name": "F#4",
          "midi": 66,
          "time": 477.62499999999454,
          "velocity": 1,
          "duration": 0.24166666666667425
        },
        {
          "name": "F#2",
          "midi": 42,
          "time": 477.7458333333279,
          "velocity": 1,
          "duration": 0.25
        },
        {
          "name": "C#3",
          "midi": 49,
          "time": 477.7458333333279,
          "velocity": 1,
          "duration": 0.25
        },
        {
          "name": "C#3",
          "midi": 49,
          "time": 477.7458333333279,
          "velocity": 1,
          "duration": 0.25
        },
        {
          "name": "F#2",
          "midi": 42,
          "time": 477.7458333333279,
          "velocity": 1,
          "duration": 0.25
        },
        {
          "name": "F#4",
          "midi": 66,
          "time": 477.8708333333279,
          "velocity": 1,
          "duration": 0.22500000000002274
        },
        {
          "name": "F#5",
          "midi": 78,
          "time": 477.87499999999454,
          "velocity": 1,
          "duration": 0.25
        },
        {
          "name": "D3",
          "midi": 50,
          "time": 477.9958333333279,
          "velocity": 1,
          "duration": 0.25
        },
        {
          "name": "G2",
          "midi": 43,
          "time": 477.9958333333279,
          "velocity": 1,
          "duration": 0.25
        },
        {
          "name": "G2",
          "midi": 43,
          "time": 477.9958333333279,
          "velocity": 1,
          "duration": 0.25
        },
        {
          "name": "D3",
          "midi": 50,
          "time": 477.9958333333279,
          "velocity": 1,
          "duration": 0.25
        },
        {
          "name": "F#4",
          "midi": 66,
          "time": 478.11249999999455,
          "velocity": 1,
          "duration": 0.2708333333333144
        },
        {
          "name": "F#5",
          "midi": 78,
          "time": 478.12499999999454,
          "velocity": 1,
          "duration": 0.25
        },
        {
          "name": "F#2",
          "midi": 42,
          "time": 478.2458333333279,
          "velocity": 1,
          "duration": 0.25
        },
        {
          "name": "C#3",
          "midi": 49,
          "time": 478.2458333333279,
          "velocity": 1,
          "duration": 0.25
        },
        {
          "name": "C#3",
          "midi": 49,
          "time": 478.2458333333279,
          "velocity": 1,
          "duration": 0.25
        },
        {
          "name": "F#2",
          "midi": 42,
          "time": 478.2458333333279,
          "velocity": 1,
          "duration": 0.25
        },
        {
          "name": "E5",
          "midi": 76,
          "time": 478.35416666666123,
          "velocity": 0.5905511811023622,
          "duration": 0.020833333333314386
        },
        {
          "name": "E4",
          "midi": 64,
          "time": 478.3583333333279,
          "velocity": 0.5905511811023622,
          "duration": 0.024999999999977263
        },
        {
          "name": "F#4",
          "midi": 66,
          "time": 478.36249999999455,
          "velocity": 1,
          "duration": 1.099999999999966
        },
        {
          "name": "F#5",
          "midi": 78,
          "time": 478.37499999999454,
          "velocity": 1,
          "duration": 1.125
        },
        {
          "name": "F#2",
          "midi": 42,
          "time": 478.4958333333279,
          "velocity": 1,
          "duration": 0.25
        },
        {
          "name": "C#3",
          "midi": 49,
          "time": 478.4958333333279,
          "velocity": 1,
          "duration": 0.25
        },
        {
          "name": "F#2",
          "midi": 42,
          "time": 478.4958333333279,
          "velocity": 1,
          "duration": 0.25
        },
        {
          "name": "C#3",
          "midi": 49,
          "time": 478.4958333333279,
          "velocity": 1,
          "duration": 0.25
        },
        {
          "name": "C#3",
          "midi": 49,
          "time": 478.7458333333279,
          "velocity": 1,
          "duration": 0.25
        },
        {
          "name": "F#2",
          "midi": 42,
          "time": 478.7458333333279,
          "velocity": 1,
          "duration": 0.25
        },
        {
          "name": "F#2",
          "midi": 42,
          "time": 478.7458333333279,
          "velocity": 1,
          "duration": 0.25
        },
        {
          "name": "C#3",
          "midi": 49,
          "time": 478.7458333333279,
          "velocity": 1,
          "duration": 0.25
        },
        {
          "name": "D3",
          "midi": 50,
          "time": 478.9958333333279,
          "velocity": 1,
          "duration": 0.25
        },
        {
          "name": "G2",
          "midi": 43,
          "time": 478.9958333333279,
          "velocity": 1,
          "duration": 0.25
        },
        {
          "name": "D3",
          "midi": 50,
          "time": 478.9958333333279,
          "velocity": 1,
          "duration": 0.25
        },
        {
          "name": "G2",
          "midi": 43,
          "time": 478.9958333333279,
          "velocity": 1,
          "duration": 0.25
        },
        {
          "name": "G#3",
          "midi": 56,
          "time": 479.2458333333279,
          "velocity": 1,
          "duration": 0.25
        },
        {
          "name": "C#3",
          "midi": 49,
          "time": 479.2458333333279,
          "velocity": 1,
          "duration": 0.25
        },
        {
          "name": "G#3",
          "midi": 56,
          "time": 479.2458333333279,
          "velocity": 1,
          "duration": 0.25
        },
        {
          "name": "C#3",
          "midi": 49,
          "time": 479.2458333333279,
          "velocity": 1,
          "duration": 0.25
        },
        {
          "name": "G2",
          "midi": 43,
          "time": 479.4958333333279,
          "velocity": 1,
          "duration": 4
        },
        {
          "name": "B3",
          "midi": 59,
          "time": 479.4958333333279,
          "velocity": 1,
          "duration": 4
        },
        {
          "name": "G3",
          "midi": 55,
          "time": 479.4958333333279,
          "velocity": 1,
          "duration": 4
        },
        {
          "name": "D3",
          "midi": 50,
          "time": 479.4958333333279,
          "velocity": 1,
          "duration": 4
        },
        {
          "name": "G2",
          "midi": 43,
          "time": 479.4958333333279,
          "velocity": 1,
          "duration": 4
        },
        {
          "name": "G3",
          "midi": 55,
          "time": 479.4958333333279,
          "velocity": 1,
          "duration": 4
        },
        {
          "name": "B3",
          "midi": 59,
          "time": 479.4958333333279,
          "velocity": 1,
          "duration": 4
        },
        {
          "name": "D3",
          "midi": 50,
          "time": 479.4958333333279,
          "velocity": 1,
          "duration": 4
        },
        {
          "name": "A#3",
          "midi": 58,
          "time": 483.4958333333279,
          "velocity": 1,
          "duration": 2
        },
        {
          "name": "F#3",
          "midi": 54,
          "time": 483.4958333333279,
          "velocity": 1,
          "duration": 2
        },
        {
          "name": "C#3",
          "midi": 49,
          "time": 483.4958333333279,
          "velocity": 1,
          "duration": 2
        },
        {
          "name": "F#2",
          "midi": 42,
          "time": 483.4958333333279,
          "velocity": 1,
          "duration": 2
        },
        {
          "name": "A#3",
          "midi": 58,
          "time": 483.4958333333279,
          "velocity": 1,
          "duration": 2
        },
        {
          "name": "F#3",
          "midi": 54,
          "time": 483.4958333333279,
          "velocity": 1,
          "duration": 2
        },
        {
          "name": "C#3",
          "midi": 49,
          "time": 483.4958333333279,
          "velocity": 1,
          "duration": 2
        },
        {
          "name": "F#2",
          "midi": 42,
          "time": 483.4958333333279,
          "velocity": 1,
          "duration": 2
        },
        {
          "name": "A3",
          "midi": 57,
          "time": 485.4958333333279,
          "velocity": 1,
          "duration": 0.5
        },
        {
          "name": "A3",
          "midi": 57,
          "time": 485.4958333333279,
          "velocity": 1,
          "duration": 0.5
        },
        {
          "name": "F#3",
          "midi": 54,
          "time": 485.9958333333279,
          "velocity": 1,
          "duration": 0.5
        },
        {
          "name": "F#3",
          "midi": 54,
          "time": 485.9958333333279,
          "velocity": 1,
          "duration": 0.5
        },
        {
          "name": "A3",
          "midi": 57,
          "time": 486.4958333333279,
          "velocity": 1,
          "duration": 1
        },
        {
          "name": "A3",
          "midi": 57,
          "time": 486.4958333333279,
          "velocity": 1,
          "duration": 1
        },
        {
          "name": "A4",
          "midi": 69,
          "time": 487.4916666666612,
          "velocity": 1,
          "duration": 0.17916666666667425
        },
        {
          "name": "E2",
          "midi": 40,
          "time": 487.4958333333279,
          "velocity": 1,
          "duration": 0.24583333333333712
        },
        {
          "name": "E2",
          "midi": 40,
          "time": 487.4958333333279,
          "velocity": 1,
          "duration": 0.24583333333333712
        },
        {
          "name": "E4",
          "midi": 64,
          "time": 487.66249999999457,
          "velocity": 1,
          "duration": 0.16666666666662877
        },
        {
          "name": "E2",
          "midi": 40,
          "time": 487.7458333333279,
          "velocity": 1,
          "duration": 0.24583333333333712
        },
        {
          "name": "E2",
          "midi": 40,
          "time": 487.7458333333279,
          "velocity": 1,
          "duration": 0.24583333333333712
        },
        {
          "name": "C4",
          "midi": 60,
          "time": 487.8291666666612,
          "velocity": 1,
          "duration": 0.1708333333333485
        },
        {
          "name": "E2",
          "midi": 40,
          "time": 487.9958333333279,
          "velocity": 1,
          "duration": 0.24583333333333712
        },
        {
          "name": "E2",
          "midi": 40,
          "time": 487.9958333333279,
          "velocity": 1,
          "duration": 0.24583333333333712
        },
        {
          "name": "B3",
          "midi": 59,
          "time": 487.99999999999454,
          "velocity": 1,
          "duration": 0.16666666666668561
        },
        {
          "name": "C4",
          "midi": 60,
          "time": 488.16666666666123,
          "velocity": 1,
          "duration": 0.17083333333329165
        },
        {
          "name": "E2",
          "midi": 40,
          "time": 488.2458333333279,
          "velocity": 1,
          "duration": 0.24583333333328028
        },
        {
          "name": "E2",
          "midi": 40,
          "time": 488.2458333333279,
          "velocity": 1,
          "duration": 0.24583333333328028
        },
        {
          "name": "E4",
          "midi": 64,
          "time": 488.32499999999453,
          "velocity": 1,
          "duration": 0.16666666666662877
        },
        {
          "name": "A4",
          "midi": 69,
          "time": 488.49166666666116,
          "velocity": 1,
          "duration": 0.15833333333330302
        },
        {
          "name": "E2",
          "midi": 40,
          "time": 488.4958333333278,
          "velocity": 1,
          "duration": 0.24583333333328028
        },
        {
          "name": "E2",
          "midi": 40,
          "time": 488.4958333333278,
          "velocity": 1,
          "duration": 0.24583333333328028
        },
        {
          "name": "E4",
          "midi": 64,
          "time": 488.6666666666611,
          "velocity": 1,
          "duration": 0.1791666666666174
        },
        {
          "name": "E2",
          "midi": 40,
          "time": 488.74583333332777,
          "velocity": 1,
          "duration": 0.24583333333328028
        },
        {
          "name": "E2",
          "midi": 40,
          "time": 488.74583333332777,
          "velocity": 1,
          "duration": 0.24583333333328028
        },
        {
          "name": "C4",
          "midi": 60,
          "time": 488.82083333332776,
          "velocity": 1,
          "duration": 0.1791666666666174
        },
        {
          "name": "E2",
          "midi": 40,
          "time": 488.9958333333277,
          "velocity": 1,
          "duration": 0.24583333333328028
        },
        {
          "name": "E2",
          "midi": 40,
          "time": 488.9958333333277,
          "velocity": 1,
          "duration": 0.24583333333328028
        },
        {
          "name": "B3",
          "midi": 59,
          "time": 488.9999999999944,
          "velocity": 1,
          "duration": 0.14999999999997726
        },
        {
          "name": "C4",
          "midi": 60,
          "time": 489.16249999999434,
          "velocity": 1,
          "duration": 0.17499999999995453
        },
        {
          "name": "E2",
          "midi": 40,
          "time": 489.24583333332765,
          "velocity": 1,
          "duration": 0.24583333333328028
        },
        {
          "name": "E2",
          "midi": 40,
          "time": 489.24583333332765,
          "velocity": 1,
          "duration": 0.24583333333328028
        },
        {
          "name": "E4",
          "midi": 64,
          "time": 489.32083333332764,
          "velocity": 1,
          "duration": 0.15416666666664014
        },
        {
          "name": "A4",
          "midi": 69,
          "time": 489.48749999999427,
          "velocity": 1,
          "duration": 0.1624999999999659
        },
        {
          "name": "E2",
          "midi": 40,
          "time": 489.4958333333276,
          "velocity": 1,
          "duration": 0.24583333333328028
        },
        {
          "name": "E2",
          "midi": 40,
          "time": 489.4958333333276,
          "velocity": 1,
          "duration": 0.24583333333328028
        },
        {
          "name": "E4",
          "midi": 64,
          "time": 489.6541666666609,
          "velocity": 1,
          "duration": 0.15416666666664014
        },
        {
          "name": "D3",
          "midi": 50,
          "time": 489.74583333332754,
          "velocity": 1,
          "duration": 0.24583333333333712
        },
        {
          "name": "G2",
          "midi": 43,
          "time": 489.74583333332754,
          "velocity": 1,
          "duration": 0.24583333333333712
        },
        {
          "name": "G2",
          "midi": 43,
          "time": 489.74583333332754,
          "velocity": 1,
          "duration": 0.24583333333333712
        },
        {
          "name": "D3",
          "midi": 50,
          "time": 489.74583333332754,
          "velocity": 1,
          "duration": 0.24583333333333712
        },
        {
          "name": "C4",
          "midi": 60,
          "time": 489.8208333333275,
          "velocity": 1,
          "duration": 0.1708333333333485
        },
        {
          "name": "B3",
          "midi": 59,
          "time": 489.9874999999942,
          "velocity": 1,
          "duration": 0.1708333333333485
        },
        {
          "name": "E3",
          "midi": 52,
          "time": 489.99583333332754,
          "velocity": 1,
          "duration": 0.24583333333333712
        },
        {
          "name": "A2",
          "midi": 45,
          "time": 489.99583333332754,
          "velocity": 1,
          "duration": 0.24583333333333712
        },
        {
          "name": "A2",
          "midi": 45,
          "time": 489.99583333332754,
          "velocity": 1,
          "duration": 0.24583333333333712
        },
        {
          "name": "E3",
          "midi": 52,
          "time": 489.99583333332754,
          "velocity": 1,
          "duration": 0.24583333333333712
        },
        {
          "name": "C4",
          "midi": 60,
          "time": 490.1541666666609,
          "velocity": 1,
          "duration": 0.17083333333329165
        },
        {
          "name": "E2",
          "midi": 40,
          "time": 490.24583333332754,
          "velocity": 1,
          "duration": 0.24583333333333712
        },
        {
          "name": "E2",
          "midi": 40,
          "time": 490.24583333332754,
          "velocity": 1,
          "duration": 0.24583333333333712
        },
        {
          "name": "E4",
          "midi": 64,
          "time": 490.3333333333275,
          "velocity": 1,
          "duration": 0.17500000000001137
        },
        {
          "name": "A#2",
          "midi": 46,
          "time": 490.49583333332754,
          "velocity": 1,
          "duration": 0.24583333333328028
        },
        {
          "name": "F3",
          "midi": 53,
          "time": 490.49583333332754,
          "velocity": 1,
          "duration": 0.24583333333328028
        },
        {
          "name": "F3",
          "midi": 53,
          "time": 490.49583333332754,
          "velocity": 1,
          "duration": 0.24583333333328028
        },
        {
          "name": "A#2",
          "midi": 46,
          "time": 490.49583333332754,
          "velocity": 1,
          "duration": 0.24583333333328028
        },
        {
          "name": "G4",
          "midi": 67,
          "time": 490.49583333332754,
          "velocity": 1,
          "duration": 0.1791666666666174
        },
        {
          "name": "E4",
          "midi": 64,
          "time": 490.66249999999417,
          "velocity": 1,
          "duration": 0.17083333333329165
        },
        {
          "name": "E3",
          "midi": 52,
          "time": 490.7458333333275,
          "velocity": 1,
          "duration": 0.24583333333333712
        },
        {
          "name": "A2",
          "midi": 45,
          "time": 490.7458333333275,
          "velocity": 1,
          "duration": 0.24583333333333712
        },
        {
          "name": "E3",
          "midi": 52,
          "time": 490.7458333333275,
          "velocity": 1,
          "duration": 0.24583333333333712
        },
        {
          "name": "A2",
          "midi": 45,
          "time": 490.7458333333275,
          "velocity": 1,
          "duration": 0.24583333333333712
        },
        {
          "name": "C4",
          "midi": 60,
          "time": 490.82499999999413,
          "velocity": 1,
          "duration": 0.17500000000001137
        },
        {
          "name": "D3",
          "midi": 50,
          "time": 490.9958333333275,
          "velocity": 1,
          "duration": 0.24583333333333712
        },
        {
          "name": "G2",
          "midi": 43,
          "time": 490.9958333333275,
          "velocity": 1,
          "duration": 0.24583333333333712
        },
        {
          "name": "G2",
          "midi": 43,
          "time": 490.9958333333275,
          "velocity": 1,
          "duration": 0.24583333333333712
        },
        {
          "name": "D3",
          "midi": 50,
          "time": 490.9958333333275,
          "velocity": 1,
          "duration": 0.24583333333333712
        },
        {
          "name": "B3",
          "midi": 59,
          "time": 490.9958333333275,
          "velocity": 1,
          "duration": 0.17916666666667425
        },
        {
          "name": "C4",
          "midi": 60,
          "time": 491.16666666666083,
          "velocity": 1,
          "duration": 0.1791666666666174
        },
        {
          "name": "E4",
          "midi": 64,
          "time": 491.33333333332746,
          "velocity": 1,
          "duration": 0.14999999999997726
        },
        {
          "name": "E2",
          "midi": 40,
          "time": 491.4958333333274,
          "velocity": 1,
          "duration": 0.24583333333328028
        },
        {
          "name": "E2",
          "midi": 40,
          "time": 491.4958333333274,
          "velocity": 1,
          "duration": 0.24583333333328028
        },
        {
          "name": "A4",
          "midi": 69,
          "time": 491.4999999999941,
          "velocity": 1,
          "duration": 0.14999999999997726
        },
        {
          "name": "E4",
          "midi": 64,
          "time": 491.6666666666607,
          "velocity": 1,
          "duration": 0.17499999999995453
        },
        {
          "name": "E2",
          "midi": 40,
          "time": 491.74583333332737,
          "velocity": 1,
          "duration": 0.24583333333328028
        },
        {
          "name": "E2",
          "midi": 40,
          "time": 491.74583333332737,
          "velocity": 1,
          "duration": 0.24583333333328028
        },
        {
          "name": "C4",
          "midi": 60,
          "time": 491.824999999994,
          "velocity": 1,
          "duration": 0.17499999999995453
        },
        {
          "name": "C4",
          "midi": 60,
          "time": 491.987499999994,
          "velocity": 1,
          "duration": 0.17083333333329165
        },
        {
          "name": "E2",
          "midi": 40,
          "time": 491.9958333333273,
          "velocity": 1,
          "duration": 0.24583333333328028
        },
        {
          "name": "E2",
          "midi": 40,
          "time": 491.9958333333273,
          "velocity": 1,
          "duration": 0.24583333333328028
        },
        {
          "name": "B3",
          "midi": 59,
          "time": 492.1541666666606,
          "velocity": 1,
          "duration": 0.17499999999995453
        },
        {
          "name": "E2",
          "midi": 40,
          "time": 492.24583333332725,
          "velocity": 1,
          "duration": 0.24583333333328028
        },
        {
          "name": "E2",
          "midi": 40,
          "time": 492.24583333332725,
          "velocity": 1,
          "duration": 0.24583333333328028
        },
        {
          "name": "E4",
          "midi": 64,
          "time": 492.33333333332723,
          "velocity": 1,
          "duration": 0.16666666666662877
        },
        {
          "name": "A4",
          "midi": 69,
          "time": 492.4874999999939,
          "velocity": 1,
          "duration": 0.16666666666662877
        },
        {
          "name": "E2",
          "midi": 40,
          "time": 492.4958333333272,
          "velocity": 1,
          "duration": 0.24583333333328028
        },
        {
          "name": "E2",
          "midi": 40,
          "time": 492.4958333333272,
          "velocity": 1,
          "duration": 0.24583333333328028
        },
        {
          "name": "E4",
          "midi": 64,
          "time": 492.6666666666605,
          "velocity": 1,
          "duration": 0.15833333333330302
        },
        {
          "name": "E2",
          "midi": 40,
          "time": 492.74583333332714,
          "velocity": 1,
          "duration": 0.24583333333333712
        },
        {
          "name": "E2",
          "midi": 40,
          "time": 492.74583333332714,
          "velocity": 1,
          "duration": 0.24583333333333712
        },
        {
          "name": "C4",
          "midi": 60,
          "time": 492.8249999999938,
          "velocity": 1,
          "duration": 0.1708333333333485
        },
        {
          "name": "E2",
          "midi": 40,
          "time": 492.99583333332714,
          "velocity": 1,
          "duration": 0.24583333333333712
        },
        {
          "name": "E2",
          "midi": 40,
          "time": 492.99583333332714,
          "velocity": 1,
          "duration": 0.24583333333333712
        },
        {
          "name": "B3",
          "midi": 59,
          "time": 492.9999999999938,
          "velocity": 1,
          "duration": 0.17916666666667425
        },
        {
          "name": "C4",
          "midi": 60,
          "time": 493.15833333332716,
          "velocity": 1,
          "duration": 0.15416666666664014
        },
        {
          "name": "E2",
          "midi": 40,
          "time": 493.24583333332714,
          "velocity": 1,
          "duration": 0.24583333333333712
        },
        {
          "name": "E2",
          "midi": 40,
          "time": 493.24583333332714,
          "velocity": 1,
          "duration": 0.24583333333333712
        },
        {
          "name": "E4",
          "midi": 64,
          "time": 493.3249999999938,
          "velocity": 1,
          "duration": 0.17500000000001137
        },
        {
          "name": "E2",
          "midi": 40,
          "time": 493.49583333332714,
          "velocity": 1,
          "duration": 0.24583333333333712
        },
        {
          "name": "E2",
          "midi": 40,
          "time": 493.49583333332714,
          "velocity": 1,
          "duration": 0.24583333333333712
        },
        {
          "name": "A4",
          "midi": 69,
          "time": 493.49583333332714,
          "velocity": 1,
          "duration": 0.17916666666667425
        },
        {
          "name": "G4",
          "midi": 67,
          "time": 493.6666666666605,
          "velocity": 1,
          "duration": 0.1624999999999659
        },
        {
          "name": "G2",
          "midi": 43,
          "time": 493.74583333332714,
          "velocity": 1,
          "duration": 0.24583333333333712
        },
        {
          "name": "D3",
          "midi": 50,
          "time": 493.74583333332714,
          "velocity": 1,
          "duration": 0.24583333333333712
        },
        {
          "name": "D3",
          "midi": 50,
          "time": 493.74583333332714,
          "velocity": 1,
          "duration": 0.24583333333333712
        },
        {
          "name": "G2",
          "midi": 43,
          "time": 493.74583333332714,
          "velocity": 1,
          "duration": 0.24583333333333712
        },
        {
          "name": "C4",
          "midi": 60,
          "time": 493.8249999999938,
          "velocity": 1,
          "duration": 0.16250000000002274
        },
        {
          "name": "B3",
          "midi": 59,
          "time": 493.9916666666605,
          "velocity": 1,
          "duration": 0.12916666666666288
        },
        {
          "name": "E3",
          "midi": 52,
          "time": 493.99583333332714,
          "velocity": 1,
          "duration": 0.24583333333333712
        },
        {
          "name": "A2",
          "midi": 45,
          "time": 493.99583333332714,
          "velocity": 1,
          "duration": 0.24583333333333712
        },
        {
          "name": "A2",
          "midi": 45,
          "time": 493.99583333332714,
          "velocity": 1,
          "duration": 0.24583333333333712
        },
        {
          "name": "E3",
          "midi": 52,
          "time": 493.99583333332714,
          "velocity": 1,
          "duration": 0.24583333333333712
        },
        {
          "name": "E4",
          "midi": 64,
          "time": 494.12083333332714,
          "velocity": 1,
          "duration": 0.13333333333332575
        },
        {
          "name": "E4",
          "midi": 64,
          "time": 494.2416666666605,
          "velocity": 1,
          "duration": 0.13333333333332575
        },
        {
          "name": "G2",
          "midi": 43,
          "time": 494.24583333332714,
          "velocity": 1,
          "duration": 0.24583333333333712
        },
        {
          "name": "D3",
          "midi": 50,
          "time": 494.24583333332714,
          "velocity": 1,
          "duration": 0.24583333333333712
        },
        {
          "name": "D3",
          "midi": 50,
          "time": 494.24583333332714,
          "velocity": 1,
          "duration": 0.24583333333333712
        },
        {
          "name": "G2",
          "midi": 43,
          "time": 494.24583333332714,
          "velocity": 1,
          "duration": 0.24583333333333712
        },
        {
          "name": "G4",
          "midi": 67,
          "time": 494.3666666666605,
          "velocity": 1,
          "duration": 0.13749999999998863
        },
        {
          "name": "A2",
          "midi": 45,
          "time": 494.49583333332714,
          "velocity": 1,
          "duration": 0.24583333333333712
        },
        {
          "name": "E3",
          "midi": 52,
          "time": 494.49583333332714,
          "velocity": 1,
          "duration": 0.24583333333333712
        },
        {
          "name": "E3",
          "midi": 52,
          "time": 494.49583333332714,
          "velocity": 1,
          "duration": 0.24583333333333712
        },
        {
          "name": "A2",
          "midi": 45,
          "time": 494.49583333332714,
          "velocity": 1,
          "duration": 0.24583333333333712
        },
        {
          "name": "E4",
          "midi": 64,
          "time": 494.49583333332714,
          "velocity": 1,
          "duration": 0.10833333333334849
        },
        {
          "name": "C4",
          "midi": 60,
          "time": 494.6249999999938,
          "velocity": 1,
          "duration": 0.10833333333334849
        },
        {
          "name": "E2",
          "midi": 40,
          "time": 494.74583333332714,
          "velocity": 1,
          "duration": 0.24583333333328028
        },
        {
          "name": "E2",
          "midi": 40,
          "time": 494.74583333332714,
          "velocity": 1,
          "duration": 0.24583333333328028
        },
        {
          "name": "E4",
          "midi": 64,
          "time": 494.7499999999938,
          "velocity": 1,
          "duration": 0.15416666666664014
        },
        {
          "name": "B4",
          "midi": 71,
          "time": 494.91249999999377,
          "velocity": 1,
          "duration": 0.14999999999997726
        },
        {
          "name": "E2",
          "midi": 40,
          "time": 494.9958333333271,
          "velocity": 1,
          "duration": 0.24583333333328028
        },
        {
          "name": "E2",
          "midi": 40,
          "time": 494.9958333333271,
          "velocity": 1,
          "duration": 0.24583333333328028
        },
        {
          "name": "B4",
          "midi": 71,
          "time": 495.07499999999374,
          "velocity": 1,
          "duration": 0.14999999999997726
        },
        {
          "name": "E2",
          "midi": 40,
          "time": 495.245833333327,
          "velocity": 1,
          "duration": 0.24583333333333712
        },
        {
          "name": "E2",
          "midi": 40,
          "time": 495.245833333327,
          "velocity": 1,
          "duration": 0.24583333333333712
        },
        {
          "name": "A4",
          "midi": 69,
          "time": 495.2499999999937,
          "velocity": 1,
          "duration": 0.13749999999998863
        },
        {
          "name": "A4",
          "midi": 69,
          "time": 495.370833333327,
          "velocity": 1,
          "duration": 0.12083333333333712
        },
        {
          "name": "A4",
          "midi": 69,
          "time": 495.49166666666036,
          "velocity": 1,
          "duration": 0.12916666666666288
        },
        {
          "name": "E2",
          "midi": 40,
          "time": 495.495833333327,
          "velocity": 1,
          "duration": 0.24583333333333712
        },
        {
          "name": "E2",
          "midi": 40,
          "time": 495.495833333327,
          "velocity": 1,
          "duration": 0.24583333333333712
        },
        {
          "name": "A4",
          "midi": 69,
          "time": 495.61666666666036,
          "velocity": 1,
          "duration": 0.125
        },
        {
          "name": "G4",
          "midi": 67,
          "time": 495.7374999999937,
          "velocity": 1,
          "duration": 0.15416666666664014
        },
        {
          "name": "E2",
          "midi": 40,
          "time": 495.745833333327,
          "velocity": 1,
          "duration": 0.24583333333328028
        },
        {
          "name": "E2",
          "midi": 40,
          "time": 495.745833333327,
          "velocity": 1,
          "duration": 0.24583333333328028
        },
        {
          "name": "G4",
          "midi": 67,
          "time": 495.9166666666603,
          "velocity": 1,
          "duration": 0.15416666666664014
        },
        {
          "name": "E2",
          "midi": 40,
          "time": 495.99583333332697,
          "velocity": 1,
          "duration": 0.24583333333333712
        },
        {
          "name": "E2",
          "midi": 40,
          "time": 495.99583333332697,
          "velocity": 1,
          "duration": 0.24583333333333712
        },
        {
          "name": "G4",
          "midi": 67,
          "time": 496.08333333332695,
          "velocity": 1,
          "duration": 0.1708333333333485
        },
        {
          "name": "F#4",
          "midi": 66,
          "time": 496.2416666666603,
          "velocity": 1,
          "duration": 0.13333333333332575
        },
        {
          "name": "E2",
          "midi": 40,
          "time": 496.24583333332697,
          "velocity": 1,
          "duration": 0.24583333333333712
        },
        {
          "name": "E2",
          "midi": 40,
          "time": 496.24583333332697,
          "velocity": 1,
          "duration": 0.24583333333333712
        },
        {
          "name": "F#4",
          "midi": 66,
          "time": 496.3666666666603,
          "velocity": 1,
          "duration": 0.125
        },
        {
          "name": "F#4",
          "midi": 66,
          "time": 496.48749999999364,
          "velocity": 1,
          "duration": 0.125
        },
        {
          "name": "E2",
          "midi": 40,
          "time": 496.49583333332697,
          "velocity": 1,
          "duration": 0.24583333333333712
        },
        {
          "name": "E2",
          "midi": 40,
          "time": 496.49583333332697,
          "velocity": 1,
          "duration": 0.24583333333333712
        },
        {
          "name": "F#4",
          "midi": 66,
          "time": 496.6166666666603,
          "velocity": 1,
          "duration": 0.11666666666667425
        },
        {
          "name": "A4",
          "midi": 69,
          "time": 496.73749999999364,
          "velocity": 1,
          "duration": 0.17500000000001137
        },
        {
          "name": "E2",
          "midi": 40,
          "time": 496.74583333332697,
          "velocity": 1,
          "duration": 0.24583333333333712
        },
        {
          "name": "E2",
          "midi": 40,
          "time": 496.74583333332697,
          "velocity": 1,
          "duration": 0.24583333333333712
        },
        {
          "name": "A4",
          "midi": 69,
          "time": 496.9166666666603,
          "velocity": 1,
          "duration": 0.1624999999999659
        },
        {
          "name": "D3",
          "midi": 50,
          "time": 496.99583333332697,
          "velocity": 1,
          "duration": 0.24583333333328028
        },
        {
          "name": "G2",
          "midi": 43,
          "time": 496.99583333332697,
          "velocity": 1,
          "duration": 0.24583333333328028
        },
        {
          "name": "D3",
          "midi": 50,
          "time": 496.99583333332697,
          "velocity": 1,
          "duration": 0.24583333333328028
        },
        {
          "name": "G2",
          "midi": 43,
          "time": 496.99583333332697,
          "velocity": 1,
          "duration": 0.24583333333328028
        },
        {
          "name": "A4",
          "midi": 69,
          "time": 497.07083333332696,
          "velocity": 1,
          "duration": 0.15416666666664014
        },
        {
          "name": "G4",
          "midi": 67,
          "time": 497.24166666666025,
          "velocity": 1,
          "duration": 0.13333333333332575
        },
        {
          "name": "A2",
          "midi": 45,
          "time": 497.2458333333269,
          "velocity": 1,
          "duration": 0.24583333333333712
        },
        {
          "name": "E3",
          "midi": 52,
          "time": 497.2458333333269,
          "velocity": 1,
          "duration": 0.24583333333333712
        },
        {
          "name": "E3",
          "midi": 52,
          "time": 497.2458333333269,
          "velocity": 1,
          "duration": 0.24583333333333712
        },
        {
          "name": "A2",
          "midi": 45,
          "time": 497.2458333333269,
          "velocity": 1,
          "duration": 0.24583333333333712
        },
        {
          "name": "G4",
          "midi": 67,
          "time": 497.3624999999936,
          "velocity": 1,
          "duration": 0.12916666666666288
        },
        {
          "name": "E2",
          "midi": 40,
          "time": 497.4958333333269,
          "velocity": 1,
          "duration": 0.24583333333333712
        },
        {
          "name": "E2",
          "midi": 40,
          "time": 497.4958333333269,
          "velocity": 1,
          "duration": 0.24583333333333712
        },
        {
          "name": "G4",
          "midi": 67,
          "time": 497.4999999999936,
          "velocity": 1,
          "duration": 0.11250000000001137
        },
        {
          "name": "F#4",
          "midi": 66,
          "time": 497.6208333333269,
          "velocity": 1,
          "duration": 0.13333333333332575
        },
        {
          "name": "F3",
          "midi": 53,
          "time": 497.7458333333269,
          "velocity": 1,
          "duration": 0.24583333333333712
        },
        {
          "name": "A#2",
          "midi": 46,
          "time": 497.7458333333269,
          "velocity": 1,
          "duration": 0.24583333333333712
        },
        {
          "name": "A#2",
          "midi": 46,
          "time": 497.7458333333269,
          "velocity": 1,
          "duration": 0.24583333333333712
        },
        {
          "name": "F3",
          "midi": 53,
          "time": 497.7458333333269,
          "velocity": 1,
          "duration": 0.24583333333333712
        },
        {
          "name": "F#4",
          "midi": 66,
          "time": 497.7499999999936,
          "velocity": 1,
          "duration": 0.11666666666667425
        },
        {
          "name": "F#4",
          "midi": 66,
          "time": 497.8624999999936,
          "velocity": 1,
          "duration": 0.125
        },
        {
          "name": "F#4",
          "midi": 66,
          "time": 497.99166666666025,
          "velocity": 1,
          "duration": 0.12083333333333712
        },
        {
          "name": "E3",
          "midi": 52,
          "time": 497.9958333333269,
          "velocity": 1,
          "duration": 0.24583333333333712
        },
        {
          "name": "A2",
          "midi": 45,
          "time": 497.9958333333269,
          "velocity": 1,
          "duration": 0.24583333333333712
        },
        {
          "name": "E3",
          "midi": 52,
          "time": 497.9958333333269,
          "velocity": 1,
          "duration": 0.24583333333333712
        },
        {
          "name": "A2",
          "midi": 45,
          "time": 497.9958333333269,
          "velocity": 1,
          "duration": 0.24583333333333712
        },
        {
          "name": "F#4",
          "midi": 66,
          "time": 498.1249999999936,
          "velocity": 1,
          "duration": 0.11250000000001137
        },
        {
          "name": "D4",
          "midi": 62,
          "time": 498.24166666666025,
          "velocity": 1,
          "duration": 0.2541666666666629
        },
        {
          "name": "G2",
          "midi": 43,
          "time": 498.2458333333269,
          "velocity": 1,
          "duration": 0.24583333333333712
        },
        {
          "name": "D3",
          "midi": 50,
          "time": 498.2458333333269,
          "velocity": 1,
          "duration": 0.24583333333333712
        },
        {
          "name": "D3",
          "midi": 50,
          "time": 498.2458333333269,
          "velocity": 1,
          "duration": 0.24583333333333712
        },
        {
          "name": "G2",
          "midi": 43,
          "time": 498.2458333333269,
          "velocity": 1,
          "duration": 0.24583333333333712
        },
        {
          "name": "D4",
          "midi": 62,
          "time": 498.4958333333269,
          "velocity": 1,
          "duration": 0.11250000000001137
        },
        {
          "name": "E4",
          "midi": 64,
          "time": 498.6249999999936,
          "velocity": 1,
          "duration": 0.13749999999998863
        },
        {
          "name": "E4",
          "midi": 64,
          "time": 498.74166666666025,
          "velocity": 1,
          "duration": 1.0083333333326436
        },
        {
          "name": "E2",
          "midi": 40,
          "time": 498.7458333333269,
          "velocity": 1,
          "duration": 0.24583333333310975
        },
        {
          "name": "E2",
          "midi": 40,
          "time": 498.7458333333269,
          "velocity": 1,
          "duration": 0.24583333333310975
        },
        {
          "name": "E2",
          "midi": 40,
          "time": 498.9958333333267,
          "velocity": 1,
          "duration": 0.24583333333310975
        },
        {
          "name": "E2",
          "midi": 40,
          "time": 498.9958333333267,
          "velocity": 1,
          "duration": 0.24583333333310975
        },
        {
          "name": "E2",
          "midi": 40,
          "time": 499.24583333332646,
          "velocity": 1,
          "duration": 0.24583333333310975
        },
        {
          "name": "E2",
          "midi": 40,
          "time": 499.24583333332646,
          "velocity": 1,
          "duration": 0.24583333333310975
        },
        {
          "name": "E2",
          "midi": 40,
          "time": 499.49583333332623,
          "velocity": 1,
          "duration": 0.24583333333333712
        },
        {
          "name": "E2",
          "midi": 40,
          "time": 499.49583333332623,
          "velocity": 1,
          "duration": 0.24583333333333712
        },
        {
          "name": "E4",
          "midi": 64,
          "time": 499.7374999999929,
          "velocity": 1,
          "duration": 0.17500000000001137
        },
        {
          "name": "E2",
          "midi": 40,
          "time": 499.74583333332623,
          "velocity": 1,
          "duration": 0.24583333333333712
        },
        {
          "name": "E2",
          "midi": 40,
          "time": 499.74583333332623,
          "velocity": 1,
          "duration": 0.24583333333333712
        },
        {
          "name": "D4",
          "midi": 62,
          "time": 499.9124999999929,
          "velocity": 1,
          "duration": 0.15416666666664014
        },
        {
          "name": "E2",
          "midi": 40,
          "time": 499.99583333332623,
          "velocity": 1,
          "duration": 0.24583333333328028
        },
        {
          "name": "E2",
          "midi": 40,
          "time": 499.99583333332623,
          "velocity": 1,
          "duration": 0.24583333333328028
        },
        {
          "name": "C#4",
          "midi": 61,
          "time": 500.07916666665955,
          "velocity": 1,
          "duration": 0.15416666666664014
        },
        {
          "name": "A4",
          "midi": 69,
          "time": 500.23749999999285,
          "velocity": 1,
          "duration": 0.125
        },
        {
          "name": "E2",
          "midi": 40,
          "time": 500.2458333333262,
          "velocity": 1,
          "duration": 0.24583333333333712
        },
        {
          "name": "E2",
          "midi": 40,
          "time": 500.2458333333262,
          "velocity": 1,
          "duration": 0.24583333333333712
        },
        {
          "name": "B4",
          "midi": 71,
          "time": 500.3708333333262,
          "velocity": 1,
          "duration": 0.2333333333333485
        },
        {
          "name": "E2",
          "midi": 40,
          "time": 500.4958333333262,
          "velocity": 1,
          "duration": 0.24583333333333712
        },
        {
          "name": "E2",
          "midi": 40,
          "time": 500.4958333333262,
          "velocity": 1,
          "duration": 0.24583333333333712
        },
        {
          "name": "E4",
          "midi": 64,
          "time": 500.6166666666595,
          "velocity": 1,
          "duration": 0.125
        },
        {
          "name": "E2",
          "midi": 40,
          "time": 500.7458333333262,
          "velocity": 1,
          "duration": 0.24583333333333712
        },
        {
          "name": "E2",
          "midi": 40,
          "time": 500.7458333333262,
          "velocity": 1,
          "duration": 0.24583333333333712
        },
        {
          "name": "D4",
          "midi": 62,
          "time": 500.7458333333262,
          "velocity": 1,
          "duration": 0.15833333333335986
        },
        {
          "name": "C#4",
          "midi": 61,
          "time": 500.9166666666595,
          "velocity": 1,
          "duration": 0.1791666666666174
        },
        {
          "name": "D3",
          "midi": 50,
          "time": 500.9958333333262,
          "velocity": 1,
          "duration": 0.24583333333328028
        },
        {
          "name": "G2",
          "midi": 43,
          "time": 500.9958333333262,
          "velocity": 1,
          "duration": 0.24583333333328028
        },
        {
          "name": "G2",
          "midi": 43,
          "time": 500.9958333333262,
          "velocity": 1,
          "duration": 0.24583333333328028
        },
        {
          "name": "D3",
          "midi": 50,
          "time": 500.9958333333262,
          "velocity": 1,
          "duration": 0.24583333333328028
        },
        {
          "name": "B3",
          "midi": 59,
          "time": 501.0791666666595,
          "velocity": 1,
          "duration": 0.17499999999995453
        },
        {
          "name": "A3",
          "midi": 57,
          "time": 501.24166666665946,
          "velocity": 1,
          "duration": 0.5041666666666629
        },
        {
          "name": "E3",
          "midi": 52,
          "time": 501.2458333333261,
          "velocity": 1,
          "duration": 0.24583333333333712
        },
        {
          "name": "A2",
          "midi": 45,
          "time": 501.2458333333261,
          "velocity": 1,
          "duration": 0.24583333333333712
        },
        {
          "name": "E3",
          "midi": 52,
          "time": 501.2458333333261,
          "velocity": 1,
          "duration": 0.24583333333333712
        },
        {
          "name": "A2",
          "midi": 45,
          "time": 501.2458333333261,
          "velocity": 1,
          "duration": 0.24583333333333712
        },
        {
          "name": "D3",
          "midi": 50,
          "time": 501.4958333333261,
          "velocity": 1,
          "duration": 0.24583333333333712
        },
        {
          "name": "G2",
          "midi": 43,
          "time": 501.4958333333261,
          "velocity": 1,
          "duration": 0.24583333333333712
        },
        {
          "name": "D3",
          "midi": 50,
          "time": 501.4958333333261,
          "velocity": 1,
          "duration": 0.24583333333333712
        },
        {
          "name": "G2",
          "midi": 43,
          "time": 501.4958333333261,
          "velocity": 1,
          "duration": 0.24583333333333712
        },
        {
          "name": "A2",
          "midi": 45,
          "time": 501.7458333333261,
          "velocity": 1,
          "duration": 0.24583333333333712
        },
        {
          "name": "E3",
          "midi": 52,
          "time": 501.7458333333261,
          "velocity": 1,
          "duration": 0.24583333333333712
        },
        {
          "name": "A2",
          "midi": 45,
          "time": 501.7458333333261,
          "velocity": 1,
          "duration": 0.24583333333333712
        },
        {
          "name": "E3",
          "midi": 52,
          "time": 501.7458333333261,
          "velocity": 1,
          "duration": 0.24583333333333712
        },
        {
          "name": "F5",
          "midi": 77,
          "time": 501.9874999999928,
          "velocity": 1,
          "duration": 3.666666666664753
        },
        {
          "name": "E2",
          "midi": 40,
          "time": 501.9958333333261,
          "velocity": 1,
          "duration": 0.24583333333333712
        },
        {
          "name": "E2",
          "midi": 40,
          "time": 501.9958333333261,
          "velocity": 1,
          "duration": 0.24583333333333712
        },
        {
          "name": "E2",
          "midi": 40,
          "time": 502.2458333333261,
          "velocity": 1,
          "duration": 0.24583333333333712
        },
        {
          "name": "E2",
          "midi": 40,
          "time": 502.2458333333261,
          "velocity": 1,
          "duration": 0.24583333333333712
        },
        {
          "name": "E2",
          "midi": 40,
          "time": 502.4958333333261,
          "velocity": 1,
          "duration": 0.24583333333310975
        },
        {
          "name": "E2",
          "midi": 40,
          "time": 502.4958333333261,
          "velocity": 1,
          "duration": 0.24583333333310975
        },
        {
          "name": "E2",
          "midi": 40,
          "time": 502.7458333333259,
          "velocity": 1,
          "duration": 0.24583333333310975
        },
        {
          "name": "E2",
          "midi": 40,
          "time": 502.7458333333259,
          "velocity": 1,
          "duration": 0.24583333333310975
        },
        {
          "name": "E2",
          "midi": 40,
          "time": 502.99583333332566,
          "velocity": 1,
          "duration": 0.24583333333310975
        },
        {
          "name": "E2",
          "midi": 40,
          "time": 502.99583333332566,
          "velocity": 1,
          "duration": 0.24583333333310975
        },
        {
          "name": "E2",
          "midi": 40,
          "time": 503.24583333332544,
          "velocity": 1,
          "duration": 0.24583333333322344
        },
        {
          "name": "E2",
          "midi": 40,
          "time": 503.24583333332544,
          "velocity": 1,
          "duration": 0.24583333333322344
        },
        {
          "name": "E2",
          "midi": 40,
          "time": 503.4958333333253,
          "velocity": 1,
          "duration": 0.24583333333322344
        },
        {
          "name": "E2",
          "midi": 40,
          "time": 503.4958333333253,
          "velocity": 1,
          "duration": 0.24583333333322344
        },
        {
          "name": "E2",
          "midi": 40,
          "time": 503.7458333333252,
          "velocity": 1,
          "duration": 0.24583333333310975
        },
        {
          "name": "E2",
          "midi": 40,
          "time": 503.7458333333252,
          "velocity": 1,
          "duration": 0.24583333333310975
        },
        {
          "name": "E2",
          "midi": 40,
          "time": 503.995833333325,
          "velocity": 1,
          "duration": 0.24583333333333712
        },
        {
          "name": "E2",
          "midi": 40,
          "time": 503.995833333325,
          "velocity": 1,
          "duration": 0.24583333333333712
        },
        {
          "name": "G2",
          "midi": 43,
          "time": 504.245833333325,
          "velocity": 1,
          "duration": 0.24583333333333712
        },
        {
          "name": "D3",
          "midi": 50,
          "time": 504.245833333325,
          "velocity": 1,
          "duration": 0.24583333333333712
        },
        {
          "name": "D3",
          "midi": 50,
          "time": 504.245833333325,
          "velocity": 1,
          "duration": 0.24583333333333712
        },
        {
          "name": "G2",
          "midi": 43,
          "time": 504.245833333325,
          "velocity": 1,
          "duration": 0.24583333333333712
        },
        {
          "name": "A2",
          "midi": 45,
          "time": 504.495833333325,
          "velocity": 1,
          "duration": 0.24583333333322344
        },
        {
          "name": "E3",
          "midi": 52,
          "time": 504.495833333325,
          "velocity": 1,
          "duration": 0.24583333333322344
        },
        {
          "name": "A2",
          "midi": 45,
          "time": 504.495833333325,
          "velocity": 1,
          "duration": 0.24583333333322344
        },
        {
          "name": "E3",
          "midi": 52,
          "time": 504.495833333325,
          "velocity": 1,
          "duration": 0.24583333333322344
        },
        {
          "name": "E2",
          "midi": 40,
          "time": 504.74583333332487,
          "velocity": 1,
          "duration": 0.24583333333310975
        },
        {
          "name": "E2",
          "midi": 40,
          "time": 504.74583333332487,
          "velocity": 1,
          "duration": 0.24583333333310975
        },
        {
          "name": "F3",
          "midi": 53,
          "time": 504.99583333332464,
          "velocity": 1,
          "duration": 0.24583333333310975
        },
        {
          "name": "A#2",
          "midi": 46,
          "time": 504.99583333332464,
          "velocity": 1,
          "duration": 0.24583333333310975
        },
        {
          "name": "F3",
          "midi": 53,
          "time": 504.99583333332464,
          "velocity": 1,
          "duration": 0.24583333333310975
        },
        {
          "name": "A#2",
          "midi": 46,
          "time": 504.99583333332464,
          "velocity": 1,
          "duration": 0.24583333333310975
        },
        {
          "name": "A2",
          "midi": 45,
          "time": 505.2458333333244,
          "velocity": 1,
          "duration": 0.24583333333310975
        },
        {
          "name": "E3",
          "midi": 52,
          "time": 505.2458333333244,
          "velocity": 1,
          "duration": 0.24583333333310975
        },
        {
          "name": "E3",
          "midi": 52,
          "time": 505.2458333333244,
          "velocity": 1,
          "duration": 0.24583333333310975
        },
        {
          "name": "A2",
          "midi": 45,
          "time": 505.2458333333244,
          "velocity": 1,
          "duration": 0.24583333333310975
        },
        {
          "name": "G2",
          "midi": 43,
          "time": 505.4958333333242,
          "velocity": 1,
          "duration": 0.24583333333333712
        },
        {
          "name": "D3",
          "midi": 50,
          "time": 505.4958333333242,
          "velocity": 1,
          "duration": 0.24583333333333712
        },
        {
          "name": "G2",
          "midi": 43,
          "time": 505.4958333333242,
          "velocity": 1,
          "duration": 0.24583333333333712
        },
        {
          "name": "D3",
          "midi": 50,
          "time": 505.4958333333242,
          "velocity": 1,
          "duration": 0.24583333333333712
        },
        {
          "name": "A2",
          "midi": 45,
          "time": 505.6583333333242,
          "velocity": 1,
          "duration": 0.15833333333330302
        },
        {
          "name": "B2",
          "midi": 47,
          "time": 505.8208333333242,
          "velocity": 1,
          "duration": 0.14999999999997726
        },
        {
          "name": "E2",
          "midi": 40,
          "time": 505.99583333332413,
          "velocity": 1,
          "duration": 0.24583333333328028
        },
        {
          "name": "E2",
          "midi": 40,
          "time": 505.99583333332413,
          "velocity": 1,
          "duration": 0.24583333333328028
        },
        {
          "name": "A2",
          "midi": 45,
          "time": 505.99583333332413,
          "velocity": 1,
          "duration": 0.25416666666660603
        },
        {
          "name": "E2",
          "midi": 40,
          "time": 506.2458333333241,
          "velocity": 1,
          "duration": 0.24583333333333712
        },
        {
          "name": "E2",
          "midi": 40,
          "time": 506.2458333333241,
          "velocity": 1,
          "duration": 0.24583333333333712
        },
        {
          "name": "B2",
          "midi": 47,
          "time": 506.2458333333241,
          "velocity": 1,
          "duration": 0.25833333333332575
        },
        {
          "name": "A#4",
          "midi": 70,
          "time": 506.48749999999075,
          "velocity": 1,
          "duration": 0.24166666666667425
        },
        {
          "name": "E2",
          "midi": 40,
          "time": 506.4958333333241,
          "velocity": 1,
          "duration": 0.24583333333333712
        },
        {
          "name": "E2",
          "midi": 40,
          "time": 506.4958333333241,
          "velocity": 1,
          "duration": 0.24583333333333712
        },
        {
          "name": "A4",
          "midi": 69,
          "time": 506.7416666666574,
          "velocity": 1,
          "duration": 0.2541666666666629
        },
        {
          "name": "E2",
          "midi": 40,
          "time": 506.7458333333241,
          "velocity": 1,
          "duration": 0.24583333333333712
        },
        {
          "name": "E2",
          "midi": 40,
          "time": 506.7458333333241,
          "velocity": 1,
          "duration": 0.24583333333333712
        },
        {
          "name": "G4",
          "midi": 67,
          "time": 506.98749999999075,
          "velocity": 0.5905511811023622,
          "duration": 0.024999999999977263
        },
        {
          "name": "E2",
          "midi": 40,
          "time": 506.9958333333241,
          "velocity": 1,
          "duration": 0.24583333333333712
        },
        {
          "name": "E2",
          "midi": 40,
          "time": 506.9958333333241,
          "velocity": 1,
          "duration": 0.24583333333333712
        },
        {
          "name": "A4",
          "midi": 69,
          "time": 506.9958333333241,
          "velocity": 1,
          "duration": 0.24166666666667425
        },
        {
          "name": "E2",
          "midi": 40,
          "time": 507.2458333333241,
          "velocity": 1,
          "duration": 0.24583333333333712
        },
        {
          "name": "E2",
          "midi": 40,
          "time": 507.2458333333241,
          "velocity": 1,
          "duration": 0.24583333333333712
        },
        {
          "name": "F#4",
          "midi": 66,
          "time": 507.2458333333241,
          "velocity": 1,
          "duration": 0.26249999999998863
        },
        {
          "name": "E2",
          "midi": 40,
          "time": 507.4958333333241,
          "velocity": 1,
          "duration": 0.24583333333333712
        },
        {
          "name": "E2",
          "midi": 40,
          "time": 507.4958333333241,
          "velocity": 1,
          "duration": 0.24583333333333712
        },
        {
          "name": "E4",
          "midi": 64,
          "time": 507.4958333333241,
          "velocity": 1,
          "duration": 0.2541666666666629
        },
        {
          "name": "E2",
          "midi": 40,
          "time": 507.7458333333241,
          "velocity": 1,
          "duration": 0.24583333333333712
        },
        {
          "name": "E2",
          "midi": 40,
          "time": 507.7458333333241,
          "velocity": 1,
          "duration": 0.24583333333333712
        },
        {
          "name": "B3",
          "midi": 59,
          "time": 507.74999999999073,
          "velocity": 1,
          "duration": 0.2333333333333485
        },
        {
          "name": "E4",
          "midi": 64,
          "time": 507.9916666666574,
          "velocity": 1,
          "duration": 0.24583333333333712
        },
        {
          "name": "E2",
          "midi": 40,
          "time": 507.9958333333241,
          "velocity": 1,
          "duration": 0.24583333333333712
        },
        {
          "name": "E2",
          "midi": 40,
          "time": 507.9958333333241,
          "velocity": 1,
          "duration": 0.24583333333333712
        },
        {
          "name": "F#4",
          "midi": 66,
          "time": 508.23749999999075,
          "velocity": 1,
          "duration": 0.9833333333332916
        },
        {
          "name": "D3",
          "midi": 50,
          "time": 508.2458333333241,
          "velocity": 1,
          "duration": 0.24583333333328028
        },
        {
          "name": "G2",
          "midi": 43,
          "time": 508.2458333333241,
          "velocity": 1,
          "duration": 0.24583333333328028
        },
        {
          "name": "D3",
          "midi": 50,
          "time": 508.2458333333241,
          "velocity": 1,
          "duration": 0.24583333333328028
        },
        {
          "name": "G2",
          "midi": 43,
          "time": 508.2458333333241,
          "velocity": 1,
          "duration": 0.24583333333328028
        },
        {
          "name": "A2",
          "midi": 45,
          "time": 508.495833333324,
          "velocity": 1,
          "duration": 0.24583333333333712
        },
        {
          "name": "E3",
          "midi": 52,
          "time": 508.495833333324,
          "velocity": 1,
          "duration": 0.24583333333333712
        },
        {
          "name": "A2",
          "midi": 45,
          "time": 508.495833333324,
          "velocity": 1,
          "duration": 0.24583333333333712
        },
        {
          "name": "E3",
          "midi": 52,
          "time": 508.495833333324,
          "velocity": 1,
          "duration": 0.24583333333333712
        },
        {
          "name": "G2",
          "midi": 43,
          "time": 508.745833333324,
          "velocity": 1,
          "duration": 0.24583333333333712
        },
        {
          "name": "D3",
          "midi": 50,
          "time": 508.745833333324,
          "velocity": 1,
          "duration": 0.24583333333333712
        },
        {
          "name": "D3",
          "midi": 50,
          "time": 508.745833333324,
          "velocity": 1,
          "duration": 0.24583333333333712
        },
        {
          "name": "G2",
          "midi": 43,
          "time": 508.745833333324,
          "velocity": 1,
          "duration": 0.24583333333333712
        },
        {
          "name": "E3",
          "midi": 52,
          "time": 508.995833333324,
          "velocity": 1,
          "duration": 0.24583333333333712
        },
        {
          "name": "A2",
          "midi": 45,
          "time": 508.995833333324,
          "velocity": 1,
          "duration": 0.24583333333333712
        },
        {
          "name": "E3",
          "midi": 52,
          "time": 508.995833333324,
          "velocity": 1,
          "duration": 0.24583333333333712
        },
        {
          "name": "A2",
          "midi": 45,
          "time": 508.995833333324,
          "velocity": 1,
          "duration": 0.24583333333333712
        },
        {
          "name": "E2",
          "midi": 40,
          "time": 509.245833333324,
          "velocity": 1,
          "duration": 0.24583333333333712
        },
        {
          "name": "E2",
          "midi": 40,
          "time": 509.245833333324,
          "velocity": 1,
          "duration": 0.24583333333333712
        },
        {
          "name": "D5",
          "midi": 74,
          "time": 509.245833333324,
          "velocity": 1,
          "duration": 0.24166666666667425
        },
        {
          "name": "C5",
          "midi": 72,
          "time": 509.49166666665735,
          "velocity": 1,
          "duration": 0.25
        },
        {
          "name": "E2",
          "midi": 40,
          "time": 509.495833333324,
          "velocity": 1,
          "duration": 0.24583333333333712
        },
        {
          "name": "E2",
          "midi": 40,
          "time": 509.495833333324,
          "velocity": 1,
          "duration": 0.24583333333333712
        },
        {
          "name": "B4",
          "midi": 71,
          "time": 509.74166666665735,
          "velocity": 1,
          "duration": 0.25833333333332575
        },
        {
          "name": "E2",
          "midi": 40,
          "time": 509.745833333324,
          "velocity": 1,
          "duration": 0.24583333333333712
        },
        {
          "name": "E2",
          "midi": 40,
          "time": 509.745833333324,
          "velocity": 1,
          "duration": 0.24583333333333712
        },
        {
          "name": "E2",
          "midi": 40,
          "time": 509.995833333324,
          "velocity": 1,
          "duration": 0.24583333333333712
        },
        {
          "name": "E2",
          "midi": 40,
          "time": 509.995833333324,
          "velocity": 1,
          "duration": 0.24583333333333712
        },
        {
          "name": "A4",
          "midi": 69,
          "time": 509.9999999999907,
          "velocity": 1,
          "duration": 0.25
        },
        {
          "name": "E2",
          "midi": 40,
          "time": 510.245833333324,
          "velocity": 1,
          "duration": 0.24583333333333712
        },
        {
          "name": "E2",
          "midi": 40,
          "time": 510.245833333324,
          "velocity": 1,
          "duration": 0.24583333333333712
        },
        {
          "name": "C5",
          "midi": 72,
          "time": 510.245833333324,
          "velocity": 1,
          "duration": 0.23750000000001137
        },
        {
          "name": "B4",
          "midi": 71,
          "time": 510.4874999999907,
          "velocity": 1,
          "duration": 0.2541666666666629
        },
        {
          "name": "E2",
          "midi": 40,
          "time": 510.495833333324,
          "velocity": 1,
          "duration": 0.24583333333333712
        },
        {
          "name": "E2",
          "midi": 40,
          "time": 510.495833333324,
          "velocity": 1,
          "duration": 0.24583333333333712
        },
        {
          "name": "E2",
          "midi": 40,
          "time": 510.745833333324,
          "velocity": 1,
          "duration": 0.24583333333333712
        },
        {
          "name": "E2",
          "midi": 40,
          "time": 510.745833333324,
          "velocity": 1,
          "duration": 0.24583333333333712
        },
        {
          "name": "A4",
          "midi": 69,
          "time": 510.7499999999907,
          "velocity": 1,
          "duration": 0.24166666666667425
        },
        {
          "name": "G4",
          "midi": 67,
          "time": 510.99166666665735,
          "velocity": 1,
          "duration": 0.2333333333333485
        },
        {
          "name": "E2",
          "midi": 40,
          "time": 510.995833333324,
          "velocity": 1,
          "duration": 0.24583333333333712
        },
        {
          "name": "E2",
          "midi": 40,
          "time": 510.995833333324,
          "velocity": 1,
          "duration": 0.24583333333333712
        },
        {
          "name": "E2",
          "midi": 40,
          "time": 511.245833333324,
          "velocity": 1,
          "duration": 0.24583333333333712
        },
        {
          "name": "E2",
          "midi": 40,
          "time": 511.245833333324,
          "velocity": 1,
          "duration": 0.24583333333333712
        },
        {
          "name": "F#4",
          "midi": 66,
          "time": 511.2499999999907,
          "velocity": 1,
          "duration": 0.2333333333333485
        },
        {
          "name": "G2",
          "midi": 43,
          "time": 511.495833333324,
          "velocity": 1,
          "duration": 0.24583333333333712
        },
        {
          "name": "D3",
          "midi": 50,
          "time": 511.495833333324,
          "velocity": 1,
          "duration": 0.24583333333333712
        },
        {
          "name": "D3",
          "midi": 50,
          "time": 511.495833333324,
          "velocity": 1,
          "duration": 0.24583333333333712
        },
        {
          "name": "G2",
          "midi": 43,
          "time": 511.495833333324,
          "velocity": 1,
          "duration": 0.24583333333333712
        },
        {
          "name": "G4",
          "midi": 67,
          "time": 511.4999999999907,
          "velocity": 1,
          "duration": 0.2333333333333485
        },
        {
          "name": "A4",
          "midi": 69,
          "time": 511.7374999999907,
          "velocity": 1,
          "duration": 0.25
        },
        {
          "name": "E3",
          "midi": 52,
          "time": 511.745833333324,
          "velocity": 1,
          "duration": 0.24583333333333712
        },
        {
          "name": "A2",
          "midi": 45,
          "time": 511.745833333324,
          "velocity": 1,
          "duration": 0.24583333333333712
        },
        {
          "name": "A2",
          "midi": 45,
          "time": 511.745833333324,
          "velocity": 1,
          "duration": 0.24583333333333712
        },
        {
          "name": "E3",
          "midi": 52,
          "time": 511.745833333324,
          "velocity": 1,
          "duration": 0.24583333333333712
        },
        {
          "name": "B4",
          "midi": 71,
          "time": 511.9874999999907,
          "velocity": 1,
          "duration": 0.5000000000000568
        },
        {
          "name": "E2",
          "midi": 40,
          "time": 511.995833333324,
          "velocity": 1,
          "duration": 0.24583333333333712
        },
        {
          "name": "E2",
          "midi": 40,
          "time": 511.995833333324,
          "velocity": 1,
          "duration": 0.24583333333333712
        },
        {
          "name": "F3",
          "midi": 53,
          "time": 512.2458333333241,
          "velocity": 1,
          "duration": 0.24583333333339397
        },
        {
          "name": "A#2",
          "midi": 46,
          "time": 512.2458333333241,
          "velocity": 1,
          "duration": 0.24583333333339397
        },
        {
          "name": "A#2",
          "midi": 46,
          "time": 512.2458333333241,
          "velocity": 1,
          "duration": 0.24583333333339397
        },
        {
          "name": "F3",
          "midi": 53,
          "time": 512.2458333333241,
          "velocity": 1,
          "duration": 0.24583333333339397
        },
        {
          "name": "B4",
          "midi": 71,
          "time": 512.4916666666575,
          "velocity": 1,
          "duration": 0.11250000000006821
        },
        {
          "name": "E3",
          "midi": 52,
          "time": 512.4958333333242,
          "velocity": 1,
          "duration": 0.24583333333339397
        },
        {
          "name": "A2",
          "midi": 45,
          "time": 512.4958333333242,
          "velocity": 1,
          "duration": 0.24583333333339397
        },
        {
          "name": "E3",
          "midi": 52,
          "time": 512.4958333333242,
          "velocity": 1,
          "duration": 0.24583333333339397
        },
        {
          "name": "A2",
          "midi": 45,
          "time": 512.4958333333242,
          "velocity": 1,
          "duration": 0.24583333333339397
        },
        {
          "name": "B4",
          "midi": 71,
          "time": 512.6124999999909,
          "velocity": 1,
          "duration": 0.13333333333343944
        },
        {
          "name": "B4",
          "midi": 71,
          "time": 512.7416666666576,
          "velocity": 1,
          "duration": 0.16666666666674246
        },
        {
          "name": "G2",
          "midi": 43,
          "time": 512.7458333333243,
          "velocity": 1,
          "duration": 0.24583333333339397
        },
        {
          "name": "D3",
          "midi": 50,
          "time": 512.7458333333243,
          "velocity": 1,
          "duration": 0.24583333333339397
        },
        {
          "name": "D3",
          "midi": 50,
          "time": 512.7458333333243,
          "velocity": 1,
          "duration": 0.24583333333339397
        },
        {
          "name": "G2",
          "midi": 43,
          "time": 512.7458333333243,
          "velocity": 1,
          "duration": 0.24583333333339397
        },
        {
          "name": "B4",
          "midi": 71,
          "time": 512.9083333333243,
          "velocity": 1,
          "duration": 0.15000000000009095
        },
        {
          "name": "B4",
          "midi": 71,
          "time": 513.0833333333244,
          "velocity": 1,
          "duration": 0.14999999999997726
        },
        {
          "name": "B4",
          "midi": 71,
          "time": 513.2374999999911,
          "velocity": 1,
          "duration": 0.12916666666660603
        },
        {
          "name": "E2",
          "midi": 40,
          "time": 513.2458333333244,
          "velocity": 1,
          "duration": 0.24583333333328028
        },
        {
          "name": "E2",
          "midi": 40,
          "time": 513.2458333333244,
          "velocity": 1,
          "duration": 0.24583333333328028
        },
        {
          "name": "D5",
          "midi": 74,
          "time": 513.374999999991,
          "velocity": 1,
          "duration": 0.11249999999995453
        },
        {
          "name": "E2",
          "midi": 40,
          "time": 513.4958333333244,
          "velocity": 1,
          "duration": 0.24583333333339397
        },
        {
          "name": "E2",
          "midi": 40,
          "time": 513.4958333333244,
          "velocity": 1,
          "duration": 0.24583333333339397
        },
        {
          "name": "C5",
          "midi": 72,
          "time": 513.4999999999911,
          "velocity": 1,
          "duration": 0.13333333333332575
        },
        {
          "name": "B4",
          "midi": 71,
          "time": 513.6249999999911,
          "velocity": 1,
          "duration": 0.13750000000015916
        },
        {
          "name": "E2",
          "midi": 40,
          "time": 513.7458333333245,
          "velocity": 1,
          "duration": 0.24583333333339397
        },
        {
          "name": "E2",
          "midi": 40,
          "time": 513.7458333333245,
          "velocity": 1,
          "duration": 0.24583333333339397
        },
        {
          "name": "D5",
          "midi": 74,
          "time": 513.7499999999912,
          "velocity": 1,
          "duration": 0.13750000000004547
        },
        {
          "name": "C5",
          "midi": 72,
          "time": 513.8749999999912,
          "velocity": 1,
          "duration": 0.10833333333334849
        },
        {
          "name": "E2",
          "midi": 40,
          "time": 513.9958333333246,
          "velocity": 1,
          "duration": 0.24583333333339397
        },
        {
          "name": "E2",
          "midi": 40,
          "time": 513.9958333333246,
          "velocity": 1,
          "duration": 0.24583333333339397
        },
        {
          "name": "B4",
          "midi": 71,
          "time": 513.9958333333246,
          "velocity": 1,
          "duration": 0.10833333333334849
        },
        {
          "name": "C5",
          "midi": 72,
          "time": 514.1124999999913,
          "velocity": 1,
          "duration": 0.13333333333343944
        },
        {
          "name": "E5",
          "midi": 76,
          "time": 514.2374999999913,
          "velocity": 1,
          "duration": 0.11250000000006821
        },
        {
          "name": "E2",
          "midi": 40,
          "time": 514.2458333333248,
          "velocity": 1,
          "duration": 0.24583333333339397
        },
        {
          "name": "E2",
          "midi": 40,
          "time": 514.2458333333248,
          "velocity": 1,
          "duration": 0.24583333333339397
        },
        {
          "name": "D5",
          "midi": 74,
          "time": 514.3708333333248,
          "velocity": 1,
          "duration": 0.10833333333334849
        },
        {
          "name": "E2",
          "midi": 40,
          "time": 514.4958333333249,
          "velocity": 1,
          "duration": 0.24583333333339397
        },
        {
          "name": "E2",
          "midi": 40,
          "time": 514.4958333333249,
          "velocity": 1,
          "duration": 0.24583333333339397
        },
        {
          "name": "D5",
          "midi": 74,
          "time": 514.4958333333249,
          "velocity": 1,
          "duration": 0.13750000000004547
        },
        {
          "name": "C5",
          "midi": 72,
          "time": 514.6124999999915,
          "velocity": 1,
          "duration": 0.13333333333343944
        },
        {
          "name": "E5",
          "midi": 76,
          "time": 514.7416666666583,
          "velocity": 1,
          "duration": 0.12083333333339397
        },
        {
          "name": "E2",
          "midi": 40,
          "time": 514.745833333325,
          "velocity": 1,
          "duration": 0.24583333333339397
        },
        {
          "name": "E2",
          "midi": 40,
          "time": 514.745833333325,
          "velocity": 1,
          "duration": 0.24583333333339397
        },
        {
          "name": "D5",
          "midi": 74,
          "time": 514.870833333325,
          "velocity": 1,
          "duration": 0.11666666666667425
        },
        {
          "name": "D5",
          "midi": 74,
          "time": 514.9916666666584,
          "velocity": 1,
          "duration": 0.11666666666667425
        },
        {
          "name": "E2",
          "midi": 40,
          "time": 514.9958333333251,
          "velocity": 1,
          "duration": 0.24583333333328028
        },
        {
          "name": "E2",
          "midi": 40,
          "time": 514.9958333333251,
          "velocity": 1,
          "duration": 0.24583333333328028
        },
        {
          "name": "D5",
          "midi": 74,
          "time": 515.1166666666584,
          "velocity": 1,
          "duration": 0.12916666666671972
        },
        {
          "name": "E2",
          "midi": 40,
          "time": 515.2458333333251,
          "velocity": 1,
          "duration": 0.24583333333339397
        },
        {
          "name": "E2",
          "midi": 40,
          "time": 515.2458333333251,
          "velocity": 1,
          "duration": 0.24583333333339397
        },
        {
          "name": "F#5",
          "midi": 78,
          "time": 515.2458333333251,
          "velocity": 1,
          "duration": 0.13333333333343944
        },
        {
          "name": "E5",
          "midi": 76,
          "time": 515.3749999999918,
          "velocity": 1,
          "duration": 0.11666666666667425
        },
        {
          "name": "G2",
          "midi": 43,
          "time": 515.4958333333252,
          "velocity": 1,
          "duration": 0.24583333333339397
        },
        {
          "name": "D3",
          "midi": 50,
          "time": 515.4958333333252,
          "velocity": 1,
          "duration": 0.24583333333339397
        },
        {
          "name": "D3",
          "midi": 50,
          "time": 515.4958333333252,
          "velocity": 1,
          "duration": 0.24583333333339397
        },
        {
          "name": "G2",
          "midi": 43,
          "time": 515.4958333333252,
          "velocity": 1,
          "duration": 0.24583333333339397
        },
        {
          "name": "D5",
          "midi": 74,
          "time": 515.4999999999919,
          "velocity": 1,
          "duration": 0.12916666666671972
        },
        {
          "name": "E5",
          "midi": 76,
          "time": 515.6249999999919,
          "velocity": 1,
          "duration": 0.1250000000001137
        },
        {
          "name": "A2",
          "midi": 45,
          "time": 515.7458333333253,
          "velocity": 1,
          "duration": 0.24583333333339397
        },
        {
          "name": "E3",
          "midi": 52,
          "time": 515.7458333333253,
          "velocity": 1,
          "duration": 0.24583333333339397
        },
        {
          "name": "E3",
          "midi": 52,
          "time": 515.7458333333253,
          "velocity": 1,
          "duration": 0.24583333333339397
        },
        {
          "name": "A2",
          "midi": 45,
          "time": 515.7458333333253,
          "velocity": 1,
          "duration": 0.24583333333339397
        },
        {
          "name": "D5",
          "midi": 74,
          "time": 515.749999999992,
          "velocity": 1,
          "duration": 0.125
        },
        {
          "name": "E5",
          "midi": 76,
          "time": 515.8708333333253,
          "velocity": 1,
          "duration": 0.11666666666667425
        },
        {
          "name": "D3",
          "midi": 50,
          "time": 515.9958333333254,
          "velocity": 1,
          "duration": 0.24583333333339397
        },
        {
          "name": "G2",
          "midi": 43,
          "time": 515.9958333333254,
          "velocity": 1,
          "duration": 0.24583333333339397
        },
        {
          "name": "G2",
          "midi": 43,
          "time": 515.9958333333254,
          "velocity": 1,
          "duration": 0.24583333333339397
        },
        {
          "name": "D3",
          "midi": 50,
          "time": 515.9958333333254,
          "velocity": 1,
          "duration": 0.24583333333339397
        },
        {
          "name": "G5",
          "midi": 79,
          "time": 515.9999999999922,
          "velocity": 1,
          "duration": 0.11666666666667425
        },
        {
          "name": "G5",
          "midi": 79,
          "time": 516.1208333333255,
          "velocity": 1,
          "duration": 0.12083333333328028
        },
        {
          "name": "E5",
          "midi": 76,
          "time": 516.2416666666588,
          "velocity": 1,
          "duration": 0.125
        },
        {
          "name": "E3",
          "midi": 52,
          "time": 516.2458333333255,
          "velocity": 1,
          "duration": 0.24583333333328028
        },
        {
          "name": "A2",
          "midi": 45,
          "time": 516.2458333333255,
          "velocity": 1,
          "duration": 0.24583333333328028
        },
        {
          "name": "E3",
          "midi": 52,
          "time": 516.2458333333255,
          "velocity": 1,
          "duration": 0.24583333333328028
        },
        {
          "name": "A2",
          "midi": 45,
          "time": 516.2458333333255,
          "velocity": 1,
          "duration": 0.24583333333328028
        },
        {
          "name": "F#5",
          "midi": 78,
          "time": 516.3749999999922,
          "velocity": 1,
          "duration": 0.11249999999995453
        },
        {
          "name": "A5",
          "midi": 81,
          "time": 516.4916666666588,
          "velocity": 1,
          "duration": 0.12083333333339397
        },
        {
          "name": "F#2",
          "midi": 42,
          "time": 516.4958333333255,
          "velocity": 1,
          "duration": 0.24583333333339397
        },
        {
          "name": "F#2",
          "midi": 42,
          "time": 516.4958333333255,
          "velocity": 1,
          "duration": 0.24583333333339397
        },
        {
          "name": "G5",
          "midi": 79,
          "time": 516.6249999999923,
          "velocity": 1,
          "duration": 0.11249999999995453
        },
        {
          "name": "F#2",
          "midi": 42,
          "time": 516.7458333333257,
          "velocity": 1,
          "duration": 0.24583333333339397
        },
        {
          "name": "F#2",
          "midi": 42,
          "time": 516.7458333333257,
          "velocity": 1,
          "duration": 0.24583333333339397
        },
        {
          "name": "F#5",
          "midi": 78,
          "time": 516.7458333333257,
          "velocity": 1,
          "duration": 0.12083333333328028
        },
        {
          "name": "B5",
          "midi": 83,
          "time": 516.866666666659,
          "velocity": 1,
          "duration": 0.10833333333334849
        },
        {
          "name": "A5",
          "midi": 81,
          "time": 516.9874999999923,
          "velocity": 1,
          "duration": 0.1750000000000682
        },
        {
          "name": "F#2",
          "midi": 42,
          "time": 516.9958333333258,
          "velocity": 1,
          "duration": 0.24583333333328028
        },
        {
          "name": "F#2",
          "midi": 42,
          "time": 516.9958333333258,
          "velocity": 1,
          "duration": 0.24583333333328028
        },
        {
          "name": "F#5",
          "midi": 78,
          "time": 517.1624999999924,
          "velocity": 1,
          "duration": 0.1583333333334167
        },
        {
          "name": "F#2",
          "midi": 42,
          "time": 517.2458333333258,
          "velocity": 1,
          "duration": 0.24583333333339397
        },
        {
          "name": "F#2",
          "midi": 42,
          "time": 517.2458333333258,
          "velocity": 1,
          "duration": 0.24583333333339397
        },
        {
          "name": "F#5",
          "midi": 78,
          "time": 517.3208333333258,
          "velocity": 1,
          "duration": 0.15416666666669698
        },
        {
          "name": "A5",
          "midi": 81,
          "time": 517.4916666666592,
          "velocity": 1,
          "duration": 0.10833333333334849
        },
        {
          "name": "F#2",
          "midi": 42,
          "time": 517.4958333333259,
          "velocity": 1,
          "duration": 0.24583333333339397
        },
        {
          "name": "F#2",
          "midi": 42,
          "time": 517.4958333333259,
          "velocity": 1,
          "duration": 0.24583333333339397
        },
        {
          "name": "G#5",
          "midi": 80,
          "time": 517.6208333333259,
          "velocity": 1,
          "duration": 0.1291666666668334
        },
        {
          "name": "F#5",
          "midi": 78,
          "time": 517.7374999999926,
          "velocity": 1,
          "duration": 0.13333333333343944
        },
        {
          "name": "F#2",
          "midi": 42,
          "time": 517.745833333326,
          "velocity": 1,
          "duration": 0.24583333333339397
        },
        {
          "name": "F#2",
          "midi": 42,
          "time": 517.745833333326,
          "velocity": 1,
          "duration": 0.24583333333339397
        },
        {
          "name": "F#5",
          "midi": 78,
          "time": 517.8624999999927,
          "velocity": 1,
          "duration": 0.12916666666671972
        },
        {
          "name": "B5",
          "midi": 83,
          "time": 517.9874999999927,
          "velocity": 1,
          "duration": 0.13750000000015916
        },
        {
          "name": "F#2",
          "midi": 42,
          "time": 517.9958333333261,
          "velocity": 1,
          "duration": 0.24583333333339397
        },
        {
          "name": "F#2",
          "midi": 42,
          "time": 517.9958333333261,
          "velocity": 1,
          "duration": 0.24583333333339397
        },
        {
          "name": "A5",
          "midi": 81,
          "time": 518.1208333333261,
          "velocity": 1,
          "duration": 0.13333333333343944
        },
        {
          "name": "F#5",
          "midi": 78,
          "time": 518.2416666666595,
          "velocity": 1,
          "duration": 0.13333333333332575
        },
        {
          "name": "F#2",
          "midi": 42,
          "time": 518.2458333333262,
          "velocity": 1,
          "duration": 0.24583333333328028
        },
        {
          "name": "F#2",
          "midi": 42,
          "time": 518.2458333333262,
          "velocity": 1,
          "duration": 0.24583333333328028
        },
        {
          "name": "F#5",
          "midi": 78,
          "time": 518.3749999999928,
          "velocity": 1,
          "duration": 0.10833333333334849
        },
        {
          "name": "F#2",
          "midi": 42,
          "time": 518.4958333333262,
          "velocity": 1,
          "duration": 0.24583333333328028
        },
        {
          "name": "F#2",
          "midi": 42,
          "time": 518.4958333333262,
          "velocity": 1,
          "duration": 0.24583333333328028
        },
        {
          "name": "A5",
          "midi": 81,
          "time": 518.4958333333262,
          "velocity": 1,
          "duration": 0.1374999999999318
        },
        {
          "name": "G#5",
          "midi": 80,
          "time": 518.6166666666595,
          "velocity": 1,
          "duration": 0.13333333333343944
        },
        {
          "name": "F#5",
          "midi": 78,
          "time": 518.7374999999928,
          "velocity": 1,
          "duration": 0.11666666666678793
        },
        {
          "name": "A2",
          "midi": 45,
          "time": 518.7458333333262,
          "velocity": 1,
          "duration": 0.24583333333339397
        },
        {
          "name": "F#3",
          "midi": 54,
          "time": 518.7458333333262,
          "velocity": 1,
          "duration": 0.24583333333339397
        },
        {
          "name": "A2",
          "midi": 45,
          "time": 518.7458333333262,
          "velocity": 1,
          "duration": 0.24583333333339397
        },
        {
          "name": "F#3",
          "midi": 54,
          "time": 518.7458333333262,
          "velocity": 1,
          "duration": 0.24583333333339397
        },
        {
          "name": "F#5",
          "midi": 78,
          "time": 518.8624999999929,
          "velocity": 1,
          "duration": 0.10833333333334849
        },
        {
          "name": "B5",
          "midi": 83,
          "time": 518.9916666666596,
          "velocity": 1,
          "duration": 0.10833333333334849
        },
        {
          "name": "F#3",
          "midi": 54,
          "time": 518.9958333333263,
          "velocity": 1,
          "duration": 0.24583333333339397
        },
        {
          "name": "B2",
          "midi": 47,
          "time": 518.9958333333263,
          "velocity": 1,
          "duration": 0.24583333333339397
        },
        {
          "name": "F#3",
          "midi": 54,
          "time": 518.9958333333263,
          "velocity": 1,
          "duration": 0.24583333333339397
        },
        {
          "name": "B2",
          "midi": 47,
          "time": 518.9958333333263,
          "velocity": 1,
          "duration": 0.24583333333339397
        },
        {
          "name": "A5",
          "midi": 81,
          "time": 519.1208333333263,
          "velocity": 1,
          "duration": 0.12916666666671972
        },
        {
          "name": "F#5",
          "midi": 78,
          "time": 519.237499999993,
          "velocity": 1,
          "duration": 0.125
        },
        {
          "name": "F#5",
          "midi": 78,
          "time": 519.3749999999931,
          "velocity": 1,
          "duration": 0.13333333333332575
        },
        {
          "name": "A5",
          "midi": 81,
          "time": 519.487499999993,
          "velocity": 1,
          "duration": 0.13750000000004547
        },
        {
          "name": "C3",
          "midi": 48,
          "time": 519.4958333333263,
          "velocity": 1,
          "duration": 0.24583333333339397
        },
        {
          "name": "G3",
          "midi": 55,
          "time": 519.4958333333263,
          "velocity": 1,
          "duration": 0.24583333333339397
        },
        {
          "name": "C3",
          "midi": 48,
          "time": 519.4958333333263,
          "velocity": 1,
          "duration": 0.24583333333339397
        },
        {
          "name": "G3",
          "midi": 55,
          "time": 519.4958333333263,
          "velocity": 1,
          "duration": 0.24583333333339397
        },
        {
          "name": "G#5",
          "midi": 80,
          "time": 519.6249999999931,
          "velocity": 1,
          "duration": 0.11666666666667425
        },
        {
          "name": "B2",
          "midi": 47,
          "time": 519.7458333333265,
          "velocity": 1,
          "duration": 0.24583333333328028
        },
        {
          "name": "F#3",
          "midi": 54,
          "time": 519.7458333333265,
          "velocity": 1,
          "duration": 0.24583333333328028
        },
        {
          "name": "F#3",
          "midi": 54,
          "time": 519.7458333333265,
          "velocity": 1,
          "duration": 0.24583333333328028
        },
        {
          "name": "B2",
          "midi": 47,
          "time": 519.7458333333265,
          "velocity": 1,
          "duration": 0.24583333333328028
        },
        {
          "name": "F#5",
          "midi": 78,
          "time": 519.7499999999932,
          "velocity": 1,
          "duration": 0.1374999999999318
        },
        {
          "name": "F#5",
          "midi": 78,
          "time": 519.8624999999931,
          "velocity": 1,
          "duration": 0.13333333333332575
        },
        {
          "name": "B5",
          "midi": 83,
          "time": 519.9916666666597,
          "velocity": 1,
          "duration": 0.10833333333334849
        },
        {
          "name": "F#3",
          "midi": 54,
          "time": 519.9958333333265,
          "velocity": 1,
          "duration": 0.24583333333328028
        },
        {
          "name": "A2",
          "midi": 45,
          "time": 519.9958333333265,
          "velocity": 1,
          "duration": 0.24583333333328028
        },
        {
          "name": "F#3",
          "midi": 54,
          "time": 519.9958333333265,
          "velocity": 1,
          "duration": 0.24583333333328028
        },
        {
          "name": "A2",
          "midi": 45,
          "time": 519.9958333333265,
          "velocity": 1,
          "duration": 0.24583333333328028
        },
        {
          "name": "A5",
          "midi": 81,
          "time": 520.1166666666597,
          "velocity": 1,
          "duration": 0.12916666666671972
        },
        {
          "name": "F#3",
          "midi": 54,
          "time": 520.2458333333265,
          "velocity": 1,
          "duration": 0.24583333333339397
        },
        {
          "name": "B2",
          "midi": 47,
          "time": 520.2458333333265,
          "velocity": 1,
          "duration": 0.24583333333339397
        },
        {
          "name": "F#3",
          "midi": 54,
          "time": 520.2458333333265,
          "velocity": 1,
          "duration": 0.24583333333339397
        },
        {
          "name": "B2",
          "midi": 47,
          "time": 520.2458333333265,
          "velocity": 1,
          "duration": 0.24583333333339397
        },
        {
          "name": "F#5",
          "midi": 78,
          "time": 520.2499999999932,
          "velocity": 1,
          "duration": 0.10833333333334849
        },
        {
          "name": "F#5",
          "midi": 78,
          "time": 520.3749999999932,
          "velocity": 1,
          "duration": 0.1250000000001137
        },
        {
          "name": "F#2",
          "midi": 42,
          "time": 520.4958333333266,
          "velocity": 1,
          "duration": 0.2458333333338487
        },
        {
          "name": "F#2",
          "midi": 42,
          "time": 520.4958333333266,
          "velocity": 1,
          "duration": 0.2458333333338487
        },
        {
          "name": "E5",
          "midi": 76,
          "time": 520.4958333333266,
          "velocity": 1,
          "duration": 0.23333333333380324
        },
        {
          "name": "F#5",
          "midi": 78,
          "time": 520.4958333333266,
          "velocity": 1,
          "duration": 0.23333333333380324
        },
        {
          "name": "F#2",
          "midi": 42,
          "time": 520.7458333333271,
          "velocity": 1,
          "duration": 0.24583333333339397
        },
        {
          "name": "F#2",
          "midi": 42,
          "time": 520.7458333333271,
          "velocity": 1,
          "duration": 0.24583333333339397
        },
        {
          "name": "F#4",
          "midi": 66,
          "time": 520.7499999999939,
          "velocity": 1,
          "duration": 0.24166666666667425
        },
        {
          "name": "E4",
          "midi": 64,
          "time": 520.9874999999938,
          "velocity": 1,
          "duration": 0.2583333333338942
        },
        {
          "name": "F#2",
          "midi": 42,
          "time": 520.9958333333273,
          "velocity": 1,
          "duration": 0.24583333333373503
        },
        {
          "name": "F#2",
          "midi": 42,
          "time": 520.9958333333273,
          "velocity": 1,
          "duration": 0.24583333333373503
        },
        {
          "name": "F#4",
          "midi": 66,
          "time": 521.2374999999943,
          "velocity": 1,
          "duration": 0.23333333333346218
        },
        {
          "name": "F#2",
          "midi": 42,
          "time": 521.2458333333277,
          "velocity": 1,
          "duration": 0.24583333333339397
        },
        {
          "name": "F#2",
          "midi": 42,
          "time": 521.2458333333277,
          "velocity": 1,
          "duration": 0.24583333333339397
        },
        {
          "name": "E4",
          "midi": 64,
          "time": 521.4874999999944,
          "velocity": 1,
          "duration": 0.2625000000005002
        },
        {
          "name": "F#2",
          "midi": 42,
          "time": 521.4958333333278,
          "velocity": 1,
          "duration": 0.24583333333362134
        },
        {
          "name": "F#2",
          "midi": 42,
          "time": 521.4958333333278,
          "velocity": 1,
          "duration": 0.24583333333362134
        },
        {
          "name": "E4",
          "midi": 64,
          "time": 521.7416666666614,
          "velocity": 1,
          "duration": 0.2375000000000682
        },
        {
          "name": "F#2",
          "midi": 42,
          "time": 521.7458333333282,
          "velocity": 1,
          "duration": 0.24583333333339397
        },
        {
          "name": "F#2",
          "midi": 42,
          "time": 521.7458333333282,
          "velocity": 1,
          "duration": 0.24583333333339397
        },
        {
          "name": "E4",
          "midi": 64,
          "time": 521.9874999999948,
          "velocity": 1,
          "duration": 0.23333333333368955
        },
        {
          "name": "F#2",
          "midi": 42,
          "time": 521.9958333333283,
          "velocity": 1,
          "duration": 0.24583333333362134
        },
        {
          "name": "F#2",
          "midi": 42,
          "time": 521.9958333333283,
          "velocity": 1,
          "duration": 0.24583333333362134
        },
        {
          "name": "F#4",
          "midi": 66,
          "time": 522.2374999999952,
          "velocity": 1,
          "duration": 0.24166666666678793
        },
        {
          "name": "F#2",
          "midi": 42,
          "time": 522.2458333333286,
          "velocity": 1,
          "duration": 0.24583333333339397
        },
        {
          "name": "F#2",
          "midi": 42,
          "time": 522.2458333333286,
          "velocity": 1,
          "duration": 0.24583333333339397
        },
        {
          "name": "B4",
          "midi": 71,
          "time": 522.491666666662,
          "velocity": 1,
          "duration": 0.16250000000002274
        },
        {
          "name": "F#2",
          "midi": 42,
          "time": 522.4958333333287,
          "velocity": 1,
          "duration": 0.24583333333328028
        },
        {
          "name": "F#2",
          "midi": 42,
          "time": 522.4958333333287,
          "velocity": 1,
          "duration": 0.24583333333328028
        },
        {
          "name": "F#4",
          "midi": 66,
          "time": 522.654166666662,
          "velocity": 1,
          "duration": 0.1583333333334167
        },
        {
          "name": "A2",
          "midi": 45,
          "time": 522.7458333333287,
          "velocity": 1,
          "duration": 0.2458333333338487
        },
        {
          "name": "F#3",
          "midi": 54,
          "time": 522.7458333333287,
          "velocity": 1,
          "duration": 0.3708333333338487
        },
        {
          "name": "A2",
          "midi": 45,
          "time": 522.7458333333287,
          "velocity": 1,
          "duration": 0.2458333333338487
        },
        {
          "name": "F#3",
          "midi": 54,
          "time": 522.7458333333287,
          "velocity": 1,
          "duration": 0.3708333333338487
        },
        {
          "name": "E4",
          "midi": 64,
          "time": 522.8249999999955,
          "velocity": 1,
          "duration": 0.09583333333364408
        },
        {
          "name": "B2",
          "midi": 47,
          "time": 522.9958333333293,
          "velocity": 1,
          "duration": 0.24583333333328028
        },
        {
          "name": "B2",
          "midi": 47,
          "time": 522.9958333333293,
          "velocity": 1,
          "duration": 0.24583333333328028
        },
        {
          "name": "B4",
          "midi": 71,
          "time": 522.9958333333293,
          "velocity": 1,
          "duration": 0.14999999999997726
        },
        {
          "name": "F#4",
          "midi": 66,
          "time": 523.1624999999959,
          "velocity": 1,
          "duration": 0.16250000000013642
        },
        {
          "name": "F#3",
          "midi": 54,
          "time": 523.2458333333293,
          "velocity": 1,
          "duration": 0.370833333333735
        },
        {
          "name": "A2",
          "midi": 45,
          "time": 523.2458333333293,
          "velocity": 1,
          "duration": 0.24583333333373503
        },
        {
          "name": "F#3",
          "midi": 54,
          "time": 523.2458333333293,
          "velocity": 1,
          "duration": 0.370833333333735
        },
        {
          "name": "A2",
          "midi": 45,
          "time": 523.2458333333293,
          "velocity": 1,
          "duration": 0.24583333333373503
        },
        {
          "name": "E4",
          "midi": 64,
          "time": 523.3208333333293,
          "velocity": 1,
          "duration": 0.4083333333336441
        },
        {
          "name": "F#4",
          "midi": 66,
          "time": 523.3291666666628,
          "velocity": 1,
          "duration": 0.41666666666696983
        },
        {
          "name": "B2",
          "midi": 47,
          "time": 523.4958333333298,
          "velocity": 1,
          "duration": 0.24583333333328028
        },
        {
          "name": "B2",
          "midi": 47,
          "time": 523.4958333333298,
          "velocity": 1,
          "duration": 0.24583333333328028
        },
        {
          "name": "E4",
          "midi": 64,
          "time": 523.7374999999963,
          "velocity": 1,
          "duration": 0.25416666666717447
        },
        {
          "name": "F#2",
          "midi": 42,
          "time": 523.7458333333298,
          "velocity": 1,
          "duration": 0.24583333333373503
        },
        {
          "name": "F#2",
          "midi": 42,
          "time": 523.7458333333298,
          "velocity": 1,
          "duration": 0.24583333333373503
        },
        {
          "name": "F#2",
          "midi": 42,
          "time": 523.9958333333302,
          "velocity": 1,
          "duration": 0.24583333333339397
        },
        {
          "name": "F#2",
          "midi": 42,
          "time": 523.9958333333302,
          "velocity": 1,
          "duration": 0.24583333333339397
        },
        {
          "name": "F#4",
          "midi": 66,
          "time": 523.9958333333302,
          "velocity": 1,
          "duration": 0.26250000000027285
        },
        {
          "name": "F#2",
          "midi": 42,
          "time": 524.2458333333303,
          "velocity": 1,
          "duration": 0.24583333333373503
        },
        {
          "name": "F#2",
          "midi": 42,
          "time": 524.2458333333303,
          "velocity": 1,
          "duration": 0.24583333333373503
        },
        {
          "name": "E4",
          "midi": 64,
          "time": 524.249999999997,
          "velocity": 1,
          "duration": 0.2583333333337805
        },
        {
          "name": "F#2",
          "midi": 42,
          "time": 524.4958333333308,
          "velocity": 1,
          "duration": 0.24583333333339397
        },
        {
          "name": "F#2",
          "midi": 42,
          "time": 524.4958333333308,
          "velocity": 1,
          "duration": 0.24583333333339397
        },
        {
          "name": "F#4",
          "midi": 66,
          "time": 524.4958333333308,
          "velocity": 1,
          "duration": 0.2500000000001137
        },
        {
          "name": "F#2",
          "midi": 42,
          "time": 524.7458333333309,
          "velocity": 1,
          "duration": 0.24583333333350765
        },
        {
          "name": "F#2",
          "midi": 42,
          "time": 524.7458333333309,
          "velocity": 1,
          "duration": 0.24583333333350765
        },
        {
          "name": "E4",
          "midi": 64,
          "time": 524.7499999999976,
          "velocity": 1,
          "duration": 0.24583333333350765
        },
        {
          "name": "F#4",
          "midi": 66,
          "time": 524.9874999999977,
          "velocity": 1,
          "duration": 0.08333333333348492
        },
        {
          "name": "F#2",
          "midi": 42,
          "time": 524.9958333333311,
          "velocity": 1,
          "duration": 0.24583333333350765
        },
        {
          "name": "F#2",
          "midi": 42,
          "time": 524.9958333333311,
          "velocity": 1,
          "duration": 0.24583333333350765
        },
        {
          "name": "F#4",
          "midi": 66,
          "time": 525.0708333333312,
          "velocity": 1,
          "duration": 0.07916666666665151
        },
        {
          "name": "F#4",
          "midi": 66,
          "time": 525.1624999999979,
          "velocity": 1,
          "duration": 0.07083333333332575
        },
        {
          "name": "E4",
          "midi": 64,
          "time": 525.2374999999979,
          "velocity": 1,
          "duration": 0.23750000000040927
        },
        {
          "name": "F#2",
          "midi": 42,
          "time": 525.2458333333313,
          "velocity": 1,
          "duration": 0.24583333333373503
        },
        {
          "name": "F#2",
          "midi": 42,
          "time": 525.2458333333313,
          "velocity": 1,
          "duration": 0.24583333333373503
        },
        {
          "name": "F#4",
          "midi": 66,
          "time": 525.4916666666651,
          "velocity": 1,
          "duration": 0.13333333333332575
        },
        {
          "name": "F#2",
          "midi": 42,
          "time": 525.4958333333318,
          "velocity": 1,
          "duration": 0.24583333333328028
        },
        {
          "name": "F#2",
          "midi": 42,
          "time": 525.4958333333318,
          "velocity": 1,
          "duration": 0.24583333333328028
        },
        {
          "name": "F#4",
          "midi": 66,
          "time": 525.6166666666651,
          "velocity": 1,
          "duration": 0.12916666666671972
        },
        {
          "name": "F4",
          "midi": 65,
          "time": 525.7416666666651,
          "velocity": 1,
          "duration": 0.24166666666690162
        },
        {
          "name": "F#2",
          "midi": 42,
          "time": 525.7458333333318,
          "velocity": 1,
          "duration": 0.24583333333350765
        },
        {
          "name": "F#2",
          "midi": 42,
          "time": 525.7458333333318,
          "velocity": 1,
          "duration": 0.24583333333350765
        },
        {
          "name": "A2",
          "midi": 45,
          "time": 525.995833333332,
          "velocity": 1,
          "duration": 0.24583333333339397
        },
        {
          "name": "F#3",
          "midi": 54,
          "time": 525.995833333332,
          "velocity": 1,
          "duration": 0.24583333333339397
        },
        {
          "name": "F#3",
          "midi": 54,
          "time": 525.995833333332,
          "velocity": 1,
          "duration": 0.24583333333339397
        },
        {
          "name": "A2",
          "midi": 45,
          "time": 525.995833333332,
          "velocity": 1,
          "duration": 0.24583333333339397
        },
        {
          "name": "G4",
          "midi": 67,
          "time": 525.9999999999987,
          "velocity": 1,
          "duration": 0.23749999999995453
        },
        {
          "name": "F4",
          "midi": 65,
          "time": 526.2416666666654,
          "velocity": 1,
          "duration": 0.26250000000038654
        },
        {
          "name": "F#3",
          "midi": 54,
          "time": 526.2458333333321,
          "velocity": 1,
          "duration": 0.24583333333362134
        },
        {
          "name": "B2",
          "midi": 47,
          "time": 526.2458333333321,
          "velocity": 1,
          "duration": 0.24583333333362134
        },
        {
          "name": "F#3",
          "midi": 54,
          "time": 526.2458333333321,
          "velocity": 1,
          "duration": 0.24583333333362134
        },
        {
          "name": "B2",
          "midi": 47,
          "time": 526.2458333333321,
          "velocity": 1,
          "duration": 0.24583333333362134
        },
        {
          "name": "G4",
          "midi": 67,
          "time": 526.487499999999,
          "velocity": 1,
          "duration": 0.24166666666678793
        },
        {
          "name": "G3",
          "midi": 55,
          "time": 526.7458333333325,
          "velocity": 1,
          "duration": 0.24583333333373503
        },
        {
          "name": "C3",
          "midi": 48,
          "time": 526.7458333333325,
          "velocity": 1,
          "duration": 0.24583333333373503
        },
        {
          "name": "C3",
          "midi": 48,
          "time": 526.7458333333325,
          "velocity": 1,
          "duration": 0.24583333333373503
        },
        {
          "name": "G3",
          "midi": 55,
          "time": 526.7458333333325,
          "velocity": 1,
          "duration": 0.24583333333373503
        },
        {
          "name": "F4",
          "midi": 65,
          "time": 526.7499999999992,
          "velocity": 1,
          "duration": 0.25000000000045475
        },
        {
          "name": "B2",
          "midi": 47,
          "time": 526.9958333333329,
          "velocity": 1,
          "duration": 0.24583333333339397
        },
        {
          "name": "F#3",
          "midi": 54,
          "time": 526.9958333333329,
          "velocity": 1,
          "duration": 0.24583333333339397
        },
        {
          "name": "F#3",
          "midi": 54,
          "time": 526.9958333333329,
          "velocity": 1,
          "duration": 0.24583333333339397
        },
        {
          "name": "B2",
          "midi": 47,
          "time": 526.9958333333329,
          "velocity": 1,
          "duration": 0.24583333333339397
        },
        {
          "name": "G4",
          "midi": 67,
          "time": 526.9958333333329,
          "velocity": 1,
          "duration": 0.24583333333339397
        },
        {
          "name": "F4",
          "midi": 65,
          "time": 527.2416666666663,
          "velocity": 1,
          "duration": 0.2375000000001819
        },
        {
          "name": "A2",
          "midi": 45,
          "time": 527.245833333333,
          "velocity": 1,
          "duration": 0.24583333333350765
        },
        {
          "name": "F#3",
          "midi": 54,
          "time": 527.245833333333,
          "velocity": 1,
          "duration": 0.24583333333350765
        },
        {
          "name": "A2",
          "midi": 45,
          "time": 527.245833333333,
          "velocity": 1,
          "duration": 0.24583333333350765
        },
        {
          "name": "F#3",
          "midi": 54,
          "time": 527.245833333333,
          "velocity": 1,
          "duration": 0.24583333333350765
        },
        {
          "name": "F#3",
          "midi": 54,
          "time": 527.4958333333333,
          "velocity": 1,
          "duration": 0.24583333333339397
        },
        {
          "name": "B2",
          "midi": 47,
          "time": 527.4958333333333,
          "velocity": 1,
          "duration": 0.24583333333339397
        },
        {
          "name": "F#3",
          "midi": 54,
          "time": 527.4958333333333,
          "velocity": 1,
          "duration": 0.24583333333339397
        },
        {
          "name": "B2",
          "midi": 47,
          "time": 527.4958333333333,
          "velocity": 1,
          "duration": 0.24583333333339397
        },
        {
          "name": "G4",
          "midi": 67,
          "time": 527.5,
          "velocity": 1,
          "duration": 0.24583333333339397
        },
        {
          "name": "F#2",
          "midi": 42,
          "time": 527.7458333333334,
          "velocity": 1,
          "duration": 0.24583333333362134
        },
        {
          "name": "F#2",
          "midi": 42,
          "time": 527.7458333333334,
          "velocity": 1,
          "duration": 0.24583333333362134
        },
        {
          "name": "G4",
          "midi": 67,
          "time": 527.7458333333334,
          "velocity": 1,
          "duration": 0.23750000000029559
        },
        {
          "name": "F#2",
          "midi": 42,
          "time": 527.9958333333337,
          "velocity": 1,
          "duration": 0.24583333333339397
        },
        {
          "name": "F#2",
          "midi": 42,
          "time": 527.9958333333337,
          "velocity": 1,
          "duration": 0.24583333333339397
        },
        {
          "name": "A4",
          "midi": 69,
          "time": 527.9958333333337,
          "velocity": 1,
          "duration": 0.24166666666667425
        },
        {
          "name": "F#2",
          "midi": 42,
          "time": 528.2458333333338,
          "velocity": 1,
          "duration": 0.24583333333350765
        },
        {
          "name": "F#2",
          "midi": 42,
          "time": 528.2458333333338,
          "velocity": 1,
          "duration": 0.24583333333350765
        },
        {
          "name": "G4",
          "midi": 67,
          "time": 528.2500000000006,
          "velocity": 1,
          "duration": 0.2375000000000682
        },
        {
          "name": "F#2",
          "midi": 42,
          "time": 528.4958333333341,
          "velocity": 1,
          "duration": 0.24583333333328028
        },
        {
          "name": "F#2",
          "midi": 42,
          "time": 528.4958333333341,
          "velocity": 1,
          "duration": 0.24583333333328028
        },
        {
          "name": "A4",
          "midi": 69,
          "time": 528.4958333333341,
          "velocity": 1,
          "duration": 0.25
        },
        {
          "name": "F#2",
          "midi": 42,
          "time": 528.7458333333341,
          "velocity": 1,
          "duration": 0.24583333333350765
        },
        {
          "name": "F#2",
          "midi": 42,
          "time": 528.7458333333341,
          "velocity": 1,
          "duration": 0.24583333333350765
        },
        {
          "name": "G#4",
          "midi": 68,
          "time": 528.7458333333341,
          "velocity": 1,
          "duration": 0.2541666666669471
        },
        {
          "name": "F#2",
          "midi": 42,
          "time": 528.9958333333343,
          "velocity": 1,
          "duration": 0.24583333333339397
        },
        {
          "name": "F#2",
          "midi": 42,
          "time": 528.9958333333343,
          "velocity": 1,
          "duration": 0.24583333333339397
        },
        {
          "name": "A#4",
          "midi": 70,
          "time": 529.000000000001,
          "velocity": 1,
          "duration": 0.2500000000001137
        },
        {
          "name": "G#4",
          "midi": 68,
          "time": 529.2416666666677,
          "velocity": 1,
          "duration": 0.23333333333368955
        },
        {
          "name": "F#2",
          "midi": 42,
          "time": 529.2458333333344,
          "velocity": 1,
          "duration": 0.24583333333362134
        },
        {
          "name": "F#2",
          "midi": 42,
          "time": 529.2458333333344,
          "velocity": 1,
          "duration": 0.24583333333362134
        },
        {
          "name": "A#4",
          "midi": 70,
          "time": 529.491666666668,
          "velocity": 1,
          "duration": 0.2500000000001137
        },
        {
          "name": "F#2",
          "midi": 42,
          "time": 529.4958333333348,
          "velocity": 1,
          "duration": 0.24583333333339397
        },
        {
          "name": "F#2",
          "midi": 42,
          "time": 529.4958333333348,
          "velocity": 1,
          "duration": 0.24583333333339397
        },
        {
          "name": "F#2",
          "midi": 42,
          "time": 529.7458333333349,
          "velocity": 1,
          "duration": 0.24583333333373503
        },
        {
          "name": "F#2",
          "midi": 42,
          "time": 529.7458333333349,
          "velocity": 1,
          "duration": 0.24583333333373503
        },
        {
          "name": "A4",
          "midi": 69,
          "time": 529.7458333333349,
          "velocity": 1,
          "duration": 0.2416666666670153
        },
        {
          "name": "B4",
          "midi": 71,
          "time": 529.9916666666686,
          "velocity": 1,
          "duration": 0.24166666666678793
        },
        {
          "name": "A2",
          "midi": 45,
          "time": 529.9958333333353,
          "velocity": 1,
          "duration": 0.24583333333350765
        },
        {
          "name": "F#3",
          "midi": 54,
          "time": 529.9958333333353,
          "velocity": 1,
          "duration": 0.37083333333362134
        },
        {
          "name": "A2",
          "midi": 45,
          "time": 529.9958333333353,
          "velocity": 1,
          "duration": 0.24583333333350765
        },
        {
          "name": "F#3",
          "midi": 54,
          "time": 529.9958333333353,
          "velocity": 1,
          "duration": 0.37083333333362134
        },
        {
          "name": "A4",
          "midi": 69,
          "time": 530.2375000000021,
          "velocity": 1,
          "duration": 0.26250000000027285
        },
        {
          "name": "B2",
          "midi": 47,
          "time": 530.2458333333356,
          "velocity": 1,
          "duration": 0.24583333333339397
        },
        {
          "name": "B2",
          "midi": 47,
          "time": 530.2458333333356,
          "velocity": 1,
          "duration": 0.24583333333339397
        },
        {
          "name": "F#3",
          "midi": 54,
          "time": 530.4958333333357,
          "velocity": 1,
          "duration": 0.37083333333362134
        },
        {
          "name": "A2",
          "midi": 45,
          "time": 530.4958333333357,
          "velocity": 1,
          "duration": 0.24583333333339397
        },
        {
          "name": "A2",
          "midi": 45,
          "time": 530.4958333333357,
          "velocity": 1,
          "duration": 0.24583333333339397
        },
        {
          "name": "F#3",
          "midi": 54,
          "time": 530.4958333333357,
          "velocity": 1,
          "duration": 0.37083333333362134
        },
        {
          "name": "B4",
          "midi": 71,
          "time": 530.4958333333357,
          "velocity": 1,
          "duration": 0.24583333333339397
        },
        {
          "name": "B2",
          "midi": 47,
          "time": 530.7458333333358,
          "velocity": 1,
          "duration": 0.24583333333350765
        },
        {
          "name": "B2",
          "midi": 47,
          "time": 530.7458333333358,
          "velocity": 1,
          "duration": 0.24583333333350765
        },
        {
          "name": "C5",
          "midi": 72,
          "time": 530.7458333333358,
          "velocity": 1,
          "duration": 2.2375000000065484
        },
        {
          "name": "F#3",
          "midi": 54,
          "time": 530.995833333336,
          "velocity": 1,
          "duration": 0.24583333333373503
        },
        {
          "name": "B2",
          "midi": 47,
          "time": 530.995833333336,
          "velocity": 1,
          "duration": 0.24583333333373503
        },
        {
          "name": "B3",
          "midi": 59,
          "time": 530.995833333336,
          "velocity": 1,
          "duration": 0.24583333333373503
        },
        {
          "name": "B2",
          "midi": 47,
          "time": 530.995833333336,
          "velocity": 1,
          "duration": 0.24583333333373503
        },
        {
          "name": "B3",
          "midi": 59,
          "time": 530.995833333336,
          "velocity": 1,
          "duration": 0.24583333333373503
        },
        {
          "name": "F#3",
          "midi": 54,
          "time": 530.995833333336,
          "velocity": 1,
          "duration": 0.24583333333373503
        },
        {
          "name": "B3",
          "midi": 59,
          "time": 531.2458333333365,
          "velocity": 1,
          "duration": 0.24583333333328028
        },
        {
          "name": "F#3",
          "midi": 54,
          "time": 531.2458333333365,
          "velocity": 1,
          "duration": 0.24583333333328028
        },
        {
          "name": "B2",
          "midi": 47,
          "time": 531.2458333333365,
          "velocity": 1,
          "duration": 0.24583333333328028
        },
        {
          "name": "F#3",
          "midi": 54,
          "time": 531.2458333333365,
          "velocity": 1,
          "duration": 0.24583333333328028
        },
        {
          "name": "B2",
          "midi": 47,
          "time": 531.2458333333365,
          "velocity": 1,
          "duration": 0.24583333333328028
        },
        {
          "name": "B3",
          "midi": 59,
          "time": 531.2458333333365,
          "velocity": 1,
          "duration": 0.24583333333328028
        },
        {
          "name": "B2",
          "midi": 47,
          "time": 531.4958333333365,
          "velocity": 1,
          "duration": 0.24583333333328028
        },
        {
          "name": "B3",
          "midi": 59,
          "time": 531.4958333333365,
          "velocity": 1,
          "duration": 0.24583333333328028
        },
        {
          "name": "F#3",
          "midi": 54,
          "time": 531.4958333333365,
          "velocity": 1,
          "duration": 0.24583333333328028
        },
        {
          "name": "B3",
          "midi": 59,
          "time": 531.4958333333365,
          "velocity": 1,
          "duration": 0.24583333333328028
        },
        {
          "name": "F#3",
          "midi": 54,
          "time": 531.4958333333365,
          "velocity": 1,
          "duration": 0.24583333333328028
        },
        {
          "name": "B2",
          "midi": 47,
          "time": 531.4958333333365,
          "velocity": 1,
          "duration": 0.24583333333328028
        },
        {
          "name": "B3",
          "midi": 59,
          "time": 531.7458333333365,
          "velocity": 1,
          "duration": 0.24583333333328028
        },
        {
          "name": "F#3",
          "midi": 54,
          "time": 531.7458333333365,
          "velocity": 1,
          "duration": 0.24583333333328028
        },
        {
          "name": "B2",
          "midi": 47,
          "time": 531.7458333333365,
          "velocity": 1,
          "duration": 0.24583333333328028
        },
        {
          "name": "B3",
          "midi": 59,
          "time": 531.7458333333365,
          "velocity": 1,
          "duration": 0.24583333333328028
        },
        {
          "name": "F#3",
          "midi": 54,
          "time": 531.7458333333365,
          "velocity": 1,
          "duration": 0.24583333333328028
        },
        {
          "name": "B2",
          "midi": 47,
          "time": 531.7458333333365,
          "velocity": 1,
          "duration": 0.24583333333328028
        },
        {
          "name": "B2",
          "midi": 47,
          "time": 531.9958333333365,
          "velocity": 1,
          "duration": 0.24583333333498558
        },
        {
          "name": "B3",
          "midi": 59,
          "time": 531.9958333333365,
          "velocity": 1,
          "duration": 0.24583333333498558
        },
        {
          "name": "F#3",
          "midi": 54,
          "time": 531.9958333333365,
          "velocity": 1,
          "duration": 0.24583333333498558
        },
        {
          "name": "B3",
          "midi": 59,
          "time": 531.9958333333365,
          "velocity": 1,
          "duration": 0.24583333333498558
        },
        {
          "name": "F#3",
          "midi": 54,
          "time": 531.9958333333365,
          "velocity": 1,
          "duration": 0.24583333333498558
        },
        {
          "name": "B2",
          "midi": 47,
          "time": 531.9958333333365,
          "velocity": 1,
          "duration": 0.24583333333498558
        },
        {
          "name": "B3",
          "midi": 59,
          "time": 532.2458333333382,
          "velocity": 1,
          "duration": 0.24583333333509927
        },
        {
          "name": "F#3",
          "midi": 54,
          "time": 532.2458333333382,
          "velocity": 1,
          "duration": 0.24583333333509927
        },
        {
          "name": "B2",
          "midi": 47,
          "time": 532.2458333333382,
          "velocity": 1,
          "duration": 0.24583333333509927
        },
        {
          "name": "B3",
          "midi": 59,
          "time": 532.2458333333382,
          "velocity": 1,
          "duration": 0.24583333333509927
        },
        {
          "name": "F#3",
          "midi": 54,
          "time": 532.2458333333382,
          "velocity": 1,
          "duration": 0.24583333333509927
        },
        {
          "name": "B2",
          "midi": 47,
          "time": 532.2458333333382,
          "velocity": 1,
          "duration": 0.24583333333509927
        },
        {
          "name": "B3",
          "midi": 59,
          "time": 532.49583333334,
          "velocity": 1,
          "duration": 0.24583333333498558
        },
        {
          "name": "B2",
          "midi": 47,
          "time": 532.49583333334,
          "velocity": 1,
          "duration": 0.24583333333498558
        },
        {
          "name": "F#3",
          "midi": 54,
          "time": 532.49583333334,
          "velocity": 1,
          "duration": 0.24583333333498558
        },
        {
          "name": "F#3",
          "midi": 54,
          "time": 532.49583333334,
          "velocity": 1,
          "duration": 0.24583333333498558
        },
        {
          "name": "B2",
          "midi": 47,
          "time": 532.49583333334,
          "velocity": 1,
          "duration": 0.24583333333498558
        },
        {
          "name": "B3",
          "midi": 59,
          "time": 532.49583333334,
          "velocity": 1,
          "duration": 0.24583333333498558
        },
        {
          "name": "B2",
          "midi": 47,
          "time": 532.7458333333417,
          "velocity": 1,
          "duration": 0.2458333333339624
        },
        {
          "name": "F#3",
          "midi": 54,
          "time": 532.7458333333417,
          "velocity": 1,
          "duration": 0.2458333333339624
        },
        {
          "name": "B3",
          "midi": 59,
          "time": 532.7458333333417,
          "velocity": 1,
          "duration": 0.2458333333339624
        },
        {
          "name": "F#3",
          "midi": 54,
          "time": 532.7458333333417,
          "velocity": 1,
          "duration": 0.2458333333339624
        },
        {
          "name": "B2",
          "midi": 47,
          "time": 532.7458333333417,
          "velocity": 1,
          "duration": 0.2458333333339624
        },
        {
          "name": "B3",
          "midi": 59,
          "time": 532.7458333333417,
          "velocity": 1,
          "duration": 0.2458333333339624
        },
        {
          "name": "E2",
          "midi": 40,
          "time": 532.9958333333424,
          "velocity": 1,
          "duration": 0.25
        },
        {
          "name": "E2",
          "midi": 40,
          "time": 532.9958333333424,
          "velocity": 1,
          "duration": 0.25
        },
        {
          "name": "E1",
          "midi": 28,
          "time": 532.9958333333424,
          "velocity": 1,
          "duration": 0.25
        },
        {
          "name": "E2",
          "midi": 40,
          "time": 533.2458333333424,
          "velocity": 1,
          "duration": 0.25
        },
        {
          "name": "E2",
          "midi": 40,
          "time": 533.2458333333424,
          "velocity": 1,
          "duration": 0.25
        },
        {
          "name": "E1",
          "midi": 28,
          "time": 533.2458333333424,
          "velocity": 1,
          "duration": 0.25
        },
        {
          "name": "F3",
          "midi": 53,
          "time": 533.4958333333424,
          "velocity": 1,
          "duration": 0.25
        },
        {
          "name": "C3",
          "midi": 48,
          "time": 533.4958333333424,
          "velocity": 1,
          "duration": 0.25
        },
        {
          "name": "F2",
          "midi": 41,
          "time": 533.4958333333424,
          "velocity": 1,
          "duration": 0.25
        },
        {
          "name": "F3",
          "midi": 53,
          "time": 533.4958333333424,
          "velocity": 1,
          "duration": 0.25
        },
        {
          "name": "C3",
          "midi": 48,
          "time": 533.4958333333424,
          "velocity": 1,
          "duration": 0.25
        },
        {
          "name": "F2",
          "midi": 41,
          "time": 533.4958333333424,
          "velocity": 1,
          "duration": 0.25
        },
        {
          "name": "C2",
          "midi": 36,
          "time": 533.4958333333424,
          "velocity": 1,
          "duration": 0.25
        },
        {
          "name": "F2",
          "midi": 41,
          "time": 533.4958333333424,
          "velocity": 1,
          "duration": 0.25
        },
        {
          "name": "F1",
          "midi": 29,
          "time": 533.4958333333424,
          "velocity": 1,
          "duration": 0.25
        },
        {
          "name": "E2",
          "midi": 40,
          "time": 533.7458333333424,
          "velocity": 1,
          "duration": 0.25
        },
        {
          "name": "E2",
          "midi": 40,
          "time": 533.7458333333424,
          "velocity": 1,
          "duration": 0.25
        },
        {
          "name": "E1",
          "midi": 28,
          "time": 533.7458333333424,
          "velocity": 1,
          "duration": 0.25
        },
        {
          "name": "E2",
          "midi": 40,
          "time": 533.9958333333424,
          "velocity": 1,
          "duration": 0.25
        },
        {
          "name": "E2",
          "midi": 40,
          "time": 533.9958333333424,
          "velocity": 1,
          "duration": 0.25
        },
        {
          "name": "E1",
          "midi": 28,
          "time": 533.9958333333424,
          "velocity": 1,
          "duration": 0.25
        },
        {
          "name": "C3",
          "midi": 48,
          "time": 534.2458333333424,
          "velocity": 1,
          "duration": 0.25
        },
        {
          "name": "F3",
          "midi": 53,
          "time": 534.2458333333424,
          "velocity": 1,
          "duration": 0.25
        },
        {
          "name": "F2",
          "midi": 41,
          "time": 534.2458333333424,
          "velocity": 1,
          "duration": 0.25
        },
        {
          "name": "F3",
          "midi": 53,
          "time": 534.2458333333424,
          "velocity": 1,
          "duration": 0.25
        },
        {
          "name": "F2",
          "midi": 41,
          "time": 534.2458333333424,
          "velocity": 1,
          "duration": 0.25
        },
        {
          "name": "C3",
          "midi": 48,
          "time": 534.2458333333424,
          "velocity": 1,
          "duration": 0.25
        },
        {
          "name": "F1",
          "midi": 29,
          "time": 534.2458333333424,
          "velocity": 1,
          "duration": 0.25
        },
        {
          "name": "F2",
          "midi": 41,
          "time": 534.2458333333424,
          "velocity": 1,
          "duration": 0.25
        },
        {
          "name": "C2",
          "midi": 36,
          "time": 534.2458333333424,
          "velocity": 1,
          "duration": 0.25
        },
        {
          "name": "E2",
          "midi": 40,
          "time": 534.4958333333424,
          "velocity": 1,
          "duration": 0.25
        },
        {
          "name": "E2",
          "midi": 40,
          "time": 534.4958333333424,
          "velocity": 1,
          "duration": 0.25
        },
        {
          "name": "E1",
          "midi": 28,
          "time": 534.4958333333424,
          "velocity": 1,
          "duration": 0.25
        },
        {
          "name": "E2",
          "midi": 40,
          "time": 534.7458333333424,
          "velocity": 1,
          "duration": 0.25
        },
        {
          "name": "E2",
          "midi": 40,
          "time": 534.7458333333424,
          "velocity": 1,
          "duration": 0.25
        },
        {
          "name": "E1",
          "midi": 28,
          "time": 534.7458333333424,
          "velocity": 1,
          "duration": 0.25
        },
        {
          "name": "C3",
          "midi": 48,
          "time": 534.9958333333424,
          "velocity": 1,
          "duration": 0.25
        },
        {
          "name": "F3",
          "midi": 53,
          "time": 534.9958333333424,
          "velocity": 1,
          "duration": 0.25
        },
        {
          "name": "F2",
          "midi": 41,
          "time": 534.9958333333424,
          "velocity": 1,
          "duration": 0.25
        },
        {
          "name": "F2",
          "midi": 41,
          "time": 534.9958333333424,
          "velocity": 1,
          "duration": 0.25
        },
        {
          "name": "F3",
          "midi": 53,
          "time": 534.9958333333424,
          "velocity": 1,
          "duration": 0.25
        },
        {
          "name": "C3",
          "midi": 48,
          "time": 534.9958333333424,
          "velocity": 1,
          "duration": 0.25
        },
        {
          "name": "F2",
          "midi": 41,
          "time": 534.9958333333424,
          "velocity": 1,
          "duration": 0.25
        },
        {
          "name": "F1",
          "midi": 29,
          "time": 534.9958333333424,
          "velocity": 1,
          "duration": 0.25
        },
        {
          "name": "C2",
          "midi": 36,
          "time": 534.9958333333424,
          "velocity": 1,
          "duration": 0.25
        },
        {
          "name": "E2",
          "midi": 40,
          "time": 535.2458333333424,
          "velocity": 1,
          "duration": 0.25
        },
        {
          "name": "E2",
          "midi": 40,
          "time": 535.2458333333424,
          "velocity": 1,
          "duration": 0.25
        },
        {
          "name": "E1",
          "midi": 28,
          "time": 535.2458333333424,
          "velocity": 1,
          "duration": 0.25
        },
        {
          "name": "E2",
          "midi": 40,
          "time": 535.4958333333424,
          "velocity": 1,
          "duration": 0.25
        },
        {
          "name": "E2",
          "midi": 40,
          "time": 535.4958333333424,
          "velocity": 1,
          "duration": 0.25
        },
        {
          "name": "E1",
          "midi": 28,
          "time": 535.4958333333424,
          "velocity": 1,
          "duration": 0.25
        },
        {
          "name": "F2",
          "midi": 41,
          "time": 535.7458333333424,
          "velocity": 1,
          "duration": 0.25
        },
        {
          "name": "C3",
          "midi": 48,
          "time": 535.7458333333424,
          "velocity": 1,
          "duration": 0.25
        },
        {
          "name": "F3",
          "midi": 53,
          "time": 535.7458333333424,
          "velocity": 1,
          "duration": 0.25
        },
        {
          "name": "C3",
          "midi": 48,
          "time": 535.7458333333424,
          "velocity": 1,
          "duration": 0.25
        },
        {
          "name": "F3",
          "midi": 53,
          "time": 535.7458333333424,
          "velocity": 1,
          "duration": 0.25
        },
        {
          "name": "F2",
          "midi": 41,
          "time": 535.7458333333424,
          "velocity": 1,
          "duration": 0.25
        },
        {
          "name": "F2",
          "midi": 41,
          "time": 535.7458333333424,
          "velocity": 1,
          "duration": 0.25
        },
        {
          "name": "F1",
          "midi": 29,
          "time": 535.7458333333424,
          "velocity": 1,
          "duration": 0.25
        },
        {
          "name": "C2",
          "midi": 36,
          "time": 535.7458333333424,
          "velocity": 1,
          "duration": 0.25
        },
        {
          "name": "E2",
          "midi": 40,
          "time": 535.9958333333424,
          "velocity": 1,
          "duration": 0.25
        },
        {
          "name": "E2",
          "midi": 40,
          "time": 535.9958333333424,
          "velocity": 1,
          "duration": 0.25
        },
        {
          "name": "E1",
          "midi": 28,
          "time": 535.9958333333424,
          "velocity": 1,
          "duration": 0.25
        },
        {
          "name": "E2",
          "midi": 40,
          "time": 536.2458333333424,
          "velocity": 1,
          "duration": 0.25
        },
        {
          "name": "E2",
          "midi": 40,
          "time": 536.2458333333424,
          "velocity": 1,
          "duration": 0.25
        },
        {
          "name": "E1",
          "midi": 28,
          "time": 536.2458333333424,
          "velocity": 1,
          "duration": 0.25
        },
        {
          "name": "B2",
          "midi": 47,
          "time": 536.4958333333424,
          "velocity": 1,
          "duration": 0.25
        },
        {
          "name": "B2",
          "midi": 47,
          "time": 536.4958333333424,
          "velocity": 1,
          "duration": 0.25
        },
        {
          "name": "B1",
          "midi": 35,
          "time": 536.4958333333424,
          "velocity": 1,
          "duration": 0.25
        },
        {
          "name": "B2",
          "midi": 47,
          "time": 536.7458333333424,
          "velocity": 1,
          "duration": 0.25
        },
        {
          "name": "B2",
          "midi": 47,
          "time": 536.7458333333424,
          "velocity": 1,
          "duration": 0.25
        },
        {
          "name": "B1",
          "midi": 35,
          "time": 536.7458333333424,
          "velocity": 1,
          "duration": 0.25
        },
        {
          "name": "E2",
          "midi": 40,
          "time": 536.9958333333424,
          "velocity": 1,
          "duration": 0.25
        },
        {
          "name": "E2",
          "midi": 40,
          "time": 536.9958333333424,
          "velocity": 1,
          "duration": 0.25
        },
        {
          "name": "E1",
          "midi": 28,
          "time": 536.9958333333424,
          "velocity": 1,
          "duration": 0.25
        },
        {
          "name": "E2",
          "midi": 40,
          "time": 537.2458333333424,
          "velocity": 1,
          "duration": 0.25
        },
        {
          "name": "E2",
          "midi": 40,
          "time": 537.2458333333424,
          "velocity": 1,
          "duration": 0.25
        },
        {
          "name": "E1",
          "midi": 28,
          "time": 537.2458333333424,
          "velocity": 1,
          "duration": 0.25
        },
        {
          "name": "C3",
          "midi": 48,
          "time": 537.4958333333424,
          "velocity": 1,
          "duration": 0.25
        },
        {
          "name": "F2",
          "midi": 41,
          "time": 537.4958333333424,
          "velocity": 1,
          "duration": 0.25
        },
        {
          "name": "F3",
          "midi": 53,
          "time": 537.4958333333424,
          "velocity": 1,
          "duration": 0.25
        },
        {
          "name": "C3",
          "midi": 48,
          "time": 537.4958333333424,
          "velocity": 1,
          "duration": 0.25
        },
        {
          "name": "F2",
          "midi": 41,
          "time": 537.4958333333424,
          "velocity": 1,
          "duration": 0.25
        },
        {
          "name": "F3",
          "midi": 53,
          "time": 537.4958333333424,
          "velocity": 1,
          "duration": 0.25
        },
        {
          "name": "F1",
          "midi": 29,
          "time": 537.4958333333424,
          "velocity": 1,
          "duration": 0.25
        },
        {
          "name": "C2",
          "midi": 36,
          "time": 537.4958333333424,
          "velocity": 1,
          "duration": 0.25
        },
        {
          "name": "F2",
          "midi": 41,
          "time": 537.4958333333424,
          "velocity": 1,
          "duration": 0.25
        },
        {
          "name": "E2",
          "midi": 40,
          "time": 537.7458333333424,
          "velocity": 1,
          "duration": 0.25
        },
        {
          "name": "E2",
          "midi": 40,
          "time": 537.7458333333424,
          "velocity": 1,
          "duration": 0.25
        },
        {
          "name": "E1",
          "midi": 28,
          "time": 537.7458333333424,
          "velocity": 1,
          "duration": 0.25
        },
        {
          "name": "E2",
          "midi": 40,
          "time": 537.9958333333424,
          "velocity": 1,
          "duration": 0.25
        },
        {
          "name": "E2",
          "midi": 40,
          "time": 537.9958333333424,
          "velocity": 1,
          "duration": 0.25
        },
        {
          "name": "E1",
          "midi": 28,
          "time": 537.9958333333424,
          "velocity": 1,
          "duration": 0.25
        },
        {
          "name": "F2",
          "midi": 41,
          "time": 538.2458333333424,
          "velocity": 1,
          "duration": 0.25
        },
        {
          "name": "C3",
          "midi": 48,
          "time": 538.2458333333424,
          "velocity": 1,
          "duration": 0.25
        },
        {
          "name": "F3",
          "midi": 53,
          "time": 538.2458333333424,
          "velocity": 1,
          "duration": 0.25
        },
        {
          "name": "F2",
          "midi": 41,
          "time": 538.2458333333424,
          "velocity": 1,
          "duration": 0.25
        },
        {
          "name": "C3",
          "midi": 48,
          "time": 538.2458333333424,
          "velocity": 1,
          "duration": 0.25
        },
        {
          "name": "F3",
          "midi": 53,
          "time": 538.2458333333424,
          "velocity": 1,
          "duration": 0.25
        },
        {
          "name": "F1",
          "midi": 29,
          "time": 538.2458333333424,
          "velocity": 1,
          "duration": 0.25
        },
        {
          "name": "C2",
          "midi": 36,
          "time": 538.2458333333424,
          "velocity": 1,
          "duration": 0.25
        },
        {
          "name": "F2",
          "midi": 41,
          "time": 538.2458333333424,
          "velocity": 1,
          "duration": 0.25
        },
        {
          "name": "E2",
          "midi": 40,
          "time": 538.4958333333424,
          "velocity": 1,
          "duration": 0.25
        },
        {
          "name": "E2",
          "midi": 40,
          "time": 538.4958333333424,
          "velocity": 1,
          "duration": 0.25
        },
        {
          "name": "E1",
          "midi": 28,
          "time": 538.4958333333424,
          "velocity": 1,
          "duration": 0.25
        },
        {
          "name": "E2",
          "midi": 40,
          "time": 538.7458333333424,
          "velocity": 1,
          "duration": 0.25
        },
        {
          "name": "E2",
          "midi": 40,
          "time": 538.7458333333424,
          "velocity": 1,
          "duration": 0.25
        },
        {
          "name": "E1",
          "midi": 28,
          "time": 538.7458333333424,
          "velocity": 1,
          "duration": 0.25
        },
        {
          "name": "F2",
          "midi": 41,
          "time": 538.9958333333424,
          "velocity": 1,
          "duration": 0.25
        },
        {
          "name": "C3",
          "midi": 48,
          "time": 538.9958333333424,
          "velocity": 1,
          "duration": 0.25
        },
        {
          "name": "F3",
          "midi": 53,
          "time": 538.9958333333424,
          "velocity": 1,
          "duration": 0.25
        },
        {
          "name": "F2",
          "midi": 41,
          "time": 538.9958333333424,
          "velocity": 1,
          "duration": 0.25
        },
        {
          "name": "C3",
          "midi": 48,
          "time": 538.9958333333424,
          "velocity": 1,
          "duration": 0.25
        },
        {
          "name": "F3",
          "midi": 53,
          "time": 538.9958333333424,
          "velocity": 1,
          "duration": 0.25
        },
        {
          "name": "F2",
          "midi": 41,
          "time": 538.9958333333424,
          "velocity": 1,
          "duration": 0.25
        },
        {
          "name": "F1",
          "midi": 29,
          "time": 538.9958333333424,
          "velocity": 1,
          "duration": 0.25
        },
        {
          "name": "C2",
          "midi": 36,
          "time": 538.9958333333424,
          "velocity": 1,
          "duration": 0.25
        },
        {
          "name": "E2",
          "midi": 40,
          "time": 539.2458333333424,
          "velocity": 1,
          "duration": 0.25
        },
        {
          "name": "E2",
          "midi": 40,
          "time": 539.2458333333424,
          "velocity": 1,
          "duration": 0.25
        },
        {
          "name": "E1",
          "midi": 28,
          "time": 539.2458333333424,
          "velocity": 1,
          "duration": 0.25
        },
        {
          "name": "E2",
          "midi": 40,
          "time": 539.4958333333424,
          "velocity": 1,
          "duration": 0.25
        },
        {
          "name": "E2",
          "midi": 40,
          "time": 539.4958333333424,
          "velocity": 1,
          "duration": 0.25
        },
        {
          "name": "E1",
          "midi": 28,
          "time": 539.4958333333424,
          "velocity": 1,
          "duration": 0.25
        },
        {
          "name": "C3",
          "midi": 48,
          "time": 539.7458333333424,
          "velocity": 1,
          "duration": 0.25
        },
        {
          "name": "F3",
          "midi": 53,
          "time": 539.7458333333424,
          "velocity": 1,
          "duration": 0.25
        },
        {
          "name": "F2",
          "midi": 41,
          "time": 539.7458333333424,
          "velocity": 1,
          "duration": 0.25
        },
        {
          "name": "F3",
          "midi": 53,
          "time": 539.7458333333424,
          "velocity": 1,
          "duration": 0.25
        },
        {
          "name": "F2",
          "midi": 41,
          "time": 539.7458333333424,
          "velocity": 1,
          "duration": 0.25
        },
        {
          "name": "C3",
          "midi": 48,
          "time": 539.7458333333424,
          "velocity": 1,
          "duration": 0.25
        },
        {
          "name": "F2",
          "midi": 41,
          "time": 539.7458333333424,
          "velocity": 1,
          "duration": 0.25
        },
        {
          "name": "C2",
          "midi": 36,
          "time": 539.7458333333424,
          "velocity": 1,
          "duration": 0.25
        },
        {
          "name": "F1",
          "midi": 29,
          "time": 539.7458333333424,
          "velocity": 1,
          "duration": 0.25
        },
        {
          "name": "E2",
          "midi": 40,
          "time": 539.9958333333424,
          "velocity": 1,
          "duration": 0.25
        },
        {
          "name": "E2",
          "midi": 40,
          "time": 539.9958333333424,
          "velocity": 1,
          "duration": 0.25
        },
        {
          "name": "E1",
          "midi": 28,
          "time": 539.9958333333424,
          "velocity": 1,
          "duration": 0.25
        },
        {
          "name": "E2",
          "midi": 40,
          "time": 540.2458333333424,
          "velocity": 1,
          "duration": 0.25
        },
        {
          "name": "E2",
          "midi": 40,
          "time": 540.2458333333424,
          "velocity": 1,
          "duration": 0.25
        },
        {
          "name": "E1",
          "midi": 28,
          "time": 540.2458333333424,
          "velocity": 1,
          "duration": 0.25
        },
        {
          "name": "B2",
          "midi": 47,
          "time": 540.4958333333424,
          "velocity": 1,
          "duration": 0.5
        },
        {
          "name": "F#3",
          "midi": 54,
          "time": 540.4958333333424,
          "velocity": 1,
          "duration": 0.5
        },
        {
          "name": "F#3",
          "midi": 54,
          "time": 540.4958333333424,
          "velocity": 1,
          "duration": 0.5
        },
        {
          "name": "B2",
          "midi": 47,
          "time": 540.4958333333424,
          "velocity": 1,
          "duration": 0.5
        },
        {
          "name": "B1",
          "midi": 35,
          "time": 540.4958333333424,
          "velocity": 1,
          "duration": 0.5
        },
        {
          "name": "F#2",
          "midi": 42,
          "time": 540.4958333333424,
          "velocity": 1,
          "duration": 0.5
        },
        {
          "name": "E2",
          "midi": 40,
          "time": 540.9958333333424,
          "velocity": 1,
          "duration": 0.25
        },
        {
          "name": "E2",
          "midi": 40,
          "time": 540.9958333333424,
          "velocity": 1,
          "duration": 0.25
        },
        {
          "name": "E1",
          "midi": 28,
          "time": 540.9958333333424,
          "velocity": 1,
          "duration": 0.25
        },
        {
          "name": "E2",
          "midi": 40,
          "time": 541.2458333333424,
          "velocity": 1,
          "duration": 0.25
        },
        {
          "name": "E2",
          "midi": 40,
          "time": 541.2458333333424,
          "velocity": 1,
          "duration": 0.25
        },
        {
          "name": "E1",
          "midi": 28,
          "time": 541.2458333333424,
          "velocity": 1,
          "duration": 0.25
        },
        {
          "name": "F3",
          "midi": 53,
          "time": 541.4958333333424,
          "velocity": 1,
          "duration": 0.25
        },
        {
          "name": "C3",
          "midi": 48,
          "time": 541.4958333333424,
          "velocity": 1,
          "duration": 0.25
        },
        {
          "name": "F2",
          "midi": 41,
          "time": 541.4958333333424,
          "velocity": 1,
          "duration": 0.25
        },
        {
          "name": "F3",
          "midi": 53,
          "time": 541.4958333333424,
          "velocity": 1,
          "duration": 0.25
        },
        {
          "name": "F2",
          "midi": 41,
          "time": 541.4958333333424,
          "velocity": 1,
          "duration": 0.25
        },
        {
          "name": "C3",
          "midi": 48,
          "time": 541.4958333333424,
          "velocity": 1,
          "duration": 0.25
        },
        {
          "name": "C2",
          "midi": 36,
          "time": 541.4958333333424,
          "velocity": 1,
          "duration": 0.25
        },
        {
          "name": "F2",
          "midi": 41,
          "time": 541.4958333333424,
          "velocity": 1,
          "duration": 0.25
        },
        {
          "name": "F1",
          "midi": 29,
          "time": 541.4958333333424,
          "velocity": 1,
          "duration": 0.25
        },
        {
          "name": "E2",
          "midi": 40,
          "time": 541.7458333333424,
          "velocity": 1,
          "duration": 0.25
        },
        {
          "name": "E2",
          "midi": 40,
          "time": 541.7458333333424,
          "velocity": 1,
          "duration": 0.25
        },
        {
          "name": "E1",
          "midi": 28,
          "time": 541.7458333333424,
          "velocity": 1,
          "duration": 0.25
        },
        {
          "name": "E2",
          "midi": 40,
          "time": 541.9958333333424,
          "velocity": 1,
          "duration": 0.25
        },
        {
          "name": "E2",
          "midi": 40,
          "time": 541.9958333333424,
          "velocity": 1,
          "duration": 0.25
        },
        {
          "name": "E1",
          "midi": 28,
          "time": 541.9958333333424,
          "velocity": 1,
          "duration": 0.25
        },
        {
          "name": "F3",
          "midi": 53,
          "time": 542.2458333333424,
          "velocity": 1,
          "duration": 0.25
        },
        {
          "name": "C3",
          "midi": 48,
          "time": 542.2458333333424,
          "velocity": 1,
          "duration": 0.25
        },
        {
          "name": "F2",
          "midi": 41,
          "time": 542.2458333333424,
          "velocity": 1,
          "duration": 0.25
        },
        {
          "name": "C3",
          "midi": 48,
          "time": 542.2458333333424,
          "velocity": 1,
          "duration": 0.25
        },
        {
          "name": "F3",
          "midi": 53,
          "time": 542.2458333333424,
          "velocity": 1,
          "duration": 0.25
        },
        {
          "name": "F2",
          "midi": 41,
          "time": 542.2458333333424,
          "velocity": 1,
          "duration": 0.25
        },
        {
          "name": "F1",
          "midi": 29,
          "time": 542.2458333333424,
          "velocity": 1,
          "duration": 0.25
        },
        {
          "name": "C2",
          "midi": 36,
          "time": 542.2458333333424,
          "velocity": 1,
          "duration": 0.25
        },
        {
          "name": "F2",
          "midi": 41,
          "time": 542.2458333333424,
          "velocity": 1,
          "duration": 0.25
        },
        {
          "name": "E2",
          "midi": 40,
          "time": 542.4958333333424,
          "velocity": 1,
          "duration": 0.25
        },
        {
          "name": "E2",
          "midi": 40,
          "time": 542.4958333333424,
          "velocity": 1,
          "duration": 0.25
        },
        {
          "name": "E1",
          "midi": 28,
          "time": 542.4958333333424,
          "velocity": 1,
          "duration": 0.25
        },
        {
          "name": "E2",
          "midi": 40,
          "time": 542.7458333333424,
          "velocity": 1,
          "duration": 0.25
        },
        {
          "name": "E2",
          "midi": 40,
          "time": 542.7458333333424,
          "velocity": 1,
          "duration": 0.25
        },
        {
          "name": "E1",
          "midi": 28,
          "time": 542.7458333333424,
          "velocity": 1,
          "duration": 0.25
        },
        {
          "name": "F3",
          "midi": 53,
          "time": 542.9958333333424,
          "velocity": 1,
          "duration": 0.25
        },
        {
          "name": "F2",
          "midi": 41,
          "time": 542.9958333333424,
          "velocity": 1,
          "duration": 0.25
        },
        {
          "name": "C3",
          "midi": 48,
          "time": 542.9958333333424,
          "velocity": 1,
          "duration": 0.25
        },
        {
          "name": "C3",
          "midi": 48,
          "time": 542.9958333333424,
          "velocity": 1,
          "duration": 0.25
        },
        {
          "name": "F3",
          "midi": 53,
          "time": 542.9958333333424,
          "velocity": 1,
          "duration": 0.25
        },
        {
          "name": "F2",
          "midi": 41,
          "time": 542.9958333333424,
          "velocity": 1,
          "duration": 0.25
        },
        {
          "name": "F2",
          "midi": 41,
          "time": 542.9958333333424,
          "velocity": 1,
          "duration": 0.25
        },
        {
          "name": "F1",
          "midi": 29,
          "time": 542.9958333333424,
          "velocity": 1,
          "duration": 0.25
        },
        {
          "name": "C2",
          "midi": 36,
          "time": 542.9958333333424,
          "velocity": 1,
          "duration": 0.25
        },
        {
          "name": "E2",
          "midi": 40,
          "time": 543.2458333333424,
          "velocity": 1,
          "duration": 0.25
        },
        {
          "name": "E2",
          "midi": 40,
          "time": 543.2458333333424,
          "velocity": 1,
          "duration": 0.25
        },
        {
          "name": "E1",
          "midi": 28,
          "time": 543.2458333333424,
          "velocity": 1,
          "duration": 0.25
        },
        {
          "name": "E2",
          "midi": 40,
          "time": 543.4958333333424,
          "velocity": 1,
          "duration": 0.25
        },
        {
          "name": "E2",
          "midi": 40,
          "time": 543.4958333333424,
          "velocity": 1,
          "duration": 0.25
        },
        {
          "name": "E1",
          "midi": 28,
          "time": 543.4958333333424,
          "velocity": 1,
          "duration": 0.25
        },
        {
          "name": "C3",
          "midi": 48,
          "time": 543.7458333333424,
          "velocity": 1,
          "duration": 0.25
        },
        {
          "name": "F3",
          "midi": 53,
          "time": 543.7458333333424,
          "velocity": 1,
          "duration": 0.25
        },
        {
          "name": "F2",
          "midi": 41,
          "time": 543.7458333333424,
          "velocity": 1,
          "duration": 0.25
        },
        {
          "name": "C3",
          "midi": 48,
          "time": 543.7458333333424,
          "velocity": 1,
          "duration": 0.25
        },
        {
          "name": "F3",
          "midi": 53,
          "time": 543.7458333333424,
          "velocity": 1,
          "duration": 0.25
        },
        {
          "name": "F2",
          "midi": 41,
          "time": 543.7458333333424,
          "velocity": 1,
          "duration": 0.25
        },
        {
          "name": "F1",
          "midi": 29,
          "time": 543.7458333333424,
          "velocity": 1,
          "duration": 0.25
        },
        {
          "name": "C2",
          "midi": 36,
          "time": 543.7458333333424,
          "velocity": 1,
          "duration": 0.25
        },
        {
          "name": "F2",
          "midi": 41,
          "time": 543.7458333333424,
          "velocity": 1,
          "duration": 0.25
        },
        {
          "name": "E2",
          "midi": 40,
          "time": 543.9958333333424,
          "velocity": 1,
          "duration": 0.25
        },
        {
          "name": "E2",
          "midi": 40,
          "time": 543.9958333333424,
          "velocity": 1,
          "duration": 0.25
        },
        {
          "name": "E1",
          "midi": 28,
          "time": 543.9958333333424,
          "velocity": 1,
          "duration": 0.25
        },
        {
          "name": "E2",
          "midi": 40,
          "time": 544.2458333333424,
          "velocity": 1,
          "duration": 0.25
        },
        {
          "name": "E2",
          "midi": 40,
          "time": 544.2458333333424,
          "velocity": 1,
          "duration": 0.25
        },
        {
          "name": "E1",
          "midi": 28,
          "time": 544.2458333333424,
          "velocity": 1,
          "duration": 0.25
        },
        {
          "name": "B2",
          "midi": 47,
          "time": 544.4958333333424,
          "velocity": 1,
          "duration": 0.25
        },
        {
          "name": "B2",
          "midi": 47,
          "time": 544.4958333333424,
          "velocity": 1,
          "duration": 0.25
        },
        {
          "name": "B1",
          "midi": 35,
          "time": 544.4958333333424,
          "velocity": 1,
          "duration": 0.25
        },
        {
          "name": "B2",
          "midi": 47,
          "time": 544.7458333333424,
          "velocity": 1,
          "duration": 0.25
        },
        {
          "name": "B2",
          "midi": 47,
          "time": 544.7458333333424,
          "velocity": 1,
          "duration": 0.25
        },
        {
          "name": "B1",
          "midi": 35,
          "time": 544.7458333333424,
          "velocity": 1,
          "duration": 0.25
        },
        {
          "name": "E2",
          "midi": 40,
          "time": 544.9958333333424,
          "velocity": 1,
          "duration": 0.25
        },
        {
          "name": "E2",
          "midi": 40,
          "time": 544.9958333333424,
          "velocity": 1,
          "duration": 0.25
        },
        {
          "name": "E1",
          "midi": 28,
          "time": 544.9958333333424,
          "velocity": 1,
          "duration": 0.25
        },
        {
          "name": "E2",
          "midi": 40,
          "time": 545.2458333333424,
          "velocity": 1,
          "duration": 0.25
        },
        {
          "name": "E2",
          "midi": 40,
          "time": 545.2458333333424,
          "velocity": 1,
          "duration": 0.25
        },
        {
          "name": "E1",
          "midi": 28,
          "time": 545.2458333333424,
          "velocity": 1,
          "duration": 0.25
        },
        {
          "name": "F2",
          "midi": 41,
          "time": 545.4958333333424,
          "velocity": 1,
          "duration": 0.25
        },
        {
          "name": "F3",
          "midi": 53,
          "time": 545.4958333333424,
          "velocity": 1,
          "duration": 0.25
        },
        {
          "name": "C3",
          "midi": 48,
          "time": 545.4958333333424,
          "velocity": 1,
          "duration": 0.25
        },
        {
          "name": "C3",
          "midi": 48,
          "time": 545.4958333333424,
          "velocity": 1,
          "duration": 0.25
        },
        {
          "name": "F2",
          "midi": 41,
          "time": 545.4958333333424,
          "velocity": 1,
          "duration": 0.25
        },
        {
          "name": "F3",
          "midi": 53,
          "time": 545.4958333333424,
          "velocity": 1,
          "duration": 0.25
        },
        {
          "name": "F1",
          "midi": 29,
          "time": 545.4958333333424,
          "velocity": 1,
          "duration": 0.25
        },
        {
          "name": "F2",
          "midi": 41,
          "time": 545.4958333333424,
          "velocity": 1,
          "duration": 0.25
        },
        {
          "name": "C2",
          "midi": 36,
          "time": 545.4958333333424,
          "velocity": 1,
          "duration": 0.25
        },
        {
          "name": "E2",
          "midi": 40,
          "time": 545.7458333333424,
          "velocity": 1,
          "duration": 0.25
        },
        {
          "name": "E2",
          "midi": 40,
          "time": 545.7458333333424,
          "velocity": 1,
          "duration": 0.25
        },
        {
          "name": "E1",
          "midi": 28,
          "time": 545.7458333333424,
          "velocity": 1,
          "duration": 0.25
        },
        {
          "name": "E2",
          "midi": 40,
          "time": 545.9958333333424,
          "velocity": 1,
          "duration": 0.25
        },
        {
          "name": "E2",
          "midi": 40,
          "time": 545.9958333333424,
          "velocity": 1,
          "duration": 0.25
        },
        {
          "name": "E1",
          "midi": 28,
          "time": 545.9958333333424,
          "velocity": 1,
          "duration": 0.25
        },
        {
          "name": "C3",
          "midi": 48,
          "time": 546.2458333333424,
          "velocity": 1,
          "duration": 0.25
        },
        {
          "name": "F3",
          "midi": 53,
          "time": 546.2458333333424,
          "velocity": 1,
          "duration": 0.25
        },
        {
          "name": "F2",
          "midi": 41,
          "time": 546.2458333333424,
          "velocity": 1,
          "duration": 0.25
        },
        {
          "name": "C3",
          "midi": 48,
          "time": 546.2458333333424,
          "velocity": 1,
          "duration": 0.25
        },
        {
          "name": "F2",
          "midi": 41,
          "time": 546.2458333333424,
          "velocity": 1,
          "duration": 0.25
        },
        {
          "name": "F3",
          "midi": 53,
          "time": 546.2458333333424,
          "velocity": 1,
          "duration": 0.25
        },
        {
          "name": "F2",
          "midi": 41,
          "time": 546.2458333333424,
          "velocity": 1,
          "duration": 0.25
        },
        {
          "name": "C2",
          "midi": 36,
          "time": 546.2458333333424,
          "velocity": 1,
          "duration": 0.25
        },
        {
          "name": "F1",
          "midi": 29,
          "time": 546.2458333333424,
          "velocity": 1,
          "duration": 0.25
        },
        {
          "name": "E2",
          "midi": 40,
          "time": 546.4958333333424,
          "velocity": 1,
          "duration": 0.25
        },
        {
          "name": "E2",
          "midi": 40,
          "time": 546.4958333333424,
          "velocity": 1,
          "duration": 0.25
        },
        {
          "name": "E1",
          "midi": 28,
          "time": 546.4958333333424,
          "velocity": 1,
          "duration": 0.25
        },
        {
          "name": "E2",
          "midi": 40,
          "time": 546.7458333333424,
          "velocity": 1,
          "duration": 0.25
        },
        {
          "name": "E2",
          "midi": 40,
          "time": 546.7458333333424,
          "velocity": 1,
          "duration": 0.25
        },
        {
          "name": "E1",
          "midi": 28,
          "time": 546.7458333333424,
          "velocity": 1,
          "duration": 0.25
        },
        {
          "name": "F2",
          "midi": 41,
          "time": 546.9958333333424,
          "velocity": 1,
          "duration": 0.25
        },
        {
          "name": "C3",
          "midi": 48,
          "time": 546.9958333333424,
          "velocity": 1,
          "duration": 0.25
        },
        {
          "name": "F3",
          "midi": 53,
          "time": 546.9958333333424,
          "velocity": 1,
          "duration": 0.25
        },
        {
          "name": "F2",
          "midi": 41,
          "time": 546.9958333333424,
          "velocity": 1,
          "duration": 0.25
        },
        {
          "name": "C3",
          "midi": 48,
          "time": 546.9958333333424,
          "velocity": 1,
          "duration": 0.25
        },
        {
          "name": "F3",
          "midi": 53,
          "time": 546.9958333333424,
          "velocity": 1,
          "duration": 0.25
        },
        {
          "name": "C2",
          "midi": 36,
          "time": 546.9958333333424,
          "velocity": 1,
          "duration": 0.25
        },
        {
          "name": "F1",
          "midi": 29,
          "time": 546.9958333333424,
          "velocity": 1,
          "duration": 0.25
        },
        {
          "name": "F2",
          "midi": 41,
          "time": 546.9958333333424,
          "velocity": 1,
          "duration": 0.25
        },
        {
          "name": "E2",
          "midi": 40,
          "time": 547.2458333333424,
          "velocity": 1,
          "duration": 0.25
        },
        {
          "name": "E2",
          "midi": 40,
          "time": 547.2458333333424,
          "velocity": 1,
          "duration": 0.25
        },
        {
          "name": "E1",
          "midi": 28,
          "time": 547.2458333333424,
          "velocity": 1,
          "duration": 0.25
        },
        {
          "name": "E2",
          "midi": 40,
          "time": 547.4958333333424,
          "velocity": 1,
          "duration": 0.25
        },
        {
          "name": "E2",
          "midi": 40,
          "time": 547.4958333333424,
          "velocity": 1,
          "duration": 0.25
        },
        {
          "name": "E1",
          "midi": 28,
          "time": 547.4958333333424,
          "velocity": 1,
          "duration": 0.25
        },
        {
          "name": "F2",
          "midi": 41,
          "time": 547.7458333333424,
          "velocity": 1,
          "duration": 0.25
        },
        {
          "name": "C3",
          "midi": 48,
          "time": 547.7458333333424,
          "velocity": 1,
          "duration": 0.25
        },
        {
          "name": "F3",
          "midi": 53,
          "time": 547.7458333333424,
          "velocity": 1,
          "duration": 0.25
        },
        {
          "name": "C3",
          "midi": 48,
          "time": 547.7458333333424,
          "velocity": 1,
          "duration": 0.25
        },
        {
          "name": "F3",
          "midi": 53,
          "time": 547.7458333333424,
          "velocity": 1,
          "duration": 0.25
        },
        {
          "name": "F2",
          "midi": 41,
          "time": 547.7458333333424,
          "velocity": 1,
          "duration": 0.25
        },
        {
          "name": "C2",
          "midi": 36,
          "time": 547.7458333333424,
          "velocity": 1,
          "duration": 0.25
        },
        {
          "name": "F1",
          "midi": 29,
          "time": 547.7458333333424,
          "velocity": 1,
          "duration": 0.25
        },
        {
          "name": "F2",
          "midi": 41,
          "time": 547.7458333333424,
          "velocity": 1,
          "duration": 0.25
        },
        {
          "name": "E2",
          "midi": 40,
          "time": 547.9958333333424,
          "velocity": 1,
          "duration": 0.25
        },
        {
          "name": "E2",
          "midi": 40,
          "time": 547.9958333333424,
          "velocity": 1,
          "duration": 0.25
        },
        {
          "name": "E1",
          "midi": 28,
          "time": 547.9958333333424,
          "velocity": 1,
          "duration": 0.25
        },
        {
          "name": "E2",
          "midi": 40,
          "time": 548.2458333333424,
          "velocity": 1,
          "duration": 0.25
        },
        {
          "name": "E2",
          "midi": 40,
          "time": 548.2458333333424,
          "velocity": 1,
          "duration": 0.25
        },
        {
          "name": "E1",
          "midi": 28,
          "time": 548.2458333333424,
          "velocity": 1,
          "duration": 0.25
        },
        {
          "name": "F#3",
          "midi": 54,
          "time": 548.4958333333424,
          "velocity": 1,
          "duration": 0.5
        },
        {
          "name": "B2",
          "midi": 47,
          "time": 548.4958333333424,
          "velocity": 1,
          "duration": 0.5
        },
        {
          "name": "B2",
          "midi": 47,
          "time": 548.4958333333424,
          "velocity": 1,
          "duration": 0.5
        },
        {
          "name": "F#3",
          "midi": 54,
          "time": 548.4958333333424,
          "velocity": 1,
          "duration": 0.5
        },
        {
          "name": "B1",
          "midi": 35,
          "time": 548.4958333333424,
          "velocity": 1,
          "duration": 0.5
        },
        {
          "name": "F#2",
          "midi": 42,
          "time": 548.4958333333424,
          "velocity": 1,
          "duration": 0.5
        },
        {
          "name": "E2",
          "midi": 40,
          "time": 548.9958333333424,
          "velocity": 1,
          "duration": 0.25
        },
        {
          "name": "B2",
          "midi": 47,
          "time": 548.9958333333424,
          "velocity": 1,
          "duration": 0.25
        },
        {
          "name": "B2",
          "midi": 47,
          "time": 548.9958333333424,
          "velocity": 1,
          "duration": 0.25
        },
        {
          "name": "E2",
          "midi": 40,
          "time": 548.9958333333424,
          "velocity": 1,
          "duration": 0.25
        },
        {
          "name": "E1",
          "midi": 28,
          "time": 548.9958333333424,
          "velocity": 1,
          "duration": 0.25
        },
        {
          "name": "B1",
          "midi": 35,
          "time": 548.9958333333424,
          "velocity": 1,
          "duration": 0.25
        },
        {
          "name": "B2",
          "midi": 47,
          "time": 549.2458333333424,
          "velocity": 1,
          "duration": 0.25
        },
        {
          "name": "E2",
          "midi": 40,
          "time": 549.2458333333424,
          "velocity": 1,
          "duration": 0.25
        },
        {
          "name": "E2",
          "midi": 40,
          "time": 549.2458333333424,
          "velocity": 1,
          "duration": 0.25
        },
        {
          "name": "B2",
          "midi": 47,
          "time": 549.2458333333424,
          "velocity": 1,
          "duration": 0.25
        },
        {
          "name": "B1",
          "midi": 35,
          "time": 549.2458333333424,
          "velocity": 1,
          "duration": 0.25
        },
        {
          "name": "E1",
          "midi": 28,
          "time": 549.2458333333424,
          "velocity": 1,
          "duration": 0.25
        },
        {
          "name": "B2",
          "midi": 47,
          "time": 549.4958333333424,
          "velocity": 1,
          "duration": 0.25
        },
        {
          "name": "E2",
          "midi": 40,
          "time": 549.4958333333424,
          "velocity": 1,
          "duration": 0.25
        },
        {
          "name": "E2",
          "midi": 40,
          "time": 549.4958333333424,
          "velocity": 1,
          "duration": 0.25
        },
        {
          "name": "B2",
          "midi": 47,
          "time": 549.4958333333424,
          "velocity": 1,
          "duration": 0.25
        },
        {
          "name": "B1",
          "midi": 35,
          "time": 549.4958333333424,
          "velocity": 1,
          "duration": 0.25
        },
        {
          "name": "E1",
          "midi": 28,
          "time": 549.4958333333424,
          "velocity": 1,
          "duration": 0.25
        },
        {
          "name": "B2",
          "midi": 47,
          "time": 549.7458333333424,
          "velocity": 1,
          "duration": 0.25
        },
        {
          "name": "E2",
          "midi": 40,
          "time": 549.7458333333424,
          "velocity": 1,
          "duration": 0.25
        },
        {
          "name": "B2",
          "midi": 47,
          "time": 549.7458333333424,
          "velocity": 1,
          "duration": 0.25
        },
        {
          "name": "E2",
          "midi": 40,
          "time": 549.7458333333424,
          "velocity": 1,
          "duration": 0.25
        },
        {
          "name": "E1",
          "midi": 28,
          "time": 549.7458333333424,
          "velocity": 1,
          "duration": 0.25
        },
        {
          "name": "B1",
          "midi": 35,
          "time": 549.7458333333424,
          "velocity": 1,
          "duration": 0.25
        },
        {
          "name": "E2",
          "midi": 40,
          "time": 549.9958333333424,
          "velocity": 1,
          "duration": 0.25
        },
        {
          "name": "B2",
          "midi": 47,
          "time": 549.9958333333424,
          "velocity": 1,
          "duration": 0.25
        },
        {
          "name": "E2",
          "midi": 40,
          "time": 549.9958333333424,
          "velocity": 1,
          "duration": 0.25
        },
        {
          "name": "B2",
          "midi": 47,
          "time": 549.9958333333424,
          "velocity": 1,
          "duration": 0.25
        },
        {
          "name": "B1",
          "midi": 35,
          "time": 549.9958333333424,
          "velocity": 1,
          "duration": 0.25
        },
        {
          "name": "E1",
          "midi": 28,
          "time": 549.9958333333424,
          "velocity": 1,
          "duration": 0.25
        },
        {
          "name": "E2",
          "midi": 40,
          "time": 550.2458333333424,
          "velocity": 1,
          "duration": 0.25
        },
        {
          "name": "B2",
          "midi": 47,
          "time": 550.2458333333424,
          "velocity": 1,
          "duration": 0.25
        },
        {
          "name": "B2",
          "midi": 47,
          "time": 550.2458333333424,
          "velocity": 1,
          "duration": 0.25
        },
        {
          "name": "E2",
          "midi": 40,
          "time": 550.2458333333424,
          "velocity": 1,
          "duration": 0.25
        },
        {
          "name": "B1",
          "midi": 35,
          "time": 550.2458333333424,
          "velocity": 1,
          "duration": 0.25
        },
        {
          "name": "E1",
          "midi": 28,
          "time": 550.2458333333424,
          "velocity": 1,
          "duration": 0.25
        },
        {
          "name": "B2",
          "midi": 47,
          "time": 550.4958333333424,
          "velocity": 1,
          "duration": 0.25
        },
        {
          "name": "E2",
          "midi": 40,
          "time": 550.4958333333424,
          "velocity": 1,
          "duration": 0.25
        },
        {
          "name": "B2",
          "midi": 47,
          "time": 550.4958333333424,
          "velocity": 1,
          "duration": 0.25
        },
        {
          "name": "E2",
          "midi": 40,
          "time": 550.4958333333424,
          "velocity": 1,
          "duration": 0.25
        },
        {
          "name": "B1",
          "midi": 35,
          "time": 550.4958333333424,
          "velocity": 1,
          "duration": 0.25
        },
        {
          "name": "E1",
          "midi": 28,
          "time": 550.4958333333424,
          "velocity": 1,
          "duration": 0.25
        },
        {
          "name": "B2",
          "midi": 47,
          "time": 550.7458333333424,
          "velocity": 1,
          "duration": 0.25
        },
        {
          "name": "E2",
          "midi": 40,
          "time": 550.7458333333424,
          "velocity": 1,
          "duration": 0.25
        },
        {
          "name": "B2",
          "midi": 47,
          "time": 550.7458333333424,
          "velocity": 1,
          "duration": 0.25
        },
        {
          "name": "E2",
          "midi": 40,
          "time": 550.7458333333424,
          "velocity": 1,
          "duration": 0.25
        },
        {
          "name": "B1",
          "midi": 35,
          "time": 550.7458333333424,
          "velocity": 1,
          "duration": 0.25
        },
        {
          "name": "E1",
          "midi": 28,
          "time": 550.7458333333424,
          "velocity": 1,
          "duration": 0.25
        },
        {
          "name": "E2",
          "midi": 40,
          "time": 550.9958333333424,
          "velocity": 1,
          "duration": 0.25
        },
        {
          "name": "E2",
          "midi": 40,
          "time": 550.9958333333424,
          "velocity": 1,
          "duration": 0.25
        },
        {
          "name": "E1",
          "midi": 28,
          "time": 550.9958333333424,
          "velocity": 1,
          "duration": 0.25
        },
        {
          "name": "F#2",
          "midi": 42,
          "time": 551.2458333333424,
          "velocity": 1,
          "duration": 0.25
        },
        {
          "name": "F#2",
          "midi": 42,
          "time": 551.2458333333424,
          "velocity": 1,
          "duration": 0.25
        },
        {
          "name": "F#1",
          "midi": 30,
          "time": 551.2458333333424,
          "velocity": 1,
          "duration": 0.25
        },
        {
          "name": "G2",
          "midi": 43,
          "time": 551.4958333333424,
          "velocity": 1,
          "duration": 0.25
        },
        {
          "name": "G2",
          "midi": 43,
          "time": 551.4958333333424,
          "velocity": 1,
          "duration": 0.25
        },
        {
          "name": "G1",
          "midi": 31,
          "time": 551.4958333333424,
          "velocity": 1,
          "duration": 0.25
        },
        {
          "name": "A2",
          "midi": 45,
          "time": 551.7458333333424,
          "velocity": 1,
          "duration": 0.25
        },
        {
          "name": "A2",
          "midi": 45,
          "time": 551.7458333333424,
          "velocity": 1,
          "duration": 0.25
        },
        {
          "name": "A1",
          "midi": 33,
          "time": 551.7458333333424,
          "velocity": 1,
          "duration": 0.25
        },
        {
          "name": "B2",
          "midi": 47,
          "time": 551.9958333333424,
          "velocity": 1,
          "duration": 0.25
        },
        {
          "name": "B2",
          "midi": 47,
          "time": 551.9958333333424,
          "velocity": 1,
          "duration": 0.25
        },
        {
          "name": "B1",
          "midi": 35,
          "time": 551.9958333333424,
          "velocity": 1,
          "duration": 0.25
        },
        {
          "name": "C3",
          "midi": 48,
          "time": 552.2458333333424,
          "velocity": 1,
          "duration": 0.25
        },
        {
          "name": "C3",
          "midi": 48,
          "time": 552.2458333333424,
          "velocity": 1,
          "duration": 0.25
        },
        {
          "name": "C2",
          "midi": 36,
          "time": 552.2458333333424,
          "velocity": 1,
          "duration": 0.25
        },
        {
          "name": "D3",
          "midi": 50,
          "time": 552.4958333333424,
          "velocity": 1,
          "duration": 0.25
        },
        {
          "name": "D3",
          "midi": 50,
          "time": 552.4958333333424,
          "velocity": 1,
          "duration": 0.25
        },
        {
          "name": "D2",
          "midi": 38,
          "time": 552.4958333333424,
          "velocity": 1,
          "duration": 0.25
        },
        {
          "name": "E3",
          "midi": 52,
          "time": 552.7458333333424,
          "velocity": 1,
          "duration": 0.25
        },
        {
          "name": "E3",
          "midi": 52,
          "time": 552.7458333333424,
          "velocity": 1,
          "duration": 0.25
        },
        {
          "name": "E2",
          "midi": 40,
          "time": 552.7458333333424,
          "velocity": 1,
          "duration": 0.25
        },
        {
          "name": "F#3",
          "midi": 54,
          "time": 552.9958333333424,
          "velocity": 1,
          "duration": 0.25
        },
        {
          "name": "F#3",
          "midi": 54,
          "time": 552.9958333333424,
          "velocity": 1,
          "duration": 0.25
        },
        {
          "name": "F#2",
          "midi": 42,
          "time": 552.9958333333424,
          "velocity": 1,
          "duration": 0.25
        },
        {
          "name": "G3",
          "midi": 55,
          "time": 553.2458333333424,
          "velocity": 1,
          "duration": 0.25
        },
        {
          "name": "G3",
          "midi": 55,
          "time": 553.2458333333424,
          "velocity": 1,
          "duration": 0.25
        },
        {
          "name": "G2",
          "midi": 43,
          "time": 553.2458333333424,
          "velocity": 1,
          "duration": 0.25
        },
        {
          "name": "C3",
          "midi": 48,
          "time": 553.4958333333424,
          "velocity": 1,
          "duration": 1.25
        },
        {
          "name": "C3",
          "midi": 48,
          "time": 553.4958333333424,
          "velocity": 1,
          "duration": 1.25
        },
        {
          "name": "C2",
          "midi": 36,
          "time": 553.4958333333424,
          "velocity": 1,
          "duration": 1.25
        },
        {
          "name": "C3",
          "midi": 48,
          "time": 554.7458333333424,
          "velocity": 1,
          "duration": 0.125
        },
        {
          "name": "C3",
          "midi": 48,
          "time": 554.7458333333424,
          "velocity": 1,
          "duration": 0.125
        },
        {
          "name": "C2",
          "midi": 36,
          "time": 554.7458333333424,
          "velocity": 1,
          "duration": 0.125
        },
        {
          "name": "C3",
          "midi": 48,
          "time": 554.8708333333424,
          "velocity": 1,
          "duration": 0.125
        },
        {
          "name": "C3",
          "midi": 48,
          "time": 554.8708333333424,
          "velocity": 1,
          "duration": 0.125
        },
        {
          "name": "C2",
          "midi": 36,
          "time": 554.8708333333424,
          "velocity": 1,
          "duration": 0.125
        },
        {
          "name": "C3",
          "midi": 48,
          "time": 554.9958333333424,
          "velocity": 1,
          "duration": 0.25
        },
        {
          "name": "C3",
          "midi": 48,
          "time": 554.9958333333424,
          "velocity": 1,
          "duration": 0.25
        },
        {
          "name": "C2",
          "midi": 36,
          "time": 554.9958333333424,
          "velocity": 1,
          "duration": 0.25
        },
        {
          "name": "B2",
          "midi": 47,
          "time": 555.2458333333424,
          "velocity": 1,
          "duration": 0.25
        },
        {
          "name": "B2",
          "midi": 47,
          "time": 555.2458333333424,
          "velocity": 1,
          "duration": 0.25
        },
        {
          "name": "B1",
          "midi": 35,
          "time": 555.2458333333424,
          "velocity": 1,
          "duration": 0.25
        },
        {
          "name": "C3",
          "midi": 48,
          "time": 555.4958333333424,
          "velocity": 1,
          "duration": 0.25
        },
        {
          "name": "C3",
          "midi": 48,
          "time": 555.4958333333424,
          "velocity": 1,
          "duration": 0.25
        },
        {
          "name": "C2",
          "midi": 36,
          "time": 555.4958333333424,
          "velocity": 1,
          "duration": 0.25
        },
        {
          "name": "D3",
          "midi": 50,
          "time": 555.7458333333424,
          "velocity": 1,
          "duration": 0.25
        },
        {
          "name": "D3",
          "midi": 50,
          "time": 555.7458333333424,
          "velocity": 1,
          "duration": 0.25
        },
        {
          "name": "D2",
          "midi": 38,
          "time": 555.7458333333424,
          "velocity": 1,
          "duration": 0.25
        },
        {
          "name": "C3",
          "midi": 48,
          "time": 555.9958333333424,
          "velocity": 1,
          "duration": 0.25
        },
        {
          "name": "C3",
          "midi": 48,
          "time": 555.9958333333424,
          "velocity": 1,
          "duration": 0.25
        },
        {
          "name": "C2",
          "midi": 36,
          "time": 555.9958333333424,
          "velocity": 1,
          "duration": 0.25
        },
        {
          "name": "B2",
          "midi": 47,
          "time": 556.2458333333424,
          "velocity": 1,
          "duration": 0.25
        },
        {
          "name": "B2",
          "midi": 47,
          "time": 556.2458333333424,
          "velocity": 1,
          "duration": 0.25
        },
        {
          "name": "B1",
          "midi": 35,
          "time": 556.2458333333424,
          "velocity": 1,
          "duration": 0.25
        },
        {
          "name": "G2",
          "midi": 43,
          "time": 556.4958333333424,
          "velocity": 1,
          "duration": 0.25
        },
        {
          "name": "G2",
          "midi": 43,
          "time": 556.4958333333424,
          "velocity": 1,
          "duration": 0.25
        },
        {
          "name": "G1",
          "midi": 31,
          "time": 556.4958333333424,
          "velocity": 1,
          "duration": 0.25
        },
        {
          "name": "F#2",
          "midi": 42,
          "time": 556.7458333333424,
          "velocity": 1,
          "duration": 0.25
        },
        {
          "name": "F#2",
          "midi": 42,
          "time": 556.7458333333424,
          "velocity": 1,
          "duration": 0.25
        },
        {
          "name": "F#1",
          "midi": 30,
          "time": 556.7458333333424,
          "velocity": 1,
          "duration": 0.25
        },
        {
          "name": "E2",
          "midi": 40,
          "time": 556.9958333333424,
          "velocity": 1,
          "duration": 0.25
        },
        {
          "name": "E2",
          "midi": 40,
          "time": 556.9958333333424,
          "velocity": 1,
          "duration": 0.25
        },
        {
          "name": "E1",
          "midi": 28,
          "time": 556.9958333333424,
          "velocity": 1,
          "duration": 0.25
        },
        {
          "name": "E2",
          "midi": 40,
          "time": 557.2458333333424,
          "velocity": 1,
          "duration": 0.25
        },
        {
          "name": "E2",
          "midi": 40,
          "time": 557.2458333333424,
          "velocity": 1,
          "duration": 0.25
        },
        {
          "name": "E1",
          "midi": 28,
          "time": 557.2458333333424,
          "velocity": 1,
          "duration": 0.25
        },
        {
          "name": "E2",
          "midi": 40,
          "time": 557.4958333333424,
          "velocity": 1,
          "duration": 0.25
        },
        {
          "name": "E2",
          "midi": 40,
          "time": 557.4958333333424,
          "velocity": 1,
          "duration": 0.25
        },
        {
          "name": "E1",
          "midi": 28,
          "time": 557.4958333333424,
          "velocity": 1,
          "duration": 0.25
        },
        {
          "name": "E2",
          "midi": 40,
          "time": 557.7458333333424,
          "velocity": 1,
          "duration": 0.25
        },
        {
          "name": "E2",
          "midi": 40,
          "time": 557.7458333333424,
          "velocity": 1,
          "duration": 0.25
        },
        {
          "name": "E1",
          "midi": 28,
          "time": 557.7458333333424,
          "velocity": 1,
          "duration": 0.25
        },
        {
          "name": "E2",
          "midi": 40,
          "time": 557.9958333333424,
          "velocity": 1,
          "duration": 0.25
        },
        {
          "name": "E2",
          "midi": 40,
          "time": 557.9958333333424,
          "velocity": 1,
          "duration": 0.25
        },
        {
          "name": "E1",
          "midi": 28,
          "time": 557.9958333333424,
          "velocity": 1,
          "duration": 0.25
        },
        {
          "name": "E2",
          "midi": 40,
          "time": 558.2458333333424,
          "velocity": 1,
          "duration": 0.25
        },
        {
          "name": "E2",
          "midi": 40,
          "time": 558.2458333333424,
          "velocity": 1,
          "duration": 0.25
        },
        {
          "name": "E1",
          "midi": 28,
          "time": 558.2458333333424,
          "velocity": 1,
          "duration": 0.25
        },
        {
          "name": "E2",
          "midi": 40,
          "time": 558.4958333333424,
          "velocity": 1,
          "duration": 0.25
        },
        {
          "name": "E2",
          "midi": 40,
          "time": 558.4958333333424,
          "velocity": 1,
          "duration": 0.25
        },
        {
          "name": "E1",
          "midi": 28,
          "time": 558.4958333333424,
          "velocity": 1,
          "duration": 0.25
        },
        {
          "name": "E2",
          "midi": 40,
          "time": 558.7458333333424,
          "velocity": 1,
          "duration": 0.125
        },
        {
          "name": "E2",
          "midi": 40,
          "time": 558.7458333333424,
          "velocity": 1,
          "duration": 0.125
        },
        {
          "name": "E1",
          "midi": 28,
          "time": 558.7458333333424,
          "velocity": 1,
          "duration": 0.125
        },
        {
          "name": "E2",
          "midi": 40,
          "time": 558.9958333333424,
          "velocity": 1,
          "duration": 0.25
        },
        {
          "name": "E2",
          "midi": 40,
          "time": 558.9958333333424,
          "velocity": 1,
          "duration": 0.25
        },
        {
          "name": "E1",
          "midi": 28,
          "time": 558.9958333333424,
          "velocity": 1,
          "duration": 0.25
        },
        {
          "name": "F#2",
          "midi": 42,
          "time": 559.2458333333424,
          "velocity": 1,
          "duration": 0.25
        },
        {
          "name": "F#2",
          "midi": 42,
          "time": 559.2458333333424,
          "velocity": 1,
          "duration": 0.25
        },
        {
          "name": "F#1",
          "midi": 30,
          "time": 559.2458333333424,
          "velocity": 1,
          "duration": 0.25
        },
        {
          "name": "G2",
          "midi": 43,
          "time": 559.4958333333424,
          "velocity": 1,
          "duration": 0.25
        },
        {
          "name": "G2",
          "midi": 43,
          "time": 559.4958333333424,
          "velocity": 1,
          "duration": 0.25
        },
        {
          "name": "G1",
          "midi": 31,
          "time": 559.4958333333424,
          "velocity": 1,
          "duration": 0.25
        },
        {
          "name": "A2",
          "midi": 45,
          "time": 559.7458333333424,
          "velocity": 1,
          "duration": 0.25
        },
        {
          "name": "A2",
          "midi": 45,
          "time": 559.7458333333424,
          "velocity": 1,
          "duration": 0.25
        },
        {
          "name": "A1",
          "midi": 33,
          "time": 559.7458333333424,
          "velocity": 1,
          "duration": 0.25
        },
        {
          "name": "B2",
          "midi": 47,
          "time": 559.9958333333424,
          "velocity": 1,
          "duration": 0.25
        },
        {
          "name": "B2",
          "midi": 47,
          "time": 559.9958333333424,
          "velocity": 1,
          "duration": 0.25
        },
        {
          "name": "B1",
          "midi": 35,
          "time": 559.9958333333424,
          "velocity": 1,
          "duration": 0.25
        },
        {
          "name": "C3",
          "midi": 48,
          "time": 560.2458333333424,
          "velocity": 1,
          "duration": 0.25
        },
        {
          "name": "C3",
          "midi": 48,
          "time": 560.2458333333424,
          "velocity": 1,
          "duration": 0.25
        },
        {
          "name": "C2",
          "midi": 36,
          "time": 560.2458333333424,
          "velocity": 1,
          "duration": 0.25
        },
        {
          "name": "D3",
          "midi": 50,
          "time": 560.4958333333424,
          "velocity": 1,
          "duration": 0.25
        },
        {
          "name": "D3",
          "midi": 50,
          "time": 560.4958333333424,
          "velocity": 1,
          "duration": 0.25
        },
        {
          "name": "D2",
          "midi": 38,
          "time": 560.4958333333424,
          "velocity": 1,
          "duration": 0.25
        },
        {
          "name": "E3",
          "midi": 52,
          "time": 560.7458333333424,
          "velocity": 1,
          "duration": 0.25
        },
        {
          "name": "E3",
          "midi": 52,
          "time": 560.7458333333424,
          "velocity": 1,
          "duration": 0.25
        },
        {
          "name": "E2",
          "midi": 40,
          "time": 560.7458333333424,
          "velocity": 1,
          "duration": 0.25
        },
        {
          "name": "F#3",
          "midi": 54,
          "time": 560.9958333333424,
          "velocity": 1,
          "duration": 0.25
        },
        {
          "name": "F#3",
          "midi": 54,
          "time": 560.9958333333424,
          "velocity": 1,
          "duration": 0.25
        },
        {
          "name": "F#2",
          "midi": 42,
          "time": 560.9958333333424,
          "velocity": 1,
          "duration": 0.25
        },
        {
          "name": "G3",
          "midi": 55,
          "time": 561.2458333333424,
          "velocity": 1,
          "duration": 0.25
        },
        {
          "name": "G3",
          "midi": 55,
          "time": 561.2458333333424,
          "velocity": 1,
          "duration": 0.25
        },
        {
          "name": "G2",
          "midi": 43,
          "time": 561.2458333333424,
          "velocity": 1,
          "duration": 0.25
        },
        {
          "name": "C3",
          "midi": 48,
          "time": 561.4958333333424,
          "velocity": 1,
          "duration": 1.25
        },
        {
          "name": "C3",
          "midi": 48,
          "time": 561.4958333333424,
          "velocity": 1,
          "duration": 1.25
        },
        {
          "name": "C2",
          "midi": 36,
          "time": 561.4958333333424,
          "velocity": 1,
          "duration": 1.25
        },
        {
          "name": "C3",
          "midi": 48,
          "time": 562.7458333333424,
          "velocity": 1,
          "duration": 0.125
        },
        {
          "name": "C3",
          "midi": 48,
          "time": 562.7458333333424,
          "velocity": 1,
          "duration": 0.125
        },
        {
          "name": "C2",
          "midi": 36,
          "time": 562.7458333333424,
          "velocity": 1,
          "duration": 0.125
        },
        {
          "name": "C3",
          "midi": 48,
          "time": 562.8708333333424,
          "velocity": 1,
          "duration": 0.125
        },
        {
          "name": "C3",
          "midi": 48,
          "time": 562.8708333333424,
          "velocity": 1,
          "duration": 0.125
        },
        {
          "name": "C2",
          "midi": 36,
          "time": 562.8708333333424,
          "velocity": 1,
          "duration": 0.125
        },
        {
          "name": "C3",
          "midi": 48,
          "time": 562.9958333333424,
          "velocity": 1,
          "duration": 0.25
        },
        {
          "name": "C3",
          "midi": 48,
          "time": 562.9958333333424,
          "velocity": 1,
          "duration": 0.25
        },
        {
          "name": "C2",
          "midi": 36,
          "time": 562.9958333333424,
          "velocity": 1,
          "duration": 0.25
        },
        {
          "name": "B2",
          "midi": 47,
          "time": 563.2458333333424,
          "velocity": 1,
          "duration": 0.25
        },
        {
          "name": "B2",
          "midi": 47,
          "time": 563.2458333333424,
          "velocity": 1,
          "duration": 0.25
        },
        {
          "name": "B1",
          "midi": 35,
          "time": 563.2458333333424,
          "velocity": 1,
          "duration": 0.25
        },
        {
          "name": "C3",
          "midi": 48,
          "time": 563.4958333333424,
          "velocity": 1,
          "duration": 0.25
        },
        {
          "name": "C3",
          "midi": 48,
          "time": 563.4958333333424,
          "velocity": 1,
          "duration": 0.25
        },
        {
          "name": "C2",
          "midi": 36,
          "time": 563.4958333333424,
          "velocity": 1,
          "duration": 0.25
        },
        {
          "name": "D3",
          "midi": 50,
          "time": 563.7458333333424,
          "velocity": 1,
          "duration": 0.25
        },
        {
          "name": "D3",
          "midi": 50,
          "time": 563.7458333333424,
          "velocity": 1,
          "duration": 0.25
        },
        {
          "name": "D2",
          "midi": 38,
          "time": 563.7458333333424,
          "velocity": 1,
          "duration": 0.25
        },
        {
          "name": "C3",
          "midi": 48,
          "time": 563.9958333333424,
          "velocity": 1,
          "duration": 0.25
        },
        {
          "name": "C3",
          "midi": 48,
          "time": 563.9958333333424,
          "velocity": 1,
          "duration": 0.25
        },
        {
          "name": "C2",
          "midi": 36,
          "time": 563.9958333333424,
          "velocity": 1,
          "duration": 0.25
        },
        {
          "name": "B2",
          "midi": 47,
          "time": 564.2458333333424,
          "velocity": 1,
          "duration": 0.25
        },
        {
          "name": "B2",
          "midi": 47,
          "time": 564.2458333333424,
          "velocity": 1,
          "duration": 0.25
        },
        {
          "name": "B1",
          "midi": 35,
          "time": 564.2458333333424,
          "velocity": 1,
          "duration": 0.25
        },
        {
          "name": "G2",
          "midi": 43,
          "time": 564.4958333333424,
          "velocity": 1,
          "duration": 0.25
        },
        {
          "name": "G2",
          "midi": 43,
          "time": 564.4958333333424,
          "velocity": 1,
          "duration": 0.25
        },
        {
          "name": "G1",
          "midi": 31,
          "time": 564.4958333333424,
          "velocity": 1,
          "duration": 0.25
        },
        {
          "name": "F#2",
          "midi": 42,
          "time": 564.7458333333424,
          "velocity": 1,
          "duration": 0.25
        },
        {
          "name": "F#2",
          "midi": 42,
          "time": 564.7458333333424,
          "velocity": 1,
          "duration": 0.25
        },
        {
          "name": "F#1",
          "midi": 30,
          "time": 564.7458333333424,
          "velocity": 1,
          "duration": 0.25
        },
        {
          "name": "E2",
          "midi": 40,
          "time": 564.9958333333424,
          "velocity": 1,
          "duration": 0.25
        },
        {
          "name": "E2",
          "midi": 40,
          "time": 564.9958333333424,
          "velocity": 1,
          "duration": 0.25
        },
        {
          "name": "E1",
          "midi": 28,
          "time": 564.9958333333424,
          "velocity": 1,
          "duration": 0.25
        },
        {
          "name": "E2",
          "midi": 40,
          "time": 565.2458333333424,
          "velocity": 1,
          "duration": 0.25
        },
        {
          "name": "E2",
          "midi": 40,
          "time": 565.2458333333424,
          "velocity": 1,
          "duration": 0.25
        },
        {
          "name": "E1",
          "midi": 28,
          "time": 565.2458333333424,
          "velocity": 1,
          "duration": 0.25
        },
        {
          "name": "E2",
          "midi": 40,
          "time": 565.4958333333424,
          "velocity": 1,
          "duration": 0.25
        },
        {
          "name": "E2",
          "midi": 40,
          "time": 565.4958333333424,
          "velocity": 1,
          "duration": 0.25
        },
        {
          "name": "E1",
          "midi": 28,
          "time": 565.4958333333424,
          "velocity": 1,
          "duration": 0.25
        },
        {
          "name": "E2",
          "midi": 40,
          "time": 565.7458333333424,
          "velocity": 1,
          "duration": 0.25
        },
        {
          "name": "E2",
          "midi": 40,
          "time": 565.7458333333424,
          "velocity": 1,
          "duration": 0.25
        },
        {
          "name": "E1",
          "midi": 28,
          "time": 565.7458333333424,
          "velocity": 1,
          "duration": 0.25
        },
        {
          "name": "E2",
          "midi": 40,
          "time": 565.9958333333424,
          "velocity": 1,
          "duration": 0.25
        },
        {
          "name": "E2",
          "midi": 40,
          "time": 565.9958333333424,
          "velocity": 1,
          "duration": 0.25
        },
        {
          "name": "E1",
          "midi": 28,
          "time": 565.9958333333424,
          "velocity": 1,
          "duration": 0.25
        },
        {
          "name": "E2",
          "midi": 40,
          "time": 566.2458333333424,
          "velocity": 1,
          "duration": 0.25
        },
        {
          "name": "E2",
          "midi": 40,
          "time": 566.2458333333424,
          "velocity": 1,
          "duration": 0.25
        },
        {
          "name": "E1",
          "midi": 28,
          "time": 566.2458333333424,
          "velocity": 1,
          "duration": 0.25
        },
        {
          "name": "E2",
          "midi": 40,
          "time": 566.4958333333424,
          "velocity": 1,
          "duration": 0.25
        },
        {
          "name": "E2",
          "midi": 40,
          "time": 566.4958333333424,
          "velocity": 1,
          "duration": 0.25
        },
        {
          "name": "E1",
          "midi": 28,
          "time": 566.4958333333424,
          "velocity": 1,
          "duration": 0.25
        },
        {
          "name": "E2",
          "midi": 40,
          "time": 566.7458333333424,
          "velocity": 1,
          "duration": 0.125
        },
        {
          "name": "E2",
          "midi": 40,
          "time": 566.7458333333424,
          "velocity": 1,
          "duration": 0.125
        },
        {
          "name": "E1",
          "midi": 28,
          "time": 566.7458333333424,
          "velocity": 1,
          "duration": 0.125
        },
        {
          "name": "E2",
          "midi": 40,
          "time": 566.8708333333424,
          "velocity": 1,
          "duration": 0.125
        },
        {
          "name": "E2",
          "midi": 40,
          "time": 566.8708333333424,
          "velocity": 1,
          "duration": 0.125
        },
        {
          "name": "E2",
          "midi": 40,
          "time": 566.8708333333424,
          "velocity": 1,
          "duration": 0.125
        },
        {
          "name": "E2",
          "midi": 40,
          "time": 566.8708333333424,
          "velocity": 1,
          "duration": 0.125
        },
        {
          "name": "E1",
          "midi": 28,
          "time": 566.8708333333424,
          "velocity": 1,
          "duration": 0.125
        },
        {
          "name": "E1",
          "midi": 28,
          "time": 566.8708333333424,
          "velocity": 1,
          "duration": 0.125
        },
        {
          "name": "E2",
          "midi": 40,
          "time": 566.9958333333424,
          "velocity": 1,
          "duration": 0.25
        },
        {
          "name": "E2",
          "midi": 40,
          "time": 566.9958333333424,
          "velocity": 1,
          "duration": 0.25
        },
        {
          "name": "E1",
          "midi": 28,
          "time": 566.9958333333424,
          "velocity": 1,
          "duration": 0.25
        },
        {
          "name": "F#2",
          "midi": 42,
          "time": 567.2458333333424,
          "velocity": 1,
          "duration": 0.25
        },
        {
          "name": "F#2",
          "midi": 42,
          "time": 567.2458333333424,
          "velocity": 1,
          "duration": 0.25
        },
        {
          "name": "F#1",
          "midi": 30,
          "time": 567.2458333333424,
          "velocity": 1,
          "duration": 0.25
        },
        {
          "name": "G2",
          "midi": 43,
          "time": 567.4958333333424,
          "velocity": 1,
          "duration": 0.25
        },
        {
          "name": "G2",
          "midi": 43,
          "time": 567.4958333333424,
          "velocity": 1,
          "duration": 0.25
        },
        {
          "name": "G1",
          "midi": 31,
          "time": 567.4958333333424,
          "velocity": 1,
          "duration": 0.25
        },
        {
          "name": "A2",
          "midi": 45,
          "time": 567.7458333333424,
          "velocity": 1,
          "duration": 0.25
        },
        {
          "name": "A2",
          "midi": 45,
          "time": 567.7458333333424,
          "velocity": 1,
          "duration": 0.25
        },
        {
          "name": "A1",
          "midi": 33,
          "time": 567.7458333333424,
          "velocity": 1,
          "duration": 0.25
        },
        {
          "name": "B2",
          "midi": 47,
          "time": 567.9958333333424,
          "velocity": 1,
          "duration": 0.25
        },
        {
          "name": "B2",
          "midi": 47,
          "time": 567.9958333333424,
          "velocity": 1,
          "duration": 0.25
        },
        {
          "name": "C3",
          "midi": 48,
          "time": 568.2458333333424,
          "velocity": 1,
          "duration": 0.25
        },
        {
          "name": "C3",
          "midi": 48,
          "time": 568.2458333333424,
          "velocity": 1,
          "duration": 0.25
        },
        {
          "name": "D3",
          "midi": 50,
          "time": 568.4958333333424,
          "velocity": 1,
          "duration": 0.25
        },
        {
          "name": "F#3",
          "midi": 54,
          "time": 568.4958333333424,
          "velocity": 1,
          "duration": 0.25
        },
        {
          "name": "F#2",
          "midi": 42,
          "time": 568.4958333333424,
          "velocity": 1,
          "duration": 0.25
        },
        {
          "name": "E3",
          "midi": 52,
          "time": 568.7458333333424,
          "velocity": 1,
          "duration": 0.25
        },
        {
          "name": "G3",
          "midi": 55,
          "time": 568.7458333333424,
          "velocity": 1,
          "duration": 0.25
        },
        {
          "name": "G2",
          "midi": 43,
          "time": 568.7458333333424,
          "velocity": 1,
          "duration": 0.25
        },
        {
          "name": "F#3",
          "midi": 54,
          "time": 568.9958333333424,
          "velocity": 1,
          "duration": 0.25
        },
        {
          "name": "A3",
          "midi": 57,
          "time": 568.9958333333424,
          "velocity": 1,
          "duration": 0.25
        },
        {
          "name": "F#2",
          "midi": 42,
          "time": 568.9958333333424,
          "velocity": 1,
          "duration": 0.25
        },
        {
          "name": "G3",
          "midi": 55,
          "time": 569.2458333333424,
          "velocity": 1,
          "duration": 0.25
        },
        {
          "name": "B3",
          "midi": 59,
          "time": 569.2458333333424,
          "velocity": 1,
          "duration": 0.25
        },
        {
          "name": "G2",
          "midi": 43,
          "time": 569.2458333333424,
          "velocity": 1,
          "duration": 0.25
        },
        {
          "name": "C3",
          "midi": 48,
          "time": 569.4958333333424,
          "velocity": 1,
          "duration": 1.25
        },
        {
          "name": "E3",
          "midi": 52,
          "time": 569.4958333333424,
          "velocity": 1,
          "duration": 1.25
        },
        {
          "name": "C2",
          "midi": 36,
          "time": 569.4958333333424,
          "velocity": 1,
          "duration": 1.25
        },
        {
          "name": "C3",
          "midi": 48,
          "time": 570.7458333333424,
          "velocity": 1,
          "duration": 0.125
        },
        {
          "name": "E3",
          "midi": 52,
          "time": 570.7458333333424,
          "velocity": 1,
          "duration": 0.125
        },
        {
          "name": "C2",
          "midi": 36,
          "time": 570.7458333333424,
          "velocity": 1,
          "duration": 0.125
        },
        {
          "name": "C3",
          "midi": 48,
          "time": 570.8708333333424,
          "velocity": 1,
          "duration": 0.125
        },
        {
          "name": "E3",
          "midi": 52,
          "time": 570.8708333333424,
          "velocity": 1,
          "duration": 0.125
        },
        {
          "name": "C2",
          "midi": 36,
          "time": 570.8708333333424,
          "velocity": 1,
          "duration": 0.125
        },
        {
          "name": "C3",
          "midi": 48,
          "time": 570.9958333333424,
          "velocity": 1,
          "duration": 0.25
        },
        {
          "name": "E3",
          "midi": 52,
          "time": 570.9958333333424,
          "velocity": 1,
          "duration": 0.25
        },
        {
          "name": "C2",
          "midi": 36,
          "time": 570.9958333333424,
          "velocity": 1,
          "duration": 0.25
        },
        {
          "name": "B2",
          "midi": 47,
          "time": 571.2458333333424,
          "velocity": 1,
          "duration": 0.25
        },
        {
          "name": "D3",
          "midi": 50,
          "time": 571.2458333333424,
          "velocity": 1,
          "duration": 0.25
        },
        {
          "name": "B1",
          "midi": 35,
          "time": 571.2458333333424,
          "velocity": 1,
          "duration": 0.25
        },
        {
          "name": "C3",
          "midi": 48,
          "time": 571.4958333333424,
          "velocity": 1,
          "duration": 0.25
        },
        {
          "name": "E3",
          "midi": 52,
          "time": 571.4958333333424,
          "velocity": 1,
          "duration": 0.25
        },
        {
          "name": "C2",
          "midi": 36,
          "time": 571.4958333333424,
          "velocity": 1,
          "duration": 0.25
        },
        {
          "name": "D3",
          "midi": 50,
          "time": 571.7458333333424,
          "velocity": 1,
          "duration": 0.25
        },
        {
          "name": "F#3",
          "midi": 54,
          "time": 571.7458333333424,
          "velocity": 1,
          "duration": 0.25
        },
        {
          "name": "D2",
          "midi": 38,
          "time": 571.7458333333424,
          "velocity": 1,
          "duration": 0.25
        },
        {
          "name": "C3",
          "midi": 48,
          "time": 571.9958333333424,
          "velocity": 1,
          "duration": 0.25
        },
        {
          "name": "E3",
          "midi": 52,
          "time": 571.9958333333424,
          "velocity": 1,
          "duration": 0.25
        },
        {
          "name": "C2",
          "midi": 36,
          "time": 571.9958333333424,
          "velocity": 1,
          "duration": 0.25
        },
        {
          "name": "B2",
          "midi": 47,
          "time": 572.2458333333424,
          "velocity": 1,
          "duration": 0.25
        },
        {
          "name": "D3",
          "midi": 50,
          "time": 572.2458333333424,
          "velocity": 1,
          "duration": 0.25
        },
        {
          "name": "B1",
          "midi": 35,
          "time": 572.2458333333424,
          "velocity": 1,
          "duration": 0.25
        },
        {
          "name": "G2",
          "midi": 43,
          "time": 572.4958333333424,
          "velocity": 1,
          "duration": 0.25
        },
        {
          "name": "C3",
          "midi": 48,
          "time": 572.4958333333424,
          "velocity": 1,
          "duration": 0.25
        },
        {
          "name": "G1",
          "midi": 31,
          "time": 572.4958333333424,
          "velocity": 1,
          "duration": 0.25
        },
        {
          "name": "F#2",
          "midi": 42,
          "time": 572.7458333333424,
          "velocity": 1,
          "duration": 0.25
        },
        {
          "name": "B2",
          "midi": 47,
          "time": 572.7458333333424,
          "velocity": 1,
          "duration": 0.25
        },
        {
          "name": "F#1",
          "midi": 30,
          "time": 572.7458333333424,
          "velocity": 1,
          "duration": 0.25
        },
        {
          "name": "E2",
          "midi": 40,
          "time": 572.9958333333424,
          "velocity": 1,
          "duration": 0.25
        },
        {
          "name": "E2",
          "midi": 40,
          "time": 572.9958333333424,
          "velocity": 1,
          "duration": 0.25
        },
        {
          "name": "E2",
          "midi": 40,
          "time": 573.2458333333424,
          "velocity": 1,
          "duration": 0.25
        },
        {
          "name": "E2",
          "midi": 40,
          "time": 573.2458333333424,
          "velocity": 1,
          "duration": 0.25
        },
        {
          "name": "E2",
          "midi": 40,
          "time": 573.4958333333424,
          "velocity": 1,
          "duration": 0.25
        },
        {
          "name": "E2",
          "midi": 40,
          "time": 573.4958333333424,
          "velocity": 1,
          "duration": 0.25
        },
        {
          "name": "E2",
          "midi": 40,
          "time": 573.7458333333424,
          "velocity": 1,
          "duration": 0.25
        },
        {
          "name": "E2",
          "midi": 40,
          "time": 573.7458333333424,
          "velocity": 1,
          "duration": 0.25
        },
        {
          "name": "E2",
          "midi": 40,
          "time": 573.9958333333424,
          "velocity": 1,
          "duration": 0.25
        },
        {
          "name": "E2",
          "midi": 40,
          "time": 573.9958333333424,
          "velocity": 1,
          "duration": 0.25
        },
        {
          "name": "E2",
          "midi": 40,
          "time": 574.2458333333424,
          "velocity": 1,
          "duration": 0.25
        },
        {
          "name": "E2",
          "midi": 40,
          "time": 574.2458333333424,
          "velocity": 1,
          "duration": 0.25
        },
        {
          "name": "E2",
          "midi": 40,
          "time": 574.4958333333424,
          "velocity": 1,
          "duration": 0.25
        },
        {
          "name": "E2",
          "midi": 40,
          "time": 574.4958333333424,
          "velocity": 1,
          "duration": 0.25
        },
        {
          "name": "E2",
          "midi": 40,
          "time": 574.7458333333424,
          "velocity": 1,
          "duration": 0.125
        },
        {
          "name": "E2",
          "midi": 40,
          "time": 574.7458333333424,
          "velocity": 1,
          "duration": 0.125
        },
        {
          "name": "E2",
          "midi": 40,
          "time": 574.8708333333424,
          "velocity": 1,
          "duration": 0.125
        },
        {
          "name": "E2",
          "midi": 40,
          "time": 574.8708333333424,
          "velocity": 1,
          "duration": 0.125
        },
        {
          "name": "E2",
          "midi": 40,
          "time": 574.9958333333424,
          "velocity": 1,
          "duration": 0.25
        },
        {
          "name": "E2",
          "midi": 40,
          "time": 574.9958333333424,
          "velocity": 1,
          "duration": 0.25
        },
        {
          "name": "F#2",
          "midi": 42,
          "time": 575.2458333333424,
          "velocity": 1,
          "duration": 0.25
        },
        {
          "name": "F#2",
          "midi": 42,
          "time": 575.2458333333424,
          "velocity": 1,
          "duration": 0.25
        },
        {
          "name": "G2",
          "midi": 43,
          "time": 575.4958333333424,
          "velocity": 1,
          "duration": 0.25
        },
        {
          "name": "G2",
          "midi": 43,
          "time": 575.4958333333424,
          "velocity": 1,
          "duration": 0.25
        },
        {
          "name": "A2",
          "midi": 45,
          "time": 575.7458333333424,
          "velocity": 1,
          "duration": 0.25
        },
        {
          "name": "A2",
          "midi": 45,
          "time": 575.7458333333424,
          "velocity": 1,
          "duration": 0.25
        },
        {
          "name": "B2",
          "midi": 47,
          "time": 575.9958333333424,
          "velocity": 1,
          "duration": 0.25
        },
        {
          "name": "B2",
          "midi": 47,
          "time": 575.9958333333424,
          "velocity": 1,
          "duration": 0.25
        },
        {
          "name": "C3",
          "midi": 48,
          "time": 576.2458333333424,
          "velocity": 1,
          "duration": 0.25
        },
        {
          "name": "C3",
          "midi": 48,
          "time": 576.2458333333424,
          "velocity": 1,
          "duration": 0.25
        },
        {
          "name": "D3",
          "midi": 50,
          "time": 576.4958333333424,
          "velocity": 1,
          "duration": 0.25
        },
        {
          "name": "F#3",
          "midi": 54,
          "time": 576.4958333333424,
          "velocity": 1,
          "duration": 0.25
        },
        {
          "name": "D2",
          "midi": 38,
          "time": 576.4958333333424,
          "velocity": 1,
          "duration": 0.25
        },
        {
          "name": "E3",
          "midi": 52,
          "time": 576.7458333333424,
          "velocity": 1,
          "duration": 0.25
        },
        {
          "name": "G3",
          "midi": 55,
          "time": 576.7458333333424,
          "velocity": 1,
          "duration": 0.25
        },
        {
          "name": "E2",
          "midi": 40,
          "time": 576.7458333333424,
          "velocity": 1,
          "duration": 0.25
        },
        {
          "name": "F#3",
          "midi": 54,
          "time": 576.9958333333424,
          "velocity": 1,
          "duration": 0.25
        },
        {
          "name": "A3",
          "midi": 57,
          "time": 576.9958333333424,
          "velocity": 1,
          "duration": 0.25
        },
        {
          "name": "F#2",
          "midi": 42,
          "time": 576.9958333333424,
          "velocity": 1,
          "duration": 0.25
        },
        {
          "name": "G3",
          "midi": 55,
          "time": 577.2458333333424,
          "velocity": 1,
          "duration": 0.25
        },
        {
          "name": "B3",
          "midi": 59,
          "time": 577.2458333333424,
          "velocity": 1,
          "duration": 0.25
        },
        {
          "name": "G2",
          "midi": 43,
          "time": 577.2458333333424,
          "velocity": 1,
          "duration": 0.25
        },
        {
          "name": "G3",
          "midi": 55,
          "time": 577.4958333333424,
          "velocity": 1,
          "duration": 1.25
        },
        {
          "name": "C3",
          "midi": 48,
          "time": 577.4958333333424,
          "velocity": 1,
          "duration": 1.25
        },
        {
          "name": "C4",
          "midi": 60,
          "time": 577.4958333333424,
          "velocity": 1,
          "duration": 1.25
        },
        {
          "name": "E4",
          "midi": 64,
          "time": 577.4958333333424,
          "velocity": 1,
          "duration": 1.25
        },
        {
          "name": "E4",
          "midi": 64,
          "time": 577.4958333333424,
          "velocity": 1,
          "duration": 1.25
        },
        {
          "name": "C4",
          "midi": 60,
          "time": 577.4958333333424,
          "velocity": 1,
          "duration": 1.25
        },
        {
          "name": "C3",
          "midi": 48,
          "time": 577.4958333333424,
          "velocity": 1,
          "duration": 1.25
        },
        {
          "name": "G3",
          "midi": 55,
          "time": 577.4958333333424,
          "velocity": 1,
          "duration": 1.25
        },
        {
          "name": "C3",
          "midi": 48,
          "time": 577.4958333333424,
          "velocity": 1,
          "duration": 1.25
        },
        {
          "name": "G2",
          "midi": 43,
          "time": 577.4958333333424,
          "velocity": 1,
          "duration": 1.25
        },
        {
          "name": "C2",
          "midi": 36,
          "time": 577.4958333333424,
          "velocity": 1,
          "duration": 1.25
        },
        {
          "name": "E3",
          "midi": 52,
          "time": 577.4958333333424,
          "velocity": 1,
          "duration": 1.25
        },
        {
          "name": "C3",
          "midi": 48,
          "time": 578.7458333333424,
          "velocity": 1,
          "duration": 0.125
        },
        {
          "name": "C3",
          "midi": 48,
          "time": 578.7458333333424,
          "velocity": 1,
          "duration": 0.125
        },
        {
          "name": "C2",
          "midi": 36,
          "time": 578.7458333333424,
          "velocity": 1,
          "duration": 0.125
        },
        {
          "name": "C3",
          "midi": 48,
          "time": 578.8708333333424,
          "velocity": 1,
          "duration": 0.125
        },
        {
          "name": "C3",
          "midi": 48,
          "time": 578.8708333333424,
          "velocity": 1,
          "duration": 0.125
        },
        {
          "name": "C2",
          "midi": 36,
          "time": 578.8708333333424,
          "velocity": 1,
          "duration": 0.125
        },
        {
          "name": "C3",
          "midi": 48,
          "time": 578.9958333333424,
          "velocity": 1,
          "duration": 0.25
        },
        {
          "name": "C3",
          "midi": 48,
          "time": 578.9958333333424,
          "velocity": 1,
          "duration": 0.25
        },
        {
          "name": "B2",
          "midi": 47,
          "time": 579.2458333333424,
          "velocity": 1,
          "duration": 0.25
        },
        {
          "name": "B2",
          "midi": 47,
          "time": 579.2458333333424,
          "velocity": 1,
          "duration": 0.25
        },
        {
          "name": "C3",
          "midi": 48,
          "time": 579.4958333333424,
          "velocity": 1,
          "duration": 0.25
        },
        {
          "name": "C3",
          "midi": 48,
          "time": 579.4958333333424,
          "velocity": 1,
          "duration": 0.25
        },
        {
          "name": "D3",
          "midi": 50,
          "time": 579.7458333333424,
          "velocity": 1,
          "duration": 0.25
        },
        {
          "name": "D3",
          "midi": 50,
          "time": 579.7458333333424,
          "velocity": 1,
          "duration": 0.25
        },
        {
          "name": "C3",
          "midi": 48,
          "time": 579.9958333333424,
          "velocity": 1,
          "duration": 0.25
        },
        {
          "name": "C3",
          "midi": 48,
          "time": 579.9958333333424,
          "velocity": 1,
          "duration": 0.25
        },
        {
          "name": "B2",
          "midi": 47,
          "time": 580.2458333333424,
          "velocity": 1,
          "duration": 0.25
        },
        {
          "name": "B2",
          "midi": 47,
          "time": 580.2458333333424,
          "velocity": 1,
          "duration": 0.25
        },
        {
          "name": "G2",
          "midi": 43,
          "time": 580.4958333333424,
          "velocity": 1,
          "duration": 0.25
        },
        {
          "name": "G2",
          "midi": 43,
          "time": 580.4958333333424,
          "velocity": 1,
          "duration": 0.25
        },
        {
          "name": "F#2",
          "midi": 42,
          "time": 580.7458333333424,
          "velocity": 1,
          "duration": 0.25
        },
        {
          "name": "F#2",
          "midi": 42,
          "time": 580.7458333333424,
          "velocity": 1,
          "duration": 0.25
        },
        {
          "name": "B2",
          "midi": 47,
          "time": 580.9958333333424,
          "velocity": 1,
          "duration": 1.75
        },
        {
          "name": "B3",
          "midi": 59,
          "time": 580.9958333333424,
          "velocity": 1,
          "duration": 1.75
        },
        {
          "name": "E3",
          "midi": 52,
          "time": 580.9958333333424,
          "velocity": 1,
          "duration": 1.75
        },
        {
          "name": "E2",
          "midi": 40,
          "time": 580.9958333333424,
          "velocity": 1,
          "duration": 1.75
        },
        {
          "name": "B2",
          "midi": 47,
          "time": 580.9958333333424,
          "velocity": 1,
          "duration": 1.75
        },
        {
          "name": "E3",
          "midi": 52,
          "time": 580.9958333333424,
          "velocity": 1,
          "duration": 1.75
        },
        {
          "name": "E2",
          "midi": 40,
          "time": 580.9958333333424,
          "velocity": 1,
          "duration": 1.75
        },
        {
          "name": "B3",
          "midi": 59,
          "time": 580.9958333333424,
          "velocity": 1,
          "duration": 1.75
        },
        {
          "name": "C3",
          "midi": 48,
          "time": 582.7458333333424,
          "velocity": 1,
          "duration": 0.125
        },
        {
          "name": "G3",
          "midi": 55,
          "time": 582.7458333333424,
          "velocity": 1,
          "duration": 0.125
        },
        {
          "name": "C3",
          "midi": 48,
          "time": 582.7458333333424,
          "velocity": 1,
          "duration": 0.125
        },
        {
          "name": "G3",
          "midi": 55,
          "time": 582.7458333333424,
          "velocity": 1,
          "duration": 0.125
        },
        {
          "name": "C3",
          "midi": 48,
          "time": 582.8708333333424,
          "velocity": 1,
          "duration": 0.125
        },
        {
          "name": "G3",
          "midi": 55,
          "time": 582.8708333333424,
          "velocity": 1,
          "duration": 0.125
        },
        {
          "name": "G3",
          "midi": 55,
          "time": 582.8708333333424,
          "velocity": 1,
          "duration": 0.125
        },
        {
          "name": "C3",
          "midi": 48,
          "time": 582.8708333333424,
          "velocity": 1,
          "duration": 0.125
        },
        {
          "name": "G3",
          "midi": 55,
          "time": 582.9958333333424,
          "velocity": 1,
          "duration": 0.25
        },
        {
          "name": "C3",
          "midi": 48,
          "time": 582.9958333333424,
          "velocity": 1,
          "duration": 0.25
        },
        {
          "name": "C3",
          "midi": 48,
          "time": 582.9958333333424,
          "velocity": 1,
          "duration": 0.25
        },
        {
          "name": "G3",
          "midi": 55,
          "time": 582.9958333333424,
          "velocity": 1,
          "duration": 0.25
        },
        {
          "name": "F#3",
          "midi": 54,
          "time": 583.2458333333424,
          "velocity": 1,
          "duration": 0.25
        },
        {
          "name": "B2",
          "midi": 47,
          "time": 583.2458333333424,
          "velocity": 1,
          "duration": 0.25
        },
        {
          "name": "F#3",
          "midi": 54,
          "time": 583.2458333333424,
          "velocity": 1,
          "duration": 0.25
        },
        {
          "name": "B2",
          "midi": 47,
          "time": 583.2458333333424,
          "velocity": 1,
          "duration": 0.25
        },
        {
          "name": "G3",
          "midi": 55,
          "time": 583.4958333333424,
          "velocity": 1,
          "duration": 0.25
        },
        {
          "name": "C3",
          "midi": 48,
          "time": 583.4958333333424,
          "velocity": 1,
          "duration": 0.25
        },
        {
          "name": "G3",
          "midi": 55,
          "time": 583.4958333333424,
          "velocity": 1,
          "duration": 0.25
        },
        {
          "name": "C3",
          "midi": 48,
          "time": 583.4958333333424,
          "velocity": 1,
          "duration": 0.25
        },
        {
          "name": "A3",
          "midi": 57,
          "time": 583.7458333333424,
          "velocity": 1,
          "duration": 0.25
        },
        {
          "name": "D3",
          "midi": 50,
          "time": 583.7458333333424,
          "velocity": 1,
          "duration": 0.25
        },
        {
          "name": "D3",
          "midi": 50,
          "time": 583.7458333333424,
          "velocity": 1,
          "duration": 0.25
        },
        {
          "name": "A3",
          "midi": 57,
          "time": 583.7458333333424,
          "velocity": 1,
          "duration": 0.25
        },
        {
          "name": "G3",
          "midi": 55,
          "time": 583.9958333333424,
          "velocity": 1,
          "duration": 0.25
        },
        {
          "name": "C3",
          "midi": 48,
          "time": 583.9958333333424,
          "velocity": 1,
          "duration": 0.25
        },
        {
          "name": "G3",
          "midi": 55,
          "time": 583.9958333333424,
          "velocity": 1,
          "duration": 0.25
        },
        {
          "name": "C3",
          "midi": 48,
          "time": 583.9958333333424,
          "velocity": 1,
          "duration": 0.25
        },
        {
          "name": "B2",
          "midi": 47,
          "time": 584.2458333333424,
          "velocity": 1,
          "duration": 0.25
        },
        {
          "name": "F#3",
          "midi": 54,
          "time": 584.2458333333424,
          "velocity": 1,
          "duration": 0.25
        },
        {
          "name": "B2",
          "midi": 47,
          "time": 584.2458333333424,
          "velocity": 1,
          "duration": 0.25
        },
        {
          "name": "F#3",
          "midi": 54,
          "time": 584.2458333333424,
          "velocity": 1,
          "duration": 0.25
        },
        {
          "name": "E3",
          "midi": 52,
          "time": 584.4958333333424,
          "velocity": 1,
          "duration": 0.25
        },
        {
          "name": "G2",
          "midi": 43,
          "time": 584.4958333333424,
          "velocity": 1,
          "duration": 0.25
        },
        {
          "name": "G2",
          "midi": 43,
          "time": 584.4958333333424,
          "velocity": 1,
          "duration": 0.25
        },
        {
          "name": "E3",
          "midi": 52,
          "time": 584.4958333333424,
          "velocity": 1,
          "duration": 0.25
        },
        {
          "name": "F#3",
          "midi": 54,
          "time": 584.7458333333424,
          "velocity": 1,
          "duration": 0.25
        },
        {
          "name": "F#2",
          "midi": 42,
          "time": 584.7458333333424,
          "velocity": 1,
          "duration": 0.25
        },
        {
          "name": "F#3",
          "midi": 54,
          "time": 584.7458333333424,
          "velocity": 1,
          "duration": 0.25
        },
        {
          "name": "F#2",
          "midi": 42,
          "time": 584.7458333333424,
          "velocity": 1,
          "duration": 0.25
        },
        {
          "name": "E2",
          "midi": 40,
          "time": 584.9958333333424,
          "velocity": 1,
          "duration": 0.25
        },
        {
          "name": "E2",
          "midi": 40,
          "time": 584.9958333333424,
          "velocity": 1,
          "duration": 0.25
        },
        {
          "name": "F2",
          "midi": 41,
          "time": 585.2458333333424,
          "velocity": 1,
          "duration": 0.25
        },
        {
          "name": "F2",
          "midi": 41,
          "time": 585.2458333333424,
          "velocity": 1,
          "duration": 0.25
        },
        {
          "name": "B2",
          "midi": 47,
          "time": 585.4958333333424,
          "velocity": 1,
          "duration": 0.25
        },
        {
          "name": "B2",
          "midi": 47,
          "time": 585.4958333333424,
          "velocity": 1,
          "duration": 0.25
        },
        {
          "name": "E2",
          "midi": 40,
          "time": 585.7458333333424,
          "velocity": 1,
          "duration": 0.25
        },
        {
          "name": "E2",
          "midi": 40,
          "time": 585.7458333333424,
          "velocity": 1,
          "duration": 0.25
        },
        {
          "name": "F2",
          "midi": 41,
          "time": 585.9958333333424,
          "velocity": 1,
          "duration": 0.25
        },
        {
          "name": "F2",
          "midi": 41,
          "time": 585.9958333333424,
          "velocity": 1,
          "duration": 0.25
        },
        {
          "name": "C3",
          "midi": 48,
          "time": 586.2458333333424,
          "velocity": 1,
          "duration": 0.25
        },
        {
          "name": "C3",
          "midi": 48,
          "time": 586.2458333333424,
          "velocity": 1,
          "duration": 0.25
        },
        {
          "name": "E2",
          "midi": 40,
          "time": 586.4958333333424,
          "velocity": 1,
          "duration": 0.25
        },
        {
          "name": "E2",
          "midi": 40,
          "time": 586.4958333333424,
          "velocity": 1,
          "duration": 0.25
        },
        {
          "name": "F2",
          "midi": 41,
          "time": 586.7458333333424,
          "velocity": 1,
          "duration": 0.25
        },
        {
          "name": "F2",
          "midi": 41,
          "time": 586.7458333333424,
          "velocity": 1,
          "duration": 0.25
        },
        {
          "name": "C#3",
          "midi": 49,
          "time": 586.9958333333424,
          "velocity": 1,
          "duration": 0.25
        },
        {
          "name": "C#3",
          "midi": 49,
          "time": 586.9958333333424,
          "velocity": 1,
          "duration": 0.25
        },
        {
          "name": "E2",
          "midi": 40,
          "time": 587.2458333333424,
          "velocity": 1,
          "duration": 0.25
        },
        {
          "name": "E2",
          "midi": 40,
          "time": 587.2458333333424,
          "velocity": 1,
          "duration": 0.25
        },
        {
          "name": "F2",
          "midi": 41,
          "time": 587.4958333333424,
          "velocity": 1,
          "duration": 0.25
        },
        {
          "name": "F2",
          "midi": 41,
          "time": 587.4958333333424,
          "velocity": 1,
          "duration": 0.25
        },
        {
          "name": "C3",
          "midi": 48,
          "time": 587.7458333333424,
          "velocity": 1,
          "duration": 0.25
        },
        {
          "name": "C3",
          "midi": 48,
          "time": 587.7458333333424,
          "velocity": 1,
          "duration": 0.25
        },
        {
          "name": "E2",
          "midi": 40,
          "time": 587.9958333333424,
          "velocity": 1,
          "duration": 0.25
        },
        {
          "name": "E2",
          "midi": 40,
          "time": 587.9958333333424,
          "velocity": 1,
          "duration": 0.25
        },
        {
          "name": "F2",
          "midi": 41,
          "time": 588.2458333333424,
          "velocity": 1,
          "duration": 0.25
        },
        {
          "name": "F2",
          "midi": 41,
          "time": 588.2458333333424,
          "velocity": 1,
          "duration": 0.25
        },
        {
          "name": "B2",
          "midi": 47,
          "time": 588.4958333333424,
          "velocity": 1,
          "duration": 0.25
        },
        {
          "name": "B2",
          "midi": 47,
          "time": 588.4958333333424,
          "velocity": 1,
          "duration": 0.25
        },
        {
          "name": "B2",
          "midi": 47,
          "time": 588.7458333333424,
          "velocity": 1,
          "duration": 0.25
        },
        {
          "name": "B2",
          "midi": 47,
          "time": 588.7458333333424,
          "velocity": 1,
          "duration": 0.25
        },
        {
          "name": "E2",
          "midi": 40,
          "time": 588.9958333333424,
          "velocity": 1,
          "duration": 0.25
        },
        {
          "name": "E2",
          "midi": 40,
          "time": 588.9958333333424,
          "velocity": 1,
          "duration": 0.25
        },
        {
          "name": "F2",
          "midi": 41,
          "time": 589.2458333333424,
          "velocity": 1,
          "duration": 0.25
        },
        {
          "name": "F2",
          "midi": 41,
          "time": 589.2458333333424,
          "velocity": 1,
          "duration": 0.25
        },
        {
          "name": "B2",
          "midi": 47,
          "time": 589.4958333333424,
          "velocity": 1,
          "duration": 0.25
        },
        {
          "name": "B2",
          "midi": 47,
          "time": 589.4958333333424,
          "velocity": 1,
          "duration": 0.25
        },
        {
          "name": "E2",
          "midi": 40,
          "time": 589.7458333333424,
          "velocity": 1,
          "duration": 0.25
        },
        {
          "name": "E2",
          "midi": 40,
          "time": 589.7458333333424,
          "velocity": 1,
          "duration": 0.25
        },
        {
          "name": "F2",
          "midi": 41,
          "time": 589.9958333333424,
          "velocity": 1,
          "duration": 0.25
        },
        {
          "name": "F2",
          "midi": 41,
          "time": 589.9958333333424,
          "velocity": 1,
          "duration": 0.25
        },
        {
          "name": "C3",
          "midi": 48,
          "time": 590.2458333333424,
          "velocity": 1,
          "duration": 0.25
        },
        {
          "name": "C3",
          "midi": 48,
          "time": 590.2458333333424,
          "velocity": 1,
          "duration": 0.25
        },
        {
          "name": "F2",
          "midi": 41,
          "time": 590.4958333333424,
          "velocity": 1,
          "duration": 0.25
        },
        {
          "name": "F2",
          "midi": 41,
          "time": 590.4958333333424,
          "velocity": 1,
          "duration": 0.25
        },
        {
          "name": "E2",
          "midi": 40,
          "time": 590.7458333333424,
          "velocity": 1,
          "duration": 0.25
        },
        {
          "name": "E2",
          "midi": 40,
          "time": 590.7458333333424,
          "velocity": 1,
          "duration": 0.25
        },
        {
          "name": "D3",
          "midi": 50,
          "time": 590.9958333333424,
          "velocity": 1,
          "duration": 0.25
        },
        {
          "name": "G2",
          "midi": 43,
          "time": 590.9958333333424,
          "velocity": 1,
          "duration": 0.25
        },
        {
          "name": "G2",
          "midi": 43,
          "time": 590.9958333333424,
          "velocity": 1,
          "duration": 0.25
        },
        {
          "name": "D3",
          "midi": 50,
          "time": 590.9958333333424,
          "velocity": 1,
          "duration": 0.25
        },
        {
          "name": "C#3",
          "midi": 49,
          "time": 591.2458333333424,
          "velocity": 1,
          "duration": 0.25
        },
        {
          "name": "F#2",
          "midi": 42,
          "time": 591.2458333333424,
          "velocity": 1,
          "duration": 0.25
        },
        {
          "name": "F#2",
          "midi": 42,
          "time": 591.2458333333424,
          "velocity": 1,
          "duration": 0.25
        },
        {
          "name": "C#3",
          "midi": 49,
          "time": 591.2458333333424,
          "velocity": 1,
          "duration": 0.25
        },
        {
          "name": "E2",
          "midi": 40,
          "time": 591.4958333333424,
          "velocity": 1,
          "duration": 0.25
        },
        {
          "name": "E2",
          "midi": 40,
          "time": 591.4958333333424,
          "velocity": 1,
          "duration": 0.25
        },
        {
          "name": "D3",
          "midi": 50,
          "time": 591.7458333333424,
          "velocity": 1,
          "duration": 0.25
        },
        {
          "name": "G2",
          "midi": 43,
          "time": 591.7458333333424,
          "velocity": 1,
          "duration": 0.25
        },
        {
          "name": "D3",
          "midi": 50,
          "time": 591.7458333333424,
          "velocity": 1,
          "duration": 0.25
        },
        {
          "name": "G2",
          "midi": 43,
          "time": 591.7458333333424,
          "velocity": 1,
          "duration": 0.25
        },
        {
          "name": "C#3",
          "midi": 49,
          "time": 591.9958333333424,
          "velocity": 1,
          "duration": 0.25
        },
        {
          "name": "F#2",
          "midi": 42,
          "time": 591.9958333333424,
          "velocity": 1,
          "duration": 0.25
        },
        {
          "name": "F#2",
          "midi": 42,
          "time": 591.9958333333424,
          "velocity": 1,
          "duration": 0.25
        },
        {
          "name": "C#3",
          "midi": 49,
          "time": 591.9958333333424,
          "velocity": 1,
          "duration": 0.25
        },
        {
          "name": "E2",
          "midi": 40,
          "time": 592.2458333333424,
          "velocity": 1,
          "duration": 0.25
        },
        {
          "name": "E2",
          "midi": 40,
          "time": 592.2458333333424,
          "velocity": 1,
          "duration": 0.25
        },
        {
          "name": "D3",
          "midi": 50,
          "time": 592.4958333333424,
          "velocity": 1,
          "duration": 0.25
        },
        {
          "name": "G2",
          "midi": 43,
          "time": 592.4958333333424,
          "velocity": 1,
          "duration": 0.25
        },
        {
          "name": "D3",
          "midi": 50,
          "time": 592.4958333333424,
          "velocity": 1,
          "duration": 0.25
        },
        {
          "name": "G2",
          "midi": 43,
          "time": 592.4958333333424,
          "velocity": 1,
          "duration": 0.25
        },
        {
          "name": "C#3",
          "midi": 49,
          "time": 592.7458333333424,
          "velocity": 1,
          "duration": 0.25
        },
        {
          "name": "F#2",
          "midi": 42,
          "time": 592.7458333333424,
          "velocity": 1,
          "duration": 0.25
        },
        {
          "name": "C#3",
          "midi": 49,
          "time": 592.7458333333424,
          "velocity": 1,
          "duration": 0.25
        },
        {
          "name": "F#2",
          "midi": 42,
          "time": 592.7458333333424,
          "velocity": 1,
          "duration": 0.25
        },
        {
          "name": "E2",
          "midi": 40,
          "time": 592.9958333333424,
          "velocity": 1,
          "duration": 0.25
        },
        {
          "name": "E2",
          "midi": 40,
          "time": 592.9958333333424,
          "velocity": 1,
          "duration": 0.25
        },
        {
          "name": "F2",
          "midi": 41,
          "time": 593.2458333333424,
          "velocity": 1,
          "duration": 0.25
        },
        {
          "name": "F2",
          "midi": 41,
          "time": 593.2458333333424,
          "velocity": 1,
          "duration": 0.25
        },
        {
          "name": "B2",
          "midi": 47,
          "time": 593.4958333333424,
          "velocity": 1,
          "duration": 0.25
        },
        {
          "name": "B2",
          "midi": 47,
          "time": 593.4958333333424,
          "velocity": 1,
          "duration": 0.25
        },
        {
          "name": "E2",
          "midi": 40,
          "time": 593.7458333333424,
          "velocity": 1,
          "duration": 0.25
        },
        {
          "name": "E2",
          "midi": 40,
          "time": 593.7458333333424,
          "velocity": 1,
          "duration": 0.25
        },
        {
          "name": "F2",
          "midi": 41,
          "time": 593.9958333333424,
          "velocity": 1,
          "duration": 0.25
        },
        {
          "name": "F2",
          "midi": 41,
          "time": 593.9958333333424,
          "velocity": 1,
          "duration": 0.25
        },
        {
          "name": "C3",
          "midi": 48,
          "time": 594.2458333333424,
          "velocity": 1,
          "duration": 0.25
        },
        {
          "name": "C3",
          "midi": 48,
          "time": 594.2458333333424,
          "velocity": 1,
          "duration": 0.25
        },
        {
          "name": "E2",
          "midi": 40,
          "time": 594.4958333333424,
          "velocity": 1,
          "duration": 0.25
        },
        {
          "name": "E2",
          "midi": 40,
          "time": 594.4958333333424,
          "velocity": 1,
          "duration": 0.25
        },
        {
          "name": "F2",
          "midi": 41,
          "time": 594.7458333333424,
          "velocity": 1,
          "duration": 0.25
        },
        {
          "name": "F2",
          "midi": 41,
          "time": 594.7458333333424,
          "velocity": 1,
          "duration": 0.25
        },
        {
          "name": "C#3",
          "midi": 49,
          "time": 594.9958333333424,
          "velocity": 1,
          "duration": 0.25
        },
        {
          "name": "C#3",
          "midi": 49,
          "time": 594.9958333333424,
          "velocity": 1,
          "duration": 0.25
        },
        {
          "name": "E2",
          "midi": 40,
          "time": 595.2458333333424,
          "velocity": 1,
          "duration": 0.25
        },
        {
          "name": "E2",
          "midi": 40,
          "time": 595.2458333333424,
          "velocity": 1,
          "duration": 0.25
        },
        {
          "name": "F2",
          "midi": 41,
          "time": 595.4958333333424,
          "velocity": 1,
          "duration": 0.25
        },
        {
          "name": "F2",
          "midi": 41,
          "time": 595.4958333333424,
          "velocity": 1,
          "duration": 0.25
        },
        {
          "name": "C3",
          "midi": 48,
          "time": 595.7458333333424,
          "velocity": 1,
          "duration": 0.25
        },
        {
          "name": "C3",
          "midi": 48,
          "time": 595.7458333333424,
          "velocity": 1,
          "duration": 0.25
        },
        {
          "name": "E2",
          "midi": 40,
          "time": 595.9958333333424,
          "velocity": 1,
          "duration": 0.25
        },
        {
          "name": "E2",
          "midi": 40,
          "time": 595.9958333333424,
          "velocity": 1,
          "duration": 0.25
        },
        {
          "name": "F2",
          "midi": 41,
          "time": 596.2458333333424,
          "velocity": 1,
          "duration": 0.25
        },
        {
          "name": "F2",
          "midi": 41,
          "time": 596.2458333333424,
          "velocity": 1,
          "duration": 0.25
        },
        {
          "name": "B2",
          "midi": 47,
          "time": 596.4958333333424,
          "velocity": 1,
          "duration": 0.25
        },
        {
          "name": "B2",
          "midi": 47,
          "time": 596.4958333333424,
          "velocity": 1,
          "duration": 0.25
        },
        {
          "name": "B2",
          "midi": 47,
          "time": 596.7458333333424,
          "velocity": 1,
          "duration": 0.25
        },
        {
          "name": "B2",
          "midi": 47,
          "time": 596.7458333333424,
          "velocity": 1,
          "duration": 0.25
        },
        {
          "name": "E2",
          "midi": 40,
          "time": 596.9958333333424,
          "velocity": 1,
          "duration": 0.25
        },
        {
          "name": "E2",
          "midi": 40,
          "time": 596.9958333333424,
          "velocity": 1,
          "duration": 0.25
        },
        {
          "name": "F2",
          "midi": 41,
          "time": 597.2458333333424,
          "velocity": 1,
          "duration": 0.25
        },
        {
          "name": "F2",
          "midi": 41,
          "time": 597.2458333333424,
          "velocity": 1,
          "duration": 0.25
        },
        {
          "name": "B2",
          "midi": 47,
          "time": 597.4958333333424,
          "velocity": 1,
          "duration": 0.25
        },
        {
          "name": "B2",
          "midi": 47,
          "time": 597.4958333333424,
          "velocity": 1,
          "duration": 0.25
        },
        {
          "name": "E2",
          "midi": 40,
          "time": 597.7458333333424,
          "velocity": 1,
          "duration": 0.25
        },
        {
          "name": "E2",
          "midi": 40,
          "time": 597.7458333333424,
          "velocity": 1,
          "duration": 0.25
        },
        {
          "name": "F2",
          "midi": 41,
          "time": 597.9958333333424,
          "velocity": 1,
          "duration": 0.25
        },
        {
          "name": "F2",
          "midi": 41,
          "time": 597.9958333333424,
          "velocity": 1,
          "duration": 0.25
        },
        {
          "name": "C3",
          "midi": 48,
          "time": 598.2458333333424,
          "velocity": 1,
          "duration": 0.25
        },
        {
          "name": "C3",
          "midi": 48,
          "time": 598.2458333333424,
          "velocity": 1,
          "duration": 0.25
        },
        {
          "name": "F2",
          "midi": 41,
          "time": 598.4958333333424,
          "velocity": 1,
          "duration": 0.25
        },
        {
          "name": "F2",
          "midi": 41,
          "time": 598.4958333333424,
          "velocity": 1,
          "duration": 0.25
        },
        {
          "name": "E2",
          "midi": 40,
          "time": 598.7458333333424,
          "velocity": 1,
          "duration": 0.25
        },
        {
          "name": "E2",
          "midi": 40,
          "time": 598.7458333333424,
          "velocity": 1,
          "duration": 0.25
        },
        {
          "name": "G2",
          "midi": 43,
          "time": 598.9958333333424,
          "velocity": 1,
          "duration": 0.25
        },
        {
          "name": "D3",
          "midi": 50,
          "time": 598.9958333333424,
          "velocity": 1,
          "duration": 0.25
        },
        {
          "name": "D3",
          "midi": 50,
          "time": 598.9958333333424,
          "velocity": 1,
          "duration": 0.25
        },
        {
          "name": "G2",
          "midi": 43,
          "time": 598.9958333333424,
          "velocity": 1,
          "duration": 0.25
        },
        {
          "name": "C#3",
          "midi": 49,
          "time": 599.2458333333424,
          "velocity": 1,
          "duration": 0.25
        },
        {
          "name": "F#2",
          "midi": 42,
          "time": 599.2458333333424,
          "velocity": 1,
          "duration": 0.25
        },
        {
          "name": "C#3",
          "midi": 49,
          "time": 599.2458333333424,
          "velocity": 1,
          "duration": 0.25
        },
        {
          "name": "F#2",
          "midi": 42,
          "time": 599.2458333333424,
          "velocity": 1,
          "duration": 0.25
        },
        {
          "name": "E2",
          "midi": 40,
          "time": 599.4958333333424,
          "velocity": 1,
          "duration": 0.25
        },
        {
          "name": "E2",
          "midi": 40,
          "time": 599.4958333333424,
          "velocity": 1,
          "duration": 0.25
        },
        {
          "name": "D3",
          "midi": 50,
          "time": 599.7458333333424,
          "velocity": 1,
          "duration": 0.25
        },
        {
          "name": "G2",
          "midi": 43,
          "time": 599.7458333333424,
          "velocity": 1,
          "duration": 0.25
        },
        {
          "name": "G2",
          "midi": 43,
          "time": 599.7458333333424,
          "velocity": 1,
          "duration": 0.25
        },
        {
          "name": "D3",
          "midi": 50,
          "time": 599.7458333333424,
          "velocity": 1,
          "duration": 0.25
        },
        {
          "name": "C#3",
          "midi": 49,
          "time": 599.9958333333424,
          "velocity": 1,
          "duration": 0.25
        },
        {
          "name": "F#2",
          "midi": 42,
          "time": 599.9958333333424,
          "velocity": 1,
          "duration": 0.25
        },
        {
          "name": "F#2",
          "midi": 42,
          "time": 599.9958333333424,
          "velocity": 1,
          "duration": 0.25
        },
        {
          "name": "C#3",
          "midi": 49,
          "time": 599.9958333333424,
          "velocity": 1,
          "duration": 0.25
        },
        {
          "name": "E2",
          "midi": 40,
          "time": 600.2458333333424,
          "velocity": 1,
          "duration": 0.25
        },
        {
          "name": "E2",
          "midi": 40,
          "time": 600.2458333333424,
          "velocity": 1,
          "duration": 0.25
        },
        {
          "name": "D3",
          "midi": 50,
          "time": 600.4958333333424,
          "velocity": 1,
          "duration": 0.25
        },
        {
          "name": "G2",
          "midi": 43,
          "time": 600.4958333333424,
          "velocity": 1,
          "duration": 0.25
        },
        {
          "name": "D3",
          "midi": 50,
          "time": 600.4958333333424,
          "velocity": 1,
          "duration": 0.25
        },
        {
          "name": "G2",
          "midi": 43,
          "time": 600.4958333333424,
          "velocity": 1,
          "duration": 0.25
        },
        {
          "name": "F#2",
          "midi": 42,
          "time": 600.7458333333424,
          "velocity": 1,
          "duration": 0.25
        },
        {
          "name": "C#3",
          "midi": 49,
          "time": 600.7458333333424,
          "velocity": 1,
          "duration": 0.25
        },
        {
          "name": "F#2",
          "midi": 42,
          "time": 600.7458333333424,
          "velocity": 1,
          "duration": 0.25
        },
        {
          "name": "C#3",
          "midi": 49,
          "time": 600.7458333333424,
          "velocity": 1,
          "duration": 0.25
        },
        {
          "name": "G2",
          "midi": 43,
          "time": 600.9958333333424,
          "velocity": 1,
          "duration": 0.25
        },
        {
          "name": "D3",
          "midi": 50,
          "time": 600.9958333333424,
          "velocity": 1,
          "duration": 0.25
        },
        {
          "name": "G2",
          "midi": 43,
          "time": 600.9958333333424,
          "velocity": 1,
          "duration": 0.25
        },
        {
          "name": "D3",
          "midi": 50,
          "time": 600.9958333333424,
          "velocity": 1,
          "duration": 0.25
        },
        {
          "name": "C#3",
          "midi": 49,
          "time": 601.2458333333424,
          "velocity": 1,
          "duration": 0.25
        },
        {
          "name": "F#2",
          "midi": 42,
          "time": 601.2458333333424,
          "velocity": 1,
          "duration": 0.25
        },
        {
          "name": "F#2",
          "midi": 42,
          "time": 601.2458333333424,
          "velocity": 1,
          "duration": 0.25
        },
        {
          "name": "C#3",
          "midi": 49,
          "time": 601.2458333333424,
          "velocity": 1,
          "duration": 0.25
        },
        {
          "name": "E2",
          "midi": 40,
          "time": 601.4958333333424,
          "velocity": 1,
          "duration": 0.25
        },
        {
          "name": "E2",
          "midi": 40,
          "time": 601.4958333333424,
          "velocity": 1,
          "duration": 0.25
        },
        {
          "name": "D3",
          "midi": 50,
          "time": 601.7458333333424,
          "velocity": 1,
          "duration": 0.25
        },
        {
          "name": "G2",
          "midi": 43,
          "time": 601.7458333333424,
          "velocity": 1,
          "duration": 0.25
        },
        {
          "name": "D3",
          "midi": 50,
          "time": 601.7458333333424,
          "velocity": 1,
          "duration": 0.25
        },
        {
          "name": "G2",
          "midi": 43,
          "time": 601.7458333333424,
          "velocity": 1,
          "duration": 0.25
        },
        {
          "name": "C#3",
          "midi": 49,
          "time": 601.9958333333424,
          "velocity": 1,
          "duration": 0.25
        },
        {
          "name": "F#2",
          "midi": 42,
          "time": 601.9958333333424,
          "velocity": 1,
          "duration": 0.25
        },
        {
          "name": "C#3",
          "midi": 49,
          "time": 601.9958333333424,
          "velocity": 1,
          "duration": 0.25
        },
        {
          "name": "F#2",
          "midi": 42,
          "time": 601.9958333333424,
          "velocity": 1,
          "duration": 0.25
        },
        {
          "name": "E2",
          "midi": 40,
          "time": 602.2458333333424,
          "velocity": 1,
          "duration": 0.25
        },
        {
          "name": "E2",
          "midi": 40,
          "time": 602.2458333333424,
          "velocity": 1,
          "duration": 0.25
        },
        {
          "name": "D3",
          "midi": 50,
          "time": 602.4958333333424,
          "velocity": 1,
          "duration": 0.25
        },
        {
          "name": "G2",
          "midi": 43,
          "time": 602.4958333333424,
          "velocity": 1,
          "duration": 0.25
        },
        {
          "name": "D3",
          "midi": 50,
          "time": 602.4958333333424,
          "velocity": 1,
          "duration": 0.25
        },
        {
          "name": "G2",
          "midi": 43,
          "time": 602.4958333333424,
          "velocity": 1,
          "duration": 0.25
        },
        {
          "name": "C#3",
          "midi": 49,
          "time": 602.7458333333424,
          "velocity": 1,
          "duration": 0.25
        },
        {
          "name": "F#2",
          "midi": 42,
          "time": 602.7458333333424,
          "velocity": 1,
          "duration": 0.25
        },
        {
          "name": "F#2",
          "midi": 42,
          "time": 602.7458333333424,
          "velocity": 1,
          "duration": 0.25
        },
        {
          "name": "C#3",
          "midi": 49,
          "time": 602.7458333333424,
          "velocity": 1,
          "duration": 0.25
        },
        {
          "name": "E2",
          "midi": 40,
          "time": 602.9958333333424,
          "velocity": 1,
          "duration": 0.24583333333339397
        },
        {
          "name": "E2",
          "midi": 40,
          "time": 602.9958333333424,
          "velocity": 1,
          "duration": 0.2500000000001137
        },
        {
          "name": "G5",
          "midi": 79,
          "time": 603.0000000000091,
          "velocity": 1,
          "duration": 0.5000000000001137
        },
        {
          "name": "G4",
          "midi": 67,
          "time": 603.0000000000091,
          "velocity": 1,
          "duration": 0.5166666666667652
        },
        {
          "name": "E2",
          "midi": 40,
          "time": 603.2458333333425,
          "velocity": 1,
          "duration": 0.24583333333328028
        },
        {
          "name": "E2",
          "midi": 40,
          "time": 603.2458333333425,
          "velocity": 1,
          "duration": 0.25
        },
        {
          "name": "E2",
          "midi": 40,
          "time": 603.4958333333425,
          "velocity": 1,
          "duration": 0.24583333333339397
        },
        {
          "name": "E2",
          "midi": 40,
          "time": 603.4958333333425,
          "velocity": 1,
          "duration": 0.2500000000001137
        },
        {
          "name": "G5",
          "midi": 79,
          "time": 603.5000000000092,
          "velocity": 1,
          "duration": 0.2500000000001137
        },
        {
          "name": "G4",
          "midi": 67,
          "time": 603.5083333333425,
          "velocity": 1,
          "duration": 0.2541666666668334
        },
        {
          "name": "G4",
          "midi": 67,
          "time": 603.7458333333426,
          "velocity": 1,
          "duration": 0.49583333333339397
        },
        {
          "name": "E2",
          "midi": 40,
          "time": 603.7458333333426,
          "velocity": 1,
          "duration": 0.24583333333339397
        },
        {
          "name": "E2",
          "midi": 40,
          "time": 603.7458333333426,
          "velocity": 1,
          "duration": 0.2500000000001137
        },
        {
          "name": "G5",
          "midi": 79,
          "time": 603.7500000000093,
          "velocity": 1,
          "duration": 0.5000000000001137
        },
        {
          "name": "E2",
          "midi": 40,
          "time": 603.9958333333427,
          "velocity": 1,
          "duration": 0.24583333333328028
        },
        {
          "name": "E2",
          "midi": 40,
          "time": 603.9958333333427,
          "velocity": 1,
          "duration": 0.25
        },
        {
          "name": "E2",
          "midi": 40,
          "time": 604.2458333333427,
          "velocity": 1,
          "duration": 0.24583333333339397
        },
        {
          "name": "E2",
          "midi": 40,
          "time": 604.2458333333427,
          "velocity": 1,
          "duration": 0.2500000000001137
        },
        {
          "name": "E5",
          "midi": 76,
          "time": 604.2500000000094,
          "velocity": 1,
          "duration": 0.5000000000002274
        },
        {
          "name": "E4",
          "midi": 64,
          "time": 604.2541666666762,
          "velocity": 1,
          "duration": 0.47500000000002274
        },
        {
          "name": "E2",
          "midi": 40,
          "time": 604.4958333333428,
          "velocity": 1,
          "duration": 0.24583333333339397
        },
        {
          "name": "E2",
          "midi": 40,
          "time": 604.4958333333428,
          "velocity": 1,
          "duration": 0.2500000000001137
        },
        {
          "name": "D4",
          "midi": 62,
          "time": 604.7250000000095,
          "velocity": 0.5905511811023622,
          "duration": 0.0041666666667197205
        },
        {
          "name": "D5",
          "midi": 74,
          "time": 604.7291666666762,
          "velocity": 0.5905511811023622,
          "duration": 0.020833333333484916
        },
        {
          "name": "E4",
          "midi": 64,
          "time": 604.745833333343,
          "velocity": 1,
          "duration": 1.241666666666788
        },
        {
          "name": "E2",
          "midi": 40,
          "time": 604.745833333343,
          "velocity": 1,
          "duration": 0.24583333333339397
        },
        {
          "name": "E2",
          "midi": 40,
          "time": 604.745833333343,
          "velocity": 1,
          "duration": 0.2500000000001137
        },
        {
          "name": "E5",
          "midi": 76,
          "time": 604.7500000000097,
          "velocity": 1,
          "duration": 1.2500000000002274
        },
        {
          "name": "E2",
          "midi": 40,
          "time": 604.9958333333431,
          "velocity": 1,
          "duration": 0.24583333333328028
        },
        {
          "name": "E2",
          "midi": 40,
          "time": 604.9958333333431,
          "velocity": 1,
          "duration": 0.25
        },
        {
          "name": "G2",
          "midi": 43,
          "time": 605.2458333333431,
          "velocity": 1,
          "duration": 0.24583333333328028
        },
        {
          "name": "D3",
          "midi": 50,
          "time": 605.2458333333431,
          "velocity": 1,
          "duration": 0.24583333333328028
        },
        {
          "name": "D3",
          "midi": 50,
          "time": 605.2458333333431,
          "velocity": 1,
          "duration": 0.25
        },
        {
          "name": "G2",
          "midi": 43,
          "time": 605.2458333333431,
          "velocity": 1,
          "duration": 0.25
        },
        {
          "name": "E3",
          "midi": 52,
          "time": 605.4958333333431,
          "velocity": 1,
          "duration": 0.24583333333328028
        },
        {
          "name": "A2",
          "midi": 45,
          "time": 605.4958333333431,
          "velocity": 1,
          "duration": 0.24583333333328028
        },
        {
          "name": "A2",
          "midi": 45,
          "time": 605.4958333333431,
          "velocity": 1,
          "duration": 0.25
        },
        {
          "name": "E3",
          "midi": 52,
          "time": 605.4958333333431,
          "velocity": 1,
          "duration": 0.25
        },
        {
          "name": "E2",
          "midi": 40,
          "time": 605.7458333333431,
          "velocity": 1,
          "duration": 0.24583333333339397
        },
        {
          "name": "E2",
          "midi": 40,
          "time": 605.7458333333431,
          "velocity": 1,
          "duration": 0.2500000000001137
        },
        {
          "name": "A#2",
          "midi": 46,
          "time": 605.9958333333432,
          "velocity": 1,
          "duration": 0.24583333333339397
        },
        {
          "name": "F3",
          "midi": 53,
          "time": 605.9958333333432,
          "velocity": 1,
          "duration": 0.24583333333339397
        },
        {
          "name": "A#2",
          "midi": 46,
          "time": 605.9958333333432,
          "velocity": 1,
          "duration": 0.2500000000001137
        },
        {
          "name": "F3",
          "midi": 53,
          "time": 605.9958333333432,
          "velocity": 1,
          "duration": 0.2500000000001137
        },
        {
          "name": "A2",
          "midi": 45,
          "time": 606.2458333333433,
          "velocity": 1,
          "duration": 0.24583333333328028
        },
        {
          "name": "E3",
          "midi": 52,
          "time": 606.2458333333433,
          "velocity": 1,
          "duration": 0.24583333333328028
        },
        {
          "name": "E3",
          "midi": 52,
          "time": 606.2458333333433,
          "velocity": 1,
          "duration": 0.25
        },
        {
          "name": "A2",
          "midi": 45,
          "time": 606.2458333333433,
          "velocity": 1,
          "duration": 0.25
        },
        {
          "name": "D3",
          "midi": 50,
          "time": 606.4958333333433,
          "velocity": 1,
          "duration": 0.24583333333328028
        },
        {
          "name": "G2",
          "midi": 43,
          "time": 606.4958333333433,
          "velocity": 1,
          "duration": 0.24583333333328028
        },
        {
          "name": "D3",
          "midi": 50,
          "time": 606.4958333333433,
          "velocity": 1,
          "duration": 0.25
        },
        {
          "name": "G2",
          "midi": 43,
          "time": 606.4958333333433,
          "velocity": 1,
          "duration": 0.25
        },
        {
          "name": "E2",
          "midi": 40,
          "time": 606.9958333333433,
          "velocity": 1,
          "duration": 0.24583333333339397
        },
        {
          "name": "E2",
          "midi": 40,
          "time": 606.9958333333433,
          "velocity": 1,
          "duration": 0.2500000000001137
        },
        {
          "name": "E5",
          "midi": 76,
          "time": 607.00000000001,
          "velocity": 1,
          "duration": 0.5000000000001137
        },
        {
          "name": "E4",
          "midi": 64,
          "time": 607.0041666666767,
          "velocity": 1,
          "duration": 0.5041666666667197
        },
        {
          "name": "E2",
          "midi": 40,
          "time": 607.2458333333434,
          "velocity": 1,
          "duration": 0.24583333333328028
        },
        {
          "name": "E2",
          "midi": 40,
          "time": 607.2458333333434,
          "velocity": 1,
          "duration": 0.25
        },
        {
          "name": "E2",
          "midi": 40,
          "time": 607.4958333333434,
          "velocity": 1,
          "duration": 0.24583333333339397
        },
        {
          "name": "E2",
          "midi": 40,
          "time": 607.4958333333434,
          "velocity": 1,
          "duration": 0.2500000000001137
        },
        {
          "name": "E5",
          "midi": 76,
          "time": 607.5000000000101,
          "velocity": 1,
          "duration": 0.2500000000001137
        },
        {
          "name": "E4",
          "midi": 64,
          "time": 607.5000000000101,
          "velocity": 1,
          "duration": 0.26250000000015916
        },
        {
          "name": "E4",
          "midi": 64,
          "time": 607.7458333333435,
          "velocity": 1,
          "duration": 0.4750000000001364
        },
        {
          "name": "E2",
          "midi": 40,
          "time": 607.7458333333435,
          "velocity": 1,
          "duration": 0.24583333333339397
        },
        {
          "name": "E2",
          "midi": 40,
          "time": 607.7458333333435,
          "velocity": 1,
          "duration": 0.2500000000001137
        },
        {
          "name": "E5",
          "midi": 76,
          "time": 607.7500000000102,
          "velocity": 1,
          "duration": 0.5000000000002274
        },
        {
          "name": "E2",
          "midi": 40,
          "time": 607.9958333333436,
          "velocity": 1,
          "duration": 0.24583333333339397
        },
        {
          "name": "E2",
          "midi": 40,
          "time": 607.9958333333436,
          "velocity": 1,
          "duration": 0.2500000000001137
        },
        {
          "name": "E2",
          "midi": 40,
          "time": 608.2458333333437,
          "velocity": 1,
          "duration": 0.24583333333339397
        },
        {
          "name": "E2",
          "midi": 40,
          "time": 608.2458333333437,
          "velocity": 1,
          "duration": 0.2500000000001137
        },
        {
          "name": "F#5",
          "midi": 78,
          "time": 608.2500000000105,
          "velocity": 1,
          "duration": 0.5000000000001137
        },
        {
          "name": "F#4",
          "midi": 66,
          "time": 608.2583333333438,
          "velocity": 1,
          "duration": 0.5125000000001592
        },
        {
          "name": "E2",
          "midi": 40,
          "time": 608.4958333333439,
          "velocity": 1,
          "duration": 0.24583333333328028
        },
        {
          "name": "E2",
          "midi": 40,
          "time": 608.4958333333439,
          "velocity": 1,
          "duration": 0.25
        },
        {
          "name": "E2",
          "midi": 40,
          "time": 608.7458333333439,
          "velocity": 1,
          "duration": 0.24583333333339397
        },
        {
          "name": "E2",
          "midi": 40,
          "time": 608.7458333333439,
          "velocity": 1,
          "duration": 0.2500000000001137
        },
        {
          "name": "G5",
          "midi": 79,
          "time": 608.7500000000106,
          "velocity": 1,
          "duration": 1.2500000000002274
        },
        {
          "name": "G4",
          "midi": 67,
          "time": 608.7500000000106,
          "velocity": 1,
          "duration": 1.2291666666667425
        },
        {
          "name": "E2",
          "midi": 40,
          "time": 608.995833333344,
          "velocity": 1,
          "duration": 0.24583333333328028
        },
        {
          "name": "E2",
          "midi": 40,
          "time": 608.995833333344,
          "velocity": 1,
          "duration": 0.25
        },
        {
          "name": "G2",
          "midi": 43,
          "time": 609.245833333344,
          "velocity": 1,
          "duration": 0.24583333333328028
        },
        {
          "name": "D3",
          "midi": 50,
          "time": 609.245833333344,
          "velocity": 1,
          "duration": 0.24583333333328028
        },
        {
          "name": "D3",
          "midi": 50,
          "time": 609.245833333344,
          "velocity": 1,
          "duration": 0.25
        },
        {
          "name": "G2",
          "midi": 43,
          "time": 609.245833333344,
          "velocity": 1,
          "duration": 0.25
        },
        {
          "name": "A2",
          "midi": 45,
          "time": 609.495833333344,
          "velocity": 1,
          "duration": 0.24583333333328028
        },
        {
          "name": "E3",
          "midi": 52,
          "time": 609.495833333344,
          "velocity": 1,
          "duration": 0.24583333333328028
        },
        {
          "name": "E3",
          "midi": 52,
          "time": 609.495833333344,
          "velocity": 1,
          "duration": 0.25
        },
        {
          "name": "A2",
          "midi": 45,
          "time": 609.495833333344,
          "velocity": 1,
          "duration": 0.25
        },
        {
          "name": "D3",
          "midi": 50,
          "time": 609.745833333344,
          "velocity": 1,
          "duration": 0.24583333333339397
        },
        {
          "name": "G2",
          "midi": 43,
          "time": 609.745833333344,
          "velocity": 1,
          "duration": 0.24583333333339397
        },
        {
          "name": "G2",
          "midi": 43,
          "time": 609.745833333344,
          "velocity": 1,
          "duration": 0.2500000000001137
        },
        {
          "name": "D3",
          "midi": 50,
          "time": 609.745833333344,
          "velocity": 1,
          "duration": 0.2500000000001137
        },
        {
          "name": "A2",
          "midi": 45,
          "time": 609.9958333333441,
          "velocity": 1,
          "duration": 0.24583333333339397
        },
        {
          "name": "E3",
          "midi": 52,
          "time": 609.9958333333441,
          "velocity": 1,
          "duration": 0.24583333333339397
        },
        {
          "name": "E3",
          "midi": 52,
          "time": 609.9958333333441,
          "velocity": 1,
          "duration": 0.2500000000001137
        },
        {
          "name": "A2",
          "midi": 45,
          "time": 609.9958333333441,
          "velocity": 1,
          "duration": 0.2500000000001137
        },
        {
          "name": "E4",
          "midi": 64,
          "time": 610.2416666666775,
          "velocity": 1,
          "duration": 1.0041666666668334
        },
        {
          "name": "E2",
          "midi": 40,
          "time": 610.2458333333442,
          "velocity": 1,
          "duration": 0.24583333333339397
        },
        {
          "name": "E2",
          "midi": 40,
          "time": 610.2458333333442,
          "velocity": 1,
          "duration": 0.2500000000001137
        },
        {
          "name": "E5",
          "midi": 76,
          "time": 610.2500000000109,
          "velocity": 1,
          "duration": 1.0000000000001137
        },
        {
          "name": "E2",
          "midi": 40,
          "time": 610.4958333333443,
          "velocity": 1,
          "duration": 0.24583333333328028
        },
        {
          "name": "E2",
          "midi": 40,
          "time": 610.4958333333443,
          "velocity": 1,
          "duration": 0.25
        },
        {
          "name": "E2",
          "midi": 40,
          "time": 610.7458333333443,
          "velocity": 1,
          "duration": 0.24583333333328028
        },
        {
          "name": "E2",
          "midi": 40,
          "time": 610.7458333333443,
          "velocity": 1,
          "duration": 0.25
        },
        {
          "name": "E2",
          "midi": 40,
          "time": 610.9958333333443,
          "velocity": 1,
          "duration": 0.24583333333328028
        },
        {
          "name": "E2",
          "midi": 40,
          "time": 610.9958333333443,
          "velocity": 1,
          "duration": 0.25
        },
        {
          "name": "F#4",
          "midi": 66,
          "time": 611.2458333333443,
          "velocity": 1,
          "duration": 0.7500000000002274
        },
        {
          "name": "E2",
          "midi": 40,
          "time": 611.2458333333443,
          "velocity": 1,
          "duration": 0.24583333333339397
        },
        {
          "name": "E2",
          "midi": 40,
          "time": 611.2458333333443,
          "velocity": 1,
          "duration": 0.2500000000001137
        },
        {
          "name": "F#5",
          "midi": 78,
          "time": 611.250000000011,
          "velocity": 1,
          "duration": 0.7500000000002274
        },
        {
          "name": "E2",
          "midi": 40,
          "time": 611.4958333333444,
          "velocity": 1,
          "duration": 0.24583333333328028
        },
        {
          "name": "E2",
          "midi": 40,
          "time": 611.4958333333444,
          "velocity": 1,
          "duration": 0.25
        },
        {
          "name": "E2",
          "midi": 40,
          "time": 611.7458333333444,
          "velocity": 1,
          "duration": 0.24583333333339397
        },
        {
          "name": "E2",
          "midi": 40,
          "time": 611.7458333333444,
          "velocity": 1,
          "duration": 0.2500000000001137
        },
        {
          "name": "G4",
          "midi": 67,
          "time": 611.9875000000111,
          "velocity": 1,
          "duration": 0.5208333333337123
        },
        {
          "name": "E2",
          "midi": 40,
          "time": 611.9958333333445,
          "velocity": 1,
          "duration": 0.24583333333339397
        },
        {
          "name": "E2",
          "midi": 40,
          "time": 611.9958333333445,
          "velocity": 1,
          "duration": 0.2500000000001137
        },
        {
          "name": "G5",
          "midi": 79,
          "time": 612.0000000000113,
          "velocity": 1,
          "duration": 0.5000000000001137
        },
        {
          "name": "E2",
          "midi": 40,
          "time": 612.2458333333446,
          "velocity": 1,
          "duration": 0.24583333333328028
        },
        {
          "name": "E2",
          "midi": 40,
          "time": 612.2458333333446,
          "velocity": 1,
          "duration": 0.25
        },
        {
          "name": "D3",
          "midi": 50,
          "time": 612.4958333333446,
          "velocity": 1,
          "duration": 0.24583333333350765
        },
        {
          "name": "G2",
          "midi": 43,
          "time": 612.4958333333446,
          "velocity": 1,
          "duration": 0.24583333333350765
        },
        {
          "name": "G2",
          "midi": 43,
          "time": 612.4958333333446,
          "velocity": 1,
          "duration": 0.2500000000002274
        },
        {
          "name": "D3",
          "midi": 50,
          "time": 612.4958333333446,
          "velocity": 1,
          "duration": 0.2500000000002274
        },
        {
          "name": "F#5",
          "midi": 78,
          "time": 612.5000000000114,
          "velocity": 1,
          "duration": 0.5000000000002274
        },
        {
          "name": "F#4",
          "midi": 66,
          "time": 612.5041666666781,
          "velocity": 1,
          "duration": 0.49583333333350765
        },
        {
          "name": "E3",
          "midi": 52,
          "time": 612.7458333333449,
          "velocity": 1,
          "duration": 0.24583333333328028
        },
        {
          "name": "A2",
          "midi": 45,
          "time": 612.7458333333449,
          "velocity": 1,
          "duration": 0.24583333333328028
        },
        {
          "name": "E3",
          "midi": 52,
          "time": 612.7458333333449,
          "velocity": 1,
          "duration": 0.25
        },
        {
          "name": "A2",
          "midi": 45,
          "time": 612.7458333333449,
          "velocity": 1,
          "duration": 0.25
        },
        {
          "name": "E2",
          "midi": 40,
          "time": 612.9958333333449,
          "velocity": 1,
          "duration": 0.24583333333339397
        },
        {
          "name": "E2",
          "midi": 40,
          "time": 612.9958333333449,
          "velocity": 1,
          "duration": 0.2500000000001137
        },
        {
          "name": "E5",
          "midi": 76,
          "time": 613.0000000000116,
          "velocity": 1,
          "duration": 0.5000000000001137
        },
        {
          "name": "E4",
          "midi": 64,
          "time": 613.0083333333449,
          "velocity": 1,
          "duration": 0.4833333333333485
        },
        {
          "name": "A#2",
          "midi": 46,
          "time": 613.245833333345,
          "velocity": 1,
          "duration": 0.24583333333328028
        },
        {
          "name": "F3",
          "midi": 53,
          "time": 613.245833333345,
          "velocity": 1,
          "duration": 0.24583333333328028
        },
        {
          "name": "F3",
          "midi": 53,
          "time": 613.245833333345,
          "velocity": 1,
          "duration": 0.25
        },
        {
          "name": "A#2",
          "midi": 46,
          "time": 613.245833333345,
          "velocity": 1,
          "duration": 0.25
        },
        {
          "name": "E3",
          "midi": 52,
          "time": 613.495833333345,
          "velocity": 1,
          "duration": 0.24583333333339397
        },
        {
          "name": "A2",
          "midi": 45,
          "time": 613.495833333345,
          "velocity": 1,
          "duration": 0.24583333333339397
        },
        {
          "name": "A2",
          "midi": 45,
          "time": 613.495833333345,
          "velocity": 1,
          "duration": 0.2500000000001137
        },
        {
          "name": "E3",
          "midi": 52,
          "time": 613.495833333345,
          "velocity": 1,
          "duration": 0.2500000000001137
        },
        {
          "name": "D5",
          "midi": 74,
          "time": 613.5000000000117,
          "velocity": 1,
          "duration": 0.5000000000002274
        },
        {
          "name": "D4",
          "midi": 62,
          "time": 613.5000000000117,
          "velocity": 1,
          "duration": 0.4875000000000682
        },
        {
          "name": "D3",
          "midi": 50,
          "time": 613.7458333333451,
          "velocity": 1,
          "duration": 0.24583333333339397
        },
        {
          "name": "G2",
          "midi": 43,
          "time": 613.7458333333451,
          "velocity": 1,
          "duration": 0.24583333333339397
        },
        {
          "name": "D3",
          "midi": 50,
          "time": 613.7458333333451,
          "velocity": 1,
          "duration": 0.2500000000001137
        },
        {
          "name": "G2",
          "midi": 43,
          "time": 613.7458333333451,
          "velocity": 1,
          "duration": 0.2500000000001137
        },
        {
          "name": "G4",
          "midi": 67,
          "time": 613.9875000000118,
          "velocity": 1,
          "duration": 0.5125000000001592
        },
        {
          "name": "G5",
          "midi": 79,
          "time": 614.0000000000119,
          "velocity": 1,
          "duration": 0.5
        },
        {
          "name": "E2",
          "midi": 40,
          "time": 614.2458333333452,
          "velocity": 1,
          "duration": 0.24583333333328028
        },
        {
          "name": "E2",
          "midi": 40,
          "time": 614.2458333333452,
          "velocity": 1,
          "duration": 0.25
        },
        {
          "name": "F#4",
          "midi": 66,
          "time": 614.4916666666785,
          "velocity": 1,
          "duration": 0.7416666666667879
        },
        {
          "name": "E2",
          "midi": 40,
          "time": 614.4958333333452,
          "velocity": 1,
          "duration": 0.24583333333339397
        },
        {
          "name": "E2",
          "midi": 40,
          "time": 614.4958333333452,
          "velocity": 1,
          "duration": 0.2500000000001137
        },
        {
          "name": "F#5",
          "midi": 78,
          "time": 614.5000000000119,
          "velocity": 1,
          "duration": 0.7500000000001137
        },
        {
          "name": "E2",
          "midi": 40,
          "time": 614.7458333333453,
          "velocity": 1,
          "duration": 0.24583333333328028
        },
        {
          "name": "E2",
          "midi": 40,
          "time": 614.7458333333453,
          "velocity": 1,
          "duration": 0.25
        },
        {
          "name": "E2",
          "midi": 40,
          "time": 614.9958333333453,
          "velocity": 1,
          "duration": 0.24583333333328028
        },
        {
          "name": "E2",
          "midi": 40,
          "time": 614.9958333333453,
          "velocity": 1,
          "duration": 0.25
        },
        {
          "name": "E2",
          "midi": 40,
          "time": 615.2458333333453,
          "velocity": 1,
          "duration": 0.24583333333339397
        },
        {
          "name": "E2",
          "midi": 40,
          "time": 615.2458333333453,
          "velocity": 1,
          "duration": 0.2500000000001137
        },
        {
          "name": "E2",
          "midi": 40,
          "time": 615.4958333333454,
          "velocity": 1,
          "duration": 0.24583333333328028
        },
        {
          "name": "E2",
          "midi": 40,
          "time": 615.4958333333454,
          "velocity": 1,
          "duration": 0.25
        },
        {
          "name": "E2",
          "midi": 40,
          "time": 615.7458333333454,
          "velocity": 1,
          "duration": 0.24583333333328028
        },
        {
          "name": "E2",
          "midi": 40,
          "time": 615.7458333333454,
          "velocity": 1,
          "duration": 0.25
        },
        {
          "name": "E2",
          "midi": 40,
          "time": 615.9958333333454,
          "velocity": 1,
          "duration": 0.24583333333328028
        },
        {
          "name": "E2",
          "midi": 40,
          "time": 615.9958333333454,
          "velocity": 1,
          "duration": 0.25
        },
        {
          "name": "E2",
          "midi": 40,
          "time": 616.2458333333454,
          "velocity": 1,
          "duration": 0.24583333333328028
        },
        {
          "name": "E2",
          "midi": 40,
          "time": 616.2458333333454,
          "velocity": 1,
          "duration": 0.25
        },
        {
          "name": "G2",
          "midi": 43,
          "time": 616.4958333333454,
          "velocity": 1,
          "duration": 0.24583333333328028
        },
        {
          "name": "D3",
          "midi": 50,
          "time": 616.4958333333454,
          "velocity": 1,
          "duration": 0.24583333333328028
        },
        {
          "name": "G2",
          "midi": 43,
          "time": 616.4958333333454,
          "velocity": 1,
          "duration": 0.25
        },
        {
          "name": "D3",
          "midi": 50,
          "time": 616.4958333333454,
          "velocity": 1,
          "duration": 0.25
        },
        {
          "name": "A2",
          "midi": 45,
          "time": 616.7458333333454,
          "velocity": 1,
          "duration": 0.24583333333328028
        },
        {
          "name": "E3",
          "midi": 52,
          "time": 616.7458333333454,
          "velocity": 1,
          "duration": 0.24583333333328028
        },
        {
          "name": "E3",
          "midi": 52,
          "time": 616.7458333333454,
          "velocity": 1,
          "duration": 0.25
        },
        {
          "name": "A2",
          "midi": 45,
          "time": 616.7458333333454,
          "velocity": 1,
          "duration": 0.25
        },
        {
          "name": "D3",
          "midi": 50,
          "time": 616.9958333333454,
          "velocity": 1,
          "duration": 0.24583333333328028
        },
        {
          "name": "G2",
          "midi": 43,
          "time": 616.9958333333454,
          "velocity": 1,
          "duration": 0.24583333333328028
        },
        {
          "name": "G2",
          "midi": 43,
          "time": 616.9958333333454,
          "velocity": 1,
          "duration": 0.25
        },
        {
          "name": "D3",
          "midi": 50,
          "time": 616.9958333333454,
          "velocity": 1,
          "duration": 0.25
        },
        {
          "name": "A2",
          "midi": 45,
          "time": 617.2458333333454,
          "velocity": 1,
          "duration": 0.24583333333339397
        },
        {
          "name": "E3",
          "midi": 52,
          "time": 617.2458333333454,
          "velocity": 1,
          "duration": 0.24583333333339397
        },
        {
          "name": "E3",
          "midi": 52,
          "time": 617.2458333333454,
          "velocity": 1,
          "duration": 0.2500000000001137
        },
        {
          "name": "A2",
          "midi": 45,
          "time": 617.2458333333454,
          "velocity": 1,
          "duration": 0.2500000000001137
        },
        {
          "name": "G4",
          "midi": 67,
          "time": 617.4875000000121,
          "velocity": 1,
          "duration": 0.49583333333350765
        },
        {
          "name": "E2",
          "midi": 40,
          "time": 617.4958333333456,
          "velocity": 1,
          "duration": 0.24583333333339397
        },
        {
          "name": "E2",
          "midi": 40,
          "time": 617.4958333333456,
          "velocity": 1,
          "duration": 0.2500000000001137
        },
        {
          "name": "G5",
          "midi": 79,
          "time": 617.5000000000123,
          "velocity": 1,
          "duration": 0.5000000000001137
        },
        {
          "name": "E2",
          "midi": 40,
          "time": 617.7458333333457,
          "velocity": 1,
          "duration": 0.24583333333328028
        },
        {
          "name": "E2",
          "midi": 40,
          "time": 617.7458333333457,
          "velocity": 1,
          "duration": 0.25
        },
        {
          "name": "E2",
          "midi": 40,
          "time": 617.9958333333457,
          "velocity": 1,
          "duration": 0.24583333333339397
        },
        {
          "name": "E2",
          "midi": 40,
          "time": 617.9958333333457,
          "velocity": 1,
          "duration": 0.2500000000001137
        },
        {
          "name": "G5",
          "midi": 79,
          "time": 618.0000000000124,
          "velocity": 1,
          "duration": 0.2500000000001137
        },
        {
          "name": "G4",
          "midi": 67,
          "time": 618.0000000000124,
          "velocity": 1,
          "duration": 0.2541666666668334
        },
        {
          "name": "G4",
          "midi": 67,
          "time": 618.2375000000123,
          "velocity": 1,
          "duration": 0.47916666666685614
        },
        {
          "name": "E2",
          "midi": 40,
          "time": 618.2458333333458,
          "velocity": 1,
          "duration": 0.24583333333339397
        },
        {
          "name": "E2",
          "midi": 40,
          "time": 618.2458333333458,
          "velocity": 1,
          "duration": 0.2500000000001137
        },
        {
          "name": "G5",
          "midi": 79,
          "time": 618.2500000000125,
          "velocity": 1,
          "duration": 0.5000000000001137
        },
        {
          "name": "E2",
          "midi": 40,
          "time": 618.4958333333459,
          "velocity": 1,
          "duration": 0.24583333333328028
        },
        {
          "name": "E2",
          "midi": 40,
          "time": 618.4958333333459,
          "velocity": 1,
          "duration": 0.25
        },
        {
          "name": "E2",
          "midi": 40,
          "time": 618.7458333333459,
          "velocity": 1,
          "duration": 0.24583333333339397
        },
        {
          "name": "E2",
          "midi": 40,
          "time": 618.7458333333459,
          "velocity": 1,
          "duration": 0.2500000000001137
        },
        {
          "name": "E5",
          "midi": 76,
          "time": 618.7500000000126,
          "velocity": 1,
          "duration": 0.5000000000001137
        },
        {
          "name": "E4",
          "midi": 64,
          "time": 618.758333333346,
          "velocity": 1,
          "duration": 0.5208333333334849
        },
        {
          "name": "E2",
          "midi": 40,
          "time": 618.995833333346,
          "velocity": 1,
          "duration": 0.24583333333328028
        },
        {
          "name": "E2",
          "midi": 40,
          "time": 618.995833333346,
          "velocity": 1,
          "duration": 0.25
        },
        {
          "name": "E2",
          "midi": 40,
          "time": 619.245833333346,
          "velocity": 1,
          "duration": 0.24583333333339397
        },
        {
          "name": "E2",
          "midi": 40,
          "time": 619.245833333346,
          "velocity": 1,
          "duration": 0.2500000000001137
        },
        {
          "name": "E5",
          "midi": 76,
          "time": 619.2500000000127,
          "velocity": 1,
          "duration": 1.2500000000001137
        },
        {
          "name": "E4",
          "midi": 64,
          "time": 619.2583333333461,
          "velocity": 1,
          "duration": 1.2625000000001592
        },
        {
          "name": "E2",
          "midi": 40,
          "time": 619.4958333333461,
          "velocity": 1,
          "duration": 0.24583333333328028
        },
        {
          "name": "E2",
          "midi": 40,
          "time": 619.4958333333461,
          "velocity": 1,
          "duration": 0.25
        },
        {
          "name": "D3",
          "midi": 50,
          "time": 619.7458333333461,
          "velocity": 1,
          "duration": 0.24583333333328028
        },
        {
          "name": "G2",
          "midi": 43,
          "time": 619.7458333333461,
          "velocity": 1,
          "duration": 0.24583333333328028
        },
        {
          "name": "G2",
          "midi": 43,
          "time": 619.7458333333461,
          "velocity": 1,
          "duration": 0.25
        },
        {
          "name": "D3",
          "midi": 50,
          "time": 619.7458333333461,
          "velocity": 1,
          "duration": 0.25
        },
        {
          "name": "E3",
          "midi": 52,
          "time": 619.9958333333461,
          "velocity": 1,
          "duration": 0.24583333333328028
        },
        {
          "name": "A2",
          "midi": 45,
          "time": 619.9958333333461,
          "velocity": 1,
          "duration": 0.24583333333328028
        },
        {
          "name": "E3",
          "midi": 52,
          "time": 619.9958333333461,
          "velocity": 1,
          "duration": 0.25
        },
        {
          "name": "A2",
          "midi": 45,
          "time": 619.9958333333461,
          "velocity": 1,
          "duration": 0.25
        },
        {
          "name": "E2",
          "midi": 40,
          "time": 620.2458333333461,
          "velocity": 1,
          "duration": 0.24583333333328028
        },
        {
          "name": "E2",
          "midi": 40,
          "time": 620.2458333333461,
          "velocity": 1,
          "duration": 0.25
        },
        {
          "name": "A#2",
          "midi": 46,
          "time": 620.4958333333461,
          "velocity": 1,
          "duration": 0.24583333333339397
        },
        {
          "name": "F3",
          "midi": 53,
          "time": 620.4958333333461,
          "velocity": 1,
          "duration": 0.24583333333339397
        },
        {
          "name": "F3",
          "midi": 53,
          "time": 620.4958333333461,
          "velocity": 1,
          "duration": 0.2500000000001137
        },
        {
          "name": "A#2",
          "midi": 46,
          "time": 620.4958333333461,
          "velocity": 1,
          "duration": 0.2500000000001137
        },
        {
          "name": "E3",
          "midi": 52,
          "time": 620.7458333333462,
          "velocity": 1,
          "duration": 0.24583333333328028
        },
        {
          "name": "A2",
          "midi": 45,
          "time": 620.7458333333462,
          "velocity": 1,
          "duration": 0.24583333333328028
        },
        {
          "name": "E3",
          "midi": 52,
          "time": 620.7458333333462,
          "velocity": 1,
          "duration": 0.25
        },
        {
          "name": "A2",
          "midi": 45,
          "time": 620.7458333333462,
          "velocity": 1,
          "duration": 0.25
        },
        {
          "name": "D3",
          "midi": 50,
          "time": 620.9958333333462,
          "velocity": 1,
          "duration": 0.24583333333328028
        },
        {
          "name": "G2",
          "midi": 43,
          "time": 620.9958333333462,
          "velocity": 1,
          "duration": 0.24583333333328028
        },
        {
          "name": "G2",
          "midi": 43,
          "time": 620.9958333333462,
          "velocity": 1,
          "duration": 0.25
        },
        {
          "name": "D3",
          "midi": 50,
          "time": 620.9958333333462,
          "velocity": 1,
          "duration": 0.25
        },
        {
          "name": "E2",
          "midi": 40,
          "time": 621.4958333333462,
          "velocity": 1,
          "duration": 0.24583333333339397
        },
        {
          "name": "E2",
          "midi": 40,
          "time": 621.4958333333462,
          "velocity": 1,
          "duration": 0.2500000000001137
        },
        {
          "name": "E5",
          "midi": 76,
          "time": 621.500000000013,
          "velocity": 1,
          "duration": 0.2500000000001137
        },
        {
          "name": "E4",
          "midi": 64,
          "time": 621.500000000013,
          "velocity": 1,
          "duration": 0.22916666666662877
        },
        {
          "name": "E2",
          "midi": 40,
          "time": 621.7458333333464,
          "velocity": 1,
          "duration": 0.24583333333339397
        },
        {
          "name": "E2",
          "midi": 40,
          "time": 621.7458333333464,
          "velocity": 1,
          "duration": 0.2500000000001137
        },
        {
          "name": "E5",
          "midi": 76,
          "time": 621.7500000000131,
          "velocity": 1,
          "duration": 0.5000000000001137
        },
        {
          "name": "E4",
          "midi": 64,
          "time": 621.7541666666798,
          "velocity": 1,
          "duration": 0.49583333333339397
        },
        {
          "name": "E2",
          "midi": 40,
          "time": 621.9958333333465,
          "velocity": 1,
          "duration": 0.24583333333328028
        },
        {
          "name": "E2",
          "midi": 40,
          "time": 621.9958333333465,
          "velocity": 1,
          "duration": 0.25
        },
        {
          "name": "E2",
          "midi": 40,
          "time": 622.2458333333465,
          "velocity": 1,
          "duration": 0.24583333333339397
        },
        {
          "name": "E2",
          "midi": 40,
          "time": 622.2458333333465,
          "velocity": 1,
          "duration": 0.2500000000001137
        },
        {
          "name": "E5",
          "midi": 76,
          "time": 622.2500000000132,
          "velocity": 1,
          "duration": 0.5000000000002274
        },
        {
          "name": "E4",
          "midi": 64,
          "time": 622.2583333333465,
          "velocity": 1,
          "duration": 0.5083333333335531
        },
        {
          "name": "E2",
          "midi": 40,
          "time": 622.4958333333466,
          "velocity": 1,
          "duration": 0.24583333333339397
        },
        {
          "name": "E2",
          "midi": 40,
          "time": 622.4958333333466,
          "velocity": 1,
          "duration": 0.2500000000001137
        },
        {
          "name": "F#4",
          "midi": 66,
          "time": 622.7375000000133,
          "velocity": 1,
          "duration": 0.2708333333335986
        },
        {
          "name": "E2",
          "midi": 40,
          "time": 622.7458333333467,
          "velocity": 1,
          "duration": 0.24583333333339397
        },
        {
          "name": "E2",
          "midi": 40,
          "time": 622.7458333333467,
          "velocity": 1,
          "duration": 0.2500000000001137
        },
        {
          "name": "F#5",
          "midi": 78,
          "time": 622.7500000000134,
          "velocity": 1,
          "duration": 0.2500000000001137
        },
        {
          "name": "E2",
          "midi": 40,
          "time": 622.9958333333468,
          "velocity": 1,
          "duration": 0.24583333333339397
        },
        {
          "name": "E2",
          "midi": 40,
          "time": 622.9958333333468,
          "velocity": 1,
          "duration": 0.2500000000001137
        },
        {
          "name": "G4",
          "midi": 67,
          "time": 623.2375000000135,
          "velocity": 1,
          "duration": 1.2625000000002728
        },
        {
          "name": "E2",
          "midi": 40,
          "time": 623.2458333333469,
          "velocity": 1,
          "duration": 0.24583333333339397
        },
        {
          "name": "E2",
          "midi": 40,
          "time": 623.2458333333469,
          "velocity": 1,
          "duration": 0.2500000000001137
        },
        {
          "name": "G5",
          "midi": 79,
          "time": 623.2500000000136,
          "velocity": 1,
          "duration": 1.2500000000001137
        },
        {
          "name": "E2",
          "midi": 40,
          "time": 623.495833333347,
          "velocity": 1,
          "duration": 0.24583333333328028
        },
        {
          "name": "E2",
          "midi": 40,
          "time": 623.495833333347,
          "velocity": 1,
          "duration": 0.25
        },
        {
          "name": "G2",
          "midi": 43,
          "time": 623.745833333347,
          "velocity": 1,
          "duration": 0.24583333333328028
        },
        {
          "name": "D3",
          "midi": 50,
          "time": 623.745833333347,
          "velocity": 1,
          "duration": 0.24583333333328028
        },
        {
          "name": "D3",
          "midi": 50,
          "time": 623.745833333347,
          "velocity": 1,
          "duration": 0.25
        },
        {
          "name": "G2",
          "midi": 43,
          "time": 623.745833333347,
          "velocity": 1,
          "duration": 0.25
        },
        {
          "name": "E3",
          "midi": 52,
          "time": 623.995833333347,
          "velocity": 1,
          "duration": 0.24583333333328028
        },
        {
          "name": "A2",
          "midi": 45,
          "time": 623.995833333347,
          "velocity": 1,
          "duration": 0.24583333333328028
        },
        {
          "name": "A2",
          "midi": 45,
          "time": 623.995833333347,
          "velocity": 1,
          "duration": 0.25
        },
        {
          "name": "E3",
          "midi": 52,
          "time": 623.995833333347,
          "velocity": 1,
          "duration": 0.25
        },
        {
          "name": "G2",
          "midi": 43,
          "time": 624.245833333347,
          "velocity": 1,
          "duration": 0.24583333333328028
        },
        {
          "name": "D3",
          "midi": 50,
          "time": 624.245833333347,
          "velocity": 1,
          "duration": 0.24583333333328028
        },
        {
          "name": "D3",
          "midi": 50,
          "time": 624.245833333347,
          "velocity": 1,
          "duration": 0.25
        },
        {
          "name": "G2",
          "midi": 43,
          "time": 624.245833333347,
          "velocity": 1,
          "duration": 0.25
        },
        {
          "name": "A2",
          "midi": 45,
          "time": 624.495833333347,
          "velocity": 1,
          "duration": 0.24583333333339397
        },
        {
          "name": "E3",
          "midi": 52,
          "time": 624.495833333347,
          "velocity": 1,
          "duration": 0.24583333333339397
        },
        {
          "name": "A2",
          "midi": 45,
          "time": 624.495833333347,
          "velocity": 1,
          "duration": 0.2500000000001137
        },
        {
          "name": "E3",
          "midi": 52,
          "time": 624.495833333347,
          "velocity": 1,
          "duration": 0.2500000000001137
        },
        {
          "name": "E2",
          "midi": 40,
          "time": 624.7458333333472,
          "velocity": 1,
          "duration": 0.24583333333339397
        },
        {
          "name": "E2",
          "midi": 40,
          "time": 624.7458333333472,
          "velocity": 1,
          "duration": 0.2500000000001137
        },
        {
          "name": "E5",
          "midi": 76,
          "time": 624.7500000000139,
          "velocity": 1,
          "duration": 1.0000000000001137
        },
        {
          "name": "E4",
          "midi": 64,
          "time": 624.7541666666806,
          "velocity": 1,
          "duration": 1.0041666666667197
        },
        {
          "name": "E2",
          "midi": 40,
          "time": 624.9958333333473,
          "velocity": 1,
          "duration": 0.24583333333328028
        },
        {
          "name": "E2",
          "midi": 40,
          "time": 624.9958333333473,
          "velocity": 1,
          "duration": 0.25
        },
        {
          "name": "E2",
          "midi": 40,
          "time": 625.2458333333473,
          "velocity": 1,
          "duration": 0.24583333333328028
        },
        {
          "name": "E2",
          "midi": 40,
          "time": 625.2458333333473,
          "velocity": 1,
          "duration": 0.25
        },
        {
          "name": "E2",
          "midi": 40,
          "time": 625.4958333333473,
          "velocity": 1,
          "duration": 0.24583333333328028
        },
        {
          "name": "E2",
          "midi": 40,
          "time": 625.4958333333473,
          "velocity": 1,
          "duration": 0.25
        },
        {
          "name": "E2",
          "midi": 40,
          "time": 625.7458333333473,
          "velocity": 1,
          "duration": 0.24583333333339397
        },
        {
          "name": "E2",
          "midi": 40,
          "time": 625.7458333333473,
          "velocity": 1,
          "duration": 0.2500000000001137
        },
        {
          "name": "F#5",
          "midi": 78,
          "time": 625.750000000014,
          "velocity": 1,
          "duration": 0.7500000000001137
        },
        {
          "name": "F#4",
          "midi": 66,
          "time": 625.750000000014,
          "velocity": 1,
          "duration": 0.7541666666668334
        },
        {
          "name": "E2",
          "midi": 40,
          "time": 625.9958333333474,
          "velocity": 1,
          "duration": 0.24583333333328028
        },
        {
          "name": "E2",
          "midi": 40,
          "time": 625.9958333333474,
          "velocity": 1,
          "duration": 0.25
        },
        {
          "name": "E2",
          "midi": 40,
          "time": 626.2458333333474,
          "velocity": 1,
          "duration": 0.24583333333328028
        },
        {
          "name": "E2",
          "midi": 40,
          "time": 626.2458333333474,
          "velocity": 1,
          "duration": 0.25
        },
        {
          "name": "G4",
          "midi": 67,
          "time": 626.4916666666807,
          "velocity": 1,
          "duration": 0.5208333333337123
        },
        {
          "name": "E2",
          "midi": 40,
          "time": 626.4958333333474,
          "velocity": 1,
          "duration": 0.24583333333339397
        },
        {
          "name": "E2",
          "midi": 40,
          "time": 626.4958333333474,
          "velocity": 1,
          "duration": 0.2500000000001137
        },
        {
          "name": "G5",
          "midi": 79,
          "time": 626.5000000000141,
          "velocity": 1,
          "duration": 0.5000000000002274
        },
        {
          "name": "E2",
          "midi": 40,
          "time": 626.7458333333475,
          "velocity": 1,
          "duration": 0.24583333333339397
        },
        {
          "name": "E2",
          "midi": 40,
          "time": 626.7458333333475,
          "velocity": 1,
          "duration": 0.2500000000001137
        },
        {
          "name": "F#4",
          "midi": 66,
          "time": 626.9875000000142,
          "velocity": 1,
          "duration": 0.5083333333335531
        },
        {
          "name": "D3",
          "midi": 50,
          "time": 626.9958333333476,
          "velocity": 1,
          "duration": 0.24583333333339397
        },
        {
          "name": "G2",
          "midi": 43,
          "time": 626.9958333333476,
          "velocity": 1,
          "duration": 0.24583333333339397
        },
        {
          "name": "G2",
          "midi": 43,
          "time": 626.9958333333476,
          "velocity": 1,
          "duration": 0.2500000000001137
        },
        {
          "name": "D3",
          "midi": 50,
          "time": 626.9958333333476,
          "velocity": 1,
          "duration": 0.2500000000001137
        },
        {
          "name": "F#5",
          "midi": 78,
          "time": 627.0000000000143,
          "velocity": 1,
          "duration": 0.5000000000001137
        },
        {
          "name": "A2",
          "midi": 45,
          "time": 627.2458333333477,
          "velocity": 1,
          "duration": 0.24583333333328028
        },
        {
          "name": "E3",
          "midi": 52,
          "time": 627.2458333333477,
          "velocity": 1,
          "duration": 0.24583333333328028
        },
        {
          "name": "E3",
          "midi": 52,
          "time": 627.2458333333477,
          "velocity": 1,
          "duration": 0.25
        },
        {
          "name": "A2",
          "midi": 45,
          "time": 627.2458333333477,
          "velocity": 1,
          "duration": 0.25
        },
        {
          "name": "E4",
          "midi": 64,
          "time": 627.491666666681,
          "velocity": 1,
          "duration": 0.4875000000001819
        },
        {
          "name": "E2",
          "midi": 40,
          "time": 627.4958333333477,
          "velocity": 1,
          "duration": 0.24583333333339397
        },
        {
          "name": "E2",
          "midi": 40,
          "time": 627.4958333333477,
          "velocity": 1,
          "duration": 0.2500000000001137
        },
        {
          "name": "E5",
          "midi": 76,
          "time": 627.5000000000144,
          "velocity": 1,
          "duration": 0.5000000000002274
        },
        {
          "name": "A#2",
          "midi": 46,
          "time": 627.7458333333478,
          "velocity": 1,
          "duration": 0.24583333333339397
        },
        {
          "name": "F3",
          "midi": 53,
          "time": 627.7458333333478,
          "velocity": 1,
          "duration": 0.24583333333339397
        },
        {
          "name": "F3",
          "midi": 53,
          "time": 627.7458333333478,
          "velocity": 1,
          "duration": 0.2500000000001137
        },
        {
          "name": "A#2",
          "midi": 46,
          "time": 627.7458333333478,
          "velocity": 1,
          "duration": 0.2500000000001137
        },
        {
          "name": "E3",
          "midi": 52,
          "time": 627.995833333348,
          "velocity": 1,
          "duration": 0.24583333333339397
        },
        {
          "name": "A2",
          "midi": 45,
          "time": 627.995833333348,
          "velocity": 1,
          "duration": 0.24583333333339397
        },
        {
          "name": "A2",
          "midi": 45,
          "time": 627.995833333348,
          "velocity": 1,
          "duration": 0.2500000000001137
        },
        {
          "name": "E3",
          "midi": 52,
          "time": 627.995833333348,
          "velocity": 1,
          "duration": 0.2500000000001137
        },
        {
          "name": "D5",
          "midi": 74,
          "time": 628.0000000000147,
          "velocity": 1,
          "duration": 0.5000000000001137
        },
        {
          "name": "D4",
          "midi": 62,
          "time": 628.0000000000147,
          "velocity": 1,
          "duration": 0.5000000000001137
        },
        {
          "name": "G2",
          "midi": 43,
          "time": 628.2458333333481,
          "velocity": 1,
          "duration": 0.24583333333328028
        },
        {
          "name": "D3",
          "midi": 50,
          "time": 628.2458333333481,
          "velocity": 1,
          "duration": 0.24583333333328028
        },
        {
          "name": "D3",
          "midi": 50,
          "time": 628.2458333333481,
          "velocity": 1,
          "duration": 0.25
        },
        {
          "name": "G2",
          "midi": 43,
          "time": 628.2458333333481,
          "velocity": 1,
          "duration": 0.25
        },
        {
          "name": "G4",
          "midi": 67,
          "time": 628.4958333333481,
          "velocity": 1,
          "duration": 0.4874999999999545
        },
        {
          "name": "G5",
          "midi": 79,
          "time": 628.5000000000148,
          "velocity": 1,
          "duration": 0.5
        },
        {
          "name": "E2",
          "midi": 40,
          "time": 628.7458333333481,
          "velocity": 1,
          "duration": 0.24583333333328028
        },
        {
          "name": "E2",
          "midi": 40,
          "time": 628.7458333333481,
          "velocity": 1,
          "duration": 0.25
        },
        {
          "name": "F#4",
          "midi": 66,
          "time": 628.9916666666813,
          "velocity": 1,
          "duration": 0.7500000000001137
        },
        {
          "name": "E2",
          "midi": 40,
          "time": 628.9958333333481,
          "velocity": 1,
          "duration": 0.24583333333339397
        },
        {
          "name": "E2",
          "midi": 40,
          "time": 628.9958333333481,
          "velocity": 1,
          "duration": 0.2500000000001137
        },
        {
          "name": "F#5",
          "midi": 78,
          "time": 629.0000000000148,
          "velocity": 1,
          "duration": 0.7500000000001137
        },
        {
          "name": "E2",
          "midi": 40,
          "time": 629.2458333333482,
          "velocity": 1,
          "duration": 0.24583333333328028
        },
        {
          "name": "E2",
          "midi": 40,
          "time": 629.2458333333482,
          "velocity": 1,
          "duration": 0.25
        },
        {
          "name": "E2",
          "midi": 40,
          "time": 629.4958333333482,
          "velocity": 1,
          "duration": 0.24583333333328028
        },
        {
          "name": "E2",
          "midi": 40,
          "time": 629.4958333333482,
          "velocity": 1,
          "duration": 0.25
        },
        {
          "name": "E2",
          "midi": 40,
          "time": 629.7458333333482,
          "velocity": 1,
          "duration": 0.24583333333339397
        },
        {
          "name": "E2",
          "midi": 40,
          "time": 629.7458333333482,
          "velocity": 1,
          "duration": 0.2500000000001137
        },
        {
          "name": "E2",
          "midi": 40,
          "time": 629.9958333333483,
          "velocity": 1,
          "duration": 0.24583333333328028
        },
        {
          "name": "E2",
          "midi": 40,
          "time": 629.9958333333483,
          "velocity": 1,
          "duration": 0.25
        },
        {
          "name": "E2",
          "midi": 40,
          "time": 630.2458333333483,
          "velocity": 1,
          "duration": 0.24583333333328028
        },
        {
          "name": "E2",
          "midi": 40,
          "time": 630.2458333333483,
          "velocity": 1,
          "duration": 0.25
        },
        {
          "name": "E2",
          "midi": 40,
          "time": 630.4958333333483,
          "velocity": 1,
          "duration": 0.24583333333328028
        },
        {
          "name": "E2",
          "midi": 40,
          "time": 630.4958333333483,
          "velocity": 1,
          "duration": 0.25
        },
        {
          "name": "E2",
          "midi": 40,
          "time": 630.7458333333483,
          "velocity": 1,
          "duration": 0.24583333333328028
        },
        {
          "name": "E2",
          "midi": 40,
          "time": 630.7458333333483,
          "velocity": 1,
          "duration": 0.25
        },
        {
          "name": "D3",
          "midi": 50,
          "time": 630.9958333333483,
          "velocity": 1,
          "duration": 0.24583333333328028
        },
        {
          "name": "G2",
          "midi": 43,
          "time": 630.9958333333483,
          "velocity": 1,
          "duration": 0.24583333333328028
        },
        {
          "name": "G2",
          "midi": 43,
          "time": 630.9958333333483,
          "velocity": 1,
          "duration": 0.25
        },
        {
          "name": "D3",
          "midi": 50,
          "time": 630.9958333333483,
          "velocity": 1,
          "duration": 0.25
        },
        {
          "name": "E3",
          "midi": 52,
          "time": 631.2458333333483,
          "velocity": 1,
          "duration": 0.24583333333328028
        },
        {
          "name": "A2",
          "midi": 45,
          "time": 631.2458333333483,
          "velocity": 1,
          "duration": 0.24583333333328028
        },
        {
          "name": "E3",
          "midi": 52,
          "time": 631.2458333333483,
          "velocity": 1,
          "duration": 0.25
        },
        {
          "name": "A2",
          "midi": 45,
          "time": 631.2458333333483,
          "velocity": 1,
          "duration": 0.25
        },
        {
          "name": "G2",
          "midi": 43,
          "time": 631.4958333333483,
          "velocity": 1,
          "duration": 0.24583333333328028
        },
        {
          "name": "D3",
          "midi": 50,
          "time": 631.4958333333483,
          "velocity": 1,
          "duration": 0.24583333333328028
        },
        {
          "name": "D3",
          "midi": 50,
          "time": 631.4958333333483,
          "velocity": 1,
          "duration": 0.25
        },
        {
          "name": "G2",
          "midi": 43,
          "time": 631.4958333333483,
          "velocity": 1,
          "duration": 0.25
        },
        {
          "name": "A2",
          "midi": 45,
          "time": 631.7458333333483,
          "velocity": 1,
          "duration": 0.24583333333328028
        },
        {
          "name": "E3",
          "midi": 52,
          "time": 631.7458333333483,
          "velocity": 1,
          "duration": 0.24583333333328028
        },
        {
          "name": "A2",
          "midi": 45,
          "time": 631.7458333333483,
          "velocity": 1,
          "duration": 0.25
        },
        {
          "name": "E3",
          "midi": 52,
          "time": 631.7458333333483,
          "velocity": 1,
          "duration": 0.25
        },
        {
          "name": "F#4",
          "midi": 66,
          "time": 631.9958333333483,
          "velocity": 1,
          "duration": 0.5083333333335531
        },
        {
          "name": "F#2",
          "midi": 42,
          "time": 631.9958333333483,
          "velocity": 1,
          "duration": 0.24583333333339397
        },
        {
          "name": "F#2",
          "midi": 42,
          "time": 631.9958333333483,
          "velocity": 1,
          "duration": 0.2500000000001137
        },
        {
          "name": "F#5",
          "midi": 78,
          "time": 632.000000000015,
          "velocity": 1,
          "duration": 0.5000000000001137
        },
        {
          "name": "F#2",
          "midi": 42,
          "time": 632.2458333333484,
          "velocity": 1,
          "duration": 0.24583333333328028
        },
        {
          "name": "F#2",
          "midi": 42,
          "time": 632.2458333333484,
          "velocity": 1,
          "duration": 0.25
        },
        {
          "name": "F#2",
          "midi": 42,
          "time": 632.4958333333484,
          "velocity": 1,
          "duration": 0.24583333333339397
        },
        {
          "name": "F#2",
          "midi": 42,
          "time": 632.4958333333484,
          "velocity": 1,
          "duration": 0.2500000000001137
        },
        {
          "name": "F#5",
          "midi": 78,
          "time": 632.5000000000151,
          "velocity": 1,
          "duration": 0.2500000000001137
        },
        {
          "name": "F#4",
          "midi": 66,
          "time": 632.5000000000151,
          "velocity": 1,
          "duration": 0.2333333333333485
        },
        {
          "name": "F#2",
          "midi": 42,
          "time": 632.7458333333485,
          "velocity": 1,
          "duration": 0.24583333333339397
        },
        {
          "name": "F#2",
          "midi": 42,
          "time": 632.7458333333485,
          "velocity": 1,
          "duration": 0.2500000000001137
        },
        {
          "name": "F#5",
          "midi": 78,
          "time": 632.7500000000152,
          "velocity": 1,
          "duration": 0.5000000000001137
        },
        {
          "name": "F#4",
          "midi": 66,
          "time": 632.754166666682,
          "velocity": 1,
          "duration": 0.5000000000001137
        },
        {
          "name": "F#2",
          "midi": 42,
          "time": 632.9958333333486,
          "velocity": 1,
          "duration": 0.24583333333328028
        },
        {
          "name": "F#2",
          "midi": 42,
          "time": 632.9958333333486,
          "velocity": 1,
          "duration": 0.25
        },
        {
          "name": "F#2",
          "midi": 42,
          "time": 633.2458333333486,
          "velocity": 1,
          "duration": 0.24583333333339397
        },
        {
          "name": "F#2",
          "midi": 42,
          "time": 633.2458333333486,
          "velocity": 1,
          "duration": 0.2500000000001137
        },
        {
          "name": "F#5",
          "midi": 78,
          "time": 633.2500000000153,
          "velocity": 1,
          "duration": 0.5000000000001137
        },
        {
          "name": "F#4",
          "midi": 66,
          "time": 633.2541666666821,
          "velocity": 1,
          "duration": 0.49583333333339397
        },
        {
          "name": "F#2",
          "midi": 42,
          "time": 633.4958333333487,
          "velocity": 1,
          "duration": 0.24583333333328028
        },
        {
          "name": "F#2",
          "midi": 42,
          "time": 633.4958333333487,
          "velocity": 1,
          "duration": 0.25
        },
        {
          "name": "F#2",
          "midi": 42,
          "time": 633.7458333333487,
          "velocity": 1,
          "duration": 0.24583333333339397
        },
        {
          "name": "F#2",
          "midi": 42,
          "time": 633.7458333333487,
          "velocity": 1,
          "duration": 0.2500000000001137
        },
        {
          "name": "F#5",
          "midi": 78,
          "time": 633.7500000000155,
          "velocity": 1,
          "duration": 0.7500000000001137
        },
        {
          "name": "F#4",
          "midi": 66,
          "time": 633.7500000000155,
          "velocity": 1,
          "duration": 0.7708333333334849
        },
        {
          "name": "F#2",
          "midi": 42,
          "time": 633.9958333333489,
          "velocity": 1,
          "duration": 0.24583333333328028
        },
        {
          "name": "F#2",
          "midi": 42,
          "time": 633.9958333333489,
          "velocity": 1,
          "duration": 0.25
        },
        {
          "name": "A2",
          "midi": 45,
          "time": 634.2458333333489,
          "velocity": 1,
          "duration": 0.24583333333328028
        },
        {
          "name": "F#3",
          "midi": 54,
          "time": 634.2458333333489,
          "velocity": 1,
          "duration": 0.24583333333328028
        },
        {
          "name": "F#3",
          "midi": 54,
          "time": 634.2458333333489,
          "velocity": 1,
          "duration": 0.25
        },
        {
          "name": "A2",
          "midi": 45,
          "time": 634.2458333333489,
          "velocity": 1,
          "duration": 0.25
        },
        {
          "name": "B2",
          "midi": 47,
          "time": 634.4958333333489,
          "velocity": 1,
          "duration": 0.24583333333339397
        },
        {
          "name": "F#3",
          "midi": 54,
          "time": 634.4958333333489,
          "velocity": 1,
          "duration": 0.24583333333339397
        },
        {
          "name": "B2",
          "midi": 47,
          "time": 634.4958333333489,
          "velocity": 1,
          "duration": 0.2500000000001137
        },
        {
          "name": "F#3",
          "midi": 54,
          "time": 634.4958333333489,
          "velocity": 1,
          "duration": 0.2500000000001137
        },
        {
          "name": "G3",
          "midi": 55,
          "time": 634.995833333349,
          "velocity": 1,
          "duration": 0.24583333333328028
        },
        {
          "name": "C3",
          "midi": 48,
          "time": 634.995833333349,
          "velocity": 1,
          "duration": 0.24583333333328028
        },
        {
          "name": "G3",
          "midi": 55,
          "time": 634.995833333349,
          "velocity": 1,
          "duration": 0.25
        },
        {
          "name": "C3",
          "midi": 48,
          "time": 634.995833333349,
          "velocity": 1,
          "duration": 0.25
        },
        {
          "name": "F#3",
          "midi": 54,
          "time": 635.245833333349,
          "velocity": 1,
          "duration": 0.24583333333328028
        },
        {
          "name": "B2",
          "midi": 47,
          "time": 635.245833333349,
          "velocity": 1,
          "duration": 0.24583333333328028
        },
        {
          "name": "B2",
          "midi": 47,
          "time": 635.245833333349,
          "velocity": 1,
          "duration": 0.25
        },
        {
          "name": "F#3",
          "midi": 54,
          "time": 635.245833333349,
          "velocity": 1,
          "duration": 0.25
        },
        {
          "name": "A2",
          "midi": 45,
          "time": 635.495833333349,
          "velocity": 1,
          "duration": 0.24583333333328028
        },
        {
          "name": "F#3",
          "midi": 54,
          "time": 635.495833333349,
          "velocity": 1,
          "duration": 0.24583333333328028
        },
        {
          "name": "F#3",
          "midi": 54,
          "time": 635.495833333349,
          "velocity": 1,
          "duration": 0.25
        },
        {
          "name": "A2",
          "midi": 45,
          "time": 635.495833333349,
          "velocity": 1,
          "duration": 0.25
        },
        {
          "name": "B2",
          "midi": 47,
          "time": 635.745833333349,
          "velocity": 1,
          "duration": 0.24583333333328028
        },
        {
          "name": "F#3",
          "midi": 54,
          "time": 635.745833333349,
          "velocity": 1,
          "duration": 0.24583333333328028
        },
        {
          "name": "F#3",
          "midi": 54,
          "time": 635.745833333349,
          "velocity": 1,
          "duration": 0.25
        },
        {
          "name": "B2",
          "midi": 47,
          "time": 635.745833333349,
          "velocity": 1,
          "duration": 0.25
        },
        {
          "name": "F#2",
          "midi": 42,
          "time": 635.995833333349,
          "velocity": 1,
          "duration": 0.24583333333339397
        },
        {
          "name": "F#2",
          "midi": 42,
          "time": 635.995833333349,
          "velocity": 1,
          "duration": 0.2500000000001137
        },
        {
          "name": "F#5",
          "midi": 78,
          "time": 636.0000000000157,
          "velocity": 1,
          "duration": 0.2500000000001137
        },
        {
          "name": "F#4",
          "midi": 66,
          "time": 636.0000000000157,
          "velocity": 1,
          "duration": 0.25833333333355313
        },
        {
          "name": "F#2",
          "midi": 42,
          "time": 636.2458333333491,
          "velocity": 1,
          "duration": 0.24583333333350765
        },
        {
          "name": "F#2",
          "midi": 42,
          "time": 636.2458333333491,
          "velocity": 1,
          "duration": 0.2500000000002274
        },
        {
          "name": "F#5",
          "midi": 78,
          "time": 636.2500000000158,
          "velocity": 1,
          "duration": 0.5000000000002274
        },
        {
          "name": "F#4",
          "midi": 66,
          "time": 636.2541666666825,
          "velocity": 1,
          "duration": 0.5125000000001592
        },
        {
          "name": "F#2",
          "midi": 42,
          "time": 636.4958333333493,
          "velocity": 1,
          "duration": 0.24583333333328028
        },
        {
          "name": "F#2",
          "midi": 42,
          "time": 636.4958333333493,
          "velocity": 1,
          "duration": 0.25
        },
        {
          "name": "F#2",
          "midi": 42,
          "time": 636.7458333333493,
          "velocity": 1,
          "duration": 0.24583333333339397
        },
        {
          "name": "F#2",
          "midi": 42,
          "time": 636.7458333333493,
          "velocity": 1,
          "duration": 0.2500000000001137
        },
        {
          "name": "F#5",
          "midi": 78,
          "time": 636.750000000016,
          "velocity": 1,
          "duration": 0.5000000000002274
        },
        {
          "name": "F#4",
          "midi": 66,
          "time": 636.7583333333494,
          "velocity": 1,
          "duration": 0.5041666666669471
        },
        {
          "name": "F#2",
          "midi": 42,
          "time": 636.9958333333494,
          "velocity": 1,
          "duration": 0.24583333333339397
        },
        {
          "name": "F#2",
          "midi": 42,
          "time": 636.9958333333494,
          "velocity": 1,
          "duration": 0.2500000000001137
        },
        {
          "name": "F#4",
          "midi": 66,
          "time": 637.2375000000161,
          "velocity": 1,
          "duration": 0.49583333333350765
        },
        {
          "name": "F#2",
          "midi": 42,
          "time": 637.2458333333495,
          "velocity": 1,
          "duration": 0.24583333333339397
        },
        {
          "name": "F#2",
          "midi": 42,
          "time": 637.2458333333495,
          "velocity": 1,
          "duration": 0.2500000000001137
        },
        {
          "name": "F#5",
          "midi": 78,
          "time": 637.2500000000163,
          "velocity": 1,
          "duration": 0.5000000000001137
        },
        {
          "name": "F#2",
          "midi": 42,
          "time": 637.4958333333497,
          "velocity": 1,
          "duration": 0.24583333333328028
        },
        {
          "name": "F#2",
          "midi": 42,
          "time": 637.4958333333497,
          "velocity": 1,
          "duration": 0.25
        },
        {
          "name": "F#2",
          "midi": 42,
          "time": 637.7458333333497,
          "velocity": 1,
          "duration": 0.24583333333339397
        },
        {
          "name": "F#2",
          "midi": 42,
          "time": 637.7458333333497,
          "velocity": 1,
          "duration": 0.2500000000001137
        },
        {
          "name": "F#5",
          "midi": 78,
          "time": 637.7500000000164,
          "velocity": 1,
          "duration": 0.7500000000001137
        },
        {
          "name": "F#4",
          "midi": 66,
          "time": 637.7500000000164,
          "velocity": 1,
          "duration": 0.7625000000001592
        },
        {
          "name": "F#2",
          "midi": 42,
          "time": 637.9958333333498,
          "velocity": 1,
          "duration": 0.24583333333328028
        },
        {
          "name": "F#2",
          "midi": 42,
          "time": 637.9958333333498,
          "velocity": 1,
          "duration": 0.25
        },
        {
          "name": "F#3",
          "midi": 54,
          "time": 638.2458333333498,
          "velocity": 1,
          "duration": 0.37083333333339397
        },
        {
          "name": "A2",
          "midi": 45,
          "time": 638.2458333333498,
          "velocity": 1,
          "duration": 0.24583333333328028
        },
        {
          "name": "F#3",
          "midi": 54,
          "time": 638.2458333333498,
          "velocity": 1,
          "duration": 0.5000000000001137
        },
        {
          "name": "A2",
          "midi": 45,
          "time": 638.2458333333498,
          "velocity": 1,
          "duration": 0.25
        },
        {
          "name": "B2",
          "midi": 47,
          "time": 638.4958333333498,
          "velocity": 1,
          "duration": 0.24583333333339397
        },
        {
          "name": "B2",
          "midi": 47,
          "time": 638.4958333333498,
          "velocity": 1,
          "duration": 0.2500000000001137
        },
        {
          "name": "A2",
          "midi": 45,
          "time": 638.7458333333499,
          "velocity": 1,
          "duration": 0.24583333333328028
        },
        {
          "name": "F#3",
          "midi": 54,
          "time": 638.7458333333499,
          "velocity": 1,
          "duration": 0.3708333333332803
        },
        {
          "name": "F#3",
          "midi": 54,
          "time": 638.7458333333499,
          "velocity": 1,
          "duration": 0.5
        },
        {
          "name": "A2",
          "midi": 45,
          "time": 638.7458333333499,
          "velocity": 1,
          "duration": 0.25
        },
        {
          "name": "B2",
          "midi": 47,
          "time": 638.9958333333499,
          "velocity": 1,
          "duration": 0.24583333333328028
        },
        {
          "name": "B2",
          "midi": 47,
          "time": 638.9958333333499,
          "velocity": 1,
          "duration": 0.25
        },
        {
          "name": "F#4",
          "midi": 66,
          "time": 639.2458333333499,
          "velocity": 1,
          "duration": 0.25833333333355313
        },
        {
          "name": "F#2",
          "midi": 42,
          "time": 639.2458333333499,
          "velocity": 1,
          "duration": 0.24583333333339397
        },
        {
          "name": "F#2",
          "midi": 42,
          "time": 639.2458333333499,
          "velocity": 1,
          "duration": 0.2500000000001137
        },
        {
          "name": "F#5",
          "midi": 78,
          "time": 639.2500000000166,
          "velocity": 1,
          "duration": 0.2500000000001137
        },
        {
          "name": "F#4",
          "midi": 66,
          "time": 639.4916666666833,
          "velocity": 1,
          "duration": 0.5208333333337123
        },
        {
          "name": "F#2",
          "midi": 42,
          "time": 639.49583333335,
          "velocity": 1,
          "duration": 0.24583333333339397
        },
        {
          "name": "F#2",
          "midi": 42,
          "time": 639.49583333335,
          "velocity": 1,
          "duration": 0.2500000000001137
        },
        {
          "name": "F#5",
          "midi": 78,
          "time": 639.5000000000167,
          "velocity": 1,
          "duration": 0.5000000000002274
        },
        {
          "name": "F#2",
          "midi": 42,
          "time": 639.7458333333501,
          "velocity": 1,
          "duration": 0.24583333333339397
        },
        {
          "name": "F#2",
          "midi": 42,
          "time": 639.7458333333501,
          "velocity": 1,
          "duration": 0.2500000000001137
        },
        {
          "name": "F#4",
          "midi": 66,
          "time": 639.9875000000168,
          "velocity": 1,
          "duration": 0.48333333333357587
        },
        {
          "name": "F#2",
          "midi": 42,
          "time": 639.9958333333502,
          "velocity": 1,
          "duration": 0.24583333333339397
        },
        {
          "name": "F#2",
          "midi": 42,
          "time": 639.9958333333502,
          "velocity": 1,
          "duration": 0.2500000000001137
        },
        {
          "name": "F#5",
          "midi": 78,
          "time": 640.0000000000169,
          "velocity": 1,
          "duration": 0.5000000000002274
        },
        {
          "name": "F#2",
          "midi": 42,
          "time": 640.2458333333503,
          "velocity": 1,
          "duration": 0.24583333333339397
        },
        {
          "name": "F#2",
          "midi": 42,
          "time": 640.2458333333503,
          "velocity": 1,
          "duration": 0.2500000000001137
        },
        {
          "name": "F#2",
          "midi": 42,
          "time": 640.4958333333504,
          "velocity": 1,
          "duration": 0.24583333333339397
        },
        {
          "name": "F#2",
          "midi": 42,
          "time": 640.4958333333504,
          "velocity": 1,
          "duration": 0.2500000000001137
        },
        {
          "name": "F#5",
          "midi": 78,
          "time": 640.5000000000172,
          "velocity": 1,
          "duration": 0.5000000000002274
        },
        {
          "name": "F#4",
          "midi": 66,
          "time": 640.5083333333505,
          "velocity": 1,
          "duration": 0.5041666666669471
        },
        {
          "name": "F#2",
          "midi": 42,
          "time": 640.7458333333506,
          "velocity": 1,
          "duration": 0.24583333333339397
        },
        {
          "name": "F#2",
          "midi": 42,
          "time": 640.7458333333506,
          "velocity": 1,
          "duration": 0.2500000000001137
        },
        {
          "name": "F#4",
          "midi": 66,
          "time": 640.9875000000172,
          "velocity": 1,
          "duration": 1.2666666666669926
        },
        {
          "name": "F#2",
          "midi": 42,
          "time": 640.9958333333507,
          "velocity": 1,
          "duration": 0.24583333333339397
        },
        {
          "name": "F#2",
          "midi": 42,
          "time": 640.9958333333507,
          "velocity": 1,
          "duration": 0.2500000000001137
        },
        {
          "name": "F#5",
          "midi": 78,
          "time": 641.0000000000174,
          "velocity": 1,
          "duration": 1.2500000000001137
        },
        {
          "name": "F#2",
          "midi": 42,
          "time": 641.2458333333508,
          "velocity": 1,
          "duration": 0.24583333333328028
        },
        {
          "name": "F#2",
          "midi": 42,
          "time": 641.2458333333508,
          "velocity": 1,
          "duration": 0.25
        },
        {
          "name": "A2",
          "midi": 45,
          "time": 641.4958333333508,
          "velocity": 1,
          "duration": 0.24583333333328028
        },
        {
          "name": "F#3",
          "midi": 54,
          "time": 641.4958333333508,
          "velocity": 1,
          "duration": 0.24583333333328028
        },
        {
          "name": "A2",
          "midi": 45,
          "time": 641.4958333333508,
          "velocity": 1,
          "duration": 0.25
        },
        {
          "name": "F#3",
          "midi": 54,
          "time": 641.4958333333508,
          "velocity": 1,
          "duration": 0.25
        },
        {
          "name": "B2",
          "midi": 47,
          "time": 641.7458333333508,
          "velocity": 1,
          "duration": 0.24583333333328028
        },
        {
          "name": "F#3",
          "midi": 54,
          "time": 641.7458333333508,
          "velocity": 1,
          "duration": 0.24583333333328028
        },
        {
          "name": "F#3",
          "midi": 54,
          "time": 641.7458333333508,
          "velocity": 1,
          "duration": 0.25
        },
        {
          "name": "B2",
          "midi": 47,
          "time": 641.7458333333508,
          "velocity": 1,
          "duration": 0.25
        },
        {
          "name": "G3",
          "midi": 55,
          "time": 642.2458333333508,
          "velocity": 1,
          "duration": 0.24583333333339397
        },
        {
          "name": "C3",
          "midi": 48,
          "time": 642.2458333333508,
          "velocity": 1,
          "duration": 0.24583333333339397
        },
        {
          "name": "G3",
          "midi": 55,
          "time": 642.2458333333508,
          "velocity": 1,
          "duration": 0.2500000000001137
        },
        {
          "name": "C3",
          "midi": 48,
          "time": 642.2458333333508,
          "velocity": 1,
          "duration": 0.2500000000001137
        },
        {
          "name": "F#3",
          "midi": 54,
          "time": 642.4958333333509,
          "velocity": 1,
          "duration": 0.24583333333328028
        },
        {
          "name": "B2",
          "midi": 47,
          "time": 642.4958333333509,
          "velocity": 1,
          "duration": 0.24583333333328028
        },
        {
          "name": "B2",
          "midi": 47,
          "time": 642.4958333333509,
          "velocity": 1,
          "duration": 0.25
        },
        {
          "name": "F#3",
          "midi": 54,
          "time": 642.4958333333509,
          "velocity": 1,
          "duration": 0.25
        },
        {
          "name": "A2",
          "midi": 45,
          "time": 642.7458333333509,
          "velocity": 1,
          "duration": 0.24583333333328028
        },
        {
          "name": "F#3",
          "midi": 54,
          "time": 642.7458333333509,
          "velocity": 1,
          "duration": 0.24583333333328028
        },
        {
          "name": "F#3",
          "midi": 54,
          "time": 642.7458333333509,
          "velocity": 1,
          "duration": 0.25
        },
        {
          "name": "A2",
          "midi": 45,
          "time": 642.7458333333509,
          "velocity": 1,
          "duration": 0.25
        },
        {
          "name": "B2",
          "midi": 47,
          "time": 642.9958333333509,
          "velocity": 1,
          "duration": 0.24583333333328028
        },
        {
          "name": "F#3",
          "midi": 54,
          "time": 642.9958333333509,
          "velocity": 1,
          "duration": 0.24583333333328028
        },
        {
          "name": "B2",
          "midi": 47,
          "time": 642.9958333333509,
          "velocity": 1,
          "duration": 0.25
        },
        {
          "name": "F#3",
          "midi": 54,
          "time": 642.9958333333509,
          "velocity": 1,
          "duration": 0.25
        },
        {
          "name": "F#4",
          "midi": 66,
          "time": 643.2458333333509,
          "velocity": 1,
          "duration": 0.2541666666668334
        },
        {
          "name": "F#2",
          "midi": 42,
          "time": 643.2458333333509,
          "velocity": 1,
          "duration": 0.24583333333339397
        },
        {
          "name": "F#2",
          "midi": 42,
          "time": 643.2458333333509,
          "velocity": 1,
          "duration": 0.2500000000001137
        },
        {
          "name": "F#5",
          "midi": 78,
          "time": 643.2500000000176,
          "velocity": 1,
          "duration": 0.2500000000001137
        },
        {
          "name": "F#2",
          "midi": 42,
          "time": 643.495833333351,
          "velocity": 1,
          "duration": 0.24583333333339397
        },
        {
          "name": "F#2",
          "midi": 42,
          "time": 643.495833333351,
          "velocity": 1,
          "duration": 0.2500000000001137
        },
        {
          "name": "F#5",
          "midi": 78,
          "time": 643.5000000000177,
          "velocity": 1,
          "duration": 0.5000000000001137
        },
        {
          "name": "F#4",
          "midi": 66,
          "time": 643.5000000000177,
          "velocity": 1,
          "duration": 0.5208333333334849
        },
        {
          "name": "F#2",
          "midi": 42,
          "time": 643.7458333333511,
          "velocity": 1,
          "duration": 0.24583333333328028
        },
        {
          "name": "F#2",
          "midi": 42,
          "time": 643.7458333333511,
          "velocity": 1,
          "duration": 0.25
        },
        {
          "name": "F#4",
          "midi": 66,
          "time": 643.9916666666844,
          "velocity": 1,
          "duration": 0.5000000000001137
        },
        {
          "name": "F#2",
          "midi": 42,
          "time": 643.9958333333511,
          "velocity": 1,
          "duration": 0.24583333333339397
        },
        {
          "name": "F#2",
          "midi": 42,
          "time": 643.9958333333511,
          "velocity": 1,
          "duration": 0.2500000000001137
        },
        {
          "name": "F#5",
          "midi": 78,
          "time": 644.0000000000178,
          "velocity": 1,
          "duration": 0.5000000000001137
        },
        {
          "name": "F#2",
          "midi": 42,
          "time": 644.2458333333512,
          "velocity": 1,
          "duration": 0.24583333333328028
        },
        {
          "name": "F#2",
          "midi": 42,
          "time": 644.2458333333512,
          "velocity": 1,
          "duration": 0.25
        },
        {
          "name": "F#2",
          "midi": 42,
          "time": 644.4958333333512,
          "velocity": 1,
          "duration": 0.24583333333339397
        },
        {
          "name": "F#2",
          "midi": 42,
          "time": 644.4958333333512,
          "velocity": 1,
          "duration": 0.2500000000001137
        },
        {
          "name": "F#5",
          "midi": 78,
          "time": 644.500000000018,
          "velocity": 1,
          "duration": 0.5000000000001137
        },
        {
          "name": "F#4",
          "midi": 66,
          "time": 644.500000000018,
          "velocity": 1,
          "duration": 0.49583333333339397
        },
        {
          "name": "F#2",
          "midi": 42,
          "time": 644.7458333333514,
          "velocity": 1,
          "duration": 0.24583333333328028
        },
        {
          "name": "F#2",
          "midi": 42,
          "time": 644.7458333333514,
          "velocity": 1,
          "duration": 0.25
        },
        {
          "name": "F#4",
          "midi": 66,
          "time": 644.9916666666846,
          "velocity": 1,
          "duration": 1.495833333333394
        },
        {
          "name": "F#2",
          "midi": 42,
          "time": 644.9958333333514,
          "velocity": 1,
          "duration": 0.24583333333339397
        },
        {
          "name": "F#2",
          "midi": 42,
          "time": 644.9958333333514,
          "velocity": 1,
          "duration": 0.2500000000001137
        },
        {
          "name": "F#5",
          "midi": 78,
          "time": 645.0000000000181,
          "velocity": 1,
          "duration": 1.5000000000001137
        },
        {
          "name": "F#2",
          "midi": 42,
          "time": 645.2458333333515,
          "velocity": 1,
          "duration": 0.24583333333328028
        },
        {
          "name": "F#2",
          "midi": 42,
          "time": 645.2458333333515,
          "velocity": 1,
          "duration": 0.25
        },
        {
          "name": "A2",
          "midi": 45,
          "time": 645.4958333333515,
          "velocity": 1,
          "duration": 0.24583333333328028
        },
        {
          "name": "F#3",
          "midi": 54,
          "time": 645.4958333333515,
          "velocity": 1,
          "duration": 0.3708333333332803
        },
        {
          "name": "F#3",
          "midi": 54,
          "time": 645.4958333333515,
          "velocity": 1,
          "duration": 0.5
        },
        {
          "name": "A2",
          "midi": 45,
          "time": 645.4958333333515,
          "velocity": 1,
          "duration": 0.25
        },
        {
          "name": "B2",
          "midi": 47,
          "time": 645.7458333333515,
          "velocity": 1,
          "duration": 0.24583333333328028
        },
        {
          "name": "B2",
          "midi": 47,
          "time": 645.7458333333515,
          "velocity": 1,
          "duration": 0.25
        },
        {
          "name": "A2",
          "midi": 45,
          "time": 645.9958333333515,
          "velocity": 1,
          "duration": 0.24583333333328028
        },
        {
          "name": "F#3",
          "midi": 54,
          "time": 645.9958333333515,
          "velocity": 1,
          "duration": 0.3708333333332803
        },
        {
          "name": "F#3",
          "midi": 54,
          "time": 645.9958333333515,
          "velocity": 1,
          "duration": 0.5
        },
        {
          "name": "A2",
          "midi": 45,
          "time": 645.9958333333515,
          "velocity": 1,
          "duration": 0.25
        },
        {
          "name": "B2",
          "midi": 47,
          "time": 646.2458333333515,
          "velocity": 1,
          "duration": 0.24583333333328028
        },
        {
          "name": "B2",
          "midi": 47,
          "time": 646.2458333333515,
          "velocity": 1,
          "duration": 0.25
        },
        {
          "name": "B2",
          "midi": 47,
          "time": 646.4958333333515,
          "velocity": 1,
          "duration": 0.24583333333339397
        },
        {
          "name": "B3",
          "midi": 59,
          "time": 646.4958333333515,
          "velocity": 1,
          "duration": 0.24583333333339397
        },
        {
          "name": "F#3",
          "midi": 54,
          "time": 646.4958333333515,
          "velocity": 1,
          "duration": 0.24583333333339397
        },
        {
          "name": "B3",
          "midi": 59,
          "time": 646.4958333333515,
          "velocity": 1,
          "duration": 0.2500000000001137
        },
        {
          "name": "F#3",
          "midi": 54,
          "time": 646.4958333333515,
          "velocity": 1,
          "duration": 0.2500000000001137
        },
        {
          "name": "B2",
          "midi": 47,
          "time": 646.4958333333515,
          "velocity": 1,
          "duration": 0.2500000000001137
        },
        {
          "name": "B3",
          "midi": 59,
          "time": 646.7458333333516,
          "velocity": 1,
          "duration": 0.24583333333328028
        },
        {
          "name": "F#3",
          "midi": 54,
          "time": 646.7458333333516,
          "velocity": 1,
          "duration": 0.24583333333328028
        },
        {
          "name": "B2",
          "midi": 47,
          "time": 646.7458333333516,
          "velocity": 1,
          "duration": 0.24583333333328028
        },
        {
          "name": "B3",
          "midi": 59,
          "time": 646.7458333333516,
          "velocity": 1,
          "duration": 0.25
        },
        {
          "name": "F#3",
          "midi": 54,
          "time": 646.7458333333516,
          "velocity": 1,
          "duration": 0.25
        },
        {
          "name": "B2",
          "midi": 47,
          "time": 646.7458333333516,
          "velocity": 1,
          "duration": 0.25
        },
        {
          "name": "B3",
          "midi": 59,
          "time": 646.9958333333516,
          "velocity": 1,
          "duration": 0.24583333333328028
        },
        {
          "name": "B2",
          "midi": 47,
          "time": 646.9958333333516,
          "velocity": 1,
          "duration": 0.24583333333328028
        },
        {
          "name": "F#3",
          "midi": 54,
          "time": 646.9958333333516,
          "velocity": 1,
          "duration": 0.24583333333328028
        },
        {
          "name": "F#3",
          "midi": 54,
          "time": 646.9958333333516,
          "velocity": 1,
          "duration": 0.25
        },
        {
          "name": "B2",
          "midi": 47,
          "time": 646.9958333333516,
          "velocity": 1,
          "duration": 0.25
        },
        {
          "name": "B3",
          "midi": 59,
          "time": 646.9958333333516,
          "velocity": 1,
          "duration": 0.25
        },
        {
          "name": "B2",
          "midi": 47,
          "time": 647.2458333333516,
          "velocity": 1,
          "duration": 0.24583333333328028
        },
        {
          "name": "F#3",
          "midi": 54,
          "time": 647.2458333333516,
          "velocity": 1,
          "duration": 0.24583333333328028
        },
        {
          "name": "B3",
          "midi": 59,
          "time": 647.2458333333516,
          "velocity": 1,
          "duration": 0.24583333333328028
        },
        {
          "name": "B3",
          "midi": 59,
          "time": 647.2458333333516,
          "velocity": 1,
          "duration": 0.25
        },
        {
          "name": "B2",
          "midi": 47,
          "time": 647.2458333333516,
          "velocity": 1,
          "duration": 0.25
        },
        {
          "name": "F#3",
          "midi": 54,
          "time": 647.2458333333516,
          "velocity": 1,
          "duration": 0.25
        },
        {
          "name": "B3",
          "midi": 59,
          "time": 647.4958333333516,
          "velocity": 1,
          "duration": 0.24583333333328028
        },
        {
          "name": "F#3",
          "midi": 54,
          "time": 647.4958333333516,
          "velocity": 1,
          "duration": 0.24583333333328028
        },
        {
          "name": "B2",
          "midi": 47,
          "time": 647.4958333333516,
          "velocity": 1,
          "duration": 0.24583333333328028
        },
        {
          "name": "B3",
          "midi": 59,
          "time": 647.4958333333516,
          "velocity": 1,
          "duration": 0.25
        },
        {
          "name": "B2",
          "midi": 47,
          "time": 647.4958333333516,
          "velocity": 1,
          "duration": 0.25
        },
        {
          "name": "F#3",
          "midi": 54,
          "time": 647.4958333333516,
          "velocity": 1,
          "duration": 0.25
        },
        {
          "name": "B2",
          "midi": 47,
          "time": 647.7458333333516,
          "velocity": 1,
          "duration": 0.24583333333328028
        },
        {
          "name": "B3",
          "midi": 59,
          "time": 647.7458333333516,
          "velocity": 1,
          "duration": 0.24583333333328028
        },
        {
          "name": "F#3",
          "midi": 54,
          "time": 647.7458333333516,
          "velocity": 1,
          "duration": 0.24583333333328028
        },
        {
          "name": "B3",
          "midi": 59,
          "time": 647.7458333333516,
          "velocity": 1,
          "duration": 0.25
        },
        {
          "name": "F#3",
          "midi": 54,
          "time": 647.7458333333516,
          "velocity": 1,
          "duration": 0.25
        },
        {
          "name": "B2",
          "midi": 47,
          "time": 647.7458333333516,
          "velocity": 1,
          "duration": 0.25
        },
        {
          "name": "B3",
          "midi": 59,
          "time": 647.9958333333516,
          "velocity": 1,
          "duration": 0.24583333333328028
        },
        {
          "name": "F#3",
          "midi": 54,
          "time": 647.9958333333516,
          "velocity": 1,
          "duration": 0.24583333333328028
        },
        {
          "name": "B2",
          "midi": 47,
          "time": 647.9958333333516,
          "velocity": 1,
          "duration": 0.24583333333328028
        },
        {
          "name": "F#3",
          "midi": 54,
          "time": 647.9958333333516,
          "velocity": 1,
          "duration": 0.25
        },
        {
          "name": "B3",
          "midi": 59,
          "time": 647.9958333333516,
          "velocity": 1,
          "duration": 0.25
        },
        {
          "name": "B2",
          "midi": 47,
          "time": 647.9958333333516,
          "velocity": 1,
          "duration": 0.25
        },
        {
          "name": "B3",
          "midi": 59,
          "time": 648.2458333333516,
          "velocity": 1,
          "duration": 0.24583333333328028
        },
        {
          "name": "F#3",
          "midi": 54,
          "time": 648.2458333333516,
          "velocity": 1,
          "duration": 0.24583333333328028
        },
        {
          "name": "B2",
          "midi": 47,
          "time": 648.2458333333516,
          "velocity": 1,
          "duration": 0.24583333333328028
        },
        {
          "name": "B3",
          "midi": 59,
          "time": 648.2458333333516,
          "velocity": 1,
          "duration": 0.25
        },
        {
          "name": "F#3",
          "midi": 54,
          "time": 648.2458333333516,
          "velocity": 1,
          "duration": 0.25
        },
        {
          "name": "B2",
          "midi": 47,
          "time": 648.2458333333516,
          "velocity": 1,
          "duration": 0.25
        },
        {
          "name": "B3",
          "midi": 59,
          "time": 648.4958333333516,
          "velocity": 1,
          "duration": 0.25
        },
        {
          "name": "E4",
          "midi": 64,
          "time": 648.4958333333516,
          "velocity": 1,
          "duration": 0.25
        },
        {
          "name": "E3",
          "midi": 52,
          "time": 648.4958333333516,
          "velocity": 1,
          "duration": 0.25
        },
        {
          "name": "E2",
          "midi": 40,
          "time": 648.4958333333516,
          "velocity": 1,
          "duration": 0.25
        },
        {
          "name": "E2",
          "midi": 40,
          "time": 648.4958333333516,
          "velocity": 1,
          "duration": 0.25
        },
        {
          "name": "B3",
          "midi": 59,
          "time": 648.4958333333516,
          "velocity": 1,
          "duration": 0.25
        },
        {
          "name": "E4",
          "midi": 64,
          "time": 648.4958333333516,
          "velocity": 1,
          "duration": 0.25
        },
        {
          "name": "E3",
          "midi": 52,
          "time": 648.4958333333516,
          "velocity": 1,
          "duration": 0.25
        },
        {
          "name": "E2",
          "midi": 40,
          "time": 648.7458333333516,
          "velocity": 1,
          "duration": 0.25
        },
        {
          "name": "E2",
          "midi": 40,
          "time": 648.7458333333516,
          "velocity": 1,
          "duration": 0.25
        },
        {
          "name": "E2",
          "midi": 40,
          "time": 648.9958333333516,
          "velocity": 1,
          "duration": 0.25
        },
        {
          "name": "E2",
          "midi": 40,
          "time": 648.9958333333516,
          "velocity": 1,
          "duration": 0.25
        },
        {
          "name": "E2",
          "midi": 40,
          "time": 649.2458333333516,
          "velocity": 1,
          "duration": 0.25
        },
        {
          "name": "E2",
          "midi": 40,
          "time": 649.2458333333516,
          "velocity": 1,
          "duration": 0.25
        },
        {
          "name": "A3",
          "midi": 57,
          "time": 649.4958333333516,
          "velocity": 1,
          "duration": 0.5000000000005684
        },
        {
          "name": "D3",
          "midi": 50,
          "time": 649.4958333333516,
          "velocity": 1,
          "duration": 0.5000000000005684
        },
        {
          "name": "D4",
          "midi": 62,
          "time": 649.4958333333516,
          "velocity": 1,
          "duration": 0.5000000000005684
        },
        {
          "name": "A3",
          "midi": 57,
          "time": 649.4958333333516,
          "velocity": 1,
          "duration": 0.5000000000005684
        },
        {
          "name": "D4",
          "midi": 62,
          "time": 649.4958333333516,
          "velocity": 1,
          "duration": 0.5000000000005684
        },
        {
          "name": "D3",
          "midi": 50,
          "time": 649.4958333333516,
          "velocity": 1,
          "duration": 0.5000000000005684
        },
        {
          "name": "E3",
          "midi": 52,
          "time": 649.9958333333522,
          "velocity": 1,
          "duration": 0.5
        },
        {
          "name": "E4",
          "midi": 64,
          "time": 649.9958333333522,
          "velocity": 1,
          "duration": 0.5
        },
        {
          "name": "B3",
          "midi": 59,
          "time": 649.9958333333522,
          "velocity": 1,
          "duration": 0.5
        },
        {
          "name": "E4",
          "midi": 64,
          "time": 649.9958333333522,
          "velocity": 1,
          "duration": 0.5
        },
        {
          "name": "B3",
          "midi": 59,
          "time": 649.9958333333522,
          "velocity": 1,
          "duration": 0.5
        },
        {
          "name": "E3",
          "midi": 52,
          "time": 649.9958333333522,
          "velocity": 1,
          "duration": 0.5
        },
        {
          "name": "E3",
          "midi": 52,
          "time": 650.4958333333522,
          "velocity": 1,
          "duration": 0.25
        },
        {
          "name": "E3",
          "midi": 52,
          "time": 650.4958333333522,
          "velocity": 1,
          "duration": 0.25
        },
        {
          "name": "F#3",
          "midi": 54,
          "time": 650.7458333333522,
          "velocity": 1,
          "duration": 0.25
        },
        {
          "name": "F#3",
          "midi": 54,
          "time": 650.7458333333522,
          "velocity": 1,
          "duration": 0.25
        },
        {
          "name": "B3",
          "midi": 59,
          "time": 650.9958333333522,
          "velocity": 1,
          "duration": 0.25
        },
        {
          "name": "B3",
          "midi": 59,
          "time": 650.9958333333522,
          "velocity": 1,
          "duration": 0.25
        },
        {
          "name": "G3",
          "midi": 55,
          "time": 651.2458333333522,
          "velocity": 1,
          "duration": 0.25
        },
        {
          "name": "G3",
          "midi": 55,
          "time": 651.2458333333522,
          "velocity": 1,
          "duration": 0.25
        },
        {
          "name": "F#3",
          "midi": 54,
          "time": 651.4958333333522,
          "velocity": 1,
          "duration": 0.25
        },
        {
          "name": "F#3",
          "midi": 54,
          "time": 651.4958333333522,
          "velocity": 1,
          "duration": 0.25
        },
        {
          "name": "G3",
          "midi": 55,
          "time": 651.7458333333522,
          "velocity": 1,
          "duration": 0.7500000000005684
        },
        {
          "name": "G3",
          "midi": 55,
          "time": 651.7458333333522,
          "velocity": 1,
          "duration": 0.7500000000005684
        },
        {
          "name": "C3",
          "midi": 48,
          "time": 652.4958333333527,
          "velocity": 1,
          "duration": 0.25
        },
        {
          "name": "C3",
          "midi": 48,
          "time": 652.4958333333527,
          "velocity": 1,
          "duration": 0.25
        },
        {
          "name": "C3",
          "midi": 48,
          "time": 652.7458333333527,
          "velocity": 1,
          "duration": 0.25
        },
        {
          "name": "C3",
          "midi": 48,
          "time": 652.7458333333527,
          "velocity": 1,
          "duration": 0.25
        },
        {
          "name": "C3",
          "midi": 48,
          "time": 652.9958333333527,
          "velocity": 1,
          "duration": 0.25
        },
        {
          "name": "C3",
          "midi": 48,
          "time": 652.9958333333527,
          "velocity": 1,
          "duration": 0.25
        },
        {
          "name": "C3",
          "midi": 48,
          "time": 653.2458333333527,
          "velocity": 1,
          "duration": 0.25
        },
        {
          "name": "C3",
          "midi": 48,
          "time": 653.2458333333527,
          "velocity": 1,
          "duration": 0.25
        },
        {
          "name": "G3",
          "midi": 55,
          "time": 653.4958333333527,
          "velocity": 1,
          "duration": 0.5
        },
        {
          "name": "C3",
          "midi": 48,
          "time": 653.4958333333527,
          "velocity": 1,
          "duration": 0.5
        },
        {
          "name": "C4",
          "midi": 60,
          "time": 653.4958333333527,
          "velocity": 1,
          "duration": 0.5
        },
        {
          "name": "G3",
          "midi": 55,
          "time": 653.4958333333527,
          "velocity": 1,
          "duration": 0.5
        },
        {
          "name": "C4",
          "midi": 60,
          "time": 653.4958333333527,
          "velocity": 1,
          "duration": 0.5
        },
        {
          "name": "C3",
          "midi": 48,
          "time": 653.4958333333527,
          "velocity": 1,
          "duration": 0.5
        },
        {
          "name": "F#4",
          "midi": 66,
          "time": 653.991666666686,
          "velocity": 1,
          "duration": 0.5166666666667652
        },
        {
          "name": "B3",
          "midi": 59,
          "time": 653.9958333333527,
          "velocity": 1,
          "duration": 0.5
        },
        {
          "name": "F#3",
          "midi": 54,
          "time": 653.9958333333527,
          "velocity": 1,
          "duration": 0.5
        },
        {
          "name": "B2",
          "midi": 47,
          "time": 653.9958333333527,
          "velocity": 1,
          "duration": 0.5
        },
        {
          "name": "B3",
          "midi": 59,
          "time": 653.9958333333527,
          "velocity": 1,
          "duration": 0.5
        },
        {
          "name": "F#3",
          "midi": 54,
          "time": 653.9958333333527,
          "velocity": 1,
          "duration": 0.5
        },
        {
          "name": "B2",
          "midi": 47,
          "time": 653.9958333333527,
          "velocity": 1,
          "duration": 0.5
        },
        {
          "name": "F#5",
          "midi": 78,
          "time": 654.0000000000194,
          "velocity": 1,
          "duration": 0.5
        },
        {
          "name": "G4",
          "midi": 67,
          "time": 654.4875000000194,
          "velocity": 1,
          "duration": 1.020833333333485
        },
        {
          "name": "C3",
          "midi": 48,
          "time": 654.4958333333527,
          "velocity": 1,
          "duration": 0.25
        },
        {
          "name": "C3",
          "midi": 48,
          "time": 654.4958333333527,
          "velocity": 1,
          "duration": 0.25
        },
        {
          "name": "G5",
          "midi": 79,
          "time": 654.5000000000194,
          "velocity": 1,
          "duration": 1
        },
        {
          "name": "C3",
          "midi": 48,
          "time": 654.7458333333527,
          "velocity": 1,
          "duration": 0.25
        },
        {
          "name": "C3",
          "midi": 48,
          "time": 654.7458333333527,
          "velocity": 1,
          "duration": 0.25
        },
        {
          "name": "C3",
          "midi": 48,
          "time": 654.9958333333527,
          "velocity": 1,
          "duration": 0.25
        },
        {
          "name": "C3",
          "midi": 48,
          "time": 654.9958333333527,
          "velocity": 1,
          "duration": 0.25
        },
        {
          "name": "C3",
          "midi": 48,
          "time": 655.2458333333527,
          "velocity": 1,
          "duration": 0.25
        },
        {
          "name": "C3",
          "midi": 48,
          "time": 655.2458333333527,
          "velocity": 1,
          "duration": 0.25
        },
        {
          "name": "D#4",
          "midi": 63,
          "time": 655.4958333333527,
          "velocity": 1,
          "duration": 0.5000000000001137
        },
        {
          "name": "A#3",
          "midi": 58,
          "time": 655.4958333333527,
          "velocity": 1,
          "duration": 0.5000000000001137
        },
        {
          "name": "D#3",
          "midi": 51,
          "time": 655.4958333333527,
          "velocity": 1,
          "duration": 0.5000000000001137
        },
        {
          "name": "D#4",
          "midi": 63,
          "time": 655.4958333333527,
          "velocity": 1,
          "duration": 0.5000000000001137
        },
        {
          "name": "A#3",
          "midi": 58,
          "time": 655.4958333333527,
          "velocity": 1,
          "duration": 0.5000000000001137
        },
        {
          "name": "D#3",
          "midi": 51,
          "time": 655.4958333333527,
          "velocity": 1,
          "duration": 0.5000000000001137
        },
        {
          "name": "F#5",
          "midi": 78,
          "time": 655.5000000000194,
          "velocity": 1,
          "duration": 1.0000000000001137
        },
        {
          "name": "F#4",
          "midi": 66,
          "time": 655.5041666666862,
          "velocity": 1,
          "duration": 0.9833333333333485
        },
        {
          "name": "B3",
          "midi": 59,
          "time": 655.9958333333528,
          "velocity": 1,
          "duration": 0.25
        },
        {
          "name": "F#3",
          "midi": 54,
          "time": 655.9958333333528,
          "velocity": 1,
          "duration": 0.25
        },
        {
          "name": "B2",
          "midi": 47,
          "time": 655.9958333333528,
          "velocity": 1,
          "duration": 0.25
        },
        {
          "name": "F#3",
          "midi": 54,
          "time": 655.9958333333528,
          "velocity": 1,
          "duration": 0.25
        },
        {
          "name": "B3",
          "midi": 59,
          "time": 655.9958333333528,
          "velocity": 1,
          "duration": 0.25
        },
        {
          "name": "B2",
          "midi": 47,
          "time": 655.9958333333528,
          "velocity": 1,
          "duration": 0.25
        },
        {
          "name": "F#4",
          "midi": 66,
          "time": 656.4875000000195,
          "velocity": 1,
          "duration": 0.4874999999999545
        },
        {
          "name": "B3",
          "midi": 59,
          "time": 656.4958333333528,
          "velocity": 1,
          "duration": 0.25
        },
        {
          "name": "E4",
          "midi": 64,
          "time": 656.4958333333528,
          "velocity": 1,
          "duration": 0.25
        },
        {
          "name": "E3",
          "midi": 52,
          "time": 656.4958333333528,
          "velocity": 1,
          "duration": 0.25
        },
        {
          "name": "E2",
          "midi": 40,
          "time": 656.4958333333528,
          "velocity": 1,
          "duration": 0.25
        },
        {
          "name": "E4",
          "midi": 64,
          "time": 656.4958333333528,
          "velocity": 1,
          "duration": 0.25
        },
        {
          "name": "B3",
          "midi": 59,
          "time": 656.4958333333528,
          "velocity": 1,
          "duration": 0.25
        },
        {
          "name": "E2",
          "midi": 40,
          "time": 656.4958333333528,
          "velocity": 1,
          "duration": 0.25
        },
        {
          "name": "E3",
          "midi": 52,
          "time": 656.4958333333528,
          "velocity": 1,
          "duration": 0.25
        },
        {
          "name": "F#5",
          "midi": 78,
          "time": 656.5000000000196,
          "velocity": 1,
          "duration": 0.5
        },
        {
          "name": "E2",
          "midi": 40,
          "time": 656.7458333333528,
          "velocity": 1,
          "duration": 0.25
        },
        {
          "name": "E2",
          "midi": 40,
          "time": 656.7458333333528,
          "velocity": 1,
          "duration": 0.25
        },
        {
          "name": "G4",
          "midi": 67,
          "time": 656.9916666666861,
          "velocity": 1,
          "duration": 2.4833333333333485
        },
        {
          "name": "E2",
          "midi": 40,
          "time": 656.9958333333528,
          "velocity": 1,
          "duration": 0.25
        },
        {
          "name": "E2",
          "midi": 40,
          "time": 656.9958333333528,
          "velocity": 1,
          "duration": 0.25
        },
        {
          "name": "G5",
          "midi": 79,
          "time": 657.0000000000196,
          "velocity": 1,
          "duration": 2.5
        },
        {
          "name": "E2",
          "midi": 40,
          "time": 657.2458333333528,
          "velocity": 1,
          "duration": 0.25
        },
        {
          "name": "E2",
          "midi": 40,
          "time": 657.2458333333528,
          "velocity": 1,
          "duration": 0.25
        },
        {
          "name": "A3",
          "midi": 57,
          "time": 657.4958333333528,
          "velocity": 1,
          "duration": 0.5
        },
        {
          "name": "D3",
          "midi": 50,
          "time": 657.4958333333528,
          "velocity": 1,
          "duration": 0.5
        },
        {
          "name": "D4",
          "midi": 62,
          "time": 657.4958333333528,
          "velocity": 1,
          "duration": 0.5
        },
        {
          "name": "D4",
          "midi": 62,
          "time": 657.4958333333528,
          "velocity": 1,
          "duration": 0.5
        },
        {
          "name": "A3",
          "midi": 57,
          "time": 657.4958333333528,
          "velocity": 1,
          "duration": 0.5
        },
        {
          "name": "D3",
          "midi": 50,
          "time": 657.4958333333528,
          "velocity": 1,
          "duration": 0.5
        },
        {
          "name": "E3",
          "midi": 52,
          "time": 657.9958333333528,
          "velocity": 1,
          "duration": 0.5
        },
        {
          "name": "B3",
          "midi": 59,
          "time": 657.9958333333528,
          "velocity": 1,
          "duration": 0.5
        },
        {
          "name": "E4",
          "midi": 64,
          "time": 657.9958333333528,
          "velocity": 1,
          "duration": 0.5
        },
        {
          "name": "B3",
          "midi": 59,
          "time": 657.9958333333528,
          "velocity": 1,
          "duration": 0.5
        },
        {
          "name": "E3",
          "midi": 52,
          "time": 657.9958333333528,
          "velocity": 1,
          "duration": 0.5
        },
        {
          "name": "E4",
          "midi": 64,
          "time": 657.9958333333528,
          "velocity": 1,
          "duration": 0.5
        },
        {
          "name": "E3",
          "midi": 52,
          "time": 658.4958333333528,
          "velocity": 1,
          "duration": 0.25
        },
        {
          "name": "E3",
          "midi": 52,
          "time": 658.4958333333528,
          "velocity": 1,
          "duration": 0.25
        },
        {
          "name": "F#3",
          "midi": 54,
          "time": 658.7458333333528,
          "velocity": 1,
          "duration": 0.25
        },
        {
          "name": "F#3",
          "midi": 54,
          "time": 658.7458333333528,
          "velocity": 1,
          "duration": 0.25
        },
        {
          "name": "B3",
          "midi": 59,
          "time": 658.9958333333528,
          "velocity": 1,
          "duration": 0.25
        },
        {
          "name": "B3",
          "midi": 59,
          "time": 658.9958333333528,
          "velocity": 1,
          "duration": 0.25
        },
        {
          "name": "G3",
          "midi": 55,
          "time": 659.2458333333528,
          "velocity": 1,
          "duration": 0.25
        },
        {
          "name": "G3",
          "midi": 55,
          "time": 659.2458333333528,
          "velocity": 1,
          "duration": 0.25
        },
        {
          "name": "F#3",
          "midi": 54,
          "time": 659.4958333333528,
          "velocity": 1,
          "duration": 0.25
        },
        {
          "name": "F#3",
          "midi": 54,
          "time": 659.4958333333528,
          "velocity": 1,
          "duration": 0.25
        },
        {
          "name": "G3",
          "midi": 55,
          "time": 659.7458333333528,
          "velocity": 1,
          "duration": 0.7500000000005684
        },
        {
          "name": "G3",
          "midi": 55,
          "time": 659.7458333333528,
          "velocity": 1,
          "duration": 0.7500000000005684
        },
        {
          "name": "C3",
          "midi": 48,
          "time": 660.4958333333534,
          "velocity": 1,
          "duration": 0.25
        },
        {
          "name": "C3",
          "midi": 48,
          "time": 660.4958333333534,
          "velocity": 1,
          "duration": 0.25
        },
        {
          "name": "C3",
          "midi": 48,
          "time": 660.7458333333534,
          "velocity": 1,
          "duration": 0.25
        },
        {
          "name": "C3",
          "midi": 48,
          "time": 660.7458333333534,
          "velocity": 1,
          "duration": 0.25
        },
        {
          "name": "C3",
          "midi": 48,
          "time": 660.9958333333534,
          "velocity": 1,
          "duration": 0.25
        },
        {
          "name": "C3",
          "midi": 48,
          "time": 660.9958333333534,
          "velocity": 1,
          "duration": 0.25
        },
        {
          "name": "C3",
          "midi": 48,
          "time": 661.2458333333534,
          "velocity": 1,
          "duration": 0.25
        },
        {
          "name": "C3",
          "midi": 48,
          "time": 661.2458333333534,
          "velocity": 1,
          "duration": 0.25
        },
        {
          "name": "G3",
          "midi": 55,
          "time": 661.4958333333534,
          "velocity": 1,
          "duration": 0.5
        },
        {
          "name": "C3",
          "midi": 48,
          "time": 661.4958333333534,
          "velocity": 1,
          "duration": 0.5
        },
        {
          "name": "C4",
          "midi": 60,
          "time": 661.4958333333534,
          "velocity": 1,
          "duration": 0.5
        },
        {
          "name": "C4",
          "midi": 60,
          "time": 661.4958333333534,
          "velocity": 1,
          "duration": 0.5
        },
        {
          "name": "G3",
          "midi": 55,
          "time": 661.4958333333534,
          "velocity": 1,
          "duration": 0.5
        },
        {
          "name": "C3",
          "midi": 48,
          "time": 661.4958333333534,
          "velocity": 1,
          "duration": 0.5
        },
        {
          "name": "B3",
          "midi": 59,
          "time": 661.9958333333534,
          "velocity": 1,
          "duration": 0.5000000000001137
        },
        {
          "name": "F#3",
          "midi": 54,
          "time": 661.9958333333534,
          "velocity": 1,
          "duration": 0.5000000000001137
        },
        {
          "name": "B2",
          "midi": 47,
          "time": 661.9958333333534,
          "velocity": 1,
          "duration": 0.5000000000001137
        },
        {
          "name": "F#3",
          "midi": 54,
          "time": 661.9958333333534,
          "velocity": 1,
          "duration": 0.5000000000001137
        },
        {
          "name": "B3",
          "midi": 59,
          "time": 661.9958333333534,
          "velocity": 1,
          "duration": 0.5000000000001137
        },
        {
          "name": "B2",
          "midi": 47,
          "time": 661.9958333333534,
          "velocity": 1,
          "duration": 0.5000000000001137
        },
        {
          "name": "F#5",
          "midi": 78,
          "time": 662.0000000000201,
          "velocity": 1,
          "duration": 0.5000000000001137
        },
        {
          "name": "F#4",
          "midi": 66,
          "time": 662.0041666666868,
          "velocity": 1,
          "duration": 0.5083333333334394
        },
        {
          "name": "C3",
          "midi": 48,
          "time": 662.4958333333535,
          "velocity": 1,
          "duration": 0.2500000000001137
        },
        {
          "name": "C3",
          "midi": 48,
          "time": 662.4958333333535,
          "velocity": 1,
          "duration": 0.2500000000001137
        },
        {
          "name": "G5",
          "midi": 79,
          "time": 662.5000000000202,
          "velocity": 1,
          "duration": 1.0000000000001137
        },
        {
          "name": "G4",
          "midi": 67,
          "time": 662.5083333333536,
          "velocity": 1,
          "duration": 1.020833333333485
        },
        {
          "name": "C3",
          "midi": 48,
          "time": 662.7458333333536,
          "velocity": 1,
          "duration": 0.25
        },
        {
          "name": "C3",
          "midi": 48,
          "time": 662.7458333333536,
          "velocity": 1,
          "duration": 0.25
        },
        {
          "name": "C3",
          "midi": 48,
          "time": 662.9958333333536,
          "velocity": 1,
          "duration": 0.25
        },
        {
          "name": "C3",
          "midi": 48,
          "time": 662.9958333333536,
          "velocity": 1,
          "duration": 0.25
        },
        {
          "name": "C3",
          "midi": 48,
          "time": 663.2458333333536,
          "velocity": 1,
          "duration": 0.25
        },
        {
          "name": "C3",
          "midi": 48,
          "time": 663.2458333333536,
          "velocity": 1,
          "duration": 0.25
        },
        {
          "name": "D#4",
          "midi": 63,
          "time": 663.4958333333536,
          "velocity": 1,
          "duration": 0.5000000000001137
        },
        {
          "name": "A#3",
          "midi": 58,
          "time": 663.4958333333536,
          "velocity": 1,
          "duration": 0.5000000000001137
        },
        {
          "name": "D#3",
          "midi": 51,
          "time": 663.4958333333536,
          "velocity": 1,
          "duration": 0.5000000000001137
        },
        {
          "name": "D#4",
          "midi": 63,
          "time": 663.4958333333536,
          "velocity": 1,
          "duration": 0.5000000000001137
        },
        {
          "name": "D#3",
          "midi": 51,
          "time": 663.4958333333536,
          "velocity": 1,
          "duration": 0.5000000000001137
        },
        {
          "name": "A#3",
          "midi": 58,
          "time": 663.4958333333536,
          "velocity": 1,
          "duration": 0.5000000000001137
        },
        {
          "name": "F#5",
          "midi": 78,
          "time": 663.5000000000203,
          "velocity": 1,
          "duration": 1.0000000000001137
        },
        {
          "name": "F#4",
          "midi": 66,
          "time": 663.5041666666871,
          "velocity": 1,
          "duration": 1.0041666666668334
        },
        {
          "name": "B2",
          "midi": 47,
          "time": 663.9958333333537,
          "velocity": 1,
          "duration": 0.5
        },
        {
          "name": "F#3",
          "midi": 54,
          "time": 663.9958333333537,
          "velocity": 1,
          "duration": 0.5
        },
        {
          "name": "B3",
          "midi": 59,
          "time": 663.9958333333537,
          "velocity": 1,
          "duration": 0.5
        },
        {
          "name": "B3",
          "midi": 59,
          "time": 663.9958333333537,
          "velocity": 1,
          "duration": 0.5
        },
        {
          "name": "F#3",
          "midi": 54,
          "time": 663.9958333333537,
          "velocity": 1,
          "duration": 0.5
        },
        {
          "name": "B2",
          "midi": 47,
          "time": 663.9958333333537,
          "velocity": 1,
          "duration": 0.5
        },
        {
          "name": "E2",
          "midi": 40,
          "time": 664.4958333333537,
          "velocity": 1,
          "duration": 0.2500000000001137
        },
        {
          "name": "E4",
          "midi": 64,
          "time": 664.4958333333537,
          "velocity": 1,
          "duration": 0.2500000000001137
        },
        {
          "name": "B3",
          "midi": 59,
          "time": 664.4958333333537,
          "velocity": 1,
          "duration": 0.2500000000001137
        },
        {
          "name": "E3",
          "midi": 52,
          "time": 664.4958333333537,
          "velocity": 1,
          "duration": 0.2500000000001137
        },
        {
          "name": "B3",
          "midi": 59,
          "time": 664.4958333333537,
          "velocity": 1,
          "duration": 0.2500000000001137
        },
        {
          "name": "E4",
          "midi": 64,
          "time": 664.4958333333537,
          "velocity": 1,
          "duration": 0.2500000000001137
        },
        {
          "name": "E2",
          "midi": 40,
          "time": 664.4958333333537,
          "velocity": 1,
          "duration": 0.2500000000001137
        },
        {
          "name": "E3",
          "midi": 52,
          "time": 664.4958333333537,
          "velocity": 1,
          "duration": 0.2500000000001137
        },
        {
          "name": "F#5",
          "midi": 78,
          "time": 664.5000000000205,
          "velocity": 1,
          "duration": 0.5000000000001137
        },
        {
          "name": "F#4",
          "midi": 66,
          "time": 664.5041666666872,
          "velocity": 1,
          "duration": 0.47500000000002274
        },
        {
          "name": "E2",
          "midi": 40,
          "time": 664.7458333333539,
          "velocity": 1,
          "duration": 0.25
        },
        {
          "name": "E2",
          "midi": 40,
          "time": 664.7458333333539,
          "velocity": 1,
          "duration": 0.25
        },
        {
          "name": "E2",
          "midi": 40,
          "time": 664.9958333333539,
          "velocity": 1,
          "duration": 0.25
        },
        {
          "name": "E2",
          "midi": 40,
          "time": 664.9958333333539,
          "velocity": 1,
          "duration": 0.25
        },
        {
          "name": "E5",
          "midi": 76,
          "time": 665.0000000000206,
          "velocity": 1,
          "duration": 2.5
        },
        {
          "name": "E4",
          "midi": 64,
          "time": 665.0000000000206,
          "velocity": 1,
          "duration": 1.4958333333332803
        },
        {
          "name": "E2",
          "midi": 40,
          "time": 665.2458333333539,
          "velocity": 1,
          "duration": 0.25
        },
        {
          "name": "E2",
          "midi": 40,
          "time": 665.2458333333539,
          "velocity": 1,
          "duration": 0.25
        },
        {
          "name": "D4",
          "midi": 62,
          "time": 665.4958333333539,
          "velocity": 1,
          "duration": 0.5
        },
        {
          "name": "A3",
          "midi": 57,
          "time": 665.4958333333539,
          "velocity": 1,
          "duration": 0.5
        },
        {
          "name": "D3",
          "midi": 50,
          "time": 665.4958333333539,
          "velocity": 1,
          "duration": 0.5
        },
        {
          "name": "D4",
          "midi": 62,
          "time": 665.4958333333539,
          "velocity": 1,
          "duration": 0.5
        },
        {
          "name": "D3",
          "midi": 50,
          "time": 665.4958333333539,
          "velocity": 1,
          "duration": 0.5
        },
        {
          "name": "A3",
          "midi": 57,
          "time": 665.4958333333539,
          "velocity": 1,
          "duration": 0.5
        },
        {
          "name": "E3",
          "midi": 52,
          "time": 665.9958333333539,
          "velocity": 1,
          "duration": 0.5
        },
        {
          "name": "B3",
          "midi": 59,
          "time": 665.9958333333539,
          "velocity": 1,
          "duration": 0.5
        },
        {
          "name": "E4",
          "midi": 64,
          "time": 665.9958333333539,
          "velocity": 1,
          "duration": 0.5
        },
        {
          "name": "E3",
          "midi": 52,
          "time": 665.9958333333539,
          "velocity": 1,
          "duration": 0.5
        },
        {
          "name": "B3",
          "midi": 59,
          "time": 665.9958333333539,
          "velocity": 1,
          "duration": 0.5
        },
        {
          "name": "E4",
          "midi": 64,
          "time": 665.9958333333539,
          "velocity": 1,
          "duration": 1.5083333333334394
        },
        {
          "name": "E3",
          "midi": 52,
          "time": 666.4958333333539,
          "velocity": 1,
          "duration": 0.25
        },
        {
          "name": "E3",
          "midi": 52,
          "time": 666.4958333333539,
          "velocity": 1,
          "duration": 0.25
        },
        {
          "name": "F#3",
          "midi": 54,
          "time": 666.7458333333539,
          "velocity": 1,
          "duration": 0.25
        },
        {
          "name": "F#3",
          "midi": 54,
          "time": 666.7458333333539,
          "velocity": 1,
          "duration": 0.25
        },
        {
          "name": "B3",
          "midi": 59,
          "time": 666.9958333333539,
          "velocity": 1,
          "duration": 0.25
        },
        {
          "name": "B3",
          "midi": 59,
          "time": 666.9958333333539,
          "velocity": 1,
          "duration": 0.25
        },
        {
          "name": "G3",
          "midi": 55,
          "time": 667.2458333333539,
          "velocity": 1,
          "duration": 0.25
        },
        {
          "name": "G3",
          "midi": 55,
          "time": 667.2458333333539,
          "velocity": 1,
          "duration": 0.25
        },
        {
          "name": "F#3",
          "midi": 54,
          "time": 667.4958333333539,
          "velocity": 1,
          "duration": 0.2500000000001137
        },
        {
          "name": "F#3",
          "midi": 54,
          "time": 667.4958333333539,
          "velocity": 1,
          "duration": 0.2500000000001137
        },
        {
          "name": "G3",
          "midi": 55,
          "time": 667.745833333354,
          "velocity": 1,
          "duration": 0.7500000000005684
        },
        {
          "name": "G3",
          "midi": 55,
          "time": 667.745833333354,
          "velocity": 1,
          "duration": 0.7500000000005684
        },
        {
          "name": "C3",
          "midi": 48,
          "time": 668.4958333333545,
          "velocity": 1,
          "duration": 0.25
        },
        {
          "name": "C3",
          "midi": 48,
          "time": 668.4958333333545,
          "velocity": 1,
          "duration": 0.25
        },
        {
          "name": "C3",
          "midi": 48,
          "time": 668.7458333333545,
          "velocity": 1,
          "duration": 0.25
        },
        {
          "name": "C3",
          "midi": 48,
          "time": 668.7458333333545,
          "velocity": 1,
          "duration": 0.25
        },
        {
          "name": "C3",
          "midi": 48,
          "time": 668.9958333333545,
          "velocity": 1,
          "duration": 0.25
        },
        {
          "name": "C3",
          "midi": 48,
          "time": 668.9958333333545,
          "velocity": 1,
          "duration": 0.25
        },
        {
          "name": "C3",
          "midi": 48,
          "time": 669.2458333333545,
          "velocity": 1,
          "duration": 0.25
        },
        {
          "name": "C3",
          "midi": 48,
          "time": 669.2458333333545,
          "velocity": 1,
          "duration": 0.25
        },
        {
          "name": "C4",
          "midi": 60,
          "time": 669.4958333333545,
          "velocity": 1,
          "duration": 0.5
        },
        {
          "name": "G3",
          "midi": 55,
          "time": 669.4958333333545,
          "velocity": 1,
          "duration": 0.5
        },
        {
          "name": "C3",
          "midi": 48,
          "time": 669.4958333333545,
          "velocity": 1,
          "duration": 0.5
        },
        {
          "name": "G3",
          "midi": 55,
          "time": 669.4958333333545,
          "velocity": 1,
          "duration": 0.5
        },
        {
          "name": "C3",
          "midi": 48,
          "time": 669.4958333333545,
          "velocity": 1,
          "duration": 0.5
        },
        {
          "name": "C4",
          "midi": 60,
          "time": 669.4958333333545,
          "velocity": 1,
          "duration": 0.5
        },
        {
          "name": "F#4",
          "midi": 66,
          "time": 669.9958333333545,
          "velocity": 1,
          "duration": 0.47500000000002274
        },
        {
          "name": "B3",
          "midi": 59,
          "time": 669.9958333333545,
          "velocity": 1,
          "duration": 0.5
        },
        {
          "name": "F#3",
          "midi": 54,
          "time": 669.9958333333545,
          "velocity": 1,
          "duration": 0.5
        },
        {
          "name": "B2",
          "midi": 47,
          "time": 669.9958333333545,
          "velocity": 1,
          "duration": 0.5
        },
        {
          "name": "B3",
          "midi": 59,
          "time": 669.9958333333545,
          "velocity": 1,
          "duration": 0.5
        },
        {
          "name": "F#3",
          "midi": 54,
          "time": 669.9958333333545,
          "velocity": 1,
          "duration": 0.5
        },
        {
          "name": "B2",
          "midi": 47,
          "time": 669.9958333333545,
          "velocity": 1,
          "duration": 0.5
        },
        {
          "name": "F#5",
          "midi": 78,
          "time": 670.0000000000213,
          "velocity": 1,
          "duration": 0.5
        },
        {
          "name": "C3",
          "midi": 48,
          "time": 670.4958333333545,
          "velocity": 1,
          "duration": 0.25
        },
        {
          "name": "C3",
          "midi": 48,
          "time": 670.4958333333545,
          "velocity": 1,
          "duration": 0.25
        },
        {
          "name": "G5",
          "midi": 79,
          "time": 670.5000000000213,
          "velocity": 1,
          "duration": 1
        },
        {
          "name": "G4",
          "midi": 67,
          "time": 670.5083333333546,
          "velocity": 1,
          "duration": 1
        },
        {
          "name": "C3",
          "midi": 48,
          "time": 670.7458333333545,
          "velocity": 1,
          "duration": 0.25
        },
        {
          "name": "C3",
          "midi": 48,
          "time": 670.7458333333545,
          "velocity": 1,
          "duration": 0.25
        },
        {
          "name": "C3",
          "midi": 48,
          "time": 670.9958333333545,
          "velocity": 1,
          "duration": 0.25
        },
        {
          "name": "C3",
          "midi": 48,
          "time": 670.9958333333545,
          "velocity": 1,
          "duration": 0.25
        },
        {
          "name": "C3",
          "midi": 48,
          "time": 671.2458333333545,
          "velocity": 1,
          "duration": 0.25
        },
        {
          "name": "C3",
          "midi": 48,
          "time": 671.2458333333545,
          "velocity": 1,
          "duration": 0.25
        },
        {
          "name": "F#4",
          "midi": 66,
          "time": 671.4916666666878,
          "velocity": 1,
          "duration": 1
        },
        {
          "name": "D#4",
          "midi": 63,
          "time": 671.4958333333545,
          "velocity": 1,
          "duration": 0.5
        },
        {
          "name": "A#3",
          "midi": 58,
          "time": 671.4958333333545,
          "velocity": 1,
          "duration": 0.5
        },
        {
          "name": "D#3",
          "midi": 51,
          "time": 671.4958333333545,
          "velocity": 1,
          "duration": 0.5
        },
        {
          "name": "A#3",
          "midi": 58,
          "time": 671.4958333333545,
          "velocity": 1,
          "duration": 0.5
        },
        {
          "name": "D#3",
          "midi": 51,
          "time": 671.4958333333545,
          "velocity": 1,
          "duration": 0.5
        },
        {
          "name": "D#4",
          "midi": 63,
          "time": 671.4958333333545,
          "velocity": 1,
          "duration": 0.5
        },
        {
          "name": "F#5",
          "midi": 78,
          "time": 671.5000000000213,
          "velocity": 1,
          "duration": 1
        },
        {
          "name": "F#3",
          "midi": 54,
          "time": 671.9958333333545,
          "velocity": 1,
          "duration": 0.5
        },
        {
          "name": "B2",
          "midi": 47,
          "time": 671.9958333333545,
          "velocity": 1,
          "duration": 0.5
        },
        {
          "name": "B3",
          "midi": 59,
          "time": 671.9958333333545,
          "velocity": 1,
          "duration": 0.5
        },
        {
          "name": "F#3",
          "midi": 54,
          "time": 671.9958333333545,
          "velocity": 1,
          "duration": 0.5
        },
        {
          "name": "B2",
          "midi": 47,
          "time": 671.9958333333545,
          "velocity": 1,
          "duration": 0.5
        },
        {
          "name": "B3",
          "midi": 59,
          "time": 671.9958333333545,
          "velocity": 1,
          "duration": 0.5
        },
        {
          "name": "E4",
          "midi": 64,
          "time": 672.4958333333545,
          "velocity": 1,
          "duration": 0.25
        },
        {
          "name": "B3",
          "midi": 59,
          "time": 672.4958333333545,
          "velocity": 1,
          "duration": 0.25
        },
        {
          "name": "E2",
          "midi": 40,
          "time": 672.4958333333545,
          "velocity": 1,
          "duration": 0.25
        },
        {
          "name": "E3",
          "midi": 52,
          "time": 672.4958333333545,
          "velocity": 1,
          "duration": 0.25
        },
        {
          "name": "B3",
          "midi": 59,
          "time": 672.4958333333545,
          "velocity": 1,
          "duration": 0.25
        },
        {
          "name": "E3",
          "midi": 52,
          "time": 672.4958333333545,
          "velocity": 1,
          "duration": 0.25
        },
        {
          "name": "E2",
          "midi": 40,
          "time": 672.4958333333545,
          "velocity": 1,
          "duration": 0.25
        },
        {
          "name": "E4",
          "midi": 64,
          "time": 672.4958333333545,
          "velocity": 1,
          "duration": 0.25
        },
        {
          "name": "F#5",
          "midi": 78,
          "time": 672.5000000000213,
          "velocity": 1,
          "duration": 0.5
        },
        {
          "name": "F#4",
          "midi": 66,
          "time": 672.5083333333546,
          "velocity": 1,
          "duration": 0.49583333333339397
        },
        {
          "name": "E2",
          "midi": 40,
          "time": 672.7458333333545,
          "velocity": 1,
          "duration": 0.25
        },
        {
          "name": "E2",
          "midi": 40,
          "time": 672.7458333333545,
          "velocity": 1,
          "duration": 0.25
        },
        {
          "name": "G4",
          "midi": 67,
          "time": 672.9916666666878,
          "velocity": 1,
          "duration": 2.4750000000001364
        },
        {
          "name": "E2",
          "midi": 40,
          "time": 672.9958333333545,
          "velocity": 1,
          "duration": 0.2500000000001137
        },
        {
          "name": "E2",
          "midi": 40,
          "time": 672.9958333333545,
          "velocity": 1,
          "duration": 0.2500000000001137
        },
        {
          "name": "G5",
          "midi": 79,
          "time": 673.0000000000213,
          "velocity": 1,
          "duration": 2.5000000000001137
        },
        {
          "name": "E2",
          "midi": 40,
          "time": 673.2458333333547,
          "velocity": 1,
          "duration": 0.25
        },
        {
          "name": "E2",
          "midi": 40,
          "time": 673.2458333333547,
          "velocity": 1,
          "duration": 0.25
        },
        {
          "name": "D4",
          "midi": 62,
          "time": 673.4958333333547,
          "velocity": 1,
          "duration": 0.5
        },
        {
          "name": "A3",
          "midi": 57,
          "time": 673.4958333333547,
          "velocity": 1,
          "duration": 0.5
        },
        {
          "name": "D3",
          "midi": 50,
          "time": 673.4958333333547,
          "velocity": 1,
          "duration": 0.5
        },
        {
          "name": "A3",
          "midi": 57,
          "time": 673.4958333333547,
          "velocity": 1,
          "duration": 0.5
        },
        {
          "name": "D3",
          "midi": 50,
          "time": 673.4958333333547,
          "velocity": 1,
          "duration": 0.5
        },
        {
          "name": "D4",
          "midi": 62,
          "time": 673.4958333333547,
          "velocity": 1,
          "duration": 0.5
        },
        {
          "name": "E4",
          "midi": 64,
          "time": 673.9958333333547,
          "velocity": 1,
          "duration": 0.5
        },
        {
          "name": "E3",
          "midi": 52,
          "time": 673.9958333333547,
          "velocity": 1,
          "duration": 0.5
        },
        {
          "name": "B3",
          "midi": 59,
          "time": 673.9958333333547,
          "velocity": 1,
          "duration": 0.5
        },
        {
          "name": "B3",
          "midi": 59,
          "time": 673.9958333333547,
          "velocity": 1,
          "duration": 0.5
        },
        {
          "name": "E4",
          "midi": 64,
          "time": 673.9958333333547,
          "velocity": 1,
          "duration": 0.5
        },
        {
          "name": "E3",
          "midi": 52,
          "time": 673.9958333333547,
          "velocity": 1,
          "duration": 0.5
        },
        {
          "name": "E3",
          "midi": 52,
          "time": 674.4958333333547,
          "velocity": 1,
          "duration": 0.25
        },
        {
          "name": "E3",
          "midi": 52,
          "time": 674.4958333333547,
          "velocity": 1,
          "duration": 0.25
        },
        {
          "name": "F#3",
          "midi": 54,
          "time": 674.7458333333547,
          "velocity": 1,
          "duration": 0.25
        },
        {
          "name": "F#3",
          "midi": 54,
          "time": 674.7458333333547,
          "velocity": 1,
          "duration": 0.25
        },
        {
          "name": "B3",
          "midi": 59,
          "time": 674.9958333333547,
          "velocity": 1,
          "duration": 0.25
        },
        {
          "name": "B3",
          "midi": 59,
          "time": 674.9958333333547,
          "velocity": 1,
          "duration": 0.25
        },
        {
          "name": "G3",
          "midi": 55,
          "time": 675.2458333333547,
          "velocity": 1,
          "duration": 0.25
        },
        {
          "name": "G3",
          "midi": 55,
          "time": 675.2458333333547,
          "velocity": 1,
          "duration": 0.25
        },
        {
          "name": "F#3",
          "midi": 54,
          "time": 675.4958333333547,
          "velocity": 1,
          "duration": 0.25
        },
        {
          "name": "F#3",
          "midi": 54,
          "time": 675.4958333333547,
          "velocity": 1,
          "duration": 0.25
        },
        {
          "name": "G3",
          "midi": 55,
          "time": 675.7458333333547,
          "velocity": 1,
          "duration": 0.7500000000005684
        },
        {
          "name": "G3",
          "midi": 55,
          "time": 675.7458333333547,
          "velocity": 1,
          "duration": 0.7500000000005684
        },
        {
          "name": "C3",
          "midi": 48,
          "time": 676.4958333333552,
          "velocity": 1,
          "duration": 0.25
        },
        {
          "name": "C3",
          "midi": 48,
          "time": 676.4958333333552,
          "velocity": 1,
          "duration": 0.25
        },
        {
          "name": "C3",
          "midi": 48,
          "time": 676.7458333333552,
          "velocity": 1,
          "duration": 0.25
        },
        {
          "name": "C3",
          "midi": 48,
          "time": 676.7458333333552,
          "velocity": 1,
          "duration": 0.25
        },
        {
          "name": "C3",
          "midi": 48,
          "time": 676.9958333333552,
          "velocity": 1,
          "duration": 0.25
        },
        {
          "name": "C3",
          "midi": 48,
          "time": 676.9958333333552,
          "velocity": 1,
          "duration": 0.25
        },
        {
          "name": "C3",
          "midi": 48,
          "time": 677.2458333333552,
          "velocity": 1,
          "duration": 0.25
        },
        {
          "name": "C3",
          "midi": 48,
          "time": 677.2458333333552,
          "velocity": 1,
          "duration": 0.25
        },
        {
          "name": "C4",
          "midi": 60,
          "time": 677.4958333333552,
          "velocity": 1,
          "duration": 0.5
        },
        {
          "name": "G3",
          "midi": 55,
          "time": 677.4958333333552,
          "velocity": 1,
          "duration": 0.5
        },
        {
          "name": "C3",
          "midi": 48,
          "time": 677.4958333333552,
          "velocity": 1,
          "duration": 0.5
        },
        {
          "name": "C4",
          "midi": 60,
          "time": 677.4958333333552,
          "velocity": 1,
          "duration": 0.5
        },
        {
          "name": "G3",
          "midi": 55,
          "time": 677.4958333333552,
          "velocity": 1,
          "duration": 0.5
        },
        {
          "name": "C3",
          "midi": 48,
          "time": 677.4958333333552,
          "velocity": 1,
          "duration": 0.5
        },
        {
          "name": "F#4",
          "midi": 66,
          "time": 677.9916666666885,
          "velocity": 1,
          "duration": 0.5208333333334849
        },
        {
          "name": "B2",
          "midi": 47,
          "time": 677.9958333333552,
          "velocity": 1,
          "duration": 0.5
        },
        {
          "name": "B3",
          "midi": 59,
          "time": 677.9958333333552,
          "velocity": 1,
          "duration": 0.5
        },
        {
          "name": "F#3",
          "midi": 54,
          "time": 677.9958333333552,
          "velocity": 1,
          "duration": 0.5
        },
        {
          "name": "B3",
          "midi": 59,
          "time": 677.9958333333552,
          "velocity": 1,
          "duration": 0.5
        },
        {
          "name": "F#3",
          "midi": 54,
          "time": 677.9958333333552,
          "velocity": 1,
          "duration": 0.5
        },
        {
          "name": "B2",
          "midi": 47,
          "time": 677.9958333333552,
          "velocity": 1,
          "duration": 0.5
        },
        {
          "name": "F#5",
          "midi": 78,
          "time": 678.0000000000219,
          "velocity": 1,
          "duration": 0.5
        },
        {
          "name": "F#3",
          "midi": 54,
          "time": 678.4958333333552,
          "velocity": 1,
          "duration": 0.2500000000001137
        },
        {
          "name": "A3",
          "midi": 57,
          "time": 678.4958333333552,
          "velocity": 1,
          "duration": 0.2500000000001137
        },
        {
          "name": "G5",
          "midi": 79,
          "time": 678.5000000000219,
          "velocity": 1,
          "duration": 1.0000000000001137
        },
        {
          "name": "G4",
          "midi": 67,
          "time": 678.5000000000219,
          "velocity": 1,
          "duration": 0.9791666666667425
        },
        {
          "name": "E3",
          "midi": 52,
          "time": 678.7458333333553,
          "velocity": 1,
          "duration": 0.25
        },
        {
          "name": "G3",
          "midi": 55,
          "time": 678.7458333333553,
          "velocity": 1,
          "duration": 0.25
        },
        {
          "name": "D#3",
          "midi": 51,
          "time": 678.9958333333553,
          "velocity": 1,
          "duration": 0.25
        },
        {
          "name": "F#3",
          "midi": 54,
          "time": 678.9958333333553,
          "velocity": 1,
          "duration": 0.25
        },
        {
          "name": "D#3",
          "midi": 51,
          "time": 679.4958333333553,
          "velocity": 1,
          "duration": 0.25
        },
        {
          "name": "F#3",
          "midi": 54,
          "time": 679.4958333333553,
          "velocity": 1,
          "duration": 0.25
        },
        {
          "name": "F#5",
          "midi": 78,
          "time": 679.500000000022,
          "velocity": 1,
          "duration": 1
        },
        {
          "name": "F#4",
          "midi": 66,
          "time": 679.5083333333554,
          "velocity": 1,
          "duration": 1.0041666666667197
        },
        {
          "name": "C3",
          "midi": 48,
          "time": 679.7458333333553,
          "velocity": 1,
          "duration": 0.25
        },
        {
          "name": "E3",
          "midi": 52,
          "time": 679.7458333333553,
          "velocity": 1,
          "duration": 0.25
        },
        {
          "name": "B2",
          "midi": 47,
          "time": 679.9958333333553,
          "velocity": 1,
          "duration": 0.25
        },
        {
          "name": "D#3",
          "midi": 51,
          "time": 679.9958333333553,
          "velocity": 1,
          "duration": 0.25
        },
        {
          "name": "E4",
          "midi": 64,
          "time": 680.487500000022,
          "velocity": 1,
          "duration": 0.4750000000001364
        },
        {
          "name": "E3",
          "midi": 52,
          "time": 680.4958333333553,
          "velocity": 1,
          "duration": 0.5000000000001137
        },
        {
          "name": "B3",
          "midi": 59,
          "time": 680.4958333333553,
          "velocity": 1,
          "duration": 0.5000000000001137
        },
        {
          "name": "B2",
          "midi": 47,
          "time": 680.4958333333553,
          "velocity": 1,
          "duration": 0.5000000000001137
        },
        {
          "name": "E2",
          "midi": 40,
          "time": 680.4958333333553,
          "velocity": 1,
          "duration": 0.5000000000001137
        },
        {
          "name": "E3",
          "midi": 52,
          "time": 680.4958333333553,
          "velocity": 1,
          "duration": 0.5000000000001137
        },
        {
          "name": "B2",
          "midi": 47,
          "time": 680.4958333333553,
          "velocity": 1,
          "duration": 0.5000000000001137
        },
        {
          "name": "B3",
          "midi": 59,
          "time": 680.4958333333553,
          "velocity": 1,
          "duration": 0.5000000000001137
        },
        {
          "name": "E2",
          "midi": 40,
          "time": 680.4958333333553,
          "velocity": 1,
          "duration": 0.5000000000001137
        },
        {
          "name": "E5",
          "midi": 76,
          "time": 680.500000000022,
          "velocity": 1,
          "duration": 0.5000000000001137
        },
        {
          "name": "E4",
          "midi": 64,
          "time": 680.9875000000221,
          "velocity": 1,
          "duration": 0.4833333333333485
        },
        {
          "name": "B3",
          "midi": 59,
          "time": 680.9958333333554,
          "velocity": 1,
          "duration": 0.5
        },
        {
          "name": "E2",
          "midi": 40,
          "time": 680.9958333333554,
          "velocity": 1,
          "duration": 0.5
        },
        {
          "name": "E3",
          "midi": 52,
          "time": 680.9958333333554,
          "velocity": 1,
          "duration": 0.5
        },
        {
          "name": "B2",
          "midi": 47,
          "time": 680.9958333333554,
          "velocity": 1,
          "duration": 0.5
        },
        {
          "name": "B3",
          "midi": 59,
          "time": 680.9958333333554,
          "velocity": 1,
          "duration": 0.5
        },
        {
          "name": "E3",
          "midi": 52,
          "time": 680.9958333333554,
          "velocity": 1,
          "duration": 0.5
        },
        {
          "name": "B2",
          "midi": 47,
          "time": 680.9958333333554,
          "velocity": 1,
          "duration": 0.5
        },
        {
          "name": "E2",
          "midi": 40,
          "time": 680.9958333333554,
          "velocity": 1,
          "duration": 0.5
        },
        {
          "name": "E5",
          "midi": 76,
          "time": 681.0000000000222,
          "velocity": 1,
          "duration": 0.5
        },
        {
          "name": "F2",
          "midi": 41,
          "time": 682.4958333333554,
          "velocity": 1,
          "duration": 0.5
        },
        {
          "name": "A3",
          "midi": 57,
          "time": 682.4958333333554,
          "velocity": 1,
          "duration": 0.5
        },
        {
          "name": "F3",
          "midi": 53,
          "time": 682.4958333333554,
          "velocity": 1,
          "duration": 0.5
        },
        {
          "name": "C3",
          "midi": 48,
          "time": 682.4958333333554,
          "velocity": 1,
          "duration": 0.5
        },
        {
          "name": "F3",
          "midi": 53,
          "time": 682.4958333333554,
          "velocity": 1,
          "duration": 0.5
        },
        {
          "name": "A3",
          "midi": 57,
          "time": 682.4958333333554,
          "velocity": 1,
          "duration": 0.5
        },
        {
          "name": "F2",
          "midi": 41,
          "time": 682.4958333333554,
          "velocity": 1,
          "duration": 0.5
        },
        {
          "name": "C3",
          "midi": 48,
          "time": 682.4958333333554,
          "velocity": 1,
          "duration": 0.5
        },
        {
          "name": "F5",
          "midi": 77,
          "time": 682.5000000000222,
          "velocity": 1,
          "duration": 0.5
        },
        {
          "name": "F4",
          "midi": 65,
          "time": 682.5000000000222,
          "velocity": 1,
          "duration": 0.5041666666667197
        },
        {
          "name": "F#4",
          "midi": 66,
          "time": 682.9958333333554,
          "velocity": 1,
          "duration": 0.4875000000000682
        },
        {
          "name": "C3",
          "midi": 48,
          "time": 682.9958333333554,
          "velocity": 1,
          "duration": 0.5000000000001137
        },
        {
          "name": "A3",
          "midi": 57,
          "time": 682.9958333333554,
          "velocity": 1,
          "duration": 0.5000000000001137
        },
        {
          "name": "F3",
          "midi": 53,
          "time": 682.9958333333554,
          "velocity": 1,
          "duration": 0.5000000000001137
        },
        {
          "name": "F2",
          "midi": 41,
          "time": 682.9958333333554,
          "velocity": 1,
          "duration": 0.5000000000001137
        },
        {
          "name": "A3",
          "midi": 57,
          "time": 682.9958333333554,
          "velocity": 1,
          "duration": 0.5000000000001137
        },
        {
          "name": "C3",
          "midi": 48,
          "time": 682.9958333333554,
          "velocity": 1,
          "duration": 0.5000000000001137
        },
        {
          "name": "F2",
          "midi": 41,
          "time": 682.9958333333554,
          "velocity": 1,
          "duration": 0.5000000000001137
        },
        {
          "name": "F3",
          "midi": 53,
          "time": 682.9958333333554,
          "velocity": 1,
          "duration": 0.5000000000001137
        },
        {
          "name": "F#5",
          "midi": 78,
          "time": 683.0000000000222,
          "velocity": 1,
          "duration": 0.5000000000001137
        },
        {
          "name": "E4",
          "midi": 64,
          "time": 684.4875000000222,
          "velocity": 1,
          "duration": 0.4875000000000682
        },
        {
          "name": "E2",
          "midi": 40,
          "time": 684.4958333333556,
          "velocity": 1,
          "duration": 1.25
        },
        {
          "name": "B3",
          "midi": 59,
          "time": 684.4958333333556,
          "velocity": 1,
          "duration": 1.25
        },
        {
          "name": "E3",
          "midi": 52,
          "time": 684.4958333333556,
          "velocity": 1,
          "duration": 1.25
        },
        {
          "name": "B2",
          "midi": 47,
          "time": 684.4958333333556,
          "velocity": 1,
          "duration": 1.25
        },
        {
          "name": "E3",
          "midi": 52,
          "time": 684.4958333333556,
          "velocity": 1,
          "duration": 1.25
        },
        {
          "name": "B2",
          "midi": 47,
          "time": 684.4958333333556,
          "velocity": 1,
          "duration": 1.25
        },
        {
          "name": "B3",
          "midi": 59,
          "time": 684.4958333333556,
          "velocity": 1,
          "duration": 1.25
        },
        {
          "name": "E2",
          "midi": 40,
          "time": 684.4958333333556,
          "velocity": 1,
          "duration": 1.25
        },
        {
          "name": "E5",
          "midi": 76,
          "time": 684.5000000000223,
          "velocity": 1,
          "duration": 0.5
        },
        {
          "name": "E4",
          "midi": 64,
          "time": 684.991666666689,
          "velocity": 1,
          "duration": 0.25416666666660603
        },
        {
          "name": "E5",
          "midi": 76,
          "time": 685.0000000000223,
          "velocity": 1,
          "duration": 0.25
        },
        {
          "name": "E5",
          "midi": 76,
          "time": 685.2500000000223,
          "velocity": 1,
          "duration": 0.25
        },
        {
          "name": "E4",
          "midi": 64,
          "time": 685.2583333333556,
          "velocity": 1,
          "duration": 0.24166666666667425
        },
        {
          "name": "E4",
          "midi": 64,
          "time": 685.491666666689,
          "velocity": 1,
          "duration": 0.3291666666666515
        },
        {
          "name": "E5",
          "midi": 76,
          "time": 685.5000000000223,
          "velocity": 1,
          "duration": 0.33333333333337123
        },
        {
          "name": "E2",
          "midi": 40,
          "time": 685.7458333333556,
          "velocity": 1,
          "duration": 0.2500000000001137
        },
        {
          "name": "E2",
          "midi": 40,
          "time": 685.7458333333556,
          "velocity": 1,
          "duration": 0.2500000000001137
        },
        {
          "name": "E4",
          "midi": 64,
          "time": 685.8208333333556,
          "velocity": 1,
          "duration": 0.3166666666667197
        },
        {
          "name": "E5",
          "midi": 76,
          "time": 685.8333333333557,
          "velocity": 1,
          "duration": 0.33333333333337123
        },
        {
          "name": "E2",
          "midi": 40,
          "time": 685.9958333333557,
          "velocity": 1,
          "duration": 0.25
        },
        {
          "name": "E2",
          "midi": 40,
          "time": 685.9958333333557,
          "velocity": 1,
          "duration": 0.25
        },
        {
          "name": "E4",
          "midi": 64,
          "time": 686.154166666689,
          "velocity": 1,
          "duration": 0.341666666666697
        },
        {
          "name": "E5",
          "midi": 76,
          "time": 686.166666666689,
          "velocity": 1,
          "duration": 0.33333333333337123
        },
        {
          "name": "E2",
          "midi": 40,
          "time": 686.2458333333557,
          "velocity": 1,
          "duration": 0.25
        },
        {
          "name": "E2",
          "midi": 40,
          "time": 686.2458333333557,
          "velocity": 1,
          "duration": 0.25
        },
        {
          "name": "F#2",
          "midi": 42,
          "time": 686.4958333333557,
          "velocity": 1,
          "duration": 0.25
        },
        {
          "name": "F#2",
          "midi": 42,
          "time": 686.4958333333557,
          "velocity": 1,
          "duration": 0.25
        },
        {
          "name": "F#5",
          "midi": 78,
          "time": 686.5000000000224,
          "velocity": 1,
          "duration": 0.25
        },
        {
          "name": "F#4",
          "midi": 66,
          "time": 686.5083333333557,
          "velocity": 1,
          "duration": 0.22916666666662877
        },
        {
          "name": "E4",
          "midi": 64,
          "time": 686.7375000000224,
          "velocity": 1,
          "duration": 0.24583333333339397
        },
        {
          "name": "E2",
          "midi": 40,
          "time": 686.7458333333557,
          "velocity": 1,
          "duration": 0.2500000000001137
        },
        {
          "name": "E2",
          "midi": 40,
          "time": 686.7458333333557,
          "velocity": 1,
          "duration": 0.2500000000001137
        },
        {
          "name": "E5",
          "midi": 76,
          "time": 686.7500000000224,
          "velocity": 1,
          "duration": 0.2500000000001137
        },
        {
          "name": "E4",
          "midi": 64,
          "time": 686.9875000000225,
          "velocity": 1,
          "duration": 0.5
        },
        {
          "name": "E2",
          "midi": 40,
          "time": 686.9958333333558,
          "velocity": 1,
          "duration": 0.25
        },
        {
          "name": "E2",
          "midi": 40,
          "time": 686.9958333333558,
          "velocity": 1,
          "duration": 0.25
        },
        {
          "name": "E5",
          "midi": 76,
          "time": 687.0000000000225,
          "velocity": 1,
          "duration": 0.5
        },
        {
          "name": "E2",
          "midi": 40,
          "time": 687.2458333333558,
          "velocity": 1,
          "duration": 0.25
        },
        {
          "name": "E2",
          "midi": 40,
          "time": 687.2458333333558,
          "velocity": 1,
          "duration": 0.25
        },
        {
          "name": "F#4",
          "midi": 66,
          "time": 687.4666666666891,
          "velocity": 0.5905511811023622,
          "duration": 0.033333333333416704
        },
        {
          "name": "F#5",
          "midi": 78,
          "time": 687.4791666666891,
          "velocity": 0.5905511811023622,
          "duration": 0.02083333333337123
        },
        {
          "name": "G4",
          "midi": 67,
          "time": 687.4958333333558,
          "velocity": 1,
          "duration": 1.495833333333394
        },
        {
          "name": "G2",
          "midi": 43,
          "time": 687.4958333333558,
          "velocity": 1,
          "duration": 4
        },
        {
          "name": "B3",
          "midi": 59,
          "time": 687.4958333333558,
          "velocity": 1,
          "duration": 4
        },
        {
          "name": "G3",
          "midi": 55,
          "time": 687.4958333333558,
          "velocity": 1,
          "duration": 4
        },
        {
          "name": "D3",
          "midi": 50,
          "time": 687.4958333333558,
          "velocity": 1,
          "duration": 4
        },
        {
          "name": "G2",
          "midi": 43,
          "time": 687.4958333333558,
          "velocity": 1,
          "duration": 4
        },
        {
          "name": "G3",
          "midi": 55,
          "time": 687.4958333333558,
          "velocity": 1,
          "duration": 4
        },
        {
          "name": "B3",
          "midi": 59,
          "time": 687.4958333333558,
          "velocity": 1,
          "duration": 4
        },
        {
          "name": "D3",
          "midi": 50,
          "time": 687.4958333333558,
          "velocity": 1,
          "duration": 4
        },
        {
          "name": "G5",
          "midi": 79,
          "time": 687.5000000000225,
          "velocity": 1,
          "duration": 1.5
        },
        {
          "name": "C4",
          "midi": 60,
          "time": 691.4958333333558,
          "velocity": 1,
          "duration": 1.2500000000001137
        },
        {
          "name": "G3",
          "midi": 55,
          "time": 691.4958333333558,
          "velocity": 1,
          "duration": 1.2500000000001137
        },
        {
          "name": "C3",
          "midi": 48,
          "time": 691.4958333333558,
          "velocity": 1,
          "duration": 1.2500000000001137
        },
        {
          "name": "C4",
          "midi": 60,
          "time": 691.4958333333558,
          "velocity": 1,
          "duration": 1.2500000000001137
        },
        {
          "name": "G3",
          "midi": 55,
          "time": 691.4958333333558,
          "velocity": 1,
          "duration": 1.2500000000001137
        },
        {
          "name": "C3",
          "midi": 48,
          "time": 691.4958333333558,
          "velocity": 1,
          "duration": 1.2500000000001137
        },
        {
          "name": "E5",
          "midi": 76,
          "time": 691.5000000000225,
          "velocity": 1,
          "duration": 0.33333333333337123
        },
        {
          "name": "E4",
          "midi": 64,
          "time": 691.5083333333558,
          "velocity": 1,
          "duration": 0.3083333333332803
        },
        {
          "name": "E4",
          "midi": 64,
          "time": 691.8291666666892,
          "velocity": 1,
          "duration": 0.3250000000000455
        },
        {
          "name": "E5",
          "midi": 76,
          "time": 691.8333333333559,
          "velocity": 1,
          "duration": 0.33333333333337123
        },
        {
          "name": "E4",
          "midi": 64,
          "time": 692.1625000000225,
          "velocity": 1,
          "duration": 0.3250000000000455
        },
        {
          "name": "E5",
          "midi": 76,
          "time": 692.1666666666893,
          "velocity": 1,
          "duration": 0.33333333333337123
        },
        {
          "name": "E5",
          "midi": 76,
          "time": 692.5000000000226,
          "velocity": 1,
          "duration": 0.5
        },
        {
          "name": "E4",
          "midi": 64,
          "time": 692.508333333356,
          "velocity": 1,
          "duration": 0.47916666666662877
        },
        {
          "name": "A2",
          "midi": 45,
          "time": 692.7458333333559,
          "velocity": 1,
          "duration": 0.25
        },
        {
          "name": "A2",
          "midi": 45,
          "time": 692.7458333333559,
          "velocity": 1,
          "duration": 0.25
        },
        {
          "name": "A2",
          "midi": 45,
          "time": 692.9958333333559,
          "velocity": 1,
          "duration": 0.25
        },
        {
          "name": "A2",
          "midi": 45,
          "time": 692.9958333333559,
          "velocity": 1,
          "duration": 0.25
        },
        {
          "name": "E5",
          "midi": 76,
          "time": 693.0000000000226,
          "velocity": 1,
          "duration": 0.5
        },
        {
          "name": "E4",
          "midi": 64,
          "time": 693.008333333356,
          "velocity": 1,
          "duration": 0.5125000000000455
        },
        {
          "name": "A2",
          "midi": 45,
          "time": 693.2458333333559,
          "velocity": 1,
          "duration": 0.25
        },
        {
          "name": "A2",
          "midi": 45,
          "time": 693.2458333333559,
          "velocity": 1,
          "duration": 0.25
        },
        {
          "name": "F#3",
          "midi": 54,
          "time": 693.4958333333559,
          "velocity": 1,
          "duration": 0.2500000000001137
        },
        {
          "name": "B2",
          "midi": 47,
          "time": 693.4958333333559,
          "velocity": 1,
          "duration": 0.2500000000001137
        },
        {
          "name": "F#3",
          "midi": 54,
          "time": 693.4958333333559,
          "velocity": 1,
          "duration": 0.2500000000001137
        },
        {
          "name": "B2",
          "midi": 47,
          "time": 693.4958333333559,
          "velocity": 1,
          "duration": 0.2500000000001137
        },
        {
          "name": "F#5",
          "midi": 78,
          "time": 693.5000000000226,
          "velocity": 1,
          "duration": 0.33333333333337123
        },
        {
          "name": "F#4",
          "midi": 66,
          "time": 693.5000000000226,
          "velocity": 1,
          "duration": 0.341666666666697
        },
        {
          "name": "A2",
          "midi": 45,
          "time": 693.745833333356,
          "velocity": 1,
          "duration": 0.25
        },
        {
          "name": "A2",
          "midi": 45,
          "time": 693.745833333356,
          "velocity": 1,
          "duration": 0.25
        },
        {
          "name": "E5",
          "midi": 76,
          "time": 693.833333333356,
          "velocity": 1,
          "duration": 0.33333333333337123
        },
        {
          "name": "E4",
          "midi": 64,
          "time": 693.8416666666893,
          "velocity": 1,
          "duration": 0.3500000000001364
        },
        {
          "name": "A2",
          "midi": 45,
          "time": 693.995833333356,
          "velocity": 1,
          "duration": 0.2500000000001137
        },
        {
          "name": "A2",
          "midi": 45,
          "time": 693.995833333356,
          "velocity": 1,
          "duration": 0.2500000000001137
        },
        {
          "name": "E5",
          "midi": 76,
          "time": 694.1666666666894,
          "velocity": 1,
          "duration": 0.3333333333334849
        },
        {
          "name": "E4",
          "midi": 64,
          "time": 694.1708333333561,
          "velocity": 1,
          "duration": 0.33750000000009095
        },
        {
          "name": "A2",
          "midi": 45,
          "time": 694.2458333333561,
          "velocity": 1,
          "duration": 0.25
        },
        {
          "name": "A2",
          "midi": 45,
          "time": 694.2458333333561,
          "velocity": 1,
          "duration": 0.25
        },
        {
          "name": "E4",
          "midi": 64,
          "time": 694.4958333333561,
          "velocity": 1,
          "duration": 1.5041666666667197
        },
        {
          "name": "A2",
          "midi": 45,
          "time": 694.4958333333561,
          "velocity": 1,
          "duration": 4.000000000000114
        },
        {
          "name": "A3",
          "midi": 57,
          "time": 694.4958333333561,
          "velocity": 1,
          "duration": 4.000000000000114
        },
        {
          "name": "E3",
          "midi": 52,
          "time": 694.4958333333561,
          "velocity": 1,
          "duration": 4.000000000000114
        },
        {
          "name": "A3",
          "midi": 57,
          "time": 694.4958333333561,
          "velocity": 1,
          "duration": 4.000000000000114
        },
        {
          "name": "A2",
          "midi": 45,
          "time": 694.4958333333561,
          "velocity": 1,
          "duration": 4.000000000000114
        },
        {
          "name": "E3",
          "midi": 52,
          "time": 694.4958333333561,
          "velocity": 1,
          "duration": 4.000000000000114
        },
        {
          "name": "E5",
          "midi": 76,
          "time": 694.5000000000229,
          "velocity": 1,
          "duration": 1.5
        },
        {
          "name": "A4",
          "midi": 69,
          "time": 698.4916666666895,
          "velocity": 1,
          "duration": 0.3333333333334849
        },
        {
          "name": "F#4",
          "midi": 66,
          "time": 698.4958333333562,
          "velocity": 1,
          "duration": 1.2500000000001137
        },
        {
          "name": "D4",
          "midi": 62,
          "time": 698.4958333333562,
          "velocity": 1,
          "duration": 1.2500000000001137
        },
        {
          "name": "A3",
          "midi": 57,
          "time": 698.4958333333562,
          "velocity": 1,
          "duration": 1.2500000000001137
        },
        {
          "name": "D3",
          "midi": 50,
          "time": 698.4958333333562,
          "velocity": 1,
          "duration": 1.2500000000001137
        },
        {
          "name": "F#4",
          "midi": 66,
          "time": 698.4958333333562,
          "velocity": 1,
          "duration": 1.2500000000001137
        },
        {
          "name": "D4",
          "midi": 62,
          "time": 698.4958333333562,
          "velocity": 1,
          "duration": 1.2500000000001137
        },
        {
          "name": "A3",
          "midi": 57,
          "time": 698.4958333333562,
          "velocity": 1,
          "duration": 1.2500000000001137
        },
        {
          "name": "D3",
          "midi": 50,
          "time": 698.4958333333562,
          "velocity": 1,
          "duration": 1.2500000000001137
        },
        {
          "name": "A5",
          "midi": 81,
          "time": 698.500000000023,
          "velocity": 1,
          "duration": 0.33333333333337123
        },
        {
          "name": "A4",
          "midi": 69,
          "time": 698.8208333333563,
          "velocity": 1,
          "duration": 0.341666666666697
        },
        {
          "name": "A5",
          "midi": 81,
          "time": 698.8333333333563,
          "velocity": 1,
          "duration": 0.33333333333337123
        },
        {
          "name": "A5",
          "midi": 81,
          "time": 699.1666666666897,
          "velocity": 1,
          "duration": 0.33333333333337123
        },
        {
          "name": "A4",
          "midi": 69,
          "time": 699.1666666666897,
          "velocity": 1,
          "duration": 0.341666666666697
        },
        {
          "name": "A5",
          "midi": 81,
          "time": 699.5000000000231,
          "velocity": 1,
          "duration": 0.5
        },
        {
          "name": "A4",
          "midi": 69,
          "time": 699.5083333333564,
          "velocity": 1,
          "duration": 0.5208333333333712
        },
        {
          "name": "G2",
          "midi": 43,
          "time": 699.7458333333564,
          "velocity": 1,
          "duration": 0.25
        },
        {
          "name": "G2",
          "midi": 43,
          "time": 699.7458333333564,
          "velocity": 1,
          "duration": 0.25
        },
        {
          "name": "A4",
          "midi": 69,
          "time": 699.9958333333564,
          "velocity": 1,
          "duration": 0.24583333333339397
        },
        {
          "name": "G2",
          "midi": 43,
          "time": 699.9958333333564,
          "velocity": 1,
          "duration": 0.2500000000001137
        },
        {
          "name": "G2",
          "midi": 43,
          "time": 699.9958333333564,
          "velocity": 1,
          "duration": 0.2500000000001137
        },
        {
          "name": "A5",
          "midi": 81,
          "time": 700.0000000000231,
          "velocity": 1,
          "duration": 0.2500000000001137
        },
        {
          "name": "G4",
          "midi": 67,
          "time": 700.2416666666898,
          "velocity": 1,
          "duration": 0.49166666666667425
        },
        {
          "name": "G2",
          "midi": 43,
          "time": 700.2458333333565,
          "velocity": 1,
          "duration": 0.25
        },
        {
          "name": "G2",
          "midi": 43,
          "time": 700.2458333333565,
          "velocity": 1,
          "duration": 0.25
        },
        {
          "name": "G5",
          "midi": 79,
          "time": 700.2500000000232,
          "velocity": 1,
          "duration": 0.5
        },
        {
          "name": "G3",
          "midi": 55,
          "time": 700.4958333333565,
          "velocity": 1,
          "duration": 0.25
        },
        {
          "name": "C3",
          "midi": 48,
          "time": 700.4958333333565,
          "velocity": 1,
          "duration": 0.25
        },
        {
          "name": "C3",
          "midi": 48,
          "time": 700.4958333333565,
          "velocity": 1,
          "duration": 0.25
        },
        {
          "name": "G3",
          "midi": 55,
          "time": 700.4958333333565,
          "velocity": 1,
          "duration": 0.25
        },
        {
          "name": "G2",
          "midi": 43,
          "time": 700.7458333333565,
          "velocity": 1,
          "duration": 0.2500000000001137
        },
        {
          "name": "G2",
          "midi": 43,
          "time": 700.7458333333565,
          "velocity": 1,
          "duration": 0.2500000000001137
        },
        {
          "name": "G5",
          "midi": 79,
          "time": 700.7500000000232,
          "velocity": 1,
          "duration": 0.2500000000001137
        },
        {
          "name": "G4",
          "midi": 67,
          "time": 700.7500000000232,
          "velocity": 1,
          "duration": 0.22916666666662877
        },
        {
          "name": "G4",
          "midi": 67,
          "time": 700.9916666666899,
          "velocity": 1,
          "duration": 0.5166666666668789
        },
        {
          "name": "G2",
          "midi": 43,
          "time": 700.9958333333566,
          "velocity": 1,
          "duration": 0.25
        },
        {
          "name": "G2",
          "midi": 43,
          "time": 700.9958333333566,
          "velocity": 1,
          "duration": 0.25
        },
        {
          "name": "G5",
          "midi": 79,
          "time": 701.0000000000233,
          "velocity": 1,
          "duration": 0.5000000000001137
        },
        {
          "name": "G2",
          "midi": 43,
          "time": 701.2458333333566,
          "velocity": 1,
          "duration": 0.2500000000001137
        },
        {
          "name": "G2",
          "midi": 43,
          "time": 701.2458333333566,
          "velocity": 1,
          "duration": 0.2500000000001137
        },
        {
          "name": "E5",
          "midi": 76,
          "time": 701.4791666666899,
          "velocity": 0.5905511811023622,
          "duration": 0.020833333333484916
        },
        {
          "name": "E4",
          "midi": 64,
          "time": 701.4833333333567,
          "velocity": 0.5905511811023622,
          "duration": 0.033333333333416704
        },
        {
          "name": "B3",
          "midi": 59,
          "time": 701.4958333333567,
          "velocity": 1,
          "duration": 2.0000000000001137
        },
        {
          "name": "D#4",
          "midi": 63,
          "time": 701.4958333333567,
          "velocity": 1,
          "duration": 2.0000000000001137
        },
        {
          "name": "F#3",
          "midi": 54,
          "time": 701.4958333333567,
          "velocity": 1,
          "duration": 2.0000000000001137
        },
        {
          "name": "B2",
          "midi": 47,
          "time": 701.4958333333567,
          "velocity": 1,
          "duration": 2.0000000000001137
        },
        {
          "name": "D#4",
          "midi": 63,
          "time": 701.4958333333567,
          "velocity": 1,
          "duration": 2.0000000000001137
        },
        {
          "name": "B3",
          "midi": 59,
          "time": 701.4958333333567,
          "velocity": 1,
          "duration": 2.0000000000001137
        },
        {
          "name": "F#3",
          "midi": 54,
          "time": 701.4958333333567,
          "velocity": 1,
          "duration": 2.0000000000001137
        },
        {
          "name": "B2",
          "midi": 47,
          "time": 701.4958333333567,
          "velocity": 1,
          "duration": 2.0000000000001137
        },
        {
          "name": "F#5",
          "midi": 78,
          "time": 701.5000000000234,
          "velocity": 1,
          "duration": 1.5
        },
        {
          "name": "F#4",
          "midi": 66,
          "time": 701.5083333333567,
          "velocity": 1,
          "duration": 1.495833333333394
        },
        {
          "name": "E4",
          "midi": 64,
          "time": 703.4958333333568,
          "velocity": 1,
          "duration": 0.3125
        },
        {
          "name": "E4",
          "midi": 64,
          "time": 703.4958333333568,
          "velocity": 1,
          "duration": 0.6958333333333258
        },
        {
          "name": "E2",
          "midi": 40,
          "time": 703.4958333333568,
          "velocity": 1,
          "duration": 1.2499999999998863
        },
        {
          "name": "B3",
          "midi": 59,
          "time": 703.4958333333568,
          "velocity": 1,
          "duration": 1.2499999999998863
        },
        {
          "name": "E3",
          "midi": 52,
          "time": 703.4958333333568,
          "velocity": 1,
          "duration": 1.2499999999998863
        },
        {
          "name": "B3",
          "midi": 59,
          "time": 703.4958333333568,
          "velocity": 1,
          "duration": 1.2499999999998863
        },
        {
          "name": "E4",
          "midi": 64,
          "time": 703.4958333333568,
          "velocity": 1,
          "duration": 1.004166666666606
        },
        {
          "name": "E2",
          "midi": 40,
          "time": 703.4958333333568,
          "velocity": 1,
          "duration": 1.2499999999998863
        },
        {
          "name": "E3",
          "midi": 52,
          "time": 703.4958333333568,
          "velocity": 1,
          "duration": 1.2499999999998863
        },
        {
          "name": "E5",
          "midi": 76,
          "time": 703.5000000000235,
          "velocity": 1,
          "duration": 0.33333333333325754
        },
        {
          "name": "E5",
          "midi": 76,
          "time": 703.8333333333568,
          "velocity": 1,
          "duration": 0.33333333333337123
        },
        {
          "name": "E4",
          "midi": 64,
          "time": 703.8416666666901,
          "velocity": 1,
          "duration": 0.9041666666665833
        },
        {
          "name": "E4",
          "midi": 64,
          "time": 704.1541666666901,
          "velocity": 1,
          "duration": 0.5916666666665833
        },
        {
          "name": "E5",
          "midi": 76,
          "time": 704.1666666666902,
          "velocity": 1,
          "duration": 0.33333333333325754
        },
        {
          "name": "E5",
          "midi": 76,
          "time": 704.5000000000234,
          "velocity": 1,
          "duration": 0.5
        },
        {
          "name": "E4",
          "midi": 64,
          "time": 704.5083333333567,
          "velocity": 1,
          "duration": 0.47499999999990905
        },
        {
          "name": "E2",
          "midi": 40,
          "time": 704.7458333333567,
          "velocity": 1,
          "duration": 0.25
        },
        {
          "name": "E2",
          "midi": 40,
          "time": 704.7458333333567,
          "velocity": 1,
          "duration": 0.25
        },
        {
          "name": "E2",
          "midi": 40,
          "time": 704.9958333333567,
          "velocity": 1,
          "duration": 0.25
        },
        {
          "name": "E2",
          "midi": 40,
          "time": 704.9958333333567,
          "velocity": 1,
          "duration": 0.25
        },
        {
          "name": "E5",
          "midi": 76,
          "time": 705.0000000000234,
          "velocity": 1,
          "duration": 0.25
        },
        {
          "name": "E4",
          "midi": 64,
          "time": 705.0000000000234,
          "velocity": 1,
          "duration": 0.24583333333328028
        },
        {
          "name": "E2",
          "midi": 40,
          "time": 705.2458333333567,
          "velocity": 1,
          "duration": 0.2500000000001137
        },
        {
          "name": "E2",
          "midi": 40,
          "time": 705.2458333333567,
          "velocity": 1,
          "duration": 0.2500000000001137
        },
        {
          "name": "F#5",
          "midi": 78,
          "time": 705.2500000000234,
          "velocity": 1,
          "duration": 0.5000000000001137
        },
        {
          "name": "F#4",
          "midi": 66,
          "time": 705.2541666666901,
          "velocity": 1,
          "duration": 0.5208333333333712
        },
        {
          "name": "D4",
          "midi": 62,
          "time": 705.4958333333568,
          "velocity": 1,
          "duration": 0.5000000000001137
        },
        {
          "name": "A3",
          "midi": 57,
          "time": 705.4958333333568,
          "velocity": 1,
          "duration": 0.5000000000001137
        },
        {
          "name": "D3",
          "midi": 50,
          "time": 705.4958333333568,
          "velocity": 1,
          "duration": 0.5000000000001137
        },
        {
          "name": "D4",
          "midi": 62,
          "time": 705.4958333333568,
          "velocity": 1,
          "duration": 0.5000000000001137
        },
        {
          "name": "D3",
          "midi": 50,
          "time": 705.4958333333568,
          "velocity": 1,
          "duration": 0.5000000000001137
        },
        {
          "name": "A3",
          "midi": 57,
          "time": 705.4958333333568,
          "velocity": 1,
          "duration": 0.5000000000001137
        },
        {
          "name": "E5",
          "midi": 76,
          "time": 705.7500000000235,
          "velocity": 1,
          "duration": 0.2500000000001137
        },
        {
          "name": "E4",
          "midi": 64,
          "time": 705.7500000000235,
          "velocity": 1,
          "duration": 0.22500000000002274
        },
        {
          "name": "E4",
          "midi": 64,
          "time": 705.9875000000236,
          "velocity": 1,
          "duration": 0.47916666666662877
        },
        {
          "name": "E2",
          "midi": 40,
          "time": 705.9958333333569,
          "velocity": 1,
          "duration": 0.25
        },
        {
          "name": "E2",
          "midi": 40,
          "time": 705.9958333333569,
          "velocity": 1,
          "duration": 0.25
        },
        {
          "name": "E5",
          "midi": 76,
          "time": 706.0000000000236,
          "velocity": 1,
          "duration": 0.5000000000001137
        },
        {
          "name": "E2",
          "midi": 40,
          "time": 706.2458333333569,
          "velocity": 1,
          "duration": 0.2500000000001137
        },
        {
          "name": "E2",
          "midi": 40,
          "time": 706.2458333333569,
          "velocity": 1,
          "duration": 0.2500000000001137
        },
        {
          "name": "F#4",
          "midi": 66,
          "time": 706.470833333357,
          "velocity": 0.5905511811023622,
          "duration": 0.0041666666667197205
        },
        {
          "name": "F#5",
          "midi": 78,
          "time": 706.4791666666904,
          "velocity": 0.5905511811023622,
          "duration": 0.02083333333337123
        },
        {
          "name": "G4",
          "midi": 67,
          "time": 706.495833333357,
          "velocity": 1,
          "duration": 1.4791666666667425
        },
        {
          "name": "C3",
          "midi": 48,
          "time": 706.495833333357,
          "velocity": 1,
          "duration": 3
        },
        {
          "name": "E4",
          "midi": 64,
          "time": 706.495833333357,
          "velocity": 1,
          "duration": 3
        },
        {
          "name": "C4",
          "midi": 60,
          "time": 706.495833333357,
          "velocity": 1,
          "duration": 3
        },
        {
          "name": "G3",
          "midi": 55,
          "time": 706.495833333357,
          "velocity": 1,
          "duration": 3
        },
        {
          "name": "G3",
          "midi": 55,
          "time": 706.495833333357,
          "velocity": 1,
          "duration": 3
        },
        {
          "name": "C3",
          "midi": 48,
          "time": 706.495833333357,
          "velocity": 1,
          "duration": 3
        },
        {
          "name": "E4",
          "midi": 64,
          "time": 706.495833333357,
          "velocity": 1,
          "duration": 3
        },
        {
          "name": "C4",
          "midi": 60,
          "time": 706.495833333357,
          "velocity": 1,
          "duration": 3
        },
        {
          "name": "G5",
          "midi": 79,
          "time": 706.5000000000238,
          "velocity": 1,
          "duration": 1.5
        },
        {
          "name": "E4",
          "midi": 64,
          "time": 709.4875000000237,
          "velocity": 1,
          "duration": 0.5041666666667197
        },
        {
          "name": "B3",
          "midi": 59,
          "time": 709.495833333357,
          "velocity": 1,
          "duration": 0.5000000000001137
        },
        {
          "name": "E2",
          "midi": 40,
          "time": 709.495833333357,
          "velocity": 1,
          "duration": 0.5000000000001137
        },
        {
          "name": "E3",
          "midi": 52,
          "time": 709.495833333357,
          "velocity": 1,
          "duration": 0.5000000000001137
        },
        {
          "name": "B2",
          "midi": 47,
          "time": 709.495833333357,
          "velocity": 1,
          "duration": 0.5000000000001137
        },
        {
          "name": "B3",
          "midi": 59,
          "time": 709.495833333357,
          "velocity": 1,
          "duration": 0.5000000000001137
        },
        {
          "name": "E3",
          "midi": 52,
          "time": 709.495833333357,
          "velocity": 1,
          "duration": 0.5000000000001137
        },
        {
          "name": "E2",
          "midi": 40,
          "time": 709.495833333357,
          "velocity": 1,
          "duration": 0.5000000000001137
        },
        {
          "name": "B2",
          "midi": 47,
          "time": 709.495833333357,
          "velocity": 1,
          "duration": 0.5000000000001137
        },
        {
          "name": "E5",
          "midi": 76,
          "time": 709.5000000000238,
          "velocity": 1,
          "duration": 0.5000000000001137
        },
        {
          "name": "E4",
          "midi": 64,
          "time": 709.9958333333572,
          "velocity": 1,
          "duration": 0.47916666666674246
        },
        {
          "name": "B3",
          "midi": 59,
          "time": 709.9958333333572,
          "velocity": 1,
          "duration": 0.5000000000001137
        },
        {
          "name": "E2",
          "midi": 40,
          "time": 709.9958333333572,
          "velocity": 1,
          "duration": 0.5000000000001137
        },
        {
          "name": "B2",
          "midi": 47,
          "time": 709.9958333333572,
          "velocity": 1,
          "duration": 0.5000000000001137
        },
        {
          "name": "E3",
          "midi": 52,
          "time": 709.9958333333572,
          "velocity": 1,
          "duration": 0.5000000000001137
        },
        {
          "name": "B3",
          "midi": 59,
          "time": 709.9958333333572,
          "velocity": 1,
          "duration": 0.5000000000001137
        },
        {
          "name": "E3",
          "midi": 52,
          "time": 709.9958333333572,
          "velocity": 1,
          "duration": 0.5000000000001137
        },
        {
          "name": "E2",
          "midi": 40,
          "time": 709.9958333333572,
          "velocity": 1,
          "duration": 0.5000000000001137
        },
        {
          "name": "B2",
          "midi": 47,
          "time": 709.9958333333572,
          "velocity": 1,
          "duration": 0.5000000000001137
        },
        {
          "name": "E5",
          "midi": 76,
          "time": 710.0000000000239,
          "velocity": 1,
          "duration": 0.5000000000001137
        },
        {
          "name": "F4",
          "midi": 65,
          "time": 711.4875000000239,
          "velocity": 1,
          "duration": 0.5041666666667197
        },
        {
          "name": "F2",
          "midi": 41,
          "time": 711.4958333333573,
          "velocity": 1,
          "duration": 0.5000000000001137
        },
        {
          "name": "A3",
          "midi": 57,
          "time": 711.4958333333573,
          "velocity": 1,
          "duration": 0.5000000000001137
        },
        {
          "name": "F3",
          "midi": 53,
          "time": 711.4958333333573,
          "velocity": 1,
          "duration": 0.5000000000001137
        },
        {
          "name": "C3",
          "midi": 48,
          "time": 711.4958333333573,
          "velocity": 1,
          "duration": 0.5000000000001137
        },
        {
          "name": "F3",
          "midi": 53,
          "time": 711.4958333333573,
          "velocity": 1,
          "duration": 0.5000000000001137
        },
        {
          "name": "F2",
          "midi": 41,
          "time": 711.4958333333573,
          "velocity": 1,
          "duration": 0.5000000000001137
        },
        {
          "name": "A3",
          "midi": 57,
          "time": 711.4958333333573,
          "velocity": 1,
          "duration": 0.5000000000001137
        },
        {
          "name": "C3",
          "midi": 48,
          "time": 711.4958333333573,
          "velocity": 1,
          "duration": 0.5000000000001137
        },
        {
          "name": "F5",
          "midi": 77,
          "time": 711.500000000024,
          "velocity": 1,
          "duration": 0.5000000000001137
        },
        {
          "name": "A3",
          "midi": 57,
          "time": 711.9958333333574,
          "velocity": 1,
          "duration": 0.5
        },
        {
          "name": "F3",
          "midi": 53,
          "time": 711.9958333333574,
          "velocity": 1,
          "duration": 0.5
        },
        {
          "name": "C3",
          "midi": 48,
          "time": 711.9958333333574,
          "velocity": 1,
          "duration": 0.5
        },
        {
          "name": "F2",
          "midi": 41,
          "time": 711.9958333333574,
          "velocity": 1,
          "duration": 0.5
        },
        {
          "name": "F3",
          "midi": 53,
          "time": 711.9958333333574,
          "velocity": 1,
          "duration": 0.5
        },
        {
          "name": "C3",
          "midi": 48,
          "time": 711.9958333333574,
          "velocity": 1,
          "duration": 0.5
        },
        {
          "name": "F2",
          "midi": 41,
          "time": 711.9958333333574,
          "velocity": 1,
          "duration": 0.5
        },
        {
          "name": "A3",
          "midi": 57,
          "time": 711.9958333333574,
          "velocity": 1,
          "duration": 0.5
        },
        {
          "name": "F#5",
          "midi": 78,
          "time": 712.0000000000241,
          "velocity": 1,
          "duration": 0.5
        },
        {
          "name": "F#4",
          "midi": 66,
          "time": 712.0000000000241,
          "velocity": 1,
          "duration": 0.5
        },
        {
          "name": "B2",
          "midi": 47,
          "time": 713.4958333333574,
          "velocity": 1,
          "duration": 1.2500000000001137
        },
        {
          "name": "B3",
          "midi": 59,
          "time": 713.4958333333574,
          "velocity": 1,
          "duration": 1.2500000000001137
        },
        {
          "name": "E2",
          "midi": 40,
          "time": 713.4958333333574,
          "velocity": 1,
          "duration": 1.2500000000001137
        },
        {
          "name": "E3",
          "midi": 52,
          "time": 713.4958333333574,
          "velocity": 1,
          "duration": 1.2500000000001137
        },
        {
          "name": "B3",
          "midi": 59,
          "time": 713.4958333333574,
          "velocity": 1,
          "duration": 1.2500000000001137
        },
        {
          "name": "B2",
          "midi": 47,
          "time": 713.4958333333574,
          "velocity": 1,
          "duration": 1.2500000000001137
        },
        {
          "name": "E2",
          "midi": 40,
          "time": 713.4958333333574,
          "velocity": 1,
          "duration": 1.2500000000001137
        },
        {
          "name": "E3",
          "midi": 52,
          "time": 713.4958333333574,
          "velocity": 1,
          "duration": 1.2500000000001137
        },
        {
          "name": "E5",
          "midi": 76,
          "time": 713.5000000000241,
          "velocity": 1,
          "duration": 0.5
        },
        {
          "name": "E4",
          "midi": 64,
          "time": 713.5083333333574,
          "velocity": 1,
          "duration": 0.5083333333333258
        },
        {
          "name": "E4",
          "midi": 64,
          "time": 713.987500000024,
          "velocity": 1,
          "duration": 0.25833333333332575
        },
        {
          "name": "E5",
          "midi": 76,
          "time": 714.0000000000241,
          "velocity": 1,
          "duration": 0.25
        },
        {
          "name": "E5",
          "midi": 76,
          "time": 714.2500000000241,
          "velocity": 1,
          "duration": 0.25
        },
        {
          "name": "E4",
          "midi": 64,
          "time": 714.2541666666908,
          "velocity": 1,
          "duration": 0.2666666666666515
        },
        {
          "name": "E5",
          "midi": 76,
          "time": 714.5000000000241,
          "velocity": 1,
          "duration": 0.5000000000001137
        },
        {
          "name": "E4",
          "midi": 64,
          "time": 714.5000000000241,
          "velocity": 1,
          "duration": 0.5083333333335531
        },
        {
          "name": "E2",
          "midi": 40,
          "time": 714.7458333333575,
          "velocity": 1,
          "duration": 0.25
        },
        {
          "name": "E2",
          "midi": 40,
          "time": 714.7458333333575,
          "velocity": 1,
          "duration": 0.25
        },
        {
          "name": "E2",
          "midi": 40,
          "time": 714.9958333333575,
          "velocity": 1,
          "duration": 0.2500000000002274
        },
        {
          "name": "E2",
          "midi": 40,
          "time": 714.9958333333575,
          "velocity": 1,
          "duration": 0.2500000000002274
        },
        {
          "name": "E5",
          "midi": 76,
          "time": 715.0000000000242,
          "velocity": 1,
          "duration": 0.2500000000002274
        },
        {
          "name": "E4",
          "midi": 64,
          "time": 715.0041666666909,
          "velocity": 1,
          "duration": 0.2375000000000682
        },
        {
          "name": "E2",
          "midi": 40,
          "time": 715.2458333333577,
          "velocity": 1,
          "duration": 0.2500000000001137
        },
        {
          "name": "E2",
          "midi": 40,
          "time": 715.2458333333577,
          "velocity": 1,
          "duration": 0.2500000000001137
        },
        {
          "name": "F#5",
          "midi": 78,
          "time": 715.2500000000244,
          "velocity": 1,
          "duration": 0.5000000000001137
        },
        {
          "name": "F#4",
          "midi": 66,
          "time": 715.2541666666912,
          "velocity": 1,
          "duration": 0.5125000000000455
        },
        {
          "name": "F#2",
          "midi": 42,
          "time": 715.4958333333578,
          "velocity": 1,
          "duration": 0.25
        },
        {
          "name": "F#2",
          "midi": 42,
          "time": 715.4958333333578,
          "velocity": 1,
          "duration": 0.25
        },
        {
          "name": "E2",
          "midi": 40,
          "time": 715.7458333333578,
          "velocity": 1,
          "duration": 0.2500000000001137
        },
        {
          "name": "E2",
          "midi": 40,
          "time": 715.7458333333578,
          "velocity": 1,
          "duration": 0.2500000000001137
        },
        {
          "name": "E5",
          "midi": 76,
          "time": 715.7500000000246,
          "velocity": 1,
          "duration": 0.2500000000001137
        },
        {
          "name": "E4",
          "midi": 64,
          "time": 715.7500000000246,
          "velocity": 1,
          "duration": 0.24166666666667425
        },
        {
          "name": "E2",
          "midi": 40,
          "time": 715.995833333358,
          "velocity": 1,
          "duration": 0.2500000000001137
        },
        {
          "name": "E2",
          "midi": 40,
          "time": 715.995833333358,
          "velocity": 1,
          "duration": 0.2500000000001137
        },
        {
          "name": "E5",
          "midi": 76,
          "time": 716.0000000000247,
          "velocity": 1,
          "duration": 0.5000000000001137
        },
        {
          "name": "E4",
          "midi": 64,
          "time": 716.0041666666914,
          "velocity": 1,
          "duration": 0.5208333333334849
        },
        {
          "name": "E2",
          "midi": 40,
          "time": 716.2458333333581,
          "velocity": 1,
          "duration": 0.25
        },
        {
          "name": "E2",
          "midi": 40,
          "time": 716.2458333333581,
          "velocity": 1,
          "duration": 0.25
        },
        {
          "name": "D4",
          "midi": 62,
          "time": 716.4666666666914,
          "velocity": 0.5905511811023622,
          "duration": 0.033333333333416704
        },
        {
          "name": "D5",
          "midi": 74,
          "time": 716.4791666666914,
          "velocity": 0.5905511811023622,
          "duration": 0.02083333333337123
        },
        {
          "name": "C4",
          "midi": 60,
          "time": 716.4958333333581,
          "velocity": 1,
          "duration": 4.000000000000114
        },
        {
          "name": "E4",
          "midi": 64,
          "time": 716.4958333333581,
          "velocity": 1,
          "duration": 1.991666666666788
        },
        {
          "name": "G3",
          "midi": 55,
          "time": 716.4958333333581,
          "velocity": 1,
          "duration": 4.000000000000114
        },
        {
          "name": "C3",
          "midi": 48,
          "time": 716.4958333333581,
          "velocity": 1,
          "duration": 4.000000000000114
        },
        {
          "name": "E4",
          "midi": 64,
          "time": 716.4958333333581,
          "velocity": 1,
          "duration": 4.000000000000114
        },
        {
          "name": "G3",
          "midi": 55,
          "time": 716.4958333333581,
          "velocity": 1,
          "duration": 4.000000000000114
        },
        {
          "name": "C4",
          "midi": 60,
          "time": 716.4958333333581,
          "velocity": 1,
          "duration": 4.000000000000114
        },
        {
          "name": "C3",
          "midi": 48,
          "time": 716.4958333333581,
          "velocity": 1,
          "duration": 4.000000000000114
        },
        {
          "name": "E5",
          "midi": 76,
          "time": 716.5000000000248,
          "velocity": 1,
          "duration": 2.0000000000001137
        },
        {
          "name": "E4",
          "midi": 64,
          "time": 716.5041666666915,
          "velocity": 1,
          "duration": 3.9916666666666742
        },
        {
          "name": "E3",
          "midi": 52,
          "time": 720.4958333333582,
          "velocity": 1,
          "duration": 0.5000000000001137
        },
        {
          "name": "B3",
          "midi": 59,
          "time": 720.4958333333582,
          "velocity": 1,
          "duration": 0.5000000000001137
        },
        {
          "name": "B2",
          "midi": 47,
          "time": 720.4958333333582,
          "velocity": 1,
          "duration": 0.5000000000001137
        },
        {
          "name": "E2",
          "midi": 40,
          "time": 720.4958333333582,
          "velocity": 1,
          "duration": 0.5000000000001137
        },
        {
          "name": "E2",
          "midi": 40,
          "time": 720.4958333333582,
          "velocity": 1,
          "duration": 0.5000000000001137
        },
        {
          "name": "E3",
          "midi": 52,
          "time": 720.4958333333582,
          "velocity": 1,
          "duration": 0.5000000000001137
        },
        {
          "name": "B3",
          "midi": 59,
          "time": 720.4958333333582,
          "velocity": 1,
          "duration": 0.5000000000001137
        },
        {
          "name": "B2",
          "midi": 47,
          "time": 720.4958333333582,
          "velocity": 1,
          "duration": 0.5000000000001137
        },
        {
          "name": "E5",
          "midi": 76,
          "time": 720.5000000000249,
          "velocity": 1,
          "duration": 0.5000000000001137
        },
        {
          "name": "E4",
          "midi": 64,
          "time": 720.5041666666916,
          "velocity": 1,
          "duration": 0.4833333333333485
        },
        {
          "name": "E2",
          "midi": 40,
          "time": 720.9958333333583,
          "velocity": 1,
          "duration": 0.5000000000001137
        },
        {
          "name": "B3",
          "midi": 59,
          "time": 720.9958333333583,
          "velocity": 1,
          "duration": 0.5000000000001137
        },
        {
          "name": "B2",
          "midi": 47,
          "time": 720.9958333333583,
          "velocity": 1,
          "duration": 0.5000000000001137
        },
        {
          "name": "E3",
          "midi": 52,
          "time": 720.9958333333583,
          "velocity": 1,
          "duration": 0.5000000000001137
        },
        {
          "name": "E2",
          "midi": 40,
          "time": 720.9958333333583,
          "velocity": 1,
          "duration": 0.5000000000001137
        },
        {
          "name": "E3",
          "midi": 52,
          "time": 720.9958333333583,
          "velocity": 1,
          "duration": 0.5000000000001137
        },
        {
          "name": "B3",
          "midi": 59,
          "time": 720.9958333333583,
          "velocity": 1,
          "duration": 0.5000000000001137
        },
        {
          "name": "B2",
          "midi": 47,
          "time": 720.9958333333583,
          "velocity": 1,
          "duration": 0.5000000000001137
        },
        {
          "name": "E5",
          "midi": 76,
          "time": 721.000000000025,
          "velocity": 1,
          "duration": 0.5000000000001137
        },
        {
          "name": "E4",
          "midi": 64,
          "time": 721.0041666666917,
          "velocity": 1,
          "duration": 0.49166666666667425
        },
        {
          "name": "F4",
          "midi": 65,
          "time": 722.4875000000251,
          "velocity": 1,
          "duration": 0.4833333333333485
        },
        {
          "name": "F2",
          "midi": 41,
          "time": 722.4958333333584,
          "velocity": 1,
          "duration": 0.5
        },
        {
          "name": "A3",
          "midi": 57,
          "time": 722.4958333333584,
          "velocity": 1,
          "duration": 0.5
        },
        {
          "name": "F3",
          "midi": 53,
          "time": 722.4958333333584,
          "velocity": 1,
          "duration": 0.5
        },
        {
          "name": "C3",
          "midi": 48,
          "time": 722.4958333333584,
          "velocity": 1,
          "duration": 0.5
        },
        {
          "name": "F3",
          "midi": 53,
          "time": 722.4958333333584,
          "velocity": 1,
          "duration": 0.5
        },
        {
          "name": "C3",
          "midi": 48,
          "time": 722.4958333333584,
          "velocity": 1,
          "duration": 0.5
        },
        {
          "name": "F2",
          "midi": 41,
          "time": 722.4958333333584,
          "velocity": 1,
          "duration": 0.5
        },
        {
          "name": "A3",
          "midi": 57,
          "time": 722.4958333333584,
          "velocity": 1,
          "duration": 0.5
        },
        {
          "name": "F5",
          "midi": 77,
          "time": 722.5000000000251,
          "velocity": 1,
          "duration": 0.5
        },
        {
          "name": "F2",
          "midi": 41,
          "time": 722.9958333333584,
          "velocity": 1,
          "duration": 0.5
        },
        {
          "name": "A3",
          "midi": 57,
          "time": 722.9958333333584,
          "velocity": 1,
          "duration": 0.5
        },
        {
          "name": "F3",
          "midi": 53,
          "time": 722.9958333333584,
          "velocity": 1,
          "duration": 0.5
        },
        {
          "name": "C3",
          "midi": 48,
          "time": 722.9958333333584,
          "velocity": 1,
          "duration": 0.5
        },
        {
          "name": "F3",
          "midi": 53,
          "time": 722.9958333333584,
          "velocity": 1,
          "duration": 0.5
        },
        {
          "name": "C3",
          "midi": 48,
          "time": 722.9958333333584,
          "velocity": 1,
          "duration": 0.5
        },
        {
          "name": "A3",
          "midi": 57,
          "time": 722.9958333333584,
          "velocity": 1,
          "duration": 0.5
        },
        {
          "name": "F2",
          "midi": 41,
          "time": 722.9958333333584,
          "velocity": 1,
          "duration": 0.5
        },
        {
          "name": "F#5",
          "midi": 78,
          "time": 723.0000000000251,
          "velocity": 1,
          "duration": 0.5
        },
        {
          "name": "F#4",
          "midi": 66,
          "time": 723.0083333333585,
          "velocity": 1,
          "duration": 0.5
        },
        {
          "name": "E2",
          "midi": 40,
          "time": 724.4958333333584,
          "velocity": 1,
          "duration": 0.25
        },
        {
          "name": "E2",
          "midi": 40,
          "time": 724.4958333333584,
          "velocity": 1,
          "duration": 0.25
        },
        {
          "name": "E2",
          "midi": 40,
          "time": 724.7458333333584,
          "velocity": 1,
          "duration": 0.25
        },
        {
          "name": "E2",
          "midi": 40,
          "time": 724.7458333333584,
          "velocity": 1,
          "duration": 0.25
        },
        {
          "name": "E2",
          "midi": 40,
          "time": 724.9958333333584,
          "velocity": 1,
          "duration": 0.25
        },
        {
          "name": "E2",
          "midi": 40,
          "time": 724.9958333333584,
          "velocity": 1,
          "duration": 0.25
        },
        {
          "name": "E2",
          "midi": 40,
          "time": 725.2458333333584,
          "velocity": 1,
          "duration": 0.25
        },
        {
          "name": "E2",
          "midi": 40,
          "time": 725.2458333333584,
          "velocity": 1,
          "duration": 0.25
        },
        {
          "name": "E2",
          "midi": 40,
          "time": 725.4958333333584,
          "velocity": 1,
          "duration": 0.25
        },
        {
          "name": "E2",
          "midi": 40,
          "time": 725.4958333333584,
          "velocity": 1,
          "duration": 0.25
        },
        {
          "name": "E2",
          "midi": 40,
          "time": 725.7458333333584,
          "velocity": 1,
          "duration": 0.25
        },
        {
          "name": "E2",
          "midi": 40,
          "time": 725.7458333333584,
          "velocity": 1,
          "duration": 0.25
        },
        {
          "name": "E2",
          "midi": 40,
          "time": 725.9958333333584,
          "velocity": 1,
          "duration": 0.25
        },
        {
          "name": "E2",
          "midi": 40,
          "time": 725.9958333333584,
          "velocity": 1,
          "duration": 0.25
        },
        {
          "name": "E2",
          "midi": 40,
          "time": 726.2458333333584,
          "velocity": 1,
          "duration": 0.25
        },
        {
          "name": "E2",
          "midi": 40,
          "time": 726.2458333333584,
          "velocity": 1,
          "duration": 0.25
        },
        {
          "name": "E2",
          "midi": 40,
          "time": 726.4958333333584,
          "velocity": 1,
          "duration": 0.25
        },
        {
          "name": "E2",
          "midi": 40,
          "time": 726.4958333333584,
          "velocity": 1,
          "duration": 0.25
        },
        {
          "name": "D3",
          "midi": 50,
          "time": 726.7458333333584,
          "velocity": 1,
          "duration": 0.25
        },
        {
          "name": "G2",
          "midi": 43,
          "time": 726.7458333333584,
          "velocity": 1,
          "duration": 0.25
        },
        {
          "name": "G2",
          "midi": 43,
          "time": 726.7458333333584,
          "velocity": 1,
          "duration": 0.25
        },
        {
          "name": "D3",
          "midi": 50,
          "time": 726.7458333333584,
          "velocity": 1,
          "duration": 0.25
        },
        {
          "name": "E3",
          "midi": 52,
          "time": 726.9958333333584,
          "velocity": 1,
          "duration": 0.25
        },
        {
          "name": "A2",
          "midi": 45,
          "time": 726.9958333333584,
          "velocity": 1,
          "duration": 0.25
        },
        {
          "name": "E3",
          "midi": 52,
          "time": 726.9958333333584,
          "velocity": 1,
          "duration": 0.25
        },
        {
          "name": "A2",
          "midi": 45,
          "time": 726.9958333333584,
          "velocity": 1,
          "duration": 0.25
        },
        {
          "name": "E2",
          "midi": 40,
          "time": 727.2458333333584,
          "velocity": 1,
          "duration": 0.25
        },
        {
          "name": "E2",
          "midi": 40,
          "time": 727.2458333333584,
          "velocity": 1,
          "duration": 0.25
        },
        {
          "name": "F3",
          "midi": 53,
          "time": 727.4958333333584,
          "velocity": 1,
          "duration": 0.25
        },
        {
          "name": "A#2",
          "midi": 46,
          "time": 727.4958333333584,
          "velocity": 1,
          "duration": 0.25
        },
        {
          "name": "A#2",
          "midi": 46,
          "time": 727.4958333333584,
          "velocity": 1,
          "duration": 0.25
        },
        {
          "name": "F3",
          "midi": 53,
          "time": 727.4958333333584,
          "velocity": 1,
          "duration": 0.25
        },
        {
          "name": "E3",
          "midi": 52,
          "time": 727.7458333333584,
          "velocity": 1,
          "duration": 0.25
        },
        {
          "name": "A2",
          "midi": 45,
          "time": 727.7458333333584,
          "velocity": 1,
          "duration": 0.25
        },
        {
          "name": "A2",
          "midi": 45,
          "time": 727.7458333333584,
          "velocity": 1,
          "duration": 0.25
        },
        {
          "name": "E3",
          "midi": 52,
          "time": 727.7458333333584,
          "velocity": 1,
          "duration": 0.25
        },
        {
          "name": "G2",
          "midi": 43,
          "time": 727.9958333333584,
          "velocity": 1,
          "duration": 0.25
        },
        {
          "name": "D3",
          "midi": 50,
          "time": 727.9958333333584,
          "velocity": 1,
          "duration": 0.25
        },
        {
          "name": "D3",
          "midi": 50,
          "time": 727.9958333333584,
          "velocity": 1,
          "duration": 0.25
        },
        {
          "name": "G2",
          "midi": 43,
          "time": 727.9958333333584,
          "velocity": 1,
          "duration": 0.25
        },
        {
          "name": "A2",
          "midi": 45,
          "time": 728.2458333333584,
          "velocity": 1,
          "duration": 0.25
        },
        {
          "name": "E3",
          "midi": 52,
          "time": 728.2458333333584,
          "velocity": 1,
          "duration": 0.25
        },
        {
          "name": "A2",
          "midi": 45,
          "time": 728.2458333333584,
          "velocity": 1,
          "duration": 0.25
        },
        {
          "name": "E3",
          "midi": 52,
          "time": 728.2458333333584,
          "velocity": 1,
          "duration": 0.25
        },
        {
          "name": "E2",
          "midi": 40,
          "time": 728.4958333333584,
          "velocity": 1,
          "duration": 0.25
        },
        {
          "name": "E2",
          "midi": 40,
          "time": 728.4958333333584,
          "velocity": 1,
          "duration": 0.25
        },
        {
          "name": "E2",
          "midi": 40,
          "time": 728.7458333333584,
          "velocity": 1,
          "duration": 0.25
        },
        {
          "name": "E2",
          "midi": 40,
          "time": 728.7458333333584,
          "velocity": 1,
          "duration": 0.25
        },
        {
          "name": "E2",
          "midi": 40,
          "time": 728.9958333333584,
          "velocity": 1,
          "duration": 0.25
        },
        {
          "name": "E2",
          "midi": 40,
          "time": 728.9958333333584,
          "velocity": 1,
          "duration": 0.25
        },
        {
          "name": "E2",
          "midi": 40,
          "time": 729.2458333333584,
          "velocity": 1,
          "duration": 0.25
        },
        {
          "name": "E2",
          "midi": 40,
          "time": 729.2458333333584,
          "velocity": 1,
          "duration": 0.25
        },
        {
          "name": "E2",
          "midi": 40,
          "time": 729.4958333333584,
          "velocity": 1,
          "duration": 0.25
        },
        {
          "name": "E2",
          "midi": 40,
          "time": 729.4958333333584,
          "velocity": 1,
          "duration": 0.25
        },
        {
          "name": "E2",
          "midi": 40,
          "time": 729.7458333333584,
          "velocity": 1,
          "duration": 0.25
        },
        {
          "name": "E2",
          "midi": 40,
          "time": 729.7458333333584,
          "velocity": 1,
          "duration": 0.25
        },
        {
          "name": "E2",
          "midi": 40,
          "time": 729.9958333333584,
          "velocity": 1,
          "duration": 0.25
        },
        {
          "name": "E2",
          "midi": 40,
          "time": 729.9958333333584,
          "velocity": 1,
          "duration": 0.25
        },
        {
          "name": "E2",
          "midi": 40,
          "time": 730.2458333333584,
          "velocity": 1,
          "duration": 0.25
        },
        {
          "name": "E2",
          "midi": 40,
          "time": 730.2458333333584,
          "velocity": 1,
          "duration": 0.25
        },
        {
          "name": "E2",
          "midi": 40,
          "time": 730.4958333333584,
          "velocity": 1,
          "duration": 0.25
        },
        {
          "name": "E2",
          "midi": 40,
          "time": 730.4958333333584,
          "velocity": 1,
          "duration": 0.25
        },
        {
          "name": "D3",
          "midi": 50,
          "time": 730.7458333333584,
          "velocity": 1,
          "duration": 0.25
        },
        {
          "name": "G2",
          "midi": 43,
          "time": 730.7458333333584,
          "velocity": 1,
          "duration": 0.25
        },
        {
          "name": "D3",
          "midi": 50,
          "time": 730.7458333333584,
          "velocity": 1,
          "duration": 0.25
        },
        {
          "name": "G2",
          "midi": 43,
          "time": 730.7458333333584,
          "velocity": 1,
          "duration": 0.25
        },
        {
          "name": "A2",
          "midi": 45,
          "time": 730.9958333333584,
          "velocity": 1,
          "duration": 0.25
        },
        {
          "name": "E3",
          "midi": 52,
          "time": 730.9958333333584,
          "velocity": 1,
          "duration": 0.25
        },
        {
          "name": "A2",
          "midi": 45,
          "time": 730.9958333333584,
          "velocity": 1,
          "duration": 0.25
        },
        {
          "name": "E3",
          "midi": 52,
          "time": 730.9958333333584,
          "velocity": 1,
          "duration": 0.25
        },
        {
          "name": "D3",
          "midi": 50,
          "time": 731.2458333333584,
          "velocity": 1,
          "duration": 0.25
        },
        {
          "name": "G2",
          "midi": 43,
          "time": 731.2458333333584,
          "velocity": 1,
          "duration": 0.25
        },
        {
          "name": "G2",
          "midi": 43,
          "time": 731.2458333333584,
          "velocity": 1,
          "duration": 0.25
        },
        {
          "name": "D3",
          "midi": 50,
          "time": 731.2458333333584,
          "velocity": 1,
          "duration": 0.25
        },
        {
          "name": "E3",
          "midi": 52,
          "time": 731.4958333333584,
          "velocity": 1,
          "duration": 0.25
        },
        {
          "name": "A2",
          "midi": 45,
          "time": 731.4958333333584,
          "velocity": 1,
          "duration": 0.25
        },
        {
          "name": "E3",
          "midi": 52,
          "time": 731.4958333333584,
          "velocity": 1,
          "duration": 0.25
        },
        {
          "name": "A2",
          "midi": 45,
          "time": 731.4958333333584,
          "velocity": 1,
          "duration": 0.25
        },
        {
          "name": "E2",
          "midi": 40,
          "time": 731.7458333333584,
          "velocity": 1,
          "duration": 0.25
        },
        {
          "name": "E2",
          "midi": 40,
          "time": 731.7458333333584,
          "velocity": 1,
          "duration": 0.25
        },
        {
          "name": "E2",
          "midi": 40,
          "time": 731.9958333333584,
          "velocity": 1,
          "duration": 0.25
        },
        {
          "name": "E2",
          "midi": 40,
          "time": 731.9958333333584,
          "velocity": 1,
          "duration": 0.25
        },
        {
          "name": "E2",
          "midi": 40,
          "time": 732.2458333333584,
          "velocity": 1,
          "duration": 0.25
        },
        {
          "name": "E2",
          "midi": 40,
          "time": 732.2458333333584,
          "velocity": 1,
          "duration": 0.25
        },
        {
          "name": "E2",
          "midi": 40,
          "time": 732.4958333333584,
          "velocity": 1,
          "duration": 0.25
        },
        {
          "name": "E2",
          "midi": 40,
          "time": 732.4958333333584,
          "velocity": 1,
          "duration": 0.25
        },
        {
          "name": "E2",
          "midi": 40,
          "time": 732.7458333333584,
          "velocity": 1,
          "duration": 0.25
        },
        {
          "name": "E2",
          "midi": 40,
          "time": 732.7458333333584,
          "velocity": 1,
          "duration": 0.25
        },
        {
          "name": "E2",
          "midi": 40,
          "time": 732.9958333333584,
          "velocity": 1,
          "duration": 0.25
        },
        {
          "name": "E2",
          "midi": 40,
          "time": 732.9958333333584,
          "velocity": 1,
          "duration": 0.25
        },
        {
          "name": "E2",
          "midi": 40,
          "time": 733.2458333333584,
          "velocity": 1,
          "duration": 0.25
        },
        {
          "name": "E2",
          "midi": 40,
          "time": 733.2458333333584,
          "velocity": 1,
          "duration": 0.25
        },
        {
          "name": "E2",
          "midi": 40,
          "time": 733.4958333333584,
          "velocity": 1,
          "duration": 0.25
        },
        {
          "name": "E2",
          "midi": 40,
          "time": 733.4958333333584,
          "velocity": 1,
          "duration": 0.25
        },
        {
          "name": "E2",
          "midi": 40,
          "time": 733.7458333333584,
          "velocity": 1,
          "duration": 0.25
        },
        {
          "name": "E2",
          "midi": 40,
          "time": 733.7458333333584,
          "velocity": 1,
          "duration": 0.25
        },
        {
          "name": "G2",
          "midi": 43,
          "time": 733.9958333333584,
          "velocity": 1,
          "duration": 0.25
        },
        {
          "name": "D3",
          "midi": 50,
          "time": 733.9958333333584,
          "velocity": 1,
          "duration": 0.25
        },
        {
          "name": "D3",
          "midi": 50,
          "time": 733.9958333333584,
          "velocity": 1,
          "duration": 0.25
        },
        {
          "name": "G2",
          "midi": 43,
          "time": 733.9958333333584,
          "velocity": 1,
          "duration": 0.25
        },
        {
          "name": "A2",
          "midi": 45,
          "time": 734.2458333333584,
          "velocity": 1,
          "duration": 0.25
        },
        {
          "name": "E3",
          "midi": 52,
          "time": 734.2458333333584,
          "velocity": 1,
          "duration": 0.25
        },
        {
          "name": "E3",
          "midi": 52,
          "time": 734.2458333333584,
          "velocity": 1,
          "duration": 0.25
        },
        {
          "name": "A2",
          "midi": 45,
          "time": 734.2458333333584,
          "velocity": 1,
          "duration": 0.25
        },
        {
          "name": "E2",
          "midi": 40,
          "time": 734.4958333333584,
          "velocity": 1,
          "duration": 0.25
        },
        {
          "name": "E2",
          "midi": 40,
          "time": 734.4958333333584,
          "velocity": 1,
          "duration": 0.25
        },
        {
          "name": "A#2",
          "midi": 46,
          "time": 734.7458333333584,
          "velocity": 1,
          "duration": 0.25
        },
        {
          "name": "F3",
          "midi": 53,
          "time": 734.7458333333584,
          "velocity": 1,
          "duration": 0.25
        },
        {
          "name": "A#2",
          "midi": 46,
          "time": 734.7458333333584,
          "velocity": 1,
          "duration": 0.25
        },
        {
          "name": "F3",
          "midi": 53,
          "time": 734.7458333333584,
          "velocity": 1,
          "duration": 0.25
        },
        {
          "name": "A2",
          "midi": 45,
          "time": 734.9958333333584,
          "velocity": 1,
          "duration": 0.25
        },
        {
          "name": "E3",
          "midi": 52,
          "time": 734.9958333333584,
          "velocity": 1,
          "duration": 0.25
        },
        {
          "name": "E3",
          "midi": 52,
          "time": 734.9958333333584,
          "velocity": 1,
          "duration": 0.25
        },
        {
          "name": "A2",
          "midi": 45,
          "time": 734.9958333333584,
          "velocity": 1,
          "duration": 0.25
        },
        {
          "name": "D3",
          "midi": 50,
          "time": 735.2458333333584,
          "velocity": 1,
          "duration": 0.25
        },
        {
          "name": "G2",
          "midi": 43,
          "time": 735.2458333333584,
          "velocity": 1,
          "duration": 0.25
        },
        {
          "name": "G2",
          "midi": 43,
          "time": 735.2458333333584,
          "velocity": 1,
          "duration": 0.25
        },
        {
          "name": "D3",
          "midi": 50,
          "time": 735.2458333333584,
          "velocity": 1,
          "duration": 0.25
        },
        {
          "name": "E3",
          "midi": 52,
          "time": 735.4958333333584,
          "velocity": 1,
          "duration": 0.25
        },
        {
          "name": "A2",
          "midi": 45,
          "time": 735.4958333333584,
          "velocity": 1,
          "duration": 0.25
        },
        {
          "name": "A2",
          "midi": 45,
          "time": 735.4958333333584,
          "velocity": 1,
          "duration": 0.25
        },
        {
          "name": "E3",
          "midi": 52,
          "time": 735.4958333333584,
          "velocity": 1,
          "duration": 0.25
        },
        {
          "name": "E2",
          "midi": 40,
          "time": 735.7458333333584,
          "velocity": 1,
          "duration": 0.25
        },
        {
          "name": "E2",
          "midi": 40,
          "time": 735.7458333333584,
          "velocity": 1,
          "duration": 0.25
        },
        {
          "name": "E2",
          "midi": 40,
          "time": 735.9958333333584,
          "velocity": 1,
          "duration": 0.25
        },
        {
          "name": "E2",
          "midi": 40,
          "time": 735.9958333333584,
          "velocity": 1,
          "duration": 0.25
        },
        {
          "name": "E2",
          "midi": 40,
          "time": 736.2458333333584,
          "velocity": 1,
          "duration": 0.25
        },
        {
          "name": "E2",
          "midi": 40,
          "time": 736.2458333333584,
          "velocity": 1,
          "duration": 0.25
        },
        {
          "name": "E2",
          "midi": 40,
          "time": 736.4958333333584,
          "velocity": 1,
          "duration": 0.25
        },
        {
          "name": "E2",
          "midi": 40,
          "time": 736.4958333333584,
          "velocity": 1,
          "duration": 0.25
        },
        {
          "name": "E2",
          "midi": 40,
          "time": 736.7458333333584,
          "velocity": 1,
          "duration": 0.25
        },
        {
          "name": "E2",
          "midi": 40,
          "time": 736.7458333333584,
          "velocity": 1,
          "duration": 0.25
        },
        {
          "name": "E2",
          "midi": 40,
          "time": 736.9958333333584,
          "velocity": 1,
          "duration": 0.25
        },
        {
          "name": "E2",
          "midi": 40,
          "time": 736.9958333333584,
          "velocity": 1,
          "duration": 0.25
        },
        {
          "name": "E2",
          "midi": 40,
          "time": 737.2458333333584,
          "velocity": 1,
          "duration": 0.25
        },
        {
          "name": "E2",
          "midi": 40,
          "time": 737.2458333333584,
          "velocity": 1,
          "duration": 0.25
        },
        {
          "name": "E2",
          "midi": 40,
          "time": 737.4958333333584,
          "velocity": 1,
          "duration": 0.25
        },
        {
          "name": "E2",
          "midi": 40,
          "time": 737.4958333333584,
          "velocity": 1,
          "duration": 0.25
        },
        {
          "name": "E2",
          "midi": 40,
          "time": 737.7458333333584,
          "velocity": 1,
          "duration": 0.25
        },
        {
          "name": "E2",
          "midi": 40,
          "time": 737.7458333333584,
          "velocity": 1,
          "duration": 0.25
        },
        {
          "name": "G2",
          "midi": 43,
          "time": 737.9958333333584,
          "velocity": 1,
          "duration": 0.25
        },
        {
          "name": "D3",
          "midi": 50,
          "time": 737.9958333333584,
          "velocity": 1,
          "duration": 0.25
        },
        {
          "name": "G2",
          "midi": 43,
          "time": 737.9958333333584,
          "velocity": 1,
          "duration": 0.25
        },
        {
          "name": "D3",
          "midi": 50,
          "time": 737.9958333333584,
          "velocity": 1,
          "duration": 0.25
        },
        {
          "name": "A2",
          "midi": 45,
          "time": 738.2458333333584,
          "velocity": 1,
          "duration": 0.25
        },
        {
          "name": "E3",
          "midi": 52,
          "time": 738.2458333333584,
          "velocity": 1,
          "duration": 0.25
        },
        {
          "name": "A2",
          "midi": 45,
          "time": 738.2458333333584,
          "velocity": 1,
          "duration": 0.25
        },
        {
          "name": "E3",
          "midi": 52,
          "time": 738.2458333333584,
          "velocity": 1,
          "duration": 0.25
        },
        {
          "name": "G2",
          "midi": 43,
          "time": 738.4958333333584,
          "velocity": 1,
          "duration": 0.25
        },
        {
          "name": "D3",
          "midi": 50,
          "time": 738.4958333333584,
          "velocity": 1,
          "duration": 0.25
        },
        {
          "name": "G2",
          "midi": 43,
          "time": 738.4958333333584,
          "velocity": 1,
          "duration": 0.25
        },
        {
          "name": "D3",
          "midi": 50,
          "time": 738.4958333333584,
          "velocity": 1,
          "duration": 0.25
        },
        {
          "name": "A2",
          "midi": 45,
          "time": 738.7458333333584,
          "velocity": 1,
          "duration": 0.25
        },
        {
          "name": "E3",
          "midi": 52,
          "time": 738.7458333333584,
          "velocity": 1,
          "duration": 0.25
        },
        {
          "name": "A2",
          "midi": 45,
          "time": 738.7458333333584,
          "velocity": 1,
          "duration": 0.25
        },
        {
          "name": "E3",
          "midi": 52,
          "time": 738.7458333333584,
          "velocity": 1,
          "duration": 0.25
        },
        {
          "name": "E2",
          "midi": 40,
          "time": 738.9958333333584,
          "velocity": 1,
          "duration": 0.25
        },
        {
          "name": "E2",
          "midi": 40,
          "time": 738.9958333333584,
          "velocity": 1,
          "duration": 0.25
        },
        {
          "name": "E2",
          "midi": 40,
          "time": 739.2458333333584,
          "velocity": 1,
          "duration": 0.25
        },
        {
          "name": "E2",
          "midi": 40,
          "time": 739.2458333333584,
          "velocity": 1,
          "duration": 0.25
        },
        {
          "name": "E2",
          "midi": 40,
          "time": 739.4958333333584,
          "velocity": 1,
          "duration": 0.25
        },
        {
          "name": "E2",
          "midi": 40,
          "time": 739.4958333333584,
          "velocity": 1,
          "duration": 0.25
        },
        {
          "name": "E2",
          "midi": 40,
          "time": 739.7458333333584,
          "velocity": 1,
          "duration": 0.25
        },
        {
          "name": "E2",
          "midi": 40,
          "time": 739.7458333333584,
          "velocity": 1,
          "duration": 0.25
        },
        {
          "name": "E2",
          "midi": 40,
          "time": 739.9958333333584,
          "velocity": 1,
          "duration": 0.25
        },
        {
          "name": "E2",
          "midi": 40,
          "time": 739.9958333333584,
          "velocity": 1,
          "duration": 0.25
        },
        {
          "name": "E2",
          "midi": 40,
          "time": 740.2458333333584,
          "velocity": 1,
          "duration": 0.25
        },
        {
          "name": "E2",
          "midi": 40,
          "time": 740.2458333333584,
          "velocity": 1,
          "duration": 0.25
        },
        {
          "name": "E2",
          "midi": 40,
          "time": 740.4958333333584,
          "velocity": 1,
          "duration": 0.25
        },
        {
          "name": "E2",
          "midi": 40,
          "time": 740.4958333333584,
          "velocity": 1,
          "duration": 0.25
        },
        {
          "name": "E2",
          "midi": 40,
          "time": 740.7458333333584,
          "velocity": 1,
          "duration": 0.25
        },
        {
          "name": "E2",
          "midi": 40,
          "time": 740.7458333333584,
          "velocity": 1,
          "duration": 0.25
        },
        {
          "name": "E2",
          "midi": 40,
          "time": 740.9958333333584,
          "velocity": 1,
          "duration": 0.25
        },
        {
          "name": "E2",
          "midi": 40,
          "time": 740.9958333333584,
          "velocity": 1,
          "duration": 0.25
        },
        {
          "name": "D3",
          "midi": 50,
          "time": 741.2458333333584,
          "velocity": 1,
          "duration": 0.25
        },
        {
          "name": "G2",
          "midi": 43,
          "time": 741.2458333333584,
          "velocity": 1,
          "duration": 0.25
        },
        {
          "name": "D3",
          "midi": 50,
          "time": 741.2458333333584,
          "velocity": 1,
          "duration": 0.25
        },
        {
          "name": "G2",
          "midi": 43,
          "time": 741.2458333333584,
          "velocity": 1,
          "duration": 0.25
        },
        {
          "name": "E3",
          "midi": 52,
          "time": 741.4958333333584,
          "velocity": 1,
          "duration": 0.25
        },
        {
          "name": "A2",
          "midi": 45,
          "time": 741.4958333333584,
          "velocity": 1,
          "duration": 0.25
        },
        {
          "name": "A2",
          "midi": 45,
          "time": 741.4958333333584,
          "velocity": 1,
          "duration": 0.25
        },
        {
          "name": "E3",
          "midi": 52,
          "time": 741.4958333333584,
          "velocity": 1,
          "duration": 0.25
        },
        {
          "name": "E2",
          "midi": 40,
          "time": 741.7458333333584,
          "velocity": 1,
          "duration": 0.25
        },
        {
          "name": "E2",
          "midi": 40,
          "time": 741.7458333333584,
          "velocity": 1,
          "duration": 0.25
        },
        {
          "name": "F3",
          "midi": 53,
          "time": 741.9958333333584,
          "velocity": 1,
          "duration": 0.25
        },
        {
          "name": "A#2",
          "midi": 46,
          "time": 741.9958333333584,
          "velocity": 1,
          "duration": 0.25
        },
        {
          "name": "F3",
          "midi": 53,
          "time": 741.9958333333584,
          "velocity": 1,
          "duration": 0.25
        },
        {
          "name": "A#2",
          "midi": 46,
          "time": 741.9958333333584,
          "velocity": 1,
          "duration": 0.25
        },
        {
          "name": "E3",
          "midi": 52,
          "time": 742.2458333333584,
          "velocity": 1,
          "duration": 0.25
        },
        {
          "name": "A2",
          "midi": 45,
          "time": 742.2458333333584,
          "velocity": 1,
          "duration": 0.25
        },
        {
          "name": "E3",
          "midi": 52,
          "time": 742.2458333333584,
          "velocity": 1,
          "duration": 0.25
        },
        {
          "name": "A2",
          "midi": 45,
          "time": 742.2458333333584,
          "velocity": 1,
          "duration": 0.25
        },
        {
          "name": "G2",
          "midi": 43,
          "time": 742.4958333333584,
          "velocity": 1,
          "duration": 0.25
        },
        {
          "name": "D3",
          "midi": 50,
          "time": 742.4958333333584,
          "velocity": 1,
          "duration": 0.25
        },
        {
          "name": "G2",
          "midi": 43,
          "time": 742.4958333333584,
          "velocity": 1,
          "duration": 0.25
        },
        {
          "name": "D3",
          "midi": 50,
          "time": 742.4958333333584,
          "velocity": 1,
          "duration": 0.25
        },
        {
          "name": "A2",
          "midi": 45,
          "time": 742.7458333333584,
          "velocity": 1,
          "duration": 0.25
        },
        {
          "name": "E3",
          "midi": 52,
          "time": 742.7458333333584,
          "velocity": 1,
          "duration": 0.25
        },
        {
          "name": "A2",
          "midi": 45,
          "time": 742.7458333333584,
          "velocity": 1,
          "duration": 0.25
        },
        {
          "name": "E3",
          "midi": 52,
          "time": 742.7458333333584,
          "velocity": 1,
          "duration": 0.25
        },
        {
          "name": "E2",
          "midi": 40,
          "time": 742.9958333333584,
          "velocity": 1,
          "duration": 0.25
        },
        {
          "name": "E2",
          "midi": 40,
          "time": 742.9958333333584,
          "velocity": 1,
          "duration": 0.25
        },
        {
          "name": "E2",
          "midi": 40,
          "time": 743.2458333333584,
          "velocity": 1,
          "duration": 0.25
        },
        {
          "name": "E2",
          "midi": 40,
          "time": 743.2458333333584,
          "velocity": 1,
          "duration": 0.25
        },
        {
          "name": "E2",
          "midi": 40,
          "time": 743.4958333333584,
          "velocity": 1,
          "duration": 0.25
        },
        {
          "name": "E2",
          "midi": 40,
          "time": 743.4958333333584,
          "velocity": 1,
          "duration": 0.25
        },
        {
          "name": "E2",
          "midi": 40,
          "time": 743.7458333333584,
          "velocity": 1,
          "duration": 0.25
        },
        {
          "name": "E2",
          "midi": 40,
          "time": 743.7458333333584,
          "velocity": 1,
          "duration": 0.25
        },
        {
          "name": "E2",
          "midi": 40,
          "time": 743.9958333333584,
          "velocity": 1,
          "duration": 0.25
        },
        {
          "name": "E2",
          "midi": 40,
          "time": 743.9958333333584,
          "velocity": 1,
          "duration": 0.25
        },
        {
          "name": "E2",
          "midi": 40,
          "time": 744.2458333333584,
          "velocity": 1,
          "duration": 0.25
        },
        {
          "name": "E2",
          "midi": 40,
          "time": 744.2458333333584,
          "velocity": 1,
          "duration": 0.25
        },
        {
          "name": "E2",
          "midi": 40,
          "time": 744.4958333333584,
          "velocity": 1,
          "duration": 0.25
        },
        {
          "name": "E2",
          "midi": 40,
          "time": 744.4958333333584,
          "velocity": 1,
          "duration": 0.25
        },
        {
          "name": "E2",
          "midi": 40,
          "time": 744.7458333333584,
          "velocity": 1,
          "duration": 0.25
        },
        {
          "name": "E2",
          "midi": 40,
          "time": 744.7458333333584,
          "velocity": 1,
          "duration": 0.25
        },
        {
          "name": "E2",
          "midi": 40,
          "time": 744.9958333333584,
          "velocity": 1,
          "duration": 0.25
        },
        {
          "name": "E2",
          "midi": 40,
          "time": 744.9958333333584,
          "velocity": 1,
          "duration": 0.25
        },
        {
          "name": "D3",
          "midi": 50,
          "time": 745.2458333333584,
          "velocity": 1,
          "duration": 0.25
        },
        {
          "name": "G2",
          "midi": 43,
          "time": 745.2458333333584,
          "velocity": 1,
          "duration": 0.25
        },
        {
          "name": "D3",
          "midi": 50,
          "time": 745.2458333333584,
          "velocity": 1,
          "duration": 0.25
        },
        {
          "name": "G2",
          "midi": 43,
          "time": 745.2458333333584,
          "velocity": 1,
          "duration": 0.25
        },
        {
          "name": "A2",
          "midi": 45,
          "time": 745.4958333333584,
          "velocity": 1,
          "duration": 0.25
        },
        {
          "name": "E3",
          "midi": 52,
          "time": 745.4958333333584,
          "velocity": 1,
          "duration": 0.25
        },
        {
          "name": "A2",
          "midi": 45,
          "time": 745.4958333333584,
          "velocity": 1,
          "duration": 0.25
        },
        {
          "name": "E3",
          "midi": 52,
          "time": 745.4958333333584,
          "velocity": 1,
          "duration": 0.25
        },
        {
          "name": "D3",
          "midi": 50,
          "time": 745.7458333333584,
          "velocity": 1,
          "duration": 0.25
        },
        {
          "name": "G2",
          "midi": 43,
          "time": 745.7458333333584,
          "velocity": 1,
          "duration": 0.25
        },
        {
          "name": "G2",
          "midi": 43,
          "time": 745.7458333333584,
          "velocity": 1,
          "duration": 0.25
        },
        {
          "name": "D3",
          "midi": 50,
          "time": 745.7458333333584,
          "velocity": 1,
          "duration": 0.25
        },
        {
          "name": "E3",
          "midi": 52,
          "time": 745.9958333333584,
          "velocity": 1,
          "duration": 0.25
        },
        {
          "name": "A2",
          "midi": 45,
          "time": 745.9958333333584,
          "velocity": 1,
          "duration": 0.25
        },
        {
          "name": "A2",
          "midi": 45,
          "time": 745.9958333333584,
          "velocity": 1,
          "duration": 0.25
        },
        {
          "name": "E3",
          "midi": 52,
          "time": 745.9958333333584,
          "velocity": 1,
          "duration": 0.25
        },
        {
          "name": "E2",
          "midi": 40,
          "time": 746.2458333333584,
          "velocity": 1,
          "duration": 0.25
        },
        {
          "name": "E2",
          "midi": 40,
          "time": 746.2458333333584,
          "velocity": 1,
          "duration": 0.25
        },
        {
          "name": "E2",
          "midi": 40,
          "time": 746.4958333333584,
          "velocity": 1,
          "duration": 0.25
        },
        {
          "name": "E2",
          "midi": 40,
          "time": 746.4958333333584,
          "velocity": 1,
          "duration": 0.25
        },
        {
          "name": "E2",
          "midi": 40,
          "time": 746.7458333333584,
          "velocity": 1,
          "duration": 0.25
        },
        {
          "name": "E2",
          "midi": 40,
          "time": 746.7458333333584,
          "velocity": 1,
          "duration": 0.25
        },
        {
          "name": "E2",
          "midi": 40,
          "time": 746.9958333333584,
          "velocity": 1,
          "duration": 0.25
        },
        {
          "name": "E2",
          "midi": 40,
          "time": 746.9958333333584,
          "velocity": 1,
          "duration": 0.25
        },
        {
          "name": "E2",
          "midi": 40,
          "time": 747.2458333333584,
          "velocity": 1,
          "duration": 0.25
        },
        {
          "name": "E2",
          "midi": 40,
          "time": 747.2458333333584,
          "velocity": 1,
          "duration": 0.25
        },
        {
          "name": "E2",
          "midi": 40,
          "time": 747.4958333333584,
          "velocity": 1,
          "duration": 0.25
        },
        {
          "name": "E2",
          "midi": 40,
          "time": 747.4958333333584,
          "velocity": 1,
          "duration": 0.25
        },
        {
          "name": "E2",
          "midi": 40,
          "time": 747.7458333333584,
          "velocity": 1,
          "duration": 0.25
        },
        {
          "name": "E2",
          "midi": 40,
          "time": 747.7458333333584,
          "velocity": 1,
          "duration": 0.25
        },
        {
          "name": "E2",
          "midi": 40,
          "time": 747.9958333333584,
          "velocity": 1,
          "duration": 0.25
        },
        {
          "name": "E2",
          "midi": 40,
          "time": 747.9958333333584,
          "velocity": 1,
          "duration": 0.25
        },
        {
          "name": "E2",
          "midi": 40,
          "time": 748.2458333333584,
          "velocity": 1,
          "duration": 0.25
        },
        {
          "name": "E2",
          "midi": 40,
          "time": 748.2458333333584,
          "velocity": 1,
          "duration": 0.25
        },
        {
          "name": "G2",
          "midi": 43,
          "time": 748.4958333333584,
          "velocity": 1,
          "duration": 0.25
        },
        {
          "name": "D3",
          "midi": 50,
          "time": 748.4958333333584,
          "velocity": 1,
          "duration": 0.25
        },
        {
          "name": "G2",
          "midi": 43,
          "time": 748.4958333333584,
          "velocity": 1,
          "duration": 0.25
        },
        {
          "name": "D3",
          "midi": 50,
          "time": 748.4958333333584,
          "velocity": 1,
          "duration": 0.25
        },
        {
          "name": "A2",
          "midi": 45,
          "time": 748.7458333333584,
          "velocity": 1,
          "duration": 0.25
        },
        {
          "name": "E3",
          "midi": 52,
          "time": 748.7458333333584,
          "velocity": 1,
          "duration": 0.25
        },
        {
          "name": "E3",
          "midi": 52,
          "time": 748.7458333333584,
          "velocity": 1,
          "duration": 0.25
        },
        {
          "name": "A2",
          "midi": 45,
          "time": 748.7458333333584,
          "velocity": 1,
          "duration": 0.25
        },
        {
          "name": "E2",
          "midi": 40,
          "time": 748.9958333333584,
          "velocity": 1,
          "duration": 0.25
        },
        {
          "name": "E2",
          "midi": 40,
          "time": 748.9958333333584,
          "velocity": 1,
          "duration": 0.25
        },
        {
          "name": "A#2",
          "midi": 46,
          "time": 749.2458333333584,
          "velocity": 1,
          "duration": 0.25
        },
        {
          "name": "F3",
          "midi": 53,
          "time": 749.2458333333584,
          "velocity": 1,
          "duration": 0.25
        },
        {
          "name": "A#2",
          "midi": 46,
          "time": 749.2458333333584,
          "velocity": 1,
          "duration": 0.25
        },
        {
          "name": "F3",
          "midi": 53,
          "time": 749.2458333333584,
          "velocity": 1,
          "duration": 0.25
        },
        {
          "name": "A2",
          "midi": 45,
          "time": 749.4958333333584,
          "velocity": 1,
          "duration": 0.25
        },
        {
          "name": "E3",
          "midi": 52,
          "time": 749.4958333333584,
          "velocity": 1,
          "duration": 0.25
        },
        {
          "name": "E3",
          "midi": 52,
          "time": 749.4958333333584,
          "velocity": 1,
          "duration": 0.25
        },
        {
          "name": "A2",
          "midi": 45,
          "time": 749.4958333333584,
          "velocity": 1,
          "duration": 0.25
        },
        {
          "name": "D3",
          "midi": 50,
          "time": 749.7458333333584,
          "velocity": 1,
          "duration": 0.25
        },
        {
          "name": "G2",
          "midi": 43,
          "time": 749.7458333333584,
          "velocity": 1,
          "duration": 0.25
        },
        {
          "name": "G2",
          "midi": 43,
          "time": 749.7458333333584,
          "velocity": 1,
          "duration": 0.25
        },
        {
          "name": "D3",
          "midi": 50,
          "time": 749.7458333333584,
          "velocity": 1,
          "duration": 0.25
        },
        {
          "name": "E3",
          "midi": 52,
          "time": 749.9958333333584,
          "velocity": 1,
          "duration": 0.25
        },
        {
          "name": "A2",
          "midi": 45,
          "time": 749.9958333333584,
          "velocity": 1,
          "duration": 0.25
        },
        {
          "name": "E3",
          "midi": 52,
          "time": 749.9958333333584,
          "velocity": 1,
          "duration": 0.25
        },
        {
          "name": "A2",
          "midi": 45,
          "time": 749.9958333333584,
          "velocity": 1,
          "duration": 0.25
        },
        {
          "name": "E2",
          "midi": 40,
          "time": 750.2458333333584,
          "velocity": 1,
          "duration": 0.25
        },
        {
          "name": "E2",
          "midi": 40,
          "time": 750.2458333333584,
          "velocity": 1,
          "duration": 0.25
        },
        {
          "name": "E2",
          "midi": 40,
          "time": 750.4958333333584,
          "velocity": 1,
          "duration": 0.25
        },
        {
          "name": "E2",
          "midi": 40,
          "time": 750.4958333333584,
          "velocity": 1,
          "duration": 0.25
        },
        {
          "name": "E2",
          "midi": 40,
          "time": 750.7458333333584,
          "velocity": 1,
          "duration": 0.25
        },
        {
          "name": "E2",
          "midi": 40,
          "time": 750.7458333333584,
          "velocity": 1,
          "duration": 0.25
        },
        {
          "name": "E2",
          "midi": 40,
          "time": 750.9958333333584,
          "velocity": 1,
          "duration": 0.25
        },
        {
          "name": "E2",
          "midi": 40,
          "time": 750.9958333333584,
          "velocity": 1,
          "duration": 0.25
        },
        {
          "name": "E2",
          "midi": 40,
          "time": 751.2458333333584,
          "velocity": 1,
          "duration": 0.25
        },
        {
          "name": "E2",
          "midi": 40,
          "time": 751.2458333333584,
          "velocity": 1,
          "duration": 0.25
        },
        {
          "name": "E2",
          "midi": 40,
          "time": 751.4958333333584,
          "velocity": 1,
          "duration": 0.25
        },
        {
          "name": "E2",
          "midi": 40,
          "time": 751.4958333333584,
          "velocity": 1,
          "duration": 0.25
        },
        {
          "name": "E2",
          "midi": 40,
          "time": 751.7458333333584,
          "velocity": 1,
          "duration": 0.25
        },
        {
          "name": "E2",
          "midi": 40,
          "time": 751.7458333333584,
          "velocity": 1,
          "duration": 0.25
        },
        {
          "name": "E2",
          "midi": 40,
          "time": 751.9958333333584,
          "velocity": 1,
          "duration": 0.25
        },
        {
          "name": "E2",
          "midi": 40,
          "time": 751.9958333333584,
          "velocity": 1,
          "duration": 0.25
        },
        {
          "name": "E2",
          "midi": 40,
          "time": 752.2458333333584,
          "velocity": 1,
          "duration": 0.25
        },
        {
          "name": "E2",
          "midi": 40,
          "time": 752.2458333333584,
          "velocity": 1,
          "duration": 0.25
        },
        {
          "name": "G2",
          "midi": 43,
          "time": 752.4958333333584,
          "velocity": 1,
          "duration": 0.25
        },
        {
          "name": "D3",
          "midi": 50,
          "time": 752.4958333333584,
          "velocity": 1,
          "duration": 0.25
        },
        {
          "name": "D3",
          "midi": 50,
          "time": 752.4958333333584,
          "velocity": 1,
          "duration": 0.25
        },
        {
          "name": "G2",
          "midi": 43,
          "time": 752.4958333333584,
          "velocity": 1,
          "duration": 0.25
        },
        {
          "name": "A2",
          "midi": 45,
          "time": 752.7458333333584,
          "velocity": 1,
          "duration": 0.25
        },
        {
          "name": "E3",
          "midi": 52,
          "time": 752.7458333333584,
          "velocity": 1,
          "duration": 0.25
        },
        {
          "name": "E3",
          "midi": 52,
          "time": 752.7458333333584,
          "velocity": 1,
          "duration": 0.25
        },
        {
          "name": "A2",
          "midi": 45,
          "time": 752.7458333333584,
          "velocity": 1,
          "duration": 0.25
        },
        {
          "name": "G2",
          "midi": 43,
          "time": 752.9958333333584,
          "velocity": 1,
          "duration": 0.25
        },
        {
          "name": "D3",
          "midi": 50,
          "time": 752.9958333333584,
          "velocity": 1,
          "duration": 0.25
        },
        {
          "name": "D3",
          "midi": 50,
          "time": 752.9958333333584,
          "velocity": 1,
          "duration": 0.25
        },
        {
          "name": "G2",
          "midi": 43,
          "time": 752.9958333333584,
          "velocity": 1,
          "duration": 0.25
        },
        {
          "name": "A2",
          "midi": 45,
          "time": 753.2458333333584,
          "velocity": 1,
          "duration": 0.25
        },
        {
          "name": "E3",
          "midi": 52,
          "time": 753.2458333333584,
          "velocity": 1,
          "duration": 0.25
        },
        {
          "name": "E3",
          "midi": 52,
          "time": 753.2458333333584,
          "velocity": 1,
          "duration": 0.25
        },
        {
          "name": "A2",
          "midi": 45,
          "time": 753.2458333333584,
          "velocity": 1,
          "duration": 0.25
        },
        {
          "name": "B5",
          "midi": 83,
          "time": 753.5000000000251,
          "velocity": 1,
          "duration": 0.5
        },
        {
          "name": "B4",
          "midi": 71,
          "time": 753.5000000000251,
          "velocity": 1,
          "duration": 0.4833333333333485
        },
        {
          "name": "G5",
          "midi": 79,
          "time": 754.0000000000251,
          "velocity": 1,
          "duration": 0.5000000000001137
        },
        {
          "name": "G4",
          "midi": 67,
          "time": 754.0041666666918,
          "velocity": 1,
          "duration": 0.5208333333333712
        },
        {
          "name": "D4",
          "midi": 62,
          "time": 754.4875000000252,
          "velocity": 1,
          "duration": 0.4833333333333485
        },
        {
          "name": "D5",
          "midi": 74,
          "time": 754.5000000000252,
          "velocity": 1,
          "duration": 0.5
        },
        {
          "name": "B4",
          "midi": 71,
          "time": 755.0000000000252,
          "velocity": 1,
          "duration": 0.5000000000001137
        },
        {
          "name": "B3",
          "midi": 59,
          "time": 755.0000000000252,
          "velocity": 1,
          "duration": 0.49166666666667425
        },
        {
          "name": "D3",
          "midi": 50,
          "time": 755.4958333333586,
          "velocity": 1,
          "duration": 0.25
        },
        {
          "name": "G2",
          "midi": 43,
          "time": 755.4958333333586,
          "velocity": 1,
          "duration": 0.25
        },
        {
          "name": "G2",
          "midi": 43,
          "time": 755.4958333333586,
          "velocity": 1,
          "duration": 0.25
        },
        {
          "name": "D3",
          "midi": 50,
          "time": 755.4958333333586,
          "velocity": 1,
          "duration": 0.25
        },
        {
          "name": "C#3",
          "midi": 49,
          "time": 755.7458333333586,
          "velocity": 1,
          "duration": 0.25
        },
        {
          "name": "F#2",
          "midi": 42,
          "time": 755.7458333333586,
          "velocity": 1,
          "duration": 0.25
        },
        {
          "name": "F#2",
          "midi": 42,
          "time": 755.7458333333586,
          "velocity": 1,
          "duration": 0.25
        },
        {
          "name": "C#3",
          "midi": 49,
          "time": 755.7458333333586,
          "velocity": 1,
          "duration": 0.25
        },
        {
          "name": "E2",
          "midi": 40,
          "time": 755.9958333333586,
          "velocity": 1,
          "duration": 0.25
        },
        {
          "name": "E2",
          "midi": 40,
          "time": 755.9958333333586,
          "velocity": 1,
          "duration": 0.25
        },
        {
          "name": "G2",
          "midi": 43,
          "time": 756.2458333333586,
          "velocity": 1,
          "duration": 0.25
        },
        {
          "name": "D3",
          "midi": 50,
          "time": 756.2458333333586,
          "velocity": 1,
          "duration": 0.25
        },
        {
          "name": "D3",
          "midi": 50,
          "time": 756.2458333333586,
          "velocity": 1,
          "duration": 0.25
        },
        {
          "name": "G2",
          "midi": 43,
          "time": 756.2458333333586,
          "velocity": 1,
          "duration": 0.25
        },
        {
          "name": "C#3",
          "midi": 49,
          "time": 756.4958333333586,
          "velocity": 1,
          "duration": 0.25
        },
        {
          "name": "F#2",
          "midi": 42,
          "time": 756.4958333333586,
          "velocity": 1,
          "duration": 0.25
        },
        {
          "name": "F#2",
          "midi": 42,
          "time": 756.4958333333586,
          "velocity": 1,
          "duration": 0.25
        },
        {
          "name": "C#3",
          "midi": 49,
          "time": 756.4958333333586,
          "velocity": 1,
          "duration": 0.25
        },
        {
          "name": "E2",
          "midi": 40,
          "time": 756.7458333333586,
          "velocity": 1,
          "duration": 0.25
        },
        {
          "name": "E2",
          "midi": 40,
          "time": 756.7458333333586,
          "velocity": 1,
          "duration": 0.25
        },
        {
          "name": "G2",
          "midi": 43,
          "time": 756.9958333333586,
          "velocity": 1,
          "duration": 0.25
        },
        {
          "name": "D3",
          "midi": 50,
          "time": 756.9958333333586,
          "velocity": 1,
          "duration": 0.25
        },
        {
          "name": "G2",
          "midi": 43,
          "time": 756.9958333333586,
          "velocity": 1,
          "duration": 0.25
        },
        {
          "name": "D3",
          "midi": 50,
          "time": 756.9958333333586,
          "velocity": 1,
          "duration": 0.25
        },
        {
          "name": "C#3",
          "midi": 49,
          "time": 757.2458333333586,
          "velocity": 1,
          "duration": 0.25
        },
        {
          "name": "F#2",
          "midi": 42,
          "time": 757.2458333333586,
          "velocity": 1,
          "duration": 0.25
        },
        {
          "name": "C#3",
          "midi": 49,
          "time": 757.2458333333586,
          "velocity": 1,
          "duration": 0.25
        },
        {
          "name": "F#2",
          "midi": 42,
          "time": 757.2458333333586,
          "velocity": 1,
          "duration": 0.25
        },
        {
          "name": "B3",
          "midi": 59,
          "time": 757.4958333333586,
          "velocity": 1,
          "duration": 2
        },
        {
          "name": "E2",
          "midi": 40,
          "time": 757.4958333333586,
          "velocity": 1,
          "duration": 2
        },
        {
          "name": "B2",
          "midi": 47,
          "time": 757.4958333333586,
          "velocity": 1,
          "duration": 2
        },
        {
          "name": "E3",
          "midi": 52,
          "time": 757.4958333333586,
          "velocity": 1,
          "duration": 2
        },
        {
          "name": "B3",
          "midi": 59,
          "time": 757.4958333333586,
          "velocity": 1,
          "duration": 2
        },
        {
          "name": "E3",
          "midi": 52,
          "time": 757.4958333333586,
          "velocity": 1,
          "duration": 2
        },
        {
          "name": "E2",
          "midi": 40,
          "time": 757.4958333333586,
          "velocity": 1,
          "duration": 2
        },
        {
          "name": "B2",
          "midi": 47,
          "time": 757.4958333333586,
          "velocity": 1,
          "duration": 2
        }
      ],
      "controlChanges": {
        "1": [
          {
            "number": 1,
            "time": 155.2458333333327,
            "value": 0
          },
          {
            "number": 1,
            "time": 155.2458333333327,
            "value": 0
          },
          {
            "number": 1,
            "time": 155.24999999999937,
            "value": 0.05511811023622047
          },
          {
            "number": 1,
            "time": 155.24999999999937,
            "value": 0.05511811023622047
          },
          {
            "number": 1,
            "time": 155.25416666666604,
            "value": 0.10236220472440945
          },
          {
            "number": 1,
            "time": 155.25416666666604,
            "value": 0.10236220472440945
          },
          {
            "number": 1,
            "time": 155.2583333333327,
            "value": 0.15748031496062992
          },
          {
            "number": 1,
            "time": 155.2583333333327,
            "value": 0.15748031496062992
          },
          {
            "number": 1,
            "time": 155.26249999999936,
            "value": 0.2047244094488189
          },
          {
            "number": 1,
            "time": 155.26249999999936,
            "value": 0.2047244094488189
          },
          {
            "number": 1,
            "time": 155.26666666666603,
            "value": 0.25196850393700787
          },
          {
            "number": 1,
            "time": 155.26666666666603,
            "value": 0.25196850393700787
          },
          {
            "number": 1,
            "time": 155.2708333333327,
            "value": 0.30708661417322836
          },
          {
            "number": 1,
            "time": 155.2708333333327,
            "value": 0.30708661417322836
          },
          {
            "number": 1,
            "time": 155.27499999999935,
            "value": 0.3543307086614173
          },
          {
            "number": 1,
            "time": 155.27499999999935,
            "value": 0.3543307086614173
          },
          {
            "number": 1,
            "time": 155.27916666666601,
            "value": 0.4094488188976378
          },
          {
            "number": 1,
            "time": 155.27916666666601,
            "value": 0.4094488188976378
          },
          {
            "number": 1,
            "time": 155.28333333333268,
            "value": 0.4566929133858268
          },
          {
            "number": 1,
            "time": 155.28333333333268,
            "value": 0.4566929133858268
          },
          {
            "number": 1,
            "time": 155.28749999999934,
            "value": 0.5039370078740157
          },
          {
            "number": 1,
            "time": 155.28749999999934,
            "value": 0.5039370078740157
          },
          {
            "number": 1,
            "time": 155.99166666666602,
            "value": 0
          },
          {
            "number": 1,
            "time": 155.99166666666602,
            "value": 0
          },
          {
            "number": 1,
            "time": 163.24583333333263,
            "value": 0
          },
          {
            "number": 1,
            "time": 163.24583333333263,
            "value": 0
          },
          {
            "number": 1,
            "time": 163.2499999999993,
            "value": 0.05511811023622047
          },
          {
            "number": 1,
            "time": 163.2499999999993,
            "value": 0.05511811023622047
          },
          {
            "number": 1,
            "time": 163.25416666666595,
            "value": 0.10236220472440945
          },
          {
            "number": 1,
            "time": 163.25416666666595,
            "value": 0.10236220472440945
          },
          {
            "number": 1,
            "time": 163.25833333333262,
            "value": 0.15748031496062992
          },
          {
            "number": 1,
            "time": 163.25833333333262,
            "value": 0.15748031496062992
          },
          {
            "number": 1,
            "time": 163.26249999999928,
            "value": 0.2047244094488189
          },
          {
            "number": 1,
            "time": 163.26249999999928,
            "value": 0.2047244094488189
          },
          {
            "number": 1,
            "time": 163.26666666666594,
            "value": 0.25196850393700787
          },
          {
            "number": 1,
            "time": 163.26666666666594,
            "value": 0.25196850393700787
          },
          {
            "number": 1,
            "time": 163.2708333333326,
            "value": 0.30708661417322836
          },
          {
            "number": 1,
            "time": 163.2708333333326,
            "value": 0.30708661417322836
          },
          {
            "number": 1,
            "time": 163.27499999999927,
            "value": 0.3543307086614173
          },
          {
            "number": 1,
            "time": 163.27499999999927,
            "value": 0.3543307086614173
          },
          {
            "number": 1,
            "time": 163.27916666666593,
            "value": 0.4094488188976378
          },
          {
            "number": 1,
            "time": 163.27916666666593,
            "value": 0.4094488188976378
          },
          {
            "number": 1,
            "time": 163.2833333333326,
            "value": 0.4566929133858268
          },
          {
            "number": 1,
            "time": 163.2833333333326,
            "value": 0.4566929133858268
          },
          {
            "number": 1,
            "time": 163.28749999999926,
            "value": 0.5039370078740157
          },
          {
            "number": 1,
            "time": 163.28749999999926,
            "value": 0.5039370078740157
          },
          {
            "number": 1,
            "time": 163.49166666666594,
            "value": 0
          },
          {
            "number": 1,
            "time": 163.99166666666594,
            "value": 0
          },
          {
            "number": 1,
            "time": 171.2458333333326,
            "value": 0
          },
          {
            "number": 1,
            "time": 171.2458333333326,
            "value": 0
          },
          {
            "number": 1,
            "time": 171.24999999999926,
            "value": 0.05511811023622047
          },
          {
            "number": 1,
            "time": 171.24999999999926,
            "value": 0.05511811023622047
          },
          {
            "number": 1,
            "time": 171.25416666666592,
            "value": 0.10236220472440945
          },
          {
            "number": 1,
            "time": 171.25416666666592,
            "value": 0.10236220472440945
          },
          {
            "number": 1,
            "time": 171.2583333333326,
            "value": 0.15748031496062992
          },
          {
            "number": 1,
            "time": 171.2583333333326,
            "value": 0.15748031496062992
          },
          {
            "number": 1,
            "time": 171.26249999999925,
            "value": 0.2047244094488189
          },
          {
            "number": 1,
            "time": 171.26249999999925,
            "value": 0.2047244094488189
          },
          {
            "number": 1,
            "time": 171.2666666666659,
            "value": 0.25196850393700787
          },
          {
            "number": 1,
            "time": 171.2666666666659,
            "value": 0.25196850393700787
          },
          {
            "number": 1,
            "time": 171.27083333333258,
            "value": 0.30708661417322836
          },
          {
            "number": 1,
            "time": 171.27083333333258,
            "value": 0.30708661417322836
          },
          {
            "number": 1,
            "time": 171.27499999999924,
            "value": 0.3543307086614173
          },
          {
            "number": 1,
            "time": 171.27499999999924,
            "value": 0.3543307086614173
          },
          {
            "number": 1,
            "time": 171.2791666666659,
            "value": 0.4094488188976378
          },
          {
            "number": 1,
            "time": 171.2791666666659,
            "value": 0.4094488188976378
          },
          {
            "number": 1,
            "time": 171.28333333333256,
            "value": 0.4566929133858268
          },
          {
            "number": 1,
            "time": 171.28333333333256,
            "value": 0.4566929133858268
          },
          {
            "number": 1,
            "time": 171.28749999999923,
            "value": 0.5039370078740157
          },
          {
            "number": 1,
            "time": 171.28749999999923,
            "value": 0.5039370078740157
          },
          {
            "number": 1,
            "time": 171.4916666666659,
            "value": 0
          },
          {
            "number": 1,
            "time": 171.9916666666659,
            "value": 0
          },
          {
            "number": 1,
            "time": 179.24583333333257,
            "value": 0
          },
          {
            "number": 1,
            "time": 179.24583333333257,
            "value": 0
          },
          {
            "number": 1,
            "time": 179.24999999999923,
            "value": 0.05511811023622047
          },
          {
            "number": 1,
            "time": 179.24999999999923,
            "value": 0.05511811023622047
          },
          {
            "number": 1,
            "time": 179.2541666666659,
            "value": 0.10236220472440945
          },
          {
            "number": 1,
            "time": 179.2541666666659,
            "value": 0.10236220472440945
          },
          {
            "number": 1,
            "time": 179.25833333333256,
            "value": 0.15748031496062992
          },
          {
            "number": 1,
            "time": 179.25833333333256,
            "value": 0.15748031496062992
          },
          {
            "number": 1,
            "time": 179.26249999999922,
            "value": 0.2047244094488189
          },
          {
            "number": 1,
            "time": 179.26249999999922,
            "value": 0.2047244094488189
          },
          {
            "number": 1,
            "time": 179.26666666666588,
            "value": 0.25196850393700787
          },
          {
            "number": 1,
            "time": 179.26666666666588,
            "value": 0.25196850393700787
          },
          {
            "number": 1,
            "time": 179.27083333333255,
            "value": 0.30708661417322836
          },
          {
            "number": 1,
            "time": 179.27083333333255,
            "value": 0.30708661417322836
          },
          {
            "number": 1,
            "time": 179.2749999999992,
            "value": 0.3543307086614173
          },
          {
            "number": 1,
            "time": 179.2749999999992,
            "value": 0.3543307086614173
          },
          {
            "number": 1,
            "time": 179.27916666666587,
            "value": 0.4094488188976378
          },
          {
            "number": 1,
            "time": 179.27916666666587,
            "value": 0.4094488188976378
          },
          {
            "number": 1,
            "time": 179.28333333333254,
            "value": 0.4566929133858268
          },
          {
            "number": 1,
            "time": 179.28333333333254,
            "value": 0.4566929133858268
          },
          {
            "number": 1,
            "time": 179.2874999999992,
            "value": 0.5039370078740157
          },
          {
            "number": 1,
            "time": 179.2874999999992,
            "value": 0.5039370078740157
          },
          {
            "number": 1,
            "time": 179.49166666666588,
            "value": 0
          },
          {
            "number": 1,
            "time": 179.99166666666588,
            "value": 0
          },
          {
            "number": 1,
            "time": 294.74583333333175,
            "value": 0
          },
          {
            "number": 1,
            "time": 294.74583333333175,
            "value": 0
          },
          {
            "number": 1,
            "time": 294.7499999999984,
            "value": 0.05511811023622047
          },
          {
            "number": 1,
            "time": 294.7499999999984,
            "value": 0.05511811023622047
          },
          {
            "number": 1,
            "time": 294.75416666666507,
            "value": 0.10236220472440945
          },
          {
            "number": 1,
            "time": 294.75416666666507,
            "value": 0.10236220472440945
          },
          {
            "number": 1,
            "time": 294.75833333333173,
            "value": 0.15748031496062992
          },
          {
            "number": 1,
            "time": 294.75833333333173,
            "value": 0.15748031496062992
          },
          {
            "number": 1,
            "time": 294.7624999999984,
            "value": 0.2047244094488189
          },
          {
            "number": 1,
            "time": 294.7624999999984,
            "value": 0.2047244094488189
          },
          {
            "number": 1,
            "time": 294.76666666666506,
            "value": 0.25196850393700787
          },
          {
            "number": 1,
            "time": 294.76666666666506,
            "value": 0.25196850393700787
          },
          {
            "number": 1,
            "time": 294.7708333333317,
            "value": 0.30708661417322836
          },
          {
            "number": 1,
            "time": 294.7708333333317,
            "value": 0.30708661417322836
          },
          {
            "number": 1,
            "time": 294.7749999999984,
            "value": 0.3543307086614173
          },
          {
            "number": 1,
            "time": 294.7749999999984,
            "value": 0.3543307086614173
          },
          {
            "number": 1,
            "time": 294.77916666666505,
            "value": 0.4094488188976378
          },
          {
            "number": 1,
            "time": 294.77916666666505,
            "value": 0.4094488188976378
          },
          {
            "number": 1,
            "time": 294.7833333333317,
            "value": 0.4566929133858268
          },
          {
            "number": 1,
            "time": 294.7833333333317,
            "value": 0.4566929133858268
          },
          {
            "number": 1,
            "time": 294.7874999999984,
            "value": 0.5039370078740157
          },
          {
            "number": 1,
            "time": 294.7874999999984,
            "value": 0.5039370078740157
          },
          {
            "number": 1,
            "time": 295.491666666665,
            "value": 0
          },
          {
            "number": 1,
            "time": 295.491666666665,
            "value": 0
          },
          {
            "number": 1,
            "time": 302.7458333333317,
            "value": 0
          },
          {
            "number": 1,
            "time": 302.7458333333317,
            "value": 0
          },
          {
            "number": 1,
            "time": 302.74999999999835,
            "value": 0.05511811023622047
          },
          {
            "number": 1,
            "time": 302.74999999999835,
            "value": 0.05511811023622047
          },
          {
            "number": 1,
            "time": 302.754166666665,
            "value": 0.10236220472440945
          },
          {
            "number": 1,
            "time": 302.754166666665,
            "value": 0.10236220472440945
          },
          {
            "number": 1,
            "time": 302.7583333333317,
            "value": 0.15748031496062992
          },
          {
            "number": 1,
            "time": 302.7583333333317,
            "value": 0.15748031496062992
          },
          {
            "number": 1,
            "time": 302.76249999999834,
            "value": 0.2047244094488189
          },
          {
            "number": 1,
            "time": 302.76249999999834,
            "value": 0.2047244094488189
          },
          {
            "number": 1,
            "time": 302.766666666665,
            "value": 0.25196850393700787
          },
          {
            "number": 1,
            "time": 302.766666666665,
            "value": 0.25196850393700787
          },
          {
            "number": 1,
            "time": 302.77083333333167,
            "value": 0.30708661417322836
          },
          {
            "number": 1,
            "time": 302.77083333333167,
            "value": 0.30708661417322836
          },
          {
            "number": 1,
            "time": 302.77499999999833,
            "value": 0.3543307086614173
          },
          {
            "number": 1,
            "time": 302.77499999999833,
            "value": 0.3543307086614173
          },
          {
            "number": 1,
            "time": 302.779166666665,
            "value": 0.4094488188976378
          },
          {
            "number": 1,
            "time": 302.779166666665,
            "value": 0.4094488188976378
          },
          {
            "number": 1,
            "time": 302.78333333333165,
            "value": 0.4566929133858268
          },
          {
            "number": 1,
            "time": 302.78333333333165,
            "value": 0.4566929133858268
          },
          {
            "number": 1,
            "time": 302.7874999999983,
            "value": 0.5039370078740157
          },
          {
            "number": 1,
            "time": 302.7874999999983,
            "value": 0.5039370078740157
          },
          {
            "number": 1,
            "time": 302.99166666666497,
            "value": 0
          },
          {
            "number": 1,
            "time": 303.49166666666497,
            "value": 0
          },
          {
            "number": 1,
            "time": 310.74583333333163,
            "value": 0
          },
          {
            "number": 1,
            "time": 310.74583333333163,
            "value": 0
          },
          {
            "number": 1,
            "time": 310.7499999999983,
            "value": 0.05511811023622047
          },
          {
            "number": 1,
            "time": 310.7499999999983,
            "value": 0.05511811023622047
          },
          {
            "number": 1,
            "time": 310.75416666666496,
            "value": 0.10236220472440945
          },
          {
            "number": 1,
            "time": 310.75416666666496,
            "value": 0.10236220472440945
          },
          {
            "number": 1,
            "time": 310.7583333333316,
            "value": 0.15748031496062992
          },
          {
            "number": 1,
            "time": 310.7583333333316,
            "value": 0.15748031496062992
          },
          {
            "number": 1,
            "time": 310.7624999999983,
            "value": 0.2047244094488189
          },
          {
            "number": 1,
            "time": 310.7624999999983,
            "value": 0.2047244094488189
          },
          {
            "number": 1,
            "time": 310.76666666666495,
            "value": 0.25196850393700787
          },
          {
            "number": 1,
            "time": 310.76666666666495,
            "value": 0.25196850393700787
          },
          {
            "number": 1,
            "time": 310.7708333333316,
            "value": 0.30708661417322836
          },
          {
            "number": 1,
            "time": 310.7708333333316,
            "value": 0.30708661417322836
          },
          {
            "number": 1,
            "time": 310.7749999999983,
            "value": 0.3543307086614173
          },
          {
            "number": 1,
            "time": 310.7749999999983,
            "value": 0.3543307086614173
          },
          {
            "number": 1,
            "time": 310.77916666666493,
            "value": 0.4094488188976378
          },
          {
            "number": 1,
            "time": 310.77916666666493,
            "value": 0.4094488188976378
          },
          {
            "number": 1,
            "time": 310.7833333333316,
            "value": 0.4566929133858268
          },
          {
            "number": 1,
            "time": 310.7833333333316,
            "value": 0.4566929133858268
          },
          {
            "number": 1,
            "time": 310.78749999999826,
            "value": 0.5039370078740157
          },
          {
            "number": 1,
            "time": 310.78749999999826,
            "value": 0.5039370078740157
          },
          {
            "number": 1,
            "time": 310.9916666666649,
            "value": 0
          },
          {
            "number": 1,
            "time": 311.4916666666649,
            "value": 0
          },
          {
            "number": 1,
            "time": 318.7458333333316,
            "value": 0
          },
          {
            "number": 1,
            "time": 318.7458333333316,
            "value": 0
          },
          {
            "number": 1,
            "time": 318.74999999999824,
            "value": 0.05511811023622047
          },
          {
            "number": 1,
            "time": 318.74999999999824,
            "value": 0.05511811023622047
          },
          {
            "number": 1,
            "time": 318.7541666666649,
            "value": 0.10236220472440945
          },
          {
            "number": 1,
            "time": 318.7541666666649,
            "value": 0.10236220472440945
          },
          {
            "number": 1,
            "time": 318.75833333333156,
            "value": 0.15748031496062992
          },
          {
            "number": 1,
            "time": 318.75833333333156,
            "value": 0.15748031496062992
          },
          {
            "number": 1,
            "time": 318.7624999999982,
            "value": 0.2047244094488189
          },
          {
            "number": 1,
            "time": 318.7624999999982,
            "value": 0.2047244094488189
          },
          {
            "number": 1,
            "time": 318.7666666666649,
            "value": 0.25196850393700787
          },
          {
            "number": 1,
            "time": 318.7666666666649,
            "value": 0.25196850393700787
          },
          {
            "number": 1,
            "time": 318.77083333333155,
            "value": 0.30708661417322836
          },
          {
            "number": 1,
            "time": 318.77083333333155,
            "value": 0.30708661417322836
          },
          {
            "number": 1,
            "time": 318.7749999999982,
            "value": 0.3543307086614173
          },
          {
            "number": 1,
            "time": 318.7749999999982,
            "value": 0.3543307086614173
          },
          {
            "number": 1,
            "time": 318.7791666666649,
            "value": 0.4094488188976378
          },
          {
            "number": 1,
            "time": 318.7791666666649,
            "value": 0.4094488188976378
          },
          {
            "number": 1,
            "time": 318.78333333333154,
            "value": 0.4566929133858268
          },
          {
            "number": 1,
            "time": 318.78333333333154,
            "value": 0.4566929133858268
          },
          {
            "number": 1,
            "time": 318.7874999999982,
            "value": 0.5039370078740157
          },
          {
            "number": 1,
            "time": 318.7874999999982,
            "value": 0.5039370078740157
          },
          {
            "number": 1,
            "time": 318.99166666666486,
            "value": 0
          },
          {
            "number": 1,
            "time": 319.49166666666486,
            "value": 0
          },
          {
            "number": 1,
            "time": 404.49166666666406,
            "value": 0
          },
          {
            "number": 1,
            "time": 404.4999999999974,
            "value": 0.10236220472440945
          },
          {
            "number": 1,
            "time": 404.50416666666405,
            "value": 0.05511811023622047
          },
          {
            "number": 1,
            "time": 404.50416666666405,
            "value": 0.15748031496062992
          },
          {
            "number": 1,
            "time": 404.5083333333307,
            "value": 0.25196850393700787
          },
          {
            "number": 1,
            "time": 404.5124999999974,
            "value": 0.2047244094488189
          },
          {
            "number": 1,
            "time": 404.51666666666404,
            "value": 0.3543307086614173
          },
          {
            "number": 1,
            "time": 404.5208333333307,
            "value": 0.30708661417322836
          },
          {
            "number": 1,
            "time": 404.5333333333307,
            "value": 0.4094488188976378
          },
          {
            "number": 1,
            "time": 404.53749999999735,
            "value": 0.4566929133858268
          },
          {
            "number": 1,
            "time": 404.541666666664,
            "value": 0.5039370078740157
          },
          {
            "number": 1,
            "time": 405.2333333333307,
            "value": 0
          },
          {
            "number": 1,
            "time": 406.4958333333306,
            "value": 0.10236220472440945
          },
          {
            "number": 1,
            "time": 406.49999999999727,
            "value": 0.05511811023622047
          },
          {
            "number": 1,
            "time": 406.49999999999727,
            "value": 0
          },
          {
            "number": 1,
            "time": 406.5083333333306,
            "value": 0.15748031496062992
          },
          {
            "number": 1,
            "time": 406.51249999999726,
            "value": 0.2047244094488189
          },
          {
            "number": 1,
            "time": 406.5208333333306,
            "value": 0.25196850393700787
          },
          {
            "number": 1,
            "time": 406.52499999999725,
            "value": 0.30708661417322836
          },
          {
            "number": 1,
            "time": 406.52499999999725,
            "value": 0.4094488188976378
          },
          {
            "number": 1,
            "time": 406.5291666666639,
            "value": 0.3543307086614173
          },
          {
            "number": 1,
            "time": 406.5291666666639,
            "value": 0.4566929133858268
          },
          {
            "number": 1,
            "time": 406.5333333333306,
            "value": 0.5039370078740157
          },
          {
            "number": 1,
            "time": 407.23333333333056,
            "value": 0
          },
          {
            "number": 1,
            "time": 409.491666666663,
            "value": 0
          },
          {
            "number": 1,
            "time": 409.491666666663,
            "value": 0.05511811023622047
          },
          {
            "number": 1,
            "time": 409.49583333332964,
            "value": 0.10236220472440945
          },
          {
            "number": 1,
            "time": 409.4999999999963,
            "value": 0.15748031496062992
          },
          {
            "number": 1,
            "time": 409.51666666666296,
            "value": 0.2047244094488189
          },
          {
            "number": 1,
            "time": 409.5208333333296,
            "value": 0.25196850393700787
          },
          {
            "number": 1,
            "time": 409.5249999999963,
            "value": 0.30708661417322836
          },
          {
            "number": 1,
            "time": 409.5249999999963,
            "value": 0.3543307086614173
          },
          {
            "number": 1,
            "time": 409.5249999999963,
            "value": 0.4094488188976378
          },
          {
            "number": 1,
            "time": 409.53749999999627,
            "value": 0.4566929133858268
          },
          {
            "number": 1,
            "time": 409.54166666666293,
            "value": 0.5039370078740157
          },
          {
            "number": 1,
            "time": 409.9958333333296,
            "value": 0
          },
          {
            "number": 1,
            "time": 411.49583333332896,
            "value": 0.05511811023622047
          },
          {
            "number": 1,
            "time": 411.4999999999956,
            "value": 0
          },
          {
            "number": 1,
            "time": 411.5041666666623,
            "value": 0.2047244094488189
          },
          {
            "number": 1,
            "time": 411.50833333332895,
            "value": 0.15748031496062992
          },
          {
            "number": 1,
            "time": 411.50833333332895,
            "value": 0.10236220472440945
          },
          {
            "number": 1,
            "time": 411.5124999999956,
            "value": 0.25196850393700787
          },
          {
            "number": 1,
            "time": 411.5166666666623,
            "value": 0.30708661417322836
          },
          {
            "number": 1,
            "time": 411.5249999999956,
            "value": 0.3543307086614173
          },
          {
            "number": 1,
            "time": 411.5249999999956,
            "value": 0.4094488188976378
          },
          {
            "number": 1,
            "time": 411.5249999999956,
            "value": 0.4566929133858268
          },
          {
            "number": 1,
            "time": 411.52916666666226,
            "value": 0.5039370078740157
          },
          {
            "number": 1,
            "time": 412.23333333332897,
            "value": 0
          },
          {
            "number": 1,
            "time": 414.49999999999545,
            "value": 0
          },
          {
            "number": 1,
            "time": 414.5041666666621,
            "value": 0.05511811023622047
          },
          {
            "number": 1,
            "time": 414.5041666666621,
            "value": 0.10236220472440945
          },
          {
            "number": 1,
            "time": 414.5041666666621,
            "value": 0.15748031496062992
          },
          {
            "number": 1,
            "time": 414.5083333333288,
            "value": 0.25196850393700787
          },
          {
            "number": 1,
            "time": 414.5166666666621,
            "value": 0.2047244094488189
          },
          {
            "number": 1,
            "time": 414.52083333332877,
            "value": 0.30708661417322836
          },
          {
            "number": 1,
            "time": 414.52499999999543,
            "value": 0.3543307086614173
          },
          {
            "number": 1,
            "time": 414.52499999999543,
            "value": 0.4094488188976378
          },
          {
            "number": 1,
            "time": 414.5291666666621,
            "value": 0.5039370078740157
          },
          {
            "number": 1,
            "time": 414.5374999999954,
            "value": 0.4566929133858268
          },
          {
            "number": 1,
            "time": 415.2374999999954,
            "value": 0
          },
          {
            "number": 1,
            "time": 508.2458333333241,
            "value": 0
          },
          {
            "number": 1,
            "time": 508.2458333333241,
            "value": 0.05511811023622047
          },
          {
            "number": 1,
            "time": 508.24999999999073,
            "value": 0.10236220472440945
          },
          {
            "number": 1,
            "time": 508.25833333332406,
            "value": 0.25196850393700787
          },
          {
            "number": 1,
            "time": 508.2624999999907,
            "value": 0.30708661417322836
          },
          {
            "number": 1,
            "time": 508.2624999999907,
            "value": 0.15748031496062992
          },
          {
            "number": 1,
            "time": 508.2666666666574,
            "value": 0.2047244094488189
          },
          {
            "number": 1,
            "time": 508.2666666666574,
            "value": 0.3543307086614173
          },
          {
            "number": 1,
            "time": 508.2749999999907,
            "value": 0.4094488188976378
          },
          {
            "number": 1,
            "time": 508.2791666666574,
            "value": 0.4566929133858268
          },
          {
            "number": 1,
            "time": 508.29166666665736,
            "value": 0.5039370078740157
          },
          {
            "number": 1,
            "time": 509.245833333324,
            "value": 0
          },
          {
            "number": 1,
            "time": 530.995833333336,
            "value": 0
          },
          {
            "number": 1,
            "time": 531.0000000000027,
            "value": 0.2047244094488189
          },
          {
            "number": 1,
            "time": 531.0041666666694,
            "value": 0.10236220472440945
          },
          {
            "number": 1,
            "time": 531.0041666666694,
            "value": 0.30708661417322836
          },
          {
            "number": 1,
            "time": 531.0083333333362,
            "value": 0.5039370078740157
          },
          {
            "number": 1,
            "time": 531.0125000000029,
            "value": 0.4015748031496063
          },
          {
            "number": 1,
            "time": 531.0125000000029,
            "value": 0.6062992125984252
          },
          {
            "number": 1,
            "time": 531.0250000000029,
            "value": 0.7007874015748031
          },
          {
            "number": 1,
            "time": 531.0291666666697,
            "value": 1
          },
          {
            "number": 1,
            "time": 531.0333333333364,
            "value": 0.8031496062992126
          },
          {
            "number": 1,
            "time": 531.0375000000031,
            "value": 0.905511811023622
          },
          {
            "number": 1,
            "time": 532.9958333333424,
            "value": 0
          },
          {
            "number": 1,
            "time": 649.7458333333516,
            "value": 0
          },
          {
            "number": 1,
            "time": 649.7500000000183,
            "value": 0.05511811023622047
          },
          {
            "number": 1,
            "time": 649.754166666685,
            "value": 0.10236220472440945
          },
          {
            "number": 1,
            "time": 649.7583333333517,
            "value": 0.15748031496062992
          },
          {
            "number": 1,
            "time": 649.7625000000185,
            "value": 0.2047244094488189
          },
          {
            "number": 1,
            "time": 649.7666666666852,
            "value": 0.25196850393700787
          },
          {
            "number": 1,
            "time": 649.7708333333519,
            "value": 0.30708661417322836
          },
          {
            "number": 1,
            "time": 649.7750000000186,
            "value": 0.3543307086614173
          },
          {
            "number": 1,
            "time": 649.7791666666853,
            "value": 0.4094488188976378
          },
          {
            "number": 1,
            "time": 649.7833333333521,
            "value": 0.4566929133858268
          },
          {
            "number": 1,
            "time": 649.7875000000188,
            "value": 0.5039370078740157
          },
          {
            "number": 1,
            "time": 650.4916666666854,
            "value": 0
          },
          {
            "number": 1,
            "time": 651.7458333333522,
            "value": 0
          },
          {
            "number": 1,
            "time": 651.7458333333522,
            "value": 0
          },
          {
            "number": 1,
            "time": 651.7500000000189,
            "value": 0.05511811023622047
          },
          {
            "number": 1,
            "time": 651.7500000000189,
            "value": 0.05511811023622047
          },
          {
            "number": 1,
            "time": 651.7541666666856,
            "value": 0.10236220472440945
          },
          {
            "number": 1,
            "time": 651.7541666666856,
            "value": 0.10236220472440945
          },
          {
            "number": 1,
            "time": 651.7583333333523,
            "value": 0.15748031496062992
          },
          {
            "number": 1,
            "time": 651.7583333333523,
            "value": 0.15748031496062992
          },
          {
            "number": 1,
            "time": 651.762500000019,
            "value": 0.2047244094488189
          },
          {
            "number": 1,
            "time": 651.762500000019,
            "value": 0.2047244094488189
          },
          {
            "number": 1,
            "time": 651.7666666666858,
            "value": 0.25196850393700787
          },
          {
            "number": 1,
            "time": 651.7666666666858,
            "value": 0.25196850393700787
          },
          {
            "number": 1,
            "time": 651.7708333333525,
            "value": 0.30708661417322836
          },
          {
            "number": 1,
            "time": 651.7708333333525,
            "value": 0.30708661417322836
          },
          {
            "number": 1,
            "time": 651.7750000000192,
            "value": 0.3543307086614173
          },
          {
            "number": 1,
            "time": 651.7750000000192,
            "value": 0.3543307086614173
          },
          {
            "number": 1,
            "time": 651.7791666666859,
            "value": 0.4094488188976378
          },
          {
            "number": 1,
            "time": 651.7791666666859,
            "value": 0.4094488188976378
          },
          {
            "number": 1,
            "time": 651.7833333333526,
            "value": 0.4566929133858268
          },
          {
            "number": 1,
            "time": 651.7833333333526,
            "value": 0.4566929133858268
          },
          {
            "number": 1,
            "time": 651.7875000000193,
            "value": 0.5039370078740157
          },
          {
            "number": 1,
            "time": 651.7875000000193,
            "value": 0.5039370078740157
          },
          {
            "number": 1,
            "time": 652.491666666686,
            "value": 0
          },
          {
            "number": 1,
            "time": 652.491666666686,
            "value": 0
          },
          {
            "number": 1,
            "time": 659.7458333333528,
            "value": 0
          },
          {
            "number": 1,
            "time": 659.7458333333528,
            "value": 0
          },
          {
            "number": 1,
            "time": 659.7500000000196,
            "value": 0.05511811023622047
          },
          {
            "number": 1,
            "time": 659.7500000000196,
            "value": 0.05511811023622047
          },
          {
            "number": 1,
            "time": 659.7541666666863,
            "value": 0.10236220472440945
          },
          {
            "number": 1,
            "time": 659.7541666666863,
            "value": 0.10236220472440945
          },
          {
            "number": 1,
            "time": 659.758333333353,
            "value": 0.15748031496062992
          },
          {
            "number": 1,
            "time": 659.758333333353,
            "value": 0.15748031496062992
          },
          {
            "number": 1,
            "time": 659.7625000000197,
            "value": 0.2047244094488189
          },
          {
            "number": 1,
            "time": 659.7625000000197,
            "value": 0.2047244094488189
          },
          {
            "number": 1,
            "time": 659.7666666666864,
            "value": 0.25196850393700787
          },
          {
            "number": 1,
            "time": 659.7666666666864,
            "value": 0.25196850393700787
          },
          {
            "number": 1,
            "time": 659.7708333333532,
            "value": 0.30708661417322836
          },
          {
            "number": 1,
            "time": 659.7708333333532,
            "value": 0.30708661417322836
          },
          {
            "number": 1,
            "time": 659.7750000000199,
            "value": 0.3543307086614173
          },
          {
            "number": 1,
            "time": 659.7750000000199,
            "value": 0.3543307086614173
          },
          {
            "number": 1,
            "time": 659.7791666666866,
            "value": 0.4094488188976378
          },
          {
            "number": 1,
            "time": 659.7791666666866,
            "value": 0.4094488188976378
          },
          {
            "number": 1,
            "time": 659.7833333333533,
            "value": 0.4566929133858268
          },
          {
            "number": 1,
            "time": 659.7833333333533,
            "value": 0.4566929133858268
          },
          {
            "number": 1,
            "time": 659.78750000002,
            "value": 0.5039370078740157
          },
          {
            "number": 1,
            "time": 659.78750000002,
            "value": 0.5039370078740157
          },
          {
            "number": 1,
            "time": 659.9916666666867,
            "value": 0
          },
          {
            "number": 1,
            "time": 660.4916666666867,
            "value": 0
          },
          {
            "number": 1,
            "time": 667.745833333354,
            "value": 0
          },
          {
            "number": 1,
            "time": 667.745833333354,
            "value": 0
          },
          {
            "number": 1,
            "time": 667.7500000000207,
            "value": 0.05511811023622047
          },
          {
            "number": 1,
            "time": 667.7500000000207,
            "value": 0.05511811023622047
          },
          {
            "number": 1,
            "time": 667.7541666666874,
            "value": 0.10236220472440945
          },
          {
            "number": 1,
            "time": 667.7541666666874,
            "value": 0.10236220472440945
          },
          {
            "number": 1,
            "time": 667.7583333333541,
            "value": 0.15748031496062992
          },
          {
            "number": 1,
            "time": 667.7583333333541,
            "value": 0.15748031496062992
          },
          {
            "number": 1,
            "time": 667.7625000000209,
            "value": 0.2047244094488189
          },
          {
            "number": 1,
            "time": 667.7625000000209,
            "value": 0.2047244094488189
          },
          {
            "number": 1,
            "time": 667.7666666666876,
            "value": 0.25196850393700787
          },
          {
            "number": 1,
            "time": 667.7666666666876,
            "value": 0.25196850393700787
          },
          {
            "number": 1,
            "time": 667.7708333333543,
            "value": 0.30708661417322836
          },
          {
            "number": 1,
            "time": 667.7708333333543,
            "value": 0.30708661417322836
          },
          {
            "number": 1,
            "time": 667.775000000021,
            "value": 0.3543307086614173
          },
          {
            "number": 1,
            "time": 667.775000000021,
            "value": 0.3543307086614173
          },
          {
            "number": 1,
            "time": 667.7791666666877,
            "value": 0.4094488188976378
          },
          {
            "number": 1,
            "time": 667.7791666666877,
            "value": 0.4094488188976378
          },
          {
            "number": 1,
            "time": 667.7833333333544,
            "value": 0.4566929133858268
          },
          {
            "number": 1,
            "time": 667.7833333333544,
            "value": 0.4566929133858268
          },
          {
            "number": 1,
            "time": 667.7875000000212,
            "value": 0.5039370078740157
          },
          {
            "number": 1,
            "time": 667.7875000000212,
            "value": 0.5039370078740157
          },
          {
            "number": 1,
            "time": 667.9916666666878,
            "value": 0
          },
          {
            "number": 1,
            "time": 668.4916666666878,
            "value": 0
          },
          {
            "number": 1,
            "time": 675.7458333333547,
            "value": 0
          },
          {
            "number": 1,
            "time": 675.7458333333547,
            "value": 0
          },
          {
            "number": 1,
            "time": 675.7500000000214,
            "value": 0.05511811023622047
          },
          {
            "number": 1,
            "time": 675.7500000000214,
            "value": 0.05511811023622047
          },
          {
            "number": 1,
            "time": 675.7541666666881,
            "value": 0.10236220472440945
          },
          {
            "number": 1,
            "time": 675.7541666666881,
            "value": 0.10236220472440945
          },
          {
            "number": 1,
            "time": 675.7583333333548,
            "value": 0.15748031496062992
          },
          {
            "number": 1,
            "time": 675.7583333333548,
            "value": 0.15748031496062992
          },
          {
            "number": 1,
            "time": 675.7625000000215,
            "value": 0.2047244094488189
          },
          {
            "number": 1,
            "time": 675.7625000000215,
            "value": 0.2047244094488189
          },
          {
            "number": 1,
            "time": 675.7666666666883,
            "value": 0.25196850393700787
          },
          {
            "number": 1,
            "time": 675.7666666666883,
            "value": 0.25196850393700787
          },
          {
            "number": 1,
            "time": 675.770833333355,
            "value": 0.30708661417322836
          },
          {
            "number": 1,
            "time": 675.770833333355,
            "value": 0.30708661417322836
          },
          {
            "number": 1,
            "time": 675.7750000000217,
            "value": 0.3543307086614173
          },
          {
            "number": 1,
            "time": 675.7750000000217,
            "value": 0.3543307086614173
          },
          {
            "number": 1,
            "time": 675.7791666666884,
            "value": 0.4094488188976378
          },
          {
            "number": 1,
            "time": 675.7791666666884,
            "value": 0.4094488188976378
          },
          {
            "number": 1,
            "time": 675.7833333333551,
            "value": 0.4566929133858268
          },
          {
            "number": 1,
            "time": 675.7833333333551,
            "value": 0.4566929133858268
          },
          {
            "number": 1,
            "time": 675.7875000000219,
            "value": 0.5039370078740157
          },
          {
            "number": 1,
            "time": 675.7875000000219,
            "value": 0.5039370078740157
          },
          {
            "number": 1,
            "time": 675.9916666666885,
            "value": 0
          },
          {
            "number": 1,
            "time": 676.4916666666885,
            "value": 0
          }
        ],
        "6": [
          {
            "number": 6,
            "time": 0.7458333333333332,
            "value": 0.5196850393700787
          },
          {
            "number": 6,
            "time": 0.8083333333333332,
            "value": 0.5275590551181102
          },
          {
            "number": 6,
            "time": 0.8708333333333332,
            "value": 0.48031496062992124
          },
          {
            "number": 6,
            "time": 0.9333333333333332,
            "value": 0.5511811023622047
          },
          {
            "number": 6,
            "time": 0.9958333333333332,
            "value": 0.5905511811023622
          },
          {
            "number": 6,
            "time": 1.2458333333333331,
            "value": 0.5275590551181102
          },
          {
            "number": 6,
            "time": 1.3083333333333331,
            "value": 0.5748031496062992
          }
        ],
        "7": [
          {
            "number": 7,
            "time": 0,
            "value": 0.937007874015748
          },
          {
            "number": 7,
            "time": 0,
            "value": 0.9606299212598425
          },
          {
            "number": 7,
            "time": 0,
            "value": 1
          },
          {
            "number": 7,
            "time": 0,
            "value": 1
          },
          {
            "number": 7,
            "time": 1.9958333333333331,
            "value": 1
          },
          {
            "number": 7,
            "time": 1.9958333333333331,
            "value": 0.984251968503937
          }
        ],
        "10": [
          {
            "number": 10,
            "time": 0,
            "value": 0.3228346456692913
          },
          {
            "number": 10,
            "time": 0,
            "value": 0.6771653543307087
          },
          {
            "number": 10,
            "time": 0,
            "value": 0.7637795275590551
          },
          {
            "number": 10,
            "time": 0,
            "value": 0.36220472440944884
          },
          {
            "number": 10,
            "time": 1.9958333333333331,
            "value": 0.7637795275590551
          },
          {
            "number": 10,
            "time": 1.9958333333333331,
            "value": 0.4015748031496063
          }
        ],
        "32": [
          {
            "number": 32,
            "time": 0,
            "value": 0
          },
          {
            "number": 32,
            "time": 0,
            "value": 0
          },
          {
            "number": 32,
            "time": 0,
            "value": 0
          },
          {
            "number": 32,
            "time": 0,
            "value": 0
          },
          {
            "number": 32,
            "time": 0,
            "value": 0
          },
          {
            "number": 32,
            "time": 0,
            "value": 0
          }
        ],
        "91": [
          {
            "number": 91,
            "time": 0,
            "value": 0.5984251968503937
          },
          {
            "number": 91,
            "time": 0,
            "value": 0.6377952755905512
          },
          {
            "number": 91,
            "time": 0,
            "value": 0.6377952755905512
          },
          {
            "number": 91,
            "time": 0,
            "value": 0.7165354330708661
          },
          {
            "number": 91,
            "time": 0.6833333333333332,
            "value": 0.44881889763779526
          },
          {
            "number": 91,
            "time": 1.9958333333333331,
            "value": 1
          },
          {
            "number": 91,
            "time": 1.9958333333333331,
            "value": 0.6771653543307087
          }
        ],
        "93": [
          {
            "number": 93,
            "time": 0,
            "value": 0.7165354330708661
          },
          {
            "number": 93,
            "time": 0,
            "value": 0.84251968503937
          },
          {
            "number": 93,
            "time": 0,
            "value": 0.6771653543307087
          },
          {
            "number": 93,
            "time": 0,
            "value": 0.7637795275590551
          },
          {
            "number": 93,
            "time": 0.6208333333333332,
            "value": 0.14173228346456693
          },
          {
            "number": 93,
            "time": 1.1833333333333331,
            "value": 0.023622047244094488
          },
          {
            "number": 93,
            "time": 1.9958333333333331,
            "value": 0.8582677165354331
          },
          {
            "number": 93,
            "time": 1.9958333333333331,
            "value": 0.9212598425196851
          }
        ],
        "98": [
          {
            "number": 98,
            "time": 0.7458333333333332,
            "value": 0.25196850393700787
          },
          {
            "number": 98,
            "time": 0.8083333333333332,
            "value": 0.25984251968503935
          },
          {
            "number": 98,
            "time": 0.8708333333333332,
            "value": 0.7795275590551181
          },
          {
            "number": 98,
            "time": 0.9333333333333332,
            "value": 0.7874015748031497
          },
          {
            "number": 98,
            "time": 0.9958333333333332,
            "value": 0.8031496062992126
          },
          {
            "number": 98,
            "time": 1.2458333333333331,
            "value": 0.7874015748031497
          },
          {
            "number": 98,
            "time": 1.3083333333333331,
            "value": 0.8031496062992126
          }
        ],
        "99": [
          {
            "number": 99,
            "time": 0.7458333333333332,
            "value": 0.007874015748031496
          },
          {
            "number": 99,
            "time": 0.8083333333333332,
            "value": 0.007874015748031496
          },
          {
            "number": 99,
            "time": 0.8708333333333332,
            "value": 0.007874015748031496
          },
          {
            "number": 99,
            "time": 0.9333333333333332,
            "value": 0.007874015748031496
          },
          {
            "number": 99,
            "time": 0.9958333333333332,
            "value": 0.007874015748031496
          },
          {
            "number": 99,
            "time": 1.2458333333333331,
            "value": 0.007874015748031496
          },
          {
            "number": 99,
            "time": 1.3083333333333331,
            "value": 0.007874015748031496
          }
        ]
      },
      "id": 0,
      "instrumentNumber": 0,
      "instrument": "acoustic grand piano",
      "instrumentFamily": "piano",
      "channelNumber": 0,
      "isPercussion": false
    }
  ]
}
