Parser.cs(8,28): warning CS0169: The field 'Parser.tones' is never used [/home/lango/Documents/SOČ/proj/Sender/Sender.csproj]
[
  {
    "name": "A5",
    "midi": 81,
    "time": 0.321096,
    "velocity": 0.47244094488188976,
    "duration": 0.321096
  },
  {
    "name": "E6",
    "midi": 88,
    "time": 0.642192,
    "velocity": 0.51968503937007871,
    "duration": 2.0871239999999998
  },
  {
    "name": "D6",
    "midi": 86,
    "time": 2.729316,
    "velocity": 0.43307086614173229,
    "duration": 0.080274000000000179
  },
  {
    "name": "E6",
    "midi": 88,
    "time": 2.80959,
    "velocity": 0.37007874015748032,
    "duration": 0.080274000000000179
  },
  {
    "name": "D6",
    "midi": 86,
    "time": 2.889864,
    "velocity": 0.48818897637795278,
    "duration": 0.32109599999999983
  },
  {
    "name": "C6",
    "midi": 84,
    "time": 3.21096,
    "velocity": 0.44881889763779526,
    "duration": 0.32109599999999983
  },
  {
    "name": "D6",
    "midi": 86,
    "time": 3.532056,
    "velocity": 0.44881889763779526,
    "duration": 0.32109599999999983
  },
  {
    "name": "E6",
    "midi": 88,
    "time": 3.8531519999999997,
    "velocity": 0.48818897637795278,
    "duration": 0.32109599999999983
  },
  {
    "name": "F6",
    "midi": 89,
    "time": 4.1742479999999995,
    "velocity": 0.50393700787401574,
    "duration": 0.32109599999999983
  },
  {
    "name": "G6",
    "midi": 91,
    "time": 4.4953439999999993,
    "velocity": 0.52755905511811019,
    "duration": 0.32109599999999983
  },
  {
    "name": "E6",
    "midi": 88,
    "time": 4.8164399999999992,
    "velocity": 0.51968503937007871,
    "duration": 0.32109599999999983
  },
  {
    "name": "F6",
    "midi": 89,
    "time": 5.137535999999999,
    "velocity": 0.50393700787401574,
    "duration": 0.32109599999999983
  },
  {
    "name": "E6",
    "midi": 88,
    "time": 5.4586319999999988,
    "velocity": 0.48031496062992124,
    "duration": 0.16054800000000036
  },
  {
    "name": "D6",
    "midi": 86,
    "time": 5.6191799999999992,
    "velocity": 0.46456692913385828,
    "duration": 0.080274000000000179
  },
  {
    "name": "E6",
    "midi": 88,
    "time": 5.6994539999999994,
    "velocity": 0.43307086614173229,
    "duration": 0.080274000000000179
  },
  {
    "name": "D6",
    "midi": 86,
    "time": 5.7797279999999995,
    "velocity": 0.52755905511811019,
    "duration": 0.64219199999999965
  },
  {
    "name": "C6",
    "midi": 84,
    "time": 6.4219199999999992,
    "velocity": 0.47244094488188976,
    "duration": 0.64219199999999965
  },
  {
    "name": "A#5",
    "midi": 82,
    "time": 7.0641119999999988,
    "velocity": 0.44881889763779526,
    "duration": 0.64219199999999965
  },
  {
    "name": "A3",
    "midi": 57,
    "time": 8.0273999999999983,
    "velocity": 0.39370078740157483,
    "duration": 0.32109600000000071
  },
  {
    "name": "C#4",
    "midi": 61,
    "time": 8.348495999999999,
    "velocity": 0.40157480314960631,
    "duration": 0.32109600000000071
  },
  {
    "name": "E4",
    "midi": 64,
    "time": 8.669592,
    "velocity": 0.42519685039370081,
    "duration": 0.32109600000000071
  },
  {
    "name": "A4",
    "midi": 69,
    "time": 8.990688,
    "velocity": 0.44881889763779526,
    "duration": 0.32109600000000071
  },
  {
    "name": "C#5",
    "midi": 73,
    "time": 9.3117840000000012,
    "velocity": 0.45669291338582679,
    "duration": 0.32109600000000071
  },
  {
    "name": "E5",
    "midi": 76,
    "time": 9.6328800000000019,
    "velocity": 0.48031496062992124,
    "duration": 0.32109600000000071
  },
  {
    "name": "A4",
    "midi": 69,
    "time": 9.9539760000000026,
    "velocity": 0.39370078740157483,
    "duration": 0.32109600000000071
  },
  {
    "name": "C#5",
    "midi": 73,
    "time": 10.275072000000003,
    "velocity": 0.40157480314960631,
    "duration": 0.32109600000000071
  },
  {
    "name": "E5",
    "midi": 76,
    "time": 10.596168000000004,
    "velocity": 0.42519685039370081,
    "duration": 0.32109600000000071
  },
  {
    "name": "A5",
    "midi": 81,
    "time": 10.917264000000005,
    "velocity": 0.44881889763779526,
    "duration": 0.32109600000000071
  },
  {
    "name": "C#6",
    "midi": 85,
    "time": 11.238360000000005,
    "velocity": 0.45669291338582679,
    "duration": 0.32109600000000071
  },
  {
    "name": "E6",
    "midi": 88,
    "time": 11.559456000000006,
    "velocity": 0.50393700787401574,
    "duration": 0.32109600000000071
  },
  {
    "name": "C#6",
    "midi": 85,
    "time": 11.880552000000007,
    "velocity": 0.47244094488188976,
    "duration": 0.32109600000000071
  },
  {
    "name": "A5",
    "midi": 81,
    "time": 12.201648000000008,
    "velocity": 0.45669291338582679,
    "duration": 0.32109600000000071
  },
  {
    "name": "E5",
    "midi": 76,
    "time": 12.522744000000008,
    "velocity": 0.44881889763779526,
    "duration": 0.32109600000000071
  },
  {
    "name": "C#5",
    "midi": 73,
    "time": 12.843840000000009,
    "velocity": 0.43307086614173229,
    "duration": 0.32109600000000071
  },
  {
    "name": "A4",
    "midi": 69,
    "time": 13.16493600000001,
    "velocity": 0.41732283464566927,
    "duration": 0.32109600000000071
  },
  {
    "name": "E5",
    "midi": 76,
    "time": 13.48603200000001,
    "velocity": 0.40157480314960631,
    "duration": 0.32109600000000071
  },
  {
    "name": "C#5",
    "midi": 73,
    "time": 13.807128000000011,
    "velocity": 0.37795275590551181,
    "duration": 0.32109600000000071
  },
  {
    "name": "A4",
    "midi": 69,
    "time": 14.128224000000012,
    "velocity": 0.36220472440944884,
    "duration": 0.32109600000000071
  },
  {
    "name": "E4",
    "midi": 64,
    "time": 14.449320000000013,
    "velocity": 0.34645669291338582,
    "duration": 0.32109600000000071
  },
  {
    "name": "C#4",
    "midi": 61,
    "time": 14.770416000000013,
    "velocity": 0.34645669291338582,
    "duration": 0.32109600000000071
  },
  {
    "name": "A3",
    "midi": 57,
    "time": 15.091512000000014,
    "velocity": 0.33070866141732286,
    "duration": 0.32109600000000071
  },
  {
    "name": "A5",
    "midi": 81,
    "time": 15.733704000000015,
    "velocity": 0.40157480314960631,
    "duration": 0.32109599999999894
  },
  {
    "name": "E6",
    "midi": 88,
    "time": 16.054800000000014,
    "velocity": 0.44094488188976377,
    "duration": 2.0871239999999993
  },
  {
    "name": "D6",
    "midi": 86,
    "time": 18.141924000000014,
    "velocity": 0.36220472440944884,
    "duration": 0.08027399999999929
  },
  {
    "name": "E6",
    "midi": 88,
    "time": 18.222198000000013,
    "velocity": 0.32283464566929132,
    "duration": 0.08027399999999929
  },
  {
    "name": "D6",
    "midi": 86,
    "time": 18.302472000000012,
    "velocity": 0.40944881889763779,
    "duration": 0.32109600000000071
  },
  {
    "name": "C6",
    "midi": 84,
    "time": 18.623568000000013,
    "velocity": 0.37795275590551181,
    "duration": 0.32109600000000071
  },
  {
    "name": "D6",
    "midi": 86,
    "time": 18.944664000000014,
    "velocity": 0.37795275590551181,
    "duration": 0.32109600000000071
  },
  {
    "name": "E6",
    "midi": 88,
    "time": 19.265760000000014,
    "velocity": 0.40944881889763779,
    "duration": 0.32109600000000071
  },
  {
    "name": "F6",
    "midi": 89,
    "time": 19.586856000000015,
    "velocity": 0.42519685039370081,
    "duration": 0.32109600000000071
  },
  {
    "name": "G6",
    "midi": 91,
    "time": 19.907952000000016,
    "velocity": 0.44094488188976377,
    "duration": 0.32109600000000071
  },
  {
    "name": "E6",
    "midi": 88,
    "time": 20.229048000000017,
    "velocity": 0.44094488188976377,
    "duration": 0.32109600000000071
  },
  {
    "name": "F6",
    "midi": 89,
    "time": 20.550144000000017,
    "velocity": 0.42519685039370081,
    "duration": 0.32109600000000071
  },
  {
    "name": "E6",
    "midi": 88,
    "time": 20.871240000000018,
    "velocity": 0.40157480314960631,
    "duration": 0.16054799999999858
  },
  {
    "name": "D6",
    "midi": 86,
    "time": 21.031788000000017,
    "velocity": 0.40157480314960631,
    "duration": 0.08027399999999929
  },
  {
    "name": "E6",
    "midi": 88,
    "time": 21.112062000000016,
    "velocity": 0.37007874015748032,
    "duration": 0.08027399999999929
  },
  {
    "name": "D6",
    "midi": 86,
    "time": 21.192336000000015,
    "velocity": 0.44094488188976377,
    "duration": 0.64219200000000143
  },
  {
    "name": "C6",
    "midi": 84,
    "time": 21.834528000000017,
    "velocity": 0.40157480314960631,
    "duration": 0.64219200000000143
  },
  {
    "name": "A#5",
    "midi": 82,
    "time": 22.476720000000018,
    "velocity": 0.37795275590551181,
    "duration": 0.64219200000000143
  },
  {
    "name": "A5",
    "midi": 81,
    "time": 23.118912000000019,
    "velocity": 0.34645669291338582,
    "duration": 0.32109600000000071
  },
  {
    "name": "A#5",
    "midi": 82,
    "time": 23.44000800000002,
    "velocity": 0.36220472440944884,
    "duration": 0.32109600000000071
  },
  {
    "name": "C6",
    "midi": 84,
    "time": 23.761104000000021,
    "velocity": 0.37795275590551181,
    "duration": 0.32109600000000071
  },
  {
    "name": "D6",
    "midi": 86,
    "time": 24.082200000000022,
    "velocity": 0.39370078740157483,
    "duration": 0.32109600000000071
  },
  {
    "name": "F6",
    "midi": 89,
    "time": 24.403296000000022,
    "velocity": 0.40944881889763779,
    "duration": 0.48164399999999929
  },
  {
    "name": "D6",
    "midi": 86,
    "time": 24.884940000000022,
    "velocity": 0.38582677165354329,
    "duration": 0.08027399999999929
  },
  {
    "name": "E6",
    "midi": 88,
    "time": 24.965214000000021,
    "velocity": 0.33070866141732286,
    "duration": 0.08027399999999929
  },
  {
    "name": "D6",
    "midi": 86,
    "time": 25.04548800000002,
    "velocity": 0.44094488188976377,
    "duration": 0.64219200000000143
  },
  {
    "name": "C6",
    "midi": 84,
    "time": 25.687680000000022,
    "velocity": 0.40157480314960631,
    "duration": 0.64219200000000143
  },
  {
    "name": "A#5",
    "midi": 82,
    "time": 26.329872000000023,
    "velocity": 0.37795275590551181,
    "duration": 0.64219200000000143
  },
  {
    "name": "A5",
    "midi": 81,
    "time": 26.972064000000024,
    "velocity": 0.36220472440944884,
    "duration": 0.32109600000000071
  },
  {
    "name": "A#5",
    "midi": 82,
    "time": 27.293160000000025,
    "velocity": 0.37007874015748032,
    "duration": 0.32109600000000071
  },
  {
    "name": "C6",
    "midi": 84,
    "time": 27.614256000000026,
    "velocity": 0.38582677165354329,
    "duration": 0.32109600000000071
  },
  {
    "name": "D6",
    "midi": 86,
    "time": 27.935352000000027,
    "velocity": 0.40157480314960631,
    "duration": 0.32109600000000071
  },
  {
    "name": "E6",
    "midi": 88,
    "time": 28.256448000000027,
    "velocity": 0.41732283464566927,
    "duration": 0.32109600000000071
  },
  {
    "name": "G6",
    "midi": 91,
    "time": 28.577544000000028,
    "velocity": 0.44881889763779526,
    "duration": 0.32109600000000071
  },
  {
    "name": "F6",
    "midi": 89,
    "time": 28.898640000000029,
    "velocity": 0.43307086614173229,
    "duration": 0.16054799999999858
  },
  {
    "name": "D6",
    "midi": 86,
    "time": 29.059188000000027,
    "velocity": 0.36220472440944884,
    "duration": 0.08027399999999929
  },
  {
    "name": "E6",
    "midi": 88,
    "time": 29.139462000000027,
    "velocity": 0.31496062992125984,
    "duration": 0.08027399999999929
  },
  {
    "name": "D6",
    "midi": 86,
    "time": 29.219736000000026,
    "velocity": 0.39370078740157483,
    "duration": 0.32109600000000071
  },
  {
    "name": "C6",
    "midi": 84,
    "time": 29.540832000000027,
    "velocity": 0.39370078740157483,
    "duration": 0.32109600000000071
  },
  {
    "name": "A#5",
    "midi": 82,
    "time": 29.861928000000027,
    "velocity": 0.3543307086614173,
    "duration": 0.32109600000000071
  },
  {
    "name": "D6",
    "midi": 86,
    "time": 30.183024000000028,
    "velocity": 0.38582677165354329,
    "duration": 0.32109600000000071
  },
  {
    "name": "C#6",
    "midi": 85,
    "time": 30.504120000000029,
    "velocity": 0.34645669291338582,
    "duration": 0.32109600000000071
  },
  {
    "name": "A#4",
    "midi": 70,
    "time": 31.03928000000003,
    "velocity": 0.40157480314960631,
    "duration": 0.21406400000000048
  },
  {
    "name": "C#4",
    "midi": 61,
    "time": 31.03928000000003,
    "velocity": 0.2283464566929134,
    "duration": 0.42812800000000095
  },
  {
    "name": "A4",
    "midi": 69,
    "time": 31.25334400000003,
    "velocity": 0.36220472440944884,
    "duration": 0.21406400000000048
  },
  {
    "name": "C#4",
    "midi": 61,
    "time": 31.681472000000031,
    "velocity": 0.2283464566929134,
    "duration": 0.4281279999999974
  },
  {
    "name": "A#4",
    "midi": 70,
    "time": 31.681472000000031,
    "velocity": 0.40944881889763779,
    "duration": 0.21406400000000048
  },
  {
    "name": "A4",
    "midi": 69,
    "time": 31.895536000000032,
    "velocity": 0.3543307086614173,
    "duration": 0.21406399999999692
  },
  {
    "name": "C#4",
    "midi": 61,
    "time": 32.323664000000029,
    "velocity": 0.2283464566929134,
    "duration": 0.42812800000000095
  },
  {
    "name": "A#4",
    "midi": 70,
    "time": 32.323664000000029,
    "velocity": 0.40157480314960631,
    "duration": 0.21406400000000048
  },
  {
    "name": "A4",
    "midi": 69,
    "time": 32.53772800000003,
    "velocity": 0.3543307086614173,
    "duration": 0.21406400000000048
  },
  {
    "name": "D4",
    "midi": 62,
    "time": 32.965856000000031,
    "velocity": 0.2125984251968504,
    "duration": 0.42812800000000095
  },
  {
    "name": "A4",
    "midi": 69,
    "time": 32.965856000000031,
    "velocity": 0.37795275590551181,
    "duration": 0.21406400000000048
  },
  {
    "name": "G4",
    "midi": 67,
    "time": 33.179920000000031,
    "velocity": 0.32283464566929132,
    "duration": 0.21406400000000048
  },
  {
    "name": "A4",
    "midi": 69,
    "time": 33.608048000000032,
    "velocity": 0.37795275590551181,
    "duration": 0.21406400000000048
  },
  {
    "name": "D4",
    "midi": 62,
    "time": 33.608048000000032,
    "velocity": 0.2125984251968504,
    "duration": 0.42812800000000095
  },
  {
    "name": "G4",
    "midi": 67,
    "time": 33.822112000000033,
    "velocity": 0.31496062992125984,
    "duration": 0.21406400000000048
  },
  {
    "name": "D4",
    "midi": 62,
    "time": 34.250240000000034,
    "velocity": 0.2125984251968504,
    "duration": 0.42812800000000095
  },
  {
    "name": "A4",
    "midi": 69,
    "time": 34.250240000000034,
    "velocity": 0.37007874015748032,
    "duration": 0.21406400000000048
  },
  {
    "name": "G4",
    "midi": 67,
    "time": 34.464304000000034,
    "velocity": 0.31496062992125984,
    "duration": 0.21406400000000048
  },
  {
    "name": "C#4",
    "midi": 61,
    "time": 34.892432000000035,
    "velocity": 0.2283464566929134,
    "duration": 0.42812800000000095
  },
  {
    "name": "A#4",
    "midi": 70,
    "time": 34.892432000000035,
    "velocity": 0.40157480314960631,
    "duration": 0.21406400000000048
  },
  {
    "name": "A4",
    "midi": 69,
    "time": 35.106496000000035,
    "velocity": 0.36220472440944884,
    "duration": 0.21406400000000048
  },
  {
    "name": "A#4",
    "midi": 70,
    "time": 35.534624000000036,
    "velocity": 0.40944881889763779,
    "duration": 0.21406400000000048
  },
  {
    "name": "C#4",
    "midi": 61,
    "time": 35.534624000000036,
    "velocity": 0.33070866141732286,
    "duration": 0.42812800000000095
  },
  {
    "name": "A4",
    "midi": 69,
    "time": 35.748688000000037,
    "velocity": 0.3543307086614173,
    "duration": 0.21406400000000048
  },
  {
    "name": "C#4",
    "midi": 61,
    "time": 36.176816000000038,
    "velocity": 0.33070866141732286,
    "duration": 0.42812800000000095
  },
  {
    "name": "A#4",
    "midi": 70,
    "time": 36.176816000000038,
    "velocity": 0.40157480314960631,
    "duration": 0.21406400000000048
  },
  {
    "name": "A4",
    "midi": 69,
    "time": 36.390880000000038,
    "velocity": 0.3543307086614173,
    "duration": 0.21406400000000048
  },
  {
    "name": "A#4",
    "midi": 70,
    "time": 36.819008000000039,
    "velocity": 0.37795275590551181,
    "duration": 0.21406400000000048
  },
  {
    "name": "D4",
    "midi": 62,
    "time": 36.819008000000039,
    "velocity": 0.2125984251968504,
    "duration": 0.42812800000000095
  },
  {
    "name": "A4",
    "midi": 69,
    "time": 37.03307200000004,
    "velocity": 0.32283464566929132,
    "duration": 0.21406400000000048
  },
  {
    "name": "A4",
    "midi": 69,
    "time": 37.461200000000041,
    "velocity": 0.37795275590551181,
    "duration": 0.21406400000000048
  },
  {
    "name": "D4",
    "midi": 62,
    "time": 37.461200000000041,
    "velocity": 0.2125984251968504,
    "duration": 0.42812800000000095
  },
  {
    "name": "G4",
    "midi": 67,
    "time": 37.675264000000041,
    "velocity": 0.31496062992125984,
    "duration": 0.21406400000000048
  },
  {
    "name": "G4",
    "midi": 67,
    "time": 38.103392000000042,
    "velocity": 0.37007874015748032,
    "duration": 0.21406400000000048
  },
  {
    "name": "D4",
    "midi": 62,
    "time": 38.103392000000042,
    "velocity": 0.2125984251968504,
    "duration": 0.42812800000000095
  },
  {
    "name": "E4",
    "midi": 64,
    "time": 38.317456000000043,
    "velocity": 0.31496062992125984,
    "duration": 0.21406400000000048
  },
  {
    "name": "C#4",
    "midi": 61,
    "time": 38.745584000000044,
    "velocity": 0.23622047244094488,
    "duration": 0.42812800000000095
  },
  {
    "name": "A#4",
    "midi": 70,
    "time": 38.745584000000044,
    "velocity": 0.41732283464566927,
    "duration": 0.21406400000000048
  },
  {
    "name": "A4",
    "midi": 69,
    "time": 38.959648000000044,
    "velocity": 0.37795275590551181,
    "duration": 0.21406400000000048
  },
  {
    "name": "A#4",
    "midi": 70,
    "time": 39.387776000000045,
    "velocity": 0.43307086614173229,
    "duration": 0.21406400000000048
  },
  {
    "name": "C#4",
    "midi": 61,
    "time": 39.387776000000045,
    "velocity": 0.24409448818897639,
    "duration": 0.42812800000000095
  },
  {
    "name": "A4",
    "midi": 69,
    "time": 39.601840000000045,
    "velocity": 0.37795275590551181,
    "duration": 0.21406400000000048
  },
  {
    "name": "A#4",
    "midi": 70,
    "time": 40.029968000000046,
    "velocity": 0.44094488188976377,
    "duration": 0.21406400000000048
  },
  {
    "name": "C#4",
    "midi": 61,
    "time": 40.029968000000046,
    "velocity": 0.24409448818897639,
    "duration": 0.42812800000000095
  },
  {
    "name": "A4",
    "midi": 69,
    "time": 40.244032000000047,
    "velocity": 0.38582677165354329,
    "duration": 0.21406400000000048
  },
  {
    "name": "G4",
    "midi": 67,
    "time": 40.672160000000048,
    "velocity": 0.44881889763779526,
    "duration": 0.21406400000000048
  },
  {
    "name": "A3",
    "midi": 57,
    "time": 40.672160000000048,
    "velocity": 0.25196850393700787,
    "duration": 0.42812800000000095
  },
  {
    "name": "F4",
    "midi": 65,
    "time": 40.886224000000048,
    "velocity": 0.39370078740157483,
    "duration": 0.21406400000000048
  },
  {
    "name": "A3",
    "midi": 57,
    "time": 41.314352000000049,
    "velocity": 0.25984251968503935,
    "duration": 0.42812800000000095
  },
  {
    "name": "G4",
    "midi": 67,
    "time": 41.314352000000049,
    "velocity": 0.45669291338582679,
    "duration": 0.21406400000000048
  },
  {
    "name": "F4",
    "midi": 65,
    "time": 41.52841600000005,
    "velocity": 0.37795275590551181,
    "duration": 0.21406400000000048
  },
  {
    "name": "G4",
    "midi": 67,
    "time": 41.956544000000051,
    "velocity": 0.45669291338582679,
    "duration": 0.21406400000000048
  },
  {
    "name": "A3",
    "midi": 57,
    "time": 41.956544000000051,
    "velocity": 0.25196850393700787,
    "duration": 0.42812800000000095
  },
  {
    "name": "F4",
    "midi": 65,
    "time": 42.170608000000051,
    "velocity": 0.38582677165354329,
    "duration": 0.21406400000000048
  },
  {
    "name": "C4",
    "midi": 60,
    "time": 42.598736000000052,
    "velocity": 0.26771653543307089,
    "duration": 0.42812800000000095
  },
  {
    "name": "F4",
    "midi": 65,
    "time": 42.598736000000052,
    "velocity": 0.47244094488188976,
    "duration": 0.21406400000000048
  },
  {
    "name": "E4",
    "midi": 64,
    "time": 42.812800000000053,
    "velocity": 0.41732283464566927,
    "duration": 0.21406400000000048
  },
  {
    "name": "F4",
    "midi": 65,
    "time": 43.240928000000054,
    "velocity": 0.48031496062992124,
    "duration": 0.21406400000000048
  },
  {
    "name": "C4",
    "midi": 60,
    "time": 43.240928000000054,
    "velocity": 0.27559055118110243,
    "duration": 0.42812800000000095
  },
  {
    "name": "E4",
    "midi": 64,
    "time": 43.454992000000054,
    "velocity": 0.40157480314960631,
    "duration": 0.21406400000000048
  },
  {
    "name": "C4",
    "midi": 60,
    "time": 43.883120000000055,
    "velocity": 0.26771653543307089,
    "duration": 0.42812800000000095
  },
  {
    "name": "F4",
    "midi": 65,
    "time": 43.883120000000055,
    "velocity": 0.48031496062992124,
    "duration": 0.21406400000000048
  },
  {
    "name": "E4",
    "midi": 64,
    "time": 44.097184000000055,
    "velocity": 0.40944881889763779,
    "duration": 0.21406400000000048
  },
  {
    "name": "E4",
    "midi": 64,
    "time": 44.525312000000056,
    "velocity": 0.45669291338582679,
    "duration": 0.21406400000000048
  },
  {
    "name": "A#3",
    "midi": 58,
    "time": 44.525312000000056,
    "velocity": 0.25984251968503935,
    "duration": 0.42812800000000095
  },
  {
    "name": "D4",
    "midi": 62,
    "time": 44.739376000000057,
    "velocity": 0.39370078740157483,
    "duration": 0.21406400000000048
  },
  {
    "name": "E4",
    "midi": 64,
    "time": 45.167504000000058,
    "velocity": 0.43307086614173229,
    "duration": 0.21406400000000048
  },
  {
    "name": "A#3",
    "midi": 58,
    "time": 45.167504000000058,
    "velocity": 0.24409448818897639,
    "duration": 0.42812800000000095
  },
  {
    "name": "D4",
    "midi": 62,
    "time": 45.381568000000058,
    "velocity": 0.34645669291338582,
    "duration": 0.21406400000000048
  },
  {
    "name": "E4",
    "midi": 64,
    "time": 45.809696000000059,
    "velocity": 0.40944881889763779,
    "duration": 0.21406400000000048
  },
  {
    "name": "A#3",
    "midi": 58,
    "time": 45.809696000000059,
    "velocity": 0.2283464566929134,
    "duration": 0.42812800000000095
  },
  {
    "name": "D4",
    "midi": 62,
    "time": 46.02376000000006,
    "velocity": 0.33070866141732286,
    "duration": 0.21406400000000048
  },
  {
    "name": "C#4",
    "midi": 61,
    "time": 46.451888000000061,
    "velocity": 0.2283464566929134,
    "duration": 0.42812800000000095
  },
  {
    "name": "A#4",
    "midi": 70,
    "time": 46.451888000000061,
    "velocity": 0.40157480314960631,
    "duration": 0.21406400000000048
  },
  {
    "name": "A4",
    "midi": 69,
    "time": 46.665952000000061,
    "velocity": 0.36220472440944884,
    "duration": 0.21406400000000048
  },
  {
    "name": "C#4",
    "midi": 61,
    "time": 47.094080000000062,
    "velocity": 0.2283464566929134,
    "duration": 0.42812800000000095
  },
  {
    "name": "A#4",
    "midi": 70,
    "time": 47.094080000000062,
    "velocity": 0.40944881889763779,
    "duration": 0.21406400000000048
  },
  {
    "name": "A4",
    "midi": 69,
    "time": 47.308144000000063,
    "velocity": 0.3543307086614173,
    "duration": 0.21406400000000048
  },
  {
    "name": "C#4",
    "midi": 61,
    "time": 47.736272000000064,
    "velocity": 0.2283464566929134,
    "duration": 0.42812800000000095
  },
  {
    "name": "A#4",
    "midi": 70,
    "time": 47.736272000000064,
    "velocity": 0.40157480314960631,
    "duration": 0.21406400000000048
  },
  {
    "name": "A4",
    "midi": 69,
    "time": 47.950336000000064,
    "velocity": 0.3543307086614173,
    "duration": 0.21406400000000048
  },
  {
    "name": "A4",
    "midi": 69,
    "time": 48.378464000000065,
    "velocity": 0.37795275590551181,
    "duration": 0.21406400000000048
  },
  {
    "name": "D4",
    "midi": 62,
    "time": 48.378464000000065,
    "velocity": 0.2125984251968504,
    "duration": 0.42812800000000095
  },
  {
    "name": "G4",
    "midi": 67,
    "time": 48.592528000000065,
    "velocity": 0.32283464566929132,
    "duration": 0.21406400000000048
  },
  {
    "name": "D4",
    "midi": 62,
    "time": 49.020656000000066,
    "velocity": 0.2125984251968504,
    "duration": 0.42812800000000095
  },
  {
    "name": "A4",
    "midi": 69,
    "time": 49.020656000000066,
    "velocity": 0.37795275590551181,
    "duration": 0.21406400000000048
  },
  {
    "name": "G4",
    "midi": 67,
    "time": 49.234720000000067,
    "velocity": 0.31496062992125984,
    "duration": 0.21406400000000048
  },
  {
    "name": "D4",
    "midi": 62,
    "time": 49.662848000000068,
    "velocity": 0.2125984251968504,
    "duration": 0.42812800000000095
  },
  {
    "name": "A4",
    "midi": 69,
    "time": 49.662848000000068,
    "velocity": 0.37007874015748032,
    "duration": 0.21406400000000048
  },
  {
    "name": "G4",
    "midi": 67,
    "time": 49.876912000000068,
    "velocity": 0.31496062992125984,
    "duration": 0.21406400000000048
  },
  {
    "name": "A#4",
    "midi": 70,
    "time": 50.305040000000069,
    "velocity": 0.40157480314960631,
    "duration": 0.21406400000000048
  },
  {
    "name": "C#4",
    "midi": 61,
    "time": 50.305040000000069,
    "velocity": 0.2283464566929134,
    "duration": 0.42812800000000095
  },
  {
    "name": "A4",
    "midi": 69,
    "time": 50.51910400000007,
    "velocity": 0.36220472440944884,
    "duration": 0.21406400000000048
  },
  {
    "name": "C#4",
    "midi": 61,
    "time": 50.947232000000071,
    "velocity": 0.2283464566929134,
    "duration": 0.42812800000000095
  },
  {
    "name": "A#4",
    "midi": 70,
    "time": 50.947232000000071,
    "velocity": 0.40944881889763779,
    "duration": 0.21406400000000048
  },
  {
    "name": "A4",
    "midi": 69,
    "time": 51.161296000000071,
    "velocity": 0.3543307086614173,
    "duration": 0.21406400000000048
  },
  {
    "name": "A#4",
    "midi": 70,
    "time": 51.589424000000072,
    "velocity": 0.40157480314960631,
    "duration": 0.21406400000000048
  },
  {
    "name": "C#4",
    "midi": 61,
    "time": 51.589424000000072,
    "velocity": 0.2283464566929134,
    "duration": 0.42812800000000095
  },
  {
    "name": "A4",
    "midi": 69,
    "time": 51.803488000000073,
    "velocity": 0.3543307086614173,
    "duration": 0.21406400000000048
  },
  {
    "name": "A4",
    "midi": 69,
    "time": 52.231616000000074,
    "velocity": 0.37795275590551181,
    "duration": 0.21406400000000048
  },
  {
    "name": "D4",
    "midi": 62,
    "time": 52.231616000000074,
    "velocity": 0.2125984251968504,
    "duration": 0.42812800000000095
  },
  {
    "name": "G4",
    "midi": 67,
    "time": 52.445680000000074,
    "velocity": 0.32283464566929132,
    "duration": 0.21406400000000048
  },
  {
    "name": "D4",
    "midi": 62,
    "time": 52.873808000000075,
    "velocity": 0.2125984251968504,
    "duration": 0.42812800000000095
  },
  {
    "name": "A4",
    "midi": 69,
    "time": 52.873808000000075,
    "velocity": 0.37795275590551181,
    "duration": 0.21406400000000048
  },
  {
    "name": "G4",
    "midi": 67,
    "time": 53.087872000000075,
    "velocity": 0.31496062992125984,
    "duration": 0.21406400000000048
  },
  {
    "name": "A4",
    "midi": 69,
    "time": 53.516000000000076,
    "velocity": 0.37007874015748032,
    "duration": 0.21406400000000048
  },
  {
    "name": "D4",
    "midi": 62,
    "time": 53.516000000000076,
    "velocity": 0.2125984251968504,
    "duration": 0.42812800000000095
  },
  {
    "name": "G4",
    "midi": 67,
    "time": 53.730064000000077,
    "velocity": 0.31496062992125984,
    "duration": 0.21406400000000048
  },
  {
    "name": "A5",
    "midi": 81,
    "time": 54.265224000000075,
    "velocity": 0.41732283464566927,
    "duration": 0.32109599999999716
  },
  {
    "name": "B5",
    "midi": 83,
    "time": 54.586320000000072,
    "velocity": 0.44094488188976377,
    "duration": 0.32109599999999716
  },
  {
    "name": "C#6",
    "midi": 85,
    "time": 54.907416000000069,
    "velocity": 0.44881889763779526,
    "duration": 0.32109599999999716
  },
  {
    "name": "D6",
    "midi": 86,
    "time": 55.228512000000066,
    "velocity": 0.46456692913385828,
    "duration": 0.32109599999999716
  },
  {
    "name": "E6",
    "midi": 88,
    "time": 55.549608000000063,
    "velocity": 0.48031496062992124,
    "duration": 0.32109599999999716
  },
  {
    "name": "F6",
    "midi": 89,
    "time": 55.87070400000006,
    "velocity": 0.48818897637795278,
    "duration": 0.48164400000000285
  },
  {
    "name": "E6",
    "midi": 88,
    "time": 56.352348000000063,
    "velocity": 0.43307086614173229,
    "duration": 0.080274000000002843
  },
  {
    "name": "F6",
    "midi": 89,
    "time": 56.432622000000066,
    "velocity": 0.40157480314960631,
    "duration": 0.080274000000002843
  },
  {
    "name": "E6",
    "midi": 88,
    "time": 56.512896000000069,
    "velocity": 0.48031496062992124,
    "duration": 0.32109599999999716
  },
  {
    "name": "D6",
    "midi": 86,
    "time": 56.833992000000066,
    "velocity": 0.44881889763779526,
    "duration": 0.32109599999999716
  },
  {
    "name": "C6",
    "midi": 84,
    "time": 57.155088000000063,
    "velocity": 0.44094488188976377,
    "duration": 0.32109599999999716
  },
  {
    "name": "D6",
    "midi": 86,
    "time": 57.47618400000006,
    "velocity": 0.46456692913385828,
    "duration": 0.32109599999999716
  },
  {
    "name": "E6",
    "midi": 88,
    "time": 57.797280000000057,
    "velocity": 0.44881889763779526,
    "duration": 0.32109599999999716
  },
  {
    "name": "F6",
    "midi": 89,
    "time": 58.118376000000055,
    "velocity": 0.46456692913385828,
    "duration": 0.32109599999999716
  },
  {
    "name": "G6",
    "midi": 91,
    "time": 58.439472000000052,
    "velocity": 0.48031496062992124,
    "duration": 0.32109599999999716
  },
  {
    "name": "E6",
    "midi": 88,
    "time": 58.760568000000049,
    "velocity": 0.48031496062992124,
    "duration": 0.32109599999999716
  },
  {
    "name": "F6",
    "midi": 89,
    "time": 59.081664000000046,
    "velocity": 0.46456692913385828,
    "duration": 0.32109599999999716
  },
  {
    "name": "E6",
    "midi": 88,
    "time": 59.402760000000043,
    "velocity": 0.44094488188976377,
    "duration": 0.16054799999999858
  },
  {
    "name": "D6",
    "midi": 86,
    "time": 59.563308000000042,
    "velocity": 0.43307086614173229,
    "duration": 0.080274000000002843
  },
  {
    "name": "E6",
    "midi": 88,
    "time": 59.643582000000045,
    "velocity": 0.40157480314960631,
    "duration": 0.080274000000002843
  },
  {
    "name": "D6",
    "midi": 86,
    "time": 59.723856000000048,
    "velocity": 0.48031496062992124,
    "duration": 0.64219200000000143
  },
  {
    "name": "C6",
    "midi": 84,
    "time": 60.366048000000049,
    "velocity": 0.44094488188976377,
    "duration": 0.64219200000000143
  },
  {
    "name": "A#5",
    "midi": 82,
    "time": 61.00824000000005,
    "velocity": 0.40944881889763779,
    "duration": 0.64219200000000143
  },
  {
    "name": "A5",
    "midi": 81,
    "time": 61.650432000000052,
    "velocity": 0.44881889763779526,
    "duration": 0.32109599999999716
  },
  {
    "name": "B5",
    "midi": 83,
    "time": 61.971528000000049,
    "velocity": 0.45669291338582679,
    "duration": 0.32109599999999716
  },
  {
    "name": "C#6",
    "midi": 85,
    "time": 62.292624000000046,
    "velocity": 0.47244094488188976,
    "duration": 0.32109599999999716
  },
  {
    "name": "D6",
    "midi": 86,
    "time": 62.613720000000043,
    "velocity": 0.48031496062992124,
    "duration": 0.32109599999999716
  },
  {
    "name": "E6",
    "midi": 88,
    "time": 62.934816000000041,
    "velocity": 0.49606299212598426,
    "duration": 0.32109599999999716
  },
  {
    "name": "F6",
    "midi": 89,
    "time": 63.255912000000038,
    "velocity": 0.50393700787401574,
    "duration": 0.32109599999999716
  },
  {
    "name": "G6",
    "midi": 91,
    "time": 63.577008000000035,
    "velocity": 0.55905511811023623,
    "duration": 0.32109599999999716
  },
  {
    "name": "A6",
    "midi": 93,
    "time": 63.898104000000032,
    "velocity": 0.59055118110236215,
    "duration": 0.16054800000000569
  },
  {
    "name": "A#6",
    "midi": 94,
    "time": 64.058652000000038,
    "velocity": 0.57480314960629919,
    "duration": 0.080274000000002843
  },
  {
    "name": "C7",
    "midi": 96,
    "time": 64.138926000000041,
    "velocity": 0.55905511811023623,
    "duration": 0.080274000000002843
  },
  {
    "name": "A#6",
    "midi": 94,
    "time": 64.219200000000043,
    "velocity": 0.62204724409448819,
    "duration": 0.64219199999999432
  },
  {
    "name": "A6",
    "midi": 93,
    "time": 64.861392000000038,
    "velocity": 0.59842519685039375,
    "duration": 0.32109599999999716
  },
  {
    "name": "G6",
    "midi": 91,
    "time": 65.182488000000035,
    "velocity": 0.58267716535433067,
    "duration": 0.32109599999999716
  },
  {
    "name": "A6",
    "midi": 93,
    "time": 65.503584000000032,
    "velocity": 0.61417322834645671,
    "duration": 0.64219199999999432
  },
  {
    "name": "A6",
    "midi": 93,
    "time": 66.145776000000026,
    "velocity": 0.62204724409448819,
    "duration": 0.32109599999999716
  },
  {
    "name": "G6",
    "midi": 91,
    "time": 66.466872000000023,
    "velocity": 0.59842519685039375,
    "duration": 0.32109599999999716
  },
  {
    "name": "A#6",
    "midi": 94,
    "time": 66.787968000000021,
    "velocity": 0.65354330708661412,
    "duration": 0.32109599999999716
  },
  {
    "name": "A6",
    "midi": 93,
    "time": 67.109064000000018,
    "velocity": 0.61417322834645671,
    "duration": 0.16054800000000569
  },
  {
    "name": "F6",
    "midi": 89,
    "time": 67.269612000000023,
    "velocity": 0.50393700787401574,
    "duration": 0.080274000000002843
  },
  {
    "name": "G6",
    "midi": 91,
    "time": 67.349886000000026,
    "velocity": 0.44094488188976377,
    "duration": 0.080274000000002843
  },
  {
    "name": "F6",
    "midi": 89,
    "time": 67.430160000000029,
    "velocity": 0.56692913385826771,
    "duration": 0.32109599999999716
  },
  {
    "name": "D#6",
    "midi": 87,
    "time": 67.751256000000026,
    "velocity": 0.50393700787401574,
    "duration": 0.32109599999999716
  },
  {
    "name": "D6",
    "midi": 86,
    "time": 68.072352000000024,
    "velocity": 0.54330708661417326,
    "duration": 0.32109599999999716
  },
  {
    "name": "E6",
    "midi": 88,
    "time": 68.393448000000021,
    "velocity": 0.48031496062992124,
    "duration": 0.32109599999999716
  },
  {
    "name": "C6",
    "midi": 84,
    "time": 68.714544000000018,
    "velocity": 0.48818897637795278,
    "duration": 0.32109599999999716
  },
  {
    "name": "A#5",
    "midi": 82,
    "time": 69.035640000000015,
    "velocity": 0.40157480314960631,
    "duration": 0.32109599999999716
  },
  {
    "name": "C#4",
    "midi": 61,
    "time": 69.5708,
    "velocity": 0.2283464566929134,
    "duration": 0.42812799999998674
  },
  {
    "name": "A#4",
    "midi": 70,
    "time": 69.5708,
    "velocity": 0.40157480314960631,
    "duration": 0.21406399999999337
  },
  {
    "name": "A4",
    "midi": 69,
    "time": 69.784864,
    "velocity": 0.36220472440944884,
    "duration": 0.21406399999999337
  },
  {
    "name": "A#4",
    "midi": 70,
    "time": 70.212991999999986,
    "velocity": 0.40944881889763779,
    "duration": 0.21406399999999337
  },
  {
    "name": "C#4",
    "midi": 61,
    "time": 70.212991999999986,
    "velocity": 0.2283464566929134,
    "duration": 0.42812799999998674
  },
  {
    "name": "A4",
    "midi": 69,
    "time": 70.427055999999979,
    "velocity": 0.3543307086614173,
    "duration": 0.21406399999999337
  },
  {
    "name": "C#4",
    "midi": 61,
    "time": 70.855183999999966,
    "velocity": 0.2283464566929134,
    "duration": 0.42812799999998674
  },
  {
    "name": "A#4",
    "midi": 70,
    "time": 70.855183999999966,
    "velocity": 0.40157480314960631,
    "duration": 0.21406399999999337
  },
  {
    "name": "A4",
    "midi": 69,
    "time": 71.069247999999959,
    "velocity": 0.3543307086614173,
    "duration": 0.21406399999999337
  },
  {
    "name": "A4",
    "midi": 69,
    "time": 71.497375999999946,
    "velocity": 0.37795275590551181,
    "duration": 0.21406399999999337
  },
  {
    "name": "D4",
    "midi": 62,
    "time": 71.497375999999946,
    "velocity": 0.2125984251968504,
    "duration": 0.42812799999998674
  },
  {
    "name": "G4",
    "midi": 67,
    "time": 71.711439999999939,
    "velocity": 0.32283464566929132,
    "duration": 0.21406399999999337
  },
  {
    "name": "A4",
    "midi": 69,
    "time": 72.139567999999926,
    "velocity": 0.37795275590551181,
    "duration": 0.21406399999999337
  },
  {
    "name": "D4",
    "midi": 62,
    "time": 72.139567999999926,
    "velocity": 0.2125984251968504,
    "duration": 0.42812799999998674
  },
  {
    "name": "G4",
    "midi": 67,
    "time": 72.353631999999919,
    "velocity": 0.31496062992125984,
    "duration": 0.21406399999999337
  },
  {
    "name": "A4",
    "midi": 69,
    "time": 72.7817599999999,
    "velocity": 0.37007874015748032,
    "duration": 0.21406399999999337
  },
  {
    "name": "D4",
    "midi": 62,
    "time": 72.7817599999999,
    "velocity": 0.2125984251968504,
    "duration": 0.42812799999998674
  },
  {
    "name": "G4",
    "midi": 67,
    "time": 72.9958239999999,
    "velocity": 0.31496062992125984,
    "duration": 0.21406399999999337
  },
  {
    "name": "C#4",
    "midi": 61,
    "time": 73.423951999999886,
    "velocity": 0.2283464566929134,
    "duration": 0.42812799999998674
  },
  {
    "name": "A#4",
    "midi": 70,
    "time": 73.423951999999886,
    "velocity": 0.40157480314960631,
    "duration": 0.21406399999999337
  },
  {
    "name": "A4",
    "midi": 69,
    "time": 73.63801599999988,
    "velocity": 0.36220472440944884,
    "duration": 0.21406399999999337
  },
  {
    "name": "A#4",
    "midi": 70,
    "time": 74.066143999999866,
    "velocity": 0.40944881889763779,
    "duration": 0.21406399999999337
  },
  {
    "name": "C#4",
    "midi": 61,
    "time": 74.066143999999866,
    "velocity": 0.2283464566929134,
    "duration": 0.42812799999998674
  },
  {
    "name": "A4",
    "midi": 69,
    "time": 74.28020799999986,
    "velocity": 0.3543307086614173,
    "duration": 0.21406399999999337
  },
  {
    "name": "A#4",
    "midi": 70,
    "time": 74.708335999999846,
    "velocity": 0.40157480314960631,
    "duration": 0.21406399999999337
  },
  {
    "name": "C#4",
    "midi": 61,
    "time": 74.708335999999846,
    "velocity": 0.2283464566929134,
    "duration": 0.42812799999998674
  },
  {
    "name": "A4",
    "midi": 69,
    "time": 74.92239999999984,
    "velocity": 0.3543307086614173,
    "duration": 0.21406399999999337
  },
  {
    "name": "A#4",
    "midi": 70,
    "time": 75.350527999999827,
    "velocity": 0.37795275590551181,
    "duration": 0.21406399999999337
  },
  {
    "name": "D4",
    "midi": 62,
    "time": 75.350527999999827,
    "velocity": 0.2125984251968504,
    "duration": 0.42812799999998674
  },
  {
    "name": "A4",
    "midi": 69,
    "time": 75.56459199999982,
    "velocity": 0.32283464566929132,
    "duration": 0.21406399999999337
  },
  {
    "name": "D4",
    "midi": 62,
    "time": 75.9927199999998,
    "velocity": 0.2125984251968504,
    "duration": 0.42812799999998674
  },
  {
    "name": "A4",
    "midi": 69,
    "time": 75.9927199999998,
    "velocity": 0.37795275590551181,
    "duration": 0.21406399999999337
  },
  {
    "name": "G4",
    "midi": 67,
    "time": 76.2067839999998,
    "velocity": 0.31496062992125984,
    "duration": 0.21406399999999337
  },
  {
    "name": "G4",
    "midi": 67,
    "time": 76.634911999999787,
    "velocity": 0.37007874015748032,
    "duration": 0.21406399999999337
  },
  {
    "name": "D4",
    "midi": 62,
    "time": 76.634911999999787,
    "velocity": 0.2125984251968504,
    "duration": 0.42812799999998674
  },
  {
    "name": "E4",
    "midi": 64,
    "time": 76.84897599999978,
    "velocity": 0.31496062992125984,
    "duration": 0.21406399999999337
  },
  {
    "name": "C#4",
    "midi": 61,
    "time": 77.277103999999767,
    "velocity": 0.23622047244094488,
    "duration": 0.42812799999998674
  },
  {
    "name": "A#4",
    "midi": 70,
    "time": 77.277103999999767,
    "velocity": 0.41732283464566927,
    "duration": 0.21406399999999337
  },
  {
    "name": "A4",
    "midi": 69,
    "time": 77.49116799999976,
    "velocity": 0.37795275590551181,
    "duration": 0.21406399999999337
  },
  {
    "name": "A#4",
    "midi": 70,
    "time": 77.919295999999747,
    "velocity": 0.43307086614173229,
    "duration": 0.21406399999999337
  },
  {
    "name": "C#4",
    "midi": 61,
    "time": 77.919295999999747,
    "velocity": 0.24409448818897639,
    "duration": 0.42812799999998674
  },
  {
    "name": "A4",
    "midi": 69,
    "time": 78.13335999999974,
    "velocity": 0.37795275590551181,
    "duration": 0.21406399999999337
  },
  {
    "name": "C#4",
    "midi": 61,
    "time": 78.561487999999727,
    "velocity": 0.24409448818897639,
    "duration": 0.42812799999998674
  },
  {
    "name": "A#4",
    "midi": 70,
    "time": 78.561487999999727,
    "velocity": 0.44094488188976377,
    "duration": 0.21406399999999337
  },
  {
    "name": "A4",
    "midi": 69,
    "time": 78.77555199999972,
    "velocity": 0.38582677165354329,
    "duration": 0.21406399999999337
  },
  {
    "name": "G4",
    "midi": 67,
    "time": 79.203679999999707,
    "velocity": 0.41732283464566927,
    "duration": 0.21406399999999337
  },
  {
    "name": "A3",
    "midi": 57,
    "time": 79.203679999999707,
    "velocity": 0.23622047244094488,
    "duration": 0.42812799999998674
  },
  {
    "name": "F4",
    "midi": 65,
    "time": 79.4177439999997,
    "velocity": 0.36220472440944884,
    "duration": 0.21406399999999337
  },
  {
    "name": "G4",
    "midi": 67,
    "time": 79.845871999999687,
    "velocity": 0.42519685039370081,
    "duration": 0.21406399999999337
  },
  {
    "name": "A3",
    "midi": 57,
    "time": 79.845871999999687,
    "velocity": 0.23622047244094488,
    "duration": 0.42812799999998674
  },
  {
    "name": "F4",
    "midi": 65,
    "time": 80.059935999999681,
    "velocity": 0.36220472440944884,
    "duration": 0.21406399999999337
  },
  {
    "name": "G4",
    "midi": 67,
    "time": 80.488063999999667,
    "velocity": 0.42519685039370081,
    "duration": 0.21406399999999337
  },
  {
    "name": "A3",
    "midi": 57,
    "time": 80.488063999999667,
    "velocity": 0.24409448818897639,
    "duration": 0.42812799999998674
  },
  {
    "name": "F4",
    "midi": 65,
    "time": 80.702127999999661,
    "velocity": 0.36220472440944884,
    "duration": 0.21406399999999337
  },
  {
    "name": "C4",
    "midi": 60,
    "time": 81.130255999999648,
    "velocity": 0.25196850393700787,
    "duration": 0.42812799999998674
  },
  {
    "name": "F4",
    "midi": 65,
    "time": 81.130255999999648,
    "velocity": 0.44881889763779526,
    "duration": 0.21406399999999337
  },
  {
    "name": "E4",
    "midi": 64,
    "time": 81.344319999999641,
    "velocity": 0.37795275590551181,
    "duration": 0.21406399999999337
  },
  {
    "name": "C4",
    "midi": 60,
    "time": 81.772447999999628,
    "velocity": 0.25196850393700787,
    "duration": 0.42812799999998674
  },
  {
    "name": "F4",
    "midi": 65,
    "time": 81.772447999999628,
    "velocity": 0.45669291338582679,
    "duration": 0.21406399999999337
  },
  {
    "name": "E4",
    "midi": 64,
    "time": 81.986511999999621,
    "velocity": 0.37795275590551181,
    "duration": 0.21406399999999337
  },
  {
    "name": "C4",
    "midi": 60,
    "time": 82.414639999999608,
    "velocity": 0.25984251968503935,
    "duration": 0.42812799999998674
  },
  {
    "name": "F4",
    "midi": 65,
    "time": 82.414639999999608,
    "velocity": 0.44881889763779526,
    "duration": 0.21406399999999337
  },
  {
    "name": "E4",
    "midi": 64,
    "time": 82.6287039999996,
    "velocity": 0.38582677165354329,
    "duration": 0.21406399999999337
  },
  {
    "name": "E4",
    "midi": 64,
    "time": 83.056831999999588,
    "velocity": 0.42519685039370081,
    "duration": 0.21406399999999337
  },
  {
    "name": "A#3",
    "midi": 58,
    "time": 83.056831999999588,
    "velocity": 0.23622047244094488,
    "duration": 0.42812799999998674
  },
  {
    "name": "D4",
    "midi": 62,
    "time": 83.270895999999581,
    "velocity": 0.3543307086614173,
    "duration": 0.21406399999999337
  },
  {
    "name": "A#3",
    "midi": 58,
    "time": 83.699023999999568,
    "velocity": 0.2283464566929134,
    "duration": 0.42812799999998674
  },
  {
    "name": "E4",
    "midi": 64,
    "time": 83.699023999999568,
    "velocity": 0.40944881889763779,
    "duration": 0.21406399999999337
  },
  {
    "name": "D4",
    "midi": 62,
    "time": 83.913087999999561,
    "velocity": 0.33070866141732286,
    "duration": 0.21406399999999337
  },
  {
    "name": "A#3",
    "midi": 58,
    "time": 84.341215999999548,
    "velocity": 0.22047244094488189,
    "duration": 0.42812799999998674
  },
  {
    "name": "E4",
    "midi": 64,
    "time": 84.341215999999548,
    "velocity": 0.37795275590551181,
    "duration": 0.21406399999999337
  },
  {
    "name": "D4",
    "midi": 62,
    "time": 84.555279999999541,
    "velocity": 0.31496062992125984,
    "duration": 0.21406399999999337
  },
  {
    "name": "E4",
    "midi": 64,
    "time": 86.053727999999538,
    "velocity": 0.40157480314960631,
    "duration": 0.64219199999999432
  },
  {
    "name": "C#4",
    "midi": 61,
    "time": 86.053727999999538,
    "velocity": 0.40157480314960631,
    "duration": 0.64219199999999432
  },
  {
    "name": "A#3",
    "midi": 58,
    "time": 87.338111999999526,
    "velocity": 0.40157480314960631,
    "duration": 0.32109599999999716
  },
  {
    "name": "E4",
    "midi": 64,
    "time": 87.338111999999526,
    "velocity": 0.40157480314960631,
    "duration": 0.32109599999999716
  },
  {
    "name": "D4",
    "midi": 62,
    "time": 87.338111999999526,
    "velocity": 0.40157480314960631,
    "duration": 0.32109599999999716
  },
  {
    "name": "C#4",
    "midi": 61,
    "time": 89.906879999999518,
    "velocity": 0.40157480314960631,
    "duration": 0.64219199999999432
  },
  {
    "name": "E4",
    "midi": 64,
    "time": 89.906879999999518,
    "velocity": 0.40157480314960631,
    "duration": 0.64219199999999432
  },
  {
    "name": "A#3",
    "midi": 58,
    "time": 91.1912639999995,
    "velocity": 0.3543307086614173,
    "duration": 0.32109599999999716
  },
  {
    "name": "E4",
    "midi": 64,
    "time": 91.1912639999995,
    "velocity": 0.3543307086614173,
    "duration": 0.32109599999999716
  },
  {
    "name": "D4",
    "midi": 62,
    "time": 91.1912639999995,
    "velocity": 0.3543307086614173,
    "duration": 0.32109599999999716
  },
  {
    "name": "A#4",
    "midi": 70,
    "time": 92.475647999999509,
    "velocity": 0.38582677165354329,
    "duration": 1.9265759999999972
  },
  {
    "name": "E5",
    "midi": 76,
    "time": 92.475647999999509,
    "velocity": 0.38582677165354329,
    "duration": 1.9265759999999972
  },
  {
    "name": "A#5",
    "midi": 82,
    "time": 94.4022239999995,
    "velocity": 0.43307086614173229,
    "duration": 2.2476719999999943
  },
  {
    "name": "C6",
    "midi": 84,
    "time": 96.6498959999995,
    "velocity": 0.40157480314960631,
    "duration": 0.32109599999999716
  },
  {
    "name": "D6",
    "midi": 86,
    "time": 96.9709919999995,
    "velocity": 0.43307086614173229,
    "duration": 0.32109599999999716
  },
  {
    "name": "F6",
    "midi": 89,
    "time": 97.2920879999995,
    "velocity": 0.37007874015748032,
    "duration": 0.32109599999999716
  },
  {
    "name": "D6",
    "midi": 86,
    "time": 97.613183999999492,
    "velocity": 0.44094488188976377,
    "duration": 0.32109599999999716
  },
  {
    "name": "C6",
    "midi": 84,
    "time": 97.93427999999949,
    "velocity": 0.41732283464566927,
    "duration": 0.16054800000000569
  },
  {
    "name": "C6",
    "midi": 84,
    "time": 98.0948279999995,
    "velocity": 0.32283464566929132,
    "duration": 0.080274000000002843
  },
  {
    "name": "D6",
    "midi": 86,
    "time": 98.1751019999995,
    "velocity": 0.33070866141732286,
    "duration": 0.080274000000002843
  },
  {
    "name": "C6",
    "midi": 84,
    "time": 98.2553759999995,
    "velocity": 0.3543307086614173,
    "duration": 0.32109599999999716
  },
  {
    "name": "A#5",
    "midi": 82,
    "time": 98.5764719999995,
    "velocity": 0.37795275590551181,
    "duration": 0.32109599999999716
  },
  {
    "name": "F5",
    "midi": 77,
    "time": 98.8975679999995,
    "velocity": 0.37795275590551181,
    "duration": 0.32109599999999716
  },
  {
    "name": "A#5",
    "midi": 82,
    "time": 99.218663999999492,
    "velocity": 0.33858267716535434,
    "duration": 0.32109599999999716
  },
  {
    "name": "A5",
    "midi": 81,
    "time": 99.53975999999949,
    "velocity": 0.37007874015748032,
    "duration": 1.2843840000000029
  },
  {
    "name": "G#5",
    "midi": 80,
    "time": 100.82414399999949,
    "velocity": 0.37007874015748032,
    "duration": 0.32109599999999716
  },
  {
    "name": "F5",
    "midi": 77,
    "time": 101.14523999999949,
    "velocity": 0.33858267716535434,
    "duration": 0.32109599999999716
  },
  {
    "name": "E5",
    "midi": 76,
    "time": 101.46633599999949,
    "velocity": 0.3543307086614173,
    "duration": 0.32109599999999716
  },
  {
    "name": "D5",
    "midi": 74,
    "time": 101.78743199999948,
    "velocity": 0.33070866141732286,
    "duration": 0.32109599999999716
  },
  {
    "name": "A3",
    "midi": 57,
    "time": 102.42962399999948,
    "velocity": 0.31496062992125984,
    "duration": 0.32109599999999716
  },
  {
    "name": "C#4",
    "midi": 61,
    "time": 102.75071999999948,
    "velocity": 0.32283464566929132,
    "duration": 0.32109599999999716
  },
  {
    "name": "E4",
    "midi": 64,
    "time": 103.07181599999947,
    "velocity": 0.34645669291338582,
    "duration": 0.32109599999999716
  },
  {
    "name": "A4",
    "midi": 69,
    "time": 103.39291199999947,
    "velocity": 0.36220472440944884,
    "duration": 0.32109599999999716
  },
  {
    "name": "C#5",
    "midi": 73,
    "time": 103.71400799999947,
    "velocity": 0.37007874015748032,
    "duration": 0.32109599999999716
  },
  {
    "name": "E5",
    "midi": 76,
    "time": 104.03510399999946,
    "velocity": 0.39370078740157483,
    "duration": 0.32109599999999716
  },
  {
    "name": "A4",
    "midi": 69,
    "time": 104.35619999999946,
    "velocity": 0.31496062992125984,
    "duration": 0.32109599999999716
  },
  {
    "name": "C#5",
    "midi": 73,
    "time": 104.67729599999946,
    "velocity": 0.32283464566929132,
    "duration": 0.32109599999999716
  },
  {
    "name": "E5",
    "midi": 76,
    "time": 104.99839199999946,
    "velocity": 0.34645669291338582,
    "duration": 0.32109599999999716
  },
  {
    "name": "A5",
    "midi": 81,
    "time": 105.31948799999945,
    "velocity": 0.36220472440944884,
    "duration": 0.32109599999999716
  },
  {
    "name": "C#6",
    "midi": 85,
    "time": 105.64058399999945,
    "velocity": 0.37007874015748032,
    "duration": 0.32109599999999716
  },
  {
    "name": "E6",
    "midi": 88,
    "time": 105.96167999999945,
    "velocity": 0.40157480314960631,
    "duration": 0.32109599999999716
  },
  {
    "name": "A4",
    "midi": 69,
    "time": 106.28277599999944,
    "velocity": 0.31496062992125984,
    "duration": 0.32109599999999716
  },
  {
    "name": "C#5",
    "midi": 73,
    "time": 106.60387199999944,
    "velocity": 0.32283464566929132,
    "duration": 0.32109599999999716
  },
  {
    "name": "E5",
    "midi": 76,
    "time": 106.92496799999944,
    "velocity": 0.34645669291338582,
    "duration": 0.32109599999999716
  },
  {
    "name": "A5",
    "midi": 81,
    "time": 107.24606399999944,
    "velocity": 0.36220472440944884,
    "duration": 0.32109599999999716
  },
  {
    "name": "C#6",
    "midi": 85,
    "time": 107.56715999999943,
    "velocity": 0.37007874015748032,
    "duration": 0.32109599999999716
  },
  {
    "name": "E6",
    "midi": 88,
    "time": 107.88825599999943,
    "velocity": 0.38582677165354329,
    "duration": 0.32109599999999716
  },
  {
    "name": "A5",
    "midi": 81,
    "time": 108.20935199999943,
    "velocity": 0.36220472440944884,
    "duration": 0.32109599999999716
  },
  {
    "name": "C#6",
    "midi": 85,
    "time": 108.53044799999942,
    "velocity": 0.34645669291338582,
    "duration": 0.32109599999999716
  },
  {
    "name": "E6",
    "midi": 88,
    "time": 108.85154399999942,
    "velocity": 0.33070866141732286,
    "duration": 0.32109599999999716
  },
  {
    "name": "A6",
    "midi": 93,
    "time": 109.17263999999942,
    "velocity": 0.31496062992125984,
    "duration": 0.32109599999999716
  },
  {
    "name": "C#7",
    "midi": 97,
    "time": 109.49373599999942,
    "velocity": 0.29921259842519687,
    "duration": 0.32109599999999716
  },
  {
    "name": "E7",
    "midi": 100,
    "time": 109.81483199999941,
    "velocity": 0.28346456692913385,
    "duration": 1.9265759999999972
  },
  {
    "name": "A6",
    "midi": 93,
    "time": 109.81483199999941,
    "velocity": 0.28346456692913385,
    "duration": 1.9265759999999972
  },
  {
    "name": "A7",
    "midi": 105,
    "time": 109.81483199999941,
    "velocity": 0.28346456692913385,
    "duration": 1.9265759999999972
  }
]