{
  "header": {
    "PPQ": 480,
    "timeSignature": [
      3,
      4
    ],
    "bpm": 93.43000224232006,
    "name": "Prelude"
  },
  "startTime": 0,
  "duration": 111.7414079999997,
  "tracks": [
    {
      "startTime": 0,
      "duration": 0,
      "length": 0,
      "notes": [],
      "controlChanges": {},
      "id": 0,
      "name": "Prelude"
    },
    {
      "startTime": 0.321096,
      "duration": 111.74140799999941,
      "length": 367,
      "notes": [
        {
          "name": "A5",
          "midi": 81,
          "time": 0.321096,
          "velocity": 0.47244094488188976,
          "duration": 0.321096
        },
        {
          "name": "E6",
          "midi": 88,
          "time": 0.642192,
          "velocity": 0.5196850393700787,
          "duration": 2.0871239999999998
        },
        {
          "name": "D6",
          "midi": 86,
          "time": 2.729316,
          "velocity": 0.4330708661417323,
          "duration": 0.08027400000000018
        },
        {
          "name": "E6",
          "midi": 88,
          "time": 2.80959,
          "velocity": 0.3700787401574803,
          "duration": 0.08027400000000018
        },
        {
          "name": "D6",
          "midi": 86,
          "time": 2.889864,
          "velocity": 0.4881889763779528,
          "duration": 0.3210959999999998
        },
        {
          "name": "C6",
          "midi": 84,
          "time": 3.21096,
          "velocity": 0.44881889763779526,
          "duration": 0.3210959999999998
        },
        {
          "name": "D6",
          "midi": 86,
          "time": 3.532056,
          "velocity": 0.44881889763779526,
          "duration": 0.3210959999999998
        },
        {
          "name": "E6",
          "midi": 88,
          "time": 3.8531519999999997,
          "velocity": 0.4881889763779528,
          "duration": 0.3210959999999998
        },
        {
          "name": "F6",
          "midi": 89,
          "time": 4.1742479999999995,
          "velocity": 0.5039370078740157,
          "duration": 0.3210959999999998
        },
        {
          "name": "G6",
          "midi": 91,
          "time": 4.495343999999999,
          "velocity": 0.5275590551181102,
          "duration": 0.3210959999999998
        },
        {
          "name": "E6",
          "midi": 88,
          "time": 4.816439999999999,
          "velocity": 0.5196850393700787,
          "duration": 0.3210959999999998
        },
        {
          "name": "F6",
          "midi": 89,
          "time": 5.137535999999999,
          "velocity": 0.5039370078740157,
          "duration": 0.3210959999999998
        },
        {
          "name": "E6",
          "midi": 88,
          "time": 5.458631999999999,
          "velocity": 0.48031496062992124,
          "duration": 0.16054800000000036
        },
        {
          "name": "D6",
          "midi": 86,
          "time": 5.619179999999999,
          "velocity": 0.4645669291338583,
          "duration": 0.08027400000000018
        },
        {
          "name": "E6",
          "midi": 88,
          "time": 5.699453999999999,
          "velocity": 0.4330708661417323,
          "duration": 0.08027400000000018
        },
        {
          "name": "D6",
          "midi": 86,
          "time": 5.7797279999999995,
          "velocity": 0.5275590551181102,
          "duration": 0.6421919999999997
        },
        {
          "name": "C6",
          "midi": 84,
          "time": 6.421919999999999,
          "velocity": 0.47244094488188976,
          "duration": 0.6421919999999997
        },
        {
          "name": "A#5",
          "midi": 82,
          "time": 7.064111999999999,
          "velocity": 0.44881889763779526,
          "duration": 0.6421919999999997
        },
        {
          "name": "A3",
          "midi": 57,
          "time": 8.027399999999998,
          "velocity": 0.3937007874015748,
          "duration": 0.3210960000000007
        },
        {
          "name": "C#4",
          "midi": 61,
          "time": 8.348495999999999,
          "velocity": 0.4015748031496063,
          "duration": 0.3210960000000007
        },
        {
          "name": "E4",
          "midi": 64,
          "time": 8.669592,
          "velocity": 0.4251968503937008,
          "duration": 0.3210960000000007
        },
        {
          "name": "A4",
          "midi": 69,
          "time": 8.990688,
          "velocity": 0.44881889763779526,
          "duration": 0.3210960000000007
        },
        {
          "name": "C#5",
          "midi": 73,
          "time": 9.311784000000001,
          "velocity": 0.4566929133858268,
          "duration": 0.3210960000000007
        },
        {
          "name": "E5",
          "midi": 76,
          "time": 9.632880000000002,
          "velocity": 0.48031496062992124,
          "duration": 0.3210960000000007
        },
        {
          "name": "A4",
          "midi": 69,
          "time": 9.953976000000003,
          "velocity": 0.3937007874015748,
          "duration": 0.3210960000000007
        },
        {
          "name": "C#5",
          "midi": 73,
          "time": 10.275072000000003,
          "velocity": 0.4015748031496063,
          "duration": 0.3210960000000007
        },
        {
          "name": "E5",
          "midi": 76,
          "time": 10.596168000000004,
          "velocity": 0.4251968503937008,
          "duration": 0.3210960000000007
        },
        {
          "name": "A5",
          "midi": 81,
          "time": 10.917264000000005,
          "velocity": 0.44881889763779526,
          "duration": 0.3210960000000007
        },
        {
          "name": "C#6",
          "midi": 85,
          "time": 11.238360000000005,
          "velocity": 0.4566929133858268,
          "duration": 0.3210960000000007
        },
        {
          "name": "E6",
          "midi": 88,
          "time": 11.559456000000006,
          "velocity": 0.5039370078740157,
          "duration": 0.3210960000000007
        },
        {
          "name": "C#6",
          "midi": 85,
          "time": 11.880552000000007,
          "velocity": 0.47244094488188976,
          "duration": 0.3210960000000007
        },
        {
          "name": "A5",
          "midi": 81,
          "time": 12.201648000000008,
          "velocity": 0.4566929133858268,
          "duration": 0.3210960000000007
        },
        {
          "name": "E5",
          "midi": 76,
          "time": 12.522744000000008,
          "velocity": 0.44881889763779526,
          "duration": 0.3210960000000007
        },
        {
          "name": "C#5",
          "midi": 73,
          "time": 12.843840000000009,
          "velocity": 0.4330708661417323,
          "duration": 0.3210960000000007
        },
        {
          "name": "A4",
          "midi": 69,
          "time": 13.16493600000001,
          "velocity": 0.41732283464566927,
          "duration": 0.3210960000000007
        },
        {
          "name": "E5",
          "midi": 76,
          "time": 13.48603200000001,
          "velocity": 0.4015748031496063,
          "duration": 0.3210960000000007
        },
        {
          "name": "C#5",
          "midi": 73,
          "time": 13.807128000000011,
          "velocity": 0.3779527559055118,
          "duration": 0.3210960000000007
        },
        {
          "name": "A4",
          "midi": 69,
          "time": 14.128224000000012,
          "velocity": 0.36220472440944884,
          "duration": 0.3210960000000007
        },
        {
          "name": "E4",
          "midi": 64,
          "time": 14.449320000000013,
          "velocity": 0.3464566929133858,
          "duration": 0.3210960000000007
        },
        {
          "name": "C#4",
          "midi": 61,
          "time": 14.770416000000013,
          "velocity": 0.3464566929133858,
          "duration": 0.3210960000000007
        },
        {
          "name": "A3",
          "midi": 57,
          "time": 15.091512000000014,
          "velocity": 0.33070866141732286,
          "duration": 0.3210960000000007
        },
        {
          "name": "A5",
          "midi": 81,
          "time": 15.733704000000015,
          "velocity": 0.4015748031496063,
          "duration": 0.32109599999999894
        },
        {
          "name": "E6",
          "midi": 88,
          "time": 16.054800000000014,
          "velocity": 0.4409448818897638,
          "duration": 2.0871239999999993
        },
        {
          "name": "D6",
          "midi": 86,
          "time": 18.141924000000014,
          "velocity": 0.36220472440944884,
          "duration": 0.08027399999999929
        },
        {
          "name": "E6",
          "midi": 88,
          "time": 18.222198000000013,
          "velocity": 0.3228346456692913,
          "duration": 0.08027399999999929
        },
        {
          "name": "D6",
          "midi": 86,
          "time": 18.302472000000012,
          "velocity": 0.4094488188976378,
          "duration": 0.3210960000000007
        },
        {
          "name": "C6",
          "midi": 84,
          "time": 18.623568000000013,
          "velocity": 0.3779527559055118,
          "duration": 0.3210960000000007
        },
        {
          "name": "D6",
          "midi": 86,
          "time": 18.944664000000014,
          "velocity": 0.3779527559055118,
          "duration": 0.3210960000000007
        },
        {
          "name": "E6",
          "midi": 88,
          "time": 19.265760000000014,
          "velocity": 0.4094488188976378,
          "duration": 0.3210960000000007
        },
        {
          "name": "F6",
          "midi": 89,
          "time": 19.586856000000015,
          "velocity": 0.4251968503937008,
          "duration": 0.3210960000000007
        },
        {
          "name": "G6",
          "midi": 91,
          "time": 19.907952000000016,
          "velocity": 0.4409448818897638,
          "duration": 0.3210960000000007
        },
        {
          "name": "E6",
          "midi": 88,
          "time": 20.229048000000017,
          "velocity": 0.4409448818897638,
          "duration": 0.3210960000000007
        },
        {
          "name": "F6",
          "midi": 89,
          "time": 20.550144000000017,
          "velocity": 0.4251968503937008,
          "duration": 0.3210960000000007
        },
        {
          "name": "E6",
          "midi": 88,
          "time": 20.871240000000018,
          "velocity": 0.4015748031496063,
          "duration": 0.16054799999999858
        },
        {
          "name": "D6",
          "midi": 86,
          "time": 21.031788000000017,
          "velocity": 0.4015748031496063,
          "duration": 0.08027399999999929
        },
        {
          "name": "E6",
          "midi": 88,
          "time": 21.112062000000016,
          "velocity": 0.3700787401574803,
          "duration": 0.08027399999999929
        },
        {
          "name": "D6",
          "midi": 86,
          "time": 21.192336000000015,
          "velocity": 0.4409448818897638,
          "duration": 0.6421920000000014
        },
        {
          "name": "C6",
          "midi": 84,
          "time": 21.834528000000017,
          "velocity": 0.4015748031496063,
          "duration": 0.6421920000000014
        },
        {
          "name": "A#5",
          "midi": 82,
          "time": 22.476720000000018,
          "velocity": 0.3779527559055118,
          "duration": 0.6421920000000014
        },
        {
          "name": "A5",
          "midi": 81,
          "time": 23.11891200000002,
          "velocity": 0.3464566929133858,
          "duration": 0.3210960000000007
        },
        {
          "name": "A#5",
          "midi": 82,
          "time": 23.44000800000002,
          "velocity": 0.36220472440944884,
          "duration": 0.3210960000000007
        },
        {
          "name": "C6",
          "midi": 84,
          "time": 23.76110400000002,
          "velocity": 0.3779527559055118,
          "duration": 0.3210960000000007
        },
        {
          "name": "D6",
          "midi": 86,
          "time": 24.08220000000002,
          "velocity": 0.3937007874015748,
          "duration": 0.3210960000000007
        },
        {
          "name": "F6",
          "midi": 89,
          "time": 24.403296000000022,
          "velocity": 0.4094488188976378,
          "duration": 0.4816439999999993
        },
        {
          "name": "D6",
          "midi": 86,
          "time": 24.88494000000002,
          "velocity": 0.3858267716535433,
          "duration": 0.08027399999999929
        },
        {
          "name": "E6",
          "midi": 88,
          "time": 24.96521400000002,
          "velocity": 0.33070866141732286,
          "duration": 0.08027399999999929
        },
        {
          "name": "D6",
          "midi": 86,
          "time": 25.04548800000002,
          "velocity": 0.4409448818897638,
          "duration": 0.6421920000000014
        },
        {
          "name": "C6",
          "midi": 84,
          "time": 25.68768000000002,
          "velocity": 0.4015748031496063,
          "duration": 0.6421920000000014
        },
        {
          "name": "A#5",
          "midi": 82,
          "time": 26.329872000000023,
          "velocity": 0.3779527559055118,
          "duration": 0.6421920000000014
        },
        {
          "name": "A5",
          "midi": 81,
          "time": 26.972064000000024,
          "velocity": 0.36220472440944884,
          "duration": 0.3210960000000007
        },
        {
          "name": "A#5",
          "midi": 82,
          "time": 27.293160000000025,
          "velocity": 0.3700787401574803,
          "duration": 0.3210960000000007
        },
        {
          "name": "C6",
          "midi": 84,
          "time": 27.614256000000026,
          "velocity": 0.3858267716535433,
          "duration": 0.3210960000000007
        },
        {
          "name": "D6",
          "midi": 86,
          "time": 27.935352000000027,
          "velocity": 0.4015748031496063,
          "duration": 0.3210960000000007
        },
        {
          "name": "E6",
          "midi": 88,
          "time": 28.256448000000027,
          "velocity": 0.41732283464566927,
          "duration": 0.3210960000000007
        },
        {
          "name": "G6",
          "midi": 91,
          "time": 28.577544000000028,
          "velocity": 0.44881889763779526,
          "duration": 0.3210960000000007
        },
        {
          "name": "F6",
          "midi": 89,
          "time": 28.89864000000003,
          "velocity": 0.4330708661417323,
          "duration": 0.16054799999999858
        },
        {
          "name": "D6",
          "midi": 86,
          "time": 29.059188000000027,
          "velocity": 0.36220472440944884,
          "duration": 0.08027399999999929
        },
        {
          "name": "E6",
          "midi": 88,
          "time": 29.139462000000027,
          "velocity": 0.31496062992125984,
          "duration": 0.08027399999999929
        },
        {
          "name": "D6",
          "midi": 86,
          "time": 29.219736000000026,
          "velocity": 0.3937007874015748,
          "duration": 0.3210960000000007
        },
        {
          "name": "C6",
          "midi": 84,
          "time": 29.540832000000027,
          "velocity": 0.3937007874015748,
          "duration": 0.3210960000000007
        },
        {
          "name": "A#5",
          "midi": 82,
          "time": 29.861928000000027,
          "velocity": 0.3543307086614173,
          "duration": 0.3210960000000007
        },
        {
          "name": "D6",
          "midi": 86,
          "time": 30.183024000000028,
          "velocity": 0.3858267716535433,
          "duration": 0.3210960000000007
        },
        {
          "name": "C#6",
          "midi": 85,
          "time": 30.50412000000003,
          "velocity": 0.3464566929133858,
          "duration": 0.3210960000000007
        },
        {
          "name": "A#4",
          "midi": 70,
          "time": 31.03928000000003,
          "velocity": 0.4015748031496063,
          "duration": 0.21406400000000048
        },
        {
          "name": "C#4",
          "midi": 61,
          "time": 31.03928000000003,
          "velocity": 0.2283464566929134,
          "duration": 0.42812800000000095
        },
        {
          "name": "A4",
          "midi": 69,
          "time": 31.25334400000003,
          "velocity": 0.36220472440944884,
          "duration": 0.21406400000000048
        },
        {
          "name": "C#4",
          "midi": 61,
          "time": 31.68147200000003,
          "velocity": 0.2283464566929134,
          "duration": 0.4281279999999974
        },
        {
          "name": "A#4",
          "midi": 70,
          "time": 31.68147200000003,
          "velocity": 0.4094488188976378,
          "duration": 0.21406400000000048
        },
        {
          "name": "A4",
          "midi": 69,
          "time": 31.895536000000032,
          "velocity": 0.3543307086614173,
          "duration": 0.21406399999999692
        },
        {
          "name": "C#4",
          "midi": 61,
          "time": 32.32366400000003,
          "velocity": 0.2283464566929134,
          "duration": 0.42812800000000095
        },
        {
          "name": "A#4",
          "midi": 70,
          "time": 32.32366400000003,
          "velocity": 0.4015748031496063,
          "duration": 0.21406400000000048
        },
        {
          "name": "A4",
          "midi": 69,
          "time": 32.53772800000003,
          "velocity": 0.3543307086614173,
          "duration": 0.21406400000000048
        },
        {
          "name": "D4",
          "midi": 62,
          "time": 32.96585600000003,
          "velocity": 0.2125984251968504,
          "duration": 0.42812800000000095
        },
        {
          "name": "A4",
          "midi": 69,
          "time": 32.96585600000003,
          "velocity": 0.3779527559055118,
          "duration": 0.21406400000000048
        },
        {
          "name": "G4",
          "midi": 67,
          "time": 33.17992000000003,
          "velocity": 0.3228346456692913,
          "duration": 0.21406400000000048
        },
        {
          "name": "A4",
          "midi": 69,
          "time": 33.60804800000003,
          "velocity": 0.3779527559055118,
          "duration": 0.21406400000000048
        },
        {
          "name": "D4",
          "midi": 62,
          "time": 33.60804800000003,
          "velocity": 0.2125984251968504,
          "duration": 0.42812800000000095
        },
        {
          "name": "G4",
          "midi": 67,
          "time": 33.82211200000003,
          "velocity": 0.31496062992125984,
          "duration": 0.21406400000000048
        },
        {
          "name": "D4",
          "midi": 62,
          "time": 34.25024000000003,
          "velocity": 0.2125984251968504,
          "duration": 0.42812800000000095
        },
        {
          "name": "A4",
          "midi": 69,
          "time": 34.25024000000003,
          "velocity": 0.3700787401574803,
          "duration": 0.21406400000000048
        },
        {
          "name": "G4",
          "midi": 67,
          "time": 34.464304000000034,
          "velocity": 0.31496062992125984,
          "duration": 0.21406400000000048
        },
        {
          "name": "C#4",
          "midi": 61,
          "time": 34.892432000000035,
          "velocity": 0.2283464566929134,
          "duration": 0.42812800000000095
        },
        {
          "name": "A#4",
          "midi": 70,
          "time": 34.892432000000035,
          "velocity": 0.4015748031496063,
          "duration": 0.21406400000000048
        },
        {
          "name": "A4",
          "midi": 69,
          "time": 35.106496000000035,
          "velocity": 0.36220472440944884,
          "duration": 0.21406400000000048
        },
        {
          "name": "A#4",
          "midi": 70,
          "time": 35.534624000000036,
          "velocity": 0.4094488188976378,
          "duration": 0.21406400000000048
        },
        {
          "name": "C#4",
          "midi": 61,
          "time": 35.534624000000036,
          "velocity": 0.33070866141732286,
          "duration": 0.42812800000000095
        },
        {
          "name": "A4",
          "midi": 69,
          "time": 35.74868800000004,
          "velocity": 0.3543307086614173,
          "duration": 0.21406400000000048
        },
        {
          "name": "C#4",
          "midi": 61,
          "time": 36.17681600000004,
          "velocity": 0.33070866141732286,
          "duration": 0.42812800000000095
        },
        {
          "name": "A#4",
          "midi": 70,
          "time": 36.17681600000004,
          "velocity": 0.4015748031496063,
          "duration": 0.21406400000000048
        },
        {
          "name": "A4",
          "midi": 69,
          "time": 36.39088000000004,
          "velocity": 0.3543307086614173,
          "duration": 0.21406400000000048
        },
        {
          "name": "A#4",
          "midi": 70,
          "time": 36.81900800000004,
          "velocity": 0.3779527559055118,
          "duration": 0.21406400000000048
        },
        {
          "name": "D4",
          "midi": 62,
          "time": 36.81900800000004,
          "velocity": 0.2125984251968504,
          "duration": 0.42812800000000095
        },
        {
          "name": "A4",
          "midi": 69,
          "time": 37.03307200000004,
          "velocity": 0.3228346456692913,
          "duration": 0.21406400000000048
        },
        {
          "name": "A4",
          "midi": 69,
          "time": 37.46120000000004,
          "velocity": 0.3779527559055118,
          "duration": 0.21406400000000048
        },
        {
          "name": "D4",
          "midi": 62,
          "time": 37.46120000000004,
          "velocity": 0.2125984251968504,
          "duration": 0.42812800000000095
        },
        {
          "name": "G4",
          "midi": 67,
          "time": 37.67526400000004,
          "velocity": 0.31496062992125984,
          "duration": 0.21406400000000048
        },
        {
          "name": "G4",
          "midi": 67,
          "time": 38.10339200000004,
          "velocity": 0.3700787401574803,
          "duration": 0.21406400000000048
        },
        {
          "name": "D4",
          "midi": 62,
          "time": 38.10339200000004,
          "velocity": 0.2125984251968504,
          "duration": 0.42812800000000095
        },
        {
          "name": "E4",
          "midi": 64,
          "time": 38.31745600000004,
          "velocity": 0.31496062992125984,
          "duration": 0.21406400000000048
        },
        {
          "name": "C#4",
          "midi": 61,
          "time": 38.74558400000004,
          "velocity": 0.23622047244094488,
          "duration": 0.42812800000000095
        },
        {
          "name": "A#4",
          "midi": 70,
          "time": 38.74558400000004,
          "velocity": 0.41732283464566927,
          "duration": 0.21406400000000048
        },
        {
          "name": "A4",
          "midi": 69,
          "time": 38.959648000000044,
          "velocity": 0.3779527559055118,
          "duration": 0.21406400000000048
        },
        {
          "name": "A#4",
          "midi": 70,
          "time": 39.387776000000045,
          "velocity": 0.4330708661417323,
          "duration": 0.21406400000000048
        },
        {
          "name": "C#4",
          "midi": 61,
          "time": 39.387776000000045,
          "velocity": 0.2440944881889764,
          "duration": 0.42812800000000095
        },
        {
          "name": "A4",
          "midi": 69,
          "time": 39.601840000000045,
          "velocity": 0.3779527559055118,
          "duration": 0.21406400000000048
        },
        {
          "name": "A#4",
          "midi": 70,
          "time": 40.029968000000046,
          "velocity": 0.4409448818897638,
          "duration": 0.21406400000000048
        },
        {
          "name": "C#4",
          "midi": 61,
          "time": 40.029968000000046,
          "velocity": 0.2440944881889764,
          "duration": 0.42812800000000095
        },
        {
          "name": "A4",
          "midi": 69,
          "time": 40.24403200000005,
          "velocity": 0.3858267716535433,
          "duration": 0.21406400000000048
        },
        {
          "name": "G4",
          "midi": 67,
          "time": 40.67216000000005,
          "velocity": 0.44881889763779526,
          "duration": 0.21406400000000048
        },
        {
          "name": "A3",
          "midi": 57,
          "time": 40.67216000000005,
          "velocity": 0.25196850393700787,
          "duration": 0.42812800000000095
        },
        {
          "name": "F4",
          "midi": 65,
          "time": 40.88622400000005,
          "velocity": 0.3937007874015748,
          "duration": 0.21406400000000048
        },
        {
          "name": "A3",
          "midi": 57,
          "time": 41.31435200000005,
          "velocity": 0.25984251968503935,
          "duration": 0.42812800000000095
        },
        {
          "name": "G4",
          "midi": 67,
          "time": 41.31435200000005,
          "velocity": 0.4566929133858268,
          "duration": 0.21406400000000048
        },
        {
          "name": "F4",
          "midi": 65,
          "time": 41.52841600000005,
          "velocity": 0.3779527559055118,
          "duration": 0.21406400000000048
        },
        {
          "name": "G4",
          "midi": 67,
          "time": 41.95654400000005,
          "velocity": 0.4566929133858268,
          "duration": 0.21406400000000048
        },
        {
          "name": "A3",
          "midi": 57,
          "time": 41.95654400000005,
          "velocity": 0.25196850393700787,
          "duration": 0.42812800000000095
        },
        {
          "name": "F4",
          "midi": 65,
          "time": 42.17060800000005,
          "velocity": 0.3858267716535433,
          "duration": 0.21406400000000048
        },
        {
          "name": "C4",
          "midi": 60,
          "time": 42.59873600000005,
          "velocity": 0.2677165354330709,
          "duration": 0.42812800000000095
        },
        {
          "name": "F4",
          "midi": 65,
          "time": 42.59873600000005,
          "velocity": 0.47244094488188976,
          "duration": 0.21406400000000048
        },
        {
          "name": "E4",
          "midi": 64,
          "time": 42.81280000000005,
          "velocity": 0.41732283464566927,
          "duration": 0.21406400000000048
        },
        {
          "name": "F4",
          "midi": 65,
          "time": 43.24092800000005,
          "velocity": 0.48031496062992124,
          "duration": 0.21406400000000048
        },
        {
          "name": "C4",
          "midi": 60,
          "time": 43.24092800000005,
          "velocity": 0.2755905511811024,
          "duration": 0.42812800000000095
        },
        {
          "name": "E4",
          "midi": 64,
          "time": 43.454992000000054,
          "velocity": 0.4015748031496063,
          "duration": 0.21406400000000048
        },
        {
          "name": "C4",
          "midi": 60,
          "time": 43.883120000000055,
          "velocity": 0.2677165354330709,
          "duration": 0.42812800000000095
        },
        {
          "name": "F4",
          "midi": 65,
          "time": 43.883120000000055,
          "velocity": 0.48031496062992124,
          "duration": 0.21406400000000048
        },
        {
          "name": "E4",
          "midi": 64,
          "time": 44.097184000000055,
          "velocity": 0.4094488188976378,
          "duration": 0.21406400000000048
        },
        {
          "name": "E4",
          "midi": 64,
          "time": 44.525312000000056,
          "velocity": 0.4566929133858268,
          "duration": 0.21406400000000048
        },
        {
          "name": "A#3",
          "midi": 58,
          "time": 44.525312000000056,
          "velocity": 0.25984251968503935,
          "duration": 0.42812800000000095
        },
        {
          "name": "D4",
          "midi": 62,
          "time": 44.73937600000006,
          "velocity": 0.3937007874015748,
          "duration": 0.21406400000000048
        },
        {
          "name": "E4",
          "midi": 64,
          "time": 45.16750400000006,
          "velocity": 0.4330708661417323,
          "duration": 0.21406400000000048
        },
        {
          "name": "A#3",
          "midi": 58,
          "time": 45.16750400000006,
          "velocity": 0.2440944881889764,
          "duration": 0.42812800000000095
        },
        {
          "name": "D4",
          "midi": 62,
          "time": 45.38156800000006,
          "velocity": 0.3464566929133858,
          "duration": 0.21406400000000048
        },
        {
          "name": "E4",
          "midi": 64,
          "time": 45.80969600000006,
          "velocity": 0.4094488188976378,
          "duration": 0.21406400000000048
        },
        {
          "name": "A#3",
          "midi": 58,
          "time": 45.80969600000006,
          "velocity": 0.2283464566929134,
          "duration": 0.42812800000000095
        },
        {
          "name": "D4",
          "midi": 62,
          "time": 46.02376000000006,
          "velocity": 0.33070866141732286,
          "duration": 0.21406400000000048
        },
        {
          "name": "C#4",
          "midi": 61,
          "time": 46.45188800000006,
          "velocity": 0.2283464566929134,
          "duration": 0.42812800000000095
        },
        {
          "name": "A#4",
          "midi": 70,
          "time": 46.45188800000006,
          "velocity": 0.4015748031496063,
          "duration": 0.21406400000000048
        },
        {
          "name": "A4",
          "midi": 69,
          "time": 46.66595200000006,
          "velocity": 0.36220472440944884,
          "duration": 0.21406400000000048
        },
        {
          "name": "C#4",
          "midi": 61,
          "time": 47.09408000000006,
          "velocity": 0.2283464566929134,
          "duration": 0.42812800000000095
        },
        {
          "name": "A#4",
          "midi": 70,
          "time": 47.09408000000006,
          "velocity": 0.4094488188976378,
          "duration": 0.21406400000000048
        },
        {
          "name": "A4",
          "midi": 69,
          "time": 47.30814400000006,
          "velocity": 0.3543307086614173,
          "duration": 0.21406400000000048
        },
        {
          "name": "C#4",
          "midi": 61,
          "time": 47.73627200000006,
          "velocity": 0.2283464566929134,
          "duration": 0.42812800000000095
        },
        {
          "name": "A#4",
          "midi": 70,
          "time": 47.73627200000006,
          "velocity": 0.4015748031496063,
          "duration": 0.21406400000000048
        },
        {
          "name": "A4",
          "midi": 69,
          "time": 47.950336000000064,
          "velocity": 0.3543307086614173,
          "duration": 0.21406400000000048
        },
        {
          "name": "A4",
          "midi": 69,
          "time": 48.378464000000065,
          "velocity": 0.3779527559055118,
          "duration": 0.21406400000000048
        },
        {
          "name": "D4",
          "midi": 62,
          "time": 48.378464000000065,
          "velocity": 0.2125984251968504,
          "duration": 0.42812800000000095
        },
        {
          "name": "G4",
          "midi": 67,
          "time": 48.592528000000065,
          "velocity": 0.3228346456692913,
          "duration": 0.21406400000000048
        },
        {
          "name": "D4",
          "midi": 62,
          "time": 49.020656000000066,
          "velocity": 0.2125984251968504,
          "duration": 0.42812800000000095
        },
        {
          "name": "A4",
          "midi": 69,
          "time": 49.020656000000066,
          "velocity": 0.3779527559055118,
          "duration": 0.21406400000000048
        },
        {
          "name": "G4",
          "midi": 67,
          "time": 49.23472000000007,
          "velocity": 0.31496062992125984,
          "duration": 0.21406400000000048
        },
        {
          "name": "D4",
          "midi": 62,
          "time": 49.66284800000007,
          "velocity": 0.2125984251968504,
          "duration": 0.42812800000000095
        },
        {
          "name": "A4",
          "midi": 69,
          "time": 49.66284800000007,
          "velocity": 0.3700787401574803,
          "duration": 0.21406400000000048
        },
        {
          "name": "G4",
          "midi": 67,
          "time": 49.87691200000007,
          "velocity": 0.31496062992125984,
          "duration": 0.21406400000000048
        },
        {
          "name": "A#4",
          "midi": 70,
          "time": 50.30504000000007,
          "velocity": 0.4015748031496063,
          "duration": 0.21406400000000048
        },
        {
          "name": "C#4",
          "midi": 61,
          "time": 50.30504000000007,
          "velocity": 0.2283464566929134,
          "duration": 0.42812800000000095
        },
        {
          "name": "A4",
          "midi": 69,
          "time": 50.51910400000007,
          "velocity": 0.36220472440944884,
          "duration": 0.21406400000000048
        },
        {
          "name": "C#4",
          "midi": 61,
          "time": 50.94723200000007,
          "velocity": 0.2283464566929134,
          "duration": 0.42812800000000095
        },
        {
          "name": "A#4",
          "midi": 70,
          "time": 50.94723200000007,
          "velocity": 0.4094488188976378,
          "duration": 0.21406400000000048
        },
        {
          "name": "A4",
          "midi": 69,
          "time": 51.16129600000007,
          "velocity": 0.3543307086614173,
          "duration": 0.21406400000000048
        },
        {
          "name": "A#4",
          "midi": 70,
          "time": 51.58942400000007,
          "velocity": 0.4015748031496063,
          "duration": 0.21406400000000048
        },
        {
          "name": "C#4",
          "midi": 61,
          "time": 51.58942400000007,
          "velocity": 0.2283464566929134,
          "duration": 0.42812800000000095
        },
        {
          "name": "A4",
          "midi": 69,
          "time": 51.80348800000007,
          "velocity": 0.3543307086614173,
          "duration": 0.21406400000000048
        },
        {
          "name": "A4",
          "midi": 69,
          "time": 52.23161600000007,
          "velocity": 0.3779527559055118,
          "duration": 0.21406400000000048
        },
        {
          "name": "D4",
          "midi": 62,
          "time": 52.23161600000007,
          "velocity": 0.2125984251968504,
          "duration": 0.42812800000000095
        },
        {
          "name": "G4",
          "midi": 67,
          "time": 52.445680000000074,
          "velocity": 0.3228346456692913,
          "duration": 0.21406400000000048
        },
        {
          "name": "D4",
          "midi": 62,
          "time": 52.873808000000075,
          "velocity": 0.2125984251968504,
          "duration": 0.42812800000000095
        },
        {
          "name": "A4",
          "midi": 69,
          "time": 52.873808000000075,
          "velocity": 0.3779527559055118,
          "duration": 0.21406400000000048
        },
        {
          "name": "G4",
          "midi": 67,
          "time": 53.087872000000075,
          "velocity": 0.31496062992125984,
          "duration": 0.21406400000000048
        },
        {
          "name": "A4",
          "midi": 69,
          "time": 53.516000000000076,
          "velocity": 0.3700787401574803,
          "duration": 0.21406400000000048
        },
        {
          "name": "D4",
          "midi": 62,
          "time": 53.516000000000076,
          "velocity": 0.2125984251968504,
          "duration": 0.42812800000000095
        },
        {
          "name": "G4",
          "midi": 67,
          "time": 53.73006400000008,
          "velocity": 0.31496062992125984,
          "duration": 0.21406400000000048
        },
        {
          "name": "A5",
          "midi": 81,
          "time": 54.265224000000075,
          "velocity": 0.41732283464566927,
          "duration": 0.32109599999999716
        },
        {
          "name": "B5",
          "midi": 83,
          "time": 54.58632000000007,
          "velocity": 0.4409448818897638,
          "duration": 0.32109599999999716
        },
        {
          "name": "C#6",
          "midi": 85,
          "time": 54.90741600000007,
          "velocity": 0.44881889763779526,
          "duration": 0.32109599999999716
        },
        {
          "name": "D6",
          "midi": 86,
          "time": 55.228512000000066,
          "velocity": 0.4645669291338583,
          "duration": 0.32109599999999716
        },
        {
          "name": "E6",
          "midi": 88,
          "time": 55.54960800000006,
          "velocity": 0.48031496062992124,
          "duration": 0.32109599999999716
        },
        {
          "name": "F6",
          "midi": 89,
          "time": 55.87070400000006,
          "velocity": 0.4881889763779528,
          "duration": 0.48164400000000285
        },
        {
          "name": "E6",
          "midi": 88,
          "time": 56.35234800000006,
          "velocity": 0.4330708661417323,
          "duration": 0.08027400000000284
        },
        {
          "name": "F6",
          "midi": 89,
          "time": 56.432622000000066,
          "velocity": 0.4015748031496063,
          "duration": 0.08027400000000284
        },
        {
          "name": "E6",
          "midi": 88,
          "time": 56.51289600000007,
          "velocity": 0.48031496062992124,
          "duration": 0.32109599999999716
        },
        {
          "name": "D6",
          "midi": 86,
          "time": 56.833992000000066,
          "velocity": 0.44881889763779526,
          "duration": 0.32109599999999716
        },
        {
          "name": "C6",
          "midi": 84,
          "time": 57.15508800000006,
          "velocity": 0.4409448818897638,
          "duration": 0.32109599999999716
        },
        {
          "name": "D6",
          "midi": 86,
          "time": 57.47618400000006,
          "velocity": 0.4645669291338583,
          "duration": 0.32109599999999716
        },
        {
          "name": "E6",
          "midi": 88,
          "time": 57.79728000000006,
          "velocity": 0.44881889763779526,
          "duration": 0.32109599999999716
        },
        {
          "name": "F6",
          "midi": 89,
          "time": 58.118376000000055,
          "velocity": 0.4645669291338583,
          "duration": 0.32109599999999716
        },
        {
          "name": "G6",
          "midi": 91,
          "time": 58.43947200000005,
          "velocity": 0.48031496062992124,
          "duration": 0.32109599999999716
        },
        {
          "name": "E6",
          "midi": 88,
          "time": 58.76056800000005,
          "velocity": 0.48031496062992124,
          "duration": 0.32109599999999716
        },
        {
          "name": "F6",
          "midi": 89,
          "time": 59.081664000000046,
          "velocity": 0.4645669291338583,
          "duration": 0.32109599999999716
        },
        {
          "name": "E6",
          "midi": 88,
          "time": 59.40276000000004,
          "velocity": 0.4409448818897638,
          "duration": 0.16054799999999858
        },
        {
          "name": "D6",
          "midi": 86,
          "time": 59.56330800000004,
          "velocity": 0.4330708661417323,
          "duration": 0.08027400000000284
        },
        {
          "name": "E6",
          "midi": 88,
          "time": 59.643582000000045,
          "velocity": 0.4015748031496063,
          "duration": 0.08027400000000284
        },
        {
          "name": "D6",
          "midi": 86,
          "time": 59.72385600000005,
          "velocity": 0.48031496062992124,
          "duration": 0.6421920000000014
        },
        {
          "name": "C6",
          "midi": 84,
          "time": 60.36604800000005,
          "velocity": 0.4409448818897638,
          "duration": 0.6421920000000014
        },
        {
          "name": "A#5",
          "midi": 82,
          "time": 61.00824000000005,
          "velocity": 0.4094488188976378,
          "duration": 0.6421920000000014
        },
        {
          "name": "A5",
          "midi": 81,
          "time": 61.65043200000005,
          "velocity": 0.44881889763779526,
          "duration": 0.32109599999999716
        },
        {
          "name": "B5",
          "midi": 83,
          "time": 61.97152800000005,
          "velocity": 0.4566929133858268,
          "duration": 0.32109599999999716
        },
        {
          "name": "C#6",
          "midi": 85,
          "time": 62.292624000000046,
          "velocity": 0.47244094488188976,
          "duration": 0.32109599999999716
        },
        {
          "name": "D6",
          "midi": 86,
          "time": 62.61372000000004,
          "velocity": 0.48031496062992124,
          "duration": 0.32109599999999716
        },
        {
          "name": "E6",
          "midi": 88,
          "time": 62.93481600000004,
          "velocity": 0.49606299212598426,
          "duration": 0.32109599999999716
        },
        {
          "name": "F6",
          "midi": 89,
          "time": 63.25591200000004,
          "velocity": 0.5039370078740157,
          "duration": 0.32109599999999716
        },
        {
          "name": "G6",
          "midi": 91,
          "time": 63.577008000000035,
          "velocity": 0.5590551181102362,
          "duration": 0.32109599999999716
        },
        {
          "name": "A6",
          "midi": 93,
          "time": 63.89810400000003,
          "velocity": 0.5905511811023622,
          "duration": 0.1605480000000057
        },
        {
          "name": "A#6",
          "midi": 94,
          "time": 64.05865200000004,
          "velocity": 0.5748031496062992,
          "duration": 0.08027400000000284
        },
        {
          "name": "C7",
          "midi": 96,
          "time": 64.13892600000004,
          "velocity": 0.5590551181102362,
          "duration": 0.08027400000000284
        },
        {
          "name": "A#6",
          "midi": 94,
          "time": 64.21920000000004,
          "velocity": 0.6220472440944882,
          "duration": 0.6421919999999943
        },
        {
          "name": "A6",
          "midi": 93,
          "time": 64.86139200000004,
          "velocity": 0.5984251968503937,
          "duration": 0.32109599999999716
        },
        {
          "name": "G6",
          "midi": 91,
          "time": 65.18248800000003,
          "velocity": 0.5826771653543307,
          "duration": 0.32109599999999716
        },
        {
          "name": "A6",
          "midi": 93,
          "time": 65.50358400000003,
          "velocity": 0.6141732283464567,
          "duration": 0.6421919999999943
        },
        {
          "name": "A6",
          "midi": 93,
          "time": 66.14577600000003,
          "velocity": 0.6220472440944882,
          "duration": 0.32109599999999716
        },
        {
          "name": "G6",
          "midi": 91,
          "time": 66.46687200000002,
          "velocity": 0.5984251968503937,
          "duration": 0.32109599999999716
        },
        {
          "name": "A#6",
          "midi": 94,
          "time": 66.78796800000002,
          "velocity": 0.6535433070866141,
          "duration": 0.32109599999999716
        },
        {
          "name": "A6",
          "midi": 93,
          "time": 67.10906400000002,
          "velocity": 0.6141732283464567,
          "duration": 0.1605480000000057
        },
        {
          "name": "F6",
          "midi": 89,
          "time": 67.26961200000002,
          "velocity": 0.5039370078740157,
          "duration": 0.08027400000000284
        },
        {
          "name": "G6",
          "midi": 91,
          "time": 67.34988600000003,
          "velocity": 0.4409448818897638,
          "duration": 0.08027400000000284
        },
        {
          "name": "F6",
          "midi": 89,
          "time": 67.43016000000003,
          "velocity": 0.5669291338582677,
          "duration": 0.32109599999999716
        },
        {
          "name": "D#6",
          "midi": 87,
          "time": 67.75125600000003,
          "velocity": 0.5039370078740157,
          "duration": 0.32109599999999716
        },
        {
          "name": "D6",
          "midi": 86,
          "time": 68.07235200000002,
          "velocity": 0.5433070866141733,
          "duration": 0.32109599999999716
        },
        {
          "name": "E6",
          "midi": 88,
          "time": 68.39344800000002,
          "velocity": 0.48031496062992124,
          "duration": 0.32109599999999716
        },
        {
          "name": "C6",
          "midi": 84,
          "time": 68.71454400000002,
          "velocity": 0.4881889763779528,
          "duration": 0.32109599999999716
        },
        {
          "name": "A#5",
          "midi": 82,
          "time": 69.03564000000001,
          "velocity": 0.4015748031496063,
          "duration": 0.32109599999999716
        },
        {
          "name": "C#4",
          "midi": 61,
          "time": 69.5708,
          "velocity": 0.2283464566929134,
          "duration": 0.42812799999998674
        },
        {
          "name": "A#4",
          "midi": 70,
          "time": 69.5708,
          "velocity": 0.4015748031496063,
          "duration": 0.21406399999999337
        },
        {
          "name": "A4",
          "midi": 69,
          "time": 69.784864,
          "velocity": 0.36220472440944884,
          "duration": 0.21406399999999337
        },
        {
          "name": "A#4",
          "midi": 70,
          "time": 70.21299199999999,
          "velocity": 0.4094488188976378,
          "duration": 0.21406399999999337
        },
        {
          "name": "C#4",
          "midi": 61,
          "time": 70.21299199999999,
          "velocity": 0.2283464566929134,
          "duration": 0.42812799999998674
        },
        {
          "name": "A4",
          "midi": 69,
          "time": 70.42705599999998,
          "velocity": 0.3543307086614173,
          "duration": 0.21406399999999337
        },
        {
          "name": "C#4",
          "midi": 61,
          "time": 70.85518399999997,
          "velocity": 0.2283464566929134,
          "duration": 0.42812799999998674
        },
        {
          "name": "A#4",
          "midi": 70,
          "time": 70.85518399999997,
          "velocity": 0.4015748031496063,
          "duration": 0.21406399999999337
        },
        {
          "name": "A4",
          "midi": 69,
          "time": 71.06924799999996,
          "velocity": 0.3543307086614173,
          "duration": 0.21406399999999337
        },
        {
          "name": "A4",
          "midi": 69,
          "time": 71.49737599999995,
          "velocity": 0.3779527559055118,
          "duration": 0.21406399999999337
        },
        {
          "name": "D4",
          "midi": 62,
          "time": 71.49737599999995,
          "velocity": 0.2125984251968504,
          "duration": 0.42812799999998674
        },
        {
          "name": "G4",
          "midi": 67,
          "time": 71.71143999999994,
          "velocity": 0.3228346456692913,
          "duration": 0.21406399999999337
        },
        {
          "name": "A4",
          "midi": 69,
          "time": 72.13956799999993,
          "velocity": 0.3779527559055118,
          "duration": 0.21406399999999337
        },
        {
          "name": "D4",
          "midi": 62,
          "time": 72.13956799999993,
          "velocity": 0.2125984251968504,
          "duration": 0.42812799999998674
        },
        {
          "name": "G4",
          "midi": 67,
          "time": 72.35363199999992,
          "velocity": 0.31496062992125984,
          "duration": 0.21406399999999337
        },
        {
          "name": "A4",
          "midi": 69,
          "time": 72.7817599999999,
          "velocity": 0.3700787401574803,
          "duration": 0.21406399999999337
        },
        {
          "name": "D4",
          "midi": 62,
          "time": 72.7817599999999,
          "velocity": 0.2125984251968504,
          "duration": 0.42812799999998674
        },
        {
          "name": "G4",
          "midi": 67,
          "time": 72.9958239999999,
          "velocity": 0.31496062992125984,
          "duration": 0.21406399999999337
        },
        {
          "name": "C#4",
          "midi": 61,
          "time": 73.42395199999989,
          "velocity": 0.2283464566929134,
          "duration": 0.42812799999998674
        },
        {
          "name": "A#4",
          "midi": 70,
          "time": 73.42395199999989,
          "velocity": 0.4015748031496063,
          "duration": 0.21406399999999337
        },
        {
          "name": "A4",
          "midi": 69,
          "time": 73.63801599999988,
          "velocity": 0.36220472440944884,
          "duration": 0.21406399999999337
        },
        {
          "name": "A#4",
          "midi": 70,
          "time": 74.06614399999987,
          "velocity": 0.4094488188976378,
          "duration": 0.21406399999999337
        },
        {
          "name": "C#4",
          "midi": 61,
          "time": 74.06614399999987,
          "velocity": 0.2283464566929134,
          "duration": 0.42812799999998674
        },
        {
          "name": "A4",
          "midi": 69,
          "time": 74.28020799999986,
          "velocity": 0.3543307086614173,
          "duration": 0.21406399999999337
        },
        {
          "name": "A#4",
          "midi": 70,
          "time": 74.70833599999985,
          "velocity": 0.4015748031496063,
          "duration": 0.21406399999999337
        },
        {
          "name": "C#4",
          "midi": 61,
          "time": 74.70833599999985,
          "velocity": 0.2283464566929134,
          "duration": 0.42812799999998674
        },
        {
          "name": "A4",
          "midi": 69,
          "time": 74.92239999999984,
          "velocity": 0.3543307086614173,
          "duration": 0.21406399999999337
        },
        {
          "name": "A#4",
          "midi": 70,
          "time": 75.35052799999983,
          "velocity": 0.3779527559055118,
          "duration": 0.21406399999999337
        },
        {
          "name": "D4",
          "midi": 62,
          "time": 75.35052799999983,
          "velocity": 0.2125984251968504,
          "duration": 0.42812799999998674
        },
        {
          "name": "A4",
          "midi": 69,
          "time": 75.56459199999982,
          "velocity": 0.3228346456692913,
          "duration": 0.21406399999999337
        },
        {
          "name": "D4",
          "midi": 62,
          "time": 75.9927199999998,
          "velocity": 0.2125984251968504,
          "duration": 0.42812799999998674
        },
        {
          "name": "A4",
          "midi": 69,
          "time": 75.9927199999998,
          "velocity": 0.3779527559055118,
          "duration": 0.21406399999999337
        },
        {
          "name": "G4",
          "midi": 67,
          "time": 76.2067839999998,
          "velocity": 0.31496062992125984,
          "duration": 0.21406399999999337
        },
        {
          "name": "G4",
          "midi": 67,
          "time": 76.63491199999979,
          "velocity": 0.3700787401574803,
          "duration": 0.21406399999999337
        },
        {
          "name": "D4",
          "midi": 62,
          "time": 76.63491199999979,
          "velocity": 0.2125984251968504,
          "duration": 0.42812799999998674
        },
        {
          "name": "E4",
          "midi": 64,
          "time": 76.84897599999978,
          "velocity": 0.31496062992125984,
          "duration": 0.21406399999999337
        },
        {
          "name": "C#4",
          "midi": 61,
          "time": 77.27710399999977,
          "velocity": 0.23622047244094488,
          "duration": 0.42812799999998674
        },
        {
          "name": "A#4",
          "midi": 70,
          "time": 77.27710399999977,
          "velocity": 0.41732283464566927,
          "duration": 0.21406399999999337
        },
        {
          "name": "A4",
          "midi": 69,
          "time": 77.49116799999976,
          "velocity": 0.3779527559055118,
          "duration": 0.21406399999999337
        },
        {
          "name": "A#4",
          "midi": 70,
          "time": 77.91929599999975,
          "velocity": 0.4330708661417323,
          "duration": 0.21406399999999337
        },
        {
          "name": "C#4",
          "midi": 61,
          "time": 77.91929599999975,
          "velocity": 0.2440944881889764,
          "duration": 0.42812799999998674
        },
        {
          "name": "A4",
          "midi": 69,
          "time": 78.13335999999974,
          "velocity": 0.3779527559055118,
          "duration": 0.21406399999999337
        },
        {
          "name": "C#4",
          "midi": 61,
          "time": 78.56148799999973,
          "velocity": 0.2440944881889764,
          "duration": 0.42812799999998674
        },
        {
          "name": "A#4",
          "midi": 70,
          "time": 78.56148799999973,
          "velocity": 0.4409448818897638,
          "duration": 0.21406399999999337
        },
        {
          "name": "A4",
          "midi": 69,
          "time": 78.77555199999972,
          "velocity": 0.3858267716535433,
          "duration": 0.21406399999999337
        },
        {
          "name": "G4",
          "midi": 67,
          "time": 79.20367999999971,
          "velocity": 0.41732283464566927,
          "duration": 0.21406399999999337
        },
        {
          "name": "A3",
          "midi": 57,
          "time": 79.20367999999971,
          "velocity": 0.23622047244094488,
          "duration": 0.42812799999998674
        },
        {
          "name": "F4",
          "midi": 65,
          "time": 79.4177439999997,
          "velocity": 0.36220472440944884,
          "duration": 0.21406399999999337
        },
        {
          "name": "G4",
          "midi": 67,
          "time": 79.84587199999969,
          "velocity": 0.4251968503937008,
          "duration": 0.21406399999999337
        },
        {
          "name": "A3",
          "midi": 57,
          "time": 79.84587199999969,
          "velocity": 0.23622047244094488,
          "duration": 0.42812799999998674
        },
        {
          "name": "F4",
          "midi": 65,
          "time": 80.05993599999968,
          "velocity": 0.36220472440944884,
          "duration": 0.21406399999999337
        },
        {
          "name": "G4",
          "midi": 67,
          "time": 80.48806399999967,
          "velocity": 0.4251968503937008,
          "duration": 0.21406399999999337
        },
        {
          "name": "A3",
          "midi": 57,
          "time": 80.48806399999967,
          "velocity": 0.2440944881889764,
          "duration": 0.42812799999998674
        },
        {
          "name": "F4",
          "midi": 65,
          "time": 80.70212799999966,
          "velocity": 0.36220472440944884,
          "duration": 0.21406399999999337
        },
        {
          "name": "C4",
          "midi": 60,
          "time": 81.13025599999965,
          "velocity": 0.25196850393700787,
          "duration": 0.42812799999998674
        },
        {
          "name": "F4",
          "midi": 65,
          "time": 81.13025599999965,
          "velocity": 0.44881889763779526,
          "duration": 0.21406399999999337
        },
        {
          "name": "E4",
          "midi": 64,
          "time": 81.34431999999964,
          "velocity": 0.3779527559055118,
          "duration": 0.21406399999999337
        },
        {
          "name": "C4",
          "midi": 60,
          "time": 81.77244799999963,
          "velocity": 0.25196850393700787,
          "duration": 0.42812799999998674
        },
        {
          "name": "F4",
          "midi": 65,
          "time": 81.77244799999963,
          "velocity": 0.4566929133858268,
          "duration": 0.21406399999999337
        },
        {
          "name": "E4",
          "midi": 64,
          "time": 81.98651199999962,
          "velocity": 0.3779527559055118,
          "duration": 0.21406399999999337
        },
        {
          "name": "C4",
          "midi": 60,
          "time": 82.41463999999961,
          "velocity": 0.25984251968503935,
          "duration": 0.42812799999998674
        },
        {
          "name": "F4",
          "midi": 65,
          "time": 82.41463999999961,
          "velocity": 0.44881889763779526,
          "duration": 0.21406399999999337
        },
        {
          "name": "E4",
          "midi": 64,
          "time": 82.6287039999996,
          "velocity": 0.3858267716535433,
          "duration": 0.21406399999999337
        },
        {
          "name": "E4",
          "midi": 64,
          "time": 83.05683199999959,
          "velocity": 0.4251968503937008,
          "duration": 0.21406399999999337
        },
        {
          "name": "A#3",
          "midi": 58,
          "time": 83.05683199999959,
          "velocity": 0.23622047244094488,
          "duration": 0.42812799999998674
        },
        {
          "name": "D4",
          "midi": 62,
          "time": 83.27089599999958,
          "velocity": 0.3543307086614173,
          "duration": 0.21406399999999337
        },
        {
          "name": "A#3",
          "midi": 58,
          "time": 83.69902399999957,
          "velocity": 0.2283464566929134,
          "duration": 0.42812799999998674
        },
        {
          "name": "E4",
          "midi": 64,
          "time": 83.69902399999957,
          "velocity": 0.4094488188976378,
          "duration": 0.21406399999999337
        },
        {
          "name": "D4",
          "midi": 62,
          "time": 83.91308799999956,
          "velocity": 0.33070866141732286,
          "duration": 0.21406399999999337
        },
        {
          "name": "A#3",
          "midi": 58,
          "time": 84.34121599999955,
          "velocity": 0.2204724409448819,
          "duration": 0.42812799999998674
        },
        {
          "name": "E4",
          "midi": 64,
          "time": 84.34121599999955,
          "velocity": 0.3779527559055118,
          "duration": 0.21406399999999337
        },
        {
          "name": "D4",
          "midi": 62,
          "time": 84.55527999999954,
          "velocity": 0.31496062992125984,
          "duration": 0.21406399999999337
        },
        {
          "name": "E4",
          "midi": 64,
          "time": 86.05372799999954,
          "velocity": 0.4015748031496063,
          "duration": 0.6421919999999943
        },
        {
          "name": "C#4",
          "midi": 61,
          "time": 86.05372799999954,
          "velocity": 0.4015748031496063,
          "duration": 0.6421919999999943
        },
        {
          "name": "A#3",
          "midi": 58,
          "time": 87.33811199999953,
          "velocity": 0.4015748031496063,
          "duration": 0.32109599999999716
        },
        {
          "name": "E4",
          "midi": 64,
          "time": 87.33811199999953,
          "velocity": 0.4015748031496063,
          "duration": 0.32109599999999716
        },
        {
          "name": "D4",
          "midi": 62,
          "time": 87.33811199999953,
          "velocity": 0.4015748031496063,
          "duration": 0.32109599999999716
        },
        {
          "name": "C#4",
          "midi": 61,
          "time": 89.90687999999952,
          "velocity": 0.4015748031496063,
          "duration": 0.6421919999999943
        },
        {
          "name": "E4",
          "midi": 64,
          "time": 89.90687999999952,
          "velocity": 0.4015748031496063,
          "duration": 0.6421919999999943
        },
        {
          "name": "A#3",
          "midi": 58,
          "time": 91.1912639999995,
          "velocity": 0.3543307086614173,
          "duration": 0.32109599999999716
        },
        {
          "name": "E4",
          "midi": 64,
          "time": 91.1912639999995,
          "velocity": 0.3543307086614173,
          "duration": 0.32109599999999716
        },
        {
          "name": "D4",
          "midi": 62,
          "time": 91.1912639999995,
          "velocity": 0.3543307086614173,
          "duration": 0.32109599999999716
        },
        {
          "name": "A#4",
          "midi": 70,
          "time": 92.47564799999951,
          "velocity": 0.3858267716535433,
          "duration": 1.9265759999999972
        },
        {
          "name": "E5",
          "midi": 76,
          "time": 92.47564799999951,
          "velocity": 0.3858267716535433,
          "duration": 1.9265759999999972
        },
        {
          "name": "A#5",
          "midi": 82,
          "time": 94.4022239999995,
          "velocity": 0.4330708661417323,
          "duration": 2.2476719999999943
        },
        {
          "name": "C6",
          "midi": 84,
          "time": 96.6498959999995,
          "velocity": 0.4015748031496063,
          "duration": 0.32109599999999716
        },
        {
          "name": "D6",
          "midi": 86,
          "time": 96.9709919999995,
          "velocity": 0.4330708661417323,
          "duration": 0.32109599999999716
        },
        {
          "name": "F6",
          "midi": 89,
          "time": 97.2920879999995,
          "velocity": 0.3700787401574803,
          "duration": 0.32109599999999716
        },
        {
          "name": "D6",
          "midi": 86,
          "time": 97.61318399999949,
          "velocity": 0.4409448818897638,
          "duration": 0.32109599999999716
        },
        {
          "name": "C6",
          "midi": 84,
          "time": 97.93427999999949,
          "velocity": 0.41732283464566927,
          "duration": 0.1605480000000057
        },
        {
          "name": "C6",
          "midi": 84,
          "time": 98.0948279999995,
          "velocity": 0.3228346456692913,
          "duration": 0.08027400000000284
        },
        {
          "name": "D6",
          "midi": 86,
          "time": 98.1751019999995,
          "velocity": 0.33070866141732286,
          "duration": 0.08027400000000284
        },
        {
          "name": "C6",
          "midi": 84,
          "time": 98.2553759999995,
          "velocity": 0.3543307086614173,
          "duration": 0.32109599999999716
        },
        {
          "name": "A#5",
          "midi": 82,
          "time": 98.5764719999995,
          "velocity": 0.3779527559055118,
          "duration": 0.32109599999999716
        },
        {
          "name": "F5",
          "midi": 77,
          "time": 98.8975679999995,
          "velocity": 0.3779527559055118,
          "duration": 0.32109599999999716
        },
        {
          "name": "A#5",
          "midi": 82,
          "time": 99.21866399999949,
          "velocity": 0.33858267716535434,
          "duration": 0.32109599999999716
        },
        {
          "name": "A5",
          "midi": 81,
          "time": 99.53975999999949,
          "velocity": 0.3700787401574803,
          "duration": 1.2843840000000029
        },
        {
          "name": "G#5",
          "midi": 80,
          "time": 100.82414399999949,
          "velocity": 0.3700787401574803,
          "duration": 0.32109599999999716
        },
        {
          "name": "F5",
          "midi": 77,
          "time": 101.14523999999949,
          "velocity": 0.33858267716535434,
          "duration": 0.32109599999999716
        },
        {
          "name": "E5",
          "midi": 76,
          "time": 101.46633599999949,
          "velocity": 0.3543307086614173,
          "duration": 0.32109599999999716
        },
        {
          "name": "D5",
          "midi": 74,
          "time": 101.78743199999948,
          "velocity": 0.33070866141732286,
          "duration": 0.32109599999999716
        },
        {
          "name": "A3",
          "midi": 57,
          "time": 102.42962399999948,
          "velocity": 0.31496062992125984,
          "duration": 0.32109599999999716
        },
        {
          "name": "C#4",
          "midi": 61,
          "time": 102.75071999999948,
          "velocity": 0.3228346456692913,
          "duration": 0.32109599999999716
        },
        {
          "name": "E4",
          "midi": 64,
          "time": 103.07181599999947,
          "velocity": 0.3464566929133858,
          "duration": 0.32109599999999716
        },
        {
          "name": "A4",
          "midi": 69,
          "time": 103.39291199999947,
          "velocity": 0.36220472440944884,
          "duration": 0.32109599999999716
        },
        {
          "name": "C#5",
          "midi": 73,
          "time": 103.71400799999947,
          "velocity": 0.3700787401574803,
          "duration": 0.32109599999999716
        },
        {
          "name": "E5",
          "midi": 76,
          "time": 104.03510399999946,
          "velocity": 0.3937007874015748,
          "duration": 0.32109599999999716
        },
        {
          "name": "A4",
          "midi": 69,
          "time": 104.35619999999946,
          "velocity": 0.31496062992125984,
          "duration": 0.32109599999999716
        },
        {
          "name": "C#5",
          "midi": 73,
          "time": 104.67729599999946,
          "velocity": 0.3228346456692913,
          "duration": 0.32109599999999716
        },
        {
          "name": "E5",
          "midi": 76,
          "time": 104.99839199999946,
          "velocity": 0.3464566929133858,
          "duration": 0.32109599999999716
        },
        {
          "name": "A5",
          "midi": 81,
          "time": 105.31948799999945,
          "velocity": 0.36220472440944884,
          "duration": 0.32109599999999716
        },
        {
          "name": "C#6",
          "midi": 85,
          "time": 105.64058399999945,
          "velocity": 0.3700787401574803,
          "duration": 0.32109599999999716
        },
        {
          "name": "E6",
          "midi": 88,
          "time": 105.96167999999945,
          "velocity": 0.4015748031496063,
          "duration": 0.32109599999999716
        },
        {
          "name": "A4",
          "midi": 69,
          "time": 106.28277599999944,
          "velocity": 0.31496062992125984,
          "duration": 0.32109599999999716
        },
        {
          "name": "C#5",
          "midi": 73,
          "time": 106.60387199999944,
          "velocity": 0.3228346456692913,
          "duration": 0.32109599999999716
        },
        {
          "name": "E5",
          "midi": 76,
          "time": 106.92496799999944,
          "velocity": 0.3464566929133858,
          "duration": 0.32109599999999716
        },
        {
          "name": "A5",
          "midi": 81,
          "time": 107.24606399999944,
          "velocity": 0.36220472440944884,
          "duration": 0.32109599999999716
        },
        {
          "name": "C#6",
          "midi": 85,
          "time": 107.56715999999943,
          "velocity": 0.3700787401574803,
          "duration": 0.32109599999999716
        },
        {
          "name": "E6",
          "midi": 88,
          "time": 107.88825599999943,
          "velocity": 0.3858267716535433,
          "duration": 0.32109599999999716
        },
        {
          "name": "A5",
          "midi": 81,
          "time": 108.20935199999943,
          "velocity": 0.36220472440944884,
          "duration": 0.32109599999999716
        },
        {
          "name": "C#6",
          "midi": 85,
          "time": 108.53044799999942,
          "velocity": 0.3464566929133858,
          "duration": 0.32109599999999716
        },
        {
          "name": "E6",
          "midi": 88,
          "time": 108.85154399999942,
          "velocity": 0.33070866141732286,
          "duration": 0.32109599999999716
        },
        {
          "name": "A6",
          "midi": 93,
          "time": 109.17263999999942,
          "velocity": 0.31496062992125984,
          "duration": 0.32109599999999716
        },
        {
          "name": "C#7",
          "midi": 97,
          "time": 109.49373599999942,
          "velocity": 0.2992125984251969,
          "duration": 0.32109599999999716
        },
        {
          "name": "E7",
          "midi": 100,
          "time": 109.81483199999941,
          "velocity": 0.28346456692913385,
          "duration": 1.9265759999999972
        },
        {
          "name": "A6",
          "midi": 93,
          "time": 109.81483199999941,
          "velocity": 0.28346456692913385,
          "duration": 1.9265759999999972
        },
        {
          "name": "A7",
          "midi": 105,
          "time": 109.81483199999941,
          "velocity": 0.28346456692913385,
          "duration": 1.9265759999999972
        }
      ],
      "controlChanges": {
        "7": [
          {
            "number": 7,
            "time": 0,
            "value": 0.7874015748031497
          }
        ],
        "64": [
          {
            "number": 64,
            "time": 0,
            "value": 0
          }
        ],
        "91": [
          {
            "number": 91,
            "time": 0,
            "value": 1
          }
        ]
      },
      "id": 1,
      "name": "Piano right",
      "instrumentNumber": 0,
      "instrument": "acoustic grand piano",
      "instrumentFamily": "piano",
      "channelNumber": 0,
      "isPercussion": false
    },
    {
      "startTime": 0.321096,
      "duration": 111.7414079999997,
      "length": 267,
      "notes": [
        {
          "name": "A3",
          "midi": 57,
          "time": 0.321096,
          "velocity": 0.3779527559055118,
          "duration": 0.321096
        },
        {
          "name": "E4",
          "midi": 64,
          "time": 0.642192,
          "velocity": 0.4094488188976378,
          "duration": 2.0871239999999998
        },
        {
          "name": "D4",
          "midi": 62,
          "time": 2.729316,
          "velocity": 0.33070866141732286,
          "duration": 0.08027400000000018
        },
        {
          "name": "E4",
          "midi": 64,
          "time": 2.80959,
          "velocity": 0.33070866141732286,
          "duration": 0.08027399999999973
        },
        {
          "name": "D4",
          "midi": 62,
          "time": 2.8898639999999998,
          "velocity": 0.3858267716535433,
          "duration": 0.3210959999999998
        },
        {
          "name": "C4",
          "midi": 60,
          "time": 3.2109599999999996,
          "velocity": 0.3543307086614173,
          "duration": 0.32109600000000027
        },
        {
          "name": "D4",
          "midi": 62,
          "time": 3.532056,
          "velocity": 0.3543307086614173,
          "duration": 0.3210959999999998
        },
        {
          "name": "E4",
          "midi": 64,
          "time": 3.8531519999999997,
          "velocity": 0.3858267716535433,
          "duration": 0.3210959999999998
        },
        {
          "name": "F4",
          "midi": 65,
          "time": 4.1742479999999995,
          "velocity": 0.4015748031496063,
          "duration": 0.3210959999999998
        },
        {
          "name": "G4",
          "midi": 67,
          "time": 4.495343999999999,
          "velocity": 0.41732283464566927,
          "duration": 0.3210959999999998
        },
        {
          "name": "E4",
          "midi": 64,
          "time": 4.816439999999999,
          "velocity": 0.4094488188976378,
          "duration": 0.3210959999999998
        },
        {
          "name": "F4",
          "midi": 65,
          "time": 5.137535999999999,
          "velocity": 0.4015748031496063,
          "duration": 0.3210959999999998
        },
        {
          "name": "E4",
          "midi": 64,
          "time": 5.458631999999999,
          "velocity": 0.3779527559055118,
          "duration": 0.16054800000000036
        },
        {
          "name": "D4",
          "midi": 62,
          "time": 5.619179999999999,
          "velocity": 0.3858267716535433,
          "duration": 0.08027400000000018
        },
        {
          "name": "E4",
          "midi": 64,
          "time": 5.699453999999999,
          "velocity": 0.3779527559055118,
          "duration": 0.08027400000000018
        },
        {
          "name": "D4",
          "midi": 62,
          "time": 5.7797279999999995,
          "velocity": 0.41732283464566927,
          "duration": 0.6421920000000005
        },
        {
          "name": "C4",
          "midi": 60,
          "time": 6.42192,
          "velocity": 0.3779527559055118,
          "duration": 0.6421919999999997
        },
        {
          "name": "A#3",
          "midi": 58,
          "time": 7.064112,
          "velocity": 0.3779527559055118,
          "duration": 0.6421919999999997
        },
        {
          "name": "A2",
          "midi": 45,
          "time": 7.706303999999999,
          "velocity": 0.33070866141732286,
          "duration": 0.3210960000000007
        },
        {
          "name": "E3",
          "midi": 52,
          "time": 8.0274,
          "velocity": 0.30708661417322836,
          "duration": 0.3210960000000007
        },
        {
          "name": "A3",
          "midi": 57,
          "time": 8.348496,
          "velocity": 0.30708661417322836,
          "duration": 0.3210960000000007
        },
        {
          "name": "C#4",
          "midi": 61,
          "time": 8.669592000000002,
          "velocity": 0.31496062992125984,
          "duration": 0.3210960000000007
        },
        {
          "name": "E4",
          "midi": 64,
          "time": 8.990688000000002,
          "velocity": 0.33858267716535434,
          "duration": 0.3210960000000007
        },
        {
          "name": "A4",
          "midi": 69,
          "time": 9.311784000000003,
          "velocity": 0.3464566929133858,
          "duration": 0.3210960000000007
        },
        {
          "name": "C#5",
          "midi": 73,
          "time": 9.632880000000004,
          "velocity": 0.3779527559055118,
          "duration": 0.3210960000000007
        },
        {
          "name": "C#4",
          "midi": 61,
          "time": 9.953976000000004,
          "velocity": 0.30708661417322836,
          "duration": 0.3210960000000007
        },
        {
          "name": "E4",
          "midi": 64,
          "time": 10.275072000000005,
          "velocity": 0.30708661417322836,
          "duration": 0.3210960000000007
        },
        {
          "name": "A4",
          "midi": 69,
          "time": 10.596168000000006,
          "velocity": 0.31496062992125984,
          "duration": 0.3210960000000007
        },
        {
          "name": "C#5",
          "midi": 73,
          "time": 10.917264000000007,
          "velocity": 0.33858267716535434,
          "duration": 0.3210960000000007
        },
        {
          "name": "E5",
          "midi": 76,
          "time": 11.238360000000007,
          "velocity": 0.3464566929133858,
          "duration": 0.3210960000000007
        },
        {
          "name": "A5",
          "midi": 81,
          "time": 11.559456000000008,
          "velocity": 0.3858267716535433,
          "duration": 0.3210960000000007
        },
        {
          "name": "E5",
          "midi": 76,
          "time": 11.880552000000009,
          "velocity": 0.33858267716535434,
          "duration": 0.3210960000000007
        },
        {
          "name": "C#5",
          "midi": 73,
          "time": 12.20164800000001,
          "velocity": 0.33858267716535434,
          "duration": 0.3210960000000007
        },
        {
          "name": "A4",
          "midi": 69,
          "time": 12.52274400000001,
          "velocity": 0.33070866141732286,
          "duration": 0.3210960000000007
        },
        {
          "name": "E4",
          "midi": 64,
          "time": 12.84384000000001,
          "velocity": 0.31496062992125984,
          "duration": 0.3210960000000007
        },
        {
          "name": "C#4",
          "midi": 61,
          "time": 13.164936000000012,
          "velocity": 0.31496062992125984,
          "duration": 0.3210960000000007
        },
        {
          "name": "A4",
          "midi": 69,
          "time": 13.486032000000012,
          "velocity": 0.28346456692913385,
          "duration": 0.3210960000000007
        },
        {
          "name": "E4",
          "midi": 64,
          "time": 13.807128000000013,
          "velocity": 0.2755905511811024,
          "duration": 0.3210960000000007
        },
        {
          "name": "C#4",
          "midi": 61,
          "time": 14.128224000000014,
          "velocity": 0.2677165354330709,
          "duration": 0.3210960000000007
        },
        {
          "name": "A3",
          "midi": 57,
          "time": 14.449320000000014,
          "velocity": 0.25196850393700787,
          "duration": 0.3210960000000007
        },
        {
          "name": "E3",
          "midi": 52,
          "time": 14.770416000000015,
          "velocity": 0.23622047244094488,
          "duration": 0.3210960000000007
        },
        {
          "name": "C#3",
          "midi": 49,
          "time": 15.091512000000016,
          "velocity": 0.23622047244094488,
          "duration": 0.3210960000000007
        },
        {
          "name": "A2",
          "midi": 45,
          "time": 15.412608000000017,
          "velocity": 0.30708661417322836,
          "duration": 0.32109599999999894
        },
        {
          "name": "A3",
          "midi": 57,
          "time": 15.733704000000015,
          "velocity": 0.31496062992125984,
          "duration": 0.32109599999999894
        },
        {
          "name": "E4",
          "midi": 64,
          "time": 16.054800000000014,
          "velocity": 0.3464566929133858,
          "duration": 2.0871239999999993
        },
        {
          "name": "D4",
          "midi": 62,
          "time": 18.141924000000014,
          "velocity": 0.30708661417322836,
          "duration": 0.08027399999999929
        },
        {
          "name": "E4",
          "midi": 64,
          "time": 18.222198000000013,
          "velocity": 0.2755905511811024,
          "duration": 0.08027399999999929
        },
        {
          "name": "D4",
          "midi": 62,
          "time": 18.302472000000012,
          "velocity": 0.3228346456692913,
          "duration": 0.3210960000000007
        },
        {
          "name": "C4",
          "midi": 60,
          "time": 18.623568000000013,
          "velocity": 0.2992125984251969,
          "duration": 0.3210960000000007
        },
        {
          "name": "D4",
          "midi": 62,
          "time": 18.944664000000014,
          "velocity": 0.2992125984251969,
          "duration": 0.3210960000000007
        },
        {
          "name": "E4",
          "midi": 64,
          "time": 19.265760000000014,
          "velocity": 0.3228346456692913,
          "duration": 0.3210960000000007
        },
        {
          "name": "F4",
          "midi": 65,
          "time": 19.586856000000015,
          "velocity": 0.33858267716535434,
          "duration": 0.3210960000000007
        },
        {
          "name": "G4",
          "midi": 67,
          "time": 19.907952000000016,
          "velocity": 0.3543307086614173,
          "duration": 0.32109599999999716
        },
        {
          "name": "E4",
          "midi": 64,
          "time": 20.229048000000013,
          "velocity": 0.3464566929133858,
          "duration": 0.3210960000000007
        },
        {
          "name": "F4",
          "midi": 65,
          "time": 20.550144000000014,
          "velocity": 0.33858267716535434,
          "duration": 0.3210960000000007
        },
        {
          "name": "E4",
          "midi": 64,
          "time": 20.871240000000014,
          "velocity": 0.31496062992125984,
          "duration": 0.16054799999999858
        },
        {
          "name": "D4",
          "midi": 62,
          "time": 21.031788000000013,
          "velocity": 0.31496062992125984,
          "duration": 0.08027399999999929
        },
        {
          "name": "E4",
          "midi": 64,
          "time": 21.112062000000012,
          "velocity": 0.29133858267716534,
          "duration": 0.08027399999999929
        },
        {
          "name": "D4",
          "midi": 62,
          "time": 21.19233600000001,
          "velocity": 0.3543307086614173,
          "duration": 0.6421919999999979
        },
        {
          "name": "C4",
          "midi": 60,
          "time": 21.83452800000001,
          "velocity": 0.31496062992125984,
          "duration": 0.6421920000000014
        },
        {
          "name": "A#3",
          "midi": 58,
          "time": 22.47672000000001,
          "velocity": 0.2992125984251969,
          "duration": 0.6421920000000014
        },
        {
          "name": "A3",
          "midi": 57,
          "time": 23.118912000000012,
          "velocity": 0.25196850393700787,
          "duration": 0.3210960000000007
        },
        {
          "name": "A#3",
          "midi": 58,
          "time": 23.440008000000013,
          "velocity": 0.2677165354330709,
          "duration": 0.3210960000000007
        },
        {
          "name": "C4",
          "midi": 60,
          "time": 23.761104000000014,
          "velocity": 0.28346456692913385,
          "duration": 0.3210960000000007
        },
        {
          "name": "D4",
          "midi": 62,
          "time": 24.082200000000014,
          "velocity": 0.29133858267716534,
          "duration": 0.32109599999999716
        },
        {
          "name": "F4",
          "midi": 65,
          "time": 24.40329600000001,
          "velocity": 0.30708661417322836,
          "duration": 0.4816439999999993
        },
        {
          "name": "D4",
          "midi": 62,
          "time": 24.88494000000001,
          "velocity": 0.31496062992125984,
          "duration": 0.08027399999999929
        },
        {
          "name": "E4",
          "midi": 64,
          "time": 24.96521400000001,
          "velocity": 0.29133858267716534,
          "duration": 0.08027399999999929
        },
        {
          "name": "D4",
          "midi": 62,
          "time": 25.04548800000001,
          "velocity": 0.3543307086614173,
          "duration": 0.6421920000000014
        },
        {
          "name": "C4",
          "midi": 60,
          "time": 25.68768000000001,
          "velocity": 0.31496062992125984,
          "duration": 0.6421920000000014
        },
        {
          "name": "A#3",
          "midi": 58,
          "time": 26.329872000000012,
          "velocity": 0.31496062992125984,
          "duration": 0.6421920000000014
        },
        {
          "name": "A3",
          "midi": 57,
          "time": 26.972064000000014,
          "velocity": 0.25196850393700787,
          "duration": 0.3210960000000007
        },
        {
          "name": "A#3",
          "midi": 58,
          "time": 27.293160000000015,
          "velocity": 0.25984251968503935,
          "duration": 0.3210960000000007
        },
        {
          "name": "C4",
          "midi": 60,
          "time": 27.614256000000015,
          "velocity": 0.2755905511811024,
          "duration": 0.3210960000000007
        },
        {
          "name": "D4",
          "midi": 62,
          "time": 27.935352000000016,
          "velocity": 0.29133858267716534,
          "duration": 0.3210960000000007
        },
        {
          "name": "E4",
          "midi": 64,
          "time": 28.256448000000017,
          "velocity": 0.30708661417322836,
          "duration": 0.32109599999999716
        },
        {
          "name": "G4",
          "midi": 67,
          "time": 28.577544000000014,
          "velocity": 0.31496062992125984,
          "duration": 0.32109599999999716
        },
        {
          "name": "F4",
          "midi": 65,
          "time": 28.89864000000001,
          "velocity": 0.33858267716535434,
          "duration": 0.16054799999999858
        },
        {
          "name": "D4",
          "midi": 62,
          "time": 29.05918800000001,
          "velocity": 0.2677165354330709,
          "duration": 0.08027399999999929
        },
        {
          "name": "E4",
          "midi": 64,
          "time": 29.13946200000001,
          "velocity": 0.25196850393700787,
          "duration": 0.08027399999999929
        },
        {
          "name": "D4",
          "midi": 62,
          "time": 29.219736000000008,
          "velocity": 0.29133858267716534,
          "duration": 0.3210960000000007
        },
        {
          "name": "C4",
          "midi": 60,
          "time": 29.54083200000001,
          "velocity": 0.29133858267716534,
          "duration": 0.3210960000000007
        },
        {
          "name": "A#3",
          "midi": 58,
          "time": 29.86192800000001,
          "velocity": 0.25984251968503935,
          "duration": 0.32109599999999716
        },
        {
          "name": "D4",
          "midi": 62,
          "time": 30.183024000000007,
          "velocity": 0.28346456692913385,
          "duration": 0.3210960000000007
        },
        {
          "name": "C#4",
          "midi": 61,
          "time": 30.504120000000007,
          "velocity": 0.25984251968503935,
          "duration": 0.3210960000000007
        },
        {
          "name": "A2",
          "midi": 45,
          "time": 30.825216000000008,
          "velocity": 0.5275590551181102,
          "duration": 0.6421920000000014
        },
        {
          "name": "E3",
          "midi": 52,
          "time": 31.46740800000001,
          "velocity": 0.4330708661417323,
          "duration": 0.6421919999999979
        },
        {
          "name": "A3",
          "midi": 57,
          "time": 32.10960000000001,
          "velocity": 0.4330708661417323,
          "duration": 0.6421920000000014
        },
        {
          "name": "A2",
          "midi": 45,
          "time": 32.75179200000001,
          "velocity": 0.5354330708661418,
          "duration": 0.6421920000000014
        },
        {
          "name": "E3",
          "midi": 52,
          "time": 33.39398400000001,
          "velocity": 0.4330708661417323,
          "duration": 0.6421920000000014
        },
        {
          "name": "A#3",
          "midi": 58,
          "time": 34.03617600000001,
          "velocity": 0.4330708661417323,
          "duration": 0.6421919999999943
        },
        {
          "name": "A2",
          "midi": 45,
          "time": 34.678368000000006,
          "velocity": 0.5118110236220472,
          "duration": 0.6421919999999943
        },
        {
          "name": "E3",
          "midi": 52,
          "time": 35.32056,
          "velocity": 0.4094488188976378,
          "duration": 0.6421920000000014
        },
        {
          "name": "A3",
          "midi": 57,
          "time": 35.962752,
          "velocity": 0.4094488188976378,
          "duration": 0.6421920000000014
        },
        {
          "name": "A2",
          "midi": 45,
          "time": 36.604944,
          "velocity": 0.5039370078740157,
          "duration": 0.6421920000000014
        },
        {
          "name": "E3",
          "midi": 52,
          "time": 37.247136000000005,
          "velocity": 0.4330708661417323,
          "duration": 0.6421920000000014
        },
        {
          "name": "A#3",
          "midi": 58,
          "time": 37.889328000000006,
          "velocity": 0.4251968503937008,
          "duration": 0.6421919999999943
        },
        {
          "name": "A2",
          "midi": 45,
          "time": 38.53152,
          "velocity": 0.5433070866141733,
          "duration": 0.6421919999999943
        },
        {
          "name": "E3",
          "midi": 52,
          "time": 39.173711999999995,
          "velocity": 0.44881889763779526,
          "duration": 0.6421920000000014
        },
        {
          "name": "A3",
          "midi": 57,
          "time": 39.815903999999996,
          "velocity": 0.4566929133858268,
          "duration": 0.6421920000000014
        },
        {
          "name": "F2",
          "midi": 41,
          "time": 40.458096,
          "velocity": 0.5196850393700787,
          "duration": 0.6421920000000014
        },
        {
          "name": "C3",
          "midi": 48,
          "time": 41.100288,
          "velocity": 0.4015748031496063,
          "duration": 0.6421920000000014
        },
        {
          "name": "A3",
          "midi": 57,
          "time": 41.74248,
          "velocity": 0.5433070866141733,
          "duration": 0.6421919999999943
        },
        {
          "name": "C3",
          "midi": 48,
          "time": 42.384671999999995,
          "velocity": 0.5826771653543307,
          "duration": 0.6421920000000014
        },
        {
          "name": "G3",
          "midi": 55,
          "time": 43.026863999999996,
          "velocity": 0.5748031496062992,
          "duration": 0.6421920000000014
        },
        {
          "name": "C4",
          "midi": 60,
          "time": 43.669056,
          "velocity": 0.5433070866141733,
          "duration": 0.6421919999999943
        },
        {
          "name": "G3",
          "midi": 55,
          "time": 44.31124799999999,
          "velocity": 0.5196850393700787,
          "duration": 0.1605480000000057
        },
        {
          "name": "A3",
          "midi": 57,
          "time": 44.95344,
          "velocity": 0.4645669291338583,
          "duration": 0.16054799999999858
        },
        {
          "name": "C4",
          "midi": 60,
          "time": 45.515358,
          "velocity": 0.4330708661417323,
          "duration": 0.08027400000000284
        },
        {
          "name": "A#3",
          "midi": 58,
          "time": 45.595632,
          "velocity": 0.41732283464566927,
          "duration": 0.16054799999999858
        },
        {
          "name": "A2",
          "midi": 45,
          "time": 46.237823999999996,
          "velocity": 0.5039370078740157,
          "duration": 0.6421919999999943
        },
        {
          "name": "E3",
          "midi": 52,
          "time": 46.88001599999999,
          "velocity": 0.4330708661417323,
          "duration": 0.6421920000000014
        },
        {
          "name": "A3",
          "midi": 57,
          "time": 47.52220799999999,
          "velocity": 0.4330708661417323,
          "duration": 0.6421920000000014
        },
        {
          "name": "A2",
          "midi": 45,
          "time": 48.16439999999999,
          "velocity": 0.5118110236220472,
          "duration": 0.6421920000000014
        },
        {
          "name": "E3",
          "midi": 52,
          "time": 48.806591999999995,
          "velocity": 0.4330708661417323,
          "duration": 0.6421920000000014
        },
        {
          "name": "A#3",
          "midi": 58,
          "time": 49.448783999999996,
          "velocity": 0.4330708661417323,
          "duration": 0.6421919999999943
        },
        {
          "name": "A2",
          "midi": 45,
          "time": 50.09097599999999,
          "velocity": 0.5196850393700787,
          "duration": 0.6421919999999943
        },
        {
          "name": "E3",
          "midi": 52,
          "time": 50.733167999999985,
          "velocity": 0.4330708661417323,
          "duration": 0.6421920000000014
        },
        {
          "name": "A3",
          "midi": 57,
          "time": 51.375359999999986,
          "velocity": 0.4330708661417323,
          "duration": 0.6421920000000014
        },
        {
          "name": "A2",
          "midi": 45,
          "time": 52.01755199999999,
          "velocity": 0.48031496062992124,
          "duration": 0.6421920000000014
        },
        {
          "name": "E3",
          "midi": 52,
          "time": 52.65974399999999,
          "velocity": 0.4330708661417323,
          "duration": 0.6421920000000014
        },
        {
          "name": "A#3",
          "midi": 58,
          "time": 53.30193599999999,
          "velocity": 0.4330708661417323,
          "duration": 0.6421919999999943
        },
        {
          "name": "A2",
          "midi": 45,
          "time": 53.944127999999985,
          "velocity": 0.3858267716535433,
          "duration": 0.32109599999999716
        },
        {
          "name": "A3",
          "midi": 57,
          "time": 54.26522399999998,
          "velocity": 0.3543307086614173,
          "duration": 0.32109599999999716
        },
        {
          "name": "B3",
          "midi": 59,
          "time": 54.58631999999998,
          "velocity": 0.3700787401574803,
          "duration": 0.32109600000000427
        },
        {
          "name": "C#4",
          "midi": 61,
          "time": 54.907415999999984,
          "velocity": 0.3779527559055118,
          "duration": 0.32109599999999716
        },
        {
          "name": "D4",
          "midi": 62,
          "time": 55.22851199999998,
          "velocity": 0.3858267716535433,
          "duration": 0.32109599999999716
        },
        {
          "name": "E4",
          "midi": 64,
          "time": 55.54960799999998,
          "velocity": 0.4015748031496063,
          "duration": 0.32109599999999716
        },
        {
          "name": "F4",
          "midi": 65,
          "time": 55.870703999999975,
          "velocity": 0.4094488188976378,
          "duration": 0.48164400000000285
        },
        {
          "name": "E4",
          "midi": 64,
          "time": 56.35234799999998,
          "velocity": 0.3779527559055118,
          "duration": 0.08027400000000284
        },
        {
          "name": "F4",
          "midi": 65,
          "time": 56.43262199999998,
          "velocity": 0.3543307086614173,
          "duration": 0.08027400000000284
        },
        {
          "name": "E4",
          "midi": 64,
          "time": 56.512895999999984,
          "velocity": 0.4015748031496063,
          "duration": 0.32109600000000427
        },
        {
          "name": "D4",
          "midi": 62,
          "time": 56.83399199999999,
          "velocity": 0.3779527559055118,
          "duration": 0.32109599999999716
        },
        {
          "name": "C4",
          "midi": 60,
          "time": 57.155087999999985,
          "velocity": 0.3700787401574803,
          "duration": 0.32109599999999716
        },
        {
          "name": "D4",
          "midi": 62,
          "time": 57.47618399999998,
          "velocity": 0.3858267716535433,
          "duration": 0.32109599999999716
        },
        {
          "name": "E4",
          "midi": 64,
          "time": 57.79727999999998,
          "velocity": 0.3543307086614173,
          "duration": 0.32109599999999716
        },
        {
          "name": "F4",
          "midi": 65,
          "time": 58.11837599999998,
          "velocity": 0.3700787401574803,
          "duration": 0.32109600000000427
        },
        {
          "name": "G4",
          "midi": 67,
          "time": 58.43947199999998,
          "velocity": 0.3858267716535433,
          "duration": 0.32109599999999716
        },
        {
          "name": "E4",
          "midi": 64,
          "time": 58.76056799999998,
          "velocity": 0.3779527559055118,
          "duration": 0.32109599999999716
        },
        {
          "name": "F4",
          "midi": 65,
          "time": 59.081663999999975,
          "velocity": 0.3700787401574803,
          "duration": 0.32109599999999716
        },
        {
          "name": "E4",
          "midi": 64,
          "time": 59.40275999999997,
          "velocity": 0.3464566929133858,
          "duration": 0.16054799999999858
        },
        {
          "name": "D4",
          "midi": 62,
          "time": 59.56330799999997,
          "velocity": 0.3700787401574803,
          "duration": 0.08027400000000284
        },
        {
          "name": "E4",
          "midi": 64,
          "time": 59.643581999999974,
          "velocity": 0.3464566929133858,
          "duration": 0.08027400000000284
        },
        {
          "name": "D4",
          "midi": 62,
          "time": 59.72385599999998,
          "velocity": 0.3858267716535433,
          "duration": 0.6421920000000014
        },
        {
          "name": "C4",
          "midi": 60,
          "time": 60.36604799999998,
          "velocity": 0.3464566929133858,
          "duration": 0.6421920000000014
        },
        {
          "name": "A#3",
          "midi": 58,
          "time": 61.00823999999998,
          "velocity": 0.3228346456692913,
          "duration": 0.6421919999999943
        },
        {
          "name": "A3",
          "midi": 57,
          "time": 61.650431999999974,
          "velocity": 0.3779527559055118,
          "duration": 0.32109600000000427
        },
        {
          "name": "B3",
          "midi": 59,
          "time": 61.97152799999998,
          "velocity": 0.3858267716535433,
          "duration": 0.32109599999999716
        },
        {
          "name": "C#4",
          "midi": 61,
          "time": 62.292623999999975,
          "velocity": 0.3937007874015748,
          "duration": 0.32109600000000427
        },
        {
          "name": "D4",
          "midi": 62,
          "time": 62.61371999999998,
          "velocity": 0.3937007874015748,
          "duration": 0.32109599999999716
        },
        {
          "name": "E4",
          "midi": 64,
          "time": 62.93481599999998,
          "velocity": 0.4015748031496063,
          "duration": 0.32109599999999716
        },
        {
          "name": "F4",
          "midi": 65,
          "time": 63.255911999999974,
          "velocity": 0.4094488188976378,
          "duration": 0.32109599999999716
        },
        {
          "name": "G4",
          "midi": 67,
          "time": 63.57700799999997,
          "velocity": 0.41732283464566927,
          "duration": 0.32109599999999716
        },
        {
          "name": "A4",
          "midi": 69,
          "time": 63.89810399999997,
          "velocity": 0.44881889763779526,
          "duration": 0.16054799999999858
        },
        {
          "name": "A#4",
          "midi": 70,
          "time": 64.05865199999997,
          "velocity": 0.4409448818897638,
          "duration": 0.08027400000000284
        },
        {
          "name": "C5",
          "midi": 72,
          "time": 64.13892599999997,
          "velocity": 0.4094488188976378,
          "duration": 0.08027399999998863
        },
        {
          "name": "A#4",
          "midi": 70,
          "time": 64.21919999999996,
          "velocity": 0.49606299212598426,
          "duration": 0.6421920000000085
        },
        {
          "name": "A4",
          "midi": 69,
          "time": 64.86139199999997,
          "velocity": 0.4566929133858268,
          "duration": 0.32109599999999716
        },
        {
          "name": "G4",
          "midi": 67,
          "time": 65.18248799999996,
          "velocity": 0.4409448818897638,
          "duration": 0.32109599999999716
        },
        {
          "name": "A4",
          "midi": 69,
          "time": 65.50358399999996,
          "velocity": 0.4566929133858268,
          "duration": 0.6421920000000085
        },
        {
          "name": "A4",
          "midi": 69,
          "time": 66.14577599999997,
          "velocity": 0.47244094488188976,
          "duration": 0.32109599999999716
        },
        {
          "name": "G4",
          "midi": 67,
          "time": 66.46687199999997,
          "velocity": 0.4566929133858268,
          "duration": 0.3210960000000114
        },
        {
          "name": "A#4",
          "midi": 70,
          "time": 66.78796799999998,
          "velocity": 0.4881889763779528,
          "duration": 0.3210960000000114
        },
        {
          "name": "A4",
          "midi": 69,
          "time": 67.10906399999999,
          "velocity": 0.4566929133858268,
          "duration": 0.1605480000000057
        },
        {
          "name": "F4",
          "midi": 65,
          "time": 67.269612,
          "velocity": 0.3543307086614173,
          "duration": 0.08027400000000284
        },
        {
          "name": "G4",
          "midi": 67,
          "time": 67.349886,
          "velocity": 0.2992125984251969,
          "duration": 0.08027400000000284
        },
        {
          "name": "F4",
          "midi": 65,
          "time": 67.43016,
          "velocity": 0.3858267716535433,
          "duration": 0.32109599999999716
        },
        {
          "name": "D#4",
          "midi": 63,
          "time": 67.751256,
          "velocity": 0.3858267716535433,
          "duration": 0.32109599999999716
        },
        {
          "name": "D4",
          "midi": 62,
          "time": 68.072352,
          "velocity": 0.4330708661417323,
          "duration": 0.32109599999999716
        },
        {
          "name": "E4",
          "midi": 64,
          "time": 68.39344799999999,
          "velocity": 0.33858267716535434,
          "duration": 0.32109599999999716
        },
        {
          "name": "C4",
          "midi": 60,
          "time": 68.71454399999999,
          "velocity": 0.36220472440944884,
          "duration": 0.32109599999999716
        },
        {
          "name": "A#3",
          "midi": 58,
          "time": 69.03563999999999,
          "velocity": 0.4015748031496063,
          "duration": 0.3210960000000114
        },
        {
          "name": "A2",
          "midi": 45,
          "time": 69.356736,
          "velocity": 0.48031496062992124,
          "duration": 0.6421919999999943
        },
        {
          "name": "E3",
          "midi": 52,
          "time": 69.99892799999999,
          "velocity": 0.4330708661417323,
          "duration": 0.6421919999999943
        },
        {
          "name": "A3",
          "midi": 57,
          "time": 70.64111999999999,
          "velocity": 0.4330708661417323,
          "duration": 0.6421919999999943
        },
        {
          "name": "A2",
          "midi": 45,
          "time": 71.28331199999998,
          "velocity": 0.4881889763779528,
          "duration": 0.6421919999999943
        },
        {
          "name": "E3",
          "midi": 52,
          "time": 71.92550399999998,
          "velocity": 0.4330708661417323,
          "duration": 0.6421919999999943
        },
        {
          "name": "A#3",
          "midi": 58,
          "time": 72.56769599999997,
          "velocity": 0.4330708661417323,
          "duration": 0.6421919999999943
        },
        {
          "name": "A2",
          "midi": 45,
          "time": 73.20988799999996,
          "velocity": 0.4881889763779528,
          "duration": 0.6421919999999943
        },
        {
          "name": "E3",
          "midi": 52,
          "time": 73.85207999999996,
          "velocity": 0.4094488188976378,
          "duration": 0.6421919999999943
        },
        {
          "name": "A3",
          "midi": 57,
          "time": 74.49427199999995,
          "velocity": 0.4094488188976378,
          "duration": 0.6421919999999943
        },
        {
          "name": "A2",
          "midi": 45,
          "time": 75.13646399999995,
          "velocity": 0.49606299212598426,
          "duration": 0.6421919999999943
        },
        {
          "name": "E3",
          "midi": 52,
          "time": 75.77865599999994,
          "velocity": 0.4330708661417323,
          "duration": 0.6421919999999943
        },
        {
          "name": "A#3",
          "midi": 58,
          "time": 76.42084799999994,
          "velocity": 0.4251968503937008,
          "duration": 0.6421919999999943
        },
        {
          "name": "A2",
          "midi": 45,
          "time": 77.06303999999993,
          "velocity": 0.5275590551181102,
          "duration": 0.6421919999999943
        },
        {
          "name": "E3",
          "midi": 52,
          "time": 77.70523199999992,
          "velocity": 0.44881889763779526,
          "duration": 0.6421919999999943
        },
        {
          "name": "A3",
          "midi": 57,
          "time": 78.34742399999992,
          "velocity": 0.4566929133858268,
          "duration": 0.6421919999999943
        },
        {
          "name": "F2",
          "midi": 41,
          "time": 78.98961599999991,
          "velocity": 0.5118110236220472,
          "duration": 0.6421919999999943
        },
        {
          "name": "C3",
          "midi": 48,
          "time": 79.63180799999991,
          "velocity": 0.4015748031496063,
          "duration": 0.6421919999999943
        },
        {
          "name": "A3",
          "midi": 57,
          "time": 80.2739999999999,
          "velocity": 0.5433070866141733,
          "duration": 0.6421919999999943
        },
        {
          "name": "C3",
          "midi": 48,
          "time": 80.9161919999999,
          "velocity": 0.5826771653543307,
          "duration": 0.6421919999999943
        },
        {
          "name": "G3",
          "midi": 55,
          "time": 81.55838399999989,
          "velocity": 0.5748031496062992,
          "duration": 0.6421919999999943
        },
        {
          "name": "C4",
          "midi": 60,
          "time": 82.20057599999988,
          "velocity": 0.5433070866141733,
          "duration": 0.6421919999999943
        },
        {
          "name": "G3",
          "midi": 55,
          "time": 82.84276799999988,
          "velocity": 0.5196850393700787,
          "duration": 0.16054799999999148
        },
        {
          "name": "A3",
          "midi": 57,
          "time": 83.48495999999987,
          "velocity": 0.4645669291338583,
          "duration": 0.1605480000000057
        },
        {
          "name": "C4",
          "midi": 60,
          "time": 84.04687799999988,
          "velocity": 0.4330708661417323,
          "duration": 0.08027400000000284
        },
        {
          "name": "A#3",
          "midi": 58,
          "time": 84.12715199999988,
          "velocity": 0.41732283464566927,
          "duration": 0.1605480000000057
        },
        {
          "name": "A2",
          "midi": 45,
          "time": 84.76934399999989,
          "velocity": 0.5118110236220472,
          "duration": 0.6421919999999943
        },
        {
          "name": "E3",
          "midi": 52,
          "time": 85.41153599999988,
          "velocity": 0.49606299212598426,
          "duration": 0.6421919999999943
        },
        {
          "name": "A3",
          "midi": 57,
          "time": 86.05372799999988,
          "velocity": 0.44881889763779526,
          "duration": 0.6421919999999943
        },
        {
          "name": "D3",
          "midi": 50,
          "time": 86.69591999999987,
          "velocity": 0.3700787401574803,
          "duration": 0.21406399999999337
        },
        {
          "name": "E3",
          "midi": 52,
          "time": 86.90998399999987,
          "velocity": 0.3858267716535433,
          "duration": 0.21406399999999337
        },
        {
          "name": "F3",
          "midi": 53,
          "time": 87.12404799999986,
          "velocity": 0.4015748031496063,
          "duration": 0.21406399999999337
        },
        {
          "name": "G3",
          "midi": 55,
          "time": 87.33811199999985,
          "velocity": 0.41732283464566927,
          "duration": 0.21406399999999337
        },
        {
          "name": "A3",
          "midi": 57,
          "time": 87.55217599999985,
          "velocity": 0.4330708661417323,
          "duration": 0.21406399999999337
        },
        {
          "name": "A#3",
          "midi": 58,
          "time": 87.76623999999984,
          "velocity": 0.4566929133858268,
          "duration": 0.21406399999999337
        },
        {
          "name": "C4",
          "midi": 60,
          "time": 87.98030399999983,
          "velocity": 0.47244094488188976,
          "duration": 0.21406399999999337
        },
        {
          "name": "A#3",
          "midi": 58,
          "time": 88.19436799999983,
          "velocity": 0.44881889763779526,
          "duration": 0.21406399999999337
        },
        {
          "name": "A3",
          "midi": 57,
          "time": 88.40843199999982,
          "velocity": 0.4330708661417323,
          "duration": 0.21406399999999337
        },
        {
          "name": "A2",
          "midi": 45,
          "time": 88.62249599999981,
          "velocity": 0.5118110236220472,
          "duration": 0.6421919999999943
        },
        {
          "name": "E3",
          "midi": 52,
          "time": 89.26468799999981,
          "velocity": 0.49606299212598426,
          "duration": 0.6421919999999943
        },
        {
          "name": "A3",
          "midi": 57,
          "time": 89.9068799999998,
          "velocity": 0.44881889763779526,
          "duration": 0.6421919999999943
        },
        {
          "name": "D3",
          "midi": 50,
          "time": 90.5490719999998,
          "velocity": 0.33070866141732286,
          "duration": 0.21406399999999337
        },
        {
          "name": "E3",
          "midi": 52,
          "time": 90.76313599999979,
          "velocity": 0.3464566929133858,
          "duration": 0.21406399999999337
        },
        {
          "name": "F3",
          "midi": 53,
          "time": 90.97719999999978,
          "velocity": 0.3543307086614173,
          "duration": 0.21406399999999337
        },
        {
          "name": "G3",
          "midi": 55,
          "time": 91.19126399999978,
          "velocity": 0.3700787401574803,
          "duration": 0.21406399999999337
        },
        {
          "name": "A3",
          "midi": 57,
          "time": 91.40532799999977,
          "velocity": 0.3858267716535433,
          "duration": 0.21406399999999337
        },
        {
          "name": "A#3",
          "midi": 58,
          "time": 91.61939199999976,
          "velocity": 0.3858267716535433,
          "duration": 0.21406399999999337
        },
        {
          "name": "C4",
          "midi": 60,
          "time": 91.83345599999976,
          "velocity": 0.4094488188976378,
          "duration": 0.21406399999999337
        },
        {
          "name": "A#3",
          "midi": 58,
          "time": 92.04751999999975,
          "velocity": 0.3858267716535433,
          "duration": 0.21406399999999337
        },
        {
          "name": "A3",
          "midi": 57,
          "time": 92.26158399999974,
          "velocity": 0.3464566929133858,
          "duration": 0.21406399999999337
        },
        {
          "name": "G#3",
          "midi": 56,
          "time": 92.47564799999974,
          "velocity": 0.3228346456692913,
          "duration": 1.9265760000000114
        },
        {
          "name": "D4",
          "midi": 62,
          "time": 92.47564799999974,
          "velocity": 0.3228346456692913,
          "duration": 1.9265760000000114
        },
        {
          "name": "A#3",
          "midi": 58,
          "time": 94.40222399999975,
          "velocity": 0.36220472440944884,
          "duration": 2.2476720000000086
        },
        {
          "name": "C4",
          "midi": 60,
          "time": 96.64989599999976,
          "velocity": 0.33858267716535434,
          "duration": 0.32109599999999716
        },
        {
          "name": "D4",
          "midi": 62,
          "time": 96.97099199999975,
          "velocity": 0.36220472440944884,
          "duration": 0.32109599999999716
        },
        {
          "name": "F4",
          "midi": 65,
          "time": 97.29208799999975,
          "velocity": 0.30708661417322836,
          "duration": 0.32109599999999716
        },
        {
          "name": "D4",
          "midi": 62,
          "time": 97.61318399999975,
          "velocity": 0.3700787401574803,
          "duration": 0.32109599999999716
        },
        {
          "name": "C4",
          "midi": 60,
          "time": 97.93427999999975,
          "velocity": 0.3543307086614173,
          "duration": 0.1605480000000057
        },
        {
          "name": "C4",
          "midi": 60,
          "time": 98.09482799999975,
          "velocity": 0.31496062992125984,
          "duration": 0.08027400000000284
        },
        {
          "name": "D4",
          "midi": 62,
          "time": 98.17510199999975,
          "velocity": 0.30708661417322836,
          "duration": 0.08027400000000284
        },
        {
          "name": "C4",
          "midi": 60,
          "time": 98.25537599999976,
          "velocity": 0.31496062992125984,
          "duration": 0.32109599999999716
        },
        {
          "name": "A#3",
          "midi": 58,
          "time": 98.57647199999975,
          "velocity": 0.30708661417322836,
          "duration": 0.32109599999999716
        },
        {
          "name": "F3",
          "midi": 53,
          "time": 98.89756799999975,
          "velocity": 0.31496062992125984,
          "duration": 0.32109599999999716
        },
        {
          "name": "A#3",
          "midi": 58,
          "time": 99.21866399999975,
          "velocity": 0.28346456692913385,
          "duration": 0.32109599999999716
        },
        {
          "name": "A3",
          "midi": 57,
          "time": 99.53975999999975,
          "velocity": 0.30708661417322836,
          "duration": 1.2843840000000029
        },
        {
          "name": "G#3",
          "midi": 56,
          "time": 100.82414399999975,
          "velocity": 0.30708661417322836,
          "duration": 0.32109599999999716
        },
        {
          "name": "F3",
          "midi": 53,
          "time": 101.14523999999975,
          "velocity": 0.28346456692913385,
          "duration": 0.32109599999999716
        },
        {
          "name": "E3",
          "midi": 52,
          "time": 101.46633599999974,
          "velocity": 0.2992125984251969,
          "duration": 0.32109599999999716
        },
        {
          "name": "D3",
          "midi": 50,
          "time": 101.78743199999974,
          "velocity": 0.2755905511811024,
          "duration": 0.3210960000000114
        },
        {
          "name": "A2",
          "midi": 45,
          "time": 102.10852799999975,
          "velocity": 0.2677165354330709,
          "duration": 0.32109599999999716
        },
        {
          "name": "E3",
          "midi": 52,
          "time": 102.42962399999975,
          "velocity": 0.25196850393700787,
          "duration": 0.32109599999999716
        },
        {
          "name": "A3",
          "midi": 57,
          "time": 102.75071999999975,
          "velocity": 0.25196850393700787,
          "duration": 0.32109599999999716
        },
        {
          "name": "C#4",
          "midi": 61,
          "time": 103.07181599999974,
          "velocity": 0.25984251968503935,
          "duration": 0.32109599999999716
        },
        {
          "name": "E4",
          "midi": 64,
          "time": 103.39291199999974,
          "velocity": 0.2677165354330709,
          "duration": 0.32109599999999716
        },
        {
          "name": "A4",
          "midi": 69,
          "time": 103.71400799999974,
          "velocity": 0.2755905511811024,
          "duration": 0.32109599999999716
        },
        {
          "name": "C#5",
          "midi": 73,
          "time": 104.03510399999973,
          "velocity": 0.30708661417322836,
          "duration": 0.32109599999999716
        },
        {
          "name": "C#4",
          "midi": 61,
          "time": 104.35619999999973,
          "velocity": 0.25196850393700787,
          "duration": 0.32109599999999716
        },
        {
          "name": "E4",
          "midi": 64,
          "time": 104.67729599999973,
          "velocity": 0.25196850393700787,
          "duration": 0.32109599999999716
        },
        {
          "name": "A4",
          "midi": 69,
          "time": 104.99839199999973,
          "velocity": 0.25984251968503935,
          "duration": 0.32109599999999716
        },
        {
          "name": "C#5",
          "midi": 73,
          "time": 105.31948799999972,
          "velocity": 0.2677165354330709,
          "duration": 0.32109599999999716
        },
        {
          "name": "E5",
          "midi": 76,
          "time": 105.64058399999972,
          "velocity": 0.2755905511811024,
          "duration": 0.32109599999999716
        },
        {
          "name": "A5",
          "midi": 81,
          "time": 105.96167999999972,
          "velocity": 0.30708661417322836,
          "duration": 0.32109599999999716
        },
        {
          "name": "C#4",
          "midi": 61,
          "time": 106.28277599999971,
          "velocity": 0.25196850393700787,
          "duration": 0.32109599999999716
        },
        {
          "name": "E4",
          "midi": 64,
          "time": 106.60387199999971,
          "velocity": 0.25196850393700787,
          "duration": 0.32109599999999716
        },
        {
          "name": "A4",
          "midi": 69,
          "time": 106.92496799999971,
          "velocity": 0.25984251968503935,
          "duration": 0.32109599999999716
        },
        {
          "name": "C#5",
          "midi": 73,
          "time": 107.2460639999997,
          "velocity": 0.2677165354330709,
          "duration": 0.32109599999999716
        },
        {
          "name": "E5",
          "midi": 76,
          "time": 107.5671599999997,
          "velocity": 0.2755905511811024,
          "duration": 0.32109599999999716
        },
        {
          "name": "A5",
          "midi": 81,
          "time": 107.8882559999997,
          "velocity": 0.30708661417322836,
          "duration": 0.32109599999999716
        },
        {
          "name": "C#5",
          "midi": 73,
          "time": 108.2093519999997,
          "velocity": 0.2677165354330709,
          "duration": 0.32109599999999716
        },
        {
          "name": "E5",
          "midi": 76,
          "time": 108.5304479999997,
          "velocity": 0.2677165354330709,
          "duration": 0.32109599999999716
        },
        {
          "name": "A5",
          "midi": 81,
          "time": 108.85154399999969,
          "velocity": 0.25984251968503935,
          "duration": 0.32109599999999716
        },
        {
          "name": "C#6",
          "midi": 85,
          "time": 109.17263999999969,
          "velocity": 0.25196850393700787,
          "duration": 0.32109599999999716
        },
        {
          "name": "E6",
          "midi": 88,
          "time": 109.49373599999969,
          "velocity": 0.25196850393700787,
          "duration": 0.32109599999999716
        },
        {
          "name": "C#6",
          "midi": 85,
          "time": 109.81483199999968,
          "velocity": 0.18110236220472442,
          "duration": 1.9265760000000114
        },
        {
          "name": "E5",
          "midi": 76,
          "time": 109.81483199999968,
          "velocity": 0.18110236220472442,
          "duration": 1.9265760000000114
        },
        {
          "name": "A4",
          "midi": 69,
          "time": 109.81483199999968,
          "velocity": 0.18110236220472442,
          "duration": 1.9265760000000114
        }
      ],
      "controlChanges": {
        "7": [
          {
            "number": 7,
            "time": 0,
            "value": 0.7874015748031497
          }
        ],
        "64": [
          {
            "number": 64,
            "time": 0.3585572,
            "value": 1
          },
          {
            "number": 64,
            "time": 2.8617681,
            "value": 0
          },
          {
            "number": 64,
            "time": 3.3099646,
            "value": 1
          },
          {
            "number": 64,
            "time": 3.7822432999999998,
            "value": 0
          },
          {
            "number": 64,
            "time": 3.9481428999999997,
            "value": 1
          },
          {
            "number": 64,
            "time": 4.457882799999999,
            "value": 0
          },
          {
            "number": 64,
            "time": 4.5702663999999995,
            "value": 1
          },
          {
            "number": 64,
            "time": 5.042545099999999,
            "value": 0
          },
          {
            "number": 64,
            "time": 5.156266599999999,
            "value": 1
          },
          {
            "number": 64,
            "time": 5.8225408,
            "value": 0
          },
          {
            "number": 64,
            "time": 6.1998286,
            "value": 1
          },
          {
            "number": 64,
            "time": 6.6065502,
            "value": 0
          },
          {
            "number": 64,
            "time": 6.6480251,
            "value": 1
          },
          {
            "number": 64,
            "time": 7.125655399999999,
            "value": 0
          },
          {
            "number": 64,
            "time": 7.1537513,
            "value": 1
          },
          {
            "number": 64,
            "time": 7.663491199999999,
            "value": 0
          },
          {
            "number": 64,
            "time": 7.9350849,
            "value": 1
          },
          {
            "number": 64,
            "time": 9.694423400000003,
            "value": 0
          },
          {
            "number": 64,
            "time": 9.846944000000004,
            "value": 1
          },
          {
            "number": 64,
            "time": 11.559456000000008,
            "value": 0
          },
          {
            "number": 64,
            "time": 11.728031400000008,
            "value": 1
          },
          {
            "number": 64,
            "time": 13.547575400000012,
            "value": 0
          },
          {
            "number": 64,
            "time": 13.654607400000012,
            "value": 1
          },
          {
            "number": 64,
            "time": 15.563790700000016,
            "value": 0
          },
          {
            "number": 64,
            "time": 15.771165200000015,
            "value": 1
          },
          {
            "number": 64,
            "time": 18.265010800000013,
            "value": 0
          },
          {
            "number": 64,
            "time": 18.722572600000014,
            "value": 1
          },
          {
            "number": 64,
            "time": 19.194851300000014,
            "value": 0
          },
          {
            "number": 64,
            "time": 19.360750900000014,
            "value": 1
          },
          {
            "number": 64,
            "time": 19.870490800000017,
            "value": 0
          },
          {
            "number": 64,
            "time": 19.982874400000014,
            "value": 1
          },
          {
            "number": 64,
            "time": 20.455153100000015,
            "value": 0
          },
          {
            "number": 64,
            "time": 20.568874600000015,
            "value": 1
          },
          {
            "number": 64,
            "time": 21.23514880000001,
            "value": 0
          },
          {
            "number": 64,
            "time": 21.54687950000001,
            "value": 1
          },
          {
            "number": 64,
            "time": 22.01915820000001,
            "value": 0
          },
          {
            "number": 64,
            "time": 22.06063310000001,
            "value": 1
          },
          {
            "number": 64,
            "time": 22.538263400000012,
            "value": 0
          },
          {
            "number": 64,
            "time": 22.566359300000013,
            "value": 1
          },
          {
            "number": 64,
            "time": 23.076099200000012,
            "value": 0
          },
          {
            "number": 64,
            "time": 23.326286500000013,
            "value": 1
          },
          {
            "number": 64,
            "time": 24.328373600000013,
            "value": 0
          },
          {
            "number": 64,
            "time": 24.47821840000001,
            "value": 1
          },
          {
            "number": 64,
            "time": 25.04548800000001,
            "value": 0
          },
          {
            "number": 64,
            "time": 25.46157490000001,
            "value": 1
          },
          {
            "number": 64,
            "time": 25.872310200000012,
            "value": 0
          },
          {
            "number": 64,
            "time": 25.913785100000013,
            "value": 1
          },
          {
            "number": 64,
            "time": 26.391415400000014,
            "value": 0
          },
          {
            "number": 64,
            "time": 26.419511300000014,
            "value": 1
          },
          {
            "number": 64,
            "time": 26.929251200000014,
            "value": 0
          },
          {
            "number": 64,
            "time": 26.972064000000014,
            "value": 1
          },
          {
            "number": 64,
            "time": 28.256448000000017,
            "value": 0
          },
          {
            "number": 64,
            "time": 28.388900100000015,
            "value": 1
          },
          {
            "number": 64,
            "time": 28.766187900000013,
            "value": 0
          },
          {
            "number": 64,
            "time": 29.64920190000001,
            "value": 1
          },
          {
            "number": 64,
            "time": 30.158941800000008,
            "value": 0
          },
          {
            "number": 64,
            "time": 30.201754600000008,
            "value": 1
          },
          {
            "number": 64,
            "time": 30.71684610000001,
            "value": 0
          },
          {
            "number": 64,
            "time": 30.84394660000001,
            "value": 1
          },
          {
            "number": 64,
            "time": 32.76650890000001,
            "value": 0
          },
          {
            "number": 64,
            "time": 32.78925320000001,
            "value": 1
          },
          {
            "number": 64,
            "time": 34.65027210000001,
            "value": 0
          },
          {
            "number": 64,
            "time": 34.697098600000004,
            "value": 1
          },
          {
            "number": 64,
            "time": 36.61966090000001,
            "value": 0
          },
          {
            "number": 64,
            "time": 36.642405200000006,
            "value": 1
          },
          {
            "number": 64,
            "time": 38.503424100000004,
            "value": 0
          },
          {
            "number": 64,
            "time": 38.5502506,
            "value": 1
          },
          {
            "number": 64,
            "time": 40.4728129,
            "value": 0
          },
          {
            "number": 64,
            "time": 40.4955572,
            "value": 1
          },
          {
            "number": 64,
            "time": 42.3565761,
            "value": 0
          },
          {
            "number": 64,
            "time": 42.3993889,
            "value": 0
          },
          {
            "number": 64,
            "time": 42.4221332,
            "value": 1
          },
          {
            "number": 64,
            "time": 44.283152099999995,
            "value": 0
          },
          {
            "number": 64,
            "time": 44.325964899999995,
            "value": 0
          },
          {
            "number": 64,
            "time": 44.348709199999995,
            "value": 1
          },
          {
            "number": 64,
            "time": 46.2097281,
            "value": 0
          },
          {
            "number": 64,
            "time": 46.256554599999994,
            "value": 1
          },
          {
            "number": 64,
            "time": 48.1791169,
            "value": 0
          },
          {
            "number": 64,
            "time": 48.201861199999996,
            "value": 1
          },
          {
            "number": 64,
            "time": 50.062880099999994,
            "value": 0
          },
          {
            "number": 64,
            "time": 50.10970659999999,
            "value": 1
          },
          {
            "number": 64,
            "time": 52.03226889999999,
            "value": 0
          },
          {
            "number": 64,
            "time": 52.05501319999999,
            "value": 1
          },
          {
            "number": 64,
            "time": 53.91603209999999,
            "value": 0
          },
          {
            "number": 64,
            "time": 54.065876899999985,
            "value": 1
          },
          {
            "number": 64,
            "time": 54.52477659999998,
            "value": 0
          },
          {
            "number": 64,
            "time": 54.61709169999998,
            "value": 1
          },
          {
            "number": 64,
            "time": 55.76367199999998,
            "value": 0
          },
          {
            "number": 64,
            "time": 56.04596889999998,
            "value": 1
          },
          {
            "number": 64,
            "time": 56.536978199999986,
            "value": 0
          },
          {
            "number": 64,
            "time": 56.98517469999999,
            "value": 1
          },
          {
            "number": 64,
            "time": 57.69827539999998,
            "value": 0
          },
          {
            "number": 64,
            "time": 57.89227089999998,
            "value": 1
          },
          {
            "number": 64,
            "time": 58.40201079999998,
            "value": 0
          },
          {
            "number": 64,
            "time": 58.51439439999998,
            "value": 1
          },
          {
            "number": 64,
            "time": 58.986673099999976,
            "value": 0
          },
          {
            "number": 64,
            "time": 59.10039459999997,
            "value": 1
          },
          {
            "number": 64,
            "time": 59.76666879999998,
            "value": 0
          },
          {
            "number": 64,
            "time": 60.078399499999975,
            "value": 1
          },
          {
            "number": 64,
            "time": 60.55067819999998,
            "value": 0
          },
          {
            "number": 64,
            "time": 60.592153099999976,
            "value": 1
          },
          {
            "number": 64,
            "time": 61.06978339999998,
            "value": 0
          },
          {
            "number": 64,
            "time": 61.097879299999974,
            "value": 1
          },
          {
            "number": 64,
            "time": 61.607619199999974,
            "value": 0
          },
          {
            "number": 64,
            "time": 61.825696899999976,
            "value": 1
          },
          {
            "number": 64,
            "time": 62.31670619999998,
            "value": 0
          },
          {
            "number": 64,
            "time": 62.44514459999998,
            "value": 1
          },
          {
            "number": 64,
            "time": 63.47800339999997,
            "value": 0
          },
          {
            "number": 64,
            "time": 63.67199889999997,
            "value": 1
          },
          {
            "number": 64,
            "time": 64.18173879999996,
            "value": 0
          },
          {
            "number": 64,
            "time": 64.58712249999996,
            "value": 1
          },
          {
            "number": 64,
            "time": 65.38584879999996,
            "value": 0
          },
          {
            "number": 64,
            "time": 65.61730549999996,
            "value": 1
          },
          {
            "number": 64,
            "time": 66.07085359999996,
            "value": 0
          },
          {
            "number": 64,
            "time": 66.25949749999997,
            "value": 1
          },
          {
            "number": 64,
            "time": 66.71304559999997,
            "value": 0
          },
          {
            "number": 64,
            "time": 66.93915069999998,
            "value": 1
          },
          {
            "number": 64,
            "time": 67.3351691,
            "value": 0
          },
          {
            "number": 64,
            "time": 67.8649775,
            "value": 1
          },
          {
            "number": 64,
            "time": 68.08706889999999,
            "value": 0
          },
          {
            "number": 64,
            "time": 68.12453009999999,
            "value": 1
          },
          {
            "number": 64,
            "time": 68.71989559999999,
            "value": 0
          },
          {
            "number": 64,
            "time": 68.75200519999999,
            "value": 1
          },
          {
            "number": 64,
            "time": 69.2951926,
            "value": 0
          },
          {
            "number": 64,
            "time": 69.3754666,
            "value": 1
          },
          {
            "number": 64,
            "time": 71.29802889999998,
            "value": 0
          },
          {
            "number": 64,
            "time": 71.32077319999998,
            "value": 1
          },
          {
            "number": 64,
            "time": 73.18179209999997,
            "value": 0
          },
          {
            "number": 64,
            "time": 73.22861859999996,
            "value": 1
          },
          {
            "number": 64,
            "time": 75.15118089999994,
            "value": 0
          },
          {
            "number": 64,
            "time": 75.17392519999994,
            "value": 1
          },
          {
            "number": 64,
            "time": 77.03494409999993,
            "value": 0
          },
          {
            "number": 64,
            "time": 77.08177059999993,
            "value": 1
          },
          {
            "number": 64,
            "time": 79.00433289999991,
            "value": 0
          },
          {
            "number": 64,
            "time": 79.02707719999991,
            "value": 1
          },
          {
            "number": 64,
            "time": 80.8880960999999,
            "value": 0
          },
          {
            "number": 64,
            "time": 80.93090889999989,
            "value": 0
          },
          {
            "number": 64,
            "time": 80.95365319999989,
            "value": 1
          },
          {
            "number": 64,
            "time": 82.81467209999988,
            "value": 0
          },
          {
            "number": 64,
            "time": 82.85748489999987,
            "value": 0
          },
          {
            "number": 64,
            "time": 82.88022919999987,
            "value": 1
          },
          {
            "number": 64,
            "time": 84.76934399999989,
            "value": 0
          },
          {
            "number": 64,
            "time": 85.01417969999989,
            "value": 1
          },
          {
            "number": 64,
            "time": 86.66782409999988,
            "value": 0
          },
          {
            "number": 64,
            "time": 86.79091089999987,
            "value": 1
          },
          {
            "number": 64,
            "time": 87.32874669999985,
            "value": 0
          },
          {
            "number": 64,
            "time": 87.39430379999985,
            "value": 1
          },
          {
            "number": 64,
            "time": 87.97093869999983,
            "value": 0
          },
          {
            "number": 64,
            "time": 88.03649579999983,
            "value": 1
          },
          {
            "number": 64,
            "time": 88.53687039999981,
            "value": 0
          },
          {
            "number": 64,
            "time": 88.8365599999998,
            "value": 1
          },
          {
            "number": 64,
            "time": 90.5209760999998,
            "value": 0
          },
          {
            "number": 64,
            "time": 90.6440628999998,
            "value": 1
          },
          {
            "number": 64,
            "time": 91.18189869999978,
            "value": 0
          },
          {
            "number": 64,
            "time": 91.24745579999977,
            "value": 1
          },
          {
            "number": 64,
            "time": 91.82409069999976,
            "value": 0
          },
          {
            "number": 64,
            "time": 91.88964779999975,
            "value": 1
          },
          {
            "number": 64,
            "time": 92.39002239999974,
            "value": 0
          },
          {
            "number": 64,
            "time": 92.58267999999974,
            "value": 1
          },
          {
            "number": 64,
            "time": 93.86706399999974,
            "value": 0
          },
          {
            "number": 64,
            "time": 94.54537929999975,
            "value": 1
          },
          {
            "number": 64,
            "time": 97.91554939999975,
            "value": 0
          },
          {
            "number": 64,
            "time": 98.63266379999975,
            "value": 1
          },
          {
            "number": 64,
            "time": 99.60130339999975,
            "value": 0
          },
          {
            "number": 64,
            "time": 99.72840389999975,
            "value": 1
          },
          {
            "number": 64,
            "time": 100.86160519999974,
            "value": 0
          },
          {
            "number": 64,
            "time": 100.99271939999974,
            "value": 1
          },
          {
            "number": 64,
            "time": 101.92523569999975,
            "value": 0
          },
          {
            "number": 64,
            "time": 102.33730889999975,
            "value": 1
          },
          {
            "number": 64,
            "time": 111.20624799999969,
            "value": 0
          }
        ]
      },
      "id": 2,
      "name": "Piano left",
      "instrumentNumber": 0,
      "instrument": "acoustic grand piano",
      "instrumentFamily": "piano",
      "channelNumber": 0,
      "isPercussion": false
    },
    {
      "startTime": 0,
      "duration": 0,
      "length": 0,
      "notes": [],
      "controlChanges": {},
      "id": 3,
      "name": "Albeniz :Espana Op. 165 Prelude"
    },
    {
      "startTime": 0,
      "duration": 0,
      "length": 0,
      "notes": [],
      "controlChanges": {},
      "id": 4,
      "name": "Copyright  2001 by Bernd Krger"
    },
    {
      "startTime": 0,
      "duration": 0,
      "length": 0,
      "notes": [],
      "controlChanges": {},
      "id": 5,
      "name": "email: bernd.krueger@piano-midi.de"
    },
    {
      "startTime": 0,
      "duration": 0,
      "length": 0,
      "notes": [],
      "controlChanges": {},
      "id": 6,
      "name": "http://www.piano-midi.de"
    },
    {
      "startTime": 0,
      "duration": 0,
      "length": 0,
      "notes": [],
      "controlChanges": {},
      "id": 7,
      "name": "Edition: 18.03.01"
    },
    {
      "startTime": 0,
      "duration": 0,
      "length": 0,
      "notes": [],
      "controlChanges": {},
      "id": 8
    }
  ]
}
